%TF.GenerationSoftware,KiCad,Pcbnew,(5.1.8-0-10_14)*%
%TF.CreationDate,2021-06-09T19:28:07+01:00*%
%TF.ProjectId,BassStation_Sequencer_MidiInterface,42617373-5374-4617-9469-6f6e5f536571,A*%
%TF.SameCoordinates,Original*%
%TF.FileFunction,Paste,Top*%
%TF.FilePolarity,Positive*%
%FSLAX46Y46*%
G04 Gerber Fmt 4.6, Leading zero omitted, Abs format (unit mm)*
G04 Created by KiCad (PCBNEW (5.1.8-0-10_14)) date 2021-06-09 19:28:07*
%MOMM*%
%LPD*%
G01*
G04 APERTURE LIST*
%ADD10R,1.000000X0.500000*%
%ADD11R,1.000000X0.650000*%
%ADD12R,0.900000X0.800000*%
%ADD13R,1.200000X0.900000*%
%ADD14R,1.780000X2.000000*%
%ADD15R,1.560000X0.650000*%
%ADD16R,2.000000X1.500000*%
%ADD17R,2.000000X3.800000*%
%ADD18R,1.060000X0.650000*%
%ADD19R,0.650000X1.060000*%
%ADD20R,7.700000X3.100000*%
%ADD21R,3.100000X7.700000*%
%ADD22R,2.400000X0.740000*%
G04 APERTURE END LIST*
D10*
%TO.C,U16*%
X319646300Y-191935100D03*
X319646300Y-191135000D03*
X319646300Y-190334900D03*
X317042800Y-191935100D03*
X317042800Y-191135000D03*
X317042800Y-190334900D03*
D11*
X312724800Y-191109600D03*
X323646800Y-191109600D03*
%TD*%
D10*
%TO.C,U15*%
X304634900Y-191960500D03*
X304634900Y-191160400D03*
X304634900Y-190360300D03*
X302031400Y-191960500D03*
X302031400Y-191160400D03*
X302031400Y-190360300D03*
D11*
X297713400Y-191135000D03*
X308635400Y-191135000D03*
%TD*%
D10*
%TO.C,U32*%
X319646300Y-176949100D03*
X319646300Y-176149000D03*
X319646300Y-175348900D03*
X317042800Y-176949100D03*
X317042800Y-176149000D03*
X317042800Y-175348900D03*
D11*
X312724800Y-176123600D03*
X323646800Y-176123600D03*
%TD*%
D10*
%TO.C,U31*%
X304634900Y-176949100D03*
X304634900Y-176149000D03*
X304634900Y-175348900D03*
X302031400Y-176949100D03*
X302031400Y-176149000D03*
X302031400Y-175348900D03*
D11*
X297713400Y-176123600D03*
X308635400Y-176123600D03*
%TD*%
D10*
%TO.C,U30*%
X289648900Y-176974500D03*
X289648900Y-176174400D03*
X289648900Y-175374300D03*
X287045400Y-176974500D03*
X287045400Y-176174400D03*
X287045400Y-175374300D03*
D11*
X282727400Y-176149000D03*
X293649400Y-176149000D03*
%TD*%
D10*
%TO.C,U14*%
X289648900Y-191960500D03*
X289648900Y-191160400D03*
X289648900Y-190360300D03*
X287045400Y-191960500D03*
X287045400Y-191160400D03*
X287045400Y-190360300D03*
D11*
X282727400Y-191135000D03*
X293649400Y-191135000D03*
%TD*%
D10*
%TO.C,U13*%
X274637500Y-191960500D03*
X274637500Y-191160400D03*
X274637500Y-190360300D03*
X272034000Y-191960500D03*
X272034000Y-191160400D03*
X272034000Y-190360300D03*
D11*
X267716000Y-191135000D03*
X278638000Y-191135000D03*
%TD*%
D10*
%TO.C,U29*%
X274637500Y-176949100D03*
X274637500Y-176149000D03*
X274637500Y-175348900D03*
X272034000Y-176949100D03*
X272034000Y-176149000D03*
X272034000Y-175348900D03*
D11*
X267716000Y-176123600D03*
X278638000Y-176123600D03*
%TD*%
D10*
%TO.C,U12*%
X259651500Y-191960500D03*
X259651500Y-191160400D03*
X259651500Y-190360300D03*
X257048000Y-191960500D03*
X257048000Y-191160400D03*
X257048000Y-190360300D03*
D11*
X252730000Y-191135000D03*
X263652000Y-191135000D03*
%TD*%
D10*
%TO.C,U28*%
X259651500Y-176949100D03*
X259651500Y-176149000D03*
X259651500Y-175348900D03*
X257048000Y-176949100D03*
X257048000Y-176149000D03*
X257048000Y-175348900D03*
D11*
X252730000Y-176123600D03*
X263652000Y-176123600D03*
%TD*%
D10*
%TO.C,U27*%
X244640100Y-176949100D03*
X244640100Y-176149000D03*
X244640100Y-175348900D03*
X242036600Y-176949100D03*
X242036600Y-176149000D03*
X242036600Y-175348900D03*
D11*
X237718600Y-176123600D03*
X248640600Y-176123600D03*
%TD*%
D10*
%TO.C,U11*%
X244640100Y-191960500D03*
X244640100Y-191160400D03*
X244640100Y-190360300D03*
X242036600Y-191960500D03*
X242036600Y-191160400D03*
X242036600Y-190360300D03*
D11*
X237718600Y-191135000D03*
X248640600Y-191135000D03*
%TD*%
D10*
%TO.C,U10*%
X229654100Y-191960500D03*
X229654100Y-191160400D03*
X229654100Y-190360300D03*
X227050600Y-191960500D03*
X227050600Y-191160400D03*
X227050600Y-190360300D03*
D11*
X222732600Y-191135000D03*
X233654600Y-191135000D03*
%TD*%
D10*
%TO.C,U26*%
X229654100Y-176949100D03*
X229654100Y-176149000D03*
X229654100Y-175348900D03*
X227050600Y-176949100D03*
X227050600Y-176149000D03*
X227050600Y-175348900D03*
D11*
X222732600Y-176123600D03*
X233654600Y-176123600D03*
%TD*%
D10*
%TO.C,U9*%
X214642700Y-191960500D03*
X214642700Y-191160400D03*
X214642700Y-190360300D03*
X212039200Y-191960500D03*
X212039200Y-191160400D03*
X212039200Y-190360300D03*
D11*
X207721200Y-191135000D03*
X218643200Y-191135000D03*
%TD*%
D10*
%TO.C,U25*%
X214642700Y-176949100D03*
X214642700Y-176149000D03*
X214642700Y-175348900D03*
X212039200Y-176949100D03*
X212039200Y-176149000D03*
X212039200Y-175348900D03*
D11*
X207721200Y-176123600D03*
X218643200Y-176123600D03*
%TD*%
D10*
%TO.C,U24*%
X199656700Y-176949100D03*
X199656700Y-176149000D03*
X199656700Y-175348900D03*
X197053200Y-176949100D03*
X197053200Y-176149000D03*
X197053200Y-175348900D03*
D11*
X192735200Y-176123600D03*
X203657200Y-176123600D03*
%TD*%
D10*
%TO.C,U8*%
X199656700Y-191985900D03*
X199656700Y-191185800D03*
X199656700Y-190385700D03*
X197053200Y-191985900D03*
X197053200Y-191185800D03*
X197053200Y-190385700D03*
D11*
X192735200Y-191160400D03*
X203657200Y-191160400D03*
%TD*%
D10*
%TO.C,U7*%
X184670700Y-191985900D03*
X184670700Y-191185800D03*
X184670700Y-190385700D03*
X182067200Y-191985900D03*
X182067200Y-191185800D03*
X182067200Y-190385700D03*
D11*
X177749200Y-191160400D03*
X188671200Y-191160400D03*
%TD*%
D10*
%TO.C,U23*%
X184670700Y-176949100D03*
X184670700Y-176149000D03*
X184670700Y-175348900D03*
X182067200Y-176949100D03*
X182067200Y-176149000D03*
X182067200Y-175348900D03*
D11*
X177749200Y-176123600D03*
X188671200Y-176123600D03*
%TD*%
D10*
%TO.C,U6*%
X169684700Y-191985900D03*
X169684700Y-191185800D03*
X169684700Y-190385700D03*
X167081200Y-191985900D03*
X167081200Y-191185800D03*
X167081200Y-190385700D03*
D11*
X162763200Y-191160400D03*
X173685200Y-191160400D03*
%TD*%
D10*
%TO.C,U22*%
X169684700Y-176949100D03*
X169684700Y-176149000D03*
X169684700Y-175348900D03*
X167081200Y-176949100D03*
X167081200Y-176149000D03*
X167081200Y-175348900D03*
D11*
X162763200Y-176123600D03*
X173685200Y-176123600D03*
%TD*%
D10*
%TO.C,U21*%
X154647900Y-176949100D03*
X154647900Y-176149000D03*
X154647900Y-175348900D03*
X152044400Y-176949100D03*
X152044400Y-176149000D03*
X152044400Y-175348900D03*
D11*
X147726400Y-176123600D03*
X158648400Y-176123600D03*
%TD*%
D10*
%TO.C,U5*%
X154647900Y-191985900D03*
X154647900Y-191185800D03*
X154647900Y-190385700D03*
X152044400Y-191985900D03*
X152044400Y-191185800D03*
X152044400Y-190385700D03*
D11*
X147726400Y-191160400D03*
X158648400Y-191160400D03*
%TD*%
D10*
%TO.C,U4*%
X139661900Y-191985900D03*
X139661900Y-191185800D03*
X139661900Y-190385700D03*
X137058400Y-191985900D03*
X137058400Y-191185800D03*
X137058400Y-190385700D03*
D11*
X132740400Y-191160400D03*
X143662400Y-191160400D03*
%TD*%
D10*
%TO.C,U20*%
X139661900Y-176949100D03*
X139661900Y-176149000D03*
X139661900Y-175348900D03*
X137058400Y-176949100D03*
X137058400Y-176149000D03*
X137058400Y-175348900D03*
D11*
X132740400Y-176123600D03*
X143662400Y-176123600D03*
%TD*%
D10*
%TO.C,U19*%
X124675900Y-176949100D03*
X124675900Y-176149000D03*
X124675900Y-175348900D03*
X122072400Y-176949100D03*
X122072400Y-176149000D03*
X122072400Y-175348900D03*
D11*
X117754400Y-176123600D03*
X128676400Y-176123600D03*
%TD*%
D10*
%TO.C,U3*%
X124675900Y-191985900D03*
X124675900Y-191185800D03*
X124675900Y-190385700D03*
X122072400Y-191985900D03*
X122072400Y-191185800D03*
X122072400Y-190385700D03*
D11*
X117754400Y-191160400D03*
X128676400Y-191160400D03*
%TD*%
D10*
%TO.C,U2*%
X109689900Y-191985900D03*
X109689900Y-191185800D03*
X109689900Y-190385700D03*
X107086400Y-191985900D03*
X107086400Y-191185800D03*
X107086400Y-190385700D03*
D11*
X102768400Y-191160400D03*
X113690400Y-191160400D03*
%TD*%
D10*
%TO.C,U18*%
X109689900Y-176949100D03*
X109689900Y-176149000D03*
X109689900Y-175348900D03*
X107086400Y-176949100D03*
X107086400Y-176149000D03*
X107086400Y-175348900D03*
D11*
X102768400Y-176123600D03*
X113690400Y-176123600D03*
%TD*%
D10*
%TO.C,U1*%
X94703900Y-191985900D03*
X94703900Y-191185800D03*
X94703900Y-190385700D03*
X92100400Y-191985900D03*
X92100400Y-191185800D03*
X92100400Y-190385700D03*
D11*
X87782400Y-191160400D03*
X98704400Y-191160400D03*
%TD*%
D10*
%TO.C,U17*%
X94703900Y-176949100D03*
X94703900Y-176149000D03*
X94703900Y-175348900D03*
X92100400Y-176949100D03*
X92100400Y-176149000D03*
X92100400Y-175348900D03*
D11*
X87782400Y-176123600D03*
X98704400Y-176123600D03*
%TD*%
%TO.C,R5*%
G36*
G01*
X87746000Y-120787000D02*
X87746000Y-122037000D01*
G75*
G02*
X87496000Y-122287000I-250000J0D01*
G01*
X86696000Y-122287000D01*
G75*
G02*
X86446000Y-122037000I0J250000D01*
G01*
X86446000Y-120787000D01*
G75*
G02*
X86696000Y-120537000I250000J0D01*
G01*
X87496000Y-120537000D01*
G75*
G02*
X87746000Y-120787000I0J-250000D01*
G01*
G37*
G36*
G01*
X90846000Y-120787000D02*
X90846000Y-122037000D01*
G75*
G02*
X90596000Y-122287000I-250000J0D01*
G01*
X89796000Y-122287000D01*
G75*
G02*
X89546000Y-122037000I0J250000D01*
G01*
X89546000Y-120787000D01*
G75*
G02*
X89796000Y-120537000I250000J0D01*
G01*
X90596000Y-120537000D01*
G75*
G02*
X90846000Y-120787000I0J-250000D01*
G01*
G37*
%TD*%
%TO.C,R13*%
G36*
G01*
X102165999Y-128416000D02*
X103066001Y-128416000D01*
G75*
G02*
X103316000Y-128665999I0J-249999D01*
G01*
X103316000Y-129366001D01*
G75*
G02*
X103066001Y-129616000I-249999J0D01*
G01*
X102165999Y-129616000D01*
G75*
G02*
X101916000Y-129366001I0J249999D01*
G01*
X101916000Y-128665999D01*
G75*
G02*
X102165999Y-128416000I249999J0D01*
G01*
G37*
G36*
G01*
X102165999Y-126416000D02*
X103066001Y-126416000D01*
G75*
G02*
X103316000Y-126665999I0J-249999D01*
G01*
X103316000Y-127366001D01*
G75*
G02*
X103066001Y-127616000I-249999J0D01*
G01*
X102165999Y-127616000D01*
G75*
G02*
X101916000Y-127366001I0J249999D01*
G01*
X101916000Y-126665999D01*
G75*
G02*
X102165999Y-126416000I249999J0D01*
G01*
G37*
%TD*%
%TO.C,D7*%
G36*
G01*
X98101999Y-128466000D02*
X99002001Y-128466000D01*
G75*
G02*
X99252000Y-128715999I0J-249999D01*
G01*
X99252000Y-129366001D01*
G75*
G02*
X99002001Y-129616000I-249999J0D01*
G01*
X98101999Y-129616000D01*
G75*
G02*
X97852000Y-129366001I0J249999D01*
G01*
X97852000Y-128715999D01*
G75*
G02*
X98101999Y-128466000I249999J0D01*
G01*
G37*
G36*
G01*
X98101999Y-126416000D02*
X99002001Y-126416000D01*
G75*
G02*
X99252000Y-126665999I0J-249999D01*
G01*
X99252000Y-127316001D01*
G75*
G02*
X99002001Y-127566000I-249999J0D01*
G01*
X98101999Y-127566000D01*
G75*
G02*
X97852000Y-127316001I0J249999D01*
G01*
X97852000Y-126665999D01*
G75*
G02*
X98101999Y-126416000I249999J0D01*
G01*
G37*
%TD*%
D12*
%TO.C,Q1*%
X92694000Y-127762000D03*
X90694000Y-128712000D03*
X90694000Y-126812000D03*
%TD*%
D13*
%TO.C,D1*%
X87122000Y-126112000D03*
X87122000Y-129412000D03*
%TD*%
%TO.C,R2*%
G36*
G01*
X187140001Y-118599000D02*
X186239999Y-118599000D01*
G75*
G02*
X185990000Y-118349001I0J249999D01*
G01*
X185990000Y-117648999D01*
G75*
G02*
X186239999Y-117399000I249999J0D01*
G01*
X187140001Y-117399000D01*
G75*
G02*
X187390000Y-117648999I0J-249999D01*
G01*
X187390000Y-118349001D01*
G75*
G02*
X187140001Y-118599000I-249999J0D01*
G01*
G37*
G36*
G01*
X187140001Y-120599000D02*
X186239999Y-120599000D01*
G75*
G02*
X185990000Y-120349001I0J249999D01*
G01*
X185990000Y-119648999D01*
G75*
G02*
X186239999Y-119399000I249999J0D01*
G01*
X187140001Y-119399000D01*
G75*
G02*
X187390000Y-119648999I0J-249999D01*
G01*
X187390000Y-120349001D01*
G75*
G02*
X187140001Y-120599000I-249999J0D01*
G01*
G37*
%TD*%
%TO.C,R30*%
G36*
G01*
X223158000Y-112464001D02*
X223158000Y-111563999D01*
G75*
G02*
X223407999Y-111314000I249999J0D01*
G01*
X224108001Y-111314000D01*
G75*
G02*
X224358000Y-111563999I0J-249999D01*
G01*
X224358000Y-112464001D01*
G75*
G02*
X224108001Y-112714000I-249999J0D01*
G01*
X223407999Y-112714000D01*
G75*
G02*
X223158000Y-112464001I0J249999D01*
G01*
G37*
G36*
G01*
X221158000Y-112464001D02*
X221158000Y-111563999D01*
G75*
G02*
X221407999Y-111314000I249999J0D01*
G01*
X222108001Y-111314000D01*
G75*
G02*
X222358000Y-111563999I0J-249999D01*
G01*
X222358000Y-112464001D01*
G75*
G02*
X222108001Y-112714000I-249999J0D01*
G01*
X221407999Y-112714000D01*
G75*
G02*
X221158000Y-112464001I0J249999D01*
G01*
G37*
%TD*%
%TO.C,R20*%
G36*
G01*
X224898000Y-150679999D02*
X224898000Y-151580001D01*
G75*
G02*
X224648001Y-151830000I-249999J0D01*
G01*
X223947999Y-151830000D01*
G75*
G02*
X223698000Y-151580001I0J249999D01*
G01*
X223698000Y-150679999D01*
G75*
G02*
X223947999Y-150430000I249999J0D01*
G01*
X224648001Y-150430000D01*
G75*
G02*
X224898000Y-150679999I0J-249999D01*
G01*
G37*
G36*
G01*
X226898000Y-150679999D02*
X226898000Y-151580001D01*
G75*
G02*
X226648001Y-151830000I-249999J0D01*
G01*
X225947999Y-151830000D01*
G75*
G02*
X225698000Y-151580001I0J249999D01*
G01*
X225698000Y-150679999D01*
G75*
G02*
X225947999Y-150430000I249999J0D01*
G01*
X226648001Y-150430000D01*
G75*
G02*
X226898000Y-150679999I0J-249999D01*
G01*
G37*
%TD*%
D14*
%TO.C,U43*%
X160020000Y-125415000D03*
X152400000Y-115885000D03*
X157480000Y-125415000D03*
X154940000Y-115885000D03*
X154940000Y-125415000D03*
X157480000Y-115885000D03*
X152400000Y-125415000D03*
X160020000Y-115885000D03*
%TD*%
D15*
%TO.C,U42*%
X182198000Y-118049000D03*
X182198000Y-119949000D03*
X179498000Y-119949000D03*
X179498000Y-118999000D03*
X179498000Y-118049000D03*
%TD*%
D16*
%TO.C,U41*%
X218110800Y-100588600D03*
X218110800Y-105188600D03*
X218110800Y-102888600D03*
D17*
X224410800Y-102888600D03*
%TD*%
D12*
%TO.C,U40*%
X139462000Y-144145000D03*
X141462000Y-143195000D03*
X141462000Y-145095000D03*
%TD*%
D18*
%TO.C,U39*%
X115400000Y-138491000D03*
X115400000Y-137541000D03*
X115400000Y-136591000D03*
X113200000Y-136591000D03*
X113200000Y-138491000D03*
X113200000Y-137541000D03*
%TD*%
D19*
%TO.C,U38*%
X91694000Y-157945000D03*
X92644000Y-157945000D03*
X90744000Y-157945000D03*
X90744000Y-155745000D03*
X91694000Y-155745000D03*
X92644000Y-155745000D03*
%TD*%
%TO.C,U33*%
G36*
G01*
X160232600Y-143170200D02*
X158982600Y-143170200D01*
G75*
G02*
X158857600Y-143045200I0J125000D01*
G01*
X158857600Y-142795200D01*
G75*
G02*
X158982600Y-142670200I125000J0D01*
G01*
X160232600Y-142670200D01*
G75*
G02*
X160357600Y-142795200I0J-125000D01*
G01*
X160357600Y-143045200D01*
G75*
G02*
X160232600Y-143170200I-125000J0D01*
G01*
G37*
G36*
G01*
X160232600Y-142370200D02*
X158982600Y-142370200D01*
G75*
G02*
X158857600Y-142245200I0J125000D01*
G01*
X158857600Y-141995200D01*
G75*
G02*
X158982600Y-141870200I125000J0D01*
G01*
X160232600Y-141870200D01*
G75*
G02*
X160357600Y-141995200I0J-125000D01*
G01*
X160357600Y-142245200D01*
G75*
G02*
X160232600Y-142370200I-125000J0D01*
G01*
G37*
G36*
G01*
X160232600Y-141570200D02*
X158982600Y-141570200D01*
G75*
G02*
X158857600Y-141445200I0J125000D01*
G01*
X158857600Y-141195200D01*
G75*
G02*
X158982600Y-141070200I125000J0D01*
G01*
X160232600Y-141070200D01*
G75*
G02*
X160357600Y-141195200I0J-125000D01*
G01*
X160357600Y-141445200D01*
G75*
G02*
X160232600Y-141570200I-125000J0D01*
G01*
G37*
G36*
G01*
X160232600Y-140770200D02*
X158982600Y-140770200D01*
G75*
G02*
X158857600Y-140645200I0J125000D01*
G01*
X158857600Y-140395200D01*
G75*
G02*
X158982600Y-140270200I125000J0D01*
G01*
X160232600Y-140270200D01*
G75*
G02*
X160357600Y-140395200I0J-125000D01*
G01*
X160357600Y-140645200D01*
G75*
G02*
X160232600Y-140770200I-125000J0D01*
G01*
G37*
G36*
G01*
X160232600Y-139970200D02*
X158982600Y-139970200D01*
G75*
G02*
X158857600Y-139845200I0J125000D01*
G01*
X158857600Y-139595200D01*
G75*
G02*
X158982600Y-139470200I125000J0D01*
G01*
X160232600Y-139470200D01*
G75*
G02*
X160357600Y-139595200I0J-125000D01*
G01*
X160357600Y-139845200D01*
G75*
G02*
X160232600Y-139970200I-125000J0D01*
G01*
G37*
G36*
G01*
X160232600Y-139170200D02*
X158982600Y-139170200D01*
G75*
G02*
X158857600Y-139045200I0J125000D01*
G01*
X158857600Y-138795200D01*
G75*
G02*
X158982600Y-138670200I125000J0D01*
G01*
X160232600Y-138670200D01*
G75*
G02*
X160357600Y-138795200I0J-125000D01*
G01*
X160357600Y-139045200D01*
G75*
G02*
X160232600Y-139170200I-125000J0D01*
G01*
G37*
G36*
G01*
X160232600Y-138370200D02*
X158982600Y-138370200D01*
G75*
G02*
X158857600Y-138245200I0J125000D01*
G01*
X158857600Y-137995200D01*
G75*
G02*
X158982600Y-137870200I125000J0D01*
G01*
X160232600Y-137870200D01*
G75*
G02*
X160357600Y-137995200I0J-125000D01*
G01*
X160357600Y-138245200D01*
G75*
G02*
X160232600Y-138370200I-125000J0D01*
G01*
G37*
G36*
G01*
X160232600Y-137570200D02*
X158982600Y-137570200D01*
G75*
G02*
X158857600Y-137445200I0J125000D01*
G01*
X158857600Y-137195200D01*
G75*
G02*
X158982600Y-137070200I125000J0D01*
G01*
X160232600Y-137070200D01*
G75*
G02*
X160357600Y-137195200I0J-125000D01*
G01*
X160357600Y-137445200D01*
G75*
G02*
X160232600Y-137570200I-125000J0D01*
G01*
G37*
G36*
G01*
X161107600Y-136695200D02*
X160857600Y-136695200D01*
G75*
G02*
X160732600Y-136570200I0J125000D01*
G01*
X160732600Y-135320200D01*
G75*
G02*
X160857600Y-135195200I125000J0D01*
G01*
X161107600Y-135195200D01*
G75*
G02*
X161232600Y-135320200I0J-125000D01*
G01*
X161232600Y-136570200D01*
G75*
G02*
X161107600Y-136695200I-125000J0D01*
G01*
G37*
G36*
G01*
X161907600Y-136695200D02*
X161657600Y-136695200D01*
G75*
G02*
X161532600Y-136570200I0J125000D01*
G01*
X161532600Y-135320200D01*
G75*
G02*
X161657600Y-135195200I125000J0D01*
G01*
X161907600Y-135195200D01*
G75*
G02*
X162032600Y-135320200I0J-125000D01*
G01*
X162032600Y-136570200D01*
G75*
G02*
X161907600Y-136695200I-125000J0D01*
G01*
G37*
G36*
G01*
X162707600Y-136695200D02*
X162457600Y-136695200D01*
G75*
G02*
X162332600Y-136570200I0J125000D01*
G01*
X162332600Y-135320200D01*
G75*
G02*
X162457600Y-135195200I125000J0D01*
G01*
X162707600Y-135195200D01*
G75*
G02*
X162832600Y-135320200I0J-125000D01*
G01*
X162832600Y-136570200D01*
G75*
G02*
X162707600Y-136695200I-125000J0D01*
G01*
G37*
G36*
G01*
X163507600Y-136695200D02*
X163257600Y-136695200D01*
G75*
G02*
X163132600Y-136570200I0J125000D01*
G01*
X163132600Y-135320200D01*
G75*
G02*
X163257600Y-135195200I125000J0D01*
G01*
X163507600Y-135195200D01*
G75*
G02*
X163632600Y-135320200I0J-125000D01*
G01*
X163632600Y-136570200D01*
G75*
G02*
X163507600Y-136695200I-125000J0D01*
G01*
G37*
G36*
G01*
X164307600Y-136695200D02*
X164057600Y-136695200D01*
G75*
G02*
X163932600Y-136570200I0J125000D01*
G01*
X163932600Y-135320200D01*
G75*
G02*
X164057600Y-135195200I125000J0D01*
G01*
X164307600Y-135195200D01*
G75*
G02*
X164432600Y-135320200I0J-125000D01*
G01*
X164432600Y-136570200D01*
G75*
G02*
X164307600Y-136695200I-125000J0D01*
G01*
G37*
G36*
G01*
X165107600Y-136695200D02*
X164857600Y-136695200D01*
G75*
G02*
X164732600Y-136570200I0J125000D01*
G01*
X164732600Y-135320200D01*
G75*
G02*
X164857600Y-135195200I125000J0D01*
G01*
X165107600Y-135195200D01*
G75*
G02*
X165232600Y-135320200I0J-125000D01*
G01*
X165232600Y-136570200D01*
G75*
G02*
X165107600Y-136695200I-125000J0D01*
G01*
G37*
G36*
G01*
X165907600Y-136695200D02*
X165657600Y-136695200D01*
G75*
G02*
X165532600Y-136570200I0J125000D01*
G01*
X165532600Y-135320200D01*
G75*
G02*
X165657600Y-135195200I125000J0D01*
G01*
X165907600Y-135195200D01*
G75*
G02*
X166032600Y-135320200I0J-125000D01*
G01*
X166032600Y-136570200D01*
G75*
G02*
X165907600Y-136695200I-125000J0D01*
G01*
G37*
G36*
G01*
X166707600Y-136695200D02*
X166457600Y-136695200D01*
G75*
G02*
X166332600Y-136570200I0J125000D01*
G01*
X166332600Y-135320200D01*
G75*
G02*
X166457600Y-135195200I125000J0D01*
G01*
X166707600Y-135195200D01*
G75*
G02*
X166832600Y-135320200I0J-125000D01*
G01*
X166832600Y-136570200D01*
G75*
G02*
X166707600Y-136695200I-125000J0D01*
G01*
G37*
G36*
G01*
X168582600Y-137570200D02*
X167332600Y-137570200D01*
G75*
G02*
X167207600Y-137445200I0J125000D01*
G01*
X167207600Y-137195200D01*
G75*
G02*
X167332600Y-137070200I125000J0D01*
G01*
X168582600Y-137070200D01*
G75*
G02*
X168707600Y-137195200I0J-125000D01*
G01*
X168707600Y-137445200D01*
G75*
G02*
X168582600Y-137570200I-125000J0D01*
G01*
G37*
G36*
G01*
X168582600Y-138370200D02*
X167332600Y-138370200D01*
G75*
G02*
X167207600Y-138245200I0J125000D01*
G01*
X167207600Y-137995200D01*
G75*
G02*
X167332600Y-137870200I125000J0D01*
G01*
X168582600Y-137870200D01*
G75*
G02*
X168707600Y-137995200I0J-125000D01*
G01*
X168707600Y-138245200D01*
G75*
G02*
X168582600Y-138370200I-125000J0D01*
G01*
G37*
G36*
G01*
X168582600Y-139170200D02*
X167332600Y-139170200D01*
G75*
G02*
X167207600Y-139045200I0J125000D01*
G01*
X167207600Y-138795200D01*
G75*
G02*
X167332600Y-138670200I125000J0D01*
G01*
X168582600Y-138670200D01*
G75*
G02*
X168707600Y-138795200I0J-125000D01*
G01*
X168707600Y-139045200D01*
G75*
G02*
X168582600Y-139170200I-125000J0D01*
G01*
G37*
G36*
G01*
X168582600Y-139970200D02*
X167332600Y-139970200D01*
G75*
G02*
X167207600Y-139845200I0J125000D01*
G01*
X167207600Y-139595200D01*
G75*
G02*
X167332600Y-139470200I125000J0D01*
G01*
X168582600Y-139470200D01*
G75*
G02*
X168707600Y-139595200I0J-125000D01*
G01*
X168707600Y-139845200D01*
G75*
G02*
X168582600Y-139970200I-125000J0D01*
G01*
G37*
G36*
G01*
X168582600Y-140770200D02*
X167332600Y-140770200D01*
G75*
G02*
X167207600Y-140645200I0J125000D01*
G01*
X167207600Y-140395200D01*
G75*
G02*
X167332600Y-140270200I125000J0D01*
G01*
X168582600Y-140270200D01*
G75*
G02*
X168707600Y-140395200I0J-125000D01*
G01*
X168707600Y-140645200D01*
G75*
G02*
X168582600Y-140770200I-125000J0D01*
G01*
G37*
G36*
G01*
X168582600Y-141570200D02*
X167332600Y-141570200D01*
G75*
G02*
X167207600Y-141445200I0J125000D01*
G01*
X167207600Y-141195200D01*
G75*
G02*
X167332600Y-141070200I125000J0D01*
G01*
X168582600Y-141070200D01*
G75*
G02*
X168707600Y-141195200I0J-125000D01*
G01*
X168707600Y-141445200D01*
G75*
G02*
X168582600Y-141570200I-125000J0D01*
G01*
G37*
G36*
G01*
X168582600Y-142370200D02*
X167332600Y-142370200D01*
G75*
G02*
X167207600Y-142245200I0J125000D01*
G01*
X167207600Y-141995200D01*
G75*
G02*
X167332600Y-141870200I125000J0D01*
G01*
X168582600Y-141870200D01*
G75*
G02*
X168707600Y-141995200I0J-125000D01*
G01*
X168707600Y-142245200D01*
G75*
G02*
X168582600Y-142370200I-125000J0D01*
G01*
G37*
G36*
G01*
X168582600Y-143170200D02*
X167332600Y-143170200D01*
G75*
G02*
X167207600Y-143045200I0J125000D01*
G01*
X167207600Y-142795200D01*
G75*
G02*
X167332600Y-142670200I125000J0D01*
G01*
X168582600Y-142670200D01*
G75*
G02*
X168707600Y-142795200I0J-125000D01*
G01*
X168707600Y-143045200D01*
G75*
G02*
X168582600Y-143170200I-125000J0D01*
G01*
G37*
G36*
G01*
X166707600Y-145045200D02*
X166457600Y-145045200D01*
G75*
G02*
X166332600Y-144920200I0J125000D01*
G01*
X166332600Y-143670200D01*
G75*
G02*
X166457600Y-143545200I125000J0D01*
G01*
X166707600Y-143545200D01*
G75*
G02*
X166832600Y-143670200I0J-125000D01*
G01*
X166832600Y-144920200D01*
G75*
G02*
X166707600Y-145045200I-125000J0D01*
G01*
G37*
G36*
G01*
X165907600Y-145045200D02*
X165657600Y-145045200D01*
G75*
G02*
X165532600Y-144920200I0J125000D01*
G01*
X165532600Y-143670200D01*
G75*
G02*
X165657600Y-143545200I125000J0D01*
G01*
X165907600Y-143545200D01*
G75*
G02*
X166032600Y-143670200I0J-125000D01*
G01*
X166032600Y-144920200D01*
G75*
G02*
X165907600Y-145045200I-125000J0D01*
G01*
G37*
G36*
G01*
X165107600Y-145045200D02*
X164857600Y-145045200D01*
G75*
G02*
X164732600Y-144920200I0J125000D01*
G01*
X164732600Y-143670200D01*
G75*
G02*
X164857600Y-143545200I125000J0D01*
G01*
X165107600Y-143545200D01*
G75*
G02*
X165232600Y-143670200I0J-125000D01*
G01*
X165232600Y-144920200D01*
G75*
G02*
X165107600Y-145045200I-125000J0D01*
G01*
G37*
G36*
G01*
X164307600Y-145045200D02*
X164057600Y-145045200D01*
G75*
G02*
X163932600Y-144920200I0J125000D01*
G01*
X163932600Y-143670200D01*
G75*
G02*
X164057600Y-143545200I125000J0D01*
G01*
X164307600Y-143545200D01*
G75*
G02*
X164432600Y-143670200I0J-125000D01*
G01*
X164432600Y-144920200D01*
G75*
G02*
X164307600Y-145045200I-125000J0D01*
G01*
G37*
G36*
G01*
X163507600Y-145045200D02*
X163257600Y-145045200D01*
G75*
G02*
X163132600Y-144920200I0J125000D01*
G01*
X163132600Y-143670200D01*
G75*
G02*
X163257600Y-143545200I125000J0D01*
G01*
X163507600Y-143545200D01*
G75*
G02*
X163632600Y-143670200I0J-125000D01*
G01*
X163632600Y-144920200D01*
G75*
G02*
X163507600Y-145045200I-125000J0D01*
G01*
G37*
G36*
G01*
X162707600Y-145045200D02*
X162457600Y-145045200D01*
G75*
G02*
X162332600Y-144920200I0J125000D01*
G01*
X162332600Y-143670200D01*
G75*
G02*
X162457600Y-143545200I125000J0D01*
G01*
X162707600Y-143545200D01*
G75*
G02*
X162832600Y-143670200I0J-125000D01*
G01*
X162832600Y-144920200D01*
G75*
G02*
X162707600Y-145045200I-125000J0D01*
G01*
G37*
G36*
G01*
X161907600Y-145045200D02*
X161657600Y-145045200D01*
G75*
G02*
X161532600Y-144920200I0J125000D01*
G01*
X161532600Y-143670200D01*
G75*
G02*
X161657600Y-143545200I125000J0D01*
G01*
X161907600Y-143545200D01*
G75*
G02*
X162032600Y-143670200I0J-125000D01*
G01*
X162032600Y-144920200D01*
G75*
G02*
X161907600Y-145045200I-125000J0D01*
G01*
G37*
G36*
G01*
X161107600Y-145045200D02*
X160857600Y-145045200D01*
G75*
G02*
X160732600Y-144920200I0J125000D01*
G01*
X160732600Y-143670200D01*
G75*
G02*
X160857600Y-143545200I125000J0D01*
G01*
X161107600Y-143545200D01*
G75*
G02*
X161232600Y-143670200I0J-125000D01*
G01*
X161232600Y-144920200D01*
G75*
G02*
X161107600Y-145045200I-125000J0D01*
G01*
G37*
%TD*%
%TO.C,R32*%
G36*
G01*
X227946000Y-99752999D02*
X227946000Y-100653001D01*
G75*
G02*
X227696001Y-100903000I-249999J0D01*
G01*
X226995999Y-100903000D01*
G75*
G02*
X226746000Y-100653001I0J249999D01*
G01*
X226746000Y-99752999D01*
G75*
G02*
X226995999Y-99503000I249999J0D01*
G01*
X227696001Y-99503000D01*
G75*
G02*
X227946000Y-99752999I0J-249999D01*
G01*
G37*
G36*
G01*
X229946000Y-99752999D02*
X229946000Y-100653001D01*
G75*
G02*
X229696001Y-100903000I-249999J0D01*
G01*
X228995999Y-100903000D01*
G75*
G02*
X228746000Y-100653001I0J249999D01*
G01*
X228746000Y-99752999D01*
G75*
G02*
X228995999Y-99503000I249999J0D01*
G01*
X229696001Y-99503000D01*
G75*
G02*
X229946000Y-99752999I0J-249999D01*
G01*
G37*
%TD*%
%TO.C,R29*%
G36*
G01*
X321760001Y-130664000D02*
X320859999Y-130664000D01*
G75*
G02*
X320610000Y-130414001I0J249999D01*
G01*
X320610000Y-129713999D01*
G75*
G02*
X320859999Y-129464000I249999J0D01*
G01*
X321760001Y-129464000D01*
G75*
G02*
X322010000Y-129713999I0J-249999D01*
G01*
X322010000Y-130414001D01*
G75*
G02*
X321760001Y-130664000I-249999J0D01*
G01*
G37*
G36*
G01*
X321760001Y-132664000D02*
X320859999Y-132664000D01*
G75*
G02*
X320610000Y-132414001I0J249999D01*
G01*
X320610000Y-131713999D01*
G75*
G02*
X320859999Y-131464000I249999J0D01*
G01*
X321760001Y-131464000D01*
G75*
G02*
X322010000Y-131713999I0J-249999D01*
G01*
X322010000Y-132414001D01*
G75*
G02*
X321760001Y-132664000I-249999J0D01*
G01*
G37*
%TD*%
%TO.C,R28*%
G36*
G01*
X316680001Y-130664000D02*
X315779999Y-130664000D01*
G75*
G02*
X315530000Y-130414001I0J249999D01*
G01*
X315530000Y-129713999D01*
G75*
G02*
X315779999Y-129464000I249999J0D01*
G01*
X316680001Y-129464000D01*
G75*
G02*
X316930000Y-129713999I0J-249999D01*
G01*
X316930000Y-130414001D01*
G75*
G02*
X316680001Y-130664000I-249999J0D01*
G01*
G37*
G36*
G01*
X316680001Y-132664000D02*
X315779999Y-132664000D01*
G75*
G02*
X315530000Y-132414001I0J249999D01*
G01*
X315530000Y-131713999D01*
G75*
G02*
X315779999Y-131464000I249999J0D01*
G01*
X316680001Y-131464000D01*
G75*
G02*
X316930000Y-131713999I0J-249999D01*
G01*
X316930000Y-132414001D01*
G75*
G02*
X316680001Y-132664000I-249999J0D01*
G01*
G37*
%TD*%
%TO.C,R27*%
G36*
G01*
X118306001Y-147269000D02*
X117405999Y-147269000D01*
G75*
G02*
X117156000Y-147019001I0J249999D01*
G01*
X117156000Y-146318999D01*
G75*
G02*
X117405999Y-146069000I249999J0D01*
G01*
X118306001Y-146069000D01*
G75*
G02*
X118556000Y-146318999I0J-249999D01*
G01*
X118556000Y-147019001D01*
G75*
G02*
X118306001Y-147269000I-249999J0D01*
G01*
G37*
G36*
G01*
X118306001Y-145269000D02*
X117405999Y-145269000D01*
G75*
G02*
X117156000Y-145019001I0J249999D01*
G01*
X117156000Y-144318999D01*
G75*
G02*
X117405999Y-144069000I249999J0D01*
G01*
X118306001Y-144069000D01*
G75*
G02*
X118556000Y-144318999I0J-249999D01*
G01*
X118556000Y-145019001D01*
G75*
G02*
X118306001Y-145269000I-249999J0D01*
G01*
G37*
%TD*%
%TO.C,R26*%
G36*
G01*
X113734001Y-147396000D02*
X112833999Y-147396000D01*
G75*
G02*
X112584000Y-147146001I0J249999D01*
G01*
X112584000Y-146445999D01*
G75*
G02*
X112833999Y-146196000I249999J0D01*
G01*
X113734001Y-146196000D01*
G75*
G02*
X113984000Y-146445999I0J-249999D01*
G01*
X113984000Y-147146001D01*
G75*
G02*
X113734001Y-147396000I-249999J0D01*
G01*
G37*
G36*
G01*
X113734001Y-145396000D02*
X112833999Y-145396000D01*
G75*
G02*
X112584000Y-145146001I0J249999D01*
G01*
X112584000Y-144445999D01*
G75*
G02*
X112833999Y-144196000I249999J0D01*
G01*
X113734001Y-144196000D01*
G75*
G02*
X113984000Y-144445999I0J-249999D01*
G01*
X113984000Y-145146001D01*
G75*
G02*
X113734001Y-145396000I-249999J0D01*
G01*
G37*
%TD*%
%TO.C,R25*%
G36*
G01*
X113734001Y-151460000D02*
X112833999Y-151460000D01*
G75*
G02*
X112584000Y-151210001I0J249999D01*
G01*
X112584000Y-150509999D01*
G75*
G02*
X112833999Y-150260000I249999J0D01*
G01*
X113734001Y-150260000D01*
G75*
G02*
X113984000Y-150509999I0J-249999D01*
G01*
X113984000Y-151210001D01*
G75*
G02*
X113734001Y-151460000I-249999J0D01*
G01*
G37*
G36*
G01*
X113734001Y-149460000D02*
X112833999Y-149460000D01*
G75*
G02*
X112584000Y-149210001I0J249999D01*
G01*
X112584000Y-148509999D01*
G75*
G02*
X112833999Y-148260000I249999J0D01*
G01*
X113734001Y-148260000D01*
G75*
G02*
X113984000Y-148509999I0J-249999D01*
G01*
X113984000Y-149210001D01*
G75*
G02*
X113734001Y-149460000I-249999J0D01*
G01*
G37*
%TD*%
%TO.C,R21*%
G36*
G01*
X131099356Y-125890958D02*
X130462958Y-126527356D01*
G75*
G02*
X130109406Y-126527356I-176776J176776D01*
G01*
X129614430Y-126032380D01*
G75*
G02*
X129614430Y-125678828I176776J176776D01*
G01*
X130250828Y-125042430D01*
G75*
G02*
X130604380Y-125042430I176776J-176776D01*
G01*
X131099356Y-125537406D01*
G75*
G02*
X131099356Y-125890958I-176776J-176776D01*
G01*
G37*
G36*
G01*
X132513570Y-127305172D02*
X131877172Y-127941570D01*
G75*
G02*
X131523620Y-127941570I-176776J176776D01*
G01*
X131028644Y-127446594D01*
G75*
G02*
X131028644Y-127093042I176776J176776D01*
G01*
X131665042Y-126456644D01*
G75*
G02*
X132018594Y-126456644I176776J-176776D01*
G01*
X132513570Y-126951620D01*
G75*
G02*
X132513570Y-127305172I-176776J-176776D01*
G01*
G37*
%TD*%
%TO.C,R19*%
G36*
G01*
X194672000Y-138487999D02*
X194672000Y-139388001D01*
G75*
G02*
X194422001Y-139638000I-249999J0D01*
G01*
X193721999Y-139638000D01*
G75*
G02*
X193472000Y-139388001I0J249999D01*
G01*
X193472000Y-138487999D01*
G75*
G02*
X193721999Y-138238000I249999J0D01*
G01*
X194422001Y-138238000D01*
G75*
G02*
X194672000Y-138487999I0J-249999D01*
G01*
G37*
G36*
G01*
X196672000Y-138487999D02*
X196672000Y-139388001D01*
G75*
G02*
X196422001Y-139638000I-249999J0D01*
G01*
X195721999Y-139638000D01*
G75*
G02*
X195472000Y-139388001I0J249999D01*
G01*
X195472000Y-138487999D01*
G75*
G02*
X195721999Y-138238000I249999J0D01*
G01*
X196422001Y-138238000D01*
G75*
G02*
X196672000Y-138487999I0J-249999D01*
G01*
G37*
%TD*%
%TO.C,R18*%
G36*
G01*
X195472000Y-141420001D02*
X195472000Y-140519999D01*
G75*
G02*
X195721999Y-140270000I249999J0D01*
G01*
X196422001Y-140270000D01*
G75*
G02*
X196672000Y-140519999I0J-249999D01*
G01*
X196672000Y-141420001D01*
G75*
G02*
X196422001Y-141670000I-249999J0D01*
G01*
X195721999Y-141670000D01*
G75*
G02*
X195472000Y-141420001I0J249999D01*
G01*
G37*
G36*
G01*
X193472000Y-141420001D02*
X193472000Y-140519999D01*
G75*
G02*
X193721999Y-140270000I249999J0D01*
G01*
X194422001Y-140270000D01*
G75*
G02*
X194672000Y-140519999I0J-249999D01*
G01*
X194672000Y-141420001D01*
G75*
G02*
X194422001Y-141670000I-249999J0D01*
G01*
X193721999Y-141670000D01*
G75*
G02*
X193472000Y-141420001I0J249999D01*
G01*
G37*
%TD*%
%TO.C,R14*%
G36*
G01*
X194672000Y-142551999D02*
X194672000Y-143452001D01*
G75*
G02*
X194422001Y-143702000I-249999J0D01*
G01*
X193721999Y-143702000D01*
G75*
G02*
X193472000Y-143452001I0J249999D01*
G01*
X193472000Y-142551999D01*
G75*
G02*
X193721999Y-142302000I249999J0D01*
G01*
X194422001Y-142302000D01*
G75*
G02*
X194672000Y-142551999I0J-249999D01*
G01*
G37*
G36*
G01*
X196672000Y-142551999D02*
X196672000Y-143452001D01*
G75*
G02*
X196422001Y-143702000I-249999J0D01*
G01*
X195721999Y-143702000D01*
G75*
G02*
X195472000Y-143452001I0J249999D01*
G01*
X195472000Y-142551999D01*
G75*
G02*
X195721999Y-142302000I249999J0D01*
G01*
X196422001Y-142302000D01*
G75*
G02*
X196672000Y-142551999I0J-249999D01*
G01*
G37*
%TD*%
%TO.C,R10*%
G36*
G01*
X195472000Y-135324001D02*
X195472000Y-134423999D01*
G75*
G02*
X195721999Y-134174000I249999J0D01*
G01*
X196422001Y-134174000D01*
G75*
G02*
X196672000Y-134423999I0J-249999D01*
G01*
X196672000Y-135324001D01*
G75*
G02*
X196422001Y-135574000I-249999J0D01*
G01*
X195721999Y-135574000D01*
G75*
G02*
X195472000Y-135324001I0J249999D01*
G01*
G37*
G36*
G01*
X193472000Y-135324001D02*
X193472000Y-134423999D01*
G75*
G02*
X193721999Y-134174000I249999J0D01*
G01*
X194422001Y-134174000D01*
G75*
G02*
X194672000Y-134423999I0J-249999D01*
G01*
X194672000Y-135324001D01*
G75*
G02*
X194422001Y-135574000I-249999J0D01*
G01*
X193721999Y-135574000D01*
G75*
G02*
X193472000Y-135324001I0J249999D01*
G01*
G37*
%TD*%
%TO.C,R9*%
G36*
G01*
X140862000Y-137610001D02*
X140862000Y-136709999D01*
G75*
G02*
X141111999Y-136460000I249999J0D01*
G01*
X141812001Y-136460000D01*
G75*
G02*
X142062000Y-136709999I0J-249999D01*
G01*
X142062000Y-137610001D01*
G75*
G02*
X141812001Y-137860000I-249999J0D01*
G01*
X141111999Y-137860000D01*
G75*
G02*
X140862000Y-137610001I0J249999D01*
G01*
G37*
G36*
G01*
X138862000Y-137610001D02*
X138862000Y-136709999D01*
G75*
G02*
X139111999Y-136460000I249999J0D01*
G01*
X139812001Y-136460000D01*
G75*
G02*
X140062000Y-136709999I0J-249999D01*
G01*
X140062000Y-137610001D01*
G75*
G02*
X139812001Y-137860000I-249999J0D01*
G01*
X139111999Y-137860000D01*
G75*
G02*
X138862000Y-137610001I0J249999D01*
G01*
G37*
%TD*%
%TO.C,R8*%
G36*
G01*
X99422000Y-153092999D02*
X99422000Y-153993001D01*
G75*
G02*
X99172001Y-154243000I-249999J0D01*
G01*
X98471999Y-154243000D01*
G75*
G02*
X98222000Y-153993001I0J249999D01*
G01*
X98222000Y-153092999D01*
G75*
G02*
X98471999Y-152843000I249999J0D01*
G01*
X99172001Y-152843000D01*
G75*
G02*
X99422000Y-153092999I0J-249999D01*
G01*
G37*
G36*
G01*
X101422000Y-153092999D02*
X101422000Y-153993001D01*
G75*
G02*
X101172001Y-154243000I-249999J0D01*
G01*
X100471999Y-154243000D01*
G75*
G02*
X100222000Y-153993001I0J249999D01*
G01*
X100222000Y-153092999D01*
G75*
G02*
X100471999Y-152843000I249999J0D01*
G01*
X101172001Y-152843000D01*
G75*
G02*
X101422000Y-153092999I0J-249999D01*
G01*
G37*
%TD*%
%TO.C,R7*%
G36*
G01*
X99714000Y-158438001D02*
X99714000Y-157537999D01*
G75*
G02*
X99963999Y-157288000I249999J0D01*
G01*
X100664001Y-157288000D01*
G75*
G02*
X100914000Y-157537999I0J-249999D01*
G01*
X100914000Y-158438001D01*
G75*
G02*
X100664001Y-158688000I-249999J0D01*
G01*
X99963999Y-158688000D01*
G75*
G02*
X99714000Y-158438001I0J249999D01*
G01*
G37*
G36*
G01*
X97714000Y-158438001D02*
X97714000Y-157537999D01*
G75*
G02*
X97963999Y-157288000I249999J0D01*
G01*
X98664001Y-157288000D01*
G75*
G02*
X98914000Y-157537999I0J-249999D01*
G01*
X98914000Y-158438001D01*
G75*
G02*
X98664001Y-158688000I-249999J0D01*
G01*
X97963999Y-158688000D01*
G75*
G02*
X97714000Y-158438001I0J249999D01*
G01*
G37*
%TD*%
%TO.C,R6*%
G36*
G01*
X103740000Y-155759999D02*
X103740000Y-156660001D01*
G75*
G02*
X103490001Y-156910000I-249999J0D01*
G01*
X102789999Y-156910000D01*
G75*
G02*
X102540000Y-156660001I0J249999D01*
G01*
X102540000Y-155759999D01*
G75*
G02*
X102789999Y-155510000I249999J0D01*
G01*
X103490001Y-155510000D01*
G75*
G02*
X103740000Y-155759999I0J-249999D01*
G01*
G37*
G36*
G01*
X105740000Y-155759999D02*
X105740000Y-156660001D01*
G75*
G02*
X105490001Y-156910000I-249999J0D01*
G01*
X104789999Y-156910000D01*
G75*
G02*
X104540000Y-156660001I0J249999D01*
G01*
X104540000Y-155759999D01*
G75*
G02*
X104789999Y-155510000I249999J0D01*
G01*
X105490001Y-155510000D01*
G75*
G02*
X105740000Y-155759999I0J-249999D01*
G01*
G37*
%TD*%
%TO.C,R4*%
G36*
G01*
X147174000Y-125025999D02*
X147174000Y-125926001D01*
G75*
G02*
X146924001Y-126176000I-249999J0D01*
G01*
X146223999Y-126176000D01*
G75*
G02*
X145974000Y-125926001I0J249999D01*
G01*
X145974000Y-125025999D01*
G75*
G02*
X146223999Y-124776000I249999J0D01*
G01*
X146924001Y-124776000D01*
G75*
G02*
X147174000Y-125025999I0J-249999D01*
G01*
G37*
G36*
G01*
X149174000Y-125025999D02*
X149174000Y-125926001D01*
G75*
G02*
X148924001Y-126176000I-249999J0D01*
G01*
X148223999Y-126176000D01*
G75*
G02*
X147974000Y-125926001I0J249999D01*
G01*
X147974000Y-125025999D01*
G75*
G02*
X148223999Y-124776000I249999J0D01*
G01*
X148924001Y-124776000D01*
G75*
G02*
X149174000Y-125025999I0J-249999D01*
G01*
G37*
%TD*%
%TO.C,R3*%
G36*
G01*
X171050000Y-118548999D02*
X171050000Y-119449001D01*
G75*
G02*
X170800001Y-119699000I-249999J0D01*
G01*
X170099999Y-119699000D01*
G75*
G02*
X169850000Y-119449001I0J249999D01*
G01*
X169850000Y-118548999D01*
G75*
G02*
X170099999Y-118299000I249999J0D01*
G01*
X170800001Y-118299000D01*
G75*
G02*
X171050000Y-118548999I0J-249999D01*
G01*
G37*
G36*
G01*
X173050000Y-118548999D02*
X173050000Y-119449001D01*
G75*
G02*
X172800001Y-119699000I-249999J0D01*
G01*
X172099999Y-119699000D01*
G75*
G02*
X171850000Y-119449001I0J249999D01*
G01*
X171850000Y-118548999D01*
G75*
G02*
X172099999Y-118299000I249999J0D01*
G01*
X172800001Y-118299000D01*
G75*
G02*
X173050000Y-118548999I0J-249999D01*
G01*
G37*
%TD*%
%TO.C,R1*%
G36*
G01*
X147174000Y-119437999D02*
X147174000Y-120338001D01*
G75*
G02*
X146924001Y-120588000I-249999J0D01*
G01*
X146223999Y-120588000D01*
G75*
G02*
X145974000Y-120338001I0J249999D01*
G01*
X145974000Y-119437999D01*
G75*
G02*
X146223999Y-119188000I249999J0D01*
G01*
X146924001Y-119188000D01*
G75*
G02*
X147174000Y-119437999I0J-249999D01*
G01*
G37*
G36*
G01*
X149174000Y-119437999D02*
X149174000Y-120338001D01*
G75*
G02*
X148924001Y-120588000I-249999J0D01*
G01*
X148223999Y-120588000D01*
G75*
G02*
X147974000Y-120338001I0J249999D01*
G01*
X147974000Y-119437999D01*
G75*
G02*
X148223999Y-119188000I249999J0D01*
G01*
X148924001Y-119188000D01*
G75*
G02*
X149174000Y-119437999I0J-249999D01*
G01*
G37*
%TD*%
D20*
%TO.C,L2*%
X129032000Y-137901000D03*
X129032000Y-144801000D03*
%TD*%
D21*
%TO.C,L1*%
X98954000Y-141859000D03*
X92054000Y-141859000D03*
%TD*%
D22*
%TO.C,J7*%
X153207000Y-146812000D03*
X149307000Y-146812000D03*
X153207000Y-145542000D03*
X149307000Y-145542000D03*
X153207000Y-144272000D03*
X149307000Y-144272000D03*
X153207000Y-143002000D03*
X149307000Y-143002000D03*
X153207000Y-141732000D03*
X149307000Y-141732000D03*
%TD*%
%TO.C,D6*%
G36*
G01*
X227896000Y-102038999D02*
X227896000Y-102939001D01*
G75*
G02*
X227646001Y-103189000I-249999J0D01*
G01*
X226995999Y-103189000D01*
G75*
G02*
X226746000Y-102939001I0J249999D01*
G01*
X226746000Y-102038999D01*
G75*
G02*
X226995999Y-101789000I249999J0D01*
G01*
X227646001Y-101789000D01*
G75*
G02*
X227896000Y-102038999I0J-249999D01*
G01*
G37*
G36*
G01*
X229946000Y-102038999D02*
X229946000Y-102939001D01*
G75*
G02*
X229696001Y-103189000I-249999J0D01*
G01*
X229045999Y-103189000D01*
G75*
G02*
X228796000Y-102939001I0J249999D01*
G01*
X228796000Y-102038999D01*
G75*
G02*
X229045999Y-101789000I249999J0D01*
G01*
X229696001Y-101789000D01*
G75*
G02*
X229946000Y-102038999I0J-249999D01*
G01*
G37*
%TD*%
%TO.C,D5*%
G36*
G01*
X117272000Y-151199001D02*
X117272000Y-150298999D01*
G75*
G02*
X117521999Y-150049000I249999J0D01*
G01*
X118172001Y-150049000D01*
G75*
G02*
X118422000Y-150298999I0J-249999D01*
G01*
X118422000Y-151199001D01*
G75*
G02*
X118172001Y-151449000I-249999J0D01*
G01*
X117521999Y-151449000D01*
G75*
G02*
X117272000Y-151199001I0J249999D01*
G01*
G37*
G36*
G01*
X119322000Y-151199001D02*
X119322000Y-150298999D01*
G75*
G02*
X119571999Y-150049000I249999J0D01*
G01*
X120222001Y-150049000D01*
G75*
G02*
X120472000Y-150298999I0J-249999D01*
G01*
X120472000Y-151199001D01*
G75*
G02*
X120222001Y-151449000I-249999J0D01*
G01*
X119571999Y-151449000D01*
G75*
G02*
X119322000Y-151199001I0J249999D01*
G01*
G37*
%TD*%
%TO.C,D4*%
G36*
G01*
X140912000Y-140150001D02*
X140912000Y-139249999D01*
G75*
G02*
X141161999Y-139000000I249999J0D01*
G01*
X141812001Y-139000000D01*
G75*
G02*
X142062000Y-139249999I0J-249999D01*
G01*
X142062000Y-140150001D01*
G75*
G02*
X141812001Y-140400000I-249999J0D01*
G01*
X141161999Y-140400000D01*
G75*
G02*
X140912000Y-140150001I0J249999D01*
G01*
G37*
G36*
G01*
X138862000Y-140150001D02*
X138862000Y-139249999D01*
G75*
G02*
X139111999Y-139000000I249999J0D01*
G01*
X139762001Y-139000000D01*
G75*
G02*
X140012000Y-139249999I0J-249999D01*
G01*
X140012000Y-140150001D01*
G75*
G02*
X139762001Y-140400000I-249999J0D01*
G01*
X139111999Y-140400000D01*
G75*
G02*
X138862000Y-140150001I0J249999D01*
G01*
G37*
%TD*%
%TO.C,D3*%
G36*
G01*
X104336000Y-153993001D02*
X104336000Y-153092999D01*
G75*
G02*
X104585999Y-152843000I249999J0D01*
G01*
X105236001Y-152843000D01*
G75*
G02*
X105486000Y-153092999I0J-249999D01*
G01*
X105486000Y-153993001D01*
G75*
G02*
X105236001Y-154243000I-249999J0D01*
G01*
X104585999Y-154243000D01*
G75*
G02*
X104336000Y-153993001I0J249999D01*
G01*
G37*
G36*
G01*
X102286000Y-153993001D02*
X102286000Y-153092999D01*
G75*
G02*
X102535999Y-152843000I249999J0D01*
G01*
X103186001Y-152843000D01*
G75*
G02*
X103436000Y-153092999I0J-249999D01*
G01*
X103436000Y-153993001D01*
G75*
G02*
X103186001Y-154243000I-249999J0D01*
G01*
X102535999Y-154243000D01*
G75*
G02*
X102286000Y-153993001I0J249999D01*
G01*
G37*
%TD*%
%TO.C,C25*%
G36*
G01*
X214470000Y-105468000D02*
X213520000Y-105468000D01*
G75*
G02*
X213270000Y-105218000I0J250000D01*
G01*
X213270000Y-104543000D01*
G75*
G02*
X213520000Y-104293000I250000J0D01*
G01*
X214470000Y-104293000D01*
G75*
G02*
X214720000Y-104543000I0J-250000D01*
G01*
X214720000Y-105218000D01*
G75*
G02*
X214470000Y-105468000I-250000J0D01*
G01*
G37*
G36*
G01*
X214470000Y-107543000D02*
X213520000Y-107543000D01*
G75*
G02*
X213270000Y-107293000I0J250000D01*
G01*
X213270000Y-106618000D01*
G75*
G02*
X213520000Y-106368000I250000J0D01*
G01*
X214470000Y-106368000D01*
G75*
G02*
X214720000Y-106618000I0J-250000D01*
G01*
X214720000Y-107293000D01*
G75*
G02*
X214470000Y-107543000I-250000J0D01*
G01*
G37*
%TD*%
%TO.C,C24*%
G36*
G01*
X213520000Y-101923000D02*
X214470000Y-101923000D01*
G75*
G02*
X214720000Y-102173000I0J-250000D01*
G01*
X214720000Y-102848000D01*
G75*
G02*
X214470000Y-103098000I-250000J0D01*
G01*
X213520000Y-103098000D01*
G75*
G02*
X213270000Y-102848000I0J250000D01*
G01*
X213270000Y-102173000D01*
G75*
G02*
X213520000Y-101923000I250000J0D01*
G01*
G37*
G36*
G01*
X213520000Y-99848000D02*
X214470000Y-99848000D01*
G75*
G02*
X214720000Y-100098000I0J-250000D01*
G01*
X214720000Y-100773000D01*
G75*
G02*
X214470000Y-101023000I-250000J0D01*
G01*
X213520000Y-101023000D01*
G75*
G02*
X213270000Y-100773000I0J250000D01*
G01*
X213270000Y-100098000D01*
G75*
G02*
X213520000Y-99848000I250000J0D01*
G01*
G37*
%TD*%
%TO.C,C19*%
G36*
G01*
X123307000Y-148377000D02*
X122057000Y-148377000D01*
G75*
G02*
X121807000Y-148127000I0J250000D01*
G01*
X121807000Y-147327000D01*
G75*
G02*
X122057000Y-147077000I250000J0D01*
G01*
X123307000Y-147077000D01*
G75*
G02*
X123557000Y-147327000I0J-250000D01*
G01*
X123557000Y-148127000D01*
G75*
G02*
X123307000Y-148377000I-250000J0D01*
G01*
G37*
G36*
G01*
X123307000Y-145277000D02*
X122057000Y-145277000D01*
G75*
G02*
X121807000Y-145027000I0J250000D01*
G01*
X121807000Y-144227000D01*
G75*
G02*
X122057000Y-143977000I250000J0D01*
G01*
X123307000Y-143977000D01*
G75*
G02*
X123557000Y-144227000I0J-250000D01*
G01*
X123557000Y-145027000D01*
G75*
G02*
X123307000Y-145277000I-250000J0D01*
G01*
G37*
%TD*%
%TO.C,C18*%
G36*
G01*
X120767000Y-148377000D02*
X119517000Y-148377000D01*
G75*
G02*
X119267000Y-148127000I0J250000D01*
G01*
X119267000Y-147327000D01*
G75*
G02*
X119517000Y-147077000I250000J0D01*
G01*
X120767000Y-147077000D01*
G75*
G02*
X121017000Y-147327000I0J-250000D01*
G01*
X121017000Y-148127000D01*
G75*
G02*
X120767000Y-148377000I-250000J0D01*
G01*
G37*
G36*
G01*
X120767000Y-145277000D02*
X119517000Y-145277000D01*
G75*
G02*
X119267000Y-145027000I0J250000D01*
G01*
X119267000Y-144227000D01*
G75*
G02*
X119517000Y-143977000I250000J0D01*
G01*
X120767000Y-143977000D01*
G75*
G02*
X121017000Y-144227000I0J-250000D01*
G01*
X121017000Y-145027000D01*
G75*
G02*
X120767000Y-145277000I-250000J0D01*
G01*
G37*
%TD*%
%TO.C,C17*%
G36*
G01*
X112675000Y-141826000D02*
X112675000Y-140876000D01*
G75*
G02*
X112925000Y-140626000I250000J0D01*
G01*
X113600000Y-140626000D01*
G75*
G02*
X113850000Y-140876000I0J-250000D01*
G01*
X113850000Y-141826000D01*
G75*
G02*
X113600000Y-142076000I-250000J0D01*
G01*
X112925000Y-142076000D01*
G75*
G02*
X112675000Y-141826000I0J250000D01*
G01*
G37*
G36*
G01*
X114750000Y-141826000D02*
X114750000Y-140876000D01*
G75*
G02*
X115000000Y-140626000I250000J0D01*
G01*
X115675000Y-140626000D01*
G75*
G02*
X115925000Y-140876000I0J-250000D01*
G01*
X115925000Y-141826000D01*
G75*
G02*
X115675000Y-142076000I-250000J0D01*
G01*
X115000000Y-142076000D01*
G75*
G02*
X114750000Y-141826000I0J250000D01*
G01*
G37*
%TD*%
%TO.C,C16*%
G36*
G01*
X122057000Y-135341000D02*
X123307000Y-135341000D01*
G75*
G02*
X123557000Y-135591000I0J-250000D01*
G01*
X123557000Y-136391000D01*
G75*
G02*
X123307000Y-136641000I-250000J0D01*
G01*
X122057000Y-136641000D01*
G75*
G02*
X121807000Y-136391000I0J250000D01*
G01*
X121807000Y-135591000D01*
G75*
G02*
X122057000Y-135341000I250000J0D01*
G01*
G37*
G36*
G01*
X122057000Y-138441000D02*
X123307000Y-138441000D01*
G75*
G02*
X123557000Y-138691000I0J-250000D01*
G01*
X123557000Y-139491000D01*
G75*
G02*
X123307000Y-139741000I-250000J0D01*
G01*
X122057000Y-139741000D01*
G75*
G02*
X121807000Y-139491000I0J250000D01*
G01*
X121807000Y-138691000D01*
G75*
G02*
X122057000Y-138441000I250000J0D01*
G01*
G37*
%TD*%
%TO.C,C15*%
G36*
G01*
X119517000Y-135341000D02*
X120767000Y-135341000D01*
G75*
G02*
X121017000Y-135591000I0J-250000D01*
G01*
X121017000Y-136391000D01*
G75*
G02*
X120767000Y-136641000I-250000J0D01*
G01*
X119517000Y-136641000D01*
G75*
G02*
X119267000Y-136391000I0J250000D01*
G01*
X119267000Y-135591000D01*
G75*
G02*
X119517000Y-135341000I250000J0D01*
G01*
G37*
G36*
G01*
X119517000Y-138441000D02*
X120767000Y-138441000D01*
G75*
G02*
X121017000Y-138691000I0J-250000D01*
G01*
X121017000Y-139491000D01*
G75*
G02*
X120767000Y-139741000I-250000J0D01*
G01*
X119517000Y-139741000D01*
G75*
G02*
X119267000Y-139491000I0J250000D01*
G01*
X119267000Y-138691000D01*
G75*
G02*
X119517000Y-138441000I250000J0D01*
G01*
G37*
%TD*%
%TO.C,C14*%
G36*
G01*
X133927000Y-120363000D02*
X133927000Y-119413000D01*
G75*
G02*
X134177000Y-119163000I250000J0D01*
G01*
X134852000Y-119163000D01*
G75*
G02*
X135102000Y-119413000I0J-250000D01*
G01*
X135102000Y-120363000D01*
G75*
G02*
X134852000Y-120613000I-250000J0D01*
G01*
X134177000Y-120613000D01*
G75*
G02*
X133927000Y-120363000I0J250000D01*
G01*
G37*
G36*
G01*
X131852000Y-120363000D02*
X131852000Y-119413000D01*
G75*
G02*
X132102000Y-119163000I250000J0D01*
G01*
X132777000Y-119163000D01*
G75*
G02*
X133027000Y-119413000I0J-250000D01*
G01*
X133027000Y-120363000D01*
G75*
G02*
X132777000Y-120613000I-250000J0D01*
G01*
X132102000Y-120613000D01*
G75*
G02*
X131852000Y-120363000I0J250000D01*
G01*
G37*
%TD*%
%TO.C,C13*%
G36*
G01*
X129101000Y-117569000D02*
X129101000Y-116619000D01*
G75*
G02*
X129351000Y-116369000I250000J0D01*
G01*
X130026000Y-116369000D01*
G75*
G02*
X130276000Y-116619000I0J-250000D01*
G01*
X130276000Y-117569000D01*
G75*
G02*
X130026000Y-117819000I-250000J0D01*
G01*
X129351000Y-117819000D01*
G75*
G02*
X129101000Y-117569000I0J250000D01*
G01*
G37*
G36*
G01*
X127026000Y-117569000D02*
X127026000Y-116619000D01*
G75*
G02*
X127276000Y-116369000I250000J0D01*
G01*
X127951000Y-116369000D01*
G75*
G02*
X128201000Y-116619000I0J-250000D01*
G01*
X128201000Y-117569000D01*
G75*
G02*
X127951000Y-117819000I-250000J0D01*
G01*
X127276000Y-117819000D01*
G75*
G02*
X127026000Y-117569000I0J250000D01*
G01*
G37*
%TD*%
%TO.C,C12*%
G36*
G01*
X133927000Y-117569000D02*
X133927000Y-116619000D01*
G75*
G02*
X134177000Y-116369000I250000J0D01*
G01*
X134852000Y-116369000D01*
G75*
G02*
X135102000Y-116619000I0J-250000D01*
G01*
X135102000Y-117569000D01*
G75*
G02*
X134852000Y-117819000I-250000J0D01*
G01*
X134177000Y-117819000D01*
G75*
G02*
X133927000Y-117569000I0J250000D01*
G01*
G37*
G36*
G01*
X131852000Y-117569000D02*
X131852000Y-116619000D01*
G75*
G02*
X132102000Y-116369000I250000J0D01*
G01*
X132777000Y-116369000D01*
G75*
G02*
X133027000Y-116619000I0J-250000D01*
G01*
X133027000Y-117569000D01*
G75*
G02*
X132777000Y-117819000I-250000J0D01*
G01*
X132102000Y-117819000D01*
G75*
G02*
X131852000Y-117569000I0J250000D01*
G01*
G37*
%TD*%
%TO.C,C11*%
G36*
G01*
X129101000Y-119791500D02*
X129101000Y-118841500D01*
G75*
G02*
X129351000Y-118591500I250000J0D01*
G01*
X130026000Y-118591500D01*
G75*
G02*
X130276000Y-118841500I0J-250000D01*
G01*
X130276000Y-119791500D01*
G75*
G02*
X130026000Y-120041500I-250000J0D01*
G01*
X129351000Y-120041500D01*
G75*
G02*
X129101000Y-119791500I0J250000D01*
G01*
G37*
G36*
G01*
X127026000Y-119791500D02*
X127026000Y-118841500D01*
G75*
G02*
X127276000Y-118591500I250000J0D01*
G01*
X127951000Y-118591500D01*
G75*
G02*
X128201000Y-118841500I0J-250000D01*
G01*
X128201000Y-119791500D01*
G75*
G02*
X127951000Y-120041500I-250000J0D01*
G01*
X127276000Y-120041500D01*
G75*
G02*
X127026000Y-119791500I0J250000D01*
G01*
G37*
%TD*%
%TO.C,C8*%
G36*
G01*
X195522000Y-137381000D02*
X195522000Y-136431000D01*
G75*
G02*
X195772000Y-136181000I250000J0D01*
G01*
X196447000Y-136181000D01*
G75*
G02*
X196697000Y-136431000I0J-250000D01*
G01*
X196697000Y-137381000D01*
G75*
G02*
X196447000Y-137631000I-250000J0D01*
G01*
X195772000Y-137631000D01*
G75*
G02*
X195522000Y-137381000I0J250000D01*
G01*
G37*
G36*
G01*
X193447000Y-137381000D02*
X193447000Y-136431000D01*
G75*
G02*
X193697000Y-136181000I250000J0D01*
G01*
X194372000Y-136181000D01*
G75*
G02*
X194622000Y-136431000I0J-250000D01*
G01*
X194622000Y-137381000D01*
G75*
G02*
X194372000Y-137631000I-250000J0D01*
G01*
X193697000Y-137631000D01*
G75*
G02*
X193447000Y-137381000I0J250000D01*
G01*
G37*
%TD*%
%TO.C,C7*%
G36*
G01*
X141003000Y-149167000D02*
X141953000Y-149167000D01*
G75*
G02*
X142203000Y-149417000I0J-250000D01*
G01*
X142203000Y-150092000D01*
G75*
G02*
X141953000Y-150342000I-250000J0D01*
G01*
X141003000Y-150342000D01*
G75*
G02*
X140753000Y-150092000I0J250000D01*
G01*
X140753000Y-149417000D01*
G75*
G02*
X141003000Y-149167000I250000J0D01*
G01*
G37*
G36*
G01*
X141003000Y-147092000D02*
X141953000Y-147092000D01*
G75*
G02*
X142203000Y-147342000I0J-250000D01*
G01*
X142203000Y-148017000D01*
G75*
G02*
X141953000Y-148267000I-250000J0D01*
G01*
X141003000Y-148267000D01*
G75*
G02*
X140753000Y-148017000I0J250000D01*
G01*
X140753000Y-147342000D01*
G75*
G02*
X141003000Y-147092000I250000J0D01*
G01*
G37*
%TD*%
%TO.C,C6*%
G36*
G01*
X138463000Y-149167000D02*
X139413000Y-149167000D01*
G75*
G02*
X139663000Y-149417000I0J-250000D01*
G01*
X139663000Y-150092000D01*
G75*
G02*
X139413000Y-150342000I-250000J0D01*
G01*
X138463000Y-150342000D01*
G75*
G02*
X138213000Y-150092000I0J250000D01*
G01*
X138213000Y-149417000D01*
G75*
G02*
X138463000Y-149167000I250000J0D01*
G01*
G37*
G36*
G01*
X138463000Y-147092000D02*
X139413000Y-147092000D01*
G75*
G02*
X139663000Y-147342000I0J-250000D01*
G01*
X139663000Y-148017000D01*
G75*
G02*
X139413000Y-148267000I-250000J0D01*
G01*
X138463000Y-148267000D01*
G75*
G02*
X138213000Y-148017000I0J250000D01*
G01*
X138213000Y-147342000D01*
G75*
G02*
X138463000Y-147092000I250000J0D01*
G01*
G37*
%TD*%
%TO.C,C5*%
G36*
G01*
X99430000Y-147584000D02*
X99430000Y-148834000D01*
G75*
G02*
X99180000Y-149084000I-250000J0D01*
G01*
X98380000Y-149084000D01*
G75*
G02*
X98130000Y-148834000I0J250000D01*
G01*
X98130000Y-147584000D01*
G75*
G02*
X98380000Y-147334000I250000J0D01*
G01*
X99180000Y-147334000D01*
G75*
G02*
X99430000Y-147584000I0J-250000D01*
G01*
G37*
G36*
G01*
X102530000Y-147584000D02*
X102530000Y-148834000D01*
G75*
G02*
X102280000Y-149084000I-250000J0D01*
G01*
X101480000Y-149084000D01*
G75*
G02*
X101230000Y-148834000I0J250000D01*
G01*
X101230000Y-147584000D01*
G75*
G02*
X101480000Y-147334000I250000J0D01*
G01*
X102280000Y-147334000D01*
G75*
G02*
X102530000Y-147584000I0J-250000D01*
G01*
G37*
%TD*%
%TO.C,C4*%
G36*
G01*
X99430000Y-150124000D02*
X99430000Y-151374000D01*
G75*
G02*
X99180000Y-151624000I-250000J0D01*
G01*
X98380000Y-151624000D01*
G75*
G02*
X98130000Y-151374000I0J250000D01*
G01*
X98130000Y-150124000D01*
G75*
G02*
X98380000Y-149874000I250000J0D01*
G01*
X99180000Y-149874000D01*
G75*
G02*
X99430000Y-150124000I0J-250000D01*
G01*
G37*
G36*
G01*
X102530000Y-150124000D02*
X102530000Y-151374000D01*
G75*
G02*
X102280000Y-151624000I-250000J0D01*
G01*
X101480000Y-151624000D01*
G75*
G02*
X101230000Y-151374000I0J250000D01*
G01*
X101230000Y-150124000D01*
G75*
G02*
X101480000Y-149874000I250000J0D01*
G01*
X102280000Y-149874000D01*
G75*
G02*
X102530000Y-150124000I0J-250000D01*
G01*
G37*
%TD*%
%TO.C,C3*%
G36*
G01*
X95979000Y-156395000D02*
X95029000Y-156395000D01*
G75*
G02*
X94779000Y-156145000I0J250000D01*
G01*
X94779000Y-155470000D01*
G75*
G02*
X95029000Y-155220000I250000J0D01*
G01*
X95979000Y-155220000D01*
G75*
G02*
X96229000Y-155470000I0J-250000D01*
G01*
X96229000Y-156145000D01*
G75*
G02*
X95979000Y-156395000I-250000J0D01*
G01*
G37*
G36*
G01*
X95979000Y-158470000D02*
X95029000Y-158470000D01*
G75*
G02*
X94779000Y-158220000I0J250000D01*
G01*
X94779000Y-157545000D01*
G75*
G02*
X95029000Y-157295000I250000J0D01*
G01*
X95979000Y-157295000D01*
G75*
G02*
X96229000Y-157545000I0J-250000D01*
G01*
X96229000Y-158220000D01*
G75*
G02*
X95979000Y-158470000I-250000J0D01*
G01*
G37*
%TD*%
%TO.C,C2*%
G36*
G01*
X92594000Y-148834000D02*
X92594000Y-147584000D01*
G75*
G02*
X92844000Y-147334000I250000J0D01*
G01*
X93644000Y-147334000D01*
G75*
G02*
X93894000Y-147584000I0J-250000D01*
G01*
X93894000Y-148834000D01*
G75*
G02*
X93644000Y-149084000I-250000J0D01*
G01*
X92844000Y-149084000D01*
G75*
G02*
X92594000Y-148834000I0J250000D01*
G01*
G37*
G36*
G01*
X89494000Y-148834000D02*
X89494000Y-147584000D01*
G75*
G02*
X89744000Y-147334000I250000J0D01*
G01*
X90544000Y-147334000D01*
G75*
G02*
X90794000Y-147584000I0J-250000D01*
G01*
X90794000Y-148834000D01*
G75*
G02*
X90544000Y-149084000I-250000J0D01*
G01*
X89744000Y-149084000D01*
G75*
G02*
X89494000Y-148834000I0J250000D01*
G01*
G37*
%TD*%
%TO.C,C1*%
G36*
G01*
X92594000Y-151374000D02*
X92594000Y-150124000D01*
G75*
G02*
X92844000Y-149874000I250000J0D01*
G01*
X93644000Y-149874000D01*
G75*
G02*
X93894000Y-150124000I0J-250000D01*
G01*
X93894000Y-151374000D01*
G75*
G02*
X93644000Y-151624000I-250000J0D01*
G01*
X92844000Y-151624000D01*
G75*
G02*
X92594000Y-151374000I0J250000D01*
G01*
G37*
G36*
G01*
X89494000Y-151374000D02*
X89494000Y-150124000D01*
G75*
G02*
X89744000Y-149874000I250000J0D01*
G01*
X90544000Y-149874000D01*
G75*
G02*
X90794000Y-150124000I0J-250000D01*
G01*
X90794000Y-151374000D01*
G75*
G02*
X90544000Y-151624000I-250000J0D01*
G01*
X89744000Y-151624000D01*
G75*
G02*
X89494000Y-151374000I0J250000D01*
G01*
G37*
%TD*%
M02*
