%TF.GenerationSoftware,KiCad,Pcbnew,6.0.1-79c1e3a40b~116~ubuntu20.04.1*%
%TF.CreationDate,2022-02-11T21:59:21+00:00*%
%TF.ProjectId,BassStation_Sequencer_MidiInterface,42617373-5374-4617-9469-6f6e5f536571,B*%
%TF.SameCoordinates,Original*%
%TF.FileFunction,Paste,Bot*%
%TF.FilePolarity,Positive*%
%FSLAX46Y46*%
G04 Gerber Fmt 4.6, Leading zero omitted, Abs format (unit mm)*
G04 Created by KiCad (PCBNEW 6.0.1-79c1e3a40b~116~ubuntu20.04.1) date 2022-02-11 21:59:21*
%MOMM*%
%LPD*%
G01*
G04 APERTURE LIST*
G04 Aperture macros list*
%AMRoundRect*
0 Rectangle with rounded corners*
0 $1 Rounding radius*
0 $2 $3 $4 $5 $6 $7 $8 $9 X,Y pos of 4 corners*
0 Add a 4 corners polygon primitive as box body*
4,1,4,$2,$3,$4,$5,$6,$7,$8,$9,$2,$3,0*
0 Add four circle primitives for the rounded corners*
1,1,$1+$1,$2,$3*
1,1,$1+$1,$4,$5*
1,1,$1+$1,$6,$7*
1,1,$1+$1,$8,$9*
0 Add four rect primitives between the rounded corners*
20,1,$1+$1,$2,$3,$4,$5,0*
20,1,$1+$1,$4,$5,$6,$7,0*
20,1,$1+$1,$6,$7,$8,$9,0*
20,1,$1+$1,$8,$9,$2,$3,0*%
%AMFreePoly0*
4,1,48,0.127555,0.216286,0.145112,0.216286,0.159316,0.205966,0.176016,0.200540,0.186336,0.186336,0.200540,0.176016,0.205966,0.159316,0.216286,0.145112,0.216286,0.127555,0.221712,0.110856,0.221712,-0.110856,0.216286,-0.127555,0.216286,-0.145112,0.205966,-0.159316,0.200540,-0.176016,0.186336,-0.186336,0.176016,-0.200540,0.159316,-0.205966,0.145112,-0.216286,0.127555,-0.216286,
0.110856,-0.221712,-0.110856,-0.221712,-0.127555,-0.216286,-0.145112,-0.216286,-0.159316,-0.205966,-0.176016,-0.200540,-0.186336,-0.186336,-0.200540,-0.176016,-0.205966,-0.159316,-0.216286,-0.145112,-0.216286,-0.127555,-0.221712,-0.110856,-0.221712,-0.000473,-0.218948,0.008034,-0.220347,0.016868,-0.208562,0.039997,-0.200540,0.064687,-0.193304,0.069944,-0.189243,0.077914,-0.077914,0.189243,
-0.069944,0.193304,-0.064687,0.200540,-0.039997,0.208562,-0.016868,0.220347,-0.008034,0.218948,0.000473,0.221712,0.110856,0.221712,0.127555,0.216286,0.127555,0.216286,$1*%
%AMFreePoly1*
4,1,48,0.127555,0.216286,0.145112,0.216286,0.159316,0.205966,0.176016,0.200540,0.186336,0.186336,0.200540,0.176016,0.205966,0.159316,0.216286,0.145112,0.216286,0.127555,0.221712,0.110856,0.221712,0.000473,0.218948,-0.008034,0.220347,-0.016868,0.208562,-0.039997,0.200540,-0.064687,0.193304,-0.069944,0.189243,-0.077914,0.077914,-0.189243,0.069944,-0.193304,0.064687,-0.200540,
0.039997,-0.208562,0.016868,-0.220347,0.008034,-0.218948,-0.000473,-0.221712,-0.110856,-0.221712,-0.127555,-0.216286,-0.145112,-0.216286,-0.159316,-0.205966,-0.176016,-0.200540,-0.186336,-0.186336,-0.200540,-0.176016,-0.205966,-0.159316,-0.216286,-0.145112,-0.216286,-0.127555,-0.221712,-0.110856,-0.221712,0.110856,-0.216286,0.127555,-0.216286,0.145112,-0.205966,0.159316,-0.200540,0.176016,
-0.186336,0.186336,-0.176016,0.200540,-0.159316,0.205966,-0.145112,0.216286,-0.127555,0.216286,-0.110856,0.221712,0.110856,0.221712,0.127555,0.216286,0.127555,0.216286,$1*%
%AMFreePoly2*
4,1,51,0.323433,0.217121,0.338292,0.217121,0.350313,0.208387,0.364443,0.203796,0.373177,0.191776,0.385197,0.183042,0.389788,0.168912,0.398522,0.156891,0.398522,0.142032,0.403113,0.127902,0.403113,-0.050187,0.400774,-0.057386,0.401958,-0.064862,0.391985,-0.084434,0.385197,-0.105327,0.379073,-0.109776,0.375637,-0.116520,0.297922,-0.194236,0.291177,-0.197673,0.286728,-0.203796,
0.265836,-0.210584,0.246263,-0.220557,0.238787,-0.219373,0.231588,-0.221712,-0.231588,-0.221712,-0.238787,-0.219373,-0.246263,-0.220557,-0.265835,-0.210584,-0.286728,-0.203796,-0.291177,-0.197672,-0.297921,-0.194236,-0.375637,-0.116521,-0.379074,-0.109776,-0.385197,-0.105327,-0.391985,-0.084435,-0.401958,-0.064862,-0.400774,-0.057386,-0.403113,-0.050187,-0.403113,0.127902,-0.398522,0.142032,
-0.398522,0.156891,-0.389788,0.168912,-0.385197,0.183042,-0.373177,0.191776,-0.364443,0.203796,-0.350313,0.208387,-0.338292,0.217121,-0.323433,0.217121,-0.309303,0.221712,0.309303,0.221712,0.323433,0.217121,0.323433,0.217121,$1*%
%AMFreePoly3*
4,1,51,0.238787,0.219373,0.246263,0.220557,0.265836,0.210584,0.286728,0.203796,0.291177,0.197673,0.297922,0.194236,0.375637,0.116520,0.379073,0.109776,0.385197,0.105327,0.391985,0.084434,0.401958,0.064862,0.400774,0.057386,0.403113,0.050187,0.403113,-0.127902,0.398522,-0.142032,0.398522,-0.156891,0.389788,-0.168912,0.385197,-0.183042,0.373177,-0.191776,0.364443,-0.203796,
0.350313,-0.208387,0.338292,-0.217121,0.323433,-0.217121,0.309303,-0.221712,-0.309303,-0.221712,-0.323433,-0.217121,-0.338292,-0.217121,-0.350313,-0.208387,-0.364443,-0.203796,-0.373177,-0.191776,-0.385197,-0.183042,-0.389788,-0.168912,-0.398522,-0.156891,-0.398522,-0.142032,-0.403113,-0.127902,-0.403113,0.050187,-0.400774,0.057386,-0.401958,0.064862,-0.391985,0.084435,-0.385197,0.105327,
-0.379074,0.109776,-0.375637,0.116521,-0.297921,0.194236,-0.291177,0.197672,-0.286728,0.203796,-0.265835,0.210584,-0.246263,0.220557,-0.238787,0.219373,-0.231588,0.221712,0.231588,0.221712,0.238787,0.219373,0.238787,0.219373,$1*%
%AMFreePoly4*
4,1,51,0.057386,0.400774,0.064862,0.401958,0.084435,0.391985,0.105327,0.385197,0.109776,0.379074,0.116521,0.375637,0.194236,0.297921,0.197672,0.291177,0.203796,0.286728,0.210584,0.265835,0.220557,0.246263,0.219373,0.238787,0.221712,0.231588,0.221712,-0.231588,0.219373,-0.238787,0.220557,-0.246263,0.210584,-0.265835,0.203796,-0.286728,0.197672,-0.291177,0.194236,-0.297921,
0.116521,-0.375637,0.109776,-0.379074,0.105327,-0.385197,0.084435,-0.391985,0.064862,-0.401958,0.057386,-0.400774,0.050187,-0.403113,-0.127902,-0.403113,-0.142032,-0.398522,-0.156891,-0.398522,-0.168912,-0.389788,-0.183042,-0.385197,-0.191776,-0.373177,-0.203796,-0.364443,-0.208387,-0.350313,-0.217121,-0.338292,-0.217121,-0.323433,-0.221712,-0.309303,-0.221712,0.309303,-0.217121,0.323433,
-0.217121,0.338292,-0.208387,0.350313,-0.203796,0.364443,-0.191776,0.373177,-0.183042,0.385197,-0.168912,0.389788,-0.156891,0.398522,-0.142032,0.398522,-0.127902,0.403113,0.050187,0.403113,0.057386,0.400774,0.057386,0.400774,$1*%
%AMFreePoly5*
4,1,51,0.142032,0.398522,0.156891,0.398522,0.168912,0.389788,0.183042,0.385197,0.191776,0.373177,0.203796,0.364443,0.208387,0.350313,0.217121,0.338292,0.217121,0.323433,0.221712,0.309303,0.221712,-0.309303,0.217121,-0.323433,0.217121,-0.338292,0.208387,-0.350313,0.203796,-0.364443,0.191776,-0.373177,0.183042,-0.385197,0.168912,-0.389788,0.156891,-0.398522,0.142032,-0.398522,
0.127902,-0.403113,-0.050187,-0.403113,-0.057386,-0.400774,-0.064862,-0.401958,-0.084434,-0.391985,-0.105327,-0.385197,-0.109776,-0.379073,-0.116520,-0.375637,-0.194236,-0.297922,-0.197673,-0.291177,-0.203796,-0.286728,-0.210584,-0.265836,-0.220557,-0.246263,-0.219373,-0.238787,-0.221712,-0.231588,-0.221712,0.231588,-0.219373,0.238787,-0.220557,0.246263,-0.210584,0.265836,-0.203796,0.286728,
-0.197673,0.291177,-0.194236,0.297922,-0.116520,0.375637,-0.109776,0.379073,-0.105327,0.385197,-0.084434,0.391985,-0.064862,0.401958,-0.057386,0.400774,-0.050187,0.403113,0.127902,0.403113,0.142032,0.398522,0.142032,0.398522,$1*%
%AMFreePoly6*
4,1,48,0.127555,0.216286,0.145112,0.216286,0.159316,0.205966,0.176016,0.200540,0.186336,0.186336,0.200540,0.176016,0.205966,0.159316,0.216286,0.145112,0.216286,0.127555,0.221712,0.110856,0.221712,-0.110856,0.216286,-0.127555,0.216286,-0.145112,0.205966,-0.159316,0.200540,-0.176016,0.186336,-0.186336,0.176016,-0.200540,0.159316,-0.205966,0.145112,-0.216286,0.127555,-0.216286,
0.110856,-0.221712,0.000473,-0.221712,-0.008034,-0.218948,-0.016868,-0.220347,-0.039997,-0.208562,-0.064687,-0.200540,-0.069944,-0.193304,-0.077914,-0.189243,-0.189243,-0.077914,-0.193304,-0.069944,-0.200540,-0.064687,-0.208562,-0.039997,-0.220347,-0.016868,-0.218948,-0.008034,-0.221712,0.000473,-0.221712,0.110856,-0.216286,0.127555,-0.216286,0.145112,-0.205966,0.159316,-0.200540,0.176016,
-0.186336,0.186336,-0.176016,0.200540,-0.159316,0.205966,-0.145112,0.216286,-0.127555,0.216286,-0.110856,0.221712,0.110856,0.221712,0.127555,0.216286,0.127555,0.216286,$1*%
%AMFreePoly7*
4,1,48,0.008034,0.218948,0.016868,0.220347,0.039997,0.208562,0.064687,0.200540,0.069944,0.193304,0.077914,0.189243,0.189243,0.077914,0.193304,0.069944,0.200540,0.064687,0.208562,0.039997,0.220347,0.016868,0.218948,0.008034,0.221712,-0.000473,0.221712,-0.110856,0.216286,-0.127555,0.216286,-0.145112,0.205966,-0.159316,0.200540,-0.176016,0.186336,-0.186336,0.176016,-0.200540,
0.159316,-0.205966,0.145112,-0.216286,0.127555,-0.216286,0.110856,-0.221712,-0.110856,-0.221712,-0.127555,-0.216286,-0.145112,-0.216286,-0.159316,-0.205966,-0.176016,-0.200540,-0.186336,-0.186336,-0.200540,-0.176016,-0.205966,-0.159316,-0.216286,-0.145112,-0.216286,-0.127555,-0.221712,-0.110856,-0.221712,0.110856,-0.216286,0.127555,-0.216286,0.145112,-0.205966,0.159316,-0.200540,0.176016,
-0.186336,0.186336,-0.176016,0.200540,-0.159316,0.205966,-0.145112,0.216286,-0.127555,0.216286,-0.110856,0.221712,-0.000473,0.221712,0.008034,0.218948,0.008034,0.218948,$1*%
G04 Aperture macros list end*
%ADD10R,0.960000X1.030000*%
%ADD11R,1.550000X0.300000*%
%ADD12RoundRect,0.250000X-0.337500X-0.475000X0.337500X-0.475000X0.337500X0.475000X-0.337500X0.475000X0*%
%ADD13RoundRect,0.250000X0.475000X-0.337500X0.475000X0.337500X-0.475000X0.337500X-0.475000X-0.337500X0*%
%ADD14RoundRect,0.250000X-0.475000X0.337500X-0.475000X-0.337500X0.475000X-0.337500X0.475000X0.337500X0*%
%ADD15R,1.100000X1.100000*%
%ADD16RoundRect,0.250000X0.337500X0.475000X-0.337500X0.475000X-0.337500X-0.475000X0.337500X-0.475000X0*%
%ADD17RoundRect,0.249999X0.450001X-0.350001X0.450001X0.350001X-0.450001X0.350001X-0.450001X-0.350001X0*%
%ADD18FreePoly0,0.000000*%
%ADD19RoundRect,0.201556X-0.201557X-0.201557X0.201557X-0.201557X0.201557X0.201557X-0.201557X0.201557X0*%
%ADD20FreePoly1,0.000000*%
%ADD21FreePoly2,0.000000*%
%ADD22FreePoly3,0.000000*%
%ADD23FreePoly4,0.000000*%
%ADD24FreePoly5,0.000000*%
%ADD25FreePoly6,0.000000*%
%ADD26FreePoly7,0.000000*%
%ADD27RoundRect,0.062500X-0.375000X-0.062500X0.375000X-0.062500X0.375000X0.062500X-0.375000X0.062500X0*%
%ADD28RoundRect,0.062500X-0.062500X-0.375000X0.062500X-0.375000X0.062500X0.375000X-0.062500X0.375000X0*%
%ADD29RoundRect,0.232500X0.232500X-0.232500X0.232500X0.232500X-0.232500X0.232500X-0.232500X-0.232500X0*%
%ADD30RoundRect,0.062500X0.062500X-0.375000X0.062500X0.375000X-0.062500X0.375000X-0.062500X-0.375000X0*%
%ADD31RoundRect,0.062500X0.375000X-0.062500X0.375000X0.062500X-0.375000X0.062500X-0.375000X-0.062500X0*%
G04 APERTURE END LIST*
D10*
%TO.C,U36*%
X206943400Y-199707500D03*
X204536600Y-199707500D03*
X204536600Y-200977500D03*
X205740000Y-202247500D03*
X206943400Y-197167500D03*
X204536600Y-197167500D03*
X205740000Y-200977500D03*
X205740000Y-199707500D03*
X206943400Y-198437500D03*
X204536600Y-198437500D03*
X205740000Y-197167500D03*
X206943400Y-202247500D03*
X204536600Y-202247500D03*
X206943400Y-200977500D03*
X205740000Y-198437500D03*
D11*
X209490000Y-192957500D03*
X209490000Y-193457500D03*
X209490000Y-193957500D03*
X209490000Y-194457500D03*
X209490000Y-194957500D03*
X209490000Y-195457500D03*
X209490000Y-195957500D03*
X209490000Y-196457500D03*
X209490000Y-196957500D03*
X209490000Y-197457500D03*
X209490000Y-197957500D03*
X209490000Y-198457500D03*
X209490000Y-198957500D03*
X209490000Y-199457500D03*
X209490000Y-199957500D03*
X209490000Y-200457500D03*
X209490000Y-200957500D03*
X209490000Y-201457500D03*
X209490000Y-201957500D03*
X209490000Y-202457500D03*
X209490000Y-202957500D03*
X209490000Y-203457500D03*
X209490000Y-203957500D03*
X209490000Y-204457500D03*
X209490000Y-204957500D03*
X209490000Y-205457500D03*
X209490000Y-205957500D03*
X209490000Y-206457500D03*
X201990000Y-206457500D03*
X201990000Y-205957500D03*
X201990000Y-205457500D03*
X201990000Y-204957500D03*
X201990000Y-204457500D03*
X201990000Y-203957500D03*
X201990000Y-203457500D03*
X201990000Y-202957500D03*
X201990000Y-202457500D03*
X201990000Y-201957500D03*
X201990000Y-201457500D03*
X201990000Y-200957500D03*
X201990000Y-200457500D03*
X201990000Y-199957500D03*
X201990000Y-199457500D03*
X201990000Y-198957500D03*
X201990000Y-198457500D03*
X201990000Y-197957500D03*
X201990000Y-197457500D03*
X201990000Y-196957500D03*
X201990000Y-196457500D03*
X201990000Y-195957500D03*
X201990000Y-195457500D03*
X201990000Y-194957500D03*
X201990000Y-194457500D03*
X201990000Y-193957500D03*
X201990000Y-193457500D03*
X201990000Y-192957500D03*
%TD*%
D10*
%TO.C,U37*%
X204663600Y-168973500D03*
X205867000Y-166433500D03*
X205867000Y-170243500D03*
X207070400Y-167703500D03*
X204663600Y-165163500D03*
X205867000Y-168973500D03*
X205867000Y-167703500D03*
X207070400Y-165163500D03*
X205867000Y-165163500D03*
X204663600Y-166433500D03*
X207070400Y-168973500D03*
X204663600Y-167703500D03*
X207070400Y-166433500D03*
X204663600Y-170243500D03*
X207070400Y-170243500D03*
D11*
X209617000Y-160953500D03*
X209617000Y-161453500D03*
X209617000Y-161953500D03*
X209617000Y-162453500D03*
X209617000Y-162953500D03*
X209617000Y-163453500D03*
X209617000Y-163953500D03*
X209617000Y-164453500D03*
X209617000Y-164953500D03*
X209617000Y-165453500D03*
X209617000Y-165953500D03*
X209617000Y-166453500D03*
X209617000Y-166953500D03*
X209617000Y-167453500D03*
X209617000Y-167953500D03*
X209617000Y-168453500D03*
X209617000Y-168953500D03*
X209617000Y-169453500D03*
X209617000Y-169953500D03*
X209617000Y-170453500D03*
X209617000Y-170953500D03*
X209617000Y-171453500D03*
X209617000Y-171953500D03*
X209617000Y-172453500D03*
X209617000Y-172953500D03*
X209617000Y-173453500D03*
X209617000Y-173953500D03*
X209617000Y-174453500D03*
X202117000Y-174453500D03*
X202117000Y-173953500D03*
X202117000Y-173453500D03*
X202117000Y-172953500D03*
X202117000Y-172453500D03*
X202117000Y-171953500D03*
X202117000Y-171453500D03*
X202117000Y-170953500D03*
X202117000Y-170453500D03*
X202117000Y-169953500D03*
X202117000Y-169453500D03*
X202117000Y-168953500D03*
X202117000Y-168453500D03*
X202117000Y-167953500D03*
X202117000Y-167453500D03*
X202117000Y-166953500D03*
X202117000Y-166453500D03*
X202117000Y-165953500D03*
X202117000Y-165453500D03*
X202117000Y-164953500D03*
X202117000Y-164453500D03*
X202117000Y-163953500D03*
X202117000Y-163453500D03*
X202117000Y-162953500D03*
X202117000Y-162453500D03*
X202117000Y-161953500D03*
X202117000Y-161453500D03*
X202117000Y-160953500D03*
%TD*%
D12*
%TO.C,C9*%
X205083500Y-158496000D03*
X207158500Y-158496000D03*
%TD*%
D13*
%TO.C,C10*%
X205740000Y-190775500D03*
X205740000Y-188700500D03*
%TD*%
%TO.C,C22*%
X164211000Y-132863500D03*
X164211000Y-130788500D03*
%TD*%
D14*
%TO.C,C23*%
X166116000Y-147298500D03*
X166116000Y-149373500D03*
%TD*%
D15*
%TO.C,D2*%
X162690000Y-120015000D03*
X159890000Y-120015000D03*
%TD*%
D14*
%TO.C,R11*%
X156972000Y-132820500D03*
X156972000Y-134895500D03*
%TD*%
D16*
%TO.C,R12*%
X156993500Y-137160000D03*
X154918500Y-137160000D03*
%TD*%
D17*
%TO.C,R23*%
X122174000Y-125968000D03*
X122174000Y-123968000D03*
%TD*%
%TO.C,R24*%
X119126000Y-125968000D03*
X119126000Y-123968000D03*
%TD*%
D13*
%TO.C,C20*%
X166878000Y-132863500D03*
X166878000Y-130788500D03*
%TD*%
D17*
%TO.C,R22*%
X124968000Y-125968000D03*
X124968000Y-123968000D03*
%TD*%
D18*
%TO.C,U34*%
X123639500Y-118813500D03*
D19*
X122864500Y-118038500D03*
D20*
X121089500Y-116263500D03*
D19*
X121864500Y-117038500D03*
D21*
X122864500Y-116263500D03*
D22*
X122864500Y-118813500D03*
X121864500Y-118813500D03*
D19*
X121864500Y-118038500D03*
X122864500Y-117038500D03*
D23*
X121089500Y-118038500D03*
D24*
X123639500Y-117038500D03*
D25*
X123639500Y-116263500D03*
D21*
X121864500Y-116263500D03*
D23*
X121089500Y-117038500D03*
D24*
X123639500Y-118038500D03*
D26*
X121089500Y-118813500D03*
D27*
X119927000Y-119288500D03*
X119927000Y-118788500D03*
X119927000Y-118288500D03*
X119927000Y-117788500D03*
X119927000Y-117288500D03*
X119927000Y-116788500D03*
X119927000Y-116288500D03*
X119927000Y-115788500D03*
D28*
X120614500Y-115101000D03*
X121114500Y-115101000D03*
X121614500Y-115101000D03*
X122114500Y-115101000D03*
X122614500Y-115101000D03*
X123114500Y-115101000D03*
X123614500Y-115101000D03*
X124114500Y-115101000D03*
D27*
X124802000Y-115788500D03*
X124802000Y-116288500D03*
X124802000Y-116788500D03*
X124802000Y-117288500D03*
X124802000Y-117788500D03*
X124802000Y-118288500D03*
X124802000Y-118788500D03*
X124802000Y-119288500D03*
D28*
X124114500Y-119976000D03*
X123614500Y-119976000D03*
X123114500Y-119976000D03*
X122614500Y-119976000D03*
X122114500Y-119976000D03*
X121614500Y-119976000D03*
X121114500Y-119976000D03*
X120614500Y-119976000D03*
%TD*%
D14*
%TO.C,C21*%
X163322000Y-147298500D03*
X163322000Y-149373500D03*
%TD*%
D29*
%TO.C,U35*%
X188535000Y-139125000D03*
X188535000Y-140275000D03*
X187385000Y-139125000D03*
X187385000Y-140275000D03*
D30*
X189210000Y-141637500D03*
X188710000Y-141637500D03*
X188210000Y-141637500D03*
X187710000Y-141637500D03*
X187210000Y-141637500D03*
X186710000Y-141637500D03*
D31*
X186022500Y-140950000D03*
X186022500Y-140450000D03*
X186022500Y-139950000D03*
X186022500Y-139450000D03*
X186022500Y-138950000D03*
X186022500Y-138450000D03*
D30*
X186710000Y-137762500D03*
X187210000Y-137762500D03*
X187710000Y-137762500D03*
X188210000Y-137762500D03*
X188710000Y-137762500D03*
X189210000Y-137762500D03*
D31*
X189897500Y-138450000D03*
X189897500Y-138950000D03*
X189897500Y-139450000D03*
X189897500Y-139950000D03*
X189897500Y-140450000D03*
X189897500Y-140950000D03*
%TD*%
M02*
