%TF.GenerationSoftware,KiCad,Pcbnew,6.0.1-79c1e3a40b~116~ubuntu20.04.1*%
%TF.CreationDate,2022-02-08T20:35:14+00:00*%
%TF.ProjectId,BassStation_Sequencer_MidiInterface,42617373-5374-4617-9469-6f6e5f536571,A*%
%TF.SameCoordinates,Original*%
%TF.FileFunction,Legend,Bot*%
%TF.FilePolarity,Positive*%
%FSLAX46Y46*%
G04 Gerber Fmt 4.6, Leading zero omitted, Abs format (unit mm)*
G04 Created by KiCad (PCBNEW 6.0.1-79c1e3a40b~116~ubuntu20.04.1) date 2022-02-08 20:35:14*
%MOMM*%
%LPD*%
G01*
G04 APERTURE LIST*
%ADD10C,0.500000*%
%ADD11C,0.153000*%
%ADD12C,0.150000*%
%ADD13C,0.120000*%
G04 APERTURE END LIST*
D10*
X118567201Y-119278400D02*
G75*
G03*
X118567201Y-119278400I-1J0D01*
G01*
D11*
%TO.C,U36*%
X206978095Y-207333904D02*
X206978095Y-207981523D01*
X206930476Y-208057714D01*
X206882857Y-208095809D01*
X206787619Y-208133904D01*
X206597142Y-208133904D01*
X206501904Y-208095809D01*
X206454285Y-208057714D01*
X206406666Y-207981523D01*
X206406666Y-207333904D01*
X206025714Y-207333904D02*
X205406666Y-207333904D01*
X205740000Y-207638666D01*
X205597142Y-207638666D01*
X205501904Y-207676761D01*
X205454285Y-207714857D01*
X205406666Y-207791047D01*
X205406666Y-207981523D01*
X205454285Y-208057714D01*
X205501904Y-208095809D01*
X205597142Y-208133904D01*
X205882857Y-208133904D01*
X205978095Y-208095809D01*
X206025714Y-208057714D01*
X204549523Y-207333904D02*
X204740000Y-207333904D01*
X204835238Y-207372000D01*
X204882857Y-207410095D01*
X204978095Y-207524380D01*
X205025714Y-207676761D01*
X205025714Y-207981523D01*
X204978095Y-208057714D01*
X204930476Y-208095809D01*
X204835238Y-208133904D01*
X204644761Y-208133904D01*
X204549523Y-208095809D01*
X204501904Y-208057714D01*
X204454285Y-207981523D01*
X204454285Y-207791047D01*
X204501904Y-207714857D01*
X204549523Y-207676761D01*
X204644761Y-207638666D01*
X204835238Y-207638666D01*
X204930476Y-207676761D01*
X204978095Y-207714857D01*
X205025714Y-207791047D01*
%TO.C,U37*%
X206470095Y-175710904D02*
X206470095Y-176358523D01*
X206422476Y-176434714D01*
X206374857Y-176472809D01*
X206279619Y-176510904D01*
X206089142Y-176510904D01*
X205993904Y-176472809D01*
X205946285Y-176434714D01*
X205898666Y-176358523D01*
X205898666Y-175710904D01*
X205517714Y-175710904D02*
X204898666Y-175710904D01*
X205232000Y-176015666D01*
X205089142Y-176015666D01*
X204993904Y-176053761D01*
X204946285Y-176091857D01*
X204898666Y-176168047D01*
X204898666Y-176358523D01*
X204946285Y-176434714D01*
X204993904Y-176472809D01*
X205089142Y-176510904D01*
X205374857Y-176510904D01*
X205470095Y-176472809D01*
X205517714Y-176434714D01*
X204565333Y-175710904D02*
X203898666Y-175710904D01*
X204327238Y-176510904D01*
%TO.C,C9*%
X206160666Y-157003714D02*
X206208285Y-157041809D01*
X206351142Y-157079904D01*
X206446380Y-157079904D01*
X206589238Y-157041809D01*
X206684476Y-156965619D01*
X206732095Y-156889428D01*
X206779714Y-156737047D01*
X206779714Y-156622761D01*
X206732095Y-156470380D01*
X206684476Y-156394190D01*
X206589238Y-156318000D01*
X206446380Y-156279904D01*
X206351142Y-156279904D01*
X206208285Y-156318000D01*
X206160666Y-156356095D01*
X205684476Y-157079904D02*
X205494000Y-157079904D01*
X205398761Y-157041809D01*
X205351142Y-157003714D01*
X205255904Y-156889428D01*
X205208285Y-156737047D01*
X205208285Y-156432285D01*
X205255904Y-156356095D01*
X205303523Y-156318000D01*
X205398761Y-156279904D01*
X205589238Y-156279904D01*
X205684476Y-156318000D01*
X205732095Y-156356095D01*
X205779714Y-156432285D01*
X205779714Y-156622761D01*
X205732095Y-156698952D01*
X205684476Y-156737047D01*
X205589238Y-156775142D01*
X205398761Y-156775142D01*
X205303523Y-156737047D01*
X205255904Y-156698952D01*
X205208285Y-156622761D01*
%TO.C,C10*%
X206025714Y-185539142D02*
X206063809Y-185491523D01*
X206101904Y-185348666D01*
X206101904Y-185253428D01*
X206063809Y-185110571D01*
X205987619Y-185015333D01*
X205911428Y-184967714D01*
X205759047Y-184920095D01*
X205644761Y-184920095D01*
X205492380Y-184967714D01*
X205416190Y-185015333D01*
X205340000Y-185110571D01*
X205301904Y-185253428D01*
X205301904Y-185348666D01*
X205340000Y-185491523D01*
X205378095Y-185539142D01*
X206101904Y-186491523D02*
X206101904Y-185920095D01*
X206101904Y-186205809D02*
X205301904Y-186205809D01*
X205416190Y-186110571D01*
X205492380Y-186015333D01*
X205530476Y-185920095D01*
X205301904Y-187110571D02*
X205301904Y-187205809D01*
X205340000Y-187301047D01*
X205378095Y-187348666D01*
X205454285Y-187396285D01*
X205606666Y-187443904D01*
X205797142Y-187443904D01*
X205949523Y-187396285D01*
X206025714Y-187348666D01*
X206063809Y-187301047D01*
X206101904Y-187205809D01*
X206101904Y-187110571D01*
X206063809Y-187015333D01*
X206025714Y-186967714D01*
X205949523Y-186920095D01*
X205797142Y-186872476D01*
X205606666Y-186872476D01*
X205454285Y-186920095D01*
X205378095Y-186967714D01*
X205340000Y-187015333D01*
X205301904Y-187110571D01*
%TO.C,C22*%
X164623714Y-126865142D02*
X164661809Y-126817523D01*
X164699904Y-126674666D01*
X164699904Y-126579428D01*
X164661809Y-126436571D01*
X164585619Y-126341333D01*
X164509428Y-126293714D01*
X164357047Y-126246095D01*
X164242761Y-126246095D01*
X164090380Y-126293714D01*
X164014190Y-126341333D01*
X163938000Y-126436571D01*
X163899904Y-126579428D01*
X163899904Y-126674666D01*
X163938000Y-126817523D01*
X163976095Y-126865142D01*
X163976095Y-127246095D02*
X163938000Y-127293714D01*
X163899904Y-127388952D01*
X163899904Y-127627047D01*
X163938000Y-127722285D01*
X163976095Y-127769904D01*
X164052285Y-127817523D01*
X164128476Y-127817523D01*
X164242761Y-127769904D01*
X164699904Y-127198476D01*
X164699904Y-127817523D01*
X163976095Y-128198476D02*
X163938000Y-128246095D01*
X163899904Y-128341333D01*
X163899904Y-128579428D01*
X163938000Y-128674666D01*
X163976095Y-128722285D01*
X164052285Y-128769904D01*
X164128476Y-128769904D01*
X164242761Y-128722285D01*
X164699904Y-128150857D01*
X164699904Y-128769904D01*
%TO.C,C23*%
X166401714Y-151249142D02*
X166439809Y-151201523D01*
X166477904Y-151058666D01*
X166477904Y-150963428D01*
X166439809Y-150820571D01*
X166363619Y-150725333D01*
X166287428Y-150677714D01*
X166135047Y-150630095D01*
X166020761Y-150630095D01*
X165868380Y-150677714D01*
X165792190Y-150725333D01*
X165716000Y-150820571D01*
X165677904Y-150963428D01*
X165677904Y-151058666D01*
X165716000Y-151201523D01*
X165754095Y-151249142D01*
X165754095Y-151630095D02*
X165716000Y-151677714D01*
X165677904Y-151772952D01*
X165677904Y-152011047D01*
X165716000Y-152106285D01*
X165754095Y-152153904D01*
X165830285Y-152201523D01*
X165906476Y-152201523D01*
X166020761Y-152153904D01*
X166477904Y-151582476D01*
X166477904Y-152201523D01*
X165677904Y-152534857D02*
X165677904Y-153153904D01*
X165982666Y-152820571D01*
X165982666Y-152963428D01*
X166020761Y-153058666D01*
X166058857Y-153106285D01*
X166135047Y-153153904D01*
X166325523Y-153153904D01*
X166401714Y-153106285D01*
X166439809Y-153058666D01*
X166477904Y-152963428D01*
X166477904Y-152677714D01*
X166439809Y-152582476D01*
X166401714Y-152534857D01*
%TO.C,D2*%
X162155095Y-118471904D02*
X162155095Y-117671904D01*
X161917000Y-117671904D01*
X161774142Y-117710000D01*
X161678904Y-117786190D01*
X161631285Y-117862380D01*
X161583666Y-118014761D01*
X161583666Y-118129047D01*
X161631285Y-118281428D01*
X161678904Y-118357619D01*
X161774142Y-118433809D01*
X161917000Y-118471904D01*
X162155095Y-118471904D01*
X161202714Y-117748095D02*
X161155095Y-117710000D01*
X161059857Y-117671904D01*
X160821761Y-117671904D01*
X160726523Y-117710000D01*
X160678904Y-117748095D01*
X160631285Y-117824285D01*
X160631285Y-117900476D01*
X160678904Y-118014761D01*
X161250333Y-118471904D01*
X160631285Y-118471904D01*
%TO.C,R11*%
X153296857Y-134219904D02*
X153630190Y-133838952D01*
X153868285Y-134219904D02*
X153868285Y-133419904D01*
X153487333Y-133419904D01*
X153392095Y-133458000D01*
X153344476Y-133496095D01*
X153296857Y-133572285D01*
X153296857Y-133686571D01*
X153344476Y-133762761D01*
X153392095Y-133800857D01*
X153487333Y-133838952D01*
X153868285Y-133838952D01*
X152344476Y-134219904D02*
X152915904Y-134219904D01*
X152630190Y-134219904D02*
X152630190Y-133419904D01*
X152725428Y-133534190D01*
X152820666Y-133610380D01*
X152915904Y-133648476D01*
X151392095Y-134219904D02*
X151963523Y-134219904D01*
X151677809Y-134219904D02*
X151677809Y-133419904D01*
X151773047Y-133534190D01*
X151868285Y-133610380D01*
X151963523Y-133648476D01*
%TO.C,R12*%
X153296857Y-137521904D02*
X153630190Y-137140952D01*
X153868285Y-137521904D02*
X153868285Y-136721904D01*
X153487333Y-136721904D01*
X153392095Y-136760000D01*
X153344476Y-136798095D01*
X153296857Y-136874285D01*
X153296857Y-136988571D01*
X153344476Y-137064761D01*
X153392095Y-137102857D01*
X153487333Y-137140952D01*
X153868285Y-137140952D01*
X152344476Y-137521904D02*
X152915904Y-137521904D01*
X152630190Y-137521904D02*
X152630190Y-136721904D01*
X152725428Y-136836190D01*
X152820666Y-136912380D01*
X152915904Y-136950476D01*
X151963523Y-136798095D02*
X151915904Y-136760000D01*
X151820666Y-136721904D01*
X151582571Y-136721904D01*
X151487333Y-136760000D01*
X151439714Y-136798095D01*
X151392095Y-136874285D01*
X151392095Y-136950476D01*
X151439714Y-137064761D01*
X152011142Y-137521904D01*
X151392095Y-137521904D01*
%TO.C,R23*%
X121011904Y-124198142D02*
X120630952Y-123864809D01*
X121011904Y-123626714D02*
X120211904Y-123626714D01*
X120211904Y-124007666D01*
X120250000Y-124102904D01*
X120288095Y-124150523D01*
X120364285Y-124198142D01*
X120478571Y-124198142D01*
X120554761Y-124150523D01*
X120592857Y-124102904D01*
X120630952Y-124007666D01*
X120630952Y-123626714D01*
X120288095Y-124579095D02*
X120250000Y-124626714D01*
X120211904Y-124721952D01*
X120211904Y-124960047D01*
X120250000Y-125055285D01*
X120288095Y-125102904D01*
X120364285Y-125150523D01*
X120440476Y-125150523D01*
X120554761Y-125102904D01*
X121011904Y-124531476D01*
X121011904Y-125150523D01*
X120211904Y-125483857D02*
X120211904Y-126102904D01*
X120516666Y-125769571D01*
X120516666Y-125912428D01*
X120554761Y-126007666D01*
X120592857Y-126055285D01*
X120669047Y-126102904D01*
X120859523Y-126102904D01*
X120935714Y-126055285D01*
X120973809Y-126007666D01*
X121011904Y-125912428D01*
X121011904Y-125626714D01*
X120973809Y-125531476D01*
X120935714Y-125483857D01*
%TO.C,R24*%
X117900404Y-124325142D02*
X117519452Y-123991809D01*
X117900404Y-123753714D02*
X117100404Y-123753714D01*
X117100404Y-124134666D01*
X117138500Y-124229904D01*
X117176595Y-124277523D01*
X117252785Y-124325142D01*
X117367071Y-124325142D01*
X117443261Y-124277523D01*
X117481357Y-124229904D01*
X117519452Y-124134666D01*
X117519452Y-123753714D01*
X117176595Y-124706095D02*
X117138500Y-124753714D01*
X117100404Y-124848952D01*
X117100404Y-125087047D01*
X117138500Y-125182285D01*
X117176595Y-125229904D01*
X117252785Y-125277523D01*
X117328976Y-125277523D01*
X117443261Y-125229904D01*
X117900404Y-124658476D01*
X117900404Y-125277523D01*
X117367071Y-126134666D02*
X117900404Y-126134666D01*
X117062309Y-125896571D02*
X117633738Y-125658476D01*
X117633738Y-126277523D01*
%TO.C,C20*%
X167163714Y-126865142D02*
X167201809Y-126817523D01*
X167239904Y-126674666D01*
X167239904Y-126579428D01*
X167201809Y-126436571D01*
X167125619Y-126341333D01*
X167049428Y-126293714D01*
X166897047Y-126246095D01*
X166782761Y-126246095D01*
X166630380Y-126293714D01*
X166554190Y-126341333D01*
X166478000Y-126436571D01*
X166439904Y-126579428D01*
X166439904Y-126674666D01*
X166478000Y-126817523D01*
X166516095Y-126865142D01*
X166516095Y-127246095D02*
X166478000Y-127293714D01*
X166439904Y-127388952D01*
X166439904Y-127627047D01*
X166478000Y-127722285D01*
X166516095Y-127769904D01*
X166592285Y-127817523D01*
X166668476Y-127817523D01*
X166782761Y-127769904D01*
X167239904Y-127198476D01*
X167239904Y-127817523D01*
X166439904Y-128436571D02*
X166439904Y-128531809D01*
X166478000Y-128627047D01*
X166516095Y-128674666D01*
X166592285Y-128722285D01*
X166744666Y-128769904D01*
X166935142Y-128769904D01*
X167087523Y-128722285D01*
X167163714Y-128674666D01*
X167201809Y-128627047D01*
X167239904Y-128531809D01*
X167239904Y-128436571D01*
X167201809Y-128341333D01*
X167163714Y-128293714D01*
X167087523Y-128246095D01*
X166935142Y-128198476D01*
X166744666Y-128198476D01*
X166592285Y-128246095D01*
X166516095Y-128293714D01*
X166478000Y-128341333D01*
X166439904Y-128436571D01*
D12*
%TO.C,JP2*%
X121626380Y-131500666D02*
X122340666Y-131500666D01*
X122483523Y-131453047D01*
X122578761Y-131357809D01*
X122626380Y-131214952D01*
X122626380Y-131119714D01*
X122626380Y-131976857D02*
X121626380Y-131976857D01*
X121626380Y-132357809D01*
X121674000Y-132453047D01*
X121721619Y-132500666D01*
X121816857Y-132548285D01*
X121959714Y-132548285D01*
X122054952Y-132500666D01*
X122102571Y-132453047D01*
X122150190Y-132357809D01*
X122150190Y-131976857D01*
X121721619Y-132929238D02*
X121674000Y-132976857D01*
X121626380Y-133072095D01*
X121626380Y-133310190D01*
X121674000Y-133405428D01*
X121721619Y-133453047D01*
X121816857Y-133500666D01*
X121912095Y-133500666D01*
X122054952Y-133453047D01*
X122626380Y-132881619D01*
X122626380Y-133500666D01*
%TO.C,JP3*%
X118578380Y-131500666D02*
X119292666Y-131500666D01*
X119435523Y-131453047D01*
X119530761Y-131357809D01*
X119578380Y-131214952D01*
X119578380Y-131119714D01*
X119578380Y-131976857D02*
X118578380Y-131976857D01*
X118578380Y-132357809D01*
X118626000Y-132453047D01*
X118673619Y-132500666D01*
X118768857Y-132548285D01*
X118911714Y-132548285D01*
X119006952Y-132500666D01*
X119054571Y-132453047D01*
X119102190Y-132357809D01*
X119102190Y-131976857D01*
X118578380Y-132881619D02*
X118578380Y-133500666D01*
X118959333Y-133167333D01*
X118959333Y-133310190D01*
X119006952Y-133405428D01*
X119054571Y-133453047D01*
X119149809Y-133500666D01*
X119387904Y-133500666D01*
X119483142Y-133453047D01*
X119530761Y-133405428D01*
X119578380Y-133310190D01*
X119578380Y-133024476D01*
X119530761Y-132929238D01*
X119483142Y-132881619D01*
D11*
%TO.C,R22*%
X126980904Y-124325142D02*
X126599952Y-123991809D01*
X126980904Y-123753714D02*
X126180904Y-123753714D01*
X126180904Y-124134666D01*
X126219000Y-124229904D01*
X126257095Y-124277523D01*
X126333285Y-124325142D01*
X126447571Y-124325142D01*
X126523761Y-124277523D01*
X126561857Y-124229904D01*
X126599952Y-124134666D01*
X126599952Y-123753714D01*
X126257095Y-124706095D02*
X126219000Y-124753714D01*
X126180904Y-124848952D01*
X126180904Y-125087047D01*
X126219000Y-125182285D01*
X126257095Y-125229904D01*
X126333285Y-125277523D01*
X126409476Y-125277523D01*
X126523761Y-125229904D01*
X126980904Y-124658476D01*
X126980904Y-125277523D01*
X126257095Y-125658476D02*
X126219000Y-125706095D01*
X126180904Y-125801333D01*
X126180904Y-126039428D01*
X126219000Y-126134666D01*
X126257095Y-126182285D01*
X126333285Y-126229904D01*
X126409476Y-126229904D01*
X126523761Y-126182285D01*
X126980904Y-125610857D01*
X126980904Y-126229904D01*
D12*
%TO.C,JP1*%
X124547380Y-131500666D02*
X125261666Y-131500666D01*
X125404523Y-131453047D01*
X125499761Y-131357809D01*
X125547380Y-131214952D01*
X125547380Y-131119714D01*
X125547380Y-131976857D02*
X124547380Y-131976857D01*
X124547380Y-132357809D01*
X124595000Y-132453047D01*
X124642619Y-132500666D01*
X124737857Y-132548285D01*
X124880714Y-132548285D01*
X124975952Y-132500666D01*
X125023571Y-132453047D01*
X125071190Y-132357809D01*
X125071190Y-131976857D01*
X125547380Y-133500666D02*
X125547380Y-132929238D01*
X125547380Y-133214952D02*
X124547380Y-133214952D01*
X124690238Y-133119714D01*
X124785476Y-133024476D01*
X124833095Y-132929238D01*
%TO.C,U34*%
X123539095Y-112863380D02*
X123539095Y-113672904D01*
X123491476Y-113768142D01*
X123443857Y-113815761D01*
X123348619Y-113863380D01*
X123158142Y-113863380D01*
X123062904Y-113815761D01*
X123015285Y-113768142D01*
X122967666Y-113672904D01*
X122967666Y-112863380D01*
X122586714Y-112863380D02*
X121967666Y-112863380D01*
X122301000Y-113244333D01*
X122158142Y-113244333D01*
X122062904Y-113291952D01*
X122015285Y-113339571D01*
X121967666Y-113434809D01*
X121967666Y-113672904D01*
X122015285Y-113768142D01*
X122062904Y-113815761D01*
X122158142Y-113863380D01*
X122443857Y-113863380D01*
X122539095Y-113815761D01*
X122586714Y-113768142D01*
X121110523Y-113196714D02*
X121110523Y-113863380D01*
X121348619Y-112815761D02*
X121586714Y-113530047D01*
X120967666Y-113530047D01*
D11*
%TO.C,C21*%
X163607714Y-151249142D02*
X163645809Y-151201523D01*
X163683904Y-151058666D01*
X163683904Y-150963428D01*
X163645809Y-150820571D01*
X163569619Y-150725333D01*
X163493428Y-150677714D01*
X163341047Y-150630095D01*
X163226761Y-150630095D01*
X163074380Y-150677714D01*
X162998190Y-150725333D01*
X162922000Y-150820571D01*
X162883904Y-150963428D01*
X162883904Y-151058666D01*
X162922000Y-151201523D01*
X162960095Y-151249142D01*
X162960095Y-151630095D02*
X162922000Y-151677714D01*
X162883904Y-151772952D01*
X162883904Y-152011047D01*
X162922000Y-152106285D01*
X162960095Y-152153904D01*
X163036285Y-152201523D01*
X163112476Y-152201523D01*
X163226761Y-152153904D01*
X163683904Y-151582476D01*
X163683904Y-152201523D01*
X163683904Y-153153904D02*
X163683904Y-152582476D01*
X163683904Y-152868190D02*
X162883904Y-152868190D01*
X162998190Y-152772952D01*
X163074380Y-152677714D01*
X163112476Y-152582476D01*
D12*
%TO.C,U35*%
X190732380Y-138461904D02*
X191541904Y-138461904D01*
X191637142Y-138509523D01*
X191684761Y-138557142D01*
X191732380Y-138652380D01*
X191732380Y-138842857D01*
X191684761Y-138938095D01*
X191637142Y-138985714D01*
X191541904Y-139033333D01*
X190732380Y-139033333D01*
X190732380Y-139414285D02*
X190732380Y-140033333D01*
X191113333Y-139700000D01*
X191113333Y-139842857D01*
X191160952Y-139938095D01*
X191208571Y-139985714D01*
X191303809Y-140033333D01*
X191541904Y-140033333D01*
X191637142Y-139985714D01*
X191684761Y-139938095D01*
X191732380Y-139842857D01*
X191732380Y-139557142D01*
X191684761Y-139461904D01*
X191637142Y-139414285D01*
X190732380Y-140938095D02*
X190732380Y-140461904D01*
X191208571Y-140414285D01*
X191160952Y-140461904D01*
X191113333Y-140557142D01*
X191113333Y-140795238D01*
X191160952Y-140890476D01*
X191208571Y-140938095D01*
X191303809Y-140985714D01*
X191541904Y-140985714D01*
X191637142Y-140938095D01*
X191684761Y-140890476D01*
X191732380Y-140795238D01*
X191732380Y-140557142D01*
X191684761Y-140461904D01*
X191637142Y-140414285D01*
%TO.C,U36*%
X209990000Y-192507500D02*
X202565000Y-192507500D01*
X202565000Y-206832500D02*
X202565000Y-206825000D01*
X202565000Y-192582500D02*
X202565000Y-192590000D01*
X208915000Y-206832500D02*
X208915000Y-206825000D01*
X208915000Y-206832500D02*
X202565000Y-206832500D01*
%TO.C,U37*%
X209042000Y-174828500D02*
X209042000Y-174821000D01*
X202692000Y-174828500D02*
X202692000Y-174821000D01*
X210117000Y-160503500D02*
X202692000Y-160503500D01*
X209042000Y-174828500D02*
X202692000Y-174828500D01*
X202692000Y-160578500D02*
X202692000Y-160586000D01*
D13*
%TO.C,C9*%
X205859748Y-157761000D02*
X206382252Y-157761000D01*
X205859748Y-159231000D02*
X206382252Y-159231000D01*
%TO.C,C10*%
X206475000Y-189999252D02*
X206475000Y-189476748D01*
X205005000Y-189999252D02*
X205005000Y-189476748D01*
%TO.C,C22*%
X163476000Y-132087252D02*
X163476000Y-131564748D01*
X164946000Y-132087252D02*
X164946000Y-131564748D01*
%TO.C,C23*%
X166851000Y-148074748D02*
X166851000Y-148597252D01*
X165381000Y-148074748D02*
X165381000Y-148597252D01*
%TO.C,D2*%
X163490000Y-121015000D02*
X159640000Y-121015000D01*
X163490000Y-119015000D02*
X163490000Y-121015000D01*
X163490000Y-119015000D02*
X159640000Y-119015000D01*
%TO.C,R11*%
X157707000Y-133596748D02*
X157707000Y-134119252D01*
X156237000Y-133596748D02*
X156237000Y-134119252D01*
%TO.C,R12*%
X156217252Y-137895000D02*
X155694748Y-137895000D01*
X156217252Y-136425000D02*
X155694748Y-136425000D01*
%TO.C,R23*%
X122909000Y-125195064D02*
X122909000Y-124740936D01*
X121439000Y-125195064D02*
X121439000Y-124740936D01*
%TO.C,R24*%
X118391000Y-125195064D02*
X118391000Y-124740936D01*
X119861000Y-125195064D02*
X119861000Y-124740936D01*
%TO.C,C20*%
X167613000Y-132087252D02*
X167613000Y-131564748D01*
X166143000Y-132087252D02*
X166143000Y-131564748D01*
%TO.C,JP2*%
X123174000Y-129986000D02*
X123174000Y-128586000D01*
X122474000Y-127886000D02*
X121874000Y-127886000D01*
X121174000Y-128586000D02*
X121174000Y-129986000D01*
X121874000Y-130686000D02*
X122474000Y-130686000D01*
X123174000Y-128586000D02*
G75*
G03*
X122474000Y-127886000I-699999J1D01*
G01*
X122474000Y-130686000D02*
G75*
G03*
X123174000Y-129986000I1J699999D01*
G01*
X121174000Y-129986000D02*
G75*
G03*
X121874000Y-130686000I699999J-1D01*
G01*
X121874000Y-127886000D02*
G75*
G03*
X121174000Y-128586000I-1J-699999D01*
G01*
%TO.C,JP3*%
X118826000Y-130686000D02*
X119426000Y-130686000D01*
X118126000Y-128586000D02*
X118126000Y-129986000D01*
X119426000Y-127886000D02*
X118826000Y-127886000D01*
X120126000Y-129986000D02*
X120126000Y-128586000D01*
X119426000Y-130686000D02*
G75*
G03*
X120126000Y-129986000I1J699999D01*
G01*
X118126000Y-129986000D02*
G75*
G03*
X118826000Y-130686000I699999J-1D01*
G01*
X120126000Y-128586000D02*
G75*
G03*
X119426000Y-127886000I-699999J1D01*
G01*
X118826000Y-127886000D02*
G75*
G03*
X118126000Y-128586000I-1J-699999D01*
G01*
%TO.C,R22*%
X125703000Y-125195064D02*
X125703000Y-124740936D01*
X124233000Y-125195064D02*
X124233000Y-124740936D01*
%TO.C,JP1*%
X124095000Y-128586000D02*
X124095000Y-129986000D01*
X126095000Y-129986000D02*
X126095000Y-128586000D01*
X124795000Y-130686000D02*
X125395000Y-130686000D01*
X125395000Y-127886000D02*
X124795000Y-127886000D01*
X125395000Y-130686000D02*
G75*
G03*
X126095000Y-129986000I1J699999D01*
G01*
X124795000Y-127886000D02*
G75*
G03*
X124095000Y-128586000I-1J-699999D01*
G01*
X124095000Y-129986000D02*
G75*
G03*
X124795000Y-130686000I699999J-1D01*
G01*
X126095000Y-128586000D02*
G75*
G03*
X125395000Y-127886000I-699999J1D01*
G01*
%TO.C,U34*%
X124974500Y-120148500D02*
X124974500Y-119673500D01*
X124499500Y-114928500D02*
X124974500Y-114928500D01*
X124499500Y-120148500D02*
X124974500Y-120148500D01*
X124974500Y-114928500D02*
X124974500Y-115403500D01*
X119754500Y-114928500D02*
X119754500Y-115403500D01*
X120229500Y-114928500D02*
X119754500Y-114928500D01*
X120229500Y-120148500D02*
X119754500Y-120148500D01*
%TO.C,C21*%
X164057000Y-148074748D02*
X164057000Y-148597252D01*
X162587000Y-148074748D02*
X162587000Y-148597252D01*
%TO.C,U35*%
X190070000Y-138065000D02*
X190070000Y-137590000D01*
X185850000Y-141810000D02*
X186325000Y-141810000D01*
X190070000Y-141335000D02*
X190070000Y-141810000D01*
X190070000Y-137590000D02*
X189595000Y-137590000D01*
X185850000Y-141335000D02*
X185850000Y-141810000D01*
X185850000Y-137590000D02*
X186325000Y-137590000D01*
X185850000Y-138065000D02*
X185850000Y-137590000D01*
%TD*%
M02*
