M48
; DRILL file {KiCad (6.0.5-0)} date Monday, 20 June 2022 at 23:42:28
; FORMAT={-:-/ absolute / inch / decimal}
; #@! TF.CreationDate,2022-06-20T23:42:28+01:00
; #@! TF.GenerationSoftware,Kicad,Pcbnew,(6.0.5-0)
; #@! TF.FileFunction,NonPlated,1,4,NPTH
FMAT,2
INCH
; #@! TA.AperFunction,NonPlated,NPTH,ComponentDrill
T1C0.1102
; #@! TA.AperFunction,NonPlated,NPTH,ComponentDrill
T2C0.1260
%
G90
G05
T1
X3.97Y-6.7175
X3.97Y-7.7425
X5.15Y-6.7175
X5.15Y-7.7425
X6.3325Y-6.7175
X6.3325Y-7.7425
X7.5125Y-6.7175
X7.513Y-7.741
X8.6925Y-6.7175
X8.693Y-7.741
X9.875Y-6.7175
X9.8755Y-7.741
X11.055Y-6.7175
X11.0555Y-7.741
X12.2375Y-6.7175
X12.238Y-7.741
T2
X9.24Y-4.37
X9.24Y-5.8775
X11.9Y-4.37
X11.9Y-5.88
T0
M30
