%TF.GenerationSoftware,KiCad,Pcbnew,(5.1.8-0-10_14)*%
%TF.CreationDate,2021-06-09T19:28:07+01:00*%
%TF.ProjectId,BassStation_Sequencer_MidiInterface,42617373-5374-4617-9469-6f6e5f536571,A*%
%TF.SameCoordinates,Original*%
%TF.FileFunction,Soldermask,Bot*%
%TF.FilePolarity,Negative*%
%FSLAX46Y46*%
G04 Gerber Fmt 4.6, Leading zero omitted, Abs format (unit mm)*
G04 Created by KiCad (PCBNEW (5.1.8-0-10_14)) date 2021-06-09 19:28:07*
%MOMM*%
%LPD*%
G01*
G04 APERTURE LIST*
%ADD10C,1.800000*%
%ADD11C,3.200000*%
%ADD12R,1.800000X1.800000*%
%ADD13C,0.800000*%
%ADD14C,6.400000*%
%ADD15C,2.000000*%
%ADD16O,3.048000X1.850000*%
%ADD17O,1.600000X1.600000*%
%ADD18R,1.600000X1.600000*%
%ADD19R,3.610000X6.350000*%
%ADD20R,1.550000X0.300000*%
%ADD21R,3.100000X3.100000*%
%ADD22C,0.100000*%
%ADD23C,1.700000*%
%ADD24C,2.800000*%
%ADD25R,2.000000X2.000000*%
%ADD26R,2.000000X3.200000*%
%ADD27R,3.500000X3.500000*%
%ADD28C,3.000000*%
%ADD29R,1.100000X1.100000*%
%ADD30C,0.254000*%
G04 APERTURE END LIST*
D10*
%TO.C,J8*%
X235331000Y-120015000D03*
X235331000Y-122555000D03*
D11*
X302260000Y-108458000D03*
X302260000Y-146812000D03*
X234696000Y-146748500D03*
X234696000Y-108458000D03*
D12*
X235331000Y-135255000D03*
D10*
X235331000Y-132715000D03*
X235331000Y-130175000D03*
X235331000Y-127635000D03*
X235331000Y-125095000D03*
%TD*%
%TO.C,U35*%
G36*
G01*
X190272500Y-141075000D02*
X189522500Y-141075000D01*
G75*
G02*
X189460000Y-141012500I0J62500D01*
G01*
X189460000Y-140887500D01*
G75*
G02*
X189522500Y-140825000I62500J0D01*
G01*
X190272500Y-140825000D01*
G75*
G02*
X190335000Y-140887500I0J-62500D01*
G01*
X190335000Y-141012500D01*
G75*
G02*
X190272500Y-141075000I-62500J0D01*
G01*
G37*
G36*
G01*
X190272500Y-140575000D02*
X189522500Y-140575000D01*
G75*
G02*
X189460000Y-140512500I0J62500D01*
G01*
X189460000Y-140387500D01*
G75*
G02*
X189522500Y-140325000I62500J0D01*
G01*
X190272500Y-140325000D01*
G75*
G02*
X190335000Y-140387500I0J-62500D01*
G01*
X190335000Y-140512500D01*
G75*
G02*
X190272500Y-140575000I-62500J0D01*
G01*
G37*
G36*
G01*
X190272500Y-140075000D02*
X189522500Y-140075000D01*
G75*
G02*
X189460000Y-140012500I0J62500D01*
G01*
X189460000Y-139887500D01*
G75*
G02*
X189522500Y-139825000I62500J0D01*
G01*
X190272500Y-139825000D01*
G75*
G02*
X190335000Y-139887500I0J-62500D01*
G01*
X190335000Y-140012500D01*
G75*
G02*
X190272500Y-140075000I-62500J0D01*
G01*
G37*
G36*
G01*
X190272500Y-139575000D02*
X189522500Y-139575000D01*
G75*
G02*
X189460000Y-139512500I0J62500D01*
G01*
X189460000Y-139387500D01*
G75*
G02*
X189522500Y-139325000I62500J0D01*
G01*
X190272500Y-139325000D01*
G75*
G02*
X190335000Y-139387500I0J-62500D01*
G01*
X190335000Y-139512500D01*
G75*
G02*
X190272500Y-139575000I-62500J0D01*
G01*
G37*
G36*
G01*
X190272500Y-139075000D02*
X189522500Y-139075000D01*
G75*
G02*
X189460000Y-139012500I0J62500D01*
G01*
X189460000Y-138887500D01*
G75*
G02*
X189522500Y-138825000I62500J0D01*
G01*
X190272500Y-138825000D01*
G75*
G02*
X190335000Y-138887500I0J-62500D01*
G01*
X190335000Y-139012500D01*
G75*
G02*
X190272500Y-139075000I-62500J0D01*
G01*
G37*
G36*
G01*
X190272500Y-138575000D02*
X189522500Y-138575000D01*
G75*
G02*
X189460000Y-138512500I0J62500D01*
G01*
X189460000Y-138387500D01*
G75*
G02*
X189522500Y-138325000I62500J0D01*
G01*
X190272500Y-138325000D01*
G75*
G02*
X190335000Y-138387500I0J-62500D01*
G01*
X190335000Y-138512500D01*
G75*
G02*
X190272500Y-138575000I-62500J0D01*
G01*
G37*
G36*
G01*
X189272500Y-138200000D02*
X189147500Y-138200000D01*
G75*
G02*
X189085000Y-138137500I0J62500D01*
G01*
X189085000Y-137387500D01*
G75*
G02*
X189147500Y-137325000I62500J0D01*
G01*
X189272500Y-137325000D01*
G75*
G02*
X189335000Y-137387500I0J-62500D01*
G01*
X189335000Y-138137500D01*
G75*
G02*
X189272500Y-138200000I-62500J0D01*
G01*
G37*
G36*
G01*
X188772500Y-138200000D02*
X188647500Y-138200000D01*
G75*
G02*
X188585000Y-138137500I0J62500D01*
G01*
X188585000Y-137387500D01*
G75*
G02*
X188647500Y-137325000I62500J0D01*
G01*
X188772500Y-137325000D01*
G75*
G02*
X188835000Y-137387500I0J-62500D01*
G01*
X188835000Y-138137500D01*
G75*
G02*
X188772500Y-138200000I-62500J0D01*
G01*
G37*
G36*
G01*
X188272500Y-138200000D02*
X188147500Y-138200000D01*
G75*
G02*
X188085000Y-138137500I0J62500D01*
G01*
X188085000Y-137387500D01*
G75*
G02*
X188147500Y-137325000I62500J0D01*
G01*
X188272500Y-137325000D01*
G75*
G02*
X188335000Y-137387500I0J-62500D01*
G01*
X188335000Y-138137500D01*
G75*
G02*
X188272500Y-138200000I-62500J0D01*
G01*
G37*
G36*
G01*
X187772500Y-138200000D02*
X187647500Y-138200000D01*
G75*
G02*
X187585000Y-138137500I0J62500D01*
G01*
X187585000Y-137387500D01*
G75*
G02*
X187647500Y-137325000I62500J0D01*
G01*
X187772500Y-137325000D01*
G75*
G02*
X187835000Y-137387500I0J-62500D01*
G01*
X187835000Y-138137500D01*
G75*
G02*
X187772500Y-138200000I-62500J0D01*
G01*
G37*
G36*
G01*
X187272500Y-138200000D02*
X187147500Y-138200000D01*
G75*
G02*
X187085000Y-138137500I0J62500D01*
G01*
X187085000Y-137387500D01*
G75*
G02*
X187147500Y-137325000I62500J0D01*
G01*
X187272500Y-137325000D01*
G75*
G02*
X187335000Y-137387500I0J-62500D01*
G01*
X187335000Y-138137500D01*
G75*
G02*
X187272500Y-138200000I-62500J0D01*
G01*
G37*
G36*
G01*
X186772500Y-138200000D02*
X186647500Y-138200000D01*
G75*
G02*
X186585000Y-138137500I0J62500D01*
G01*
X186585000Y-137387500D01*
G75*
G02*
X186647500Y-137325000I62500J0D01*
G01*
X186772500Y-137325000D01*
G75*
G02*
X186835000Y-137387500I0J-62500D01*
G01*
X186835000Y-138137500D01*
G75*
G02*
X186772500Y-138200000I-62500J0D01*
G01*
G37*
G36*
G01*
X186397500Y-138575000D02*
X185647500Y-138575000D01*
G75*
G02*
X185585000Y-138512500I0J62500D01*
G01*
X185585000Y-138387500D01*
G75*
G02*
X185647500Y-138325000I62500J0D01*
G01*
X186397500Y-138325000D01*
G75*
G02*
X186460000Y-138387500I0J-62500D01*
G01*
X186460000Y-138512500D01*
G75*
G02*
X186397500Y-138575000I-62500J0D01*
G01*
G37*
G36*
G01*
X186397500Y-139075000D02*
X185647500Y-139075000D01*
G75*
G02*
X185585000Y-139012500I0J62500D01*
G01*
X185585000Y-138887500D01*
G75*
G02*
X185647500Y-138825000I62500J0D01*
G01*
X186397500Y-138825000D01*
G75*
G02*
X186460000Y-138887500I0J-62500D01*
G01*
X186460000Y-139012500D01*
G75*
G02*
X186397500Y-139075000I-62500J0D01*
G01*
G37*
G36*
G01*
X186397500Y-139575000D02*
X185647500Y-139575000D01*
G75*
G02*
X185585000Y-139512500I0J62500D01*
G01*
X185585000Y-139387500D01*
G75*
G02*
X185647500Y-139325000I62500J0D01*
G01*
X186397500Y-139325000D01*
G75*
G02*
X186460000Y-139387500I0J-62500D01*
G01*
X186460000Y-139512500D01*
G75*
G02*
X186397500Y-139575000I-62500J0D01*
G01*
G37*
G36*
G01*
X186397500Y-140075000D02*
X185647500Y-140075000D01*
G75*
G02*
X185585000Y-140012500I0J62500D01*
G01*
X185585000Y-139887500D01*
G75*
G02*
X185647500Y-139825000I62500J0D01*
G01*
X186397500Y-139825000D01*
G75*
G02*
X186460000Y-139887500I0J-62500D01*
G01*
X186460000Y-140012500D01*
G75*
G02*
X186397500Y-140075000I-62500J0D01*
G01*
G37*
G36*
G01*
X186397500Y-140575000D02*
X185647500Y-140575000D01*
G75*
G02*
X185585000Y-140512500I0J62500D01*
G01*
X185585000Y-140387500D01*
G75*
G02*
X185647500Y-140325000I62500J0D01*
G01*
X186397500Y-140325000D01*
G75*
G02*
X186460000Y-140387500I0J-62500D01*
G01*
X186460000Y-140512500D01*
G75*
G02*
X186397500Y-140575000I-62500J0D01*
G01*
G37*
G36*
G01*
X186397500Y-141075000D02*
X185647500Y-141075000D01*
G75*
G02*
X185585000Y-141012500I0J62500D01*
G01*
X185585000Y-140887500D01*
G75*
G02*
X185647500Y-140825000I62500J0D01*
G01*
X186397500Y-140825000D01*
G75*
G02*
X186460000Y-140887500I0J-62500D01*
G01*
X186460000Y-141012500D01*
G75*
G02*
X186397500Y-141075000I-62500J0D01*
G01*
G37*
G36*
G01*
X186772500Y-142075000D02*
X186647500Y-142075000D01*
G75*
G02*
X186585000Y-142012500I0J62500D01*
G01*
X186585000Y-141262500D01*
G75*
G02*
X186647500Y-141200000I62500J0D01*
G01*
X186772500Y-141200000D01*
G75*
G02*
X186835000Y-141262500I0J-62500D01*
G01*
X186835000Y-142012500D01*
G75*
G02*
X186772500Y-142075000I-62500J0D01*
G01*
G37*
G36*
G01*
X187272500Y-142075000D02*
X187147500Y-142075000D01*
G75*
G02*
X187085000Y-142012500I0J62500D01*
G01*
X187085000Y-141262500D01*
G75*
G02*
X187147500Y-141200000I62500J0D01*
G01*
X187272500Y-141200000D01*
G75*
G02*
X187335000Y-141262500I0J-62500D01*
G01*
X187335000Y-142012500D01*
G75*
G02*
X187272500Y-142075000I-62500J0D01*
G01*
G37*
G36*
G01*
X187772500Y-142075000D02*
X187647500Y-142075000D01*
G75*
G02*
X187585000Y-142012500I0J62500D01*
G01*
X187585000Y-141262500D01*
G75*
G02*
X187647500Y-141200000I62500J0D01*
G01*
X187772500Y-141200000D01*
G75*
G02*
X187835000Y-141262500I0J-62500D01*
G01*
X187835000Y-142012500D01*
G75*
G02*
X187772500Y-142075000I-62500J0D01*
G01*
G37*
G36*
G01*
X188272500Y-142075000D02*
X188147500Y-142075000D01*
G75*
G02*
X188085000Y-142012500I0J62500D01*
G01*
X188085000Y-141262500D01*
G75*
G02*
X188147500Y-141200000I62500J0D01*
G01*
X188272500Y-141200000D01*
G75*
G02*
X188335000Y-141262500I0J-62500D01*
G01*
X188335000Y-142012500D01*
G75*
G02*
X188272500Y-142075000I-62500J0D01*
G01*
G37*
G36*
G01*
X188772500Y-142075000D02*
X188647500Y-142075000D01*
G75*
G02*
X188585000Y-142012500I0J62500D01*
G01*
X188585000Y-141262500D01*
G75*
G02*
X188647500Y-141200000I62500J0D01*
G01*
X188772500Y-141200000D01*
G75*
G02*
X188835000Y-141262500I0J-62500D01*
G01*
X188835000Y-142012500D01*
G75*
G02*
X188772500Y-142075000I-62500J0D01*
G01*
G37*
G36*
G01*
X189272500Y-142075000D02*
X189147500Y-142075000D01*
G75*
G02*
X189085000Y-142012500I0J62500D01*
G01*
X189085000Y-141262500D01*
G75*
G02*
X189147500Y-141200000I62500J0D01*
G01*
X189272500Y-141200000D01*
G75*
G02*
X189335000Y-141262500I0J-62500D01*
G01*
X189335000Y-142012500D01*
G75*
G02*
X189272500Y-142075000I-62500J0D01*
G01*
G37*
G36*
G01*
X188860000Y-140850000D02*
X187060000Y-140850000D01*
G75*
G02*
X186810000Y-140600000I0J250000D01*
G01*
X186810000Y-138800000D01*
G75*
G02*
X187060000Y-138550000I250000J0D01*
G01*
X188860000Y-138550000D01*
G75*
G02*
X189110000Y-138800000I0J-250000D01*
G01*
X189110000Y-140600000D01*
G75*
G02*
X188860000Y-140850000I-250000J0D01*
G01*
G37*
%TD*%
D13*
%TO.C,REF\u002A\u002A*%
X327452056Y-159592944D03*
X325755000Y-158890000D03*
X324057944Y-159592944D03*
X323355000Y-161290000D03*
X324057944Y-162987056D03*
X325755000Y-163690000D03*
X327452056Y-162987056D03*
X328155000Y-161290000D03*
D14*
X325755000Y-161290000D03*
%TD*%
D13*
%TO.C,REF\u002A\u002A*%
X88057056Y-159592944D03*
X86360000Y-158890000D03*
X84662944Y-159592944D03*
X83960000Y-161290000D03*
X84662944Y-162987056D03*
X86360000Y-163690000D03*
X88057056Y-162987056D03*
X88760000Y-161290000D03*
D14*
X86360000Y-161290000D03*
%TD*%
D15*
%TO.C,SW3*%
X96012000Y-119380000D03*
X101092000Y-119380000D03*
X98552000Y-119380000D03*
%TD*%
D13*
%TO.C,REF\u002A\u002A*%
X207945056Y-148416944D03*
X206248000Y-147714000D03*
X204550944Y-148416944D03*
X203848000Y-150114000D03*
X204550944Y-151811056D03*
X206248000Y-152514000D03*
X207945056Y-151811056D03*
X208648000Y-150114000D03*
D14*
X206248000Y-150114000D03*
%TD*%
%TO.C,REF\u002A\u002A*%
X205740000Y-212725000D03*
D13*
X208140000Y-212725000D03*
X207437056Y-214422056D03*
X205740000Y-215125000D03*
X204042944Y-214422056D03*
X203340000Y-212725000D03*
X204042944Y-211027944D03*
X205740000Y-210325000D03*
X207437056Y-211027944D03*
%TD*%
D14*
%TO.C,REF\u002A\u002A*%
X86360000Y-100330000D03*
D13*
X88760000Y-100330000D03*
X88057056Y-102027056D03*
X86360000Y-102730000D03*
X84662944Y-102027056D03*
X83960000Y-100330000D03*
X84662944Y-98632944D03*
X86360000Y-97930000D03*
X88057056Y-98632944D03*
%TD*%
D14*
%TO.C,REF\u002A\u002A*%
X205740000Y-100330000D03*
D13*
X208140000Y-100330000D03*
X207437056Y-102027056D03*
X205740000Y-102730000D03*
X204042944Y-102027056D03*
X203340000Y-100330000D03*
X204042944Y-98632944D03*
X205740000Y-97930000D03*
X207437056Y-98632944D03*
%TD*%
D14*
%TO.C,REF\u002A\u002A*%
X86360000Y-212725000D03*
D13*
X88760000Y-212725000D03*
X88057056Y-214422056D03*
X86360000Y-215125000D03*
X84662944Y-214422056D03*
X83960000Y-212725000D03*
X84662944Y-211027944D03*
X86360000Y-210325000D03*
X88057056Y-211027944D03*
%TD*%
%TO.C,REF\u002A\u002A*%
X327452056Y-211027944D03*
X325755000Y-210325000D03*
X324057944Y-211027944D03*
X323355000Y-212725000D03*
X324057944Y-214422056D03*
X325755000Y-215125000D03*
X327452056Y-214422056D03*
X328155000Y-212725000D03*
D14*
X325755000Y-212725000D03*
%TD*%
D13*
%TO.C,REF\u002A\u002A*%
X327452056Y-98632944D03*
X325755000Y-97930000D03*
X324057944Y-98632944D03*
X323355000Y-100330000D03*
X324057944Y-102027056D03*
X325755000Y-102730000D03*
X327452056Y-102027056D03*
X328155000Y-100330000D03*
D14*
X325755000Y-100330000D03*
%TD*%
D16*
%TO.C,SW5*%
X212725000Y-142795000D03*
X212725000Y-137795000D03*
X225225000Y-142795000D03*
X225225000Y-137795000D03*
%TD*%
D17*
%TO.C,SW4*%
X198628000Y-112268000D03*
X206248000Y-119888000D03*
X201168000Y-112268000D03*
X203708000Y-119888000D03*
X203708000Y-112268000D03*
X201168000Y-119888000D03*
X206248000Y-112268000D03*
D18*
X198628000Y-119888000D03*
%TD*%
D15*
%TO.C,SW2*%
X216535000Y-116078000D03*
X221615000Y-116078000D03*
X219075000Y-116078000D03*
%TD*%
D16*
%TO.C,SW7*%
X325120000Y-137875000D03*
X325120000Y-142875000D03*
X312620000Y-137875000D03*
X312620000Y-142875000D03*
%TD*%
D19*
%TO.C,U37*%
X205867000Y-167703500D03*
D20*
X202117000Y-160953500D03*
X202117000Y-161453500D03*
X202117000Y-161953500D03*
X202117000Y-162453500D03*
X202117000Y-162953500D03*
X202117000Y-163453500D03*
X202117000Y-163953500D03*
X202117000Y-164453500D03*
X202117000Y-164953500D03*
X202117000Y-165453500D03*
X202117000Y-165953500D03*
X202117000Y-166453500D03*
X202117000Y-166953500D03*
X202117000Y-167453500D03*
X202117000Y-167953500D03*
X202117000Y-168453500D03*
X202117000Y-168953500D03*
X202117000Y-169453500D03*
X202117000Y-169953500D03*
X202117000Y-170453500D03*
X202117000Y-170953500D03*
X202117000Y-171453500D03*
X202117000Y-171953500D03*
X202117000Y-172453500D03*
X202117000Y-172953500D03*
X202117000Y-173453500D03*
X202117000Y-173953500D03*
X202117000Y-174453500D03*
X209617000Y-174453500D03*
X209617000Y-173953500D03*
X209617000Y-173453500D03*
X209617000Y-172953500D03*
X209617000Y-172453500D03*
X209617000Y-171953500D03*
X209617000Y-171453500D03*
X209617000Y-170953500D03*
X209617000Y-170453500D03*
X209617000Y-169953500D03*
X209617000Y-169453500D03*
X209617000Y-168953500D03*
X209617000Y-168453500D03*
X209617000Y-167953500D03*
X209617000Y-167453500D03*
X209617000Y-166953500D03*
X209617000Y-166453500D03*
X209617000Y-165953500D03*
X209617000Y-165453500D03*
X209617000Y-164953500D03*
X209617000Y-164453500D03*
X209617000Y-163953500D03*
X209617000Y-163453500D03*
X209617000Y-162953500D03*
X209617000Y-162453500D03*
X209617000Y-161953500D03*
X209617000Y-161453500D03*
X209617000Y-160953500D03*
%TD*%
D21*
%TO.C,U34*%
X122364500Y-117538500D03*
G36*
G01*
X120489500Y-120351000D02*
X120489500Y-119601000D01*
G75*
G02*
X120552000Y-119538500I62500J0D01*
G01*
X120677000Y-119538500D01*
G75*
G02*
X120739500Y-119601000I0J-62500D01*
G01*
X120739500Y-120351000D01*
G75*
G02*
X120677000Y-120413500I-62500J0D01*
G01*
X120552000Y-120413500D01*
G75*
G02*
X120489500Y-120351000I0J62500D01*
G01*
G37*
G36*
G01*
X120989500Y-120351000D02*
X120989500Y-119601000D01*
G75*
G02*
X121052000Y-119538500I62500J0D01*
G01*
X121177000Y-119538500D01*
G75*
G02*
X121239500Y-119601000I0J-62500D01*
G01*
X121239500Y-120351000D01*
G75*
G02*
X121177000Y-120413500I-62500J0D01*
G01*
X121052000Y-120413500D01*
G75*
G02*
X120989500Y-120351000I0J62500D01*
G01*
G37*
G36*
G01*
X121489500Y-120351000D02*
X121489500Y-119601000D01*
G75*
G02*
X121552000Y-119538500I62500J0D01*
G01*
X121677000Y-119538500D01*
G75*
G02*
X121739500Y-119601000I0J-62500D01*
G01*
X121739500Y-120351000D01*
G75*
G02*
X121677000Y-120413500I-62500J0D01*
G01*
X121552000Y-120413500D01*
G75*
G02*
X121489500Y-120351000I0J62500D01*
G01*
G37*
G36*
G01*
X121989500Y-120351000D02*
X121989500Y-119601000D01*
G75*
G02*
X122052000Y-119538500I62500J0D01*
G01*
X122177000Y-119538500D01*
G75*
G02*
X122239500Y-119601000I0J-62500D01*
G01*
X122239500Y-120351000D01*
G75*
G02*
X122177000Y-120413500I-62500J0D01*
G01*
X122052000Y-120413500D01*
G75*
G02*
X121989500Y-120351000I0J62500D01*
G01*
G37*
G36*
G01*
X122489500Y-120351000D02*
X122489500Y-119601000D01*
G75*
G02*
X122552000Y-119538500I62500J0D01*
G01*
X122677000Y-119538500D01*
G75*
G02*
X122739500Y-119601000I0J-62500D01*
G01*
X122739500Y-120351000D01*
G75*
G02*
X122677000Y-120413500I-62500J0D01*
G01*
X122552000Y-120413500D01*
G75*
G02*
X122489500Y-120351000I0J62500D01*
G01*
G37*
G36*
G01*
X122989500Y-120351000D02*
X122989500Y-119601000D01*
G75*
G02*
X123052000Y-119538500I62500J0D01*
G01*
X123177000Y-119538500D01*
G75*
G02*
X123239500Y-119601000I0J-62500D01*
G01*
X123239500Y-120351000D01*
G75*
G02*
X123177000Y-120413500I-62500J0D01*
G01*
X123052000Y-120413500D01*
G75*
G02*
X122989500Y-120351000I0J62500D01*
G01*
G37*
G36*
G01*
X123489500Y-120351000D02*
X123489500Y-119601000D01*
G75*
G02*
X123552000Y-119538500I62500J0D01*
G01*
X123677000Y-119538500D01*
G75*
G02*
X123739500Y-119601000I0J-62500D01*
G01*
X123739500Y-120351000D01*
G75*
G02*
X123677000Y-120413500I-62500J0D01*
G01*
X123552000Y-120413500D01*
G75*
G02*
X123489500Y-120351000I0J62500D01*
G01*
G37*
G36*
G01*
X123989500Y-120351000D02*
X123989500Y-119601000D01*
G75*
G02*
X124052000Y-119538500I62500J0D01*
G01*
X124177000Y-119538500D01*
G75*
G02*
X124239500Y-119601000I0J-62500D01*
G01*
X124239500Y-120351000D01*
G75*
G02*
X124177000Y-120413500I-62500J0D01*
G01*
X124052000Y-120413500D01*
G75*
G02*
X123989500Y-120351000I0J62500D01*
G01*
G37*
G36*
G01*
X124364500Y-119351000D02*
X124364500Y-119226000D01*
G75*
G02*
X124427000Y-119163500I62500J0D01*
G01*
X125177000Y-119163500D01*
G75*
G02*
X125239500Y-119226000I0J-62500D01*
G01*
X125239500Y-119351000D01*
G75*
G02*
X125177000Y-119413500I-62500J0D01*
G01*
X124427000Y-119413500D01*
G75*
G02*
X124364500Y-119351000I0J62500D01*
G01*
G37*
G36*
G01*
X124364500Y-118851000D02*
X124364500Y-118726000D01*
G75*
G02*
X124427000Y-118663500I62500J0D01*
G01*
X125177000Y-118663500D01*
G75*
G02*
X125239500Y-118726000I0J-62500D01*
G01*
X125239500Y-118851000D01*
G75*
G02*
X125177000Y-118913500I-62500J0D01*
G01*
X124427000Y-118913500D01*
G75*
G02*
X124364500Y-118851000I0J62500D01*
G01*
G37*
G36*
G01*
X124364500Y-118351000D02*
X124364500Y-118226000D01*
G75*
G02*
X124427000Y-118163500I62500J0D01*
G01*
X125177000Y-118163500D01*
G75*
G02*
X125239500Y-118226000I0J-62500D01*
G01*
X125239500Y-118351000D01*
G75*
G02*
X125177000Y-118413500I-62500J0D01*
G01*
X124427000Y-118413500D01*
G75*
G02*
X124364500Y-118351000I0J62500D01*
G01*
G37*
G36*
G01*
X124364500Y-117851000D02*
X124364500Y-117726000D01*
G75*
G02*
X124427000Y-117663500I62500J0D01*
G01*
X125177000Y-117663500D01*
G75*
G02*
X125239500Y-117726000I0J-62500D01*
G01*
X125239500Y-117851000D01*
G75*
G02*
X125177000Y-117913500I-62500J0D01*
G01*
X124427000Y-117913500D01*
G75*
G02*
X124364500Y-117851000I0J62500D01*
G01*
G37*
G36*
G01*
X124364500Y-117351000D02*
X124364500Y-117226000D01*
G75*
G02*
X124427000Y-117163500I62500J0D01*
G01*
X125177000Y-117163500D01*
G75*
G02*
X125239500Y-117226000I0J-62500D01*
G01*
X125239500Y-117351000D01*
G75*
G02*
X125177000Y-117413500I-62500J0D01*
G01*
X124427000Y-117413500D01*
G75*
G02*
X124364500Y-117351000I0J62500D01*
G01*
G37*
G36*
G01*
X124364500Y-116851000D02*
X124364500Y-116726000D01*
G75*
G02*
X124427000Y-116663500I62500J0D01*
G01*
X125177000Y-116663500D01*
G75*
G02*
X125239500Y-116726000I0J-62500D01*
G01*
X125239500Y-116851000D01*
G75*
G02*
X125177000Y-116913500I-62500J0D01*
G01*
X124427000Y-116913500D01*
G75*
G02*
X124364500Y-116851000I0J62500D01*
G01*
G37*
G36*
G01*
X124364500Y-116351000D02*
X124364500Y-116226000D01*
G75*
G02*
X124427000Y-116163500I62500J0D01*
G01*
X125177000Y-116163500D01*
G75*
G02*
X125239500Y-116226000I0J-62500D01*
G01*
X125239500Y-116351000D01*
G75*
G02*
X125177000Y-116413500I-62500J0D01*
G01*
X124427000Y-116413500D01*
G75*
G02*
X124364500Y-116351000I0J62500D01*
G01*
G37*
G36*
G01*
X124364500Y-115851000D02*
X124364500Y-115726000D01*
G75*
G02*
X124427000Y-115663500I62500J0D01*
G01*
X125177000Y-115663500D01*
G75*
G02*
X125239500Y-115726000I0J-62500D01*
G01*
X125239500Y-115851000D01*
G75*
G02*
X125177000Y-115913500I-62500J0D01*
G01*
X124427000Y-115913500D01*
G75*
G02*
X124364500Y-115851000I0J62500D01*
G01*
G37*
G36*
G01*
X123989500Y-115476000D02*
X123989500Y-114726000D01*
G75*
G02*
X124052000Y-114663500I62500J0D01*
G01*
X124177000Y-114663500D01*
G75*
G02*
X124239500Y-114726000I0J-62500D01*
G01*
X124239500Y-115476000D01*
G75*
G02*
X124177000Y-115538500I-62500J0D01*
G01*
X124052000Y-115538500D01*
G75*
G02*
X123989500Y-115476000I0J62500D01*
G01*
G37*
G36*
G01*
X123489500Y-115476000D02*
X123489500Y-114726000D01*
G75*
G02*
X123552000Y-114663500I62500J0D01*
G01*
X123677000Y-114663500D01*
G75*
G02*
X123739500Y-114726000I0J-62500D01*
G01*
X123739500Y-115476000D01*
G75*
G02*
X123677000Y-115538500I-62500J0D01*
G01*
X123552000Y-115538500D01*
G75*
G02*
X123489500Y-115476000I0J62500D01*
G01*
G37*
G36*
G01*
X122989500Y-115476000D02*
X122989500Y-114726000D01*
G75*
G02*
X123052000Y-114663500I62500J0D01*
G01*
X123177000Y-114663500D01*
G75*
G02*
X123239500Y-114726000I0J-62500D01*
G01*
X123239500Y-115476000D01*
G75*
G02*
X123177000Y-115538500I-62500J0D01*
G01*
X123052000Y-115538500D01*
G75*
G02*
X122989500Y-115476000I0J62500D01*
G01*
G37*
G36*
G01*
X122489500Y-115476000D02*
X122489500Y-114726000D01*
G75*
G02*
X122552000Y-114663500I62500J0D01*
G01*
X122677000Y-114663500D01*
G75*
G02*
X122739500Y-114726000I0J-62500D01*
G01*
X122739500Y-115476000D01*
G75*
G02*
X122677000Y-115538500I-62500J0D01*
G01*
X122552000Y-115538500D01*
G75*
G02*
X122489500Y-115476000I0J62500D01*
G01*
G37*
G36*
G01*
X121989500Y-115476000D02*
X121989500Y-114726000D01*
G75*
G02*
X122052000Y-114663500I62500J0D01*
G01*
X122177000Y-114663500D01*
G75*
G02*
X122239500Y-114726000I0J-62500D01*
G01*
X122239500Y-115476000D01*
G75*
G02*
X122177000Y-115538500I-62500J0D01*
G01*
X122052000Y-115538500D01*
G75*
G02*
X121989500Y-115476000I0J62500D01*
G01*
G37*
G36*
G01*
X121489500Y-115476000D02*
X121489500Y-114726000D01*
G75*
G02*
X121552000Y-114663500I62500J0D01*
G01*
X121677000Y-114663500D01*
G75*
G02*
X121739500Y-114726000I0J-62500D01*
G01*
X121739500Y-115476000D01*
G75*
G02*
X121677000Y-115538500I-62500J0D01*
G01*
X121552000Y-115538500D01*
G75*
G02*
X121489500Y-115476000I0J62500D01*
G01*
G37*
G36*
G01*
X120989500Y-115476000D02*
X120989500Y-114726000D01*
G75*
G02*
X121052000Y-114663500I62500J0D01*
G01*
X121177000Y-114663500D01*
G75*
G02*
X121239500Y-114726000I0J-62500D01*
G01*
X121239500Y-115476000D01*
G75*
G02*
X121177000Y-115538500I-62500J0D01*
G01*
X121052000Y-115538500D01*
G75*
G02*
X120989500Y-115476000I0J62500D01*
G01*
G37*
G36*
G01*
X120489500Y-115476000D02*
X120489500Y-114726000D01*
G75*
G02*
X120552000Y-114663500I62500J0D01*
G01*
X120677000Y-114663500D01*
G75*
G02*
X120739500Y-114726000I0J-62500D01*
G01*
X120739500Y-115476000D01*
G75*
G02*
X120677000Y-115538500I-62500J0D01*
G01*
X120552000Y-115538500D01*
G75*
G02*
X120489500Y-115476000I0J62500D01*
G01*
G37*
G36*
G01*
X119489500Y-115851000D02*
X119489500Y-115726000D01*
G75*
G02*
X119552000Y-115663500I62500J0D01*
G01*
X120302000Y-115663500D01*
G75*
G02*
X120364500Y-115726000I0J-62500D01*
G01*
X120364500Y-115851000D01*
G75*
G02*
X120302000Y-115913500I-62500J0D01*
G01*
X119552000Y-115913500D01*
G75*
G02*
X119489500Y-115851000I0J62500D01*
G01*
G37*
G36*
G01*
X119489500Y-116351000D02*
X119489500Y-116226000D01*
G75*
G02*
X119552000Y-116163500I62500J0D01*
G01*
X120302000Y-116163500D01*
G75*
G02*
X120364500Y-116226000I0J-62500D01*
G01*
X120364500Y-116351000D01*
G75*
G02*
X120302000Y-116413500I-62500J0D01*
G01*
X119552000Y-116413500D01*
G75*
G02*
X119489500Y-116351000I0J62500D01*
G01*
G37*
G36*
G01*
X119489500Y-116851000D02*
X119489500Y-116726000D01*
G75*
G02*
X119552000Y-116663500I62500J0D01*
G01*
X120302000Y-116663500D01*
G75*
G02*
X120364500Y-116726000I0J-62500D01*
G01*
X120364500Y-116851000D01*
G75*
G02*
X120302000Y-116913500I-62500J0D01*
G01*
X119552000Y-116913500D01*
G75*
G02*
X119489500Y-116851000I0J62500D01*
G01*
G37*
G36*
G01*
X119489500Y-117351000D02*
X119489500Y-117226000D01*
G75*
G02*
X119552000Y-117163500I62500J0D01*
G01*
X120302000Y-117163500D01*
G75*
G02*
X120364500Y-117226000I0J-62500D01*
G01*
X120364500Y-117351000D01*
G75*
G02*
X120302000Y-117413500I-62500J0D01*
G01*
X119552000Y-117413500D01*
G75*
G02*
X119489500Y-117351000I0J62500D01*
G01*
G37*
G36*
G01*
X119489500Y-117851000D02*
X119489500Y-117726000D01*
G75*
G02*
X119552000Y-117663500I62500J0D01*
G01*
X120302000Y-117663500D01*
G75*
G02*
X120364500Y-117726000I0J-62500D01*
G01*
X120364500Y-117851000D01*
G75*
G02*
X120302000Y-117913500I-62500J0D01*
G01*
X119552000Y-117913500D01*
G75*
G02*
X119489500Y-117851000I0J62500D01*
G01*
G37*
G36*
G01*
X119489500Y-118351000D02*
X119489500Y-118226000D01*
G75*
G02*
X119552000Y-118163500I62500J0D01*
G01*
X120302000Y-118163500D01*
G75*
G02*
X120364500Y-118226000I0J-62500D01*
G01*
X120364500Y-118351000D01*
G75*
G02*
X120302000Y-118413500I-62500J0D01*
G01*
X119552000Y-118413500D01*
G75*
G02*
X119489500Y-118351000I0J62500D01*
G01*
G37*
G36*
G01*
X119489500Y-118851000D02*
X119489500Y-118726000D01*
G75*
G02*
X119552000Y-118663500I62500J0D01*
G01*
X120302000Y-118663500D01*
G75*
G02*
X120364500Y-118726000I0J-62500D01*
G01*
X120364500Y-118851000D01*
G75*
G02*
X120302000Y-118913500I-62500J0D01*
G01*
X119552000Y-118913500D01*
G75*
G02*
X119489500Y-118851000I0J62500D01*
G01*
G37*
G36*
G01*
X119489500Y-119351000D02*
X119489500Y-119226000D01*
G75*
G02*
X119552000Y-119163500I62500J0D01*
G01*
X120302000Y-119163500D01*
G75*
G02*
X120364500Y-119226000I0J-62500D01*
G01*
X120364500Y-119351000D01*
G75*
G02*
X120302000Y-119413500I-62500J0D01*
G01*
X119552000Y-119413500D01*
G75*
G02*
X119489500Y-119351000I0J62500D01*
G01*
G37*
%TD*%
D22*
%TO.C,JP3*%
G36*
X118376000Y-129136000D02*
G01*
X118376000Y-128636000D01*
X118376602Y-128636000D01*
X118376602Y-128611466D01*
X118381412Y-128562635D01*
X118390984Y-128514510D01*
X118405228Y-128467555D01*
X118424005Y-128422222D01*
X118447136Y-128378949D01*
X118474396Y-128338150D01*
X118505524Y-128300221D01*
X118540221Y-128265524D01*
X118578150Y-128234396D01*
X118618949Y-128207136D01*
X118662222Y-128184005D01*
X118707555Y-128165228D01*
X118754510Y-128150984D01*
X118802635Y-128141412D01*
X118851466Y-128136602D01*
X118876000Y-128136602D01*
X118876000Y-128136000D01*
X119376000Y-128136000D01*
X119376000Y-128136602D01*
X119400534Y-128136602D01*
X119449365Y-128141412D01*
X119497490Y-128150984D01*
X119544445Y-128165228D01*
X119589778Y-128184005D01*
X119633051Y-128207136D01*
X119673850Y-128234396D01*
X119711779Y-128265524D01*
X119746476Y-128300221D01*
X119777604Y-128338150D01*
X119804864Y-128378949D01*
X119827995Y-128422222D01*
X119846772Y-128467555D01*
X119861016Y-128514510D01*
X119870588Y-128562635D01*
X119875398Y-128611466D01*
X119875398Y-128636000D01*
X119876000Y-128636000D01*
X119876000Y-129136000D01*
X118376000Y-129136000D01*
G37*
G36*
X119875398Y-129936000D02*
G01*
X119875398Y-129960534D01*
X119870588Y-130009365D01*
X119861016Y-130057490D01*
X119846772Y-130104445D01*
X119827995Y-130149778D01*
X119804864Y-130193051D01*
X119777604Y-130233850D01*
X119746476Y-130271779D01*
X119711779Y-130306476D01*
X119673850Y-130337604D01*
X119633051Y-130364864D01*
X119589778Y-130387995D01*
X119544445Y-130406772D01*
X119497490Y-130421016D01*
X119449365Y-130430588D01*
X119400534Y-130435398D01*
X119376000Y-130435398D01*
X119376000Y-130436000D01*
X118876000Y-130436000D01*
X118876000Y-130435398D01*
X118851466Y-130435398D01*
X118802635Y-130430588D01*
X118754510Y-130421016D01*
X118707555Y-130406772D01*
X118662222Y-130387995D01*
X118618949Y-130364864D01*
X118578150Y-130337604D01*
X118540221Y-130306476D01*
X118505524Y-130271779D01*
X118474396Y-130233850D01*
X118447136Y-130193051D01*
X118424005Y-130149778D01*
X118405228Y-130104445D01*
X118390984Y-130057490D01*
X118381412Y-130009365D01*
X118376602Y-129960534D01*
X118376602Y-129936000D01*
X118376000Y-129936000D01*
X118376000Y-129436000D01*
X119876000Y-129436000D01*
X119876000Y-129936000D01*
X119875398Y-129936000D01*
G37*
%TD*%
%TO.C,JP2*%
G36*
X121424000Y-129136000D02*
G01*
X121424000Y-128636000D01*
X121424602Y-128636000D01*
X121424602Y-128611466D01*
X121429412Y-128562635D01*
X121438984Y-128514510D01*
X121453228Y-128467555D01*
X121472005Y-128422222D01*
X121495136Y-128378949D01*
X121522396Y-128338150D01*
X121553524Y-128300221D01*
X121588221Y-128265524D01*
X121626150Y-128234396D01*
X121666949Y-128207136D01*
X121710222Y-128184005D01*
X121755555Y-128165228D01*
X121802510Y-128150984D01*
X121850635Y-128141412D01*
X121899466Y-128136602D01*
X121924000Y-128136602D01*
X121924000Y-128136000D01*
X122424000Y-128136000D01*
X122424000Y-128136602D01*
X122448534Y-128136602D01*
X122497365Y-128141412D01*
X122545490Y-128150984D01*
X122592445Y-128165228D01*
X122637778Y-128184005D01*
X122681051Y-128207136D01*
X122721850Y-128234396D01*
X122759779Y-128265524D01*
X122794476Y-128300221D01*
X122825604Y-128338150D01*
X122852864Y-128378949D01*
X122875995Y-128422222D01*
X122894772Y-128467555D01*
X122909016Y-128514510D01*
X122918588Y-128562635D01*
X122923398Y-128611466D01*
X122923398Y-128636000D01*
X122924000Y-128636000D01*
X122924000Y-129136000D01*
X121424000Y-129136000D01*
G37*
G36*
X122923398Y-129936000D02*
G01*
X122923398Y-129960534D01*
X122918588Y-130009365D01*
X122909016Y-130057490D01*
X122894772Y-130104445D01*
X122875995Y-130149778D01*
X122852864Y-130193051D01*
X122825604Y-130233850D01*
X122794476Y-130271779D01*
X122759779Y-130306476D01*
X122721850Y-130337604D01*
X122681051Y-130364864D01*
X122637778Y-130387995D01*
X122592445Y-130406772D01*
X122545490Y-130421016D01*
X122497365Y-130430588D01*
X122448534Y-130435398D01*
X122424000Y-130435398D01*
X122424000Y-130436000D01*
X121924000Y-130436000D01*
X121924000Y-130435398D01*
X121899466Y-130435398D01*
X121850635Y-130430588D01*
X121802510Y-130421016D01*
X121755555Y-130406772D01*
X121710222Y-130387995D01*
X121666949Y-130364864D01*
X121626150Y-130337604D01*
X121588221Y-130306476D01*
X121553524Y-130271779D01*
X121522396Y-130233850D01*
X121495136Y-130193051D01*
X121472005Y-130149778D01*
X121453228Y-130104445D01*
X121438984Y-130057490D01*
X121429412Y-130009365D01*
X121424602Y-129960534D01*
X121424602Y-129936000D01*
X121424000Y-129936000D01*
X121424000Y-129436000D01*
X122924000Y-129436000D01*
X122924000Y-129936000D01*
X122923398Y-129936000D01*
G37*
%TD*%
%TO.C,JP1*%
G36*
X124345000Y-129136000D02*
G01*
X124345000Y-128636000D01*
X124345602Y-128636000D01*
X124345602Y-128611466D01*
X124350412Y-128562635D01*
X124359984Y-128514510D01*
X124374228Y-128467555D01*
X124393005Y-128422222D01*
X124416136Y-128378949D01*
X124443396Y-128338150D01*
X124474524Y-128300221D01*
X124509221Y-128265524D01*
X124547150Y-128234396D01*
X124587949Y-128207136D01*
X124631222Y-128184005D01*
X124676555Y-128165228D01*
X124723510Y-128150984D01*
X124771635Y-128141412D01*
X124820466Y-128136602D01*
X124845000Y-128136602D01*
X124845000Y-128136000D01*
X125345000Y-128136000D01*
X125345000Y-128136602D01*
X125369534Y-128136602D01*
X125418365Y-128141412D01*
X125466490Y-128150984D01*
X125513445Y-128165228D01*
X125558778Y-128184005D01*
X125602051Y-128207136D01*
X125642850Y-128234396D01*
X125680779Y-128265524D01*
X125715476Y-128300221D01*
X125746604Y-128338150D01*
X125773864Y-128378949D01*
X125796995Y-128422222D01*
X125815772Y-128467555D01*
X125830016Y-128514510D01*
X125839588Y-128562635D01*
X125844398Y-128611466D01*
X125844398Y-128636000D01*
X125845000Y-128636000D01*
X125845000Y-129136000D01*
X124345000Y-129136000D01*
G37*
G36*
X125844398Y-129936000D02*
G01*
X125844398Y-129960534D01*
X125839588Y-130009365D01*
X125830016Y-130057490D01*
X125815772Y-130104445D01*
X125796995Y-130149778D01*
X125773864Y-130193051D01*
X125746604Y-130233850D01*
X125715476Y-130271779D01*
X125680779Y-130306476D01*
X125642850Y-130337604D01*
X125602051Y-130364864D01*
X125558778Y-130387995D01*
X125513445Y-130406772D01*
X125466490Y-130421016D01*
X125418365Y-130430588D01*
X125369534Y-130435398D01*
X125345000Y-130435398D01*
X125345000Y-130436000D01*
X124845000Y-130436000D01*
X124845000Y-130435398D01*
X124820466Y-130435398D01*
X124771635Y-130430588D01*
X124723510Y-130421016D01*
X124676555Y-130406772D01*
X124631222Y-130387995D01*
X124587949Y-130364864D01*
X124547150Y-130337604D01*
X124509221Y-130306476D01*
X124474524Y-130271779D01*
X124443396Y-130233850D01*
X124416136Y-130193051D01*
X124393005Y-130149778D01*
X124374228Y-130104445D01*
X124359984Y-130057490D01*
X124350412Y-130009365D01*
X124345602Y-129960534D01*
X124345602Y-129936000D01*
X124345000Y-129936000D01*
X124345000Y-129436000D01*
X125845000Y-129436000D01*
X125845000Y-129936000D01*
X125844398Y-129936000D01*
G37*
%TD*%
D23*
%TO.C,J4*%
X136525000Y-106680000D03*
X133985000Y-106680000D03*
X131445000Y-106680000D03*
X128905000Y-106680000D03*
X126365000Y-106680000D03*
X123825000Y-106680000D03*
X121285000Y-106680000D03*
X118745000Y-106680000D03*
X116205000Y-106680000D03*
X113665000Y-106680000D03*
X136525000Y-109220000D03*
X133985000Y-109220000D03*
X131445000Y-109220000D03*
X128905000Y-109220000D03*
X126365000Y-109220000D03*
X123825000Y-109220000D03*
X121285000Y-109220000D03*
X118745000Y-109220000D03*
X116205000Y-109220000D03*
G36*
G01*
X114265000Y-110070000D02*
X113065000Y-110070000D01*
G75*
G02*
X112815000Y-109820000I0J250000D01*
G01*
X112815000Y-108620000D01*
G75*
G02*
X113065000Y-108370000I250000J0D01*
G01*
X114265000Y-108370000D01*
G75*
G02*
X114515000Y-108620000I0J-250000D01*
G01*
X114515000Y-109820000D01*
G75*
G02*
X114265000Y-110070000I-250000J0D01*
G01*
G37*
%TD*%
D19*
%TO.C,U36*%
X205740000Y-199707500D03*
D20*
X201990000Y-192957500D03*
X201990000Y-193457500D03*
X201990000Y-193957500D03*
X201990000Y-194457500D03*
X201990000Y-194957500D03*
X201990000Y-195457500D03*
X201990000Y-195957500D03*
X201990000Y-196457500D03*
X201990000Y-196957500D03*
X201990000Y-197457500D03*
X201990000Y-197957500D03*
X201990000Y-198457500D03*
X201990000Y-198957500D03*
X201990000Y-199457500D03*
X201990000Y-199957500D03*
X201990000Y-200457500D03*
X201990000Y-200957500D03*
X201990000Y-201457500D03*
X201990000Y-201957500D03*
X201990000Y-202457500D03*
X201990000Y-202957500D03*
X201990000Y-203457500D03*
X201990000Y-203957500D03*
X201990000Y-204457500D03*
X201990000Y-204957500D03*
X201990000Y-205457500D03*
X201990000Y-205957500D03*
X201990000Y-206457500D03*
X209490000Y-206457500D03*
X209490000Y-205957500D03*
X209490000Y-205457500D03*
X209490000Y-204957500D03*
X209490000Y-204457500D03*
X209490000Y-203957500D03*
X209490000Y-203457500D03*
X209490000Y-202957500D03*
X209490000Y-202457500D03*
X209490000Y-201957500D03*
X209490000Y-201457500D03*
X209490000Y-200957500D03*
X209490000Y-200457500D03*
X209490000Y-199957500D03*
X209490000Y-199457500D03*
X209490000Y-198957500D03*
X209490000Y-198457500D03*
X209490000Y-197957500D03*
X209490000Y-197457500D03*
X209490000Y-196957500D03*
X209490000Y-196457500D03*
X209490000Y-195957500D03*
X209490000Y-195457500D03*
X209490000Y-194957500D03*
X209490000Y-194457500D03*
X209490000Y-193957500D03*
X209490000Y-193457500D03*
X209490000Y-192957500D03*
%TD*%
D24*
%TO.C,REF\u002A\u002A*%
X310845200Y-196621400D03*
%TD*%
%TO.C,REF\u002A\u002A*%
X280809700Y-196621400D03*
%TD*%
%TO.C,REF\u002A\u002A*%
X250837700Y-196621400D03*
%TD*%
%TO.C,REF\u002A\u002A*%
X220802200Y-196621400D03*
%TD*%
%TO.C,REF\u002A\u002A*%
X190830200Y-196621400D03*
%TD*%
%TO.C,REF\u002A\u002A*%
X160845500Y-196659500D03*
%TD*%
%TO.C,REF\u002A\u002A*%
X130810000Y-196659500D03*
%TD*%
%TO.C,REF\u002A\u002A*%
X100838000Y-196659500D03*
%TD*%
%TO.C,REF\u002A\u002A*%
X100838000Y-170624500D03*
%TD*%
%TO.C,REF\u002A\u002A*%
X130810000Y-170624500D03*
%TD*%
%TO.C,REF\u002A\u002A*%
X160845500Y-170624500D03*
%TD*%
%TO.C,REF\u002A\u002A*%
X190817500Y-170624500D03*
%TD*%
%TO.C,REF\u002A\u002A*%
X220789500Y-170624500D03*
%TD*%
%TO.C,REF\u002A\u002A*%
X250825000Y-170624500D03*
%TD*%
%TO.C,REF\u002A\u002A*%
X280797000Y-170624500D03*
%TD*%
%TO.C,REF\u002A\u002A*%
X310832500Y-170624500D03*
%TD*%
D25*
%TO.C,SW1*%
X316230000Y-124460000D03*
D15*
X318730000Y-124460000D03*
X321230000Y-124460000D03*
D26*
X313130000Y-116960000D03*
X324330000Y-116960000D03*
D15*
X316230000Y-109960000D03*
X321230000Y-109960000D03*
%TD*%
%TO.C,R24*%
G36*
G01*
X119576001Y-124568000D02*
X118675999Y-124568000D01*
G75*
G02*
X118426000Y-124318001I0J249999D01*
G01*
X118426000Y-123617999D01*
G75*
G02*
X118675999Y-123368000I249999J0D01*
G01*
X119576001Y-123368000D01*
G75*
G02*
X119826000Y-123617999I0J-249999D01*
G01*
X119826000Y-124318001D01*
G75*
G02*
X119576001Y-124568000I-249999J0D01*
G01*
G37*
G36*
G01*
X119576001Y-126568000D02*
X118675999Y-126568000D01*
G75*
G02*
X118426000Y-126318001I0J249999D01*
G01*
X118426000Y-125617999D01*
G75*
G02*
X118675999Y-125368000I249999J0D01*
G01*
X119576001Y-125368000D01*
G75*
G02*
X119826000Y-125617999I0J-249999D01*
G01*
X119826000Y-126318001D01*
G75*
G02*
X119576001Y-126568000I-249999J0D01*
G01*
G37*
%TD*%
%TO.C,R23*%
G36*
G01*
X122624001Y-124568000D02*
X121723999Y-124568000D01*
G75*
G02*
X121474000Y-124318001I0J249999D01*
G01*
X121474000Y-123617999D01*
G75*
G02*
X121723999Y-123368000I249999J0D01*
G01*
X122624001Y-123368000D01*
G75*
G02*
X122874000Y-123617999I0J-249999D01*
G01*
X122874000Y-124318001D01*
G75*
G02*
X122624001Y-124568000I-249999J0D01*
G01*
G37*
G36*
G01*
X122624001Y-126568000D02*
X121723999Y-126568000D01*
G75*
G02*
X121474000Y-126318001I0J249999D01*
G01*
X121474000Y-125617999D01*
G75*
G02*
X121723999Y-125368000I249999J0D01*
G01*
X122624001Y-125368000D01*
G75*
G02*
X122874000Y-125617999I0J-249999D01*
G01*
X122874000Y-126318001D01*
G75*
G02*
X122624001Y-126568000I-249999J0D01*
G01*
G37*
%TD*%
%TO.C,R22*%
G36*
G01*
X125418001Y-124568000D02*
X124517999Y-124568000D01*
G75*
G02*
X124268000Y-124318001I0J249999D01*
G01*
X124268000Y-123617999D01*
G75*
G02*
X124517999Y-123368000I249999J0D01*
G01*
X125418001Y-123368000D01*
G75*
G02*
X125668000Y-123617999I0J-249999D01*
G01*
X125668000Y-124318001D01*
G75*
G02*
X125418001Y-124568000I-249999J0D01*
G01*
G37*
G36*
G01*
X125418001Y-126568000D02*
X124517999Y-126568000D01*
G75*
G02*
X124268000Y-126318001I0J249999D01*
G01*
X124268000Y-125617999D01*
G75*
G02*
X124517999Y-125368000I249999J0D01*
G01*
X125418001Y-125368000D01*
G75*
G02*
X125668000Y-125617999I0J-249999D01*
G01*
X125668000Y-126318001D01*
G75*
G02*
X125418001Y-126568000I-249999J0D01*
G01*
G37*
%TD*%
%TO.C,R12*%
G36*
G01*
X155506000Y-136685000D02*
X155506000Y-137635000D01*
G75*
G02*
X155256000Y-137885000I-250000J0D01*
G01*
X154581000Y-137885000D01*
G75*
G02*
X154331000Y-137635000I0J250000D01*
G01*
X154331000Y-136685000D01*
G75*
G02*
X154581000Y-136435000I250000J0D01*
G01*
X155256000Y-136435000D01*
G75*
G02*
X155506000Y-136685000I0J-250000D01*
G01*
G37*
G36*
G01*
X157581000Y-136685000D02*
X157581000Y-137635000D01*
G75*
G02*
X157331000Y-137885000I-250000J0D01*
G01*
X156656000Y-137885000D01*
G75*
G02*
X156406000Y-137635000I0J250000D01*
G01*
X156406000Y-136685000D01*
G75*
G02*
X156656000Y-136435000I250000J0D01*
G01*
X157331000Y-136435000D01*
G75*
G02*
X157581000Y-136685000I0J-250000D01*
G01*
G37*
%TD*%
%TO.C,R11*%
G36*
G01*
X156497000Y-134308000D02*
X157447000Y-134308000D01*
G75*
G02*
X157697000Y-134558000I0J-250000D01*
G01*
X157697000Y-135233000D01*
G75*
G02*
X157447000Y-135483000I-250000J0D01*
G01*
X156497000Y-135483000D01*
G75*
G02*
X156247000Y-135233000I0J250000D01*
G01*
X156247000Y-134558000D01*
G75*
G02*
X156497000Y-134308000I250000J0D01*
G01*
G37*
G36*
G01*
X156497000Y-132233000D02*
X157447000Y-132233000D01*
G75*
G02*
X157697000Y-132483000I0J-250000D01*
G01*
X157697000Y-133158000D01*
G75*
G02*
X157447000Y-133408000I-250000J0D01*
G01*
X156497000Y-133408000D01*
G75*
G02*
X156247000Y-133158000I0J250000D01*
G01*
X156247000Y-132483000D01*
G75*
G02*
X156497000Y-132233000I250000J0D01*
G01*
G37*
%TD*%
%TO.C,J5*%
G36*
G01*
X92850000Y-104470000D02*
X94600000Y-104470000D01*
G75*
G02*
X95475000Y-105345000I0J-875000D01*
G01*
X95475000Y-107095000D01*
G75*
G02*
X94600000Y-107970000I-875000J0D01*
G01*
X92850000Y-107970000D01*
G75*
G02*
X91975000Y-107095000I0J875000D01*
G01*
X91975000Y-105345000D01*
G75*
G02*
X92850000Y-104470000I875000J0D01*
G01*
G37*
G36*
G01*
X97425000Y-101720000D02*
X99425000Y-101720000D01*
G75*
G02*
X100175000Y-102470000I0J-750000D01*
G01*
X100175000Y-103970000D01*
G75*
G02*
X99425000Y-104720000I-750000J0D01*
G01*
X97425000Y-104720000D01*
G75*
G02*
X96675000Y-103970000I0J750000D01*
G01*
X96675000Y-102470000D01*
G75*
G02*
X97425000Y-101720000I750000J0D01*
G01*
G37*
D27*
X98425000Y-109220000D03*
%TD*%
D28*
%TO.C,J2*%
X176530000Y-97790000D03*
X186690000Y-97790000D03*
X186690000Y-110490000D03*
X176530000Y-110490000D03*
X173990000Y-107950000D03*
X189230000Y-107950000D03*
X181610000Y-107950000D03*
%TD*%
%TO.C,J1*%
X149860000Y-97790000D03*
X160020000Y-97790000D03*
X160020000Y-110490000D03*
X149860000Y-110490000D03*
X147320000Y-107950000D03*
X162560000Y-107950000D03*
X154940000Y-107950000D03*
%TD*%
D29*
%TO.C,D2*%
X159890000Y-120015000D03*
X162690000Y-120015000D03*
%TD*%
%TO.C,C23*%
G36*
G01*
X165641000Y-148786000D02*
X166591000Y-148786000D01*
G75*
G02*
X166841000Y-149036000I0J-250000D01*
G01*
X166841000Y-149711000D01*
G75*
G02*
X166591000Y-149961000I-250000J0D01*
G01*
X165641000Y-149961000D01*
G75*
G02*
X165391000Y-149711000I0J250000D01*
G01*
X165391000Y-149036000D01*
G75*
G02*
X165641000Y-148786000I250000J0D01*
G01*
G37*
G36*
G01*
X165641000Y-146711000D02*
X166591000Y-146711000D01*
G75*
G02*
X166841000Y-146961000I0J-250000D01*
G01*
X166841000Y-147636000D01*
G75*
G02*
X166591000Y-147886000I-250000J0D01*
G01*
X165641000Y-147886000D01*
G75*
G02*
X165391000Y-147636000I0J250000D01*
G01*
X165391000Y-146961000D01*
G75*
G02*
X165641000Y-146711000I250000J0D01*
G01*
G37*
%TD*%
%TO.C,C22*%
G36*
G01*
X164686000Y-131376000D02*
X163736000Y-131376000D01*
G75*
G02*
X163486000Y-131126000I0J250000D01*
G01*
X163486000Y-130451000D01*
G75*
G02*
X163736000Y-130201000I250000J0D01*
G01*
X164686000Y-130201000D01*
G75*
G02*
X164936000Y-130451000I0J-250000D01*
G01*
X164936000Y-131126000D01*
G75*
G02*
X164686000Y-131376000I-250000J0D01*
G01*
G37*
G36*
G01*
X164686000Y-133451000D02*
X163736000Y-133451000D01*
G75*
G02*
X163486000Y-133201000I0J250000D01*
G01*
X163486000Y-132526000D01*
G75*
G02*
X163736000Y-132276000I250000J0D01*
G01*
X164686000Y-132276000D01*
G75*
G02*
X164936000Y-132526000I0J-250000D01*
G01*
X164936000Y-133201000D01*
G75*
G02*
X164686000Y-133451000I-250000J0D01*
G01*
G37*
%TD*%
%TO.C,C21*%
G36*
G01*
X162847000Y-148786000D02*
X163797000Y-148786000D01*
G75*
G02*
X164047000Y-149036000I0J-250000D01*
G01*
X164047000Y-149711000D01*
G75*
G02*
X163797000Y-149961000I-250000J0D01*
G01*
X162847000Y-149961000D01*
G75*
G02*
X162597000Y-149711000I0J250000D01*
G01*
X162597000Y-149036000D01*
G75*
G02*
X162847000Y-148786000I250000J0D01*
G01*
G37*
G36*
G01*
X162847000Y-146711000D02*
X163797000Y-146711000D01*
G75*
G02*
X164047000Y-146961000I0J-250000D01*
G01*
X164047000Y-147636000D01*
G75*
G02*
X163797000Y-147886000I-250000J0D01*
G01*
X162847000Y-147886000D01*
G75*
G02*
X162597000Y-147636000I0J250000D01*
G01*
X162597000Y-146961000D01*
G75*
G02*
X162847000Y-146711000I250000J0D01*
G01*
G37*
%TD*%
%TO.C,C20*%
G36*
G01*
X167353000Y-131376000D02*
X166403000Y-131376000D01*
G75*
G02*
X166153000Y-131126000I0J250000D01*
G01*
X166153000Y-130451000D01*
G75*
G02*
X166403000Y-130201000I250000J0D01*
G01*
X167353000Y-130201000D01*
G75*
G02*
X167603000Y-130451000I0J-250000D01*
G01*
X167603000Y-131126000D01*
G75*
G02*
X167353000Y-131376000I-250000J0D01*
G01*
G37*
G36*
G01*
X167353000Y-133451000D02*
X166403000Y-133451000D01*
G75*
G02*
X166153000Y-133201000I0J250000D01*
G01*
X166153000Y-132526000D01*
G75*
G02*
X166403000Y-132276000I250000J0D01*
G01*
X167353000Y-132276000D01*
G75*
G02*
X167603000Y-132526000I0J-250000D01*
G01*
X167603000Y-133201000D01*
G75*
G02*
X167353000Y-133451000I-250000J0D01*
G01*
G37*
%TD*%
%TO.C,C10*%
G36*
G01*
X206215000Y-189288000D02*
X205265000Y-189288000D01*
G75*
G02*
X205015000Y-189038000I0J250000D01*
G01*
X205015000Y-188363000D01*
G75*
G02*
X205265000Y-188113000I250000J0D01*
G01*
X206215000Y-188113000D01*
G75*
G02*
X206465000Y-188363000I0J-250000D01*
G01*
X206465000Y-189038000D01*
G75*
G02*
X206215000Y-189288000I-250000J0D01*
G01*
G37*
G36*
G01*
X206215000Y-191363000D02*
X205265000Y-191363000D01*
G75*
G02*
X205015000Y-191113000I0J250000D01*
G01*
X205015000Y-190438000D01*
G75*
G02*
X205265000Y-190188000I250000J0D01*
G01*
X206215000Y-190188000D01*
G75*
G02*
X206465000Y-190438000I0J-250000D01*
G01*
X206465000Y-191113000D01*
G75*
G02*
X206215000Y-191363000I-250000J0D01*
G01*
G37*
%TD*%
%TO.C,C9*%
G36*
G01*
X206571000Y-158971000D02*
X206571000Y-158021000D01*
G75*
G02*
X206821000Y-157771000I250000J0D01*
G01*
X207496000Y-157771000D01*
G75*
G02*
X207746000Y-158021000I0J-250000D01*
G01*
X207746000Y-158971000D01*
G75*
G02*
X207496000Y-159221000I-250000J0D01*
G01*
X206821000Y-159221000D01*
G75*
G02*
X206571000Y-158971000I0J250000D01*
G01*
G37*
G36*
G01*
X204496000Y-158971000D02*
X204496000Y-158021000D01*
G75*
G02*
X204746000Y-157771000I250000J0D01*
G01*
X205421000Y-157771000D01*
G75*
G02*
X205671000Y-158021000I0J-250000D01*
G01*
X205671000Y-158971000D01*
G75*
G02*
X205421000Y-159221000I-250000J0D01*
G01*
X204746000Y-159221000D01*
G75*
G02*
X204496000Y-158971000I0J250000D01*
G01*
G37*
%TD*%
D30*
X225933000Y-107188000D02*
X219837000Y-107188000D01*
X219837000Y-98552000D01*
X225933000Y-98552000D01*
X225933000Y-107188000D01*
D22*
G36*
X225933000Y-107188000D02*
G01*
X219837000Y-107188000D01*
X219837000Y-98552000D01*
X225933000Y-98552000D01*
X225933000Y-107188000D01*
G37*
M02*
