%TF.GenerationSoftware,KiCad,Pcbnew,6.0.1-79c1e3a40b~116~ubuntu20.04.1*%
%TF.CreationDate,2022-02-11T21:59:22+00:00*%
%TF.ProjectId,BassStation_Sequencer_MidiInterface,42617373-5374-4617-9469-6f6e5f536571,B*%
%TF.SameCoordinates,Original*%
%TF.FileFunction,Legend,Top*%
%TF.FilePolarity,Positive*%
%FSLAX46Y46*%
G04 Gerber Fmt 4.6, Leading zero omitted, Abs format (unit mm)*
G04 Created by KiCad (PCBNEW 6.0.1-79c1e3a40b~116~ubuntu20.04.1) date 2022-02-11 21:59:22*
%MOMM*%
%LPD*%
G01*
G04 APERTURE LIST*
%ADD10C,0.200000*%
%ADD11C,0.500000*%
%ADD12C,0.120000*%
%ADD13C,0.153000*%
%ADD14C,0.300000*%
%ADD15C,0.150000*%
G04 APERTURE END LIST*
D10*
X86563200Y-111531400D02*
X88279570Y-111531400D01*
D11*
X211378801Y-192938400D02*
G75*
G03*
X211378801Y-192938400I-1J0D01*
G01*
X160147001Y-114046000D02*
G75*
G03*
X160147001Y-114046000I-1J0D01*
G01*
X86663200Y-111531400D02*
G75*
G03*
X86663200Y-111531400I-100000J0D01*
G01*
D12*
X115824000Y-168630600D02*
X115824000Y-198628000D01*
X220814900Y-198628000D02*
X220814900Y-168630600D01*
D11*
X92659201Y-154482800D02*
G75*
G03*
X92659201Y-154482800I-1J0D01*
G01*
D12*
X205816200Y-168630600D02*
X205816200Y-198628000D01*
X145821400Y-168630600D02*
X145821400Y-198628000D01*
D10*
X84846831Y-111531400D02*
G75*
G03*
X84846831Y-111531400I-1077631J0D01*
G01*
D12*
X130822700Y-198628000D02*
X130822700Y-168630600D01*
X265811000Y-168630600D02*
X265811000Y-198628000D01*
X280809700Y-198628000D02*
X280809700Y-168630600D01*
X85826600Y-168630600D02*
X325818500Y-168630600D01*
D10*
X87325199Y-110769401D02*
G75*
G03*
X87325199Y-112293399I-761999J-761999D01*
G01*
D12*
X295808400Y-168630600D02*
X295808400Y-198615300D01*
D11*
X116738401Y-138480800D02*
G75*
G03*
X116738401Y-138480800I-1J0D01*
G01*
D12*
X325818500Y-198628000D02*
X85826600Y-198628000D01*
X160820100Y-198628000D02*
X160820100Y-168630600D01*
D11*
X211175601Y-160985200D02*
G75*
G03*
X211175601Y-160985200I-1J0D01*
G01*
D12*
X85826600Y-198628000D02*
X85826600Y-168630600D01*
X175818800Y-168630600D02*
X175818800Y-198628000D01*
X85839300Y-183629300D02*
X325818500Y-183629300D01*
X250812300Y-198628000D02*
X250812300Y-168630600D01*
D10*
X89357200Y-111023400D02*
X89357200Y-112039400D01*
X90434831Y-111531400D02*
G75*
G03*
X90434831Y-111531400I-1077631J0D01*
G01*
D12*
X190817500Y-198628000D02*
X190817500Y-168630600D01*
D10*
X88849200Y-111531400D02*
X89865200Y-111531400D01*
D12*
X100825300Y-198628000D02*
X100825300Y-168630600D01*
D10*
X84213700Y-111531400D02*
X83261200Y-111531400D01*
D12*
X235813600Y-168630600D02*
X235813600Y-198628000D01*
X325818500Y-168630600D02*
X325818500Y-198628000D01*
D10*
X84846830Y-111531400D02*
X85483700Y-111531400D01*
D12*
X310807100Y-198628000D02*
X310807100Y-168630600D01*
D11*
X160985201Y-145948400D02*
G75*
G03*
X160985201Y-145948400I-1J0D01*
G01*
D13*
X107648476Y-126561904D02*
X108315142Y-127361904D01*
X108315142Y-126561904D02*
X107648476Y-127361904D01*
X109172285Y-126561904D02*
X108696095Y-126561904D01*
X108648476Y-126942857D01*
X108696095Y-126904761D01*
X108791333Y-126866666D01*
X109029428Y-126866666D01*
X109124666Y-126904761D01*
X109172285Y-126942857D01*
X109219904Y-127019047D01*
X109219904Y-127209523D01*
X109172285Y-127285714D01*
X109124666Y-127323809D01*
X109029428Y-127361904D01*
X108791333Y-127361904D01*
X108696095Y-127323809D01*
X108648476Y-127285714D01*
X123221809Y-111486952D02*
X123221809Y-111867904D01*
X122888476Y-111067904D02*
X123221809Y-111486952D01*
X123555142Y-111067904D01*
X123840857Y-111144095D02*
X123888476Y-111106000D01*
X123983714Y-111067904D01*
X124221809Y-111067904D01*
X124317047Y-111106000D01*
X124364666Y-111144095D01*
X124412285Y-111220285D01*
X124412285Y-111296476D01*
X124364666Y-111410761D01*
X123793238Y-111867904D01*
X124412285Y-111867904D01*
X107775476Y-113861904D02*
X108442142Y-114661904D01*
X108442142Y-113861904D02*
X107775476Y-114661904D01*
X109013571Y-113861904D02*
X109108809Y-113861904D01*
X109204047Y-113900000D01*
X109251666Y-113938095D01*
X109299285Y-114014285D01*
X109346904Y-114166666D01*
X109346904Y-114357142D01*
X109299285Y-114509523D01*
X109251666Y-114585714D01*
X109204047Y-114623809D01*
X109108809Y-114661904D01*
X109013571Y-114661904D01*
X108918333Y-114623809D01*
X108870714Y-114585714D01*
X108823095Y-114509523D01*
X108775476Y-114357142D01*
X108775476Y-114166666D01*
X108823095Y-114014285D01*
X108870714Y-113938095D01*
X108918333Y-113900000D01*
X109013571Y-113861904D01*
X107775476Y-116401904D02*
X108442142Y-117201904D01*
X108442142Y-116401904D02*
X107775476Y-117201904D01*
X109346904Y-117201904D02*
X108775476Y-117201904D01*
X109061190Y-117201904D02*
X109061190Y-116401904D01*
X108965952Y-116516190D01*
X108870714Y-116592380D01*
X108775476Y-116630476D01*
X107505523Y-157413904D02*
X107029333Y-157413904D01*
X106981714Y-157794857D01*
X107029333Y-157756761D01*
X107124571Y-157718666D01*
X107362666Y-157718666D01*
X107457904Y-157756761D01*
X107505523Y-157794857D01*
X107553142Y-157871047D01*
X107553142Y-158061523D01*
X107505523Y-158137714D01*
X107457904Y-158175809D01*
X107362666Y-158213904D01*
X107124571Y-158213904D01*
X107029333Y-158175809D01*
X106981714Y-158137714D01*
X107838857Y-157413904D02*
X108172190Y-158213904D01*
X108505523Y-157413904D01*
X107005523Y-159501904D02*
X106672190Y-159120952D01*
X106434095Y-159501904D02*
X106434095Y-158701904D01*
X106815047Y-158701904D01*
X106910285Y-158740000D01*
X106957904Y-158778095D01*
X107005523Y-158854285D01*
X107005523Y-158968571D01*
X106957904Y-159044761D01*
X106910285Y-159082857D01*
X106815047Y-159120952D01*
X106434095Y-159120952D01*
X107957904Y-158740000D02*
X107862666Y-158701904D01*
X107719809Y-158701904D01*
X107576952Y-158740000D01*
X107481714Y-158816190D01*
X107434095Y-158892380D01*
X107386476Y-159044761D01*
X107386476Y-159159047D01*
X107434095Y-159311428D01*
X107481714Y-159387619D01*
X107576952Y-159463809D01*
X107719809Y-159501904D01*
X107815047Y-159501904D01*
X107957904Y-159463809D01*
X108005523Y-159425714D01*
X108005523Y-159159047D01*
X107815047Y-159159047D01*
X108767428Y-159082857D02*
X108910285Y-159120952D01*
X108957904Y-159159047D01*
X109005523Y-159235238D01*
X109005523Y-159349523D01*
X108957904Y-159425714D01*
X108910285Y-159463809D01*
X108815047Y-159501904D01*
X108434095Y-159501904D01*
X108434095Y-158701904D01*
X108767428Y-158701904D01*
X108862666Y-158740000D01*
X108910285Y-158778095D01*
X108957904Y-158854285D01*
X108957904Y-158930476D01*
X108910285Y-159006666D01*
X108862666Y-159044761D01*
X108767428Y-159082857D01*
X108434095Y-159082857D01*
X136048809Y-111486952D02*
X136048809Y-111867904D01*
X135715476Y-111067904D02*
X136048809Y-111486952D01*
X136382142Y-111067904D01*
X136620238Y-111067904D02*
X137286904Y-111067904D01*
X136858333Y-111867904D01*
X144740476Y-128241904D02*
X144740476Y-127441904D01*
X145073809Y-128013333D01*
X145407142Y-127441904D01*
X145407142Y-128241904D01*
X145883333Y-128241904D02*
X145883333Y-127441904D01*
X146359523Y-128241904D02*
X146359523Y-127441904D01*
X146597619Y-127441904D01*
X146740476Y-127480000D01*
X146835714Y-127556190D01*
X146883333Y-127632380D01*
X146930952Y-127784761D01*
X146930952Y-127899047D01*
X146883333Y-128051428D01*
X146835714Y-128127619D01*
X146740476Y-128203809D01*
X146597619Y-128241904D01*
X146359523Y-128241904D01*
X147359523Y-128241904D02*
X147359523Y-127441904D01*
X145883333Y-129529904D02*
X145550000Y-129148952D01*
X145311904Y-129529904D02*
X145311904Y-128729904D01*
X145692857Y-128729904D01*
X145788095Y-128768000D01*
X145835714Y-128806095D01*
X145883333Y-128882285D01*
X145883333Y-128996571D01*
X145835714Y-129072761D01*
X145788095Y-129110857D01*
X145692857Y-129148952D01*
X145311904Y-129148952D01*
X146216666Y-128729904D02*
X146883333Y-129529904D01*
X146883333Y-128729904D02*
X146216666Y-129529904D01*
X107775476Y-124021904D02*
X108442142Y-124821904D01*
X108442142Y-124021904D02*
X107775476Y-124821904D01*
X109251666Y-124288571D02*
X109251666Y-124821904D01*
X109013571Y-123983809D02*
X108775476Y-124555238D01*
X109394523Y-124555238D01*
X107775476Y-121481904D02*
X108442142Y-122281904D01*
X108442142Y-121481904D02*
X107775476Y-122281904D01*
X108727857Y-121481904D02*
X109346904Y-121481904D01*
X109013571Y-121786666D01*
X109156428Y-121786666D01*
X109251666Y-121824761D01*
X109299285Y-121862857D01*
X109346904Y-121939047D01*
X109346904Y-122129523D01*
X109299285Y-122205714D01*
X109251666Y-122243809D01*
X109156428Y-122281904D01*
X108870714Y-122281904D01*
X108775476Y-122243809D01*
X108727857Y-122205714D01*
X138985809Y-133165904D02*
X139604857Y-133165904D01*
X139271523Y-133470666D01*
X139414380Y-133470666D01*
X139509619Y-133508761D01*
X139557238Y-133546857D01*
X139604857Y-133623047D01*
X139604857Y-133813523D01*
X139557238Y-133889714D01*
X139509619Y-133927809D01*
X139414380Y-133965904D01*
X139128666Y-133965904D01*
X139033428Y-133927809D01*
X138985809Y-133889714D01*
X140033428Y-133889714D02*
X140081047Y-133927809D01*
X140033428Y-133965904D01*
X139985809Y-133927809D01*
X140033428Y-133889714D01*
X140033428Y-133965904D01*
X140414380Y-133165904D02*
X141033428Y-133165904D01*
X140700095Y-133470666D01*
X140842952Y-133470666D01*
X140938190Y-133508761D01*
X140985809Y-133546857D01*
X141033428Y-133623047D01*
X141033428Y-133813523D01*
X140985809Y-133889714D01*
X140938190Y-133927809D01*
X140842952Y-133965904D01*
X140557238Y-133965904D01*
X140462000Y-133927809D01*
X140414380Y-133889714D01*
X141319142Y-133165904D02*
X141652476Y-133965904D01*
X141985809Y-133165904D01*
D14*
X179534000Y-83671285D02*
X179962571Y-85471285D01*
X180305428Y-84185571D01*
X180648285Y-85471285D01*
X181076857Y-83671285D01*
X182791142Y-85471285D02*
X182191142Y-84614142D01*
X181762571Y-85471285D02*
X181762571Y-83671285D01*
X182448285Y-83671285D01*
X182619714Y-83757000D01*
X182705428Y-83842714D01*
X182791142Y-84014142D01*
X182791142Y-84271285D01*
X182705428Y-84442714D01*
X182619714Y-84528428D01*
X182448285Y-84614142D01*
X181762571Y-84614142D01*
X183562571Y-85471285D02*
X183562571Y-83671285D01*
X184162571Y-83671285D02*
X185191142Y-83671285D01*
X184676857Y-85471285D02*
X184676857Y-83671285D01*
X185791142Y-84528428D02*
X186391142Y-84528428D01*
X186648285Y-85471285D02*
X185791142Y-85471285D01*
X185791142Y-83671285D01*
X186648285Y-83671285D01*
X177734000Y-88369285D02*
X177734000Y-86569285D01*
X178419714Y-86569285D01*
X178591142Y-86655000D01*
X178676857Y-86740714D01*
X178762571Y-86912142D01*
X178762571Y-87169285D01*
X178676857Y-87340714D01*
X178591142Y-87426428D01*
X178419714Y-87512142D01*
X177734000Y-87512142D01*
X180562571Y-88369285D02*
X179962571Y-87512142D01*
X179534000Y-88369285D02*
X179534000Y-86569285D01*
X180219714Y-86569285D01*
X180391142Y-86655000D01*
X180476857Y-86740714D01*
X180562571Y-86912142D01*
X180562571Y-87169285D01*
X180476857Y-87340714D01*
X180391142Y-87426428D01*
X180219714Y-87512142D01*
X179534000Y-87512142D01*
X181676857Y-86569285D02*
X182019714Y-86569285D01*
X182191142Y-86655000D01*
X182362571Y-86826428D01*
X182448285Y-87169285D01*
X182448285Y-87769285D01*
X182362571Y-88112142D01*
X182191142Y-88283571D01*
X182019714Y-88369285D01*
X181676857Y-88369285D01*
X181505428Y-88283571D01*
X181334000Y-88112142D01*
X181248285Y-87769285D01*
X181248285Y-87169285D01*
X181334000Y-86826428D01*
X181505428Y-86655000D01*
X181676857Y-86569285D01*
X182962571Y-86569285D02*
X183991142Y-86569285D01*
X183476857Y-88369285D02*
X183476857Y-86569285D01*
X184591142Y-87426428D02*
X185191142Y-87426428D01*
X185448285Y-88369285D02*
X184591142Y-88369285D01*
X184591142Y-86569285D01*
X185448285Y-86569285D01*
X187248285Y-88197857D02*
X187162571Y-88283571D01*
X186905428Y-88369285D01*
X186734000Y-88369285D01*
X186476857Y-88283571D01*
X186305428Y-88112142D01*
X186219714Y-87940714D01*
X186134000Y-87597857D01*
X186134000Y-87340714D01*
X186219714Y-86997857D01*
X186305428Y-86826428D01*
X186476857Y-86655000D01*
X186734000Y-86569285D01*
X186905428Y-86569285D01*
X187162571Y-86655000D01*
X187248285Y-86740714D01*
X187762571Y-86569285D02*
X188791142Y-86569285D01*
X188276857Y-88369285D02*
X188276857Y-86569285D01*
D13*
X115125523Y-152977904D02*
X114649333Y-152977904D01*
X114601714Y-153358857D01*
X114649333Y-153320761D01*
X114744571Y-153282666D01*
X114982666Y-153282666D01*
X115077904Y-153320761D01*
X115125523Y-153358857D01*
X115173142Y-153435047D01*
X115173142Y-153625523D01*
X115125523Y-153701714D01*
X115077904Y-153739809D01*
X114982666Y-153777904D01*
X114744571Y-153777904D01*
X114649333Y-153739809D01*
X114601714Y-153701714D01*
X115458857Y-152977904D02*
X115792190Y-153777904D01*
X116125523Y-152977904D01*
X107648476Y-129101904D02*
X108315142Y-129901904D01*
X108315142Y-129101904D02*
X107648476Y-129901904D01*
X109124666Y-129101904D02*
X108934190Y-129101904D01*
X108838952Y-129140000D01*
X108791333Y-129178095D01*
X108696095Y-129292380D01*
X108648476Y-129444761D01*
X108648476Y-129749523D01*
X108696095Y-129825714D01*
X108743714Y-129863809D01*
X108838952Y-129901904D01*
X109029428Y-129901904D01*
X109124666Y-129863809D01*
X109172285Y-129825714D01*
X109219904Y-129749523D01*
X109219904Y-129559047D01*
X109172285Y-129482857D01*
X109124666Y-129444761D01*
X109029428Y-129406666D01*
X108838952Y-129406666D01*
X108743714Y-129444761D01*
X108696095Y-129482857D01*
X108648476Y-129559047D01*
D14*
X83175885Y-107268671D02*
X83461600Y-107268671D01*
X83604457Y-107197242D01*
X83675885Y-107125814D01*
X83818742Y-106911528D01*
X83890171Y-106625814D01*
X83890171Y-106054385D01*
X83818742Y-105911528D01*
X83747314Y-105840100D01*
X83604457Y-105768671D01*
X83318742Y-105768671D01*
X83175885Y-105840100D01*
X83104457Y-105911528D01*
X83033028Y-106054385D01*
X83033028Y-106411528D01*
X83104457Y-106554385D01*
X83175885Y-106625814D01*
X83318742Y-106697242D01*
X83604457Y-106697242D01*
X83747314Y-106625814D01*
X83818742Y-106554385D01*
X83890171Y-106411528D01*
X84533028Y-106697242D02*
X85675885Y-106697242D01*
X87175885Y-107268671D02*
X86318742Y-107268671D01*
X86747314Y-107268671D02*
X86747314Y-105768671D01*
X86604457Y-105982957D01*
X86461600Y-106125814D01*
X86318742Y-106197242D01*
X88533028Y-105768671D02*
X87818742Y-105768671D01*
X87747314Y-106482957D01*
X87818742Y-106411528D01*
X87961600Y-106340100D01*
X88318742Y-106340100D01*
X88461600Y-106411528D01*
X88533028Y-106482957D01*
X88604457Y-106625814D01*
X88604457Y-106982957D01*
X88533028Y-107125814D01*
X88461600Y-107197242D01*
X88318742Y-107268671D01*
X87961600Y-107268671D01*
X87818742Y-107197242D01*
X87747314Y-107125814D01*
X89033028Y-105768671D02*
X89533028Y-107268671D01*
X90033028Y-105768671D01*
X86104457Y-108683671D02*
X86104457Y-109683671D01*
X85747314Y-108112242D02*
X85390171Y-109183671D01*
X86318742Y-109183671D01*
X86818742Y-109255100D02*
X87533028Y-109255100D01*
X86675885Y-109683671D02*
X87175885Y-108183671D01*
X87675885Y-109683671D01*
D11*
X225906380Y-205708285D02*
X226477809Y-205898761D01*
X226668285Y-206089238D01*
X226858761Y-206470190D01*
X226858761Y-207041619D01*
X226668285Y-207422571D01*
X226477809Y-207613047D01*
X226096857Y-207803523D01*
X224573047Y-207803523D01*
X224573047Y-203803523D01*
X225906380Y-203803523D01*
X226287333Y-203994000D01*
X226477809Y-204184476D01*
X226668285Y-204565428D01*
X226668285Y-204946380D01*
X226477809Y-205327333D01*
X226287333Y-205517809D01*
X225906380Y-205708285D01*
X224573047Y-205708285D01*
X230287333Y-207803523D02*
X230287333Y-205708285D01*
X230096857Y-205327333D01*
X229715904Y-205136857D01*
X228954000Y-205136857D01*
X228573047Y-205327333D01*
X230287333Y-207613047D02*
X229906380Y-207803523D01*
X228954000Y-207803523D01*
X228573047Y-207613047D01*
X228382571Y-207232095D01*
X228382571Y-206851142D01*
X228573047Y-206470190D01*
X228954000Y-206279714D01*
X229906380Y-206279714D01*
X230287333Y-206089238D01*
X232001619Y-207613047D02*
X232382571Y-207803523D01*
X233144476Y-207803523D01*
X233525428Y-207613047D01*
X233715904Y-207232095D01*
X233715904Y-207041619D01*
X233525428Y-206660666D01*
X233144476Y-206470190D01*
X232573047Y-206470190D01*
X232192095Y-206279714D01*
X232001619Y-205898761D01*
X232001619Y-205708285D01*
X232192095Y-205327333D01*
X232573047Y-205136857D01*
X233144476Y-205136857D01*
X233525428Y-205327333D01*
X235239714Y-207613047D02*
X235620666Y-207803523D01*
X236382571Y-207803523D01*
X236763523Y-207613047D01*
X236954000Y-207232095D01*
X236954000Y-207041619D01*
X236763523Y-206660666D01*
X236382571Y-206470190D01*
X235811142Y-206470190D01*
X235430190Y-206279714D01*
X235239714Y-205898761D01*
X235239714Y-205708285D01*
X235430190Y-205327333D01*
X235811142Y-205136857D01*
X236382571Y-205136857D01*
X236763523Y-205327333D01*
X238477809Y-207613047D02*
X239049238Y-207803523D01*
X240001619Y-207803523D01*
X240382571Y-207613047D01*
X240573047Y-207422571D01*
X240763523Y-207041619D01*
X240763523Y-206660666D01*
X240573047Y-206279714D01*
X240382571Y-206089238D01*
X240001619Y-205898761D01*
X239239714Y-205708285D01*
X238858761Y-205517809D01*
X238668285Y-205327333D01*
X238477809Y-204946380D01*
X238477809Y-204565428D01*
X238668285Y-204184476D01*
X238858761Y-203994000D01*
X239239714Y-203803523D01*
X240192095Y-203803523D01*
X240763523Y-203994000D01*
X241906380Y-205136857D02*
X243430190Y-205136857D01*
X242477809Y-203803523D02*
X242477809Y-207232095D01*
X242668285Y-207613047D01*
X243049238Y-207803523D01*
X243430190Y-207803523D01*
X246477809Y-207803523D02*
X246477809Y-205708285D01*
X246287333Y-205327333D01*
X245906380Y-205136857D01*
X245144476Y-205136857D01*
X244763523Y-205327333D01*
X246477809Y-207613047D02*
X246096857Y-207803523D01*
X245144476Y-207803523D01*
X244763523Y-207613047D01*
X244573047Y-207232095D01*
X244573047Y-206851142D01*
X244763523Y-206470190D01*
X245144476Y-206279714D01*
X246096857Y-206279714D01*
X246477809Y-206089238D01*
X247811142Y-205136857D02*
X249334952Y-205136857D01*
X248382571Y-203803523D02*
X248382571Y-207232095D01*
X248573047Y-207613047D01*
X248954000Y-207803523D01*
X249334952Y-207803523D01*
X250668285Y-207803523D02*
X250668285Y-205136857D01*
X250668285Y-203803523D02*
X250477809Y-203994000D01*
X250668285Y-204184476D01*
X250858761Y-203994000D01*
X250668285Y-203803523D01*
X250668285Y-204184476D01*
X253144476Y-207803523D02*
X252763523Y-207613047D01*
X252573047Y-207422571D01*
X252382571Y-207041619D01*
X252382571Y-205898761D01*
X252573047Y-205517809D01*
X252763523Y-205327333D01*
X253144476Y-205136857D01*
X253715904Y-205136857D01*
X254096857Y-205327333D01*
X254287333Y-205517809D01*
X254477809Y-205898761D01*
X254477809Y-207041619D01*
X254287333Y-207422571D01*
X254096857Y-207613047D01*
X253715904Y-207803523D01*
X253144476Y-207803523D01*
X256192095Y-205136857D02*
X256192095Y-207803523D01*
X256192095Y-205517809D02*
X256382571Y-205327333D01*
X256763523Y-205136857D01*
X257334952Y-205136857D01*
X257715904Y-205327333D01*
X257906380Y-205708285D01*
X257906380Y-207803523D01*
X262668285Y-207613047D02*
X263239714Y-207803523D01*
X264192095Y-207803523D01*
X264573047Y-207613047D01*
X264763523Y-207422571D01*
X264953999Y-207041619D01*
X264953999Y-206660666D01*
X264763523Y-206279714D01*
X264573047Y-206089238D01*
X264192095Y-205898761D01*
X263430190Y-205708285D01*
X263049238Y-205517809D01*
X262858761Y-205327333D01*
X262668285Y-204946380D01*
X262668285Y-204565428D01*
X262858761Y-204184476D01*
X263049238Y-203994000D01*
X263430190Y-203803523D01*
X264382571Y-203803523D01*
X264953999Y-203994000D01*
X268192095Y-207613047D02*
X267811142Y-207803523D01*
X267049238Y-207803523D01*
X266668285Y-207613047D01*
X266477809Y-207232095D01*
X266477809Y-205708285D01*
X266668285Y-205327333D01*
X267049238Y-205136857D01*
X267811142Y-205136857D01*
X268192095Y-205327333D01*
X268382571Y-205708285D01*
X268382571Y-206089238D01*
X266477809Y-206470190D01*
X271811142Y-205136857D02*
X271811142Y-209136857D01*
X271811142Y-207613047D02*
X271430190Y-207803523D01*
X270668285Y-207803523D01*
X270287333Y-207613047D01*
X270096857Y-207422571D01*
X269906380Y-207041619D01*
X269906380Y-205898761D01*
X270096857Y-205517809D01*
X270287333Y-205327333D01*
X270668285Y-205136857D01*
X271430190Y-205136857D01*
X271811142Y-205327333D01*
X275430190Y-205136857D02*
X275430190Y-207803523D01*
X273715904Y-205136857D02*
X273715904Y-207232095D01*
X273906380Y-207613047D01*
X274287333Y-207803523D01*
X274858761Y-207803523D01*
X275239714Y-207613047D01*
X275430190Y-207422571D01*
X278858761Y-207613047D02*
X278477809Y-207803523D01*
X277715904Y-207803523D01*
X277334952Y-207613047D01*
X277144476Y-207232095D01*
X277144476Y-205708285D01*
X277334952Y-205327333D01*
X277715904Y-205136857D01*
X278477809Y-205136857D01*
X278858761Y-205327333D01*
X279049238Y-205708285D01*
X279049238Y-206089238D01*
X277144476Y-206470190D01*
X280763523Y-205136857D02*
X280763523Y-207803523D01*
X280763523Y-205517809D02*
X280954000Y-205327333D01*
X281334952Y-205136857D01*
X281906380Y-205136857D01*
X282287333Y-205327333D01*
X282477809Y-205708285D01*
X282477809Y-207803523D01*
X286096857Y-207613047D02*
X285715904Y-207803523D01*
X284954000Y-207803523D01*
X284573047Y-207613047D01*
X284382571Y-207422571D01*
X284192095Y-207041619D01*
X284192095Y-205898761D01*
X284382571Y-205517809D01*
X284573047Y-205327333D01*
X284954000Y-205136857D01*
X285715904Y-205136857D01*
X286096857Y-205327333D01*
X289334952Y-207613047D02*
X288954000Y-207803523D01*
X288192095Y-207803523D01*
X287811142Y-207613047D01*
X287620666Y-207232095D01*
X287620666Y-205708285D01*
X287811142Y-205327333D01*
X288192095Y-205136857D01*
X288954000Y-205136857D01*
X289334952Y-205327333D01*
X289525428Y-205708285D01*
X289525428Y-206089238D01*
X287620666Y-206470190D01*
X291239714Y-207803523D02*
X291239714Y-205136857D01*
X291239714Y-205898761D02*
X291430190Y-205517809D01*
X291620666Y-205327333D01*
X292001619Y-205136857D01*
X292382571Y-205136857D01*
X299049238Y-207803523D02*
X297715904Y-205898761D01*
X296763523Y-207803523D02*
X296763523Y-203803523D01*
X298287333Y-203803523D01*
X298668285Y-203994000D01*
X298858761Y-204184476D01*
X299049238Y-204565428D01*
X299049238Y-205136857D01*
X298858761Y-205517809D01*
X298668285Y-205708285D01*
X298287333Y-205898761D01*
X296763523Y-205898761D01*
X302287333Y-207613047D02*
X301906380Y-207803523D01*
X301144476Y-207803523D01*
X300763523Y-207613047D01*
X300573047Y-207232095D01*
X300573047Y-205708285D01*
X300763523Y-205327333D01*
X301144476Y-205136857D01*
X301906380Y-205136857D01*
X302287333Y-205327333D01*
X302477809Y-205708285D01*
X302477809Y-206089238D01*
X300573047Y-206470190D01*
X303811142Y-205136857D02*
X304763523Y-207803523D01*
X305715904Y-205136857D01*
X308573047Y-205708285D02*
X309144476Y-205898761D01*
X309334952Y-206089238D01*
X309525428Y-206470190D01*
X309525428Y-207041619D01*
X309334952Y-207422571D01*
X309144476Y-207613047D01*
X308763523Y-207803523D01*
X307239714Y-207803523D01*
X307239714Y-203803523D01*
X308573047Y-203803523D01*
X308954000Y-203994000D01*
X309144476Y-204184476D01*
X309334952Y-204565428D01*
X309334952Y-204946380D01*
X309144476Y-205327333D01*
X308954000Y-205517809D01*
X308573047Y-205708285D01*
X307239714Y-205708285D01*
D13*
X107648476Y-131641904D02*
X108315142Y-132441904D01*
X108315142Y-131641904D02*
X107648476Y-132441904D01*
X108600857Y-131641904D02*
X109267523Y-131641904D01*
X108838952Y-132441904D01*
X133508809Y-111486952D02*
X133508809Y-111867904D01*
X133175476Y-111067904D02*
X133508809Y-111486952D01*
X133842142Y-111067904D01*
X134604047Y-111067904D02*
X134413571Y-111067904D01*
X134318333Y-111106000D01*
X134270714Y-111144095D01*
X134175476Y-111258380D01*
X134127857Y-111410761D01*
X134127857Y-111715523D01*
X134175476Y-111791714D01*
X134223095Y-111829809D01*
X134318333Y-111867904D01*
X134508809Y-111867904D01*
X134604047Y-111829809D01*
X134651666Y-111791714D01*
X134699285Y-111715523D01*
X134699285Y-111525047D01*
X134651666Y-111448857D01*
X134604047Y-111410761D01*
X134508809Y-111372666D01*
X134318333Y-111372666D01*
X134223095Y-111410761D01*
X134175476Y-111448857D01*
X134127857Y-111525047D01*
X125761809Y-111486952D02*
X125761809Y-111867904D01*
X125428476Y-111067904D02*
X125761809Y-111486952D01*
X126095142Y-111067904D01*
X126333238Y-111067904D02*
X126952285Y-111067904D01*
X126618952Y-111372666D01*
X126761809Y-111372666D01*
X126857047Y-111410761D01*
X126904666Y-111448857D01*
X126952285Y-111525047D01*
X126952285Y-111715523D01*
X126904666Y-111791714D01*
X126857047Y-111829809D01*
X126761809Y-111867904D01*
X126476095Y-111867904D01*
X126380857Y-111829809D01*
X126333238Y-111791714D01*
X128428809Y-111486952D02*
X128428809Y-111867904D01*
X128095476Y-111067904D02*
X128428809Y-111486952D01*
X128762142Y-111067904D01*
X129524047Y-111334571D02*
X129524047Y-111867904D01*
X129285952Y-111029809D02*
X129047857Y-111601238D01*
X129666904Y-111601238D01*
X120808809Y-111486952D02*
X120808809Y-111867904D01*
X120475476Y-111067904D02*
X120808809Y-111486952D01*
X121142142Y-111067904D01*
X121999285Y-111867904D02*
X121427857Y-111867904D01*
X121713571Y-111867904D02*
X121713571Y-111067904D01*
X121618333Y-111182190D01*
X121523095Y-111258380D01*
X121427857Y-111296476D01*
X130841809Y-111486952D02*
X130841809Y-111867904D01*
X130508476Y-111067904D02*
X130841809Y-111486952D01*
X131175142Y-111067904D01*
X131984666Y-111067904D02*
X131508476Y-111067904D01*
X131460857Y-111448857D01*
X131508476Y-111410761D01*
X131603714Y-111372666D01*
X131841809Y-111372666D01*
X131937047Y-111410761D01*
X131984666Y-111448857D01*
X132032285Y-111525047D01*
X132032285Y-111715523D01*
X131984666Y-111791714D01*
X131937047Y-111829809D01*
X131841809Y-111867904D01*
X131603714Y-111867904D01*
X131508476Y-111829809D01*
X131460857Y-111791714D01*
X107775476Y-118941904D02*
X108442142Y-119741904D01*
X108442142Y-118941904D02*
X107775476Y-119741904D01*
X108775476Y-119018095D02*
X108823095Y-118980000D01*
X108918333Y-118941904D01*
X109156428Y-118941904D01*
X109251666Y-118980000D01*
X109299285Y-119018095D01*
X109346904Y-119094285D01*
X109346904Y-119170476D01*
X109299285Y-119284761D01*
X108727857Y-119741904D01*
X109346904Y-119741904D01*
X97282142Y-164309904D02*
X97282142Y-163509904D01*
X97853571Y-164309904D02*
X97425000Y-163852761D01*
X97853571Y-163509904D02*
X97282142Y-163967047D01*
X98282142Y-163890857D02*
X98615476Y-163890857D01*
X98758333Y-164309904D02*
X98282142Y-164309904D01*
X98282142Y-163509904D01*
X98758333Y-163509904D01*
X99377380Y-163928952D02*
X99377380Y-164309904D01*
X99044047Y-163509904D02*
X99377380Y-163928952D01*
X99710714Y-163509904D01*
X98258333Y-165521714D02*
X98210714Y-165559809D01*
X98067857Y-165597904D01*
X97972619Y-165597904D01*
X97829761Y-165559809D01*
X97734523Y-165483619D01*
X97686904Y-165407428D01*
X97639285Y-165255047D01*
X97639285Y-165140761D01*
X97686904Y-164988380D01*
X97734523Y-164912190D01*
X97829761Y-164836000D01*
X97972619Y-164797904D01*
X98067857Y-164797904D01*
X98210714Y-164836000D01*
X98258333Y-164874095D01*
X98639285Y-164874095D02*
X98686904Y-164836000D01*
X98782142Y-164797904D01*
X99020238Y-164797904D01*
X99115476Y-164836000D01*
X99163095Y-164874095D01*
X99210714Y-164950285D01*
X99210714Y-165026476D01*
X99163095Y-165140761D01*
X98591666Y-165597904D01*
X99210714Y-165597904D01*
D15*
%TO.C,U1*%
X92608495Y-183754780D02*
X92608495Y-184564304D01*
X92656114Y-184659542D01*
X92703733Y-184707161D01*
X92798971Y-184754780D01*
X92989447Y-184754780D01*
X93084685Y-184707161D01*
X93132304Y-184659542D01*
X93179923Y-184564304D01*
X93179923Y-183754780D01*
X94179923Y-184754780D02*
X93608495Y-184754780D01*
X93894209Y-184754780D02*
X93894209Y-183754780D01*
X93798971Y-183897638D01*
X93703733Y-183992876D01*
X93608495Y-184040495D01*
%TO.C,U2*%
X107594495Y-183754780D02*
X107594495Y-184564304D01*
X107642114Y-184659542D01*
X107689733Y-184707161D01*
X107784971Y-184754780D01*
X107975447Y-184754780D01*
X108070685Y-184707161D01*
X108118304Y-184659542D01*
X108165923Y-184564304D01*
X108165923Y-183754780D01*
X108594495Y-183850019D02*
X108642114Y-183802400D01*
X108737352Y-183754780D01*
X108975447Y-183754780D01*
X109070685Y-183802400D01*
X109118304Y-183850019D01*
X109165923Y-183945257D01*
X109165923Y-184040495D01*
X109118304Y-184183352D01*
X108546876Y-184754780D01*
X109165923Y-184754780D01*
%TO.C,U3*%
X122580495Y-183754780D02*
X122580495Y-184564304D01*
X122628114Y-184659542D01*
X122675733Y-184707161D01*
X122770971Y-184754780D01*
X122961447Y-184754780D01*
X123056685Y-184707161D01*
X123104304Y-184659542D01*
X123151923Y-184564304D01*
X123151923Y-183754780D01*
X123532876Y-183754780D02*
X124151923Y-183754780D01*
X123818590Y-184135733D01*
X123961447Y-184135733D01*
X124056685Y-184183352D01*
X124104304Y-184230971D01*
X124151923Y-184326209D01*
X124151923Y-184564304D01*
X124104304Y-184659542D01*
X124056685Y-184707161D01*
X123961447Y-184754780D01*
X123675733Y-184754780D01*
X123580495Y-184707161D01*
X123532876Y-184659542D01*
%TO.C,U4*%
X137566495Y-183754780D02*
X137566495Y-184564304D01*
X137614114Y-184659542D01*
X137661733Y-184707161D01*
X137756971Y-184754780D01*
X137947447Y-184754780D01*
X138042685Y-184707161D01*
X138090304Y-184659542D01*
X138137923Y-184564304D01*
X138137923Y-183754780D01*
X139042685Y-184088114D02*
X139042685Y-184754780D01*
X138804590Y-183707161D02*
X138566495Y-184421447D01*
X139185542Y-184421447D01*
%TO.C,U5*%
X152552495Y-183754780D02*
X152552495Y-184564304D01*
X152600114Y-184659542D01*
X152647733Y-184707161D01*
X152742971Y-184754780D01*
X152933447Y-184754780D01*
X153028685Y-184707161D01*
X153076304Y-184659542D01*
X153123923Y-184564304D01*
X153123923Y-183754780D01*
X154076304Y-183754780D02*
X153600114Y-183754780D01*
X153552495Y-184230971D01*
X153600114Y-184183352D01*
X153695352Y-184135733D01*
X153933447Y-184135733D01*
X154028685Y-184183352D01*
X154076304Y-184230971D01*
X154123923Y-184326209D01*
X154123923Y-184564304D01*
X154076304Y-184659542D01*
X154028685Y-184707161D01*
X153933447Y-184754780D01*
X153695352Y-184754780D01*
X153600114Y-184707161D01*
X153552495Y-184659542D01*
%TO.C,U6*%
X167589295Y-183754780D02*
X167589295Y-184564304D01*
X167636914Y-184659542D01*
X167684533Y-184707161D01*
X167779771Y-184754780D01*
X167970247Y-184754780D01*
X168065485Y-184707161D01*
X168113104Y-184659542D01*
X168160723Y-184564304D01*
X168160723Y-183754780D01*
X169065485Y-183754780D02*
X168875009Y-183754780D01*
X168779771Y-183802400D01*
X168732152Y-183850019D01*
X168636914Y-183992876D01*
X168589295Y-184183352D01*
X168589295Y-184564304D01*
X168636914Y-184659542D01*
X168684533Y-184707161D01*
X168779771Y-184754780D01*
X168970247Y-184754780D01*
X169065485Y-184707161D01*
X169113104Y-184659542D01*
X169160723Y-184564304D01*
X169160723Y-184326209D01*
X169113104Y-184230971D01*
X169065485Y-184183352D01*
X168970247Y-184135733D01*
X168779771Y-184135733D01*
X168684533Y-184183352D01*
X168636914Y-184230971D01*
X168589295Y-184326209D01*
%TO.C,U7*%
X182575295Y-183754780D02*
X182575295Y-184564304D01*
X182622914Y-184659542D01*
X182670533Y-184707161D01*
X182765771Y-184754780D01*
X182956247Y-184754780D01*
X183051485Y-184707161D01*
X183099104Y-184659542D01*
X183146723Y-184564304D01*
X183146723Y-183754780D01*
X183527676Y-183754780D02*
X184194342Y-183754780D01*
X183765771Y-184754780D01*
%TO.C,U8*%
X197561295Y-183754780D02*
X197561295Y-184564304D01*
X197608914Y-184659542D01*
X197656533Y-184707161D01*
X197751771Y-184754780D01*
X197942247Y-184754780D01*
X198037485Y-184707161D01*
X198085104Y-184659542D01*
X198132723Y-184564304D01*
X198132723Y-183754780D01*
X198751771Y-184183352D02*
X198656533Y-184135733D01*
X198608914Y-184088114D01*
X198561295Y-183992876D01*
X198561295Y-183945257D01*
X198608914Y-183850019D01*
X198656533Y-183802400D01*
X198751771Y-183754780D01*
X198942247Y-183754780D01*
X199037485Y-183802400D01*
X199085104Y-183850019D01*
X199132723Y-183945257D01*
X199132723Y-183992876D01*
X199085104Y-184088114D01*
X199037485Y-184135733D01*
X198942247Y-184183352D01*
X198751771Y-184183352D01*
X198656533Y-184230971D01*
X198608914Y-184278590D01*
X198561295Y-184373828D01*
X198561295Y-184564304D01*
X198608914Y-184659542D01*
X198656533Y-184707161D01*
X198751771Y-184754780D01*
X198942247Y-184754780D01*
X199037485Y-184707161D01*
X199085104Y-184659542D01*
X199132723Y-184564304D01*
X199132723Y-184373828D01*
X199085104Y-184278590D01*
X199037485Y-184230971D01*
X198942247Y-184183352D01*
%TO.C,U9*%
X212547295Y-183729380D02*
X212547295Y-184538904D01*
X212594914Y-184634142D01*
X212642533Y-184681761D01*
X212737771Y-184729380D01*
X212928247Y-184729380D01*
X213023485Y-184681761D01*
X213071104Y-184634142D01*
X213118723Y-184538904D01*
X213118723Y-183729380D01*
X213642533Y-184729380D02*
X213833009Y-184729380D01*
X213928247Y-184681761D01*
X213975866Y-184634142D01*
X214071104Y-184491285D01*
X214118723Y-184300809D01*
X214118723Y-183919857D01*
X214071104Y-183824619D01*
X214023485Y-183777000D01*
X213928247Y-183729380D01*
X213737771Y-183729380D01*
X213642533Y-183777000D01*
X213594914Y-183824619D01*
X213547295Y-183919857D01*
X213547295Y-184157952D01*
X213594914Y-184253190D01*
X213642533Y-184300809D01*
X213737771Y-184348428D01*
X213928247Y-184348428D01*
X214023485Y-184300809D01*
X214071104Y-184253190D01*
X214118723Y-184157952D01*
%TO.C,U10*%
X227082504Y-183729380D02*
X227082504Y-184538904D01*
X227130123Y-184634142D01*
X227177742Y-184681761D01*
X227272980Y-184729380D01*
X227463457Y-184729380D01*
X227558695Y-184681761D01*
X227606314Y-184634142D01*
X227653933Y-184538904D01*
X227653933Y-183729380D01*
X228653933Y-184729380D02*
X228082504Y-184729380D01*
X228368219Y-184729380D02*
X228368219Y-183729380D01*
X228272980Y-183872238D01*
X228177742Y-183967476D01*
X228082504Y-184015095D01*
X229272980Y-183729380D02*
X229368219Y-183729380D01*
X229463457Y-183777000D01*
X229511076Y-183824619D01*
X229558695Y-183919857D01*
X229606314Y-184110333D01*
X229606314Y-184348428D01*
X229558695Y-184538904D01*
X229511076Y-184634142D01*
X229463457Y-184681761D01*
X229368219Y-184729380D01*
X229272980Y-184729380D01*
X229177742Y-184681761D01*
X229130123Y-184634142D01*
X229082504Y-184538904D01*
X229034885Y-184348428D01*
X229034885Y-184110333D01*
X229082504Y-183919857D01*
X229130123Y-183824619D01*
X229177742Y-183777000D01*
X229272980Y-183729380D01*
%TO.C,U11*%
X242068504Y-183729380D02*
X242068504Y-184538904D01*
X242116123Y-184634142D01*
X242163742Y-184681761D01*
X242258980Y-184729380D01*
X242449457Y-184729380D01*
X242544695Y-184681761D01*
X242592314Y-184634142D01*
X242639933Y-184538904D01*
X242639933Y-183729380D01*
X243639933Y-184729380D02*
X243068504Y-184729380D01*
X243354219Y-184729380D02*
X243354219Y-183729380D01*
X243258980Y-183872238D01*
X243163742Y-183967476D01*
X243068504Y-184015095D01*
X244592314Y-184729380D02*
X244020885Y-184729380D01*
X244306600Y-184729380D02*
X244306600Y-183729380D01*
X244211361Y-183872238D01*
X244116123Y-183967476D01*
X244020885Y-184015095D01*
%TO.C,U12*%
X257079904Y-183729380D02*
X257079904Y-184538904D01*
X257127523Y-184634142D01*
X257175142Y-184681761D01*
X257270380Y-184729380D01*
X257460857Y-184729380D01*
X257556095Y-184681761D01*
X257603714Y-184634142D01*
X257651333Y-184538904D01*
X257651333Y-183729380D01*
X258651333Y-184729380D02*
X258079904Y-184729380D01*
X258365619Y-184729380D02*
X258365619Y-183729380D01*
X258270380Y-183872238D01*
X258175142Y-183967476D01*
X258079904Y-184015095D01*
X259032285Y-183824619D02*
X259079904Y-183777000D01*
X259175142Y-183729380D01*
X259413238Y-183729380D01*
X259508476Y-183777000D01*
X259556095Y-183824619D01*
X259603714Y-183919857D01*
X259603714Y-184015095D01*
X259556095Y-184157952D01*
X258984666Y-184729380D01*
X259603714Y-184729380D01*
%TO.C,U13*%
X272065904Y-183729380D02*
X272065904Y-184538904D01*
X272113523Y-184634142D01*
X272161142Y-184681761D01*
X272256380Y-184729380D01*
X272446857Y-184729380D01*
X272542095Y-184681761D01*
X272589714Y-184634142D01*
X272637333Y-184538904D01*
X272637333Y-183729380D01*
X273637333Y-184729380D02*
X273065904Y-184729380D01*
X273351619Y-184729380D02*
X273351619Y-183729380D01*
X273256380Y-183872238D01*
X273161142Y-183967476D01*
X273065904Y-184015095D01*
X273970666Y-183729380D02*
X274589714Y-183729380D01*
X274256380Y-184110333D01*
X274399238Y-184110333D01*
X274494476Y-184157952D01*
X274542095Y-184205571D01*
X274589714Y-184300809D01*
X274589714Y-184538904D01*
X274542095Y-184634142D01*
X274494476Y-184681761D01*
X274399238Y-184729380D01*
X274113523Y-184729380D01*
X274018285Y-184681761D01*
X273970666Y-184634142D01*
%TO.C,U14*%
X287077304Y-183729380D02*
X287077304Y-184538904D01*
X287124923Y-184634142D01*
X287172542Y-184681761D01*
X287267780Y-184729380D01*
X287458257Y-184729380D01*
X287553495Y-184681761D01*
X287601114Y-184634142D01*
X287648733Y-184538904D01*
X287648733Y-183729380D01*
X288648733Y-184729380D02*
X288077304Y-184729380D01*
X288363019Y-184729380D02*
X288363019Y-183729380D01*
X288267780Y-183872238D01*
X288172542Y-183967476D01*
X288077304Y-184015095D01*
X289505876Y-184062714D02*
X289505876Y-184729380D01*
X289267780Y-183681761D02*
X289029685Y-184396047D01*
X289648733Y-184396047D01*
%TO.C,U15*%
X302063304Y-183729380D02*
X302063304Y-184538904D01*
X302110923Y-184634142D01*
X302158542Y-184681761D01*
X302253780Y-184729380D01*
X302444257Y-184729380D01*
X302539495Y-184681761D01*
X302587114Y-184634142D01*
X302634733Y-184538904D01*
X302634733Y-183729380D01*
X303634733Y-184729380D02*
X303063304Y-184729380D01*
X303349019Y-184729380D02*
X303349019Y-183729380D01*
X303253780Y-183872238D01*
X303158542Y-183967476D01*
X303063304Y-184015095D01*
X304539495Y-183729380D02*
X304063304Y-183729380D01*
X304015685Y-184205571D01*
X304063304Y-184157952D01*
X304158542Y-184110333D01*
X304396638Y-184110333D01*
X304491876Y-184157952D01*
X304539495Y-184205571D01*
X304587114Y-184300809D01*
X304587114Y-184538904D01*
X304539495Y-184634142D01*
X304491876Y-184681761D01*
X304396638Y-184729380D01*
X304158542Y-184729380D01*
X304063304Y-184681761D01*
X304015685Y-184634142D01*
%TO.C,U16*%
X317074704Y-183703980D02*
X317074704Y-184513504D01*
X317122323Y-184608742D01*
X317169942Y-184656361D01*
X317265180Y-184703980D01*
X317455657Y-184703980D01*
X317550895Y-184656361D01*
X317598514Y-184608742D01*
X317646133Y-184513504D01*
X317646133Y-183703980D01*
X318646133Y-184703980D02*
X318074704Y-184703980D01*
X318360419Y-184703980D02*
X318360419Y-183703980D01*
X318265180Y-183846838D01*
X318169942Y-183942076D01*
X318074704Y-183989695D01*
X319503276Y-183703980D02*
X319312800Y-183703980D01*
X319217561Y-183751600D01*
X319169942Y-183799219D01*
X319074704Y-183942076D01*
X319027085Y-184132552D01*
X319027085Y-184513504D01*
X319074704Y-184608742D01*
X319122323Y-184656361D01*
X319217561Y-184703980D01*
X319408038Y-184703980D01*
X319503276Y-184656361D01*
X319550895Y-184608742D01*
X319598514Y-184513504D01*
X319598514Y-184275409D01*
X319550895Y-184180171D01*
X319503276Y-184132552D01*
X319408038Y-184084933D01*
X319217561Y-184084933D01*
X319122323Y-184132552D01*
X319074704Y-184180171D01*
X319027085Y-184275409D01*
%TO.C,U32*%
X317074704Y-168997380D02*
X317074704Y-169806904D01*
X317122323Y-169902142D01*
X317169942Y-169949761D01*
X317265180Y-169997380D01*
X317455657Y-169997380D01*
X317550895Y-169949761D01*
X317598514Y-169902142D01*
X317646133Y-169806904D01*
X317646133Y-168997380D01*
X318027085Y-168997380D02*
X318646133Y-168997380D01*
X318312800Y-169378333D01*
X318455657Y-169378333D01*
X318550895Y-169425952D01*
X318598514Y-169473571D01*
X318646133Y-169568809D01*
X318646133Y-169806904D01*
X318598514Y-169902142D01*
X318550895Y-169949761D01*
X318455657Y-169997380D01*
X318169942Y-169997380D01*
X318074704Y-169949761D01*
X318027085Y-169902142D01*
X319027085Y-169092619D02*
X319074704Y-169045000D01*
X319169942Y-168997380D01*
X319408038Y-168997380D01*
X319503276Y-169045000D01*
X319550895Y-169092619D01*
X319598514Y-169187857D01*
X319598514Y-169283095D01*
X319550895Y-169425952D01*
X318979466Y-169997380D01*
X319598514Y-169997380D01*
%TO.C,U31*%
X304196904Y-169124380D02*
X304196904Y-169933904D01*
X304244523Y-170029142D01*
X304292142Y-170076761D01*
X304387380Y-170124380D01*
X304577857Y-170124380D01*
X304673095Y-170076761D01*
X304720714Y-170029142D01*
X304768333Y-169933904D01*
X304768333Y-169124380D01*
X305149285Y-169124380D02*
X305768333Y-169124380D01*
X305435000Y-169505333D01*
X305577857Y-169505333D01*
X305673095Y-169552952D01*
X305720714Y-169600571D01*
X305768333Y-169695809D01*
X305768333Y-169933904D01*
X305720714Y-170029142D01*
X305673095Y-170076761D01*
X305577857Y-170124380D01*
X305292142Y-170124380D01*
X305196904Y-170076761D01*
X305149285Y-170029142D01*
X306720714Y-170124380D02*
X306149285Y-170124380D01*
X306435000Y-170124380D02*
X306435000Y-169124380D01*
X306339761Y-169267238D01*
X306244523Y-169362476D01*
X306149285Y-169410095D01*
%TO.C,U30*%
X287051904Y-168997380D02*
X287051904Y-169806904D01*
X287099523Y-169902142D01*
X287147142Y-169949761D01*
X287242380Y-169997380D01*
X287432857Y-169997380D01*
X287528095Y-169949761D01*
X287575714Y-169902142D01*
X287623333Y-169806904D01*
X287623333Y-168997380D01*
X288004285Y-168997380D02*
X288623333Y-168997380D01*
X288290000Y-169378333D01*
X288432857Y-169378333D01*
X288528095Y-169425952D01*
X288575714Y-169473571D01*
X288623333Y-169568809D01*
X288623333Y-169806904D01*
X288575714Y-169902142D01*
X288528095Y-169949761D01*
X288432857Y-169997380D01*
X288147142Y-169997380D01*
X288051904Y-169949761D01*
X288004285Y-169902142D01*
X289242380Y-168997380D02*
X289337619Y-168997380D01*
X289432857Y-169045000D01*
X289480476Y-169092619D01*
X289528095Y-169187857D01*
X289575714Y-169378333D01*
X289575714Y-169616428D01*
X289528095Y-169806904D01*
X289480476Y-169902142D01*
X289432857Y-169949761D01*
X289337619Y-169997380D01*
X289242380Y-169997380D01*
X289147142Y-169949761D01*
X289099523Y-169902142D01*
X289051904Y-169806904D01*
X289004285Y-169616428D01*
X289004285Y-169378333D01*
X289051904Y-169187857D01*
X289099523Y-169092619D01*
X289147142Y-169045000D01*
X289242380Y-168997380D01*
%TO.C,U29*%
X272700904Y-168997380D02*
X272700904Y-169806904D01*
X272748523Y-169902142D01*
X272796142Y-169949761D01*
X272891380Y-169997380D01*
X273081857Y-169997380D01*
X273177095Y-169949761D01*
X273224714Y-169902142D01*
X273272333Y-169806904D01*
X273272333Y-168997380D01*
X273700904Y-169092619D02*
X273748523Y-169045000D01*
X273843761Y-168997380D01*
X274081857Y-168997380D01*
X274177095Y-169045000D01*
X274224714Y-169092619D01*
X274272333Y-169187857D01*
X274272333Y-169283095D01*
X274224714Y-169425952D01*
X273653285Y-169997380D01*
X274272333Y-169997380D01*
X274748523Y-169997380D02*
X274939000Y-169997380D01*
X275034238Y-169949761D01*
X275081857Y-169902142D01*
X275177095Y-169759285D01*
X275224714Y-169568809D01*
X275224714Y-169187857D01*
X275177095Y-169092619D01*
X275129476Y-169045000D01*
X275034238Y-168997380D01*
X274843761Y-168997380D01*
X274748523Y-169045000D01*
X274700904Y-169092619D01*
X274653285Y-169187857D01*
X274653285Y-169425952D01*
X274700904Y-169521190D01*
X274748523Y-169568809D01*
X274843761Y-169616428D01*
X275034238Y-169616428D01*
X275129476Y-169568809D01*
X275177095Y-169521190D01*
X275224714Y-169425952D01*
%TO.C,U28*%
X257079904Y-168870380D02*
X257079904Y-169679904D01*
X257127523Y-169775142D01*
X257175142Y-169822761D01*
X257270380Y-169870380D01*
X257460857Y-169870380D01*
X257556095Y-169822761D01*
X257603714Y-169775142D01*
X257651333Y-169679904D01*
X257651333Y-168870380D01*
X258079904Y-168965619D02*
X258127523Y-168918000D01*
X258222761Y-168870380D01*
X258460857Y-168870380D01*
X258556095Y-168918000D01*
X258603714Y-168965619D01*
X258651333Y-169060857D01*
X258651333Y-169156095D01*
X258603714Y-169298952D01*
X258032285Y-169870380D01*
X258651333Y-169870380D01*
X259222761Y-169298952D02*
X259127523Y-169251333D01*
X259079904Y-169203714D01*
X259032285Y-169108476D01*
X259032285Y-169060857D01*
X259079904Y-168965619D01*
X259127523Y-168918000D01*
X259222761Y-168870380D01*
X259413238Y-168870380D01*
X259508476Y-168918000D01*
X259556095Y-168965619D01*
X259603714Y-169060857D01*
X259603714Y-169108476D01*
X259556095Y-169203714D01*
X259508476Y-169251333D01*
X259413238Y-169298952D01*
X259222761Y-169298952D01*
X259127523Y-169346571D01*
X259079904Y-169394190D01*
X259032285Y-169489428D01*
X259032285Y-169679904D01*
X259079904Y-169775142D01*
X259127523Y-169822761D01*
X259222761Y-169870380D01*
X259413238Y-169870380D01*
X259508476Y-169822761D01*
X259556095Y-169775142D01*
X259603714Y-169679904D01*
X259603714Y-169489428D01*
X259556095Y-169394190D01*
X259508476Y-169346571D01*
X259413238Y-169298952D01*
%TO.C,U27*%
X242068504Y-168870380D02*
X242068504Y-169679904D01*
X242116123Y-169775142D01*
X242163742Y-169822761D01*
X242258980Y-169870380D01*
X242449457Y-169870380D01*
X242544695Y-169822761D01*
X242592314Y-169775142D01*
X242639933Y-169679904D01*
X242639933Y-168870380D01*
X243068504Y-168965619D02*
X243116123Y-168918000D01*
X243211361Y-168870380D01*
X243449457Y-168870380D01*
X243544695Y-168918000D01*
X243592314Y-168965619D01*
X243639933Y-169060857D01*
X243639933Y-169156095D01*
X243592314Y-169298952D01*
X243020885Y-169870380D01*
X243639933Y-169870380D01*
X243973266Y-168870380D02*
X244639933Y-168870380D01*
X244211361Y-169870380D01*
%TO.C,U26*%
X227107904Y-168870380D02*
X227107904Y-169679904D01*
X227155523Y-169775142D01*
X227203142Y-169822761D01*
X227298380Y-169870380D01*
X227488857Y-169870380D01*
X227584095Y-169822761D01*
X227631714Y-169775142D01*
X227679333Y-169679904D01*
X227679333Y-168870380D01*
X228107904Y-168965619D02*
X228155523Y-168918000D01*
X228250761Y-168870380D01*
X228488857Y-168870380D01*
X228584095Y-168918000D01*
X228631714Y-168965619D01*
X228679333Y-169060857D01*
X228679333Y-169156095D01*
X228631714Y-169298952D01*
X228060285Y-169870380D01*
X228679333Y-169870380D01*
X229536476Y-168870380D02*
X229346000Y-168870380D01*
X229250761Y-168918000D01*
X229203142Y-168965619D01*
X229107904Y-169108476D01*
X229060285Y-169298952D01*
X229060285Y-169679904D01*
X229107904Y-169775142D01*
X229155523Y-169822761D01*
X229250761Y-169870380D01*
X229441238Y-169870380D01*
X229536476Y-169822761D01*
X229584095Y-169775142D01*
X229631714Y-169679904D01*
X229631714Y-169441809D01*
X229584095Y-169346571D01*
X229536476Y-169298952D01*
X229441238Y-169251333D01*
X229250761Y-169251333D01*
X229155523Y-169298952D01*
X229107904Y-169346571D01*
X229060285Y-169441809D01*
%TO.C,U25*%
X212071104Y-168870380D02*
X212071104Y-169679904D01*
X212118723Y-169775142D01*
X212166342Y-169822761D01*
X212261580Y-169870380D01*
X212452057Y-169870380D01*
X212547295Y-169822761D01*
X212594914Y-169775142D01*
X212642533Y-169679904D01*
X212642533Y-168870380D01*
X213071104Y-168965619D02*
X213118723Y-168918000D01*
X213213961Y-168870380D01*
X213452057Y-168870380D01*
X213547295Y-168918000D01*
X213594914Y-168965619D01*
X213642533Y-169060857D01*
X213642533Y-169156095D01*
X213594914Y-169298952D01*
X213023485Y-169870380D01*
X213642533Y-169870380D01*
X214547295Y-168870380D02*
X214071104Y-168870380D01*
X214023485Y-169346571D01*
X214071104Y-169298952D01*
X214166342Y-169251333D01*
X214404438Y-169251333D01*
X214499676Y-169298952D01*
X214547295Y-169346571D01*
X214594914Y-169441809D01*
X214594914Y-169679904D01*
X214547295Y-169775142D01*
X214499676Y-169822761D01*
X214404438Y-169870380D01*
X214166342Y-169870380D01*
X214071104Y-169822761D01*
X214023485Y-169775142D01*
%TO.C,U24*%
X197085104Y-168870380D02*
X197085104Y-169679904D01*
X197132723Y-169775142D01*
X197180342Y-169822761D01*
X197275580Y-169870380D01*
X197466057Y-169870380D01*
X197561295Y-169822761D01*
X197608914Y-169775142D01*
X197656533Y-169679904D01*
X197656533Y-168870380D01*
X198085104Y-168965619D02*
X198132723Y-168918000D01*
X198227961Y-168870380D01*
X198466057Y-168870380D01*
X198561295Y-168918000D01*
X198608914Y-168965619D01*
X198656533Y-169060857D01*
X198656533Y-169156095D01*
X198608914Y-169298952D01*
X198037485Y-169870380D01*
X198656533Y-169870380D01*
X199513676Y-169203714D02*
X199513676Y-169870380D01*
X199275580Y-168822761D02*
X199037485Y-169537047D01*
X199656533Y-169537047D01*
%TO.C,U23*%
X182099104Y-168870380D02*
X182099104Y-169679904D01*
X182146723Y-169775142D01*
X182194342Y-169822761D01*
X182289580Y-169870380D01*
X182480057Y-169870380D01*
X182575295Y-169822761D01*
X182622914Y-169775142D01*
X182670533Y-169679904D01*
X182670533Y-168870380D01*
X183099104Y-168965619D02*
X183146723Y-168918000D01*
X183241961Y-168870380D01*
X183480057Y-168870380D01*
X183575295Y-168918000D01*
X183622914Y-168965619D01*
X183670533Y-169060857D01*
X183670533Y-169156095D01*
X183622914Y-169298952D01*
X183051485Y-169870380D01*
X183670533Y-169870380D01*
X184003866Y-168870380D02*
X184622914Y-168870380D01*
X184289580Y-169251333D01*
X184432438Y-169251333D01*
X184527676Y-169298952D01*
X184575295Y-169346571D01*
X184622914Y-169441809D01*
X184622914Y-169679904D01*
X184575295Y-169775142D01*
X184527676Y-169822761D01*
X184432438Y-169870380D01*
X184146723Y-169870380D01*
X184051485Y-169822761D01*
X184003866Y-169775142D01*
%TO.C,U22*%
X167113104Y-168717980D02*
X167113104Y-169527504D01*
X167160723Y-169622742D01*
X167208342Y-169670361D01*
X167303580Y-169717980D01*
X167494057Y-169717980D01*
X167589295Y-169670361D01*
X167636914Y-169622742D01*
X167684533Y-169527504D01*
X167684533Y-168717980D01*
X168113104Y-168813219D02*
X168160723Y-168765600D01*
X168255961Y-168717980D01*
X168494057Y-168717980D01*
X168589295Y-168765600D01*
X168636914Y-168813219D01*
X168684533Y-168908457D01*
X168684533Y-169003695D01*
X168636914Y-169146552D01*
X168065485Y-169717980D01*
X168684533Y-169717980D01*
X169065485Y-168813219D02*
X169113104Y-168765600D01*
X169208342Y-168717980D01*
X169446438Y-168717980D01*
X169541676Y-168765600D01*
X169589295Y-168813219D01*
X169636914Y-168908457D01*
X169636914Y-169003695D01*
X169589295Y-169146552D01*
X169017866Y-169717980D01*
X169636914Y-169717980D01*
%TO.C,U21*%
X152076304Y-168870380D02*
X152076304Y-169679904D01*
X152123923Y-169775142D01*
X152171542Y-169822761D01*
X152266780Y-169870380D01*
X152457257Y-169870380D01*
X152552495Y-169822761D01*
X152600114Y-169775142D01*
X152647733Y-169679904D01*
X152647733Y-168870380D01*
X153076304Y-168965619D02*
X153123923Y-168918000D01*
X153219161Y-168870380D01*
X153457257Y-168870380D01*
X153552495Y-168918000D01*
X153600114Y-168965619D01*
X153647733Y-169060857D01*
X153647733Y-169156095D01*
X153600114Y-169298952D01*
X153028685Y-169870380D01*
X153647733Y-169870380D01*
X154600114Y-169870380D02*
X154028685Y-169870380D01*
X154314400Y-169870380D02*
X154314400Y-168870380D01*
X154219161Y-169013238D01*
X154123923Y-169108476D01*
X154028685Y-169156095D01*
%TO.C,U20*%
X137090304Y-168870380D02*
X137090304Y-169679904D01*
X137137923Y-169775142D01*
X137185542Y-169822761D01*
X137280780Y-169870380D01*
X137471257Y-169870380D01*
X137566495Y-169822761D01*
X137614114Y-169775142D01*
X137661733Y-169679904D01*
X137661733Y-168870380D01*
X138090304Y-168965619D02*
X138137923Y-168918000D01*
X138233161Y-168870380D01*
X138471257Y-168870380D01*
X138566495Y-168918000D01*
X138614114Y-168965619D01*
X138661733Y-169060857D01*
X138661733Y-169156095D01*
X138614114Y-169298952D01*
X138042685Y-169870380D01*
X138661733Y-169870380D01*
X139280780Y-168870380D02*
X139376019Y-168870380D01*
X139471257Y-168918000D01*
X139518876Y-168965619D01*
X139566495Y-169060857D01*
X139614114Y-169251333D01*
X139614114Y-169489428D01*
X139566495Y-169679904D01*
X139518876Y-169775142D01*
X139471257Y-169822761D01*
X139376019Y-169870380D01*
X139280780Y-169870380D01*
X139185542Y-169822761D01*
X139137923Y-169775142D01*
X139090304Y-169679904D01*
X139042685Y-169489428D01*
X139042685Y-169251333D01*
X139090304Y-169060857D01*
X139137923Y-168965619D01*
X139185542Y-168918000D01*
X139280780Y-168870380D01*
%TO.C,U19*%
X122078904Y-168870380D02*
X122078904Y-169679904D01*
X122126523Y-169775142D01*
X122174142Y-169822761D01*
X122269380Y-169870380D01*
X122459857Y-169870380D01*
X122555095Y-169822761D01*
X122602714Y-169775142D01*
X122650333Y-169679904D01*
X122650333Y-168870380D01*
X123650333Y-169870380D02*
X123078904Y-169870380D01*
X123364619Y-169870380D02*
X123364619Y-168870380D01*
X123269380Y-169013238D01*
X123174142Y-169108476D01*
X123078904Y-169156095D01*
X124126523Y-169870380D02*
X124317000Y-169870380D01*
X124412238Y-169822761D01*
X124459857Y-169775142D01*
X124555095Y-169632285D01*
X124602714Y-169441809D01*
X124602714Y-169060857D01*
X124555095Y-168965619D01*
X124507476Y-168918000D01*
X124412238Y-168870380D01*
X124221761Y-168870380D01*
X124126523Y-168918000D01*
X124078904Y-168965619D01*
X124031285Y-169060857D01*
X124031285Y-169298952D01*
X124078904Y-169394190D01*
X124126523Y-169441809D01*
X124221761Y-169489428D01*
X124412238Y-169489428D01*
X124507476Y-169441809D01*
X124555095Y-169394190D01*
X124602714Y-169298952D01*
%TO.C,U18*%
X107118304Y-168717980D02*
X107118304Y-169527504D01*
X107165923Y-169622742D01*
X107213542Y-169670361D01*
X107308780Y-169717980D01*
X107499257Y-169717980D01*
X107594495Y-169670361D01*
X107642114Y-169622742D01*
X107689733Y-169527504D01*
X107689733Y-168717980D01*
X108689733Y-169717980D02*
X108118304Y-169717980D01*
X108404019Y-169717980D02*
X108404019Y-168717980D01*
X108308780Y-168860838D01*
X108213542Y-168956076D01*
X108118304Y-169003695D01*
X109261161Y-169146552D02*
X109165923Y-169098933D01*
X109118304Y-169051314D01*
X109070685Y-168956076D01*
X109070685Y-168908457D01*
X109118304Y-168813219D01*
X109165923Y-168765600D01*
X109261161Y-168717980D01*
X109451638Y-168717980D01*
X109546876Y-168765600D01*
X109594495Y-168813219D01*
X109642114Y-168908457D01*
X109642114Y-168956076D01*
X109594495Y-169051314D01*
X109546876Y-169098933D01*
X109451638Y-169146552D01*
X109261161Y-169146552D01*
X109165923Y-169194171D01*
X109118304Y-169241790D01*
X109070685Y-169337028D01*
X109070685Y-169527504D01*
X109118304Y-169622742D01*
X109165923Y-169670361D01*
X109261161Y-169717980D01*
X109451638Y-169717980D01*
X109546876Y-169670361D01*
X109594495Y-169622742D01*
X109642114Y-169527504D01*
X109642114Y-169337028D01*
X109594495Y-169241790D01*
X109546876Y-169194171D01*
X109451638Y-169146552D01*
%TO.C,U17*%
X92132304Y-168870380D02*
X92132304Y-169679904D01*
X92179923Y-169775142D01*
X92227542Y-169822761D01*
X92322780Y-169870380D01*
X92513257Y-169870380D01*
X92608495Y-169822761D01*
X92656114Y-169775142D01*
X92703733Y-169679904D01*
X92703733Y-168870380D01*
X93703733Y-169870380D02*
X93132304Y-169870380D01*
X93418019Y-169870380D02*
X93418019Y-168870380D01*
X93322780Y-169013238D01*
X93227542Y-169108476D01*
X93132304Y-169156095D01*
X94037066Y-168870380D02*
X94703733Y-168870380D01*
X94275161Y-169870380D01*
%TO.C,REF\u002A\u002A*%
X205676666Y-224607380D02*
X205343333Y-224131190D01*
X205105238Y-224607380D02*
X205105238Y-223607380D01*
X205486190Y-223607380D01*
X205581428Y-223655000D01*
X205629047Y-223702619D01*
X205676666Y-223797857D01*
X205676666Y-223940714D01*
X205629047Y-224035952D01*
X205581428Y-224083571D01*
X205486190Y-224131190D01*
X205105238Y-224131190D01*
X206105238Y-224083571D02*
X206438571Y-224083571D01*
X206581428Y-224607380D02*
X206105238Y-224607380D01*
X206105238Y-223607380D01*
X206581428Y-223607380D01*
X207343333Y-224083571D02*
X207010000Y-224083571D01*
X207010000Y-224607380D02*
X207010000Y-223607380D01*
X207486190Y-223607380D01*
X208010000Y-223607380D02*
X208010000Y-223845476D01*
X207771904Y-223750238D02*
X208010000Y-223845476D01*
X208248095Y-223750238D01*
X207867142Y-224035952D02*
X208010000Y-223845476D01*
X208152857Y-224035952D01*
X208771904Y-223607380D02*
X208771904Y-223845476D01*
X208533809Y-223750238D02*
X208771904Y-223845476D01*
X209010000Y-223750238D01*
X208629047Y-224035952D02*
X208771904Y-223845476D01*
X208914761Y-224035952D01*
D13*
%TO.C,C6*%
X138771333Y-151542714D02*
X138723714Y-151580809D01*
X138580857Y-151618904D01*
X138485619Y-151618904D01*
X138342761Y-151580809D01*
X138247523Y-151504619D01*
X138199904Y-151428428D01*
X138152285Y-151276047D01*
X138152285Y-151161761D01*
X138199904Y-151009380D01*
X138247523Y-150933190D01*
X138342761Y-150857000D01*
X138485619Y-150818904D01*
X138580857Y-150818904D01*
X138723714Y-150857000D01*
X138771333Y-150895095D01*
X139628476Y-150818904D02*
X139438000Y-150818904D01*
X139342761Y-150857000D01*
X139295142Y-150895095D01*
X139199904Y-151009380D01*
X139152285Y-151161761D01*
X139152285Y-151466523D01*
X139199904Y-151542714D01*
X139247523Y-151580809D01*
X139342761Y-151618904D01*
X139533238Y-151618904D01*
X139628476Y-151580809D01*
X139676095Y-151542714D01*
X139723714Y-151466523D01*
X139723714Y-151276047D01*
X139676095Y-151199857D01*
X139628476Y-151161761D01*
X139533238Y-151123666D01*
X139342761Y-151123666D01*
X139247523Y-151161761D01*
X139199904Y-151199857D01*
X139152285Y-151276047D01*
%TO.C,C7*%
X141311333Y-151542714D02*
X141263714Y-151580809D01*
X141120857Y-151618904D01*
X141025619Y-151618904D01*
X140882761Y-151580809D01*
X140787523Y-151504619D01*
X140739904Y-151428428D01*
X140692285Y-151276047D01*
X140692285Y-151161761D01*
X140739904Y-151009380D01*
X140787523Y-150933190D01*
X140882761Y-150857000D01*
X141025619Y-150818904D01*
X141120857Y-150818904D01*
X141263714Y-150857000D01*
X141311333Y-150895095D01*
X141644666Y-150818904D02*
X142311333Y-150818904D01*
X141882761Y-151618904D01*
%TO.C,C8*%
X198334333Y-137191714D02*
X198286714Y-137229809D01*
X198143857Y-137267904D01*
X198048619Y-137267904D01*
X197905761Y-137229809D01*
X197810523Y-137153619D01*
X197762904Y-137077428D01*
X197715285Y-136925047D01*
X197715285Y-136810761D01*
X197762904Y-136658380D01*
X197810523Y-136582190D01*
X197905761Y-136506000D01*
X198048619Y-136467904D01*
X198143857Y-136467904D01*
X198286714Y-136506000D01*
X198334333Y-136544095D01*
X198905761Y-136810761D02*
X198810523Y-136772666D01*
X198762904Y-136734571D01*
X198715285Y-136658380D01*
X198715285Y-136620285D01*
X198762904Y-136544095D01*
X198810523Y-136506000D01*
X198905761Y-136467904D01*
X199096238Y-136467904D01*
X199191476Y-136506000D01*
X199239095Y-136544095D01*
X199286714Y-136620285D01*
X199286714Y-136658380D01*
X199239095Y-136734571D01*
X199191476Y-136772666D01*
X199096238Y-136810761D01*
X198905761Y-136810761D01*
X198810523Y-136848857D01*
X198762904Y-136886952D01*
X198715285Y-136963142D01*
X198715285Y-137115523D01*
X198762904Y-137191714D01*
X198810523Y-137229809D01*
X198905761Y-137267904D01*
X199096238Y-137267904D01*
X199191476Y-137229809D01*
X199239095Y-137191714D01*
X199286714Y-137115523D01*
X199286714Y-136963142D01*
X199239095Y-136886952D01*
X199191476Y-136848857D01*
X199096238Y-136810761D01*
%TO.C,C11*%
X128008142Y-121316714D02*
X127960523Y-121354809D01*
X127817666Y-121392904D01*
X127722428Y-121392904D01*
X127579571Y-121354809D01*
X127484333Y-121278619D01*
X127436714Y-121202428D01*
X127389095Y-121050047D01*
X127389095Y-120935761D01*
X127436714Y-120783380D01*
X127484333Y-120707190D01*
X127579571Y-120631000D01*
X127722428Y-120592904D01*
X127817666Y-120592904D01*
X127960523Y-120631000D01*
X128008142Y-120669095D01*
X128960523Y-121392904D02*
X128389095Y-121392904D01*
X128674809Y-121392904D02*
X128674809Y-120592904D01*
X128579571Y-120707190D01*
X128484333Y-120783380D01*
X128389095Y-120821476D01*
X129912904Y-121392904D02*
X129341476Y-121392904D01*
X129627190Y-121392904D02*
X129627190Y-120592904D01*
X129531952Y-120707190D01*
X129436714Y-120783380D01*
X129341476Y-120821476D01*
%TO.C,C12*%
X132834142Y-115728714D02*
X132786523Y-115766809D01*
X132643666Y-115804904D01*
X132548428Y-115804904D01*
X132405571Y-115766809D01*
X132310333Y-115690619D01*
X132262714Y-115614428D01*
X132215095Y-115462047D01*
X132215095Y-115347761D01*
X132262714Y-115195380D01*
X132310333Y-115119190D01*
X132405571Y-115043000D01*
X132548428Y-115004904D01*
X132643666Y-115004904D01*
X132786523Y-115043000D01*
X132834142Y-115081095D01*
X133786523Y-115804904D02*
X133215095Y-115804904D01*
X133500809Y-115804904D02*
X133500809Y-115004904D01*
X133405571Y-115119190D01*
X133310333Y-115195380D01*
X133215095Y-115233476D01*
X134167476Y-115081095D02*
X134215095Y-115043000D01*
X134310333Y-115004904D01*
X134548428Y-115004904D01*
X134643666Y-115043000D01*
X134691285Y-115081095D01*
X134738904Y-115157285D01*
X134738904Y-115233476D01*
X134691285Y-115347761D01*
X134119857Y-115804904D01*
X134738904Y-115804904D01*
%TO.C,C13*%
X128135142Y-115982714D02*
X128087523Y-116020809D01*
X127944666Y-116058904D01*
X127849428Y-116058904D01*
X127706571Y-116020809D01*
X127611333Y-115944619D01*
X127563714Y-115868428D01*
X127516095Y-115716047D01*
X127516095Y-115601761D01*
X127563714Y-115449380D01*
X127611333Y-115373190D01*
X127706571Y-115297000D01*
X127849428Y-115258904D01*
X127944666Y-115258904D01*
X128087523Y-115297000D01*
X128135142Y-115335095D01*
X129087523Y-116058904D02*
X128516095Y-116058904D01*
X128801809Y-116058904D02*
X128801809Y-115258904D01*
X128706571Y-115373190D01*
X128611333Y-115449380D01*
X128516095Y-115487476D01*
X129420857Y-115258904D02*
X130039904Y-115258904D01*
X129706571Y-115563666D01*
X129849428Y-115563666D01*
X129944666Y-115601761D01*
X129992285Y-115639857D01*
X130039904Y-115716047D01*
X130039904Y-115906523D01*
X129992285Y-115982714D01*
X129944666Y-116020809D01*
X129849428Y-116058904D01*
X129563714Y-116058904D01*
X129468476Y-116020809D01*
X129420857Y-115982714D01*
%TO.C,C14*%
X132834142Y-121951714D02*
X132786523Y-121989809D01*
X132643666Y-122027904D01*
X132548428Y-122027904D01*
X132405571Y-121989809D01*
X132310333Y-121913619D01*
X132262714Y-121837428D01*
X132215095Y-121685047D01*
X132215095Y-121570761D01*
X132262714Y-121418380D01*
X132310333Y-121342190D01*
X132405571Y-121266000D01*
X132548428Y-121227904D01*
X132643666Y-121227904D01*
X132786523Y-121266000D01*
X132834142Y-121304095D01*
X133786523Y-122027904D02*
X133215095Y-122027904D01*
X133500809Y-122027904D02*
X133500809Y-121227904D01*
X133405571Y-121342190D01*
X133310333Y-121418380D01*
X133215095Y-121456476D01*
X134643666Y-121494571D02*
X134643666Y-122027904D01*
X134405571Y-121189809D02*
X134167476Y-121761238D01*
X134786523Y-121761238D01*
%TO.C,C15*%
X120427714Y-133992857D02*
X120465809Y-134040476D01*
X120503904Y-134183333D01*
X120503904Y-134278571D01*
X120465809Y-134421428D01*
X120389619Y-134516666D01*
X120313428Y-134564285D01*
X120161047Y-134611904D01*
X120046761Y-134611904D01*
X119894380Y-134564285D01*
X119818190Y-134516666D01*
X119742000Y-134421428D01*
X119703904Y-134278571D01*
X119703904Y-134183333D01*
X119742000Y-134040476D01*
X119780095Y-133992857D01*
X120503904Y-133040476D02*
X120503904Y-133611904D01*
X120503904Y-133326190D02*
X119703904Y-133326190D01*
X119818190Y-133421428D01*
X119894380Y-133516666D01*
X119932476Y-133611904D01*
X119703904Y-132135714D02*
X119703904Y-132611904D01*
X120084857Y-132659523D01*
X120046761Y-132611904D01*
X120008666Y-132516666D01*
X120008666Y-132278571D01*
X120046761Y-132183333D01*
X120084857Y-132135714D01*
X120161047Y-132088095D01*
X120351523Y-132088095D01*
X120427714Y-132135714D01*
X120465809Y-132183333D01*
X120503904Y-132278571D01*
X120503904Y-132516666D01*
X120465809Y-132611904D01*
X120427714Y-132659523D01*
%TO.C,C16*%
X122967714Y-133992857D02*
X123005809Y-134040476D01*
X123043904Y-134183333D01*
X123043904Y-134278571D01*
X123005809Y-134421428D01*
X122929619Y-134516666D01*
X122853428Y-134564285D01*
X122701047Y-134611904D01*
X122586761Y-134611904D01*
X122434380Y-134564285D01*
X122358190Y-134516666D01*
X122282000Y-134421428D01*
X122243904Y-134278571D01*
X122243904Y-134183333D01*
X122282000Y-134040476D01*
X122320095Y-133992857D01*
X123043904Y-133040476D02*
X123043904Y-133611904D01*
X123043904Y-133326190D02*
X122243904Y-133326190D01*
X122358190Y-133421428D01*
X122434380Y-133516666D01*
X122472476Y-133611904D01*
X122243904Y-132183333D02*
X122243904Y-132373809D01*
X122282000Y-132469047D01*
X122320095Y-132516666D01*
X122434380Y-132611904D01*
X122586761Y-132659523D01*
X122891523Y-132659523D01*
X122967714Y-132611904D01*
X123005809Y-132564285D01*
X123043904Y-132469047D01*
X123043904Y-132278571D01*
X123005809Y-132183333D01*
X122967714Y-132135714D01*
X122891523Y-132088095D01*
X122701047Y-132088095D01*
X122624857Y-132135714D01*
X122586761Y-132183333D01*
X122548666Y-132278571D01*
X122548666Y-132469047D01*
X122586761Y-132564285D01*
X122624857Y-132611904D01*
X122701047Y-132659523D01*
%TO.C,C17*%
X110101142Y-141509714D02*
X110053523Y-141547809D01*
X109910666Y-141585904D01*
X109815428Y-141585904D01*
X109672571Y-141547809D01*
X109577333Y-141471619D01*
X109529714Y-141395428D01*
X109482095Y-141243047D01*
X109482095Y-141128761D01*
X109529714Y-140976380D01*
X109577333Y-140900190D01*
X109672571Y-140824000D01*
X109815428Y-140785904D01*
X109910666Y-140785904D01*
X110053523Y-140824000D01*
X110101142Y-140862095D01*
X111053523Y-141585904D02*
X110482095Y-141585904D01*
X110767809Y-141585904D02*
X110767809Y-140785904D01*
X110672571Y-140900190D01*
X110577333Y-140976380D01*
X110482095Y-141014476D01*
X111386857Y-140785904D02*
X112053523Y-140785904D01*
X111624952Y-141585904D01*
%TO.C,C18*%
X119245142Y-143033714D02*
X119197523Y-143071809D01*
X119054666Y-143109904D01*
X118959428Y-143109904D01*
X118816571Y-143071809D01*
X118721333Y-142995619D01*
X118673714Y-142919428D01*
X118626095Y-142767047D01*
X118626095Y-142652761D01*
X118673714Y-142500380D01*
X118721333Y-142424190D01*
X118816571Y-142348000D01*
X118959428Y-142309904D01*
X119054666Y-142309904D01*
X119197523Y-142348000D01*
X119245142Y-142386095D01*
X120197523Y-143109904D02*
X119626095Y-143109904D01*
X119911809Y-143109904D02*
X119911809Y-142309904D01*
X119816571Y-142424190D01*
X119721333Y-142500380D01*
X119626095Y-142538476D01*
X120768952Y-142652761D02*
X120673714Y-142614666D01*
X120626095Y-142576571D01*
X120578476Y-142500380D01*
X120578476Y-142462285D01*
X120626095Y-142386095D01*
X120673714Y-142348000D01*
X120768952Y-142309904D01*
X120959428Y-142309904D01*
X121054666Y-142348000D01*
X121102285Y-142386095D01*
X121149904Y-142462285D01*
X121149904Y-142500380D01*
X121102285Y-142576571D01*
X121054666Y-142614666D01*
X120959428Y-142652761D01*
X120768952Y-142652761D01*
X120673714Y-142690857D01*
X120626095Y-142728952D01*
X120578476Y-142805142D01*
X120578476Y-142957523D01*
X120626095Y-143033714D01*
X120673714Y-143071809D01*
X120768952Y-143109904D01*
X120959428Y-143109904D01*
X121054666Y-143071809D01*
X121102285Y-143033714D01*
X121149904Y-142957523D01*
X121149904Y-142805142D01*
X121102285Y-142728952D01*
X121054666Y-142690857D01*
X120959428Y-142652761D01*
%TO.C,C19*%
X122674142Y-143033714D02*
X122626523Y-143071809D01*
X122483666Y-143109904D01*
X122388428Y-143109904D01*
X122245571Y-143071809D01*
X122150333Y-142995619D01*
X122102714Y-142919428D01*
X122055095Y-142767047D01*
X122055095Y-142652761D01*
X122102714Y-142500380D01*
X122150333Y-142424190D01*
X122245571Y-142348000D01*
X122388428Y-142309904D01*
X122483666Y-142309904D01*
X122626523Y-142348000D01*
X122674142Y-142386095D01*
X123626523Y-143109904D02*
X123055095Y-143109904D01*
X123340809Y-143109904D02*
X123340809Y-142309904D01*
X123245571Y-142424190D01*
X123150333Y-142500380D01*
X123055095Y-142538476D01*
X124102714Y-143109904D02*
X124293190Y-143109904D01*
X124388428Y-143071809D01*
X124436047Y-143033714D01*
X124531285Y-142919428D01*
X124578904Y-142767047D01*
X124578904Y-142462285D01*
X124531285Y-142386095D01*
X124483666Y-142348000D01*
X124388428Y-142309904D01*
X124197952Y-142309904D01*
X124102714Y-142348000D01*
X124055095Y-142386095D01*
X124007476Y-142462285D01*
X124007476Y-142652761D01*
X124055095Y-142728952D01*
X124102714Y-142767047D01*
X124197952Y-142805142D01*
X124388428Y-142805142D01*
X124483666Y-142767047D01*
X124531285Y-142728952D01*
X124578904Y-142652761D01*
%TO.C,C25*%
X190492142Y-129190714D02*
X190444523Y-129228809D01*
X190301666Y-129266904D01*
X190206428Y-129266904D01*
X190063571Y-129228809D01*
X189968333Y-129152619D01*
X189920714Y-129076428D01*
X189873095Y-128924047D01*
X189873095Y-128809761D01*
X189920714Y-128657380D01*
X189968333Y-128581190D01*
X190063571Y-128505000D01*
X190206428Y-128466904D01*
X190301666Y-128466904D01*
X190444523Y-128505000D01*
X190492142Y-128543095D01*
X190873095Y-128543095D02*
X190920714Y-128505000D01*
X191015952Y-128466904D01*
X191254047Y-128466904D01*
X191349285Y-128505000D01*
X191396904Y-128543095D01*
X191444523Y-128619285D01*
X191444523Y-128695476D01*
X191396904Y-128809761D01*
X190825476Y-129266904D01*
X191444523Y-129266904D01*
X192349285Y-128466904D02*
X191873095Y-128466904D01*
X191825476Y-128847857D01*
X191873095Y-128809761D01*
X191968333Y-128771666D01*
X192206428Y-128771666D01*
X192301666Y-128809761D01*
X192349285Y-128847857D01*
X192396904Y-128924047D01*
X192396904Y-129114523D01*
X192349285Y-129190714D01*
X192301666Y-129228809D01*
X192206428Y-129266904D01*
X191968333Y-129266904D01*
X191873095Y-129228809D01*
X191825476Y-129190714D01*
%TO.C,D4*%
X142644904Y-140061904D02*
X142644904Y-139261904D01*
X142883000Y-139261904D01*
X143025857Y-139300000D01*
X143121095Y-139376190D01*
X143168714Y-139452380D01*
X143216333Y-139604761D01*
X143216333Y-139719047D01*
X143168714Y-139871428D01*
X143121095Y-139947619D01*
X143025857Y-140023809D01*
X142883000Y-140061904D01*
X142644904Y-140061904D01*
X144073476Y-139528571D02*
X144073476Y-140061904D01*
X143835380Y-139223809D02*
X143597285Y-139795238D01*
X144216333Y-139795238D01*
%TO.C,D5*%
X117117904Y-149459904D02*
X117117904Y-148659904D01*
X117356000Y-148659904D01*
X117498857Y-148698000D01*
X117594095Y-148774190D01*
X117641714Y-148850380D01*
X117689333Y-149002761D01*
X117689333Y-149117047D01*
X117641714Y-149269428D01*
X117594095Y-149345619D01*
X117498857Y-149421809D01*
X117356000Y-149459904D01*
X117117904Y-149459904D01*
X118594095Y-148659904D02*
X118117904Y-148659904D01*
X118070285Y-149040857D01*
X118117904Y-149002761D01*
X118213142Y-148964666D01*
X118451238Y-148964666D01*
X118546476Y-149002761D01*
X118594095Y-149040857D01*
X118641714Y-149117047D01*
X118641714Y-149307523D01*
X118594095Y-149383714D01*
X118546476Y-149421809D01*
X118451238Y-149459904D01*
X118213142Y-149459904D01*
X118117904Y-149421809D01*
X118070285Y-149383714D01*
%TO.C,J2*%
X193976666Y-99256904D02*
X193976666Y-99828333D01*
X193929047Y-99942619D01*
X193833809Y-100018809D01*
X193690952Y-100056904D01*
X193595714Y-100056904D01*
X194405238Y-99333095D02*
X194452857Y-99295000D01*
X194548095Y-99256904D01*
X194786190Y-99256904D01*
X194881428Y-99295000D01*
X194929047Y-99333095D01*
X194976666Y-99409285D01*
X194976666Y-99485476D01*
X194929047Y-99599761D01*
X194357619Y-100056904D01*
X194976666Y-100056904D01*
D15*
%TO.C,J4*%
X106346666Y-96353380D02*
X106346666Y-97067666D01*
X106299047Y-97210523D01*
X106203809Y-97305761D01*
X106060952Y-97353380D01*
X105965714Y-97353380D01*
X107251428Y-96686714D02*
X107251428Y-97353380D01*
X107013333Y-96305761D02*
X106775238Y-97020047D01*
X107394285Y-97020047D01*
D13*
%TO.C,J5*%
X92122666Y-96335904D02*
X92122666Y-96907333D01*
X92075047Y-97021619D01*
X91979809Y-97097809D01*
X91836952Y-97135904D01*
X91741714Y-97135904D01*
X93075047Y-96335904D02*
X92598857Y-96335904D01*
X92551238Y-96716857D01*
X92598857Y-96678761D01*
X92694095Y-96640666D01*
X92932190Y-96640666D01*
X93027428Y-96678761D01*
X93075047Y-96716857D01*
X93122666Y-96793047D01*
X93122666Y-96983523D01*
X93075047Y-97059714D01*
X93027428Y-97097809D01*
X92932190Y-97135904D01*
X92694095Y-97135904D01*
X92598857Y-97097809D01*
X92551238Y-97059714D01*
%TO.C,J7*%
X150923666Y-142563904D02*
X150923666Y-143135333D01*
X150876047Y-143249619D01*
X150780809Y-143325809D01*
X150637952Y-143363904D01*
X150542714Y-143363904D01*
X151304619Y-142563904D02*
X151971285Y-142563904D01*
X151542714Y-143363904D01*
X146037333Y-136251904D02*
X145580190Y-136251904D01*
X145808761Y-136251904D02*
X145808761Y-135451904D01*
X145732571Y-135566190D01*
X145656380Y-135642380D01*
X145580190Y-135680476D01*
X146380190Y-135718571D02*
X146989714Y-135947142D01*
X146380190Y-136175714D01*
%TO.C,J8*%
X230806666Y-150056904D02*
X230806666Y-150628333D01*
X230759047Y-150742619D01*
X230663809Y-150818809D01*
X230520952Y-150856904D01*
X230425714Y-150856904D01*
X231425714Y-150399761D02*
X231330476Y-150361666D01*
X231282857Y-150323571D01*
X231235238Y-150247380D01*
X231235238Y-150209285D01*
X231282857Y-150133095D01*
X231330476Y-150095000D01*
X231425714Y-150056904D01*
X231616190Y-150056904D01*
X231711428Y-150095000D01*
X231759047Y-150133095D01*
X231806666Y-150209285D01*
X231806666Y-150247380D01*
X231759047Y-150323571D01*
X231711428Y-150361666D01*
X231616190Y-150399761D01*
X231425714Y-150399761D01*
X231330476Y-150437857D01*
X231282857Y-150475952D01*
X231235238Y-150552142D01*
X231235238Y-150704523D01*
X231282857Y-150780714D01*
X231330476Y-150818809D01*
X231425714Y-150856904D01*
X231616190Y-150856904D01*
X231711428Y-150818809D01*
X231759047Y-150780714D01*
X231806666Y-150704523D01*
X231806666Y-150552142D01*
X231759047Y-150475952D01*
X231711428Y-150437857D01*
X231616190Y-150399761D01*
%TO.C,L2*%
X128865333Y-135362904D02*
X128389142Y-135362904D01*
X128389142Y-134562904D01*
X129151047Y-134639095D02*
X129198666Y-134601000D01*
X129293904Y-134562904D01*
X129532000Y-134562904D01*
X129627238Y-134601000D01*
X129674857Y-134639095D01*
X129722476Y-134715285D01*
X129722476Y-134791476D01*
X129674857Y-134905761D01*
X129103428Y-135362904D01*
X129722476Y-135362904D01*
%TO.C,R1*%
X148296333Y-118725904D02*
X147963000Y-118344952D01*
X147724904Y-118725904D02*
X147724904Y-117925904D01*
X148105857Y-117925904D01*
X148201095Y-117964000D01*
X148248714Y-118002095D01*
X148296333Y-118078285D01*
X148296333Y-118192571D01*
X148248714Y-118268761D01*
X148201095Y-118306857D01*
X148105857Y-118344952D01*
X147724904Y-118344952D01*
X149248714Y-118725904D02*
X148677285Y-118725904D01*
X148963000Y-118725904D02*
X148963000Y-117925904D01*
X148867761Y-118040190D01*
X148772523Y-118116380D01*
X148677285Y-118154476D01*
%TO.C,R2*%
X186523333Y-122027904D02*
X186190000Y-121646952D01*
X185951904Y-122027904D02*
X185951904Y-121227904D01*
X186332857Y-121227904D01*
X186428095Y-121266000D01*
X186475714Y-121304095D01*
X186523333Y-121380285D01*
X186523333Y-121494571D01*
X186475714Y-121570761D01*
X186428095Y-121608857D01*
X186332857Y-121646952D01*
X185951904Y-121646952D01*
X186904285Y-121304095D02*
X186951904Y-121266000D01*
X187047142Y-121227904D01*
X187285238Y-121227904D01*
X187380476Y-121266000D01*
X187428095Y-121304095D01*
X187475714Y-121380285D01*
X187475714Y-121456476D01*
X187428095Y-121570761D01*
X186856666Y-122027904D01*
X187475714Y-122027904D01*
%TO.C,R3*%
X171283333Y-117709904D02*
X170950000Y-117328952D01*
X170711904Y-117709904D02*
X170711904Y-116909904D01*
X171092857Y-116909904D01*
X171188095Y-116948000D01*
X171235714Y-116986095D01*
X171283333Y-117062285D01*
X171283333Y-117176571D01*
X171235714Y-117252761D01*
X171188095Y-117290857D01*
X171092857Y-117328952D01*
X170711904Y-117328952D01*
X171616666Y-116909904D02*
X172235714Y-116909904D01*
X171902380Y-117214666D01*
X172045238Y-117214666D01*
X172140476Y-117252761D01*
X172188095Y-117290857D01*
X172235714Y-117367047D01*
X172235714Y-117557523D01*
X172188095Y-117633714D01*
X172140476Y-117671809D01*
X172045238Y-117709904D01*
X171759523Y-117709904D01*
X171664285Y-117671809D01*
X171616666Y-117633714D01*
%TO.C,R4*%
X146645333Y-124186904D02*
X146312000Y-123805952D01*
X146073904Y-124186904D02*
X146073904Y-123386904D01*
X146454857Y-123386904D01*
X146550095Y-123425000D01*
X146597714Y-123463095D01*
X146645333Y-123539285D01*
X146645333Y-123653571D01*
X146597714Y-123729761D01*
X146550095Y-123767857D01*
X146454857Y-123805952D01*
X146073904Y-123805952D01*
X147502476Y-123653571D02*
X147502476Y-124186904D01*
X147264380Y-123348809D02*
X147026285Y-123920238D01*
X147645333Y-123920238D01*
%TO.C,R9*%
X143216333Y-137521904D02*
X142883000Y-137140952D01*
X142644904Y-137521904D02*
X142644904Y-136721904D01*
X143025857Y-136721904D01*
X143121095Y-136760000D01*
X143168714Y-136798095D01*
X143216333Y-136874285D01*
X143216333Y-136988571D01*
X143168714Y-137064761D01*
X143121095Y-137102857D01*
X143025857Y-137140952D01*
X142644904Y-137140952D01*
X143692523Y-137521904D02*
X143883000Y-137521904D01*
X143978238Y-137483809D01*
X144025857Y-137445714D01*
X144121095Y-137331428D01*
X144168714Y-137179047D01*
X144168714Y-136874285D01*
X144121095Y-136798095D01*
X144073476Y-136760000D01*
X143978238Y-136721904D01*
X143787761Y-136721904D01*
X143692523Y-136760000D01*
X143644904Y-136798095D01*
X143597285Y-136874285D01*
X143597285Y-137064761D01*
X143644904Y-137140952D01*
X143692523Y-137179047D01*
X143787761Y-137217142D01*
X143978238Y-137217142D01*
X144073476Y-137179047D01*
X144121095Y-137140952D01*
X144168714Y-137064761D01*
%TO.C,R10*%
X198239142Y-135235904D02*
X197905809Y-134854952D01*
X197667714Y-135235904D02*
X197667714Y-134435904D01*
X198048666Y-134435904D01*
X198143904Y-134474000D01*
X198191523Y-134512095D01*
X198239142Y-134588285D01*
X198239142Y-134702571D01*
X198191523Y-134778761D01*
X198143904Y-134816857D01*
X198048666Y-134854952D01*
X197667714Y-134854952D01*
X199191523Y-135235904D02*
X198620095Y-135235904D01*
X198905809Y-135235904D02*
X198905809Y-134435904D01*
X198810571Y-134550190D01*
X198715333Y-134626380D01*
X198620095Y-134664476D01*
X199810571Y-134435904D02*
X199905809Y-134435904D01*
X200001047Y-134474000D01*
X200048666Y-134512095D01*
X200096285Y-134588285D01*
X200143904Y-134740666D01*
X200143904Y-134931142D01*
X200096285Y-135083523D01*
X200048666Y-135159714D01*
X200001047Y-135197809D01*
X199905809Y-135235904D01*
X199810571Y-135235904D01*
X199715333Y-135197809D01*
X199667714Y-135159714D01*
X199620095Y-135083523D01*
X199572476Y-134931142D01*
X199572476Y-134740666D01*
X199620095Y-134588285D01*
X199667714Y-134512095D01*
X199715333Y-134474000D01*
X199810571Y-134435904D01*
%TO.C,R14*%
X198239142Y-143363904D02*
X197905809Y-142982952D01*
X197667714Y-143363904D02*
X197667714Y-142563904D01*
X198048666Y-142563904D01*
X198143904Y-142602000D01*
X198191523Y-142640095D01*
X198239142Y-142716285D01*
X198239142Y-142830571D01*
X198191523Y-142906761D01*
X198143904Y-142944857D01*
X198048666Y-142982952D01*
X197667714Y-142982952D01*
X199191523Y-143363904D02*
X198620095Y-143363904D01*
X198905809Y-143363904D02*
X198905809Y-142563904D01*
X198810571Y-142678190D01*
X198715333Y-142754380D01*
X198620095Y-142792476D01*
X200048666Y-142830571D02*
X200048666Y-143363904D01*
X199810571Y-142525809D02*
X199572476Y-143097238D01*
X200191523Y-143097238D01*
%TO.C,R18*%
X198239142Y-141331904D02*
X197905809Y-140950952D01*
X197667714Y-141331904D02*
X197667714Y-140531904D01*
X198048666Y-140531904D01*
X198143904Y-140570000D01*
X198191523Y-140608095D01*
X198239142Y-140684285D01*
X198239142Y-140798571D01*
X198191523Y-140874761D01*
X198143904Y-140912857D01*
X198048666Y-140950952D01*
X197667714Y-140950952D01*
X199191523Y-141331904D02*
X198620095Y-141331904D01*
X198905809Y-141331904D02*
X198905809Y-140531904D01*
X198810571Y-140646190D01*
X198715333Y-140722380D01*
X198620095Y-140760476D01*
X199762952Y-140874761D02*
X199667714Y-140836666D01*
X199620095Y-140798571D01*
X199572476Y-140722380D01*
X199572476Y-140684285D01*
X199620095Y-140608095D01*
X199667714Y-140570000D01*
X199762952Y-140531904D01*
X199953428Y-140531904D01*
X200048666Y-140570000D01*
X200096285Y-140608095D01*
X200143904Y-140684285D01*
X200143904Y-140722380D01*
X200096285Y-140798571D01*
X200048666Y-140836666D01*
X199953428Y-140874761D01*
X199762952Y-140874761D01*
X199667714Y-140912857D01*
X199620095Y-140950952D01*
X199572476Y-141027142D01*
X199572476Y-141179523D01*
X199620095Y-141255714D01*
X199667714Y-141293809D01*
X199762952Y-141331904D01*
X199953428Y-141331904D01*
X200048666Y-141293809D01*
X200096285Y-141255714D01*
X200143904Y-141179523D01*
X200143904Y-141027142D01*
X200096285Y-140950952D01*
X200048666Y-140912857D01*
X199953428Y-140874761D01*
%TO.C,R19*%
X198239142Y-139299904D02*
X197905809Y-138918952D01*
X197667714Y-139299904D02*
X197667714Y-138499904D01*
X198048666Y-138499904D01*
X198143904Y-138538000D01*
X198191523Y-138576095D01*
X198239142Y-138652285D01*
X198239142Y-138766571D01*
X198191523Y-138842761D01*
X198143904Y-138880857D01*
X198048666Y-138918952D01*
X197667714Y-138918952D01*
X199191523Y-139299904D02*
X198620095Y-139299904D01*
X198905809Y-139299904D02*
X198905809Y-138499904D01*
X198810571Y-138614190D01*
X198715333Y-138690380D01*
X198620095Y-138728476D01*
X199667714Y-139299904D02*
X199858190Y-139299904D01*
X199953428Y-139261809D01*
X200001047Y-139223714D01*
X200096285Y-139109428D01*
X200143904Y-138957047D01*
X200143904Y-138652285D01*
X200096285Y-138576095D01*
X200048666Y-138538000D01*
X199953428Y-138499904D01*
X199762952Y-138499904D01*
X199667714Y-138538000D01*
X199620095Y-138576095D01*
X199572476Y-138652285D01*
X199572476Y-138842761D01*
X199620095Y-138918952D01*
X199667714Y-138957047D01*
X199762952Y-138995142D01*
X199953428Y-138995142D01*
X200048666Y-138957047D01*
X200096285Y-138918952D01*
X200143904Y-138842761D01*
%TO.C,R21*%
X130504472Y-127833663D02*
X130470801Y-128338739D01*
X130908533Y-128237724D02*
X130342848Y-128803409D01*
X130073474Y-128534035D01*
X130033068Y-128439754D01*
X130026334Y-128379145D01*
X130046537Y-128291599D01*
X130127349Y-128210786D01*
X130214895Y-128190583D01*
X130275505Y-128197318D01*
X130369785Y-128237724D01*
X130639159Y-128507098D01*
X129723288Y-128076099D02*
X129662679Y-128069365D01*
X129568398Y-128028959D01*
X129400039Y-127860600D01*
X129359633Y-127766319D01*
X129352899Y-127705710D01*
X129373102Y-127618164D01*
X129426976Y-127564289D01*
X129541460Y-127517148D01*
X130268770Y-127597961D01*
X129831037Y-127160228D01*
X129157602Y-126486793D02*
X129561663Y-126890854D01*
X129359633Y-126688823D02*
X128793947Y-127254509D01*
X128942103Y-127241040D01*
X129063321Y-127254509D01*
X129157602Y-127294915D01*
%TO.C,R25*%
X110101142Y-150221904D02*
X109767809Y-149840952D01*
X109529714Y-150221904D02*
X109529714Y-149421904D01*
X109910666Y-149421904D01*
X110005904Y-149460000D01*
X110053523Y-149498095D01*
X110101142Y-149574285D01*
X110101142Y-149688571D01*
X110053523Y-149764761D01*
X110005904Y-149802857D01*
X109910666Y-149840952D01*
X109529714Y-149840952D01*
X110482095Y-149498095D02*
X110529714Y-149460000D01*
X110624952Y-149421904D01*
X110863047Y-149421904D01*
X110958285Y-149460000D01*
X111005904Y-149498095D01*
X111053523Y-149574285D01*
X111053523Y-149650476D01*
X111005904Y-149764761D01*
X110434476Y-150221904D01*
X111053523Y-150221904D01*
X111958285Y-149421904D02*
X111482095Y-149421904D01*
X111434476Y-149802857D01*
X111482095Y-149764761D01*
X111577333Y-149726666D01*
X111815428Y-149726666D01*
X111910666Y-149764761D01*
X111958285Y-149802857D01*
X112005904Y-149879047D01*
X112005904Y-150069523D01*
X111958285Y-150145714D01*
X111910666Y-150183809D01*
X111815428Y-150221904D01*
X111577333Y-150221904D01*
X111482095Y-150183809D01*
X111434476Y-150145714D01*
%TO.C,R26*%
X110228142Y-146157904D02*
X109894809Y-145776952D01*
X109656714Y-146157904D02*
X109656714Y-145357904D01*
X110037666Y-145357904D01*
X110132904Y-145396000D01*
X110180523Y-145434095D01*
X110228142Y-145510285D01*
X110228142Y-145624571D01*
X110180523Y-145700761D01*
X110132904Y-145738857D01*
X110037666Y-145776952D01*
X109656714Y-145776952D01*
X110609095Y-145434095D02*
X110656714Y-145396000D01*
X110751952Y-145357904D01*
X110990047Y-145357904D01*
X111085285Y-145396000D01*
X111132904Y-145434095D01*
X111180523Y-145510285D01*
X111180523Y-145586476D01*
X111132904Y-145700761D01*
X110561476Y-146157904D01*
X111180523Y-146157904D01*
X112037666Y-145357904D02*
X111847190Y-145357904D01*
X111751952Y-145396000D01*
X111704333Y-145434095D01*
X111609095Y-145548380D01*
X111561476Y-145700761D01*
X111561476Y-146005523D01*
X111609095Y-146081714D01*
X111656714Y-146119809D01*
X111751952Y-146157904D01*
X111942428Y-146157904D01*
X112037666Y-146119809D01*
X112085285Y-146081714D01*
X112132904Y-146005523D01*
X112132904Y-145815047D01*
X112085285Y-145738857D01*
X112037666Y-145700761D01*
X111942428Y-145662666D01*
X111751952Y-145662666D01*
X111656714Y-145700761D01*
X111609095Y-145738857D01*
X111561476Y-145815047D01*
%TO.C,R27*%
X116567904Y-146311857D02*
X116186952Y-146645190D01*
X116567904Y-146883285D02*
X115767904Y-146883285D01*
X115767904Y-146502333D01*
X115806000Y-146407095D01*
X115844095Y-146359476D01*
X115920285Y-146311857D01*
X116034571Y-146311857D01*
X116110761Y-146359476D01*
X116148857Y-146407095D01*
X116186952Y-146502333D01*
X116186952Y-146883285D01*
X115844095Y-145930904D02*
X115806000Y-145883285D01*
X115767904Y-145788047D01*
X115767904Y-145549952D01*
X115806000Y-145454714D01*
X115844095Y-145407095D01*
X115920285Y-145359476D01*
X115996476Y-145359476D01*
X116110761Y-145407095D01*
X116567904Y-145978523D01*
X116567904Y-145359476D01*
X115767904Y-145026142D02*
X115767904Y-144359476D01*
X116567904Y-144788047D01*
%TO.C,TP6*%
X116086095Y-132276904D02*
X116657523Y-132276904D01*
X116371809Y-133076904D02*
X116371809Y-132276904D01*
X116990857Y-133076904D02*
X116990857Y-132276904D01*
X117371809Y-132276904D01*
X117467047Y-132315000D01*
X117514666Y-132353095D01*
X117562285Y-132429285D01*
X117562285Y-132543571D01*
X117514666Y-132619761D01*
X117467047Y-132657857D01*
X117371809Y-132695952D01*
X116990857Y-132695952D01*
X118419428Y-132276904D02*
X118228952Y-132276904D01*
X118133714Y-132315000D01*
X118086095Y-132353095D01*
X117990857Y-132467380D01*
X117943238Y-132619761D01*
X117943238Y-132924523D01*
X117990857Y-133000714D01*
X118038476Y-133038809D01*
X118133714Y-133076904D01*
X118324190Y-133076904D01*
X118419428Y-133038809D01*
X118467047Y-133000714D01*
X118514666Y-132924523D01*
X118514666Y-132734047D01*
X118467047Y-132657857D01*
X118419428Y-132619761D01*
X118324190Y-132581666D01*
X118133714Y-132581666D01*
X118038476Y-132619761D01*
X117990857Y-132657857D01*
X117943238Y-132734047D01*
D15*
%TO.C,TP52*%
X218551285Y-142438380D02*
X218551285Y-141438380D01*
X218789380Y-141438380D01*
X218932238Y-141486000D01*
X219027476Y-141581238D01*
X219075095Y-141676476D01*
X219122714Y-141866952D01*
X219122714Y-142009809D01*
X219075095Y-142200285D01*
X219027476Y-142295523D01*
X218932238Y-142390761D01*
X218789380Y-142438380D01*
X218551285Y-142438380D01*
X220265571Y-141390761D02*
X219408428Y-142676476D01*
X221170333Y-142343142D02*
X221122714Y-142390761D01*
X220979857Y-142438380D01*
X220884619Y-142438380D01*
X220741761Y-142390761D01*
X220646523Y-142295523D01*
X220598904Y-142200285D01*
X220551285Y-142009809D01*
X220551285Y-141866952D01*
X220598904Y-141676476D01*
X220646523Y-141581238D01*
X220741761Y-141486000D01*
X220884619Y-141438380D01*
X220979857Y-141438380D01*
X221122714Y-141486000D01*
X221170333Y-141533619D01*
%TO.C,TP53*%
X219289380Y-134437380D02*
X218956047Y-133961190D01*
X218717952Y-134437380D02*
X218717952Y-133437380D01*
X219098904Y-133437380D01*
X219194142Y-133485000D01*
X219241761Y-133532619D01*
X219289380Y-133627857D01*
X219289380Y-133770714D01*
X219241761Y-133865952D01*
X219194142Y-133913571D01*
X219098904Y-133961190D01*
X218717952Y-133961190D01*
X219670333Y-134389761D02*
X219813190Y-134437380D01*
X220051285Y-134437380D01*
X220146523Y-134389761D01*
X220194142Y-134342142D01*
X220241761Y-134246904D01*
X220241761Y-134151666D01*
X220194142Y-134056428D01*
X220146523Y-134008809D01*
X220051285Y-133961190D01*
X219860809Y-133913571D01*
X219765571Y-133865952D01*
X219717952Y-133818333D01*
X219670333Y-133723095D01*
X219670333Y-133627857D01*
X219717952Y-133532619D01*
X219765571Y-133485000D01*
X219860809Y-133437380D01*
X220098904Y-133437380D01*
X220241761Y-133485000D01*
X220527476Y-133437380D02*
X221098904Y-133437380D01*
X220813190Y-134437380D02*
X220813190Y-133437380D01*
%TO.C,TP54*%
X218138571Y-136977380D02*
X218138571Y-135977380D01*
X218471904Y-136691666D01*
X218805238Y-135977380D01*
X218805238Y-136977380D01*
X219471904Y-135977380D02*
X219662380Y-135977380D01*
X219757619Y-136025000D01*
X219852857Y-136120238D01*
X219900476Y-136310714D01*
X219900476Y-136644047D01*
X219852857Y-136834523D01*
X219757619Y-136929761D01*
X219662380Y-136977380D01*
X219471904Y-136977380D01*
X219376666Y-136929761D01*
X219281428Y-136834523D01*
X219233809Y-136644047D01*
X219233809Y-136310714D01*
X219281428Y-136120238D01*
X219376666Y-136025000D01*
X219471904Y-135977380D01*
X220281428Y-136929761D02*
X220424285Y-136977380D01*
X220662380Y-136977380D01*
X220757619Y-136929761D01*
X220805238Y-136882142D01*
X220852857Y-136786904D01*
X220852857Y-136691666D01*
X220805238Y-136596428D01*
X220757619Y-136548809D01*
X220662380Y-136501190D01*
X220471904Y-136453571D01*
X220376666Y-136405952D01*
X220329047Y-136358333D01*
X220281428Y-136263095D01*
X220281428Y-136167857D01*
X220329047Y-136072619D01*
X220376666Y-136025000D01*
X220471904Y-135977380D01*
X220710000Y-135977380D01*
X220852857Y-136025000D01*
X221281428Y-136977380D02*
X221281428Y-135977380D01*
%TO.C,TP55*%
X218678285Y-139469761D02*
X218821142Y-139517380D01*
X219059238Y-139517380D01*
X219154476Y-139469761D01*
X219202095Y-139422142D01*
X219249714Y-139326904D01*
X219249714Y-139231666D01*
X219202095Y-139136428D01*
X219154476Y-139088809D01*
X219059238Y-139041190D01*
X218868761Y-138993571D01*
X218773523Y-138945952D01*
X218725904Y-138898333D01*
X218678285Y-138803095D01*
X218678285Y-138707857D01*
X218725904Y-138612619D01*
X218773523Y-138565000D01*
X218868761Y-138517380D01*
X219106857Y-138517380D01*
X219249714Y-138565000D01*
X220249714Y-139422142D02*
X220202095Y-139469761D01*
X220059238Y-139517380D01*
X219964000Y-139517380D01*
X219821142Y-139469761D01*
X219725904Y-139374523D01*
X219678285Y-139279285D01*
X219630666Y-139088809D01*
X219630666Y-138945952D01*
X219678285Y-138755476D01*
X219725904Y-138660238D01*
X219821142Y-138565000D01*
X219964000Y-138517380D01*
X220059238Y-138517380D01*
X220202095Y-138565000D01*
X220249714Y-138612619D01*
X220678285Y-139517380D02*
X220678285Y-138517380D01*
X221249714Y-139517380D02*
X220821142Y-138945952D01*
X221249714Y-138517380D02*
X220678285Y-139088809D01*
D13*
%TO.C,U33*%
X157384904Y-135070904D02*
X157384904Y-135718523D01*
X157432523Y-135794714D01*
X157480142Y-135832809D01*
X157575380Y-135870904D01*
X157765857Y-135870904D01*
X157861095Y-135832809D01*
X157908714Y-135794714D01*
X157956333Y-135718523D01*
X157956333Y-135070904D01*
X158337285Y-135070904D02*
X158956333Y-135070904D01*
X158623000Y-135375666D01*
X158765857Y-135375666D01*
X158861095Y-135413761D01*
X158908714Y-135451857D01*
X158956333Y-135528047D01*
X158956333Y-135718523D01*
X158908714Y-135794714D01*
X158861095Y-135832809D01*
X158765857Y-135870904D01*
X158480142Y-135870904D01*
X158384904Y-135832809D01*
X158337285Y-135794714D01*
X159289666Y-135070904D02*
X159908714Y-135070904D01*
X159575380Y-135375666D01*
X159718238Y-135375666D01*
X159813476Y-135413761D01*
X159861095Y-135451857D01*
X159908714Y-135528047D01*
X159908714Y-135718523D01*
X159861095Y-135794714D01*
X159813476Y-135832809D01*
X159718238Y-135870904D01*
X159432523Y-135870904D01*
X159337285Y-135832809D01*
X159289666Y-135794714D01*
%TO.C,U39*%
X113061904Y-134562904D02*
X113061904Y-135210523D01*
X113109523Y-135286714D01*
X113157142Y-135324809D01*
X113252380Y-135362904D01*
X113442857Y-135362904D01*
X113538095Y-135324809D01*
X113585714Y-135286714D01*
X113633333Y-135210523D01*
X113633333Y-134562904D01*
X114014285Y-134562904D02*
X114633333Y-134562904D01*
X114300000Y-134867666D01*
X114442857Y-134867666D01*
X114538095Y-134905761D01*
X114585714Y-134943857D01*
X114633333Y-135020047D01*
X114633333Y-135210523D01*
X114585714Y-135286714D01*
X114538095Y-135324809D01*
X114442857Y-135362904D01*
X114157142Y-135362904D01*
X114061904Y-135324809D01*
X114014285Y-135286714D01*
X115109523Y-135362904D02*
X115300000Y-135362904D01*
X115395238Y-135324809D01*
X115442857Y-135286714D01*
X115538095Y-135172428D01*
X115585714Y-135020047D01*
X115585714Y-134715285D01*
X115538095Y-134639095D01*
X115490476Y-134601000D01*
X115395238Y-134562904D01*
X115204761Y-134562904D01*
X115109523Y-134601000D01*
X115061904Y-134639095D01*
X115014285Y-134715285D01*
X115014285Y-134905761D01*
X115061904Y-134981952D01*
X115109523Y-135020047D01*
X115204761Y-135058142D01*
X115395238Y-135058142D01*
X115490476Y-135020047D01*
X115538095Y-134981952D01*
X115585714Y-134905761D01*
%TO.C,U40*%
X142652904Y-143706904D02*
X142652904Y-144354523D01*
X142700523Y-144430714D01*
X142748142Y-144468809D01*
X142843380Y-144506904D01*
X143033857Y-144506904D01*
X143129095Y-144468809D01*
X143176714Y-144430714D01*
X143224333Y-144354523D01*
X143224333Y-143706904D01*
X144129095Y-143973571D02*
X144129095Y-144506904D01*
X143891000Y-143668809D02*
X143652904Y-144240238D01*
X144271952Y-144240238D01*
X144843380Y-143706904D02*
X144938619Y-143706904D01*
X145033857Y-143745000D01*
X145081476Y-143783095D01*
X145129095Y-143859285D01*
X145176714Y-144011666D01*
X145176714Y-144202142D01*
X145129095Y-144354523D01*
X145081476Y-144430714D01*
X145033857Y-144468809D01*
X144938619Y-144506904D01*
X144843380Y-144506904D01*
X144748142Y-144468809D01*
X144700523Y-144430714D01*
X144652904Y-144354523D01*
X144605285Y-144202142D01*
X144605285Y-144011666D01*
X144652904Y-143859285D01*
X144700523Y-143783095D01*
X144748142Y-143745000D01*
X144843380Y-143706904D01*
%TO.C,U41*%
X197135904Y-117544904D02*
X197135904Y-118192523D01*
X197183523Y-118268714D01*
X197231142Y-118306809D01*
X197326380Y-118344904D01*
X197516857Y-118344904D01*
X197612095Y-118306809D01*
X197659714Y-118268714D01*
X197707333Y-118192523D01*
X197707333Y-117544904D01*
X198612095Y-117811571D02*
X198612095Y-118344904D01*
X198374000Y-117506809D02*
X198135904Y-118078238D01*
X198754952Y-118078238D01*
X199659714Y-118344904D02*
X199088285Y-118344904D01*
X199374000Y-118344904D02*
X199374000Y-117544904D01*
X199278761Y-117659190D01*
X199183523Y-117735380D01*
X199088285Y-117773476D01*
%TO.C,U43*%
X162337904Y-120211904D02*
X162337904Y-120859523D01*
X162385523Y-120935714D01*
X162433142Y-120973809D01*
X162528380Y-121011904D01*
X162718857Y-121011904D01*
X162814095Y-120973809D01*
X162861714Y-120935714D01*
X162909333Y-120859523D01*
X162909333Y-120211904D01*
X163814095Y-120478571D02*
X163814095Y-121011904D01*
X163576000Y-120173809D02*
X163337904Y-120745238D01*
X163956952Y-120745238D01*
X164242666Y-120211904D02*
X164861714Y-120211904D01*
X164528380Y-120516666D01*
X164671238Y-120516666D01*
X164766476Y-120554761D01*
X164814095Y-120592857D01*
X164861714Y-120669047D01*
X164861714Y-120859523D01*
X164814095Y-120935714D01*
X164766476Y-120973809D01*
X164671238Y-121011904D01*
X164385523Y-121011904D01*
X164290285Y-120973809D01*
X164242666Y-120935714D01*
D15*
%TO.C,D1*%
X85574380Y-128500095D02*
X84574380Y-128500095D01*
X84574380Y-128262000D01*
X84622000Y-128119142D01*
X84717238Y-128023904D01*
X84812476Y-127976285D01*
X85002952Y-127928666D01*
X85145809Y-127928666D01*
X85336285Y-127976285D01*
X85431523Y-128023904D01*
X85526761Y-128119142D01*
X85574380Y-128262000D01*
X85574380Y-128500095D01*
X85574380Y-126976285D02*
X85574380Y-127547714D01*
X85574380Y-127262000D02*
X84574380Y-127262000D01*
X84717238Y-127357238D01*
X84812476Y-127452476D01*
X84860095Y-127547714D01*
%TO.C,Q1*%
X91598761Y-131103619D02*
X91503523Y-131056000D01*
X91408285Y-130960761D01*
X91265428Y-130817904D01*
X91170190Y-130770285D01*
X91074952Y-130770285D01*
X91122571Y-131008380D02*
X91027333Y-130960761D01*
X90932095Y-130865523D01*
X90884476Y-130675047D01*
X90884476Y-130341714D01*
X90932095Y-130151238D01*
X91027333Y-130056000D01*
X91122571Y-130008380D01*
X91313047Y-130008380D01*
X91408285Y-130056000D01*
X91503523Y-130151238D01*
X91551142Y-130341714D01*
X91551142Y-130675047D01*
X91503523Y-130865523D01*
X91408285Y-130960761D01*
X91313047Y-131008380D01*
X91122571Y-131008380D01*
X92503523Y-131008380D02*
X91932095Y-131008380D01*
X92217809Y-131008380D02*
X92217809Y-130008380D01*
X92122571Y-130151238D01*
X92027333Y-130246476D01*
X91932095Y-130294095D01*
%TO.C,R5*%
X88479333Y-119959380D02*
X88146000Y-119483190D01*
X87907904Y-119959380D02*
X87907904Y-118959380D01*
X88288857Y-118959380D01*
X88384095Y-119007000D01*
X88431714Y-119054619D01*
X88479333Y-119149857D01*
X88479333Y-119292714D01*
X88431714Y-119387952D01*
X88384095Y-119435571D01*
X88288857Y-119483190D01*
X87907904Y-119483190D01*
X89384095Y-118959380D02*
X88907904Y-118959380D01*
X88860285Y-119435571D01*
X88907904Y-119387952D01*
X89003142Y-119340333D01*
X89241238Y-119340333D01*
X89336476Y-119387952D01*
X89384095Y-119435571D01*
X89431714Y-119530809D01*
X89431714Y-119768904D01*
X89384095Y-119864142D01*
X89336476Y-119911761D01*
X89241238Y-119959380D01*
X89003142Y-119959380D01*
X88907904Y-119911761D01*
X88860285Y-119864142D01*
D13*
%TO.C,TP3*%
X86876095Y-114623904D02*
X87447523Y-114623904D01*
X87161809Y-115423904D02*
X87161809Y-114623904D01*
X87780857Y-115423904D02*
X87780857Y-114623904D01*
X88161809Y-114623904D01*
X88257047Y-114662000D01*
X88304666Y-114700095D01*
X88352285Y-114776285D01*
X88352285Y-114890571D01*
X88304666Y-114966761D01*
X88257047Y-115004857D01*
X88161809Y-115042952D01*
X87780857Y-115042952D01*
X88685619Y-114623904D02*
X89304666Y-114623904D01*
X88971333Y-114928666D01*
X89114190Y-114928666D01*
X89209428Y-114966761D01*
X89257047Y-115004857D01*
X89304666Y-115081047D01*
X89304666Y-115271523D01*
X89257047Y-115347714D01*
X89209428Y-115385809D01*
X89114190Y-115423904D01*
X88828476Y-115423904D01*
X88733238Y-115385809D01*
X88685619Y-115347714D01*
D15*
%TO.C,D7*%
X97813904Y-131770380D02*
X97813904Y-130770380D01*
X98052000Y-130770380D01*
X98194857Y-130818000D01*
X98290095Y-130913238D01*
X98337714Y-131008476D01*
X98385333Y-131198952D01*
X98385333Y-131341809D01*
X98337714Y-131532285D01*
X98290095Y-131627523D01*
X98194857Y-131722761D01*
X98052000Y-131770380D01*
X97813904Y-131770380D01*
X98718666Y-130770380D02*
X99385333Y-130770380D01*
X98956761Y-131770380D01*
%TO.C,R13*%
X101973142Y-131770380D02*
X101639809Y-131294190D01*
X101401714Y-131770380D02*
X101401714Y-130770380D01*
X101782666Y-130770380D01*
X101877904Y-130818000D01*
X101925523Y-130865619D01*
X101973142Y-130960857D01*
X101973142Y-131103714D01*
X101925523Y-131198952D01*
X101877904Y-131246571D01*
X101782666Y-131294190D01*
X101401714Y-131294190D01*
X102925523Y-131770380D02*
X102354095Y-131770380D01*
X102639809Y-131770380D02*
X102639809Y-130770380D01*
X102544571Y-130913238D01*
X102449333Y-131008476D01*
X102354095Y-131056095D01*
X103258857Y-130770380D02*
X103877904Y-130770380D01*
X103544571Y-131151333D01*
X103687428Y-131151333D01*
X103782666Y-131198952D01*
X103830285Y-131246571D01*
X103877904Y-131341809D01*
X103877904Y-131579904D01*
X103830285Y-131675142D01*
X103782666Y-131722761D01*
X103687428Y-131770380D01*
X103401714Y-131770380D01*
X103306476Y-131722761D01*
X103258857Y-131675142D01*
D13*
%TO.C,C24*%
X190492142Y-119157714D02*
X190444523Y-119195809D01*
X190301666Y-119233904D01*
X190206428Y-119233904D01*
X190063571Y-119195809D01*
X189968333Y-119119619D01*
X189920714Y-119043428D01*
X189873095Y-118891047D01*
X189873095Y-118776761D01*
X189920714Y-118624380D01*
X189968333Y-118548190D01*
X190063571Y-118472000D01*
X190206428Y-118433904D01*
X190301666Y-118433904D01*
X190444523Y-118472000D01*
X190492142Y-118510095D01*
X190873095Y-118510095D02*
X190920714Y-118472000D01*
X191015952Y-118433904D01*
X191254047Y-118433904D01*
X191349285Y-118472000D01*
X191396904Y-118510095D01*
X191444523Y-118586285D01*
X191444523Y-118662476D01*
X191396904Y-118776761D01*
X190825476Y-119233904D01*
X191444523Y-119233904D01*
X192301666Y-118700571D02*
X192301666Y-119233904D01*
X192063571Y-118395809D02*
X191825476Y-118967238D01*
X192444523Y-118967238D01*
%TO.C,R32*%
X211689904Y-131436857D02*
X211308952Y-131770190D01*
X211689904Y-132008285D02*
X210889904Y-132008285D01*
X210889904Y-131627333D01*
X210928000Y-131532095D01*
X210966095Y-131484476D01*
X211042285Y-131436857D01*
X211156571Y-131436857D01*
X211232761Y-131484476D01*
X211270857Y-131532095D01*
X211308952Y-131627333D01*
X211308952Y-132008285D01*
X210889904Y-131103523D02*
X210889904Y-130484476D01*
X211194666Y-130817809D01*
X211194666Y-130674952D01*
X211232761Y-130579714D01*
X211270857Y-130532095D01*
X211347047Y-130484476D01*
X211537523Y-130484476D01*
X211613714Y-130532095D01*
X211651809Y-130579714D01*
X211689904Y-130674952D01*
X211689904Y-130960666D01*
X211651809Y-131055904D01*
X211613714Y-131103523D01*
X210966095Y-130103523D02*
X210928000Y-130055904D01*
X210889904Y-129960666D01*
X210889904Y-129722571D01*
X210928000Y-129627333D01*
X210966095Y-129579714D01*
X211042285Y-129532095D01*
X211118476Y-129532095D01*
X211232761Y-129579714D01*
X211689904Y-130151142D01*
X211689904Y-129532095D01*
D15*
%TO.C,TP9*%
X203755809Y-124250380D02*
X204374857Y-124250380D01*
X204041523Y-124631333D01*
X204184380Y-124631333D01*
X204279619Y-124678952D01*
X204327238Y-124726571D01*
X204374857Y-124821809D01*
X204374857Y-125059904D01*
X204327238Y-125155142D01*
X204279619Y-125202761D01*
X204184380Y-125250380D01*
X203898666Y-125250380D01*
X203803428Y-125202761D01*
X203755809Y-125155142D01*
X204803428Y-125155142D02*
X204851047Y-125202761D01*
X204803428Y-125250380D01*
X204755809Y-125202761D01*
X204803428Y-125155142D01*
X204803428Y-125250380D01*
X205184380Y-124250380D02*
X205803428Y-124250380D01*
X205470095Y-124631333D01*
X205612952Y-124631333D01*
X205708190Y-124678952D01*
X205755809Y-124726571D01*
X205803428Y-124821809D01*
X205803428Y-125059904D01*
X205755809Y-125155142D01*
X205708190Y-125202761D01*
X205612952Y-125250380D01*
X205327238Y-125250380D01*
X205232000Y-125202761D01*
X205184380Y-125155142D01*
X206089142Y-124250380D02*
X206422476Y-125250380D01*
X206755809Y-124250380D01*
X203779619Y-125860380D02*
X203970095Y-125860380D01*
X204065333Y-125908000D01*
X204160571Y-126003238D01*
X204208190Y-126193714D01*
X204208190Y-126527047D01*
X204160571Y-126717523D01*
X204065333Y-126812761D01*
X203970095Y-126860380D01*
X203779619Y-126860380D01*
X203684380Y-126812761D01*
X203589142Y-126717523D01*
X203541523Y-126527047D01*
X203541523Y-126193714D01*
X203589142Y-126003238D01*
X203684380Y-125908000D01*
X203779619Y-125860380D01*
X205112952Y-126860380D02*
X204636761Y-126860380D01*
X204636761Y-125860380D01*
X205446285Y-126336571D02*
X205779619Y-126336571D01*
X205922476Y-126860380D02*
X205446285Y-126860380D01*
X205446285Y-125860380D01*
X205922476Y-125860380D01*
X206351047Y-126860380D02*
X206351047Y-125860380D01*
X206589142Y-125860380D01*
X206732000Y-125908000D01*
X206827238Y-126003238D01*
X206874857Y-126098476D01*
X206922476Y-126288952D01*
X206922476Y-126431809D01*
X206874857Y-126622285D01*
X206827238Y-126717523D01*
X206732000Y-126812761D01*
X206589142Y-126860380D01*
X206351047Y-126860380D01*
D13*
%TO.C,D6*%
X205847904Y-131294095D02*
X205047904Y-131294095D01*
X205047904Y-131056000D01*
X205086000Y-130913142D01*
X205162190Y-130817904D01*
X205238380Y-130770285D01*
X205390761Y-130722666D01*
X205505047Y-130722666D01*
X205657428Y-130770285D01*
X205733619Y-130817904D01*
X205809809Y-130913142D01*
X205847904Y-131056000D01*
X205847904Y-131294095D01*
X205047904Y-129865523D02*
X205047904Y-130056000D01*
X205086000Y-130151238D01*
X205124095Y-130198857D01*
X205238380Y-130294095D01*
X205390761Y-130341714D01*
X205695523Y-130341714D01*
X205771714Y-130294095D01*
X205809809Y-130246476D01*
X205847904Y-130151238D01*
X205847904Y-129960761D01*
X205809809Y-129865523D01*
X205771714Y-129817904D01*
X205695523Y-129770285D01*
X205505047Y-129770285D01*
X205428857Y-129817904D01*
X205390761Y-129865523D01*
X205352666Y-129960761D01*
X205352666Y-130151238D01*
X205390761Y-130246476D01*
X205428857Y-130294095D01*
X205505047Y-130341714D01*
%TO.C,L1*%
X88987333Y-142220904D02*
X88511142Y-142220904D01*
X88511142Y-141420904D01*
X89844476Y-142220904D02*
X89273047Y-142220904D01*
X89558761Y-142220904D02*
X89558761Y-141420904D01*
X89463523Y-141535190D01*
X89368285Y-141611380D01*
X89273047Y-141649476D01*
%TO.C,R29*%
X320667142Y-141728904D02*
X320333809Y-141347952D01*
X320095714Y-141728904D02*
X320095714Y-140928904D01*
X320476666Y-140928904D01*
X320571904Y-140967000D01*
X320619523Y-141005095D01*
X320667142Y-141081285D01*
X320667142Y-141195571D01*
X320619523Y-141271761D01*
X320571904Y-141309857D01*
X320476666Y-141347952D01*
X320095714Y-141347952D01*
X321048095Y-141005095D02*
X321095714Y-140967000D01*
X321190952Y-140928904D01*
X321429047Y-140928904D01*
X321524285Y-140967000D01*
X321571904Y-141005095D01*
X321619523Y-141081285D01*
X321619523Y-141157476D01*
X321571904Y-141271761D01*
X321000476Y-141728904D01*
X321619523Y-141728904D01*
X322095714Y-141728904D02*
X322286190Y-141728904D01*
X322381428Y-141690809D01*
X322429047Y-141652714D01*
X322524285Y-141538428D01*
X322571904Y-141386047D01*
X322571904Y-141081285D01*
X322524285Y-141005095D01*
X322476666Y-140967000D01*
X322381428Y-140928904D01*
X322190952Y-140928904D01*
X322095714Y-140967000D01*
X322048095Y-141005095D01*
X322000476Y-141081285D01*
X322000476Y-141271761D01*
X322048095Y-141347952D01*
X322095714Y-141386047D01*
X322190952Y-141424142D01*
X322381428Y-141424142D01*
X322476666Y-141386047D01*
X322524285Y-141347952D01*
X322571904Y-141271761D01*
D15*
%TO.C,TP10*%
X173212285Y-156614761D02*
X173355142Y-156662380D01*
X173593238Y-156662380D01*
X173688476Y-156614761D01*
X173736095Y-156567142D01*
X173783714Y-156471904D01*
X173783714Y-156376666D01*
X173736095Y-156281428D01*
X173688476Y-156233809D01*
X173593238Y-156186190D01*
X173402761Y-156138571D01*
X173307523Y-156090952D01*
X173259904Y-156043333D01*
X173212285Y-155948095D01*
X173212285Y-155852857D01*
X173259904Y-155757619D01*
X173307523Y-155710000D01*
X173402761Y-155662380D01*
X173640857Y-155662380D01*
X173783714Y-155710000D01*
X174783714Y-156567142D02*
X174736095Y-156614761D01*
X174593238Y-156662380D01*
X174498000Y-156662380D01*
X174355142Y-156614761D01*
X174259904Y-156519523D01*
X174212285Y-156424285D01*
X174164666Y-156233809D01*
X174164666Y-156090952D01*
X174212285Y-155900476D01*
X174259904Y-155805238D01*
X174355142Y-155710000D01*
X174498000Y-155662380D01*
X174593238Y-155662380D01*
X174736095Y-155710000D01*
X174783714Y-155757619D01*
X175212285Y-156662380D02*
X175212285Y-155662380D01*
X175783714Y-156662380D02*
X175355142Y-156090952D01*
X175783714Y-155662380D02*
X175212285Y-156233809D01*
%TO.C,TP11*%
X173767952Y-151138000D02*
X173672714Y-151090380D01*
X173529857Y-151090380D01*
X173387000Y-151138000D01*
X173291761Y-151233238D01*
X173244142Y-151328476D01*
X173196523Y-151518952D01*
X173196523Y-151661809D01*
X173244142Y-151852285D01*
X173291761Y-151947523D01*
X173387000Y-152042761D01*
X173529857Y-152090380D01*
X173625095Y-152090380D01*
X173767952Y-152042761D01*
X173815571Y-151995142D01*
X173815571Y-151661809D01*
X173625095Y-151661809D01*
X174196523Y-152042761D02*
X174339380Y-152090380D01*
X174577476Y-152090380D01*
X174672714Y-152042761D01*
X174720333Y-151995142D01*
X174767952Y-151899904D01*
X174767952Y-151804666D01*
X174720333Y-151709428D01*
X174672714Y-151661809D01*
X174577476Y-151614190D01*
X174387000Y-151566571D01*
X174291761Y-151518952D01*
X174244142Y-151471333D01*
X174196523Y-151376095D01*
X174196523Y-151280857D01*
X174244142Y-151185619D01*
X174291761Y-151138000D01*
X174387000Y-151090380D01*
X174625095Y-151090380D01*
X174767952Y-151138000D01*
X175767952Y-151995142D02*
X175720333Y-152042761D01*
X175577476Y-152090380D01*
X175482238Y-152090380D01*
X175339380Y-152042761D01*
X175244142Y-151947523D01*
X175196523Y-151852285D01*
X175148904Y-151661809D01*
X175148904Y-151518952D01*
X175196523Y-151328476D01*
X175244142Y-151233238D01*
X175339380Y-151138000D01*
X175482238Y-151090380D01*
X175577476Y-151090380D01*
X175720333Y-151138000D01*
X175767952Y-151185619D01*
X176672714Y-152090380D02*
X176196523Y-152090380D01*
X176196523Y-151090380D01*
X177006047Y-152090380D02*
X177006047Y-151090380D01*
X177577476Y-152090380D02*
X177148904Y-151518952D01*
X177577476Y-151090380D02*
X177006047Y-151661809D01*
%TO.C,TP13*%
X173180571Y-158948380D02*
X173180571Y-157948380D01*
X173513904Y-158662666D01*
X173847238Y-157948380D01*
X173847238Y-158948380D01*
X174513904Y-157948380D02*
X174704380Y-157948380D01*
X174799619Y-157996000D01*
X174894857Y-158091238D01*
X174942476Y-158281714D01*
X174942476Y-158615047D01*
X174894857Y-158805523D01*
X174799619Y-158900761D01*
X174704380Y-158948380D01*
X174513904Y-158948380D01*
X174418666Y-158900761D01*
X174323428Y-158805523D01*
X174275809Y-158615047D01*
X174275809Y-158281714D01*
X174323428Y-158091238D01*
X174418666Y-157996000D01*
X174513904Y-157948380D01*
X175323428Y-158900761D02*
X175466285Y-158948380D01*
X175704380Y-158948380D01*
X175799619Y-158900761D01*
X175847238Y-158853142D01*
X175894857Y-158757904D01*
X175894857Y-158662666D01*
X175847238Y-158567428D01*
X175799619Y-158519809D01*
X175704380Y-158472190D01*
X175513904Y-158424571D01*
X175418666Y-158376952D01*
X175371047Y-158329333D01*
X175323428Y-158234095D01*
X175323428Y-158138857D01*
X175371047Y-158043619D01*
X175418666Y-157996000D01*
X175513904Y-157948380D01*
X175752000Y-157948380D01*
X175894857Y-157996000D01*
X176323428Y-158948380D02*
X176323428Y-157948380D01*
%TO.C,TP15*%
X173744000Y-154376380D02*
X173267809Y-154376380D01*
X173267809Y-153376380D01*
X174029714Y-154090666D02*
X174505904Y-154090666D01*
X173934476Y-154376380D02*
X174267809Y-153376380D01*
X174601142Y-154376380D01*
X174791619Y-153376380D02*
X175363047Y-153376380D01*
X175077333Y-154376380D02*
X175077333Y-153376380D01*
%TO.C,TP16*%
X211534761Y-207308380D02*
X212106190Y-207308380D01*
X211820476Y-208308380D02*
X211820476Y-207308380D01*
X212915714Y-208308380D02*
X212439523Y-208308380D01*
X212439523Y-207308380D01*
X213820476Y-208213142D02*
X213772857Y-208260761D01*
X213630000Y-208308380D01*
X213534761Y-208308380D01*
X213391904Y-208260761D01*
X213296666Y-208165523D01*
X213249047Y-208070285D01*
X213201428Y-207879809D01*
X213201428Y-207736952D01*
X213249047Y-207546476D01*
X213296666Y-207451238D01*
X213391904Y-207356000D01*
X213534761Y-207308380D01*
X213630000Y-207308380D01*
X213772857Y-207356000D01*
X213820476Y-207403619D01*
X214725238Y-207308380D02*
X214249047Y-207308380D01*
X214201428Y-207784571D01*
X214249047Y-207736952D01*
X214344285Y-207689333D01*
X214582380Y-207689333D01*
X214677619Y-207736952D01*
X214725238Y-207784571D01*
X214772857Y-207879809D01*
X214772857Y-208117904D01*
X214725238Y-208213142D01*
X214677619Y-208260761D01*
X214582380Y-208308380D01*
X214344285Y-208308380D01*
X214249047Y-208260761D01*
X214201428Y-208213142D01*
X215249047Y-208308380D02*
X215439523Y-208308380D01*
X215534761Y-208260761D01*
X215582380Y-208213142D01*
X215677619Y-208070285D01*
X215725238Y-207879809D01*
X215725238Y-207498857D01*
X215677619Y-207403619D01*
X215630000Y-207356000D01*
X215534761Y-207308380D01*
X215344285Y-207308380D01*
X215249047Y-207356000D01*
X215201428Y-207403619D01*
X215153809Y-207498857D01*
X215153809Y-207736952D01*
X215201428Y-207832190D01*
X215249047Y-207879809D01*
X215344285Y-207927428D01*
X215534761Y-207927428D01*
X215630000Y-207879809D01*
X215677619Y-207832190D01*
X215725238Y-207736952D01*
X216630000Y-207308380D02*
X216153809Y-207308380D01*
X216106190Y-207784571D01*
X216153809Y-207736952D01*
X216249047Y-207689333D01*
X216487142Y-207689333D01*
X216582380Y-207736952D01*
X216630000Y-207784571D01*
X216677619Y-207879809D01*
X216677619Y-208117904D01*
X216630000Y-208213142D01*
X216582380Y-208260761D01*
X216487142Y-208308380D01*
X216249047Y-208308380D01*
X216153809Y-208260761D01*
X216106190Y-208213142D01*
X217582380Y-207308380D02*
X217106190Y-207308380D01*
X217058571Y-207784571D01*
X217106190Y-207736952D01*
X217201428Y-207689333D01*
X217439523Y-207689333D01*
X217534761Y-207736952D01*
X217582380Y-207784571D01*
X217630000Y-207879809D01*
X217630000Y-208117904D01*
X217582380Y-208213142D01*
X217534761Y-208260761D01*
X217439523Y-208308380D01*
X217201428Y-208308380D01*
X217106190Y-208260761D01*
X217058571Y-208213142D01*
X212915714Y-209870761D02*
X213058571Y-209918380D01*
X213296666Y-209918380D01*
X213391904Y-209870761D01*
X213439523Y-209823142D01*
X213487142Y-209727904D01*
X213487142Y-209632666D01*
X213439523Y-209537428D01*
X213391904Y-209489809D01*
X213296666Y-209442190D01*
X213106190Y-209394571D01*
X213010952Y-209346952D01*
X212963333Y-209299333D01*
X212915714Y-209204095D01*
X212915714Y-209108857D01*
X212963333Y-209013619D01*
X213010952Y-208966000D01*
X213106190Y-208918380D01*
X213344285Y-208918380D01*
X213487142Y-208966000D01*
X214106190Y-208918380D02*
X214296666Y-208918380D01*
X214391904Y-208966000D01*
X214487142Y-209061238D01*
X214534761Y-209251714D01*
X214534761Y-209585047D01*
X214487142Y-209775523D01*
X214391904Y-209870761D01*
X214296666Y-209918380D01*
X214106190Y-209918380D01*
X214010952Y-209870761D01*
X213915714Y-209775523D01*
X213868095Y-209585047D01*
X213868095Y-209251714D01*
X213915714Y-209061238D01*
X214010952Y-208966000D01*
X214106190Y-208918380D01*
X214963333Y-208918380D02*
X214963333Y-209727904D01*
X215010952Y-209823142D01*
X215058571Y-209870761D01*
X215153809Y-209918380D01*
X215344285Y-209918380D01*
X215439523Y-209870761D01*
X215487142Y-209823142D01*
X215534761Y-209727904D01*
X215534761Y-208918380D01*
X215868095Y-208918380D02*
X216439523Y-208918380D01*
X216153809Y-209918380D02*
X216153809Y-208918380D01*
D13*
%TO.C,TP21*%
X180522714Y-135705809D02*
X180665571Y-135743904D01*
X180903666Y-135743904D01*
X180998904Y-135705809D01*
X181046523Y-135667714D01*
X181094142Y-135591523D01*
X181094142Y-135515333D01*
X181046523Y-135439142D01*
X180998904Y-135401047D01*
X180903666Y-135362952D01*
X180713190Y-135324857D01*
X180617952Y-135286761D01*
X180570333Y-135248666D01*
X180522714Y-135172476D01*
X180522714Y-135096285D01*
X180570333Y-135020095D01*
X180617952Y-134982000D01*
X180713190Y-134943904D01*
X180951285Y-134943904D01*
X181094142Y-134982000D01*
X181522714Y-135743904D02*
X181522714Y-134943904D01*
X181760809Y-134943904D01*
X181903666Y-134982000D01*
X181998904Y-135058190D01*
X182046523Y-135134380D01*
X182094142Y-135286761D01*
X182094142Y-135401047D01*
X182046523Y-135553428D01*
X181998904Y-135629619D01*
X181903666Y-135705809D01*
X181760809Y-135743904D01*
X181522714Y-135743904D01*
X182475095Y-135515333D02*
X182951285Y-135515333D01*
X182379857Y-135743904D02*
X182713190Y-134943904D01*
X183046523Y-135743904D01*
%TO.C,TP22*%
X180419523Y-139261809D02*
X180562380Y-139299904D01*
X180800476Y-139299904D01*
X180895714Y-139261809D01*
X180943333Y-139223714D01*
X180990952Y-139147523D01*
X180990952Y-139071333D01*
X180943333Y-138995142D01*
X180895714Y-138957047D01*
X180800476Y-138918952D01*
X180610000Y-138880857D01*
X180514761Y-138842761D01*
X180467142Y-138804666D01*
X180419523Y-138728476D01*
X180419523Y-138652285D01*
X180467142Y-138576095D01*
X180514761Y-138538000D01*
X180610000Y-138499904D01*
X180848095Y-138499904D01*
X180990952Y-138538000D01*
X181990952Y-139223714D02*
X181943333Y-139261809D01*
X181800476Y-139299904D01*
X181705238Y-139299904D01*
X181562380Y-139261809D01*
X181467142Y-139185619D01*
X181419523Y-139109428D01*
X181371904Y-138957047D01*
X181371904Y-138842761D01*
X181419523Y-138690380D01*
X181467142Y-138614190D01*
X181562380Y-138538000D01*
X181705238Y-138499904D01*
X181800476Y-138499904D01*
X181943333Y-138538000D01*
X181990952Y-138576095D01*
X182895714Y-139299904D02*
X182419523Y-139299904D01*
X182419523Y-138499904D01*
%TO.C,TP23*%
X180451238Y-143363904D02*
X180451238Y-142563904D01*
X180927428Y-143363904D02*
X180927428Y-142563904D01*
X181498857Y-143363904D01*
X181498857Y-142563904D01*
X181832190Y-142563904D02*
X182403619Y-142563904D01*
X182117904Y-143363904D02*
X182117904Y-142563904D01*
D15*
%TO.C,TP40*%
X139363571Y-122878809D02*
X139477857Y-122916904D01*
X139668333Y-122916904D01*
X139744523Y-122878809D01*
X139782619Y-122840714D01*
X139820714Y-122764523D01*
X139820714Y-122688333D01*
X139782619Y-122612142D01*
X139744523Y-122574047D01*
X139668333Y-122535952D01*
X139515952Y-122497857D01*
X139439761Y-122459761D01*
X139401666Y-122421666D01*
X139363571Y-122345476D01*
X139363571Y-122269285D01*
X139401666Y-122193095D01*
X139439761Y-122155000D01*
X139515952Y-122116904D01*
X139706428Y-122116904D01*
X139820714Y-122155000D01*
X140163571Y-122916904D02*
X140163571Y-122116904D01*
X140354047Y-122116904D01*
X140468333Y-122155000D01*
X140544523Y-122231190D01*
X140582619Y-122307380D01*
X140620714Y-122459761D01*
X140620714Y-122574047D01*
X140582619Y-122726428D01*
X140544523Y-122802619D01*
X140468333Y-122878809D01*
X140354047Y-122916904D01*
X140163571Y-122916904D01*
X140925476Y-122688333D02*
X141306428Y-122688333D01*
X140849285Y-122916904D02*
X141115952Y-122116904D01*
X141382619Y-122916904D01*
%TO.C,TP42*%
X139382619Y-130244809D02*
X139496904Y-130282904D01*
X139687380Y-130282904D01*
X139763571Y-130244809D01*
X139801666Y-130206714D01*
X139839761Y-130130523D01*
X139839761Y-130054333D01*
X139801666Y-129978142D01*
X139763571Y-129940047D01*
X139687380Y-129901952D01*
X139535000Y-129863857D01*
X139458809Y-129825761D01*
X139420714Y-129787666D01*
X139382619Y-129711476D01*
X139382619Y-129635285D01*
X139420714Y-129559095D01*
X139458809Y-129521000D01*
X139535000Y-129482904D01*
X139725476Y-129482904D01*
X139839761Y-129521000D01*
X140639761Y-130206714D02*
X140601666Y-130244809D01*
X140487380Y-130282904D01*
X140411190Y-130282904D01*
X140296904Y-130244809D01*
X140220714Y-130168619D01*
X140182619Y-130092428D01*
X140144523Y-129940047D01*
X140144523Y-129825761D01*
X140182619Y-129673380D01*
X140220714Y-129597190D01*
X140296904Y-129521000D01*
X140411190Y-129482904D01*
X140487380Y-129482904D01*
X140601666Y-129521000D01*
X140639761Y-129559095D01*
X141363571Y-130282904D02*
X140982619Y-130282904D01*
X140982619Y-129482904D01*
%TO.C,TP49*%
X118364047Y-111486952D02*
X118364047Y-111867904D01*
X118097380Y-111067904D02*
X118364047Y-111486952D01*
X118630714Y-111067904D01*
X119049761Y-111067904D02*
X119125952Y-111067904D01*
X119202142Y-111106000D01*
X119240238Y-111144095D01*
X119278333Y-111220285D01*
X119316428Y-111372666D01*
X119316428Y-111563142D01*
X119278333Y-111715523D01*
X119240238Y-111791714D01*
X119202142Y-111829809D01*
X119125952Y-111867904D01*
X119049761Y-111867904D01*
X118973571Y-111829809D01*
X118935476Y-111791714D01*
X118897380Y-111715523D01*
X118859285Y-111563142D01*
X118859285Y-111372666D01*
X118897380Y-111220285D01*
X118935476Y-111144095D01*
X118973571Y-111106000D01*
X119049761Y-111067904D01*
D13*
%TO.C,U42*%
X179609904Y-115660904D02*
X179609904Y-116308523D01*
X179657523Y-116384714D01*
X179705142Y-116422809D01*
X179800380Y-116460904D01*
X179990857Y-116460904D01*
X180086095Y-116422809D01*
X180133714Y-116384714D01*
X180181333Y-116308523D01*
X180181333Y-115660904D01*
X181086095Y-115927571D02*
X181086095Y-116460904D01*
X180848000Y-115622809D02*
X180609904Y-116194238D01*
X181228952Y-116194238D01*
X181562285Y-115737095D02*
X181609904Y-115699000D01*
X181705142Y-115660904D01*
X181943238Y-115660904D01*
X182038476Y-115699000D01*
X182086095Y-115737095D01*
X182133714Y-115813285D01*
X182133714Y-115889476D01*
X182086095Y-116003761D01*
X181514666Y-116460904D01*
X182133714Y-116460904D01*
D15*
%TO.C,TP50*%
X174204476Y-116233380D02*
X174204476Y-115233380D01*
X174537809Y-115947666D01*
X174871142Y-115233380D01*
X174871142Y-116233380D01*
X175347333Y-116233380D02*
X175347333Y-115233380D01*
X175823523Y-116233380D02*
X175823523Y-115233380D01*
X176061619Y-115233380D01*
X176204476Y-115281000D01*
X176299714Y-115376238D01*
X176347333Y-115471476D01*
X176394952Y-115661952D01*
X176394952Y-115804809D01*
X176347333Y-115995285D01*
X176299714Y-116090523D01*
X176204476Y-116185761D01*
X176061619Y-116233380D01*
X175823523Y-116233380D01*
X176823523Y-116233380D02*
X176823523Y-115233380D01*
X174752095Y-116843380D02*
X175323523Y-116843380D01*
X175037809Y-117843380D02*
X175037809Y-116843380D01*
X175561619Y-116843380D02*
X176228285Y-117843380D01*
X176228285Y-116843380D02*
X175561619Y-117843380D01*
D13*
%TO.C,U38*%
X90455904Y-159200904D02*
X90455904Y-159848523D01*
X90503523Y-159924714D01*
X90551142Y-159962809D01*
X90646380Y-160000904D01*
X90836857Y-160000904D01*
X90932095Y-159962809D01*
X90979714Y-159924714D01*
X91027333Y-159848523D01*
X91027333Y-159200904D01*
X91408285Y-159200904D02*
X92027333Y-159200904D01*
X91694000Y-159505666D01*
X91836857Y-159505666D01*
X91932095Y-159543761D01*
X91979714Y-159581857D01*
X92027333Y-159658047D01*
X92027333Y-159848523D01*
X91979714Y-159924714D01*
X91932095Y-159962809D01*
X91836857Y-160000904D01*
X91551142Y-160000904D01*
X91455904Y-159962809D01*
X91408285Y-159924714D01*
X92598761Y-159543761D02*
X92503523Y-159505666D01*
X92455904Y-159467571D01*
X92408285Y-159391380D01*
X92408285Y-159353285D01*
X92455904Y-159277095D01*
X92503523Y-159239000D01*
X92598761Y-159200904D01*
X92789238Y-159200904D01*
X92884476Y-159239000D01*
X92932095Y-159277095D01*
X92979714Y-159353285D01*
X92979714Y-159391380D01*
X92932095Y-159467571D01*
X92884476Y-159505666D01*
X92789238Y-159543761D01*
X92598761Y-159543761D01*
X92503523Y-159581857D01*
X92455904Y-159619952D01*
X92408285Y-159696142D01*
X92408285Y-159848523D01*
X92455904Y-159924714D01*
X92503523Y-159962809D01*
X92598761Y-160000904D01*
X92789238Y-160000904D01*
X92884476Y-159962809D01*
X92932095Y-159924714D01*
X92979714Y-159848523D01*
X92979714Y-159696142D01*
X92932095Y-159619952D01*
X92884476Y-159581857D01*
X92789238Y-159543761D01*
%TO.C,TP4*%
X83193095Y-153104904D02*
X83764523Y-153104904D01*
X83478809Y-153904904D02*
X83478809Y-153104904D01*
X84097857Y-153904904D02*
X84097857Y-153104904D01*
X84478809Y-153104904D01*
X84574047Y-153143000D01*
X84621666Y-153181095D01*
X84669285Y-153257285D01*
X84669285Y-153371571D01*
X84621666Y-153447761D01*
X84574047Y-153485857D01*
X84478809Y-153523952D01*
X84097857Y-153523952D01*
X85526428Y-153371571D02*
X85526428Y-153904904D01*
X85288333Y-153066809D02*
X85050238Y-153638238D01*
X85669285Y-153638238D01*
%TO.C,R7*%
X99274333Y-160000904D02*
X98941000Y-159619952D01*
X98702904Y-160000904D02*
X98702904Y-159200904D01*
X99083857Y-159200904D01*
X99179095Y-159239000D01*
X99226714Y-159277095D01*
X99274333Y-159353285D01*
X99274333Y-159467571D01*
X99226714Y-159543761D01*
X99179095Y-159581857D01*
X99083857Y-159619952D01*
X98702904Y-159619952D01*
X99607666Y-159200904D02*
X100274333Y-159200904D01*
X99845761Y-160000904D01*
%TO.C,R8*%
X99655333Y-155682904D02*
X99322000Y-155301952D01*
X99083904Y-155682904D02*
X99083904Y-154882904D01*
X99464857Y-154882904D01*
X99560095Y-154921000D01*
X99607714Y-154959095D01*
X99655333Y-155035285D01*
X99655333Y-155149571D01*
X99607714Y-155225761D01*
X99560095Y-155263857D01*
X99464857Y-155301952D01*
X99083904Y-155301952D01*
X100226761Y-155225761D02*
X100131523Y-155187666D01*
X100083904Y-155149571D01*
X100036285Y-155073380D01*
X100036285Y-155035285D01*
X100083904Y-154959095D01*
X100131523Y-154921000D01*
X100226761Y-154882904D01*
X100417238Y-154882904D01*
X100512476Y-154921000D01*
X100560095Y-154959095D01*
X100607714Y-155035285D01*
X100607714Y-155073380D01*
X100560095Y-155149571D01*
X100512476Y-155187666D01*
X100417238Y-155225761D01*
X100226761Y-155225761D01*
X100131523Y-155263857D01*
X100083904Y-155301952D01*
X100036285Y-155378142D01*
X100036285Y-155530523D01*
X100083904Y-155606714D01*
X100131523Y-155644809D01*
X100226761Y-155682904D01*
X100417238Y-155682904D01*
X100512476Y-155644809D01*
X100560095Y-155606714D01*
X100607714Y-155530523D01*
X100607714Y-155378142D01*
X100560095Y-155301952D01*
X100512476Y-155263857D01*
X100417238Y-155225761D01*
%TO.C,C1*%
X88098333Y-151034714D02*
X88050714Y-151072809D01*
X87907857Y-151110904D01*
X87812619Y-151110904D01*
X87669761Y-151072809D01*
X87574523Y-150996619D01*
X87526904Y-150920428D01*
X87479285Y-150768047D01*
X87479285Y-150653761D01*
X87526904Y-150501380D01*
X87574523Y-150425190D01*
X87669761Y-150349000D01*
X87812619Y-150310904D01*
X87907857Y-150310904D01*
X88050714Y-150349000D01*
X88098333Y-150387095D01*
X89050714Y-151110904D02*
X88479285Y-151110904D01*
X88765000Y-151110904D02*
X88765000Y-150310904D01*
X88669761Y-150425190D01*
X88574523Y-150501380D01*
X88479285Y-150539476D01*
%TO.C,C2*%
X88098333Y-148494714D02*
X88050714Y-148532809D01*
X87907857Y-148570904D01*
X87812619Y-148570904D01*
X87669761Y-148532809D01*
X87574523Y-148456619D01*
X87526904Y-148380428D01*
X87479285Y-148228047D01*
X87479285Y-148113761D01*
X87526904Y-147961380D01*
X87574523Y-147885190D01*
X87669761Y-147809000D01*
X87812619Y-147770904D01*
X87907857Y-147770904D01*
X88050714Y-147809000D01*
X88098333Y-147847095D01*
X88479285Y-147847095D02*
X88526904Y-147809000D01*
X88622142Y-147770904D01*
X88860238Y-147770904D01*
X88955476Y-147809000D01*
X89003095Y-147847095D01*
X89050714Y-147923285D01*
X89050714Y-147999476D01*
X89003095Y-148113761D01*
X88431666Y-148570904D01*
X89050714Y-148570904D01*
%TO.C,C3*%
X95210333Y-154336714D02*
X95162714Y-154374809D01*
X95019857Y-154412904D01*
X94924619Y-154412904D01*
X94781761Y-154374809D01*
X94686523Y-154298619D01*
X94638904Y-154222428D01*
X94591285Y-154070047D01*
X94591285Y-153955761D01*
X94638904Y-153803380D01*
X94686523Y-153727190D01*
X94781761Y-153651000D01*
X94924619Y-153612904D01*
X95019857Y-153612904D01*
X95162714Y-153651000D01*
X95210333Y-153689095D01*
X95543666Y-153612904D02*
X96162714Y-153612904D01*
X95829380Y-153917666D01*
X95972238Y-153917666D01*
X96067476Y-153955761D01*
X96115095Y-153993857D01*
X96162714Y-154070047D01*
X96162714Y-154260523D01*
X96115095Y-154336714D01*
X96067476Y-154374809D01*
X95972238Y-154412904D01*
X95686523Y-154412904D01*
X95591285Y-154374809D01*
X95543666Y-154336714D01*
%TO.C,C4*%
X97313714Y-150915666D02*
X97351809Y-150963285D01*
X97389904Y-151106142D01*
X97389904Y-151201380D01*
X97351809Y-151344238D01*
X97275619Y-151439476D01*
X97199428Y-151487095D01*
X97047047Y-151534714D01*
X96932761Y-151534714D01*
X96780380Y-151487095D01*
X96704190Y-151439476D01*
X96628000Y-151344238D01*
X96589904Y-151201380D01*
X96589904Y-151106142D01*
X96628000Y-150963285D01*
X96666095Y-150915666D01*
X96856571Y-150058523D02*
X97389904Y-150058523D01*
X96551809Y-150296619D02*
X97123238Y-150534714D01*
X97123238Y-149915666D01*
%TO.C,C5*%
X97313714Y-148375666D02*
X97351809Y-148423285D01*
X97389904Y-148566142D01*
X97389904Y-148661380D01*
X97351809Y-148804238D01*
X97275619Y-148899476D01*
X97199428Y-148947095D01*
X97047047Y-148994714D01*
X96932761Y-148994714D01*
X96780380Y-148947095D01*
X96704190Y-148899476D01*
X96628000Y-148804238D01*
X96589904Y-148661380D01*
X96589904Y-148566142D01*
X96628000Y-148423285D01*
X96666095Y-148375666D01*
X96589904Y-147470904D02*
X96589904Y-147947095D01*
X96970857Y-147994714D01*
X96932761Y-147947095D01*
X96894666Y-147851857D01*
X96894666Y-147613761D01*
X96932761Y-147518523D01*
X96970857Y-147470904D01*
X97047047Y-147423285D01*
X97237523Y-147423285D01*
X97313714Y-147470904D01*
X97351809Y-147518523D01*
X97389904Y-147613761D01*
X97389904Y-147851857D01*
X97351809Y-147947095D01*
X97313714Y-147994714D01*
%TO.C,D3*%
X106068904Y-153904904D02*
X106068904Y-153104904D01*
X106307000Y-153104904D01*
X106449857Y-153143000D01*
X106545095Y-153219190D01*
X106592714Y-153295380D01*
X106640333Y-153447761D01*
X106640333Y-153562047D01*
X106592714Y-153714428D01*
X106545095Y-153790619D01*
X106449857Y-153866809D01*
X106307000Y-153904904D01*
X106068904Y-153904904D01*
X106973666Y-153104904D02*
X107592714Y-153104904D01*
X107259380Y-153409666D01*
X107402238Y-153409666D01*
X107497476Y-153447761D01*
X107545095Y-153485857D01*
X107592714Y-153562047D01*
X107592714Y-153752523D01*
X107545095Y-153828714D01*
X107497476Y-153866809D01*
X107402238Y-153904904D01*
X107116523Y-153904904D01*
X107021285Y-153866809D01*
X106973666Y-153828714D01*
%TO.C,R6*%
X103846333Y-158349904D02*
X103513000Y-157968952D01*
X103274904Y-158349904D02*
X103274904Y-157549904D01*
X103655857Y-157549904D01*
X103751095Y-157588000D01*
X103798714Y-157626095D01*
X103846333Y-157702285D01*
X103846333Y-157816571D01*
X103798714Y-157892761D01*
X103751095Y-157930857D01*
X103655857Y-157968952D01*
X103274904Y-157968952D01*
X104703476Y-157549904D02*
X104513000Y-157549904D01*
X104417761Y-157588000D01*
X104370142Y-157626095D01*
X104274904Y-157740380D01*
X104227285Y-157892761D01*
X104227285Y-158197523D01*
X104274904Y-158273714D01*
X104322523Y-158311809D01*
X104417761Y-158349904D01*
X104608238Y-158349904D01*
X104703476Y-158311809D01*
X104751095Y-158273714D01*
X104798714Y-158197523D01*
X104798714Y-158007047D01*
X104751095Y-157930857D01*
X104703476Y-157892761D01*
X104608238Y-157854666D01*
X104417761Y-157854666D01*
X104322523Y-157892761D01*
X104274904Y-157930857D01*
X104227285Y-158007047D01*
%TO.C,R28*%
X315587142Y-141728904D02*
X315253809Y-141347952D01*
X315015714Y-141728904D02*
X315015714Y-140928904D01*
X315396666Y-140928904D01*
X315491904Y-140967000D01*
X315539523Y-141005095D01*
X315587142Y-141081285D01*
X315587142Y-141195571D01*
X315539523Y-141271761D01*
X315491904Y-141309857D01*
X315396666Y-141347952D01*
X315015714Y-141347952D01*
X315968095Y-141005095D02*
X316015714Y-140967000D01*
X316110952Y-140928904D01*
X316349047Y-140928904D01*
X316444285Y-140967000D01*
X316491904Y-141005095D01*
X316539523Y-141081285D01*
X316539523Y-141157476D01*
X316491904Y-141271761D01*
X315920476Y-141728904D01*
X316539523Y-141728904D01*
X317110952Y-141271761D02*
X317015714Y-141233666D01*
X316968095Y-141195571D01*
X316920476Y-141119380D01*
X316920476Y-141081285D01*
X316968095Y-141005095D01*
X317015714Y-140967000D01*
X317110952Y-140928904D01*
X317301428Y-140928904D01*
X317396666Y-140967000D01*
X317444285Y-141005095D01*
X317491904Y-141081285D01*
X317491904Y-141119380D01*
X317444285Y-141195571D01*
X317396666Y-141233666D01*
X317301428Y-141271761D01*
X317110952Y-141271761D01*
X317015714Y-141309857D01*
X316968095Y-141347952D01*
X316920476Y-141424142D01*
X316920476Y-141576523D01*
X316968095Y-141652714D01*
X317015714Y-141690809D01*
X317110952Y-141728904D01*
X317301428Y-141728904D01*
X317396666Y-141690809D01*
X317444285Y-141652714D01*
X317491904Y-141576523D01*
X317491904Y-141424142D01*
X317444285Y-141347952D01*
X317396666Y-141309857D01*
X317301428Y-141271761D01*
D15*
%TO.C,SW5*%
X257579761Y-155638333D02*
X257627380Y-155495476D01*
X257627380Y-155257380D01*
X257579761Y-155162142D01*
X257532142Y-155114523D01*
X257436904Y-155066904D01*
X257341666Y-155066904D01*
X257246428Y-155114523D01*
X257198809Y-155162142D01*
X257151190Y-155257380D01*
X257103571Y-155447857D01*
X257055952Y-155543095D01*
X257008333Y-155590714D01*
X256913095Y-155638333D01*
X256817857Y-155638333D01*
X256722619Y-155590714D01*
X256675000Y-155543095D01*
X256627380Y-155447857D01*
X256627380Y-155209761D01*
X256675000Y-155066904D01*
X256627380Y-154733571D02*
X257627380Y-154495476D01*
X256913095Y-154305000D01*
X257627380Y-154114523D01*
X256627380Y-153876428D01*
X256627380Y-153019285D02*
X256627380Y-153495476D01*
X257103571Y-153543095D01*
X257055952Y-153495476D01*
X257008333Y-153400238D01*
X257008333Y-153162142D01*
X257055952Y-153066904D01*
X257103571Y-153019285D01*
X257198809Y-152971666D01*
X257436904Y-152971666D01*
X257532142Y-153019285D01*
X257579761Y-153066904D01*
X257627380Y-153162142D01*
X257627380Y-153400238D01*
X257579761Y-153495476D01*
X257532142Y-153543095D01*
%TO.C,SW9*%
X302029761Y-155003333D02*
X302077380Y-154860476D01*
X302077380Y-154622380D01*
X302029761Y-154527142D01*
X301982142Y-154479523D01*
X301886904Y-154431904D01*
X301791666Y-154431904D01*
X301696428Y-154479523D01*
X301648809Y-154527142D01*
X301601190Y-154622380D01*
X301553571Y-154812857D01*
X301505952Y-154908095D01*
X301458333Y-154955714D01*
X301363095Y-155003333D01*
X301267857Y-155003333D01*
X301172619Y-154955714D01*
X301125000Y-154908095D01*
X301077380Y-154812857D01*
X301077380Y-154574761D01*
X301125000Y-154431904D01*
X301077380Y-154098571D02*
X302077380Y-153860476D01*
X301363095Y-153670000D01*
X302077380Y-153479523D01*
X301077380Y-153241428D01*
X302077380Y-152812857D02*
X302077380Y-152622380D01*
X302029761Y-152527142D01*
X301982142Y-152479523D01*
X301839285Y-152384285D01*
X301648809Y-152336666D01*
X301267857Y-152336666D01*
X301172619Y-152384285D01*
X301125000Y-152431904D01*
X301077380Y-152527142D01*
X301077380Y-152717619D01*
X301125000Y-152812857D01*
X301172619Y-152860476D01*
X301267857Y-152908095D01*
X301505952Y-152908095D01*
X301601190Y-152860476D01*
X301648809Y-152812857D01*
X301696428Y-152717619D01*
X301696428Y-152527142D01*
X301648809Y-152431904D01*
X301601190Y-152384285D01*
X301505952Y-152336666D01*
%TO.C,SW10*%
X279169761Y-156114523D02*
X279217380Y-155971666D01*
X279217380Y-155733571D01*
X279169761Y-155638333D01*
X279122142Y-155590714D01*
X279026904Y-155543095D01*
X278931666Y-155543095D01*
X278836428Y-155590714D01*
X278788809Y-155638333D01*
X278741190Y-155733571D01*
X278693571Y-155924047D01*
X278645952Y-156019285D01*
X278598333Y-156066904D01*
X278503095Y-156114523D01*
X278407857Y-156114523D01*
X278312619Y-156066904D01*
X278265000Y-156019285D01*
X278217380Y-155924047D01*
X278217380Y-155685952D01*
X278265000Y-155543095D01*
X278217380Y-155209761D02*
X279217380Y-154971666D01*
X278503095Y-154781190D01*
X279217380Y-154590714D01*
X278217380Y-154352619D01*
X279217380Y-153447857D02*
X279217380Y-154019285D01*
X279217380Y-153733571D02*
X278217380Y-153733571D01*
X278360238Y-153828809D01*
X278455476Y-153924047D01*
X278503095Y-154019285D01*
X278217380Y-152828809D02*
X278217380Y-152733571D01*
X278265000Y-152638333D01*
X278312619Y-152590714D01*
X278407857Y-152543095D01*
X278598333Y-152495476D01*
X278836428Y-152495476D01*
X279026904Y-152543095D01*
X279122142Y-152590714D01*
X279169761Y-152638333D01*
X279217380Y-152733571D01*
X279217380Y-152828809D01*
X279169761Y-152924047D01*
X279122142Y-152971666D01*
X279026904Y-153019285D01*
X278836428Y-153066904D01*
X278598333Y-153066904D01*
X278407857Y-153019285D01*
X278312619Y-152971666D01*
X278265000Y-152924047D01*
X278217380Y-152828809D01*
%TO.C,SW8*%
X298854761Y-99123333D02*
X298902380Y-98980476D01*
X298902380Y-98742380D01*
X298854761Y-98647142D01*
X298807142Y-98599523D01*
X298711904Y-98551904D01*
X298616666Y-98551904D01*
X298521428Y-98599523D01*
X298473809Y-98647142D01*
X298426190Y-98742380D01*
X298378571Y-98932857D01*
X298330952Y-99028095D01*
X298283333Y-99075714D01*
X298188095Y-99123333D01*
X298092857Y-99123333D01*
X297997619Y-99075714D01*
X297950000Y-99028095D01*
X297902380Y-98932857D01*
X297902380Y-98694761D01*
X297950000Y-98551904D01*
X297902380Y-98218571D02*
X298902380Y-97980476D01*
X298188095Y-97790000D01*
X298902380Y-97599523D01*
X297902380Y-97361428D01*
X298330952Y-96837619D02*
X298283333Y-96932857D01*
X298235714Y-96980476D01*
X298140476Y-97028095D01*
X298092857Y-97028095D01*
X297997619Y-96980476D01*
X297950000Y-96932857D01*
X297902380Y-96837619D01*
X297902380Y-96647142D01*
X297950000Y-96551904D01*
X297997619Y-96504285D01*
X298092857Y-96456666D01*
X298140476Y-96456666D01*
X298235714Y-96504285D01*
X298283333Y-96551904D01*
X298330952Y-96647142D01*
X298330952Y-96837619D01*
X298378571Y-96932857D01*
X298426190Y-96980476D01*
X298521428Y-97028095D01*
X298711904Y-97028095D01*
X298807142Y-96980476D01*
X298854761Y-96932857D01*
X298902380Y-96837619D01*
X298902380Y-96647142D01*
X298854761Y-96551904D01*
X298807142Y-96504285D01*
X298711904Y-96456666D01*
X298521428Y-96456666D01*
X298426190Y-96504285D01*
X298378571Y-96551904D01*
X298330952Y-96647142D01*
%TO.C,J1*%
X174722380Y-103183333D02*
X175436666Y-103183333D01*
X175579523Y-103230952D01*
X175674761Y-103326190D01*
X175722380Y-103469047D01*
X175722380Y-103564285D01*
X175722380Y-102183333D02*
X175722380Y-102754761D01*
X175722380Y-102469047D02*
X174722380Y-102469047D01*
X174865238Y-102564285D01*
X174960476Y-102659523D01*
X175008095Y-102754761D01*
%TO.C,SW6*%
X278534761Y-99123333D02*
X278582380Y-98980476D01*
X278582380Y-98742380D01*
X278534761Y-98647142D01*
X278487142Y-98599523D01*
X278391904Y-98551904D01*
X278296666Y-98551904D01*
X278201428Y-98599523D01*
X278153809Y-98647142D01*
X278106190Y-98742380D01*
X278058571Y-98932857D01*
X278010952Y-99028095D01*
X277963333Y-99075714D01*
X277868095Y-99123333D01*
X277772857Y-99123333D01*
X277677619Y-99075714D01*
X277630000Y-99028095D01*
X277582380Y-98932857D01*
X277582380Y-98694761D01*
X277630000Y-98551904D01*
X277582380Y-98218571D02*
X278582380Y-97980476D01*
X277868095Y-97790000D01*
X278582380Y-97599523D01*
X277582380Y-97361428D01*
X277582380Y-96551904D02*
X277582380Y-96742380D01*
X277630000Y-96837619D01*
X277677619Y-96885238D01*
X277820476Y-96980476D01*
X278010952Y-97028095D01*
X278391904Y-97028095D01*
X278487142Y-96980476D01*
X278534761Y-96932857D01*
X278582380Y-96837619D01*
X278582380Y-96647142D01*
X278534761Y-96551904D01*
X278487142Y-96504285D01*
X278391904Y-96456666D01*
X278153809Y-96456666D01*
X278058571Y-96504285D01*
X278010952Y-96551904D01*
X277963333Y-96647142D01*
X277963333Y-96837619D01*
X278010952Y-96932857D01*
X278058571Y-96980476D01*
X278153809Y-97028095D01*
%TO.C,SW1*%
X311974761Y-135847333D02*
X312022380Y-135704476D01*
X312022380Y-135466380D01*
X311974761Y-135371142D01*
X311927142Y-135323523D01*
X311831904Y-135275904D01*
X311736666Y-135275904D01*
X311641428Y-135323523D01*
X311593809Y-135371142D01*
X311546190Y-135466380D01*
X311498571Y-135656857D01*
X311450952Y-135752095D01*
X311403333Y-135799714D01*
X311308095Y-135847333D01*
X311212857Y-135847333D01*
X311117619Y-135799714D01*
X311070000Y-135752095D01*
X311022380Y-135656857D01*
X311022380Y-135418761D01*
X311070000Y-135275904D01*
X311022380Y-134942571D02*
X312022380Y-134704476D01*
X311308095Y-134514000D01*
X312022380Y-134323523D01*
X311022380Y-134085428D01*
X312022380Y-133180666D02*
X312022380Y-133752095D01*
X312022380Y-133466380D02*
X311022380Y-133466380D01*
X311165238Y-133561619D01*
X311260476Y-133656857D01*
X311308095Y-133752095D01*
%TO.C,SW4*%
X256944761Y-99123333D02*
X256992380Y-98980476D01*
X256992380Y-98742380D01*
X256944761Y-98647142D01*
X256897142Y-98599523D01*
X256801904Y-98551904D01*
X256706666Y-98551904D01*
X256611428Y-98599523D01*
X256563809Y-98647142D01*
X256516190Y-98742380D01*
X256468571Y-98932857D01*
X256420952Y-99028095D01*
X256373333Y-99075714D01*
X256278095Y-99123333D01*
X256182857Y-99123333D01*
X256087619Y-99075714D01*
X256040000Y-99028095D01*
X255992380Y-98932857D01*
X255992380Y-98694761D01*
X256040000Y-98551904D01*
X255992380Y-98218571D02*
X256992380Y-97980476D01*
X256278095Y-97790000D01*
X256992380Y-97599523D01*
X255992380Y-97361428D01*
X256325714Y-96551904D02*
X256992380Y-96551904D01*
X255944761Y-96790000D02*
X256659047Y-97028095D01*
X256659047Y-96409047D01*
D12*
%TO.C,C6*%
X138203000Y-148455748D02*
X138203000Y-148978252D01*
X139673000Y-148455748D02*
X139673000Y-148978252D01*
%TO.C,C7*%
X140743000Y-148455748D02*
X140743000Y-148978252D01*
X142213000Y-148455748D02*
X142213000Y-148978252D01*
%TO.C,C8*%
X194810748Y-136171000D02*
X195333252Y-136171000D01*
X194810748Y-137641000D02*
X195333252Y-137641000D01*
%TO.C,C11*%
X128389748Y-118581500D02*
X128912252Y-118581500D01*
X128389748Y-120051500D02*
X128912252Y-120051500D01*
%TO.C,C12*%
X133215748Y-117829000D02*
X133738252Y-117829000D01*
X133215748Y-116359000D02*
X133738252Y-116359000D01*
%TO.C,C13*%
X128389748Y-117829000D02*
X128912252Y-117829000D01*
X128389748Y-116359000D02*
X128912252Y-116359000D01*
%TO.C,C14*%
X133215748Y-120623000D02*
X133738252Y-120623000D01*
X133215748Y-119153000D02*
X133738252Y-119153000D01*
%TO.C,C15*%
X119232000Y-136813936D02*
X119232000Y-138268064D01*
X121052000Y-136813936D02*
X121052000Y-138268064D01*
%TO.C,C16*%
X121772000Y-136813936D02*
X121772000Y-138268064D01*
X123592000Y-136813936D02*
X123592000Y-138268064D01*
%TO.C,C17*%
X114038748Y-142086000D02*
X114561252Y-142086000D01*
X114038748Y-140616000D02*
X114561252Y-140616000D01*
%TO.C,C18*%
X119232000Y-146904064D02*
X119232000Y-145449936D01*
X121052000Y-146904064D02*
X121052000Y-145449936D01*
%TO.C,C19*%
X121772000Y-146904064D02*
X121772000Y-145449936D01*
X123592000Y-146904064D02*
X123592000Y-145449936D01*
%TO.C,C25*%
X191870000Y-126245252D02*
X191870000Y-125722748D01*
X190400000Y-126245252D02*
X190400000Y-125722748D01*
%TO.C,D4*%
X138602000Y-140660000D02*
X141462000Y-140660000D01*
X138602000Y-138740000D02*
X138602000Y-140660000D01*
X141462000Y-138740000D02*
X138602000Y-138740000D01*
%TO.C,D5*%
X117012000Y-151709000D02*
X119872000Y-151709000D01*
X117012000Y-149789000D02*
X117012000Y-151709000D01*
X119872000Y-149789000D02*
X117012000Y-149789000D01*
D15*
%TO.C,J2*%
X170180000Y-97790000D02*
X193040000Y-97790000D01*
X193040000Y-95250000D02*
X170180000Y-95250000D01*
X170180000Y-95250000D02*
X170180000Y-97790000D01*
X191770000Y-113030000D02*
X171450000Y-113030000D01*
X171450000Y-113030000D02*
X171450000Y-97790000D01*
X193040000Y-97790000D02*
X193040000Y-95250000D01*
X191770000Y-97790000D02*
X191770000Y-113030000D01*
D12*
%TO.C,J4*%
X127145000Y-104950000D02*
X127145000Y-95830000D01*
X113165000Y-111570000D02*
X114165000Y-111570000D01*
X108455000Y-104950000D02*
X108455000Y-95830000D01*
X141735000Y-104950000D02*
X108455000Y-104950000D01*
X108455000Y-95830000D02*
X141735000Y-95830000D01*
X114165000Y-111570000D02*
X113665000Y-110570000D01*
X113665000Y-110570000D02*
X113165000Y-111570000D01*
X141735000Y-95830000D02*
X141735000Y-104950000D01*
X123045000Y-104950000D02*
X123045000Y-95830000D01*
%TO.C,J5*%
X102175000Y-110320000D02*
X103225000Y-110320000D01*
X93825000Y-104220000D02*
X93825000Y-95420000D01*
X93825000Y-95420000D02*
X103025000Y-95420000D01*
X93825000Y-110120000D02*
X93825000Y-108220000D01*
X103025000Y-110120000D02*
X100425000Y-110120000D01*
X96525000Y-110120000D02*
X93825000Y-110120000D01*
X103225000Y-109270000D02*
X103225000Y-110320000D01*
X103025000Y-95420000D02*
X103025000Y-110120000D01*
%TO.C,J7*%
X153022000Y-141600000D02*
X153022000Y-141665000D01*
X149492000Y-135195000D02*
X153022000Y-135195000D01*
X149492000Y-141665000D02*
X153022000Y-141665000D01*
X149492000Y-141600000D02*
X149492000Y-141665000D01*
X148167000Y-135260000D02*
X149492000Y-135260000D01*
X149492000Y-135195000D02*
X149492000Y-135260000D01*
X153022000Y-135195000D02*
X153022000Y-135260000D01*
%TO.C,L2*%
X133132000Y-136351000D02*
X133132000Y-146351000D01*
X124932000Y-136351000D02*
X124932000Y-146351000D01*
%TO.C,R1*%
X147801064Y-119153000D02*
X147346936Y-119153000D01*
X147801064Y-120623000D02*
X147346936Y-120623000D01*
%TO.C,R2*%
X187425000Y-119226064D02*
X187425000Y-118771936D01*
X185955000Y-119226064D02*
X185955000Y-118771936D01*
%TO.C,R3*%
X171677064Y-119734000D02*
X171222936Y-119734000D01*
X171677064Y-118264000D02*
X171222936Y-118264000D01*
%TO.C,R4*%
X147801064Y-124741000D02*
X147346936Y-124741000D01*
X147801064Y-126211000D02*
X147346936Y-126211000D01*
%TO.C,R9*%
X140234936Y-137895000D02*
X140689064Y-137895000D01*
X140234936Y-136425000D02*
X140689064Y-136425000D01*
%TO.C,R10*%
X194844936Y-134139000D02*
X195299064Y-134139000D01*
X194844936Y-135609000D02*
X195299064Y-135609000D01*
%TO.C,R14*%
X195299064Y-143737000D02*
X194844936Y-143737000D01*
X195299064Y-142267000D02*
X194844936Y-142267000D01*
%TO.C,R18*%
X194844936Y-141705000D02*
X195299064Y-141705000D01*
X194844936Y-140235000D02*
X195299064Y-140235000D01*
%TO.C,R19*%
X195299064Y-138203000D02*
X194844936Y-138203000D01*
X195299064Y-139673000D02*
X194844936Y-139673000D01*
%TO.C,R21*%
X131744282Y-126132835D02*
X131423165Y-125811718D01*
X130704835Y-127172282D02*
X130383718Y-126851165D01*
%TO.C,R25*%
X112549000Y-150087064D02*
X112549000Y-149632936D01*
X114019000Y-150087064D02*
X114019000Y-149632936D01*
%TO.C,R26*%
X112549000Y-146023064D02*
X112549000Y-145568936D01*
X114019000Y-146023064D02*
X114019000Y-145568936D01*
%TO.C,R27*%
X118591000Y-145896064D02*
X118591000Y-145441936D01*
X117121000Y-145896064D02*
X117121000Y-145441936D01*
%TO.C,TP2*%
X149290000Y-127762000D02*
G75*
G03*
X149290000Y-127762000I-700000J0D01*
G01*
%TO.C,TP6*%
X118048000Y-134493000D02*
G75*
G03*
X118048000Y-134493000I-700000J0D01*
G01*
%TO.C,TP7*%
X113984000Y-153416000D02*
G75*
G03*
X113984000Y-153416000I-700000J0D01*
G01*
%TO.C,TP8*%
X141162000Y-134874000D02*
G75*
G03*
X141162000Y-134874000I-700000J0D01*
G01*
%TO.C,TP52*%
X223204000Y-141986000D02*
G75*
G03*
X223204000Y-141986000I-700000J0D01*
G01*
%TO.C,TP53*%
X223204000Y-133985000D02*
G75*
G03*
X223204000Y-133985000I-700000J0D01*
G01*
%TO.C,TP54*%
X223204000Y-136525000D02*
G75*
G03*
X223204000Y-136525000I-700000J0D01*
G01*
%TO.C,TP55*%
X223204000Y-139065000D02*
G75*
G03*
X223204000Y-139065000I-700000J0D01*
G01*
%TO.C,U33*%
X160172600Y-143430200D02*
X160172600Y-143730200D01*
X160172600Y-136510200D02*
X160472600Y-136510200D01*
X160172600Y-143730200D02*
X160472600Y-143730200D01*
X167392600Y-143430200D02*
X167392600Y-143730200D01*
X167392600Y-136810200D02*
X167392600Y-136510200D01*
X167392600Y-143730200D02*
X167092600Y-143730200D01*
X160172600Y-136810200D02*
X160172600Y-136510200D01*
X160472600Y-143730200D02*
X160472600Y-145045200D01*
X167392600Y-136510200D02*
X167092600Y-136510200D01*
%TO.C,U39*%
X113400000Y-139151000D02*
X115850000Y-139151000D01*
X115200000Y-135931000D02*
X113400000Y-135931000D01*
%TO.C,U40*%
X139702000Y-145725000D02*
X141862000Y-145725000D01*
X139702000Y-142565000D02*
X141162000Y-142565000D01*
X139702000Y-145725000D02*
X139702000Y-144795000D01*
X139702000Y-142565000D02*
X139702000Y-143495000D01*
%TO.C,U41*%
X194300800Y-119544600D02*
X200310800Y-119544600D01*
X196550800Y-126364600D02*
X200310800Y-126364600D01*
X200310800Y-126364600D02*
X200310800Y-125104600D01*
X200310800Y-119544600D02*
X200310800Y-120804600D01*
%TO.C,U43*%
X151070000Y-117415000D02*
X151070000Y-123885000D01*
X161350000Y-123885000D02*
X161350000Y-121650000D01*
X151070000Y-123885000D02*
X161350000Y-123885000D01*
X161350000Y-117415000D02*
X151070000Y-117415000D01*
X161350000Y-119650000D02*
X161350000Y-117415000D01*
X161350000Y-119650000D02*
G75*
G03*
X161350000Y-121650000I0J-1000000D01*
G01*
D15*
%TO.C,SW3*%
X100634800Y-121920000D02*
X100634800Y-116840000D01*
X94488000Y-116840000D02*
X94488000Y-121920000D01*
X102616000Y-116840000D02*
X94488000Y-116840000D01*
X94488000Y-121920000D02*
X102616000Y-121920000D01*
X102616000Y-121920000D02*
X102616000Y-116840000D01*
X100625177Y-118024461D02*
G75*
G03*
X100624640Y-120736360I-2073177J-1355539D01*
G01*
D12*
%TO.C,D1*%
X86122000Y-130012000D02*
X88122000Y-130012000D01*
X86122000Y-130012000D02*
X86122000Y-126112000D01*
X88122000Y-130012000D02*
X88122000Y-126112000D01*
%TO.C,Q1*%
X92454000Y-129342000D02*
X90994000Y-129342000D01*
X92454000Y-126182000D02*
X92454000Y-127112000D01*
X92454000Y-129342000D02*
X92454000Y-128412000D01*
X92454000Y-126182000D02*
X90294000Y-126182000D01*
%TO.C,R5*%
X89373064Y-122322000D02*
X87918936Y-122322000D01*
X89373064Y-120502000D02*
X87918936Y-120502000D01*
%TO.C,TP3*%
X87438000Y-117794000D02*
X87438000Y-116394000D01*
X87438000Y-116394000D02*
X88838000Y-116394000D01*
X88838000Y-117794000D02*
X87438000Y-117794000D01*
X88838000Y-116394000D02*
X88838000Y-117794000D01*
%TO.C,D7*%
X99512000Y-129016000D02*
X99512000Y-126156000D01*
X97592000Y-126156000D02*
X97592000Y-129016000D01*
X99512000Y-126156000D02*
X97592000Y-126156000D01*
%TO.C,R13*%
X103351000Y-127788936D02*
X103351000Y-128243064D01*
X101881000Y-127788936D02*
X101881000Y-128243064D01*
%TO.C,C24*%
X191870000Y-121277748D02*
X191870000Y-121800252D01*
X190400000Y-121277748D02*
X190400000Y-121800252D01*
%TO.C,R32*%
X210285000Y-130767064D02*
X210285000Y-130312936D01*
X208815000Y-130767064D02*
X208815000Y-130312936D01*
%TO.C,TP9*%
X205424000Y-128016000D02*
G75*
G03*
X205424000Y-128016000I-700000J0D01*
G01*
%TO.C,D6*%
X208224000Y-132400000D02*
X208224000Y-129540000D01*
X206304000Y-132400000D02*
X208224000Y-132400000D01*
X206304000Y-129540000D02*
X206304000Y-132400000D01*
%TO.C,L1*%
X90504000Y-145959000D02*
X100504000Y-145959000D01*
X90504000Y-137759000D02*
X100504000Y-137759000D01*
%TO.C,R29*%
X322045000Y-144261064D02*
X322045000Y-143806936D01*
X320575000Y-144261064D02*
X320575000Y-143806936D01*
%TO.C,TP10*%
X172658000Y-156210000D02*
G75*
G03*
X172658000Y-156210000I-700000J0D01*
G01*
%TO.C,TP11*%
X172658000Y-151638000D02*
G75*
G03*
X172658000Y-151638000I-700000J0D01*
G01*
%TO.C,TP13*%
X172658000Y-158496000D02*
G75*
G03*
X172658000Y-158496000I-700000J0D01*
G01*
%TO.C,TP15*%
X172658000Y-153924000D02*
G75*
G03*
X172658000Y-153924000I-700000J0D01*
G01*
%TO.C,TP16*%
X211520000Y-208661000D02*
G75*
G03*
X211520000Y-208661000I-700000J0D01*
G01*
%TO.C,TP21*%
X179770000Y-135382000D02*
G75*
G03*
X179770000Y-135382000I-700000J0D01*
G01*
%TO.C,TP22*%
X179770000Y-138938000D02*
G75*
G03*
X179770000Y-138938000I-700000J0D01*
G01*
%TO.C,TP23*%
X179770000Y-143002000D02*
G75*
G03*
X179770000Y-143002000I-700000J0D01*
G01*
%TO.C,TP32*%
X111190000Y-132080000D02*
G75*
G03*
X111190000Y-132080000I-700000J0D01*
G01*
%TO.C,TP33*%
X111190000Y-129540000D02*
G75*
G03*
X111190000Y-129540000I-700000J0D01*
G01*
%TO.C,TP34*%
X111190000Y-127000000D02*
G75*
G03*
X111190000Y-127000000I-700000J0D01*
G01*
%TO.C,TP35*%
X111190000Y-124460000D02*
G75*
G03*
X111190000Y-124460000I-700000J0D01*
G01*
%TO.C,TP36*%
X111190000Y-121920000D02*
G75*
G03*
X111190000Y-121920000I-700000J0D01*
G01*
%TO.C,TP37*%
X111190000Y-119380000D02*
G75*
G03*
X111190000Y-119380000I-700000J0D01*
G01*
%TO.C,TP39*%
X111190000Y-114300000D02*
G75*
G03*
X111190000Y-114300000I-700000J0D01*
G01*
%TO.C,TP40*%
X138495000Y-122555000D02*
G75*
G03*
X138495000Y-122555000I-700000J0D01*
G01*
%TO.C,TP41*%
X137225000Y-112903000D02*
G75*
G03*
X137225000Y-112903000I-700000J0D01*
G01*
%TO.C,TP42*%
X138495000Y-129921000D02*
G75*
G03*
X138495000Y-129921000I-700000J0D01*
G01*
%TO.C,TP43*%
X134685000Y-112903000D02*
G75*
G03*
X134685000Y-112903000I-700000J0D01*
G01*
%TO.C,TP44*%
X132145000Y-112903000D02*
G75*
G03*
X132145000Y-112903000I-700000J0D01*
G01*
%TO.C,TP45*%
X129605000Y-112903000D02*
G75*
G03*
X129605000Y-112903000I-700000J0D01*
G01*
%TO.C,TP46*%
X127065000Y-112903000D02*
G75*
G03*
X127065000Y-112903000I-700000J0D01*
G01*
%TO.C,TP47*%
X124525000Y-112903000D02*
G75*
G03*
X124525000Y-112903000I-700000J0D01*
G01*
%TO.C,TP48*%
X121985000Y-112903000D02*
G75*
G03*
X121985000Y-112903000I-700000J0D01*
G01*
%TO.C,TP49*%
X119445000Y-112776000D02*
G75*
G03*
X119445000Y-112776000I-700000J0D01*
G01*
%TO.C,TP38*%
X111190000Y-116840000D02*
G75*
G03*
X111190000Y-116840000I-700000J0D01*
G01*
%TO.C,U42*%
X181748000Y-117389000D02*
X179298000Y-117389000D01*
X179948000Y-120609000D02*
X181748000Y-120609000D01*
%TO.C,TP50*%
X176214000Y-118999000D02*
G75*
G03*
X176214000Y-118999000I-700000J0D01*
G01*
%TO.C,U38*%
X90084000Y-155945000D02*
X90084000Y-157745000D01*
X93304000Y-157745000D02*
X93304000Y-155295000D01*
%TO.C,TP4*%
X87695000Y-153543000D02*
G75*
G03*
X87695000Y-153543000I-700000J0D01*
G01*
%TO.C,TP5*%
X108650000Y-156210000D02*
G75*
G03*
X108650000Y-156210000I-700000J0D01*
G01*
%TO.C,R7*%
X99086936Y-158723000D02*
X99541064Y-158723000D01*
X99086936Y-157253000D02*
X99541064Y-157253000D01*
%TO.C,R8*%
X100049064Y-152808000D02*
X99594936Y-152808000D01*
X100049064Y-154278000D02*
X99594936Y-154278000D01*
%TO.C,C1*%
X90966936Y-151659000D02*
X92421064Y-151659000D01*
X90966936Y-149839000D02*
X92421064Y-149839000D01*
%TO.C,C2*%
X90966936Y-147299000D02*
X92421064Y-147299000D01*
X90966936Y-149119000D02*
X92421064Y-149119000D01*
%TO.C,C3*%
X96239000Y-157106252D02*
X96239000Y-156583748D01*
X94769000Y-157106252D02*
X94769000Y-156583748D01*
%TO.C,C4*%
X101057064Y-151659000D02*
X99602936Y-151659000D01*
X101057064Y-149839000D02*
X99602936Y-149839000D01*
%TO.C,C5*%
X101057064Y-149119000D02*
X99602936Y-149119000D01*
X101057064Y-147299000D02*
X99602936Y-147299000D01*
%TO.C,D3*%
X102026000Y-154503000D02*
X104886000Y-154503000D01*
X102026000Y-152583000D02*
X102026000Y-154503000D01*
X104886000Y-152583000D02*
X102026000Y-152583000D01*
%TO.C,R6*%
X104367064Y-155475000D02*
X103912936Y-155475000D01*
X104367064Y-156945000D02*
X103912936Y-156945000D01*
%TO.C,R28*%
X316965000Y-144261064D02*
X316965000Y-143806936D01*
X315495000Y-144261064D02*
X315495000Y-143806936D01*
%TO.C,SW5*%
X253790000Y-164305000D02*
X241490000Y-164305000D01*
X253790000Y-161585000D02*
X253790000Y-164305000D01*
X253790000Y-156585000D02*
X253790000Y-159725000D01*
X241490000Y-152005000D02*
X253790000Y-152005000D01*
X241490000Y-164305000D02*
X241490000Y-161585000D01*
X253790000Y-152005000D02*
X253790000Y-154725000D01*
X241490000Y-154725000D02*
X241490000Y-152005000D01*
X241490000Y-159725000D02*
X241490000Y-156585000D01*
X252119050Y-158115000D02*
G75*
G03*
X252119050Y-158115000I-4579050J0D01*
G01*
%TO.C,SW9*%
X298350000Y-156585000D02*
X298350000Y-159725000D01*
X286050000Y-154725000D02*
X286050000Y-152005000D01*
X298350000Y-164305000D02*
X286050000Y-164305000D01*
X298350000Y-152005000D02*
X298350000Y-154725000D01*
X286050000Y-159725000D02*
X286050000Y-156585000D01*
X286050000Y-164305000D02*
X286050000Y-161585000D01*
X286050000Y-152005000D02*
X298350000Y-152005000D01*
X298350000Y-161585000D02*
X298350000Y-164305000D01*
X296679050Y-158115000D02*
G75*
G03*
X296679050Y-158115000I-4579050J0D01*
G01*
%TO.C,TP60*%
X138495000Y-127381000D02*
G75*
G03*
X138495000Y-127381000I-700000J0D01*
G01*
%TO.C,TP19*%
X227585500Y-137668000D02*
G75*
G03*
X227585500Y-137668000I-700000J0D01*
G01*
%TO.C,SW10*%
X275380000Y-151965000D02*
X275380000Y-154685000D01*
X275380000Y-156545000D02*
X275380000Y-159685000D01*
X275380000Y-164265000D02*
X263080000Y-164265000D01*
X263080000Y-154685000D02*
X263080000Y-151965000D01*
X263080000Y-151965000D02*
X275380000Y-151965000D01*
X263080000Y-159685000D02*
X263080000Y-156545000D01*
X263080000Y-164265000D02*
X263080000Y-161545000D01*
X275380000Y-161545000D02*
X275380000Y-164265000D01*
X273709050Y-158075000D02*
G75*
G03*
X273709050Y-158075000I-4579050J0D01*
G01*
%TO.C,TP58*%
X168848000Y-152654000D02*
G75*
G03*
X168848000Y-152654000I-700000J0D01*
G01*
%TO.C,TP56*%
X168848000Y-150368000D02*
G75*
G03*
X168848000Y-150368000I-700000J0D01*
G01*
%TO.C,TP51*%
X168848000Y-157226000D02*
G75*
G03*
X168848000Y-157226000I-700000J0D01*
G01*
%TO.C,TP14*%
X177484000Y-140970000D02*
G75*
G03*
X177484000Y-140970000I-700000J0D01*
G01*
%TO.C,TP17*%
X227585500Y-140716000D02*
G75*
G03*
X227585500Y-140716000I-700000J0D01*
G01*
%TO.C,TP57*%
X168848000Y-154940000D02*
G75*
G03*
X168848000Y-154940000I-700000J0D01*
G01*
%TO.C,TP20*%
X227649000Y-135255000D02*
G75*
G03*
X227649000Y-135255000I-700000J0D01*
G01*
%TO.C,TP12*%
X177484000Y-144780000D02*
G75*
G03*
X177484000Y-144780000I-700000J0D01*
G01*
%TO.C,TP59*%
X138495000Y-124841000D02*
G75*
G03*
X138495000Y-124841000I-700000J0D01*
G01*
%TO.C,TP18*%
X227522000Y-143256000D02*
G75*
G03*
X227522000Y-143256000I-700000J0D01*
G01*
%TO.C,TP1*%
X177484000Y-137160000D02*
G75*
G03*
X177484000Y-137160000I-700000J0D01*
G01*
%TO.C,SW8*%
X283420000Y-103805000D02*
X283420000Y-100665000D01*
X283420000Y-96085000D02*
X295720000Y-96085000D01*
X283420000Y-98805000D02*
X283420000Y-96085000D01*
X295720000Y-100665000D02*
X295720000Y-103805000D01*
X295720000Y-96085000D02*
X295720000Y-98805000D01*
X283420000Y-108385000D02*
X283420000Y-105665000D01*
X295720000Y-108385000D02*
X283420000Y-108385000D01*
X295720000Y-105665000D02*
X295720000Y-108385000D01*
X294249050Y-102275000D02*
G75*
G03*
X294249050Y-102275000I-4579050J0D01*
G01*
D15*
%TO.C,J1*%
X166380000Y-95230000D02*
X143520000Y-95230000D01*
X144790000Y-113010000D02*
X144790000Y-97770000D01*
X165110000Y-97770000D02*
X165110000Y-113010000D01*
X143520000Y-97770000D02*
X166380000Y-97770000D01*
X143520000Y-95230000D02*
X143520000Y-97770000D01*
X165110000Y-113010000D02*
X144790000Y-113010000D01*
X166380000Y-97770000D02*
X166380000Y-95230000D01*
D12*
%TO.C,SW6*%
X263100000Y-98805000D02*
X263100000Y-96085000D01*
X275400000Y-96085000D02*
X275400000Y-98805000D01*
X275400000Y-100665000D02*
X275400000Y-103805000D01*
X275400000Y-105665000D02*
X275400000Y-108385000D01*
X263100000Y-96085000D02*
X275400000Y-96085000D01*
X263100000Y-108385000D02*
X263100000Y-105665000D01*
X263100000Y-103805000D02*
X263100000Y-100665000D01*
X275400000Y-108385000D02*
X263100000Y-108385000D01*
X273929050Y-102275000D02*
G75*
G03*
X273929050Y-102275000I-4579050J0D01*
G01*
%TO.C,SW1*%
X312470000Y-131714000D02*
X312470000Y-136514000D01*
X318270000Y-129814000D02*
X319270000Y-129814000D01*
X318770000Y-130314000D02*
X318770000Y-129314000D01*
X312470000Y-128014000D02*
X312470000Y-123114000D01*
X314970000Y-137314000D02*
X314670000Y-137614000D01*
X312470000Y-123114000D02*
X315070000Y-123114000D01*
X314670000Y-137614000D02*
X314670000Y-137014000D01*
X322470000Y-123114000D02*
X325070000Y-123114000D01*
X325070000Y-123114000D02*
X325070000Y-128014000D01*
X325070000Y-131614000D02*
X325070000Y-136514000D01*
X325070000Y-136514000D02*
X322270000Y-136514000D01*
X317470000Y-123114000D02*
X320070000Y-123114000D01*
X312470000Y-136514000D02*
X314970000Y-136514000D01*
X314670000Y-137014000D02*
X314970000Y-137314000D01*
X321770000Y-129814000D02*
G75*
G03*
X321770000Y-129814000I-3000000J0D01*
G01*
%TO.C,SW4*%
X253810000Y-96085000D02*
X253810000Y-98805000D01*
X241510000Y-98805000D02*
X241510000Y-96085000D01*
X241510000Y-108385000D02*
X241510000Y-105665000D01*
X253810000Y-105665000D02*
X253810000Y-108385000D01*
X253810000Y-108385000D02*
X241510000Y-108385000D01*
X241510000Y-96085000D02*
X253810000Y-96085000D01*
X253810000Y-100665000D02*
X253810000Y-103805000D01*
X241510000Y-103805000D02*
X241510000Y-100665000D01*
X252339050Y-102275000D02*
G75*
G03*
X252339050Y-102275000I-4579050J0D01*
G01*
%TD*%
M02*
