M48
; DRILL file {KiCad (6.0.5-0)} date Tuesday, 21 June 2022 at 23:58:59
; FORMAT={-:-/ absolute / inch / decimal}
; #@! TF.CreationDate,2022-06-21T23:58:59+01:00
; #@! TF.GenerationSoftware,Kicad,Pcbnew,(6.0.5-0)
; #@! TF.FileFunction,Plated,1,4,PTH
FMAT,2
INCH
; #@! TA.AperFunction,Plated,PTH,ViaDrill
T1C0.0079
; #@! TA.AperFunction,Plated,PTH,ComponentDrill
T2C0.0079
; #@! TA.AperFunction,Plated,PTH,ViaDrill
T3C0.0118
; #@! TA.AperFunction,Plated,PTH,ViaDrill
T4C0.0197
; #@! TA.AperFunction,Plated,PTH,ComponentDrill
T5C0.0197
; #@! TA.AperFunction,Plated,PTH,ComponentDrill
T6C0.0394
; #@! TA.AperFunction,Plated,PTH,ComponentDrill
T7C0.0429
; #@! TA.AperFunction,Plated,PTH,ComponentDrill
T8C0.0512
; #@! TA.AperFunction,Plated,PTH,ComponentDrill
T9C0.0591
; #@! TA.AperFunction,Plated,PTH,ComponentDrill
T10C0.0787
; #@! TA.AperFunction,Plated,PTH,ComponentDrill
T11C0.1260
%
G90
G05
T1
X6.115Y-5.685
X6.15Y-5.615
X6.33Y-5.595
X6.33Y-5.625
X6.9Y-5.4
X6.9Y-5.55
X6.9Y-5.7
X7.51Y-5.32
X9.94Y-5.98
X10.18Y-5.99
X10.41Y-6.02
T2
X4.7781Y-4.5881
X4.7781Y-4.6275
X4.7781Y-4.6669
X4.8175Y-4.5881
X4.8175Y-4.6275
X4.8175Y-4.6669
X4.8569Y-4.5881
X4.8569Y-4.6275
X4.8569Y-4.6669
T3
X3.41Y-6.935
X3.489Y-7.1755
X3.61Y-6.045
X3.6325Y-6.8825
X3.6474Y-6.1714
X3.6625Y-6.9675
X3.664Y-7.526
X3.667Y-7.4945
X3.6875Y-7.555
X3.6894Y-6.935
X3.718Y-6.99
X3.719Y-7.471
X3.8835Y-7.21
X3.885Y-7.25
X3.92Y-6.22
X4.0865Y-6.6615
X4.0994Y-5.0794
X4.2225Y-6.88
X4.2475Y-6.965
X4.2485Y-7.526
X4.264Y-7.4945
X4.2752Y-6.935
X4.2775Y-7.5575
X4.309Y-7.471
X4.31Y-6.99
X4.415Y-4.5
X4.475Y-7.21
X4.475Y-7.25
X4.5Y-4.46
X4.5433Y-5.4867
X4.6Y-4.535
X4.6288Y-6.3712
X4.65Y-4.5
X4.675Y-4.525
X4.69Y-5.005
X4.7244Y-4.5467
X4.7575Y-4.7775
X4.81Y-5.005
X4.8125Y-6.8825
X4.8385Y-7.526
X4.8398Y-6.9653
X4.8545Y-7.4945
X4.865Y-6.935
X4.865Y-7.555
X4.899Y-6.99
X4.899Y-7.471
X4.9Y-4.82
X4.92Y-5.005
X4.93Y-4.79
X4.9561Y-4.6964
X4.96Y-4.53
X4.9625Y-4.73
X5.065Y-7.21
X5.065Y-7.25
X5.0725Y-4.61
X5.0725Y-4.6975
X5.125Y-4.525
X5.2225Y-5.2525
X5.34Y-4.61
X5.35Y-4.915
X5.4025Y-6.88
X5.429Y-7.526
X5.43Y-6.9675
X5.4395Y-7.4945
X5.4575Y-6.935
X5.4575Y-7.5575
X5.47Y-5.86
X5.489Y-7.471
X5.49Y-6.985
X5.535Y-5.4
X5.57Y-5.86
X5.6003Y-5.7124
X5.6487Y-6.3662
X5.655Y-7.25
X5.656Y-7.21
X5.69Y-4.785
X5.77Y-5.4
X5.77Y-5.55
X5.82Y-6.37
X5.995Y-6.8825
X6.019Y-7.526
X6.02Y-6.9675
X6.0295Y-7.4945
X6.05Y-6.935
X6.05Y-7.555
X6.079Y-7.471
X6.08Y-6.99
X6.115Y-5.55
X6.125Y-5.23
X6.23Y-5.4
X6.245Y-7.25
X6.246Y-7.21
X6.335Y-5.565
X6.37Y-5.275
X6.37Y-5.735
X6.3715Y-5.125
X6.4009Y-5.175
X6.4009Y-5.3009
X6.4051Y-4.6551
X6.425Y-5.075
X6.4324Y-5.7376
X6.4639Y-5.2939
X6.4639Y-5.6411
X6.475Y-5.1
X6.48Y-5.53
X6.56Y-5.0977
X6.57Y-5.92
X6.57Y-6.01
X6.57Y-6.1
X6.57Y-6.19
X6.585Y-6.88
X6.6125Y-6.9675
X6.6185Y-7.526
X6.6185Y-7.4945
X6.6424Y-6.935
X6.6429Y-7.5575
X6.671Y-6.99
X6.6715Y-7.4715
X6.695Y-5.23
X6.7242Y-5.4258
X6.7242Y-5.5008
X6.837Y-7.213
X6.8375Y-7.25
X6.88Y-6.36
X6.93Y-6.36
X7.0126Y-4.7224
X7.11Y-5.92
X7.15Y-5.92
X7.17Y-5.73
X7.19Y-5.92
X7.2015Y-7.526
X7.203Y-7.4945
X7.2047Y-6.935
X7.2067Y-6.9035
X7.23Y-5.7
X7.23Y-5.92
X7.2323Y-6.9222
X7.2329Y-7.5575
X7.261Y-6.99
X7.2615Y-7.4715
X7.27Y-5.92
X7.32Y-5.92
X7.37Y-5.92
X7.42Y-6.36
X7.42Y-5.92
X7.427Y-7.21
X7.4275Y-7.25
X7.525Y-4.955
X7.55Y-5.73
X7.55Y-5.95
X7.59Y-5.31
X7.595Y-5.55
X7.595Y-5.39
X7.595Y-5.47
X7.595Y-5.63
X7.6Y-5.7
X7.6Y-5.95
X7.689Y-5.39
X7.6946Y-6.3304
X7.7194Y-5.7019
X7.75Y-6.3017
X7.765Y-6.8775
X7.7885Y-7.526
X7.795Y-6.9675
X7.8Y-4.72
X7.8Y-4.79
X7.8Y-4.9
X7.8Y-4.965
X7.8045Y-7.4945
X7.8175Y-7.5575
X7.82Y-6.355
X7.8225Y-6.9349
X7.85Y-6.3
X7.8515Y-7.4715
X7.852Y-6.989
X7.875Y-4.72
X7.875Y-4.79
X7.875Y-4.9
X7.875Y-4.965
X7.895Y-6.33
X7.95Y-4.72
X7.95Y-4.79
X7.95Y-4.9
X7.95Y-4.965
X7.954Y-7.21
X7.9565Y-7.25
X8.03Y-7.6
X8.05Y-6.525
X8.05Y-6.575
X8.05Y-6.625
X8.05Y-6.675
X8.05Y-6.725
X8.05Y-7.75
X8.05Y-7.8
X8.05Y-7.85
X8.05Y-7.9
X8.05Y-7.95
X8.084Y-7.636
X8.095Y-6.355
X8.1Y-6.525
X8.1Y-6.575
X8.1Y-6.625
X8.1Y-6.675
X8.1Y-6.725
X8.1Y-7.7
X8.1Y-7.75
X8.1Y-7.8
X8.1Y-7.85
X8.1Y-7.9
X8.1Y-7.95
X8.125Y-6.38
X8.15Y-6.525
X8.15Y-6.575
X8.15Y-6.625
X8.15Y-6.675
X8.15Y-6.725
X8.15Y-7.75
X8.15Y-7.8
X8.15Y-7.85
X8.15Y-7.9
X8.15Y-7.95
X8.215Y-6.3
X8.2474Y-8.1678
X8.25Y-5.1383
X8.3825Y-7.5575
X8.385Y-6.935
X8.387Y-7.4945
X8.41Y-7.5275
X8.413Y-6.868
X8.4134Y-6.967
X8.4415Y-7.4735
X8.442Y-6.99
X8.54Y-6.1
X8.6075Y-7.2475
X8.61Y-7.21
X8.835Y-5.59
X8.875Y-5.275
X8.875Y-5.375
X8.875Y-5.475
X8.97Y-5.325
X8.97Y-5.42
X8.97Y-5.54
X8.9721Y-6.9353
X8.978Y-7.558
X8.985Y-5.64
X8.988Y-7.465
X9.0039Y-6.9665
X9.0044Y-7.526
X9.0059Y-6.9035
X9.0256Y-6.9961
X9.033Y-7.472
X9.199Y-7.249
X9.2Y-7.21
X9.567Y-6.936
X9.5675Y-7.5575
X9.577Y-7.469
X9.5925Y-7.526
X9.594Y-6.875
X9.5944Y-6.9665
X9.623Y-6.99
X9.623Y-7.472
X9.789Y-7.21
X9.789Y-7.251
X10.127Y-7.468
X10.156Y-6.935
X10.1573Y-7.5575
X10.18Y-7.525
X10.184Y-6.9665
X10.188Y-6.874
X10.214Y-6.99
X10.214Y-7.471
X10.38Y-7.21
X10.38Y-7.25
X10.7475Y-7.5575
X10.748Y-6.935
X10.765Y-7.467
X10.7725Y-7.525
X10.773Y-6.9665
X10.777Y-6.875
X10.804Y-6.99
X10.804Y-7.471
X10.97Y-7.21
X10.97Y-7.25
X11.335Y-7.5575
X11.337Y-7.466
X11.337Y-6.936
X11.3625Y-7.525
X11.366Y-6.968
X11.371Y-6.875
X11.395Y-6.99
X11.395Y-7.47
X11.56Y-7.21
X11.561Y-7.249
X11.928Y-6.935
X11.93Y-7.5575
X11.937Y-7.494
X11.9539Y-7.5292
X11.956Y-6.966
X11.96Y-6.874
X11.985Y-6.99
X11.985Y-7.47
X12.15Y-7.21
X12.151Y-7.249
X12.5173Y-7.555
X12.519Y-6.935
X12.533Y-7.469
X12.5425Y-7.525
X12.547Y-6.9665
X12.551Y-6.876
X12.576Y-6.99
X12.576Y-7.471
X12.7399Y-7.2499
X12.74Y-7.21
T4
X3.275Y-4.59
X3.275Y-4.965
X3.275Y-5.365
X3.275Y-5.765
X3.275Y-6.115
X3.275Y-6.74
X3.275Y-7.14
X3.275Y-7.49
X3.275Y-7.865
X3.4Y-8.09
X3.45Y-6.565
X3.61Y-5.75
X3.63Y-4.78
X3.65Y-3.84
X3.65Y-4.34
X3.675Y-6.39
X3.77Y-5.51
X3.77Y-5.585
X3.77Y-5.66
X3.785Y-5.835
X3.785Y-5.935
X3.9Y-8.34
X4.025Y-6.39
X4.15Y-3.84
X4.15Y-4.34
X4.15Y-4.84
X4.4Y-4.09
X4.4Y-8.34
X4.425Y-6.165
X4.55Y-5.14
X4.62Y-5.415
X4.65Y-3.84
X4.725Y-5.565
X4.75Y-6.165
X4.825Y-5.565
X4.9Y-4.09
X4.9Y-8.34
X4.905Y-5.415
X5.05Y-5.14
X5.05Y-6.165
X5.075Y-5.565
X5.15Y-3.84
X5.375Y-6.165
X5.4Y-4.09
X5.4Y-8.34
X5.65Y-3.84
X5.65Y-4.34
X5.675Y-6.165
X5.9Y-4.09
X5.9Y-8.34
X6.0Y-5.0
X6.2Y-6.165
X6.4Y-4.09
X6.4Y-8.34
X6.9Y-4.09
X6.9Y-4.965
X6.9Y-8.34
X7.325Y-4.965
X7.4Y-4.09
X7.4Y-8.34
X7.65Y-3.84
X7.675Y-4.34
X7.9Y-4.09
X7.9Y-4.59
X8.024Y-6.376
X8.15Y-4.34
X8.15Y-4.84
X8.4Y-4.09
X8.4Y-4.59
X8.65Y-3.84
X8.65Y-4.34
X8.65Y-4.84
X8.65Y-8.34
X8.9Y-4.09
X8.9Y-4.59
X9.15Y-3.84
X9.15Y-4.84
X9.15Y-8.34
X9.4Y-4.59
X9.4Y-5.09
X9.4Y-5.59
X9.65Y-4.34
X9.65Y-4.84
X9.65Y-5.34
X9.65Y-5.84
X9.65Y-8.34
X9.9Y-4.59
X9.9Y-5.09
X9.9Y-5.59
X10.15Y-4.34
X10.15Y-4.84
X10.15Y-5.34
X10.15Y-5.84
X10.15Y-8.34
X10.4Y-4.59
X10.4Y-5.09
X10.4Y-5.59
X10.65Y-4.34
X10.65Y-4.84
X10.65Y-5.34
X10.65Y-5.84
X10.65Y-8.34
X10.9Y-4.59
X10.9Y-5.09
X10.9Y-5.59
X11.15Y-4.34
X11.15Y-4.84
X11.15Y-5.34
X11.15Y-5.84
X11.15Y-8.34
X11.4Y-4.59
X11.4Y-5.09
X11.4Y-5.59
X11.65Y-5.34
X11.65Y-5.84
X11.65Y-8.34
X11.9Y-4.09
X11.9Y-5.09
X11.9Y-5.59
X12.15Y-3.84
X12.15Y-4.34
X12.15Y-4.84
X12.15Y-5.34
X12.15Y-5.84
X12.15Y-8.34
X12.4Y-4.09
X12.4Y-4.59
X12.5Y-6.165
X12.65Y-4.34
X12.65Y-5.84
X12.65Y-8.09
X12.9Y-4.59
X12.9Y-5.09
X12.9Y-5.59
X12.9Y-6.09
X12.9Y-6.59
X12.9Y-7.09
X12.9Y-7.59
T5
X3.3055Y-3.95
X3.3055Y-6.35
X3.3055Y-8.375
X3.3332Y-3.8832
X3.3332Y-4.0168
X3.3332Y-6.2832
X3.3332Y-6.4168
X3.3332Y-8.3082
X3.3332Y-8.4418
X3.4Y-3.8555
X3.4Y-4.0445
X3.4Y-6.2555
X3.4Y-6.4445
X3.4Y-8.2805
X3.4Y-8.4695
X3.4668Y-3.8832
X3.4668Y-4.0168
X3.4668Y-6.2832
X3.4668Y-6.4168
X3.4668Y-8.3082
X3.4668Y-8.4418
X3.4945Y-3.95
X3.4945Y-6.35
X3.4945Y-8.375
X8.0055Y-3.95
X8.0055Y-8.375
X8.0255Y-5.91
X8.0332Y-3.8832
X8.0332Y-4.0168
X8.0332Y-8.3082
X8.0332Y-8.4418
X8.0532Y-5.8432
X8.0532Y-5.9768
X8.1Y-3.8555
X8.1Y-4.0445
X8.1Y-8.2805
X8.1Y-8.4695
X8.12Y-5.8155
X8.12Y-6.0045
X8.1668Y-3.8832
X8.1668Y-4.0168
X8.1668Y-8.3082
X8.1668Y-8.4418
X8.1868Y-5.8432
X8.1868Y-5.9768
X8.1945Y-3.95
X8.1945Y-8.375
X8.2145Y-5.91
X12.7305Y-3.95
X12.7305Y-6.35
X12.7305Y-8.375
X12.7582Y-3.8832
X12.7582Y-4.0168
X12.7582Y-6.2832
X12.7582Y-6.4168
X12.7582Y-8.3082
X12.7582Y-8.4418
X12.825Y-3.8555
X12.825Y-4.0445
X12.825Y-6.2555
X12.825Y-6.4445
X12.825Y-8.2805
X12.825Y-8.4695
X12.8918Y-3.8832
X12.8918Y-4.0168
X12.8918Y-6.2832
X12.8918Y-6.4168
X12.8918Y-8.3082
X12.8918Y-8.4418
X12.9195Y-3.95
X12.9195Y-6.35
X12.9195Y-8.375
T6
X4.475Y-4.2
X4.475Y-4.3
X4.575Y-4.2
X4.575Y-4.3
X4.675Y-4.2
X4.675Y-4.3
X4.775Y-4.2
X4.775Y-4.3
X4.875Y-4.2
X4.875Y-4.3
X4.975Y-4.2
X4.975Y-4.3
X5.075Y-4.2
X5.075Y-4.3
X5.175Y-4.2
X5.175Y-4.3
X5.275Y-4.2
X5.275Y-4.3
X5.375Y-4.2
X5.375Y-4.3
X6.024Y-5.674
X6.024Y-5.774
X6.024Y-5.874
X6.024Y-5.974
X6.024Y-6.074
X6.024Y-6.174
X9.265Y-4.825
X9.265Y-4.925
X9.265Y-5.025
X9.265Y-5.125
X9.265Y-5.225
X9.265Y-5.325
X9.265Y-5.425
X12.4516Y-4.8352
X12.4516Y-5.4061
X12.55Y-5.4061
X12.6484Y-4.8352
X12.6484Y-5.4061
T7
X3.78Y-4.7
X3.88Y-4.7
X3.98Y-4.7
T8
X9.5035Y-6.1281
X9.5035Y-6.325
X9.5043Y-3.9266
X9.5043Y-4.1234
X9.9957Y-6.1281
X9.9957Y-6.325
X9.9965Y-3.9266
X9.9965Y-4.1234
X10.3535Y-6.1266
X10.3535Y-6.3234
X10.3543Y-3.9266
X10.3543Y-4.1234
X10.8457Y-6.1266
X10.8457Y-6.3234
X10.8465Y-3.9266
X10.8465Y-4.1234
X11.1543Y-3.9266
X11.1543Y-4.1234
X11.2579Y-6.1281
X11.2579Y-6.325
X11.6465Y-3.9266
X11.6465Y-4.1234
X11.75Y-6.1281
X11.75Y-6.325
T9
X5.8Y-4.25
X5.9Y-3.85
X5.9Y-4.35
X6.1Y-4.25
X6.3Y-3.85
X6.3Y-4.35
X6.4Y-4.25
X6.85Y-4.25
X6.95Y-3.85
X6.95Y-4.35
X7.15Y-4.25
X7.35Y-3.85
X7.35Y-4.35
X7.45Y-4.25
T11
X3.4Y-3.95
X3.4Y-6.35
X3.4Y-8.375
X8.1Y-3.95
X8.1Y-8.375
X8.12Y-5.91
X12.825Y-3.95
X12.825Y-6.35
X12.825Y-8.375
T6
G00X3.69Y-4.1425
M15
G01X3.69Y-4.2213
M16
G05
G00X3.9144Y-4.0638
M15
G01X3.8356Y-4.0638
M16
G05
G00X3.9144Y-4.3
M15
G01X3.8356Y-4.3
M16
G05
T10
G00X12.3295Y-5.1206
M15
G01X12.3295Y-5.1009
M16
G05
G00X12.7705Y-5.1206
M15
G01X12.7705Y-5.1009
M16
G05
T0
M30
