%TF.GenerationSoftware,KiCad,Pcbnew,(5.1.8-0-10_14)*%
%TF.CreationDate,2021-06-09T19:28:07+01:00*%
%TF.ProjectId,BassStation_Sequencer_MidiInterface,42617373-5374-4617-9469-6f6e5f536571,A*%
%TF.SameCoordinates,Original*%
%TF.FileFunction,Paste,Bot*%
%TF.FilePolarity,Positive*%
%FSLAX46Y46*%
G04 Gerber Fmt 4.6, Leading zero omitted, Abs format (unit mm)*
G04 Created by KiCad (PCBNEW (5.1.8-0-10_14)) date 2021-06-09 19:28:07*
%MOMM*%
%LPD*%
G01*
G04 APERTURE LIST*
%ADD10R,0.960000X1.030000*%
%ADD11R,1.550000X0.300000*%
%ADD12C,0.100000*%
%ADD13R,1.100000X1.100000*%
G04 APERTURE END LIST*
%TO.C,U35*%
G36*
G01*
X190272500Y-141075000D02*
X189522500Y-141075000D01*
G75*
G02*
X189460000Y-141012500I0J62500D01*
G01*
X189460000Y-140887500D01*
G75*
G02*
X189522500Y-140825000I62500J0D01*
G01*
X190272500Y-140825000D01*
G75*
G02*
X190335000Y-140887500I0J-62500D01*
G01*
X190335000Y-141012500D01*
G75*
G02*
X190272500Y-141075000I-62500J0D01*
G01*
G37*
G36*
G01*
X190272500Y-140575000D02*
X189522500Y-140575000D01*
G75*
G02*
X189460000Y-140512500I0J62500D01*
G01*
X189460000Y-140387500D01*
G75*
G02*
X189522500Y-140325000I62500J0D01*
G01*
X190272500Y-140325000D01*
G75*
G02*
X190335000Y-140387500I0J-62500D01*
G01*
X190335000Y-140512500D01*
G75*
G02*
X190272500Y-140575000I-62500J0D01*
G01*
G37*
G36*
G01*
X190272500Y-140075000D02*
X189522500Y-140075000D01*
G75*
G02*
X189460000Y-140012500I0J62500D01*
G01*
X189460000Y-139887500D01*
G75*
G02*
X189522500Y-139825000I62500J0D01*
G01*
X190272500Y-139825000D01*
G75*
G02*
X190335000Y-139887500I0J-62500D01*
G01*
X190335000Y-140012500D01*
G75*
G02*
X190272500Y-140075000I-62500J0D01*
G01*
G37*
G36*
G01*
X190272500Y-139575000D02*
X189522500Y-139575000D01*
G75*
G02*
X189460000Y-139512500I0J62500D01*
G01*
X189460000Y-139387500D01*
G75*
G02*
X189522500Y-139325000I62500J0D01*
G01*
X190272500Y-139325000D01*
G75*
G02*
X190335000Y-139387500I0J-62500D01*
G01*
X190335000Y-139512500D01*
G75*
G02*
X190272500Y-139575000I-62500J0D01*
G01*
G37*
G36*
G01*
X190272500Y-139075000D02*
X189522500Y-139075000D01*
G75*
G02*
X189460000Y-139012500I0J62500D01*
G01*
X189460000Y-138887500D01*
G75*
G02*
X189522500Y-138825000I62500J0D01*
G01*
X190272500Y-138825000D01*
G75*
G02*
X190335000Y-138887500I0J-62500D01*
G01*
X190335000Y-139012500D01*
G75*
G02*
X190272500Y-139075000I-62500J0D01*
G01*
G37*
G36*
G01*
X190272500Y-138575000D02*
X189522500Y-138575000D01*
G75*
G02*
X189460000Y-138512500I0J62500D01*
G01*
X189460000Y-138387500D01*
G75*
G02*
X189522500Y-138325000I62500J0D01*
G01*
X190272500Y-138325000D01*
G75*
G02*
X190335000Y-138387500I0J-62500D01*
G01*
X190335000Y-138512500D01*
G75*
G02*
X190272500Y-138575000I-62500J0D01*
G01*
G37*
G36*
G01*
X189272500Y-138200000D02*
X189147500Y-138200000D01*
G75*
G02*
X189085000Y-138137500I0J62500D01*
G01*
X189085000Y-137387500D01*
G75*
G02*
X189147500Y-137325000I62500J0D01*
G01*
X189272500Y-137325000D01*
G75*
G02*
X189335000Y-137387500I0J-62500D01*
G01*
X189335000Y-138137500D01*
G75*
G02*
X189272500Y-138200000I-62500J0D01*
G01*
G37*
G36*
G01*
X188772500Y-138200000D02*
X188647500Y-138200000D01*
G75*
G02*
X188585000Y-138137500I0J62500D01*
G01*
X188585000Y-137387500D01*
G75*
G02*
X188647500Y-137325000I62500J0D01*
G01*
X188772500Y-137325000D01*
G75*
G02*
X188835000Y-137387500I0J-62500D01*
G01*
X188835000Y-138137500D01*
G75*
G02*
X188772500Y-138200000I-62500J0D01*
G01*
G37*
G36*
G01*
X188272500Y-138200000D02*
X188147500Y-138200000D01*
G75*
G02*
X188085000Y-138137500I0J62500D01*
G01*
X188085000Y-137387500D01*
G75*
G02*
X188147500Y-137325000I62500J0D01*
G01*
X188272500Y-137325000D01*
G75*
G02*
X188335000Y-137387500I0J-62500D01*
G01*
X188335000Y-138137500D01*
G75*
G02*
X188272500Y-138200000I-62500J0D01*
G01*
G37*
G36*
G01*
X187772500Y-138200000D02*
X187647500Y-138200000D01*
G75*
G02*
X187585000Y-138137500I0J62500D01*
G01*
X187585000Y-137387500D01*
G75*
G02*
X187647500Y-137325000I62500J0D01*
G01*
X187772500Y-137325000D01*
G75*
G02*
X187835000Y-137387500I0J-62500D01*
G01*
X187835000Y-138137500D01*
G75*
G02*
X187772500Y-138200000I-62500J0D01*
G01*
G37*
G36*
G01*
X187272500Y-138200000D02*
X187147500Y-138200000D01*
G75*
G02*
X187085000Y-138137500I0J62500D01*
G01*
X187085000Y-137387500D01*
G75*
G02*
X187147500Y-137325000I62500J0D01*
G01*
X187272500Y-137325000D01*
G75*
G02*
X187335000Y-137387500I0J-62500D01*
G01*
X187335000Y-138137500D01*
G75*
G02*
X187272500Y-138200000I-62500J0D01*
G01*
G37*
G36*
G01*
X186772500Y-138200000D02*
X186647500Y-138200000D01*
G75*
G02*
X186585000Y-138137500I0J62500D01*
G01*
X186585000Y-137387500D01*
G75*
G02*
X186647500Y-137325000I62500J0D01*
G01*
X186772500Y-137325000D01*
G75*
G02*
X186835000Y-137387500I0J-62500D01*
G01*
X186835000Y-138137500D01*
G75*
G02*
X186772500Y-138200000I-62500J0D01*
G01*
G37*
G36*
G01*
X186397500Y-138575000D02*
X185647500Y-138575000D01*
G75*
G02*
X185585000Y-138512500I0J62500D01*
G01*
X185585000Y-138387500D01*
G75*
G02*
X185647500Y-138325000I62500J0D01*
G01*
X186397500Y-138325000D01*
G75*
G02*
X186460000Y-138387500I0J-62500D01*
G01*
X186460000Y-138512500D01*
G75*
G02*
X186397500Y-138575000I-62500J0D01*
G01*
G37*
G36*
G01*
X186397500Y-139075000D02*
X185647500Y-139075000D01*
G75*
G02*
X185585000Y-139012500I0J62500D01*
G01*
X185585000Y-138887500D01*
G75*
G02*
X185647500Y-138825000I62500J0D01*
G01*
X186397500Y-138825000D01*
G75*
G02*
X186460000Y-138887500I0J-62500D01*
G01*
X186460000Y-139012500D01*
G75*
G02*
X186397500Y-139075000I-62500J0D01*
G01*
G37*
G36*
G01*
X186397500Y-139575000D02*
X185647500Y-139575000D01*
G75*
G02*
X185585000Y-139512500I0J62500D01*
G01*
X185585000Y-139387500D01*
G75*
G02*
X185647500Y-139325000I62500J0D01*
G01*
X186397500Y-139325000D01*
G75*
G02*
X186460000Y-139387500I0J-62500D01*
G01*
X186460000Y-139512500D01*
G75*
G02*
X186397500Y-139575000I-62500J0D01*
G01*
G37*
G36*
G01*
X186397500Y-140075000D02*
X185647500Y-140075000D01*
G75*
G02*
X185585000Y-140012500I0J62500D01*
G01*
X185585000Y-139887500D01*
G75*
G02*
X185647500Y-139825000I62500J0D01*
G01*
X186397500Y-139825000D01*
G75*
G02*
X186460000Y-139887500I0J-62500D01*
G01*
X186460000Y-140012500D01*
G75*
G02*
X186397500Y-140075000I-62500J0D01*
G01*
G37*
G36*
G01*
X186397500Y-140575000D02*
X185647500Y-140575000D01*
G75*
G02*
X185585000Y-140512500I0J62500D01*
G01*
X185585000Y-140387500D01*
G75*
G02*
X185647500Y-140325000I62500J0D01*
G01*
X186397500Y-140325000D01*
G75*
G02*
X186460000Y-140387500I0J-62500D01*
G01*
X186460000Y-140512500D01*
G75*
G02*
X186397500Y-140575000I-62500J0D01*
G01*
G37*
G36*
G01*
X186397500Y-141075000D02*
X185647500Y-141075000D01*
G75*
G02*
X185585000Y-141012500I0J62500D01*
G01*
X185585000Y-140887500D01*
G75*
G02*
X185647500Y-140825000I62500J0D01*
G01*
X186397500Y-140825000D01*
G75*
G02*
X186460000Y-140887500I0J-62500D01*
G01*
X186460000Y-141012500D01*
G75*
G02*
X186397500Y-141075000I-62500J0D01*
G01*
G37*
G36*
G01*
X186772500Y-142075000D02*
X186647500Y-142075000D01*
G75*
G02*
X186585000Y-142012500I0J62500D01*
G01*
X186585000Y-141262500D01*
G75*
G02*
X186647500Y-141200000I62500J0D01*
G01*
X186772500Y-141200000D01*
G75*
G02*
X186835000Y-141262500I0J-62500D01*
G01*
X186835000Y-142012500D01*
G75*
G02*
X186772500Y-142075000I-62500J0D01*
G01*
G37*
G36*
G01*
X187272500Y-142075000D02*
X187147500Y-142075000D01*
G75*
G02*
X187085000Y-142012500I0J62500D01*
G01*
X187085000Y-141262500D01*
G75*
G02*
X187147500Y-141200000I62500J0D01*
G01*
X187272500Y-141200000D01*
G75*
G02*
X187335000Y-141262500I0J-62500D01*
G01*
X187335000Y-142012500D01*
G75*
G02*
X187272500Y-142075000I-62500J0D01*
G01*
G37*
G36*
G01*
X187772500Y-142075000D02*
X187647500Y-142075000D01*
G75*
G02*
X187585000Y-142012500I0J62500D01*
G01*
X187585000Y-141262500D01*
G75*
G02*
X187647500Y-141200000I62500J0D01*
G01*
X187772500Y-141200000D01*
G75*
G02*
X187835000Y-141262500I0J-62500D01*
G01*
X187835000Y-142012500D01*
G75*
G02*
X187772500Y-142075000I-62500J0D01*
G01*
G37*
G36*
G01*
X188272500Y-142075000D02*
X188147500Y-142075000D01*
G75*
G02*
X188085000Y-142012500I0J62500D01*
G01*
X188085000Y-141262500D01*
G75*
G02*
X188147500Y-141200000I62500J0D01*
G01*
X188272500Y-141200000D01*
G75*
G02*
X188335000Y-141262500I0J-62500D01*
G01*
X188335000Y-142012500D01*
G75*
G02*
X188272500Y-142075000I-62500J0D01*
G01*
G37*
G36*
G01*
X188772500Y-142075000D02*
X188647500Y-142075000D01*
G75*
G02*
X188585000Y-142012500I0J62500D01*
G01*
X188585000Y-141262500D01*
G75*
G02*
X188647500Y-141200000I62500J0D01*
G01*
X188772500Y-141200000D01*
G75*
G02*
X188835000Y-141262500I0J-62500D01*
G01*
X188835000Y-142012500D01*
G75*
G02*
X188772500Y-142075000I-62500J0D01*
G01*
G37*
G36*
G01*
X189272500Y-142075000D02*
X189147500Y-142075000D01*
G75*
G02*
X189085000Y-142012500I0J62500D01*
G01*
X189085000Y-141262500D01*
G75*
G02*
X189147500Y-141200000I62500J0D01*
G01*
X189272500Y-141200000D01*
G75*
G02*
X189335000Y-141262500I0J-62500D01*
G01*
X189335000Y-142012500D01*
G75*
G02*
X189272500Y-142075000I-62500J0D01*
G01*
G37*
G36*
G01*
X187625000Y-139605000D02*
X187145000Y-139605000D01*
G75*
G02*
X186905000Y-139365000I0J240000D01*
G01*
X186905000Y-138885000D01*
G75*
G02*
X187145000Y-138645000I240000J0D01*
G01*
X187625000Y-138645000D01*
G75*
G02*
X187865000Y-138885000I0J-240000D01*
G01*
X187865000Y-139365000D01*
G75*
G02*
X187625000Y-139605000I-240000J0D01*
G01*
G37*
G36*
G01*
X188775000Y-139605000D02*
X188295000Y-139605000D01*
G75*
G02*
X188055000Y-139365000I0J240000D01*
G01*
X188055000Y-138885000D01*
G75*
G02*
X188295000Y-138645000I240000J0D01*
G01*
X188775000Y-138645000D01*
G75*
G02*
X189015000Y-138885000I0J-240000D01*
G01*
X189015000Y-139365000D01*
G75*
G02*
X188775000Y-139605000I-240000J0D01*
G01*
G37*
G36*
G01*
X187625000Y-140755000D02*
X187145000Y-140755000D01*
G75*
G02*
X186905000Y-140515000I0J240000D01*
G01*
X186905000Y-140035000D01*
G75*
G02*
X187145000Y-139795000I240000J0D01*
G01*
X187625000Y-139795000D01*
G75*
G02*
X187865000Y-140035000I0J-240000D01*
G01*
X187865000Y-140515000D01*
G75*
G02*
X187625000Y-140755000I-240000J0D01*
G01*
G37*
G36*
G01*
X188775000Y-140755000D02*
X188295000Y-140755000D01*
G75*
G02*
X188055000Y-140515000I0J240000D01*
G01*
X188055000Y-140035000D01*
G75*
G02*
X188295000Y-139795000I240000J0D01*
G01*
X188775000Y-139795000D01*
G75*
G02*
X189015000Y-140035000I0J-240000D01*
G01*
X189015000Y-140515000D01*
G75*
G02*
X188775000Y-140755000I-240000J0D01*
G01*
G37*
%TD*%
D10*
%TO.C,U37*%
X207070400Y-170243500D03*
X205867000Y-170243500D03*
X204663600Y-170243500D03*
X207070400Y-168973500D03*
X205867000Y-168973500D03*
X204663600Y-168973500D03*
X207070400Y-167703500D03*
X205867000Y-167703500D03*
X204663600Y-167703500D03*
X207070400Y-166433500D03*
X205867000Y-166433500D03*
X204663600Y-166433500D03*
X204663600Y-165163500D03*
X205867000Y-165163500D03*
X207070400Y-165163500D03*
D11*
X202117000Y-160953500D03*
X202117000Y-161453500D03*
X202117000Y-161953500D03*
X202117000Y-162453500D03*
X202117000Y-162953500D03*
X202117000Y-163453500D03*
X202117000Y-163953500D03*
X202117000Y-164453500D03*
X202117000Y-164953500D03*
X202117000Y-165453500D03*
X202117000Y-165953500D03*
X202117000Y-166453500D03*
X202117000Y-166953500D03*
X202117000Y-167453500D03*
X202117000Y-167953500D03*
X202117000Y-168453500D03*
X202117000Y-168953500D03*
X202117000Y-169453500D03*
X202117000Y-169953500D03*
X202117000Y-170453500D03*
X202117000Y-170953500D03*
X202117000Y-171453500D03*
X202117000Y-171953500D03*
X202117000Y-172453500D03*
X202117000Y-172953500D03*
X202117000Y-173453500D03*
X202117000Y-173953500D03*
X202117000Y-174453500D03*
X209617000Y-174453500D03*
X209617000Y-173953500D03*
X209617000Y-173453500D03*
X209617000Y-172953500D03*
X209617000Y-172453500D03*
X209617000Y-171953500D03*
X209617000Y-171453500D03*
X209617000Y-170953500D03*
X209617000Y-170453500D03*
X209617000Y-169953500D03*
X209617000Y-169453500D03*
X209617000Y-168953500D03*
X209617000Y-168453500D03*
X209617000Y-167953500D03*
X209617000Y-167453500D03*
X209617000Y-166953500D03*
X209617000Y-166453500D03*
X209617000Y-165953500D03*
X209617000Y-165453500D03*
X209617000Y-164953500D03*
X209617000Y-164453500D03*
X209617000Y-163953500D03*
X209617000Y-163453500D03*
X209617000Y-162953500D03*
X209617000Y-162453500D03*
X209617000Y-161953500D03*
X209617000Y-161453500D03*
X209617000Y-160953500D03*
%TD*%
D12*
%TO.C,U34*%
G36*
X123771983Y-116043918D02*
G01*
X123792779Y-116050226D01*
X123811944Y-116060471D01*
X123828743Y-116074257D01*
X123842529Y-116091056D01*
X123852774Y-116110221D01*
X123859082Y-116131017D01*
X123861212Y-116152644D01*
X123861212Y-116374356D01*
X123859082Y-116395983D01*
X123852774Y-116416779D01*
X123842529Y-116435944D01*
X123828743Y-116452743D01*
X123811944Y-116466529D01*
X123792779Y-116476774D01*
X123771983Y-116483082D01*
X123750356Y-116485212D01*
X123639973Y-116485212D01*
X123618346Y-116483082D01*
X123597550Y-116476774D01*
X123578385Y-116466529D01*
X123561586Y-116452743D01*
X123450257Y-116341414D01*
X123436471Y-116324615D01*
X123426226Y-116305450D01*
X123419918Y-116284654D01*
X123417788Y-116263027D01*
X123417788Y-116152644D01*
X123419918Y-116131017D01*
X123426226Y-116110221D01*
X123436471Y-116091056D01*
X123450257Y-116074257D01*
X123467056Y-116060471D01*
X123486221Y-116050226D01*
X123507017Y-116043918D01*
X123528644Y-116041788D01*
X123750356Y-116041788D01*
X123771983Y-116043918D01*
G37*
G36*
X123771983Y-118593918D02*
G01*
X123792779Y-118600226D01*
X123811944Y-118610471D01*
X123828743Y-118624257D01*
X123842529Y-118641056D01*
X123852774Y-118660221D01*
X123859082Y-118681017D01*
X123861212Y-118702644D01*
X123861212Y-118924356D01*
X123859082Y-118945983D01*
X123852774Y-118966779D01*
X123842529Y-118985944D01*
X123828743Y-119002743D01*
X123811944Y-119016529D01*
X123792779Y-119026774D01*
X123771983Y-119033082D01*
X123750356Y-119035212D01*
X123528644Y-119035212D01*
X123507017Y-119033082D01*
X123486221Y-119026774D01*
X123467056Y-119016529D01*
X123450257Y-119002743D01*
X123436471Y-118985944D01*
X123426226Y-118966779D01*
X123419918Y-118945983D01*
X123417788Y-118924356D01*
X123417788Y-118813973D01*
X123419918Y-118792346D01*
X123426226Y-118771550D01*
X123436471Y-118752385D01*
X123450257Y-118735586D01*
X123561586Y-118624257D01*
X123578385Y-118610471D01*
X123597550Y-118600226D01*
X123618346Y-118593918D01*
X123639973Y-118591788D01*
X123750356Y-118591788D01*
X123771983Y-118593918D01*
G37*
G36*
X121221983Y-116043918D02*
G01*
X121242779Y-116050226D01*
X121261944Y-116060471D01*
X121278743Y-116074257D01*
X121292529Y-116091056D01*
X121302774Y-116110221D01*
X121309082Y-116131017D01*
X121311212Y-116152644D01*
X121311212Y-116263027D01*
X121309082Y-116284654D01*
X121302774Y-116305450D01*
X121292529Y-116324615D01*
X121278743Y-116341414D01*
X121167414Y-116452743D01*
X121150615Y-116466529D01*
X121131450Y-116476774D01*
X121110654Y-116483082D01*
X121089027Y-116485212D01*
X120978644Y-116485212D01*
X120957017Y-116483082D01*
X120936221Y-116476774D01*
X120917056Y-116466529D01*
X120900257Y-116452743D01*
X120886471Y-116435944D01*
X120876226Y-116416779D01*
X120869918Y-116395983D01*
X120867788Y-116374356D01*
X120867788Y-116152644D01*
X120869918Y-116131017D01*
X120876226Y-116110221D01*
X120886471Y-116091056D01*
X120900257Y-116074257D01*
X120917056Y-116060471D01*
X120936221Y-116050226D01*
X120957017Y-116043918D01*
X120978644Y-116041788D01*
X121200356Y-116041788D01*
X121221983Y-116043918D01*
G37*
G36*
X121110654Y-118593918D02*
G01*
X121131450Y-118600226D01*
X121150615Y-118610471D01*
X121167414Y-118624257D01*
X121278743Y-118735586D01*
X121292529Y-118752385D01*
X121302774Y-118771550D01*
X121309082Y-118792346D01*
X121311212Y-118813973D01*
X121311212Y-118924356D01*
X121309082Y-118945983D01*
X121302774Y-118966779D01*
X121292529Y-118985944D01*
X121278743Y-119002743D01*
X121261944Y-119016529D01*
X121242779Y-119026774D01*
X121221983Y-119033082D01*
X121200356Y-119035212D01*
X120978644Y-119035212D01*
X120957017Y-119033082D01*
X120936221Y-119026774D01*
X120917056Y-119016529D01*
X120900257Y-119002743D01*
X120886471Y-118985944D01*
X120876226Y-118966779D01*
X120869918Y-118945983D01*
X120867788Y-118924356D01*
X120867788Y-118702644D01*
X120869918Y-118681017D01*
X120876226Y-118660221D01*
X120886471Y-118641056D01*
X120900257Y-118624257D01*
X120917056Y-118610471D01*
X120936221Y-118600226D01*
X120957017Y-118593918D01*
X120978644Y-118591788D01*
X121089027Y-118591788D01*
X121110654Y-118593918D01*
G37*
G36*
X123192104Y-116043591D02*
G01*
X123209703Y-116048929D01*
X123225921Y-116057598D01*
X123240137Y-116069264D01*
X123251803Y-116083480D01*
X123260472Y-116099698D01*
X123265810Y-116117297D01*
X123267613Y-116135598D01*
X123267613Y-116313687D01*
X123265810Y-116331988D01*
X123260472Y-116349587D01*
X123251803Y-116365805D01*
X123240137Y-116380021D01*
X123162422Y-116457736D01*
X123148206Y-116469402D01*
X123131988Y-116478071D01*
X123114389Y-116483409D01*
X123096088Y-116485212D01*
X122632912Y-116485212D01*
X122614611Y-116483409D01*
X122597012Y-116478071D01*
X122580794Y-116469402D01*
X122566578Y-116457736D01*
X122488863Y-116380021D01*
X122477197Y-116365805D01*
X122468528Y-116349587D01*
X122463190Y-116331988D01*
X122461387Y-116313687D01*
X122461387Y-116135598D01*
X122463190Y-116117297D01*
X122468528Y-116099698D01*
X122477197Y-116083480D01*
X122488863Y-116069264D01*
X122503079Y-116057598D01*
X122519297Y-116048929D01*
X122536896Y-116043591D01*
X122555197Y-116041788D01*
X123173803Y-116041788D01*
X123192104Y-116043591D01*
G37*
G36*
X122192104Y-116043591D02*
G01*
X122209703Y-116048929D01*
X122225921Y-116057598D01*
X122240137Y-116069264D01*
X122251803Y-116083480D01*
X122260472Y-116099698D01*
X122265810Y-116117297D01*
X122267613Y-116135598D01*
X122267613Y-116313687D01*
X122265810Y-116331988D01*
X122260472Y-116349587D01*
X122251803Y-116365805D01*
X122240137Y-116380021D01*
X122162422Y-116457736D01*
X122148206Y-116469402D01*
X122131988Y-116478071D01*
X122114389Y-116483409D01*
X122096088Y-116485212D01*
X121632912Y-116485212D01*
X121614611Y-116483409D01*
X121597012Y-116478071D01*
X121580794Y-116469402D01*
X121566578Y-116457736D01*
X121488863Y-116380021D01*
X121477197Y-116365805D01*
X121468528Y-116349587D01*
X121463190Y-116331988D01*
X121461387Y-116313687D01*
X121461387Y-116135598D01*
X121463190Y-116117297D01*
X121468528Y-116099698D01*
X121477197Y-116083480D01*
X121488863Y-116069264D01*
X121503079Y-116057598D01*
X121519297Y-116048929D01*
X121536896Y-116043591D01*
X121555197Y-116041788D01*
X122173803Y-116041788D01*
X122192104Y-116043591D01*
G37*
G36*
X123114389Y-118593591D02*
G01*
X123131988Y-118598929D01*
X123148206Y-118607598D01*
X123162422Y-118619264D01*
X123240137Y-118696979D01*
X123251803Y-118711195D01*
X123260472Y-118727413D01*
X123265810Y-118745012D01*
X123267613Y-118763313D01*
X123267613Y-118941402D01*
X123265810Y-118959703D01*
X123260472Y-118977302D01*
X123251803Y-118993520D01*
X123240137Y-119007736D01*
X123225921Y-119019402D01*
X123209703Y-119028071D01*
X123192104Y-119033409D01*
X123173803Y-119035212D01*
X122555197Y-119035212D01*
X122536896Y-119033409D01*
X122519297Y-119028071D01*
X122503079Y-119019402D01*
X122488863Y-119007736D01*
X122477197Y-118993520D01*
X122468528Y-118977302D01*
X122463190Y-118959703D01*
X122461387Y-118941402D01*
X122461387Y-118763313D01*
X122463190Y-118745012D01*
X122468528Y-118727413D01*
X122477197Y-118711195D01*
X122488863Y-118696979D01*
X122566578Y-118619264D01*
X122580794Y-118607598D01*
X122597012Y-118598929D01*
X122614611Y-118593591D01*
X122632912Y-118591788D01*
X123096088Y-118591788D01*
X123114389Y-118593591D01*
G37*
G36*
X122114389Y-118593591D02*
G01*
X122131988Y-118598929D01*
X122148206Y-118607598D01*
X122162422Y-118619264D01*
X122240137Y-118696979D01*
X122251803Y-118711195D01*
X122260472Y-118727413D01*
X122265810Y-118745012D01*
X122267613Y-118763313D01*
X122267613Y-118941402D01*
X122265810Y-118959703D01*
X122260472Y-118977302D01*
X122251803Y-118993520D01*
X122240137Y-119007736D01*
X122225921Y-119019402D01*
X122209703Y-119028071D01*
X122192104Y-119033409D01*
X122173803Y-119035212D01*
X121555197Y-119035212D01*
X121536896Y-119033409D01*
X121519297Y-119028071D01*
X121503079Y-119019402D01*
X121488863Y-119007736D01*
X121477197Y-118993520D01*
X121468528Y-118977302D01*
X121463190Y-118959703D01*
X121461387Y-118941402D01*
X121461387Y-118763313D01*
X121463190Y-118745012D01*
X121468528Y-118727413D01*
X121477197Y-118711195D01*
X121488863Y-118696979D01*
X121566578Y-118619264D01*
X121580794Y-118607598D01*
X121597012Y-118598929D01*
X121614611Y-118593591D01*
X121632912Y-118591788D01*
X122096088Y-118591788D01*
X122114389Y-118593591D01*
G37*
G36*
X123785703Y-116637190D02*
G01*
X123803302Y-116642528D01*
X123819520Y-116651197D01*
X123833736Y-116662863D01*
X123845402Y-116677079D01*
X123854071Y-116693297D01*
X123859409Y-116710896D01*
X123861212Y-116729197D01*
X123861212Y-117347803D01*
X123859409Y-117366104D01*
X123854071Y-117383703D01*
X123845402Y-117399921D01*
X123833736Y-117414137D01*
X123819520Y-117425803D01*
X123803302Y-117434472D01*
X123785703Y-117439810D01*
X123767402Y-117441613D01*
X123589313Y-117441613D01*
X123571012Y-117439810D01*
X123553413Y-117434472D01*
X123537195Y-117425803D01*
X123522979Y-117414137D01*
X123445264Y-117336422D01*
X123433598Y-117322206D01*
X123424929Y-117305988D01*
X123419591Y-117288389D01*
X123417788Y-117270088D01*
X123417788Y-116806912D01*
X123419591Y-116788611D01*
X123424929Y-116771012D01*
X123433598Y-116754794D01*
X123445264Y-116740578D01*
X123522979Y-116662863D01*
X123537195Y-116651197D01*
X123553413Y-116642528D01*
X123571012Y-116637190D01*
X123589313Y-116635387D01*
X123767402Y-116635387D01*
X123785703Y-116637190D01*
G37*
G36*
X123785703Y-117637190D02*
G01*
X123803302Y-117642528D01*
X123819520Y-117651197D01*
X123833736Y-117662863D01*
X123845402Y-117677079D01*
X123854071Y-117693297D01*
X123859409Y-117710896D01*
X123861212Y-117729197D01*
X123861212Y-118347803D01*
X123859409Y-118366104D01*
X123854071Y-118383703D01*
X123845402Y-118399921D01*
X123833736Y-118414137D01*
X123819520Y-118425803D01*
X123803302Y-118434472D01*
X123785703Y-118439810D01*
X123767402Y-118441613D01*
X123589313Y-118441613D01*
X123571012Y-118439810D01*
X123553413Y-118434472D01*
X123537195Y-118425803D01*
X123522979Y-118414137D01*
X123445264Y-118336422D01*
X123433598Y-118322206D01*
X123424929Y-118305988D01*
X123419591Y-118288389D01*
X123417788Y-118270088D01*
X123417788Y-117806912D01*
X123419591Y-117788611D01*
X123424929Y-117771012D01*
X123433598Y-117754794D01*
X123445264Y-117740578D01*
X123522979Y-117662863D01*
X123537195Y-117651197D01*
X123553413Y-117642528D01*
X123571012Y-117637190D01*
X123589313Y-117635387D01*
X123767402Y-117635387D01*
X123785703Y-117637190D01*
G37*
G36*
X121157988Y-116637190D02*
G01*
X121175587Y-116642528D01*
X121191805Y-116651197D01*
X121206021Y-116662863D01*
X121283736Y-116740578D01*
X121295402Y-116754794D01*
X121304071Y-116771012D01*
X121309409Y-116788611D01*
X121311212Y-116806912D01*
X121311212Y-117270088D01*
X121309409Y-117288389D01*
X121304071Y-117305988D01*
X121295402Y-117322206D01*
X121283736Y-117336422D01*
X121206021Y-117414137D01*
X121191805Y-117425803D01*
X121175587Y-117434472D01*
X121157988Y-117439810D01*
X121139687Y-117441613D01*
X120961598Y-117441613D01*
X120943297Y-117439810D01*
X120925698Y-117434472D01*
X120909480Y-117425803D01*
X120895264Y-117414137D01*
X120883598Y-117399921D01*
X120874929Y-117383703D01*
X120869591Y-117366104D01*
X120867788Y-117347803D01*
X120867788Y-116729197D01*
X120869591Y-116710896D01*
X120874929Y-116693297D01*
X120883598Y-116677079D01*
X120895264Y-116662863D01*
X120909480Y-116651197D01*
X120925698Y-116642528D01*
X120943297Y-116637190D01*
X120961598Y-116635387D01*
X121139687Y-116635387D01*
X121157988Y-116637190D01*
G37*
G36*
X121157988Y-117637190D02*
G01*
X121175587Y-117642528D01*
X121191805Y-117651197D01*
X121206021Y-117662863D01*
X121283736Y-117740578D01*
X121295402Y-117754794D01*
X121304071Y-117771012D01*
X121309409Y-117788611D01*
X121311212Y-117806912D01*
X121311212Y-118270088D01*
X121309409Y-118288389D01*
X121304071Y-118305988D01*
X121295402Y-118322206D01*
X121283736Y-118336422D01*
X121206021Y-118414137D01*
X121191805Y-118425803D01*
X121175587Y-118434472D01*
X121157988Y-118439810D01*
X121139687Y-118441613D01*
X120961598Y-118441613D01*
X120943297Y-118439810D01*
X120925698Y-118434472D01*
X120909480Y-118425803D01*
X120895264Y-118414137D01*
X120883598Y-118399921D01*
X120874929Y-118383703D01*
X120869591Y-118366104D01*
X120867788Y-118347803D01*
X120867788Y-117729197D01*
X120869591Y-117710896D01*
X120874929Y-117693297D01*
X120883598Y-117677079D01*
X120895264Y-117662863D01*
X120909480Y-117651197D01*
X120925698Y-117642528D01*
X120943297Y-117637190D01*
X120961598Y-117635387D01*
X121139687Y-117635387D01*
X121157988Y-117637190D01*
G37*
G36*
G01*
X122461387Y-117240057D02*
X122461387Y-116836943D01*
G75*
G02*
X122662943Y-116635387I201556J0D01*
G01*
X123066057Y-116635387D01*
G75*
G02*
X123267613Y-116836943I0J-201556D01*
G01*
X123267613Y-117240057D01*
G75*
G02*
X123066057Y-117441613I-201556J0D01*
G01*
X122662943Y-117441613D01*
G75*
G02*
X122461387Y-117240057I0J201556D01*
G01*
G37*
G36*
G01*
X122461387Y-118240057D02*
X122461387Y-117836943D01*
G75*
G02*
X122662943Y-117635387I201556J0D01*
G01*
X123066057Y-117635387D01*
G75*
G02*
X123267613Y-117836943I0J-201556D01*
G01*
X123267613Y-118240057D01*
G75*
G02*
X123066057Y-118441613I-201556J0D01*
G01*
X122662943Y-118441613D01*
G75*
G02*
X122461387Y-118240057I0J201556D01*
G01*
G37*
G36*
G01*
X121461387Y-117240057D02*
X121461387Y-116836943D01*
G75*
G02*
X121662943Y-116635387I201556J0D01*
G01*
X122066057Y-116635387D01*
G75*
G02*
X122267613Y-116836943I0J-201556D01*
G01*
X122267613Y-117240057D01*
G75*
G02*
X122066057Y-117441613I-201556J0D01*
G01*
X121662943Y-117441613D01*
G75*
G02*
X121461387Y-117240057I0J201556D01*
G01*
G37*
G36*
G01*
X121461387Y-118240057D02*
X121461387Y-117836943D01*
G75*
G02*
X121662943Y-117635387I201556J0D01*
G01*
X122066057Y-117635387D01*
G75*
G02*
X122267613Y-117836943I0J-201556D01*
G01*
X122267613Y-118240057D01*
G75*
G02*
X122066057Y-118441613I-201556J0D01*
G01*
X121662943Y-118441613D01*
G75*
G02*
X121461387Y-118240057I0J201556D01*
G01*
G37*
G36*
G01*
X120489500Y-120351000D02*
X120489500Y-119601000D01*
G75*
G02*
X120552000Y-119538500I62500J0D01*
G01*
X120677000Y-119538500D01*
G75*
G02*
X120739500Y-119601000I0J-62500D01*
G01*
X120739500Y-120351000D01*
G75*
G02*
X120677000Y-120413500I-62500J0D01*
G01*
X120552000Y-120413500D01*
G75*
G02*
X120489500Y-120351000I0J62500D01*
G01*
G37*
G36*
G01*
X120989500Y-120351000D02*
X120989500Y-119601000D01*
G75*
G02*
X121052000Y-119538500I62500J0D01*
G01*
X121177000Y-119538500D01*
G75*
G02*
X121239500Y-119601000I0J-62500D01*
G01*
X121239500Y-120351000D01*
G75*
G02*
X121177000Y-120413500I-62500J0D01*
G01*
X121052000Y-120413500D01*
G75*
G02*
X120989500Y-120351000I0J62500D01*
G01*
G37*
G36*
G01*
X121489500Y-120351000D02*
X121489500Y-119601000D01*
G75*
G02*
X121552000Y-119538500I62500J0D01*
G01*
X121677000Y-119538500D01*
G75*
G02*
X121739500Y-119601000I0J-62500D01*
G01*
X121739500Y-120351000D01*
G75*
G02*
X121677000Y-120413500I-62500J0D01*
G01*
X121552000Y-120413500D01*
G75*
G02*
X121489500Y-120351000I0J62500D01*
G01*
G37*
G36*
G01*
X121989500Y-120351000D02*
X121989500Y-119601000D01*
G75*
G02*
X122052000Y-119538500I62500J0D01*
G01*
X122177000Y-119538500D01*
G75*
G02*
X122239500Y-119601000I0J-62500D01*
G01*
X122239500Y-120351000D01*
G75*
G02*
X122177000Y-120413500I-62500J0D01*
G01*
X122052000Y-120413500D01*
G75*
G02*
X121989500Y-120351000I0J62500D01*
G01*
G37*
G36*
G01*
X122489500Y-120351000D02*
X122489500Y-119601000D01*
G75*
G02*
X122552000Y-119538500I62500J0D01*
G01*
X122677000Y-119538500D01*
G75*
G02*
X122739500Y-119601000I0J-62500D01*
G01*
X122739500Y-120351000D01*
G75*
G02*
X122677000Y-120413500I-62500J0D01*
G01*
X122552000Y-120413500D01*
G75*
G02*
X122489500Y-120351000I0J62500D01*
G01*
G37*
G36*
G01*
X122989500Y-120351000D02*
X122989500Y-119601000D01*
G75*
G02*
X123052000Y-119538500I62500J0D01*
G01*
X123177000Y-119538500D01*
G75*
G02*
X123239500Y-119601000I0J-62500D01*
G01*
X123239500Y-120351000D01*
G75*
G02*
X123177000Y-120413500I-62500J0D01*
G01*
X123052000Y-120413500D01*
G75*
G02*
X122989500Y-120351000I0J62500D01*
G01*
G37*
G36*
G01*
X123489500Y-120351000D02*
X123489500Y-119601000D01*
G75*
G02*
X123552000Y-119538500I62500J0D01*
G01*
X123677000Y-119538500D01*
G75*
G02*
X123739500Y-119601000I0J-62500D01*
G01*
X123739500Y-120351000D01*
G75*
G02*
X123677000Y-120413500I-62500J0D01*
G01*
X123552000Y-120413500D01*
G75*
G02*
X123489500Y-120351000I0J62500D01*
G01*
G37*
G36*
G01*
X123989500Y-120351000D02*
X123989500Y-119601000D01*
G75*
G02*
X124052000Y-119538500I62500J0D01*
G01*
X124177000Y-119538500D01*
G75*
G02*
X124239500Y-119601000I0J-62500D01*
G01*
X124239500Y-120351000D01*
G75*
G02*
X124177000Y-120413500I-62500J0D01*
G01*
X124052000Y-120413500D01*
G75*
G02*
X123989500Y-120351000I0J62500D01*
G01*
G37*
G36*
G01*
X124364500Y-119351000D02*
X124364500Y-119226000D01*
G75*
G02*
X124427000Y-119163500I62500J0D01*
G01*
X125177000Y-119163500D01*
G75*
G02*
X125239500Y-119226000I0J-62500D01*
G01*
X125239500Y-119351000D01*
G75*
G02*
X125177000Y-119413500I-62500J0D01*
G01*
X124427000Y-119413500D01*
G75*
G02*
X124364500Y-119351000I0J62500D01*
G01*
G37*
G36*
G01*
X124364500Y-118851000D02*
X124364500Y-118726000D01*
G75*
G02*
X124427000Y-118663500I62500J0D01*
G01*
X125177000Y-118663500D01*
G75*
G02*
X125239500Y-118726000I0J-62500D01*
G01*
X125239500Y-118851000D01*
G75*
G02*
X125177000Y-118913500I-62500J0D01*
G01*
X124427000Y-118913500D01*
G75*
G02*
X124364500Y-118851000I0J62500D01*
G01*
G37*
G36*
G01*
X124364500Y-118351000D02*
X124364500Y-118226000D01*
G75*
G02*
X124427000Y-118163500I62500J0D01*
G01*
X125177000Y-118163500D01*
G75*
G02*
X125239500Y-118226000I0J-62500D01*
G01*
X125239500Y-118351000D01*
G75*
G02*
X125177000Y-118413500I-62500J0D01*
G01*
X124427000Y-118413500D01*
G75*
G02*
X124364500Y-118351000I0J62500D01*
G01*
G37*
G36*
G01*
X124364500Y-117851000D02*
X124364500Y-117726000D01*
G75*
G02*
X124427000Y-117663500I62500J0D01*
G01*
X125177000Y-117663500D01*
G75*
G02*
X125239500Y-117726000I0J-62500D01*
G01*
X125239500Y-117851000D01*
G75*
G02*
X125177000Y-117913500I-62500J0D01*
G01*
X124427000Y-117913500D01*
G75*
G02*
X124364500Y-117851000I0J62500D01*
G01*
G37*
G36*
G01*
X124364500Y-117351000D02*
X124364500Y-117226000D01*
G75*
G02*
X124427000Y-117163500I62500J0D01*
G01*
X125177000Y-117163500D01*
G75*
G02*
X125239500Y-117226000I0J-62500D01*
G01*
X125239500Y-117351000D01*
G75*
G02*
X125177000Y-117413500I-62500J0D01*
G01*
X124427000Y-117413500D01*
G75*
G02*
X124364500Y-117351000I0J62500D01*
G01*
G37*
G36*
G01*
X124364500Y-116851000D02*
X124364500Y-116726000D01*
G75*
G02*
X124427000Y-116663500I62500J0D01*
G01*
X125177000Y-116663500D01*
G75*
G02*
X125239500Y-116726000I0J-62500D01*
G01*
X125239500Y-116851000D01*
G75*
G02*
X125177000Y-116913500I-62500J0D01*
G01*
X124427000Y-116913500D01*
G75*
G02*
X124364500Y-116851000I0J62500D01*
G01*
G37*
G36*
G01*
X124364500Y-116351000D02*
X124364500Y-116226000D01*
G75*
G02*
X124427000Y-116163500I62500J0D01*
G01*
X125177000Y-116163500D01*
G75*
G02*
X125239500Y-116226000I0J-62500D01*
G01*
X125239500Y-116351000D01*
G75*
G02*
X125177000Y-116413500I-62500J0D01*
G01*
X124427000Y-116413500D01*
G75*
G02*
X124364500Y-116351000I0J62500D01*
G01*
G37*
G36*
G01*
X124364500Y-115851000D02*
X124364500Y-115726000D01*
G75*
G02*
X124427000Y-115663500I62500J0D01*
G01*
X125177000Y-115663500D01*
G75*
G02*
X125239500Y-115726000I0J-62500D01*
G01*
X125239500Y-115851000D01*
G75*
G02*
X125177000Y-115913500I-62500J0D01*
G01*
X124427000Y-115913500D01*
G75*
G02*
X124364500Y-115851000I0J62500D01*
G01*
G37*
G36*
G01*
X123989500Y-115476000D02*
X123989500Y-114726000D01*
G75*
G02*
X124052000Y-114663500I62500J0D01*
G01*
X124177000Y-114663500D01*
G75*
G02*
X124239500Y-114726000I0J-62500D01*
G01*
X124239500Y-115476000D01*
G75*
G02*
X124177000Y-115538500I-62500J0D01*
G01*
X124052000Y-115538500D01*
G75*
G02*
X123989500Y-115476000I0J62500D01*
G01*
G37*
G36*
G01*
X123489500Y-115476000D02*
X123489500Y-114726000D01*
G75*
G02*
X123552000Y-114663500I62500J0D01*
G01*
X123677000Y-114663500D01*
G75*
G02*
X123739500Y-114726000I0J-62500D01*
G01*
X123739500Y-115476000D01*
G75*
G02*
X123677000Y-115538500I-62500J0D01*
G01*
X123552000Y-115538500D01*
G75*
G02*
X123489500Y-115476000I0J62500D01*
G01*
G37*
G36*
G01*
X122989500Y-115476000D02*
X122989500Y-114726000D01*
G75*
G02*
X123052000Y-114663500I62500J0D01*
G01*
X123177000Y-114663500D01*
G75*
G02*
X123239500Y-114726000I0J-62500D01*
G01*
X123239500Y-115476000D01*
G75*
G02*
X123177000Y-115538500I-62500J0D01*
G01*
X123052000Y-115538500D01*
G75*
G02*
X122989500Y-115476000I0J62500D01*
G01*
G37*
G36*
G01*
X122489500Y-115476000D02*
X122489500Y-114726000D01*
G75*
G02*
X122552000Y-114663500I62500J0D01*
G01*
X122677000Y-114663500D01*
G75*
G02*
X122739500Y-114726000I0J-62500D01*
G01*
X122739500Y-115476000D01*
G75*
G02*
X122677000Y-115538500I-62500J0D01*
G01*
X122552000Y-115538500D01*
G75*
G02*
X122489500Y-115476000I0J62500D01*
G01*
G37*
G36*
G01*
X121989500Y-115476000D02*
X121989500Y-114726000D01*
G75*
G02*
X122052000Y-114663500I62500J0D01*
G01*
X122177000Y-114663500D01*
G75*
G02*
X122239500Y-114726000I0J-62500D01*
G01*
X122239500Y-115476000D01*
G75*
G02*
X122177000Y-115538500I-62500J0D01*
G01*
X122052000Y-115538500D01*
G75*
G02*
X121989500Y-115476000I0J62500D01*
G01*
G37*
G36*
G01*
X121489500Y-115476000D02*
X121489500Y-114726000D01*
G75*
G02*
X121552000Y-114663500I62500J0D01*
G01*
X121677000Y-114663500D01*
G75*
G02*
X121739500Y-114726000I0J-62500D01*
G01*
X121739500Y-115476000D01*
G75*
G02*
X121677000Y-115538500I-62500J0D01*
G01*
X121552000Y-115538500D01*
G75*
G02*
X121489500Y-115476000I0J62500D01*
G01*
G37*
G36*
G01*
X120989500Y-115476000D02*
X120989500Y-114726000D01*
G75*
G02*
X121052000Y-114663500I62500J0D01*
G01*
X121177000Y-114663500D01*
G75*
G02*
X121239500Y-114726000I0J-62500D01*
G01*
X121239500Y-115476000D01*
G75*
G02*
X121177000Y-115538500I-62500J0D01*
G01*
X121052000Y-115538500D01*
G75*
G02*
X120989500Y-115476000I0J62500D01*
G01*
G37*
G36*
G01*
X120489500Y-115476000D02*
X120489500Y-114726000D01*
G75*
G02*
X120552000Y-114663500I62500J0D01*
G01*
X120677000Y-114663500D01*
G75*
G02*
X120739500Y-114726000I0J-62500D01*
G01*
X120739500Y-115476000D01*
G75*
G02*
X120677000Y-115538500I-62500J0D01*
G01*
X120552000Y-115538500D01*
G75*
G02*
X120489500Y-115476000I0J62500D01*
G01*
G37*
G36*
G01*
X119489500Y-115851000D02*
X119489500Y-115726000D01*
G75*
G02*
X119552000Y-115663500I62500J0D01*
G01*
X120302000Y-115663500D01*
G75*
G02*
X120364500Y-115726000I0J-62500D01*
G01*
X120364500Y-115851000D01*
G75*
G02*
X120302000Y-115913500I-62500J0D01*
G01*
X119552000Y-115913500D01*
G75*
G02*
X119489500Y-115851000I0J62500D01*
G01*
G37*
G36*
G01*
X119489500Y-116351000D02*
X119489500Y-116226000D01*
G75*
G02*
X119552000Y-116163500I62500J0D01*
G01*
X120302000Y-116163500D01*
G75*
G02*
X120364500Y-116226000I0J-62500D01*
G01*
X120364500Y-116351000D01*
G75*
G02*
X120302000Y-116413500I-62500J0D01*
G01*
X119552000Y-116413500D01*
G75*
G02*
X119489500Y-116351000I0J62500D01*
G01*
G37*
G36*
G01*
X119489500Y-116851000D02*
X119489500Y-116726000D01*
G75*
G02*
X119552000Y-116663500I62500J0D01*
G01*
X120302000Y-116663500D01*
G75*
G02*
X120364500Y-116726000I0J-62500D01*
G01*
X120364500Y-116851000D01*
G75*
G02*
X120302000Y-116913500I-62500J0D01*
G01*
X119552000Y-116913500D01*
G75*
G02*
X119489500Y-116851000I0J62500D01*
G01*
G37*
G36*
G01*
X119489500Y-117351000D02*
X119489500Y-117226000D01*
G75*
G02*
X119552000Y-117163500I62500J0D01*
G01*
X120302000Y-117163500D01*
G75*
G02*
X120364500Y-117226000I0J-62500D01*
G01*
X120364500Y-117351000D01*
G75*
G02*
X120302000Y-117413500I-62500J0D01*
G01*
X119552000Y-117413500D01*
G75*
G02*
X119489500Y-117351000I0J62500D01*
G01*
G37*
G36*
G01*
X119489500Y-117851000D02*
X119489500Y-117726000D01*
G75*
G02*
X119552000Y-117663500I62500J0D01*
G01*
X120302000Y-117663500D01*
G75*
G02*
X120364500Y-117726000I0J-62500D01*
G01*
X120364500Y-117851000D01*
G75*
G02*
X120302000Y-117913500I-62500J0D01*
G01*
X119552000Y-117913500D01*
G75*
G02*
X119489500Y-117851000I0J62500D01*
G01*
G37*
G36*
G01*
X119489500Y-118351000D02*
X119489500Y-118226000D01*
G75*
G02*
X119552000Y-118163500I62500J0D01*
G01*
X120302000Y-118163500D01*
G75*
G02*
X120364500Y-118226000I0J-62500D01*
G01*
X120364500Y-118351000D01*
G75*
G02*
X120302000Y-118413500I-62500J0D01*
G01*
X119552000Y-118413500D01*
G75*
G02*
X119489500Y-118351000I0J62500D01*
G01*
G37*
G36*
G01*
X119489500Y-118851000D02*
X119489500Y-118726000D01*
G75*
G02*
X119552000Y-118663500I62500J0D01*
G01*
X120302000Y-118663500D01*
G75*
G02*
X120364500Y-118726000I0J-62500D01*
G01*
X120364500Y-118851000D01*
G75*
G02*
X120302000Y-118913500I-62500J0D01*
G01*
X119552000Y-118913500D01*
G75*
G02*
X119489500Y-118851000I0J62500D01*
G01*
G37*
G36*
G01*
X119489500Y-119351000D02*
X119489500Y-119226000D01*
G75*
G02*
X119552000Y-119163500I62500J0D01*
G01*
X120302000Y-119163500D01*
G75*
G02*
X120364500Y-119226000I0J-62500D01*
G01*
X120364500Y-119351000D01*
G75*
G02*
X120302000Y-119413500I-62500J0D01*
G01*
X119552000Y-119413500D01*
G75*
G02*
X119489500Y-119351000I0J62500D01*
G01*
G37*
%TD*%
D10*
%TO.C,U36*%
X206943400Y-202247500D03*
X205740000Y-202247500D03*
X204536600Y-202247500D03*
X206943400Y-200977500D03*
X205740000Y-200977500D03*
X204536600Y-200977500D03*
X206943400Y-199707500D03*
X205740000Y-199707500D03*
X204536600Y-199707500D03*
X206943400Y-198437500D03*
X205740000Y-198437500D03*
X204536600Y-198437500D03*
X204536600Y-197167500D03*
X205740000Y-197167500D03*
X206943400Y-197167500D03*
D11*
X201990000Y-192957500D03*
X201990000Y-193457500D03*
X201990000Y-193957500D03*
X201990000Y-194457500D03*
X201990000Y-194957500D03*
X201990000Y-195457500D03*
X201990000Y-195957500D03*
X201990000Y-196457500D03*
X201990000Y-196957500D03*
X201990000Y-197457500D03*
X201990000Y-197957500D03*
X201990000Y-198457500D03*
X201990000Y-198957500D03*
X201990000Y-199457500D03*
X201990000Y-199957500D03*
X201990000Y-200457500D03*
X201990000Y-200957500D03*
X201990000Y-201457500D03*
X201990000Y-201957500D03*
X201990000Y-202457500D03*
X201990000Y-202957500D03*
X201990000Y-203457500D03*
X201990000Y-203957500D03*
X201990000Y-204457500D03*
X201990000Y-204957500D03*
X201990000Y-205457500D03*
X201990000Y-205957500D03*
X201990000Y-206457500D03*
X209490000Y-206457500D03*
X209490000Y-205957500D03*
X209490000Y-205457500D03*
X209490000Y-204957500D03*
X209490000Y-204457500D03*
X209490000Y-203957500D03*
X209490000Y-203457500D03*
X209490000Y-202957500D03*
X209490000Y-202457500D03*
X209490000Y-201957500D03*
X209490000Y-201457500D03*
X209490000Y-200957500D03*
X209490000Y-200457500D03*
X209490000Y-199957500D03*
X209490000Y-199457500D03*
X209490000Y-198957500D03*
X209490000Y-198457500D03*
X209490000Y-197957500D03*
X209490000Y-197457500D03*
X209490000Y-196957500D03*
X209490000Y-196457500D03*
X209490000Y-195957500D03*
X209490000Y-195457500D03*
X209490000Y-194957500D03*
X209490000Y-194457500D03*
X209490000Y-193957500D03*
X209490000Y-193457500D03*
X209490000Y-192957500D03*
%TD*%
%TO.C,R24*%
G36*
G01*
X119576001Y-124568000D02*
X118675999Y-124568000D01*
G75*
G02*
X118426000Y-124318001I0J249999D01*
G01*
X118426000Y-123617999D01*
G75*
G02*
X118675999Y-123368000I249999J0D01*
G01*
X119576001Y-123368000D01*
G75*
G02*
X119826000Y-123617999I0J-249999D01*
G01*
X119826000Y-124318001D01*
G75*
G02*
X119576001Y-124568000I-249999J0D01*
G01*
G37*
G36*
G01*
X119576001Y-126568000D02*
X118675999Y-126568000D01*
G75*
G02*
X118426000Y-126318001I0J249999D01*
G01*
X118426000Y-125617999D01*
G75*
G02*
X118675999Y-125368000I249999J0D01*
G01*
X119576001Y-125368000D01*
G75*
G02*
X119826000Y-125617999I0J-249999D01*
G01*
X119826000Y-126318001D01*
G75*
G02*
X119576001Y-126568000I-249999J0D01*
G01*
G37*
%TD*%
%TO.C,R23*%
G36*
G01*
X122624001Y-124568000D02*
X121723999Y-124568000D01*
G75*
G02*
X121474000Y-124318001I0J249999D01*
G01*
X121474000Y-123617999D01*
G75*
G02*
X121723999Y-123368000I249999J0D01*
G01*
X122624001Y-123368000D01*
G75*
G02*
X122874000Y-123617999I0J-249999D01*
G01*
X122874000Y-124318001D01*
G75*
G02*
X122624001Y-124568000I-249999J0D01*
G01*
G37*
G36*
G01*
X122624001Y-126568000D02*
X121723999Y-126568000D01*
G75*
G02*
X121474000Y-126318001I0J249999D01*
G01*
X121474000Y-125617999D01*
G75*
G02*
X121723999Y-125368000I249999J0D01*
G01*
X122624001Y-125368000D01*
G75*
G02*
X122874000Y-125617999I0J-249999D01*
G01*
X122874000Y-126318001D01*
G75*
G02*
X122624001Y-126568000I-249999J0D01*
G01*
G37*
%TD*%
%TO.C,R22*%
G36*
G01*
X125418001Y-124568000D02*
X124517999Y-124568000D01*
G75*
G02*
X124268000Y-124318001I0J249999D01*
G01*
X124268000Y-123617999D01*
G75*
G02*
X124517999Y-123368000I249999J0D01*
G01*
X125418001Y-123368000D01*
G75*
G02*
X125668000Y-123617999I0J-249999D01*
G01*
X125668000Y-124318001D01*
G75*
G02*
X125418001Y-124568000I-249999J0D01*
G01*
G37*
G36*
G01*
X125418001Y-126568000D02*
X124517999Y-126568000D01*
G75*
G02*
X124268000Y-126318001I0J249999D01*
G01*
X124268000Y-125617999D01*
G75*
G02*
X124517999Y-125368000I249999J0D01*
G01*
X125418001Y-125368000D01*
G75*
G02*
X125668000Y-125617999I0J-249999D01*
G01*
X125668000Y-126318001D01*
G75*
G02*
X125418001Y-126568000I-249999J0D01*
G01*
G37*
%TD*%
%TO.C,R12*%
G36*
G01*
X155506000Y-136685000D02*
X155506000Y-137635000D01*
G75*
G02*
X155256000Y-137885000I-250000J0D01*
G01*
X154581000Y-137885000D01*
G75*
G02*
X154331000Y-137635000I0J250000D01*
G01*
X154331000Y-136685000D01*
G75*
G02*
X154581000Y-136435000I250000J0D01*
G01*
X155256000Y-136435000D01*
G75*
G02*
X155506000Y-136685000I0J-250000D01*
G01*
G37*
G36*
G01*
X157581000Y-136685000D02*
X157581000Y-137635000D01*
G75*
G02*
X157331000Y-137885000I-250000J0D01*
G01*
X156656000Y-137885000D01*
G75*
G02*
X156406000Y-137635000I0J250000D01*
G01*
X156406000Y-136685000D01*
G75*
G02*
X156656000Y-136435000I250000J0D01*
G01*
X157331000Y-136435000D01*
G75*
G02*
X157581000Y-136685000I0J-250000D01*
G01*
G37*
%TD*%
%TO.C,R11*%
G36*
G01*
X156497000Y-134308000D02*
X157447000Y-134308000D01*
G75*
G02*
X157697000Y-134558000I0J-250000D01*
G01*
X157697000Y-135233000D01*
G75*
G02*
X157447000Y-135483000I-250000J0D01*
G01*
X156497000Y-135483000D01*
G75*
G02*
X156247000Y-135233000I0J250000D01*
G01*
X156247000Y-134558000D01*
G75*
G02*
X156497000Y-134308000I250000J0D01*
G01*
G37*
G36*
G01*
X156497000Y-132233000D02*
X157447000Y-132233000D01*
G75*
G02*
X157697000Y-132483000I0J-250000D01*
G01*
X157697000Y-133158000D01*
G75*
G02*
X157447000Y-133408000I-250000J0D01*
G01*
X156497000Y-133408000D01*
G75*
G02*
X156247000Y-133158000I0J250000D01*
G01*
X156247000Y-132483000D01*
G75*
G02*
X156497000Y-132233000I250000J0D01*
G01*
G37*
%TD*%
D13*
%TO.C,D2*%
X159890000Y-120015000D03*
X162690000Y-120015000D03*
%TD*%
%TO.C,C23*%
G36*
G01*
X165641000Y-148786000D02*
X166591000Y-148786000D01*
G75*
G02*
X166841000Y-149036000I0J-250000D01*
G01*
X166841000Y-149711000D01*
G75*
G02*
X166591000Y-149961000I-250000J0D01*
G01*
X165641000Y-149961000D01*
G75*
G02*
X165391000Y-149711000I0J250000D01*
G01*
X165391000Y-149036000D01*
G75*
G02*
X165641000Y-148786000I250000J0D01*
G01*
G37*
G36*
G01*
X165641000Y-146711000D02*
X166591000Y-146711000D01*
G75*
G02*
X166841000Y-146961000I0J-250000D01*
G01*
X166841000Y-147636000D01*
G75*
G02*
X166591000Y-147886000I-250000J0D01*
G01*
X165641000Y-147886000D01*
G75*
G02*
X165391000Y-147636000I0J250000D01*
G01*
X165391000Y-146961000D01*
G75*
G02*
X165641000Y-146711000I250000J0D01*
G01*
G37*
%TD*%
%TO.C,C22*%
G36*
G01*
X164686000Y-131376000D02*
X163736000Y-131376000D01*
G75*
G02*
X163486000Y-131126000I0J250000D01*
G01*
X163486000Y-130451000D01*
G75*
G02*
X163736000Y-130201000I250000J0D01*
G01*
X164686000Y-130201000D01*
G75*
G02*
X164936000Y-130451000I0J-250000D01*
G01*
X164936000Y-131126000D01*
G75*
G02*
X164686000Y-131376000I-250000J0D01*
G01*
G37*
G36*
G01*
X164686000Y-133451000D02*
X163736000Y-133451000D01*
G75*
G02*
X163486000Y-133201000I0J250000D01*
G01*
X163486000Y-132526000D01*
G75*
G02*
X163736000Y-132276000I250000J0D01*
G01*
X164686000Y-132276000D01*
G75*
G02*
X164936000Y-132526000I0J-250000D01*
G01*
X164936000Y-133201000D01*
G75*
G02*
X164686000Y-133451000I-250000J0D01*
G01*
G37*
%TD*%
%TO.C,C21*%
G36*
G01*
X162847000Y-148786000D02*
X163797000Y-148786000D01*
G75*
G02*
X164047000Y-149036000I0J-250000D01*
G01*
X164047000Y-149711000D01*
G75*
G02*
X163797000Y-149961000I-250000J0D01*
G01*
X162847000Y-149961000D01*
G75*
G02*
X162597000Y-149711000I0J250000D01*
G01*
X162597000Y-149036000D01*
G75*
G02*
X162847000Y-148786000I250000J0D01*
G01*
G37*
G36*
G01*
X162847000Y-146711000D02*
X163797000Y-146711000D01*
G75*
G02*
X164047000Y-146961000I0J-250000D01*
G01*
X164047000Y-147636000D01*
G75*
G02*
X163797000Y-147886000I-250000J0D01*
G01*
X162847000Y-147886000D01*
G75*
G02*
X162597000Y-147636000I0J250000D01*
G01*
X162597000Y-146961000D01*
G75*
G02*
X162847000Y-146711000I250000J0D01*
G01*
G37*
%TD*%
%TO.C,C20*%
G36*
G01*
X167353000Y-131376000D02*
X166403000Y-131376000D01*
G75*
G02*
X166153000Y-131126000I0J250000D01*
G01*
X166153000Y-130451000D01*
G75*
G02*
X166403000Y-130201000I250000J0D01*
G01*
X167353000Y-130201000D01*
G75*
G02*
X167603000Y-130451000I0J-250000D01*
G01*
X167603000Y-131126000D01*
G75*
G02*
X167353000Y-131376000I-250000J0D01*
G01*
G37*
G36*
G01*
X167353000Y-133451000D02*
X166403000Y-133451000D01*
G75*
G02*
X166153000Y-133201000I0J250000D01*
G01*
X166153000Y-132526000D01*
G75*
G02*
X166403000Y-132276000I250000J0D01*
G01*
X167353000Y-132276000D01*
G75*
G02*
X167603000Y-132526000I0J-250000D01*
G01*
X167603000Y-133201000D01*
G75*
G02*
X167353000Y-133451000I-250000J0D01*
G01*
G37*
%TD*%
%TO.C,C10*%
G36*
G01*
X206215000Y-189288000D02*
X205265000Y-189288000D01*
G75*
G02*
X205015000Y-189038000I0J250000D01*
G01*
X205015000Y-188363000D01*
G75*
G02*
X205265000Y-188113000I250000J0D01*
G01*
X206215000Y-188113000D01*
G75*
G02*
X206465000Y-188363000I0J-250000D01*
G01*
X206465000Y-189038000D01*
G75*
G02*
X206215000Y-189288000I-250000J0D01*
G01*
G37*
G36*
G01*
X206215000Y-191363000D02*
X205265000Y-191363000D01*
G75*
G02*
X205015000Y-191113000I0J250000D01*
G01*
X205015000Y-190438000D01*
G75*
G02*
X205265000Y-190188000I250000J0D01*
G01*
X206215000Y-190188000D01*
G75*
G02*
X206465000Y-190438000I0J-250000D01*
G01*
X206465000Y-191113000D01*
G75*
G02*
X206215000Y-191363000I-250000J0D01*
G01*
G37*
%TD*%
%TO.C,C9*%
G36*
G01*
X206571000Y-158971000D02*
X206571000Y-158021000D01*
G75*
G02*
X206821000Y-157771000I250000J0D01*
G01*
X207496000Y-157771000D01*
G75*
G02*
X207746000Y-158021000I0J-250000D01*
G01*
X207746000Y-158971000D01*
G75*
G02*
X207496000Y-159221000I-250000J0D01*
G01*
X206821000Y-159221000D01*
G75*
G02*
X206571000Y-158971000I0J250000D01*
G01*
G37*
G36*
G01*
X204496000Y-158971000D02*
X204496000Y-158021000D01*
G75*
G02*
X204746000Y-157771000I250000J0D01*
G01*
X205421000Y-157771000D01*
G75*
G02*
X205671000Y-158021000I0J-250000D01*
G01*
X205671000Y-158971000D01*
G75*
G02*
X205421000Y-159221000I-250000J0D01*
G01*
X204746000Y-159221000D01*
G75*
G02*
X204496000Y-158971000I0J250000D01*
G01*
G37*
%TD*%
M02*
