M48
; DRILL file {KiCad (5.1.8-0-10_14)} date Wednesday, June 09, 2021 at 07:28:55 PM
; FORMAT={-:-/ absolute / inch / decimal}
; #@! TF.CreationDate,2021-06-09T19:28:55+01:00
; #@! TF.GenerationSoftware,Kicad,Pcbnew,(5.1.8-0-10_14)
; #@! TF.FileFunction,NonPlated,1,4,NPTH
FMAT,2
INCH
T1C0.1102
T2C0.1260
%
G90
G05
T1
X12.238Y-7.741
X11.0555Y-7.741
X9.8755Y-7.741
X8.693Y-7.741
X7.513Y-7.741
X6.3325Y-7.7425
X5.15Y-7.7425
X3.97Y-7.7425
X3.97Y-6.7175
X5.15Y-6.7175
X6.3325Y-6.7175
X7.5125Y-6.7175
X8.6925Y-6.7175
X9.875Y-6.7175
X11.055Y-6.7175
X12.2375Y-6.7175
T2
X9.24Y-4.27
X9.24Y-5.7775
X11.9Y-4.27
X11.9Y-5.78
T0
M30
