%TF.GenerationSoftware,KiCad,Pcbnew,6.0.1-79c1e3a40b~116~ubuntu20.04.1*%
%TF.CreationDate,2022-02-11T21:59:22+00:00*%
%TF.ProjectId,BassStation_Sequencer_MidiInterface,42617373-5374-4617-9469-6f6e5f536571,B*%
%TF.SameCoordinates,Original*%
%TF.FileFunction,Soldermask,Bot*%
%TF.FilePolarity,Negative*%
%FSLAX46Y46*%
G04 Gerber Fmt 4.6, Leading zero omitted, Abs format (unit mm)*
G04 Created by KiCad (PCBNEW 6.0.1-79c1e3a40b~116~ubuntu20.04.1) date 2022-02-11 21:59:22*
%MOMM*%
%LPD*%
G01*
G04 APERTURE LIST*
G04 Aperture macros list*
%AMRoundRect*
0 Rectangle with rounded corners*
0 $1 Rounding radius*
0 $2 $3 $4 $5 $6 $7 $8 $9 X,Y pos of 4 corners*
0 Add a 4 corners polygon primitive as box body*
4,1,4,$2,$3,$4,$5,$6,$7,$8,$9,$2,$3,0*
0 Add four circle primitives for the rounded corners*
1,1,$1+$1,$2,$3*
1,1,$1+$1,$4,$5*
1,1,$1+$1,$6,$7*
1,1,$1+$1,$8,$9*
0 Add four rect primitives between the rounded corners*
20,1,$1+$1,$2,$3,$4,$5,0*
20,1,$1+$1,$4,$5,$6,$7,0*
20,1,$1+$1,$6,$7,$8,$9,0*
20,1,$1+$1,$8,$9,$2,$3,0*%
%AMFreePoly0*
4,1,22,0.500000,-0.750000,0.000000,-0.750000,0.000000,-0.745033,-0.079941,-0.743568,-0.215256,-0.701293,-0.333266,-0.622738,-0.424486,-0.514219,-0.481581,-0.384460,-0.499164,-0.250000,-0.500000,-0.250000,-0.500000,0.250000,-0.499164,0.250000,-0.499963,0.256109,-0.478152,0.396186,-0.417904,0.524511,-0.324060,0.630769,-0.204165,0.706417,-0.067858,0.745374,0.000000,0.744959,0.000000,0.750000,
0.500000,0.750000,0.500000,-0.750000,0.500000,-0.750000,$1*%
%AMFreePoly1*
4,1,20,0.000000,0.744959,0.073905,0.744508,0.209726,0.703889,0.328688,0.626782,0.421226,0.519385,0.479903,0.390333,0.500000,0.250000,0.500000,-0.250000,0.499851,-0.262216,0.476331,-0.402017,0.414519,-0.529596,0.319384,-0.634700,0.198574,-0.708877,0.061801,-0.746166,0.000000,-0.745033,0.000000,-0.750000,-0.500000,-0.750000,-0.500000,0.750000,0.000000,0.750000,0.000000,0.744959,
0.000000,0.744959,$1*%
G04 Aperture macros list end*
%ADD10FreePoly0,270.000000*%
%ADD11FreePoly1,270.000000*%
%ADD12C,2.800000*%
%ADD13C,0.800000*%
%ADD14C,6.400000*%
%ADD15C,3.000000*%
%ADD16RoundRect,0.250000X0.600000X-0.600000X0.600000X0.600000X-0.600000X0.600000X-0.600000X-0.600000X0*%
%ADD17C,1.700000*%
%ADD18R,3.500000X3.500000*%
%ADD19RoundRect,0.750000X-1.000000X0.750000X-1.000000X-0.750000X1.000000X-0.750000X1.000000X0.750000X0*%
%ADD20RoundRect,0.875000X-0.875000X0.875000X-0.875000X-0.875000X0.875000X-0.875000X0.875000X0.875000X0*%
%ADD21C,3.200000*%
%ADD22R,1.800000X1.800000*%
%ADD23C,1.800000*%
%ADD24C,2.000000*%
%ADD25O,3.048000X1.850000*%
%ADD26R,2.000000X2.000000*%
%ADD27R,2.500000X3.000000*%
%ADD28R,1.550000X0.300000*%
%ADD29R,3.610000X6.350000*%
%ADD30RoundRect,0.250000X-0.337500X-0.475000X0.337500X-0.475000X0.337500X0.475000X-0.337500X0.475000X0*%
%ADD31RoundRect,0.250000X0.475000X-0.337500X0.475000X0.337500X-0.475000X0.337500X-0.475000X-0.337500X0*%
%ADD32RoundRect,0.250000X-0.475000X0.337500X-0.475000X-0.337500X0.475000X-0.337500X0.475000X0.337500X0*%
%ADD33R,1.100000X1.100000*%
%ADD34RoundRect,0.250000X0.337500X0.475000X-0.337500X0.475000X-0.337500X-0.475000X0.337500X-0.475000X0*%
%ADD35RoundRect,0.249999X0.450001X-0.350001X0.450001X0.350001X-0.450001X0.350001X-0.450001X-0.350001X0*%
%ADD36RoundRect,0.062500X-0.375000X-0.062500X0.375000X-0.062500X0.375000X0.062500X-0.375000X0.062500X0*%
%ADD37RoundRect,0.062500X-0.062500X-0.375000X0.062500X-0.375000X0.062500X0.375000X-0.062500X0.375000X0*%
%ADD38R,3.100000X3.100000*%
%ADD39RoundRect,0.062500X0.062500X-0.375000X0.062500X0.375000X-0.062500X0.375000X-0.062500X-0.375000X0*%
%ADD40RoundRect,0.062500X0.375000X-0.062500X0.375000X0.062500X-0.375000X0.062500X-0.375000X-0.062500X0*%
%ADD41R,2.300000X2.300000*%
G04 APERTURE END LIST*
D10*
%TO.C,JP3*%
X119126000Y-128636000D03*
D11*
X119126000Y-129936000D03*
%TD*%
D10*
%TO.C,JP2*%
X122174000Y-128636000D03*
D11*
X122174000Y-129936000D03*
%TD*%
D10*
%TO.C,JP1*%
X125095000Y-128621000D03*
D11*
X125095000Y-129921000D03*
%TD*%
D12*
%TO.C,REF\u002A\u002A*%
X310832500Y-170624500D03*
%TD*%
%TO.C,REF\u002A\u002A*%
X280797000Y-170624500D03*
%TD*%
%TO.C,REF\u002A\u002A*%
X250825000Y-170624500D03*
%TD*%
%TO.C,REF\u002A\u002A*%
X220789500Y-170624500D03*
%TD*%
%TO.C,REF\u002A\u002A*%
X190817500Y-170624500D03*
%TD*%
%TO.C,REF\u002A\u002A*%
X160845500Y-170624500D03*
%TD*%
%TO.C,REF\u002A\u002A*%
X130810000Y-170624500D03*
%TD*%
%TO.C,REF\u002A\u002A*%
X100838000Y-170624500D03*
%TD*%
%TO.C,REF\u002A\u002A*%
X100838000Y-196659500D03*
%TD*%
%TO.C,REF\u002A\u002A*%
X130810000Y-196659500D03*
%TD*%
%TO.C,REF\u002A\u002A*%
X160845500Y-196659500D03*
%TD*%
D13*
%TO.C,REF\u002A\u002A*%
X327452056Y-102027056D03*
X324057944Y-98632944D03*
X327452056Y-98632944D03*
D14*
X325755000Y-100330000D03*
D13*
X323355000Y-100330000D03*
X325755000Y-97930000D03*
X324057944Y-102027056D03*
X328155000Y-100330000D03*
X325755000Y-102730000D03*
%TD*%
%TO.C,REF\u002A\u002A*%
X207437056Y-214422056D03*
X203340000Y-212725000D03*
X208140000Y-212725000D03*
X204042944Y-214422056D03*
X205740000Y-215125000D03*
X207437056Y-211027944D03*
X204042944Y-211027944D03*
D14*
X205740000Y-212725000D03*
D13*
X205740000Y-210325000D03*
%TD*%
D15*
%TO.C,J2*%
X173990000Y-107950000D03*
X181610000Y-107950000D03*
X189230000Y-107950000D03*
X176530000Y-110490000D03*
X186690000Y-110490000D03*
X176530000Y-97790000D03*
X186690000Y-97790000D03*
%TD*%
D16*
%TO.C,J4*%
X113665000Y-109220000D03*
D17*
X113665000Y-106680000D03*
X116205000Y-109220000D03*
X116205000Y-106680000D03*
X118745000Y-109220000D03*
X118745000Y-106680000D03*
X121285000Y-109220000D03*
X121285000Y-106680000D03*
X123825000Y-109220000D03*
X123825000Y-106680000D03*
X126365000Y-109220000D03*
X126365000Y-106680000D03*
X128905000Y-109220000D03*
X128905000Y-106680000D03*
X131445000Y-109220000D03*
X131445000Y-106680000D03*
X133985000Y-109220000D03*
X133985000Y-106680000D03*
X136525000Y-109220000D03*
X136525000Y-106680000D03*
%TD*%
D18*
%TO.C,J5*%
X98425000Y-109220000D03*
D19*
X98425000Y-103220000D03*
D20*
X93725000Y-106220000D03*
%TD*%
D21*
%TO.C,J8*%
X302260000Y-110998000D03*
X234696000Y-149288500D03*
X302260000Y-149352000D03*
X234696000Y-110998000D03*
D22*
X235331000Y-137795000D03*
D23*
X235331000Y-135255000D03*
X235331000Y-132715000D03*
X235331000Y-130175000D03*
X235331000Y-127635000D03*
X235331000Y-125095000D03*
X235331000Y-122555000D03*
%TD*%
D12*
%TO.C,REF\u002A\u002A*%
X310845200Y-196621400D03*
%TD*%
D13*
%TO.C,REF\u002A\u002A*%
X325755000Y-163690000D03*
D14*
X325755000Y-161290000D03*
D13*
X327452056Y-159592944D03*
X323355000Y-161290000D03*
X324057944Y-162987056D03*
X327452056Y-162987056D03*
X324057944Y-159592944D03*
X328155000Y-161290000D03*
X325755000Y-158890000D03*
%TD*%
D24*
%TO.C,SW3*%
X96012000Y-119380000D03*
X98552000Y-119380000D03*
X101092000Y-119380000D03*
%TD*%
D13*
%TO.C,REF\u002A\u002A*%
X327452056Y-211027944D03*
D14*
X325755000Y-212725000D03*
D13*
X325755000Y-215125000D03*
X328155000Y-212725000D03*
X327452056Y-214422056D03*
X324057944Y-211027944D03*
X325755000Y-210325000D03*
X324057944Y-214422056D03*
X323355000Y-212725000D03*
%TD*%
%TO.C,REF\u002A\u002A*%
X207945056Y-148416944D03*
X204550944Y-151811056D03*
X203848000Y-150114000D03*
X206248000Y-152514000D03*
D14*
X206248000Y-150114000D03*
D13*
X206248000Y-147714000D03*
X207945056Y-151811056D03*
X204550944Y-148416944D03*
X208648000Y-150114000D03*
%TD*%
D25*
%TO.C,SW5*%
X253890000Y-160655000D03*
X241390000Y-160655000D03*
X241390000Y-155655000D03*
X253890000Y-155655000D03*
%TD*%
D13*
%TO.C,REF\u002A\u002A*%
X88057056Y-162987056D03*
X86360000Y-163690000D03*
X84662944Y-162987056D03*
X88057056Y-159592944D03*
D14*
X86360000Y-161290000D03*
D13*
X83960000Y-161290000D03*
X84662944Y-159592944D03*
X86360000Y-158890000D03*
X88760000Y-161290000D03*
%TD*%
D25*
%TO.C,SW9*%
X298450000Y-160655000D03*
X285950000Y-160655000D03*
X298450000Y-155655000D03*
X285950000Y-155655000D03*
%TD*%
D12*
%TO.C,REF\u002A\u002A*%
X220802200Y-196621400D03*
%TD*%
%TO.C,REF\u002A\u002A*%
X250837700Y-196621400D03*
%TD*%
D25*
%TO.C,SW10*%
X275480000Y-160615000D03*
X262980000Y-160615000D03*
X262980000Y-155615000D03*
X275480000Y-155615000D03*
%TD*%
D13*
%TO.C,REF\u002A\u002A*%
X84662944Y-102027056D03*
D14*
X86360000Y-100330000D03*
D13*
X88057056Y-102027056D03*
X86360000Y-97930000D03*
X88760000Y-100330000D03*
X88057056Y-98632944D03*
X86360000Y-102730000D03*
X84662944Y-98632944D03*
X83960000Y-100330000D03*
%TD*%
D25*
%TO.C,SW8*%
X295820000Y-99735000D03*
X283320000Y-99735000D03*
X295820000Y-104735000D03*
X283320000Y-104735000D03*
%TD*%
D15*
%TO.C,J1*%
X147330000Y-107930000D03*
X154950000Y-107930000D03*
X162570000Y-107930000D03*
X149870000Y-110470000D03*
X160030000Y-110470000D03*
X160030000Y-97770000D03*
X149870000Y-97770000D03*
%TD*%
D12*
%TO.C,REF\u002A\u002A*%
X280809700Y-196621400D03*
%TD*%
D25*
%TO.C,SW6*%
X263000000Y-99735000D03*
X275500000Y-99735000D03*
X275500000Y-104735000D03*
X263000000Y-104735000D03*
%TD*%
D26*
%TO.C,SW1*%
X316270000Y-137314000D03*
D24*
X321270000Y-137314000D03*
X318770000Y-137314000D03*
D27*
X324370000Y-129814000D03*
X313170000Y-129814000D03*
D24*
X316270000Y-122814000D03*
X321270000Y-122814000D03*
%TD*%
D12*
%TO.C,REF\u002A\u002A*%
X190830200Y-196621400D03*
%TD*%
D13*
%TO.C,REF\u002A\u002A*%
X205740000Y-97930000D03*
X204042944Y-102027056D03*
X205740000Y-102730000D03*
X208140000Y-100330000D03*
X207437056Y-98632944D03*
D14*
X205740000Y-100330000D03*
D13*
X204042944Y-98632944D03*
X203340000Y-100330000D03*
X207437056Y-102027056D03*
%TD*%
D25*
%TO.C,SW4*%
X241410000Y-99735000D03*
X253910000Y-99735000D03*
X253910000Y-104735000D03*
X241410000Y-104735000D03*
%TD*%
D13*
%TO.C,REF\u002A\u002A*%
X84662944Y-214422056D03*
X84662944Y-211027944D03*
D14*
X86360000Y-212725000D03*
D13*
X83960000Y-212725000D03*
X88760000Y-212725000D03*
X88057056Y-211027944D03*
X88057056Y-214422056D03*
X86360000Y-210325000D03*
X86360000Y-215125000D03*
%TD*%
D28*
%TO.C,U36*%
X209490000Y-192957500D03*
X209490000Y-193457500D03*
X209490000Y-193957500D03*
X209490000Y-194457500D03*
X209490000Y-194957500D03*
X209490000Y-195457500D03*
X209490000Y-195957500D03*
X209490000Y-196457500D03*
X209490000Y-196957500D03*
X209490000Y-197457500D03*
X209490000Y-197957500D03*
X209490000Y-198457500D03*
X209490000Y-198957500D03*
X209490000Y-199457500D03*
X209490000Y-199957500D03*
X209490000Y-200457500D03*
X209490000Y-200957500D03*
X209490000Y-201457500D03*
X209490000Y-201957500D03*
X209490000Y-202457500D03*
X209490000Y-202957500D03*
X209490000Y-203457500D03*
X209490000Y-203957500D03*
X209490000Y-204457500D03*
X209490000Y-204957500D03*
X209490000Y-205457500D03*
X209490000Y-205957500D03*
X209490000Y-206457500D03*
X201990000Y-206457500D03*
X201990000Y-205957500D03*
X201990000Y-205457500D03*
X201990000Y-204957500D03*
X201990000Y-204457500D03*
X201990000Y-203957500D03*
X201990000Y-203457500D03*
X201990000Y-202957500D03*
X201990000Y-202457500D03*
X201990000Y-201957500D03*
X201990000Y-201457500D03*
X201990000Y-200957500D03*
X201990000Y-200457500D03*
X201990000Y-199957500D03*
X201990000Y-199457500D03*
X201990000Y-198957500D03*
X201990000Y-198457500D03*
X201990000Y-197957500D03*
X201990000Y-197457500D03*
X201990000Y-196957500D03*
X201990000Y-196457500D03*
X201990000Y-195957500D03*
X201990000Y-195457500D03*
X201990000Y-194957500D03*
X201990000Y-194457500D03*
X201990000Y-193957500D03*
X201990000Y-193457500D03*
X201990000Y-192957500D03*
D29*
X205740000Y-199707500D03*
%TD*%
D28*
%TO.C,U37*%
X209617000Y-160953500D03*
X209617000Y-161453500D03*
X209617000Y-161953500D03*
X209617000Y-162453500D03*
X209617000Y-162953500D03*
X209617000Y-163453500D03*
X209617000Y-163953500D03*
X209617000Y-164453500D03*
X209617000Y-164953500D03*
X209617000Y-165453500D03*
X209617000Y-165953500D03*
X209617000Y-166453500D03*
X209617000Y-166953500D03*
X209617000Y-167453500D03*
X209617000Y-167953500D03*
X209617000Y-168453500D03*
X209617000Y-168953500D03*
X209617000Y-169453500D03*
X209617000Y-169953500D03*
X209617000Y-170453500D03*
X209617000Y-170953500D03*
X209617000Y-171453500D03*
X209617000Y-171953500D03*
X209617000Y-172453500D03*
X209617000Y-172953500D03*
X209617000Y-173453500D03*
X209617000Y-173953500D03*
X209617000Y-174453500D03*
X202117000Y-174453500D03*
X202117000Y-173953500D03*
X202117000Y-173453500D03*
X202117000Y-172953500D03*
X202117000Y-172453500D03*
X202117000Y-171953500D03*
X202117000Y-171453500D03*
X202117000Y-170953500D03*
X202117000Y-170453500D03*
X202117000Y-169953500D03*
X202117000Y-169453500D03*
X202117000Y-168953500D03*
X202117000Y-168453500D03*
X202117000Y-167953500D03*
X202117000Y-167453500D03*
X202117000Y-166953500D03*
X202117000Y-166453500D03*
X202117000Y-165953500D03*
X202117000Y-165453500D03*
X202117000Y-164953500D03*
X202117000Y-164453500D03*
X202117000Y-163953500D03*
X202117000Y-163453500D03*
X202117000Y-162953500D03*
X202117000Y-162453500D03*
X202117000Y-161953500D03*
X202117000Y-161453500D03*
X202117000Y-160953500D03*
D29*
X205867000Y-167703500D03*
%TD*%
D30*
%TO.C,C9*%
X205083500Y-158496000D03*
X207158500Y-158496000D03*
%TD*%
D31*
%TO.C,C10*%
X205740000Y-190775500D03*
X205740000Y-188700500D03*
%TD*%
%TO.C,C22*%
X164211000Y-132863500D03*
X164211000Y-130788500D03*
%TD*%
D32*
%TO.C,C23*%
X166116000Y-147298500D03*
X166116000Y-149373500D03*
%TD*%
D33*
%TO.C,D2*%
X162690000Y-120015000D03*
X159890000Y-120015000D03*
%TD*%
D32*
%TO.C,R11*%
X156972000Y-132820500D03*
X156972000Y-134895500D03*
%TD*%
D34*
%TO.C,R12*%
X156993500Y-137160000D03*
X154918500Y-137160000D03*
%TD*%
D35*
%TO.C,R23*%
X122174000Y-125968000D03*
X122174000Y-123968000D03*
%TD*%
%TO.C,R24*%
X119126000Y-125968000D03*
X119126000Y-123968000D03*
%TD*%
D31*
%TO.C,C20*%
X166878000Y-132863500D03*
X166878000Y-130788500D03*
%TD*%
D35*
%TO.C,R22*%
X124968000Y-125968000D03*
X124968000Y-123968000D03*
%TD*%
D36*
%TO.C,U34*%
X119927000Y-119288500D03*
X119927000Y-118788500D03*
X119927000Y-118288500D03*
X119927000Y-117788500D03*
X119927000Y-117288500D03*
X119927000Y-116788500D03*
X119927000Y-116288500D03*
X119927000Y-115788500D03*
D37*
X120614500Y-115101000D03*
X121114500Y-115101000D03*
X121614500Y-115101000D03*
X122114500Y-115101000D03*
X122614500Y-115101000D03*
X123114500Y-115101000D03*
X123614500Y-115101000D03*
X124114500Y-115101000D03*
D36*
X124802000Y-115788500D03*
X124802000Y-116288500D03*
X124802000Y-116788500D03*
X124802000Y-117288500D03*
X124802000Y-117788500D03*
X124802000Y-118288500D03*
X124802000Y-118788500D03*
X124802000Y-119288500D03*
D37*
X124114500Y-119976000D03*
X123614500Y-119976000D03*
X123114500Y-119976000D03*
X122614500Y-119976000D03*
X122114500Y-119976000D03*
X121614500Y-119976000D03*
X121114500Y-119976000D03*
X120614500Y-119976000D03*
D38*
X122364500Y-117538500D03*
%TD*%
D32*
%TO.C,C21*%
X163322000Y-147298500D03*
X163322000Y-149373500D03*
%TD*%
D39*
%TO.C,U35*%
X189210000Y-141637500D03*
X188710000Y-141637500D03*
X188210000Y-141637500D03*
X187710000Y-141637500D03*
X187210000Y-141637500D03*
X186710000Y-141637500D03*
D40*
X186022500Y-140950000D03*
X186022500Y-140450000D03*
X186022500Y-139950000D03*
X186022500Y-139450000D03*
X186022500Y-138950000D03*
X186022500Y-138450000D03*
D39*
X186710000Y-137762500D03*
X187210000Y-137762500D03*
X187710000Y-137762500D03*
X188210000Y-137762500D03*
X188710000Y-137762500D03*
X189210000Y-137762500D03*
D40*
X189897500Y-138450000D03*
X189897500Y-138950000D03*
X189897500Y-139450000D03*
X189897500Y-139950000D03*
X189897500Y-140450000D03*
X189897500Y-140950000D03*
D41*
X187960000Y-139700000D03*
%TD*%
G36*
X203142121Y-118511002D02*
G01*
X203188614Y-118564658D01*
X203200000Y-118617000D01*
X203200000Y-127255000D01*
X203179998Y-127323121D01*
X203126342Y-127369614D01*
X203074000Y-127381000D01*
X196976000Y-127381000D01*
X196907879Y-127360998D01*
X196861386Y-127307342D01*
X196850000Y-127255000D01*
X196850000Y-118617000D01*
X196870002Y-118548879D01*
X196923658Y-118502386D01*
X196976000Y-118491000D01*
X203074000Y-118491000D01*
X203142121Y-118511002D01*
G37*
M02*
