%TF.GenerationSoftware,KiCad,Pcbnew,(6.0.5-0)*%
%TF.CreationDate,2022-06-21T23:58:56+01:00*%
%TF.ProjectId,BassStation_Sequencer_MidiInterface,42617373-5374-4617-9469-6f6e5f536571,B*%
%TF.SameCoordinates,Original*%
%TF.FileFunction,Soldermask,Top*%
%TF.FilePolarity,Negative*%
%FSLAX46Y46*%
G04 Gerber Fmt 4.6, Leading zero omitted, Abs format (unit mm)*
G04 Created by KiCad (PCBNEW (6.0.5-0)) date 2022-06-21 23:58:56*
%MOMM*%
%LPD*%
G01*
G04 APERTURE LIST*
G04 Aperture macros list*
%AMRoundRect*
0 Rectangle with rounded corners*
0 $1 Rounding radius*
0 $2 $3 $4 $5 $6 $7 $8 $9 X,Y pos of 4 corners*
0 Add a 4 corners polygon primitive as box body*
4,1,4,$2,$3,$4,$5,$6,$7,$8,$9,$2,$3,0*
0 Add four circle primitives for the rounded corners*
1,1,$1+$1,$2,$3*
1,1,$1+$1,$4,$5*
1,1,$1+$1,$6,$7*
1,1,$1+$1,$8,$9*
0 Add four rect primitives between the rounded corners*
20,1,$1+$1,$2,$3,$4,$5,0*
20,1,$1+$1,$4,$5,$6,$7,0*
20,1,$1+$1,$6,$7,$8,$9,0*
20,1,$1+$1,$8,$9,$2,$3,0*%
%AMFreePoly0*
4,1,134,-5.543350,4.244952,-5.463224,4.206304,-5.407785,4.136732,-5.388000,4.050000,-5.388000,2.853465,-4.334472,2.571174,-3.736030,3.607707,-3.675417,3.672820,-3.592562,3.705208,-3.503858,3.698460,-3.426856,3.653913,-3.376789,3.580380,-3.363563,3.492409,-3.389795,3.407404,-3.988062,2.371173,-3.216827,1.599937,-2.180294,2.198380,-2.095245,2.224463,-2.007296,2.211084,-1.933851,2.160889,
-1.889438,2.083808,-1.882845,1.995093,-1.915377,1.912295,-1.980597,1.851795,-3.016827,1.253527,-2.734535,0.200000,-0.500000,0.200000,-0.500000,0.325000,0.500000,0.325000,0.500000,-0.325000,-0.500000,-0.325000,-0.500000,-0.200000,-2.734535,-0.200000,-3.016827,-1.253528,-1.980294,-1.851970,-1.915181,-1.912583,-1.882793,-1.995438,-1.889541,-2.084142,-1.934088,-2.161144,-2.007621,-2.211211,
-2.095592,-2.224437,-2.180597,-2.198205,-3.216828,-1.599938,-3.988062,-2.371173,-3.389620,-3.407706,-3.363537,-3.492755,-3.376916,-3.580704,-3.427111,-3.654149,-3.504192,-3.698562,-3.592907,-3.705155,-3.675705,-3.672623,-3.736205,-3.607403,-4.334473,-2.571173,-5.388000,-2.853465,-5.388000,-4.050349,-5.407936,-4.137046,-5.463497,-4.206522,-5.543690,-4.245030,-5.632650,-4.244952,-5.712776,-4.206304,
-5.768215,-4.136732,-5.788000,-4.050000,-5.788000,-2.853465,-6.841528,-2.571173,-7.439969,-3.607705,-7.500583,-3.672819,-7.583438,-3.705207,-7.672141,-3.698459,-7.749144,-3.653911,-7.799211,-3.580378,-7.812437,-3.492408,-7.786205,-3.407403,-7.187938,-2.371173,-7.959174,-1.599938,-8.995706,-2.198380,-9.080756,-2.224463,-9.168705,-2.211084,-9.242150,-2.160889,-9.286562,-2.083808,-9.293155,-1.995093,
-9.260624,-1.912295,-9.195404,-1.851795,-8.159174,-1.253528,-8.441466,-0.200000,-9.638349,-0.200000,-9.725046,-0.180064,-9.794522,-0.124503,-9.833030,-0.044310,-9.832991,-0.000001,-8.080945,-0.000001,-7.746953,-1.246474,-6.834473,-2.158953,-5.587999,-2.492945,-4.341527,-2.158953,-3.429047,-1.246472,-3.095055,0.000001,-3.429047,1.246473,-4.341528,2.158954,-5.588000,2.492945,-6.834473,2.158953,
-7.746954,1.246472,-8.080945,-0.000001,-9.832991,-0.000001,-9.832952,0.044650,-9.794304,0.124776,-9.724732,0.180215,-9.638000,0.200000,-8.441465,0.200000,-8.159174,1.253528,-9.195706,1.851969,-9.260820,1.912583,-9.293208,1.995438,-9.286460,2.084141,-9.241912,2.161144,-9.168379,2.211211,-9.080409,2.224437,-8.995404,2.198205,-7.959174,1.599937,-7.187938,2.371174,-7.786380,3.407706,
-7.812463,3.492756,-7.799084,3.580705,-7.748889,3.654150,-7.671808,3.698562,-7.583093,3.705155,-7.500295,3.672624,-7.439795,3.607404,-6.841528,2.571174,-5.788000,2.853466,-5.788000,4.050349,-5.768064,4.137046,-5.712503,4.206522,-5.632310,4.245030,-5.543350,4.244952,-5.543350,4.244952,$1*%
%AMFreePoly1*
4,1,271,-1.261260,10.355868,-1.220793,10.349712,-1.217700,10.347598,-1.214024,10.346900,-1.181143,10.322614,-1.147348,10.299517,-1.145478,10.296271,-1.142468,10.294048,-1.123367,10.257897,-1.102935,10.222436,-1.102657,10.218701,-1.100909,10.215392,-0.712591,8.766167,-0.709408,8.677264,-0.745095,8.595775,-0.812588,8.537824,-0.898537,8.514875,-0.985936,8.531468,-1.057492,8.584320,-1.099051,8.662976,
-1.419820,9.860100,-3.209809,8.826651,-2.333207,7.950050,-2.286000,7.874649,-2.276160,7.786234,-2.305636,7.702300,-2.368595,7.639451,-2.452581,7.610121,-2.540977,7.620115,-2.616296,7.667454,-3.492652,8.543809,-4.526101,6.753818,-3.328640,6.432960,-3.250057,6.391264,-3.197329,6.319615,-3.180888,6.232188,-3.203988,6.146279,-3.262057,6.078886,-3.343607,6.043343,-3.432505,6.046680,
-4.629629,6.367448,-4.629629,4.300551,-3.432168,4.621409,-3.343265,4.624592,-3.261776,4.588905,-3.203825,4.521412,-3.180876,4.435463,-3.197469,4.348064,-3.250321,4.276508,-3.328977,4.234949,-4.526101,3.914180,-3.492652,2.124190,-2.616049,3.000793,-2.540648,3.048000,-2.452234,3.057840,-2.368300,3.028364,-2.305451,2.965405,-2.276121,2.881419,-2.286115,2.793023,-2.333453,2.717704,
-3.209809,1.841348,-1.419819,0.807899,-1.098961,2.005360,-1.057265,2.083943,-0.985616,2.136671,-0.898189,2.153112,-0.812280,2.130012,-0.744887,2.071943,-0.709344,1.990393,-0.712681,1.901495,-1.033449,0.704371,1.033448,0.704371,0.712589,1.901832,0.709407,1.990735,0.745093,2.072224,0.812587,2.130175,0.898536,2.153124,0.985935,2.136531,1.057491,2.083679,1.099050,2.005023,
1.419818,0.807898,3.209809,1.841348,2.333207,2.717950,2.286000,2.793351,2.276160,2.881766,2.305636,2.965700,2.368596,3.028549,2.452581,3.057879,2.540978,3.047885,2.616296,3.000546,3.492651,2.124191,4.526100,3.914181,3.328639,4.235039,3.250056,4.276735,3.197328,4.348384,3.180887,4.435811,3.203987,4.521720,3.262056,4.589113,3.343606,4.624656,3.432504,4.621319,
4.629628,4.300551,4.629628,6.367448,3.432167,6.046589,3.343264,6.043407,3.261775,6.079093,3.203824,6.146587,3.180875,6.232536,3.197468,6.319935,3.250320,6.391491,3.328976,6.433050,4.526101,6.753818,3.492651,8.543808,2.616050,7.667207,2.540649,7.620000,2.452234,7.610160,2.368300,7.639636,2.305451,7.702595,2.276121,7.786581,2.286115,7.874977,2.333454,7.950296,
3.209809,8.826651,1.419818,9.860100,1.098960,8.662639,1.057264,8.584056,0.985615,8.531328,0.898188,8.514887,0.812279,8.537987,0.744886,8.596056,0.709343,8.677606,0.712680,8.766504,1.100998,10.215729,1.102753,10.219037,1.103037,10.222769,1.123520,10.258176,1.142694,10.294312,1.145709,10.296531,1.147584,10.299772,1.181395,10.322793,1.214343,10.347040,1.218024,10.347732,
1.221118,10.349839,1.261559,10.355919,1.301770,10.363481,1.305387,10.362509,1.309088,10.363065,1.348170,10.351005,1.387679,10.340381,1.390515,10.337937,1.394093,10.336833,3.635836,9.042565,3.638577,9.040013,3.642109,9.038773,3.644754,9.036123,3.648239,9.034754,3.673624,9.007388,3.700950,8.981951,3.702314,8.978462,3.704958,8.975813,3.706192,8.972280,3.708739,8.969534,
5.003008,6.727790,5.004106,6.724211,5.006544,6.721371,5.007510,6.717753,5.009843,6.714825,5.018144,6.678437,5.029091,6.642741,5.028528,6.639038,5.029493,6.635422,5.028795,6.631745,5.029628,6.628093,5.029628,4.039557,5.028789,4.035909,5.029481,4.032229,5.028509,4.028612,5.029065,4.024911,5.018059,3.989246,5.009692,3.952860,5.007353,3.949935,5.006381,3.946320,
5.003937,3.943484,5.002833,3.939906,3.708565,1.698163,3.706013,1.695422,3.704773,1.691890,3.702123,1.689245,3.700754,1.685760,3.673388,1.660375,3.647951,1.633049,3.644462,1.631685,3.641813,1.629041,3.638280,1.627807,3.635534,1.625260,1.393791,0.330991,1.390210,0.329893,1.387371,0.327455,1.383753,0.326489,1.380825,0.324156,1.344438,0.315856,1.308741,0.304908,
1.305038,0.305471,1.301422,0.304506,1.297745,0.305204,1.294093,0.304371,0.325000,0.304371,0.325000,-0.500000,-0.325000,-0.500000,-0.325000,0.304371,-1.294443,0.304371,-1.298091,0.305210,-1.301771,0.304518,-1.305388,0.305490,-1.309089,0.304934,-1.344754,0.315940,-1.381140,0.324307,-1.384065,0.326646,-1.387680,0.327618,-1.390516,0.330062,-1.394094,0.331166,-3.635837,1.625434,
-3.638578,1.627986,-3.642110,1.629226,-3.644755,1.631876,-3.648240,1.633245,-3.673625,1.660611,-3.700951,1.686048,-3.702314,1.689536,-3.704959,1.692185,-3.706193,1.695720,-3.708740,1.698465,-5.003009,3.940208,-5.004107,3.943789,-5.006545,3.946628,-5.007511,3.950246,-5.009844,3.953174,-5.018144,3.989561,-5.029092,4.025258,-5.028529,4.028961,-5.029494,4.032577,-5.028796,4.036254,
-5.029629,4.039906,-5.029629,6.628442,-5.028790,6.632090,-5.029482,6.635770,-5.028510,6.639387,-5.029066,6.643088,-5.018060,6.678753,-5.009693,6.715139,-5.007354,6.718064,-5.006382,6.721679,-5.003938,6.724515,-5.002834,6.728093,-3.708566,8.969836,-3.706014,8.972577,-3.704774,8.976109,-3.702124,8.978754,-3.700755,8.982239,-3.673389,9.007624,-3.647952,9.034950,-3.644464,9.036313,
-3.641815,9.038958,-3.638280,9.040192,-3.635535,9.042739,-1.393791,10.337008,-1.390212,10.338106,-1.387372,10.340544,-1.347866,10.351092,-1.308742,10.363091,-1.305039,10.362528,-1.301423,10.363493,-1.261260,10.355868,-1.261260,10.355868,$1*%
G04 Aperture macros list end*
%ADD10C,3.000000*%
%ADD11C,2.800000*%
%ADD12C,0.800000*%
%ADD13C,6.400000*%
%ADD14RoundRect,0.250000X-0.475000X0.337500X-0.475000X-0.337500X0.475000X-0.337500X0.475000X0.337500X0*%
%ADD15RoundRect,0.250000X-0.337500X-0.475000X0.337500X-0.475000X0.337500X0.475000X-0.337500X0.475000X0*%
%ADD16RoundRect,0.250000X-0.625000X0.400000X-0.625000X-0.400000X0.625000X-0.400000X0.625000X0.400000X0*%
%ADD17RoundRect,0.250000X0.625000X-0.400000X0.625000X0.400000X-0.625000X0.400000X-0.625000X-0.400000X0*%
%ADD18RoundRect,0.250000X0.475000X-0.337500X0.475000X0.337500X-0.475000X0.337500X-0.475000X-0.337500X0*%
%ADD19RoundRect,0.249999X-0.325001X-0.450001X0.325001X-0.450001X0.325001X0.450001X-0.325001X0.450001X0*%
%ADD20RoundRect,0.250000X0.600000X-0.600000X0.600000X0.600000X-0.600000X0.600000X-0.600000X-0.600000X0*%
%ADD21C,1.700000*%
%ADD22R,3.500000X3.500000*%
%ADD23RoundRect,0.750000X-1.000000X0.750000X-1.000000X-0.750000X1.000000X-0.750000X1.000000X0.750000X0*%
%ADD24RoundRect,0.875000X-0.875000X0.875000X-0.875000X-0.875000X0.875000X-0.875000X0.875000X0.875000X0*%
%ADD25R,2.400000X0.740000*%
%ADD26C,3.200000*%
%ADD27R,1.800000X1.800000*%
%ADD28C,1.800000*%
%ADD29R,7.700000X3.100000*%
%ADD30RoundRect,0.249999X0.350001X0.450001X-0.350001X0.450001X-0.350001X-0.450001X0.350001X-0.450001X0*%
%ADD31RoundRect,0.249999X0.450001X-0.350001X0.450001X0.350001X-0.450001X0.350001X-0.450001X-0.350001X0*%
%ADD32RoundRect,0.249999X-0.350001X-0.450001X0.350001X-0.450001X0.350001X0.450001X-0.350001X0.450001X0*%
%ADD33RoundRect,0.249999X0.565687X0.070711X0.070711X0.565687X-0.565687X-0.070711X-0.070711X-0.565687X0*%
%ADD34C,1.000000*%
%ADD35RoundRect,0.125000X0.125000X-0.625000X0.125000X0.625000X-0.125000X0.625000X-0.125000X-0.625000X0*%
%ADD36RoundRect,0.125000X0.625000X-0.125000X0.625000X0.125000X-0.625000X0.125000X-0.625000X-0.125000X0*%
%ADD37R,1.060000X0.650000*%
%ADD38R,0.900000X0.800000*%
%ADD39R,2.000000X1.500000*%
%ADD40R,2.000000X3.800000*%
%ADD41R,1.780000X2.000000*%
%ADD42C,2.000000*%
%ADD43R,1.100000X1.100000*%
%ADD44RoundRect,0.250000X0.400000X0.625000X-0.400000X0.625000X-0.400000X-0.625000X0.400000X-0.625000X0*%
%ADD45R,1.000000X1.000000*%
%ADD46RoundRect,0.249999X-0.450001X0.325001X-0.450001X-0.325001X0.450001X-0.325001X0.450001X0.325001X0*%
%ADD47RoundRect,0.249999X-0.450001X0.350001X-0.450001X-0.350001X0.450001X-0.350001X0.450001X0.350001X0*%
%ADD48RoundRect,0.249999X0.450001X-0.325001X0.450001X0.325001X-0.450001X0.325001X-0.450001X-0.325001X0*%
%ADD49R,1.000000X0.500000*%
%ADD50FreePoly0,180.000000*%
%ADD51FreePoly1,90.000000*%
%ADD52R,3.100000X7.700000*%
%ADD53R,1.560000X0.650000*%
%ADD54R,0.650000X1.060000*%
%ADD55RoundRect,0.250000X-0.400000X-0.625000X0.400000X-0.625000X0.400000X0.625000X-0.400000X0.625000X0*%
%ADD56O,3.048000X1.850000*%
%ADD57C,3.000000*%
%ADD58R,1.700000X1.700000*%
%ADD59O,1.700000X1.700000*%
%ADD60R,2.000000X2.000000*%
%ADD61R,2.500000X3.000000*%
G04 APERTURE END LIST*
D10*
%TO.C,U17*%
X97170400Y-176123600D02*
G75*
G03*
X97170400Y-176123600I-3800000J0D01*
G01*
%TO.C,U1*%
X97170400Y-191160400D02*
G75*
G03*
X97170400Y-191160400I-3800000J0D01*
G01*
%TO.C,U18*%
X112156400Y-176123600D02*
G75*
G03*
X112156400Y-176123600I-3800000J0D01*
G01*
%TO.C,U2*%
X112156400Y-191160400D02*
G75*
G03*
X112156400Y-191160400I-3800000J0D01*
G01*
%TO.C,U3*%
X127142400Y-191160400D02*
G75*
G03*
X127142400Y-191160400I-3800000J0D01*
G01*
%TO.C,U19*%
X127142400Y-176123600D02*
G75*
G03*
X127142400Y-176123600I-3800000J0D01*
G01*
%TO.C,U20*%
X142128400Y-176123600D02*
G75*
G03*
X142128400Y-176123600I-3800000J0D01*
G01*
%TO.C,U4*%
X142128400Y-191160400D02*
G75*
G03*
X142128400Y-191160400I-3800000J0D01*
G01*
%TO.C,U5*%
X157114400Y-191160400D02*
G75*
G03*
X157114400Y-191160400I-3800000J0D01*
G01*
%TO.C,U21*%
X157114400Y-176123600D02*
G75*
G03*
X157114400Y-176123600I-3800000J0D01*
G01*
%TO.C,U22*%
X172151200Y-176123600D02*
G75*
G03*
X172151200Y-176123600I-3800000J0D01*
G01*
%TO.C,U6*%
X172151200Y-191160400D02*
G75*
G03*
X172151200Y-191160400I-3800000J0D01*
G01*
%TO.C,U23*%
X187137200Y-176123600D02*
G75*
G03*
X187137200Y-176123600I-3800000J0D01*
G01*
%TO.C,U7*%
X187137200Y-191160400D02*
G75*
G03*
X187137200Y-191160400I-3800000J0D01*
G01*
%TO.C,U8*%
X202123200Y-191160400D02*
G75*
G03*
X202123200Y-191160400I-3800000J0D01*
G01*
%TO.C,U24*%
X202123200Y-176123600D02*
G75*
G03*
X202123200Y-176123600I-3800000J0D01*
G01*
%TO.C,U25*%
X217109200Y-176123600D02*
G75*
G03*
X217109200Y-176123600I-3800000J0D01*
G01*
%TO.C,U9*%
X217109200Y-191135000D02*
G75*
G03*
X217109200Y-191135000I-3800000J0D01*
G01*
%TO.C,U26*%
X232120600Y-176123600D02*
G75*
G03*
X232120600Y-176123600I-3800000J0D01*
G01*
%TO.C,U10*%
X232120600Y-191135000D02*
G75*
G03*
X232120600Y-191135000I-3800000J0D01*
G01*
%TO.C,U11*%
X247106600Y-191135000D02*
G75*
G03*
X247106600Y-191135000I-3800000J0D01*
G01*
%TO.C,U27*%
X247106600Y-176123600D02*
G75*
G03*
X247106600Y-176123600I-3800000J0D01*
G01*
%TO.C,U28*%
X262118000Y-176123600D02*
G75*
G03*
X262118000Y-176123600I-3800000J0D01*
G01*
%TO.C,U12*%
X262118000Y-191135000D02*
G75*
G03*
X262118000Y-191135000I-3800000J0D01*
G01*
%TO.C,U29*%
X277104000Y-176123600D02*
G75*
G03*
X277104000Y-176123600I-3800000J0D01*
G01*
%TO.C,U13*%
X277104000Y-191135000D02*
G75*
G03*
X277104000Y-191135000I-3800000J0D01*
G01*
%TO.C,U14*%
X292115400Y-191135000D02*
G75*
G03*
X292115400Y-191135000I-3800000J0D01*
G01*
%TO.C,U30*%
X292115400Y-176149000D02*
G75*
G03*
X292115400Y-176149000I-3800000J0D01*
G01*
%TO.C,U31*%
X307101400Y-176123600D02*
G75*
G03*
X307101400Y-176123600I-3800000J0D01*
G01*
%TO.C,U32*%
X322112800Y-176123600D02*
G75*
G03*
X322112800Y-176123600I-3800000J0D01*
G01*
%TO.C,U15*%
X307101400Y-191135000D02*
G75*
G03*
X307101400Y-191135000I-3800000J0D01*
G01*
%TO.C,U16*%
X322112800Y-191109600D02*
G75*
G03*
X322112800Y-191109600I-3800000J0D01*
G01*
%TD*%
D11*
%TO.C,REF\u002A\u002A*%
X310832500Y-170624500D03*
%TD*%
%TO.C,REF\u002A\u002A*%
X280797000Y-170624500D03*
%TD*%
%TO.C,REF\u002A\u002A*%
X250825000Y-170624500D03*
%TD*%
%TO.C,REF\u002A\u002A*%
X220789500Y-170624500D03*
%TD*%
%TO.C,REF\u002A\u002A*%
X190817500Y-170624500D03*
%TD*%
%TO.C,REF\u002A\u002A*%
X160845500Y-170624500D03*
%TD*%
%TO.C,REF\u002A\u002A*%
X130810000Y-170624500D03*
%TD*%
%TO.C,REF\u002A\u002A*%
X100838000Y-170624500D03*
%TD*%
%TO.C,REF\u002A\u002A*%
X100838000Y-196659500D03*
%TD*%
%TO.C,REF\u002A\u002A*%
X130810000Y-196659500D03*
%TD*%
%TO.C,REF\u002A\u002A*%
X160845500Y-196659500D03*
%TD*%
D12*
%TO.C,REF\u002A\u002A*%
X327452056Y-102027056D03*
X324057944Y-98632944D03*
X327452056Y-98632944D03*
D13*
X325755000Y-100330000D03*
D12*
X323355000Y-100330000D03*
X325755000Y-97930000D03*
X324057944Y-102027056D03*
X328155000Y-100330000D03*
X325755000Y-102730000D03*
%TD*%
%TO.C,REF\u002A\u002A*%
X207437056Y-214422056D03*
X203340000Y-212725000D03*
X208140000Y-212725000D03*
X204042944Y-214422056D03*
X205740000Y-215125000D03*
X207437056Y-211027944D03*
X204042944Y-211027944D03*
D13*
X205740000Y-212725000D03*
D12*
X205740000Y-210325000D03*
%TD*%
D14*
%TO.C,C6*%
X138938000Y-147679500D03*
X138938000Y-149754500D03*
%TD*%
%TO.C,C7*%
X141478000Y-147679500D03*
X141478000Y-149754500D03*
%TD*%
D15*
%TO.C,C8*%
X194034500Y-136906000D03*
X196109500Y-136906000D03*
%TD*%
%TO.C,C11*%
X127613500Y-119316500D03*
X129688500Y-119316500D03*
%TD*%
%TO.C,C12*%
X132439500Y-117094000D03*
X134514500Y-117094000D03*
%TD*%
%TO.C,C13*%
X127613500Y-117094000D03*
X129688500Y-117094000D03*
%TD*%
%TO.C,C14*%
X132439500Y-119888000D03*
X134514500Y-119888000D03*
%TD*%
D16*
%TO.C,C15*%
X120142000Y-135991000D03*
X120142000Y-139091000D03*
%TD*%
%TO.C,C16*%
X122682000Y-135991000D03*
X122682000Y-139091000D03*
%TD*%
D15*
%TO.C,C17*%
X113262500Y-141351000D03*
X115337500Y-141351000D03*
%TD*%
D17*
%TO.C,C18*%
X120142000Y-147727000D03*
X120142000Y-144627000D03*
%TD*%
%TO.C,C19*%
X122682000Y-147727000D03*
X122682000Y-144627000D03*
%TD*%
D18*
%TO.C,C25*%
X191135000Y-127021500D03*
X191135000Y-124946500D03*
%TD*%
D19*
%TO.C,D4*%
X139437000Y-139700000D03*
X141487000Y-139700000D03*
%TD*%
%TO.C,D5*%
X117847000Y-150749000D03*
X119897000Y-150749000D03*
%TD*%
D20*
%TO.C,J4*%
X113665000Y-109220000D03*
D21*
X113665000Y-106680000D03*
X116205000Y-109220000D03*
X116205000Y-106680000D03*
X118745000Y-109220000D03*
X118745000Y-106680000D03*
X121285000Y-109220000D03*
X121285000Y-106680000D03*
X123825000Y-109220000D03*
X123825000Y-106680000D03*
X126365000Y-109220000D03*
X126365000Y-106680000D03*
X128905000Y-109220000D03*
X128905000Y-106680000D03*
X131445000Y-109220000D03*
X131445000Y-106680000D03*
X133985000Y-109220000D03*
X133985000Y-106680000D03*
X136525000Y-109220000D03*
X136525000Y-106680000D03*
%TD*%
D22*
%TO.C,J5*%
X98425000Y-109220000D03*
D23*
X98425000Y-103220000D03*
D24*
X93725000Y-106220000D03*
%TD*%
D25*
%TO.C,J7*%
X149307000Y-135890000D03*
X153207000Y-135890000D03*
X149307000Y-137160000D03*
X153207000Y-137160000D03*
X149307000Y-138430000D03*
X153207000Y-138430000D03*
X149307000Y-139700000D03*
X153207000Y-139700000D03*
X149307000Y-140970000D03*
X153207000Y-140970000D03*
%TD*%
D26*
%TO.C,J8*%
X302260000Y-110998000D03*
X234696000Y-149288500D03*
X302260000Y-149352000D03*
X234696000Y-110998000D03*
D27*
X235331000Y-137795000D03*
D28*
X235331000Y-135255000D03*
X235331000Y-132715000D03*
X235331000Y-130175000D03*
X235331000Y-127635000D03*
X235331000Y-125095000D03*
X235331000Y-122555000D03*
%TD*%
D29*
%TO.C,L2*%
X129032000Y-137901000D03*
X129032000Y-144801000D03*
%TD*%
D30*
%TO.C,R1*%
X148574000Y-119888000D03*
X146574000Y-119888000D03*
%TD*%
D31*
%TO.C,R2*%
X186690000Y-119999000D03*
X186690000Y-117999000D03*
%TD*%
D30*
%TO.C,R3*%
X172450000Y-118999000D03*
X170450000Y-118999000D03*
%TD*%
%TO.C,R4*%
X148574000Y-125476000D03*
X146574000Y-125476000D03*
%TD*%
D32*
%TO.C,R9*%
X139462000Y-137160000D03*
X141462000Y-137160000D03*
%TD*%
%TO.C,R10*%
X194072000Y-134874000D03*
X196072000Y-134874000D03*
%TD*%
D30*
%TO.C,R14*%
X196072000Y-143002000D03*
X194072000Y-143002000D03*
%TD*%
D32*
%TO.C,R18*%
X194072000Y-140970000D03*
X196072000Y-140970000D03*
%TD*%
D30*
%TO.C,R19*%
X196072000Y-138938000D03*
X194072000Y-138938000D03*
%TD*%
D33*
%TO.C,R21*%
X131771107Y-127199107D03*
X130356893Y-125784893D03*
%TD*%
D31*
%TO.C,R25*%
X113284000Y-150860000D03*
X113284000Y-148860000D03*
%TD*%
%TO.C,R26*%
X113284000Y-146796000D03*
X113284000Y-144796000D03*
%TD*%
%TO.C,R27*%
X117856000Y-146669000D03*
X117856000Y-144669000D03*
%TD*%
D34*
%TO.C,TP2*%
X148590000Y-127762000D03*
%TD*%
%TO.C,TP6*%
X117348000Y-134493000D03*
%TD*%
%TO.C,TP7*%
X113284000Y-153416000D03*
%TD*%
%TO.C,TP8*%
X140462000Y-134874000D03*
%TD*%
%TO.C,TP52*%
X222504000Y-141986000D03*
%TD*%
%TO.C,TP53*%
X222504000Y-133985000D03*
%TD*%
%TO.C,TP54*%
X222504000Y-136525000D03*
%TD*%
%TO.C,TP55*%
X222504000Y-139065000D03*
%TD*%
D35*
%TO.C,U33*%
X160982600Y-144295200D03*
X161782600Y-144295200D03*
X162582600Y-144295200D03*
X163382600Y-144295200D03*
X164182600Y-144295200D03*
X164982600Y-144295200D03*
X165782600Y-144295200D03*
X166582600Y-144295200D03*
D36*
X167957600Y-142920200D03*
X167957600Y-142120200D03*
X167957600Y-141320200D03*
X167957600Y-140520200D03*
X167957600Y-139720200D03*
X167957600Y-138920200D03*
X167957600Y-138120200D03*
X167957600Y-137320200D03*
D35*
X166582600Y-135945200D03*
X165782600Y-135945200D03*
X164982600Y-135945200D03*
X164182600Y-135945200D03*
X163382600Y-135945200D03*
X162582600Y-135945200D03*
X161782600Y-135945200D03*
X160982600Y-135945200D03*
D36*
X159607600Y-137320200D03*
X159607600Y-138120200D03*
X159607600Y-138920200D03*
X159607600Y-139720200D03*
X159607600Y-140520200D03*
X159607600Y-141320200D03*
X159607600Y-142120200D03*
X159607600Y-142920200D03*
%TD*%
D37*
%TO.C,U39*%
X115400000Y-138491000D03*
X115400000Y-137541000D03*
X115400000Y-136591000D03*
X113200000Y-136591000D03*
X113200000Y-137541000D03*
X113200000Y-138491000D03*
%TD*%
D38*
%TO.C,U40*%
X141462000Y-145095000D03*
X141462000Y-143195000D03*
X139462000Y-144145000D03*
%TD*%
D39*
%TO.C,U41*%
X195250800Y-120654600D03*
X195250800Y-122954600D03*
D40*
X201550800Y-122954600D03*
D39*
X195250800Y-125254600D03*
%TD*%
D41*
%TO.C,U43*%
X160020000Y-115885000D03*
X157480000Y-115885000D03*
X154940000Y-115885000D03*
X152400000Y-115885000D03*
X152400000Y-125415000D03*
X154940000Y-125415000D03*
X157480000Y-125415000D03*
X160020000Y-125415000D03*
%TD*%
D11*
%TO.C,REF\u002A\u002A*%
X310845200Y-196621400D03*
%TD*%
D12*
%TO.C,REF\u002A\u002A*%
X325755000Y-163690000D03*
D13*
X325755000Y-161290000D03*
D12*
X327452056Y-159592944D03*
X323355000Y-161290000D03*
X324057944Y-162987056D03*
X327452056Y-162987056D03*
X324057944Y-159592944D03*
X328155000Y-161290000D03*
X325755000Y-158890000D03*
%TD*%
D42*
%TO.C,SW3*%
X96012000Y-119380000D03*
X98552000Y-119380000D03*
X101092000Y-119380000D03*
%TD*%
D43*
%TO.C,D1*%
X87122000Y-129162000D03*
X87122000Y-126362000D03*
%TD*%
D38*
%TO.C,Q1*%
X90694000Y-126812000D03*
X90694000Y-128712000D03*
X92694000Y-127762000D03*
%TD*%
D44*
%TO.C,R5*%
X90196000Y-121412000D03*
X87096000Y-121412000D03*
%TD*%
D45*
%TO.C,TP3*%
X88138000Y-117094000D03*
%TD*%
D46*
%TO.C,D7*%
X98552000Y-126991000D03*
X98552000Y-129041000D03*
%TD*%
D47*
%TO.C,R13*%
X102616000Y-127016000D03*
X102616000Y-129016000D03*
%TD*%
D12*
%TO.C,REF\u002A\u002A*%
X327452056Y-211027944D03*
D13*
X325755000Y-212725000D03*
D12*
X325755000Y-215125000D03*
X328155000Y-212725000D03*
X327452056Y-214422056D03*
X324057944Y-211027944D03*
X325755000Y-210325000D03*
X324057944Y-214422056D03*
X323355000Y-212725000D03*
%TD*%
%TO.C,REF\u002A\u002A*%
X207945056Y-148416944D03*
X204550944Y-151811056D03*
X203848000Y-150114000D03*
X206248000Y-152514000D03*
D13*
X206248000Y-150114000D03*
D12*
X206248000Y-147714000D03*
X207945056Y-151811056D03*
X204550944Y-148416944D03*
X208648000Y-150114000D03*
%TD*%
D14*
%TO.C,C24*%
X191135000Y-120501500D03*
X191135000Y-122576500D03*
%TD*%
D31*
%TO.C,R32*%
X209550000Y-131540000D03*
X209550000Y-129540000D03*
%TD*%
D34*
%TO.C,TP9*%
X204724000Y-128016000D03*
%TD*%
D48*
%TO.C,D6*%
X207264000Y-131565000D03*
X207264000Y-129515000D03*
%TD*%
D49*
%TO.C,U17*%
X92100400Y-175348900D03*
X92100400Y-176149000D03*
X92100400Y-176949100D03*
X94703900Y-176949100D03*
X94703900Y-176149000D03*
X94703900Y-175348900D03*
D50*
X87782400Y-176123600D03*
D51*
X98704400Y-176123600D03*
%TD*%
D49*
%TO.C,U1*%
X92100400Y-190385700D03*
X92100400Y-191185800D03*
X92100400Y-191985900D03*
X94703900Y-191985900D03*
X94703900Y-191185800D03*
X94703900Y-190385700D03*
D50*
X87782400Y-191160400D03*
D51*
X98704400Y-191160400D03*
%TD*%
D52*
%TO.C,L1*%
X92054000Y-141859000D03*
X98954000Y-141859000D03*
%TD*%
D31*
%TO.C,R29*%
X321310000Y-145034000D03*
X321310000Y-143034000D03*
%TD*%
D49*
%TO.C,U18*%
X107086400Y-175348900D03*
X107086400Y-176149000D03*
X107086400Y-176949100D03*
X109689900Y-176949100D03*
X109689900Y-176149000D03*
X109689900Y-175348900D03*
D50*
X102768400Y-176123600D03*
D51*
X113690400Y-176123600D03*
%TD*%
D49*
%TO.C,U2*%
X107086400Y-190385700D03*
X107086400Y-191185800D03*
X107086400Y-191985900D03*
X109689900Y-191985900D03*
X109689900Y-191185800D03*
X109689900Y-190385700D03*
D50*
X102768400Y-191160400D03*
D51*
X113690400Y-191160400D03*
%TD*%
D34*
%TO.C,TP10*%
X171958000Y-156210000D03*
%TD*%
%TO.C,TP11*%
X171958000Y-151638000D03*
%TD*%
%TO.C,TP13*%
X171958000Y-158496000D03*
%TD*%
%TO.C,TP15*%
X171958000Y-153924000D03*
%TD*%
%TO.C,TP16*%
X210820000Y-208661000D03*
%TD*%
%TO.C,TP21*%
X179070000Y-135382000D03*
%TD*%
%TO.C,TP22*%
X179070000Y-138938000D03*
%TD*%
%TO.C,TP23*%
X179070000Y-143002000D03*
%TD*%
%TO.C,TP32*%
X110490000Y-132080000D03*
%TD*%
%TO.C,TP33*%
X110490000Y-129540000D03*
%TD*%
%TO.C,TP34*%
X110490000Y-127000000D03*
%TD*%
%TO.C,TP35*%
X110490000Y-124460000D03*
%TD*%
%TO.C,TP36*%
X110490000Y-121920000D03*
%TD*%
%TO.C,TP37*%
X110490000Y-119380000D03*
%TD*%
%TO.C,TP39*%
X110490000Y-114300000D03*
%TD*%
%TO.C,TP40*%
X137795000Y-122555000D03*
%TD*%
%TO.C,TP41*%
X136525000Y-112903000D03*
%TD*%
%TO.C,TP42*%
X137795000Y-129921000D03*
%TD*%
%TO.C,TP43*%
X133985000Y-112903000D03*
%TD*%
%TO.C,TP44*%
X131445000Y-112903000D03*
%TD*%
%TO.C,TP45*%
X128905000Y-112903000D03*
%TD*%
%TO.C,TP46*%
X126365000Y-112903000D03*
%TD*%
%TO.C,TP47*%
X123825000Y-112903000D03*
%TD*%
%TO.C,TP48*%
X121285000Y-112903000D03*
%TD*%
%TO.C,TP49*%
X118745000Y-112776000D03*
%TD*%
D49*
%TO.C,U3*%
X122072400Y-190385700D03*
X122072400Y-191185800D03*
X122072400Y-191985900D03*
X124675900Y-191985900D03*
X124675900Y-191185800D03*
X124675900Y-190385700D03*
D50*
X117754400Y-191160400D03*
D51*
X128676400Y-191160400D03*
%TD*%
D49*
%TO.C,U19*%
X122072400Y-175348900D03*
X122072400Y-176149000D03*
X122072400Y-176949100D03*
X124675900Y-176949100D03*
X124675900Y-176149000D03*
X124675900Y-175348900D03*
D50*
X117754400Y-176123600D03*
D51*
X128676400Y-176123600D03*
%TD*%
D49*
%TO.C,U20*%
X137058400Y-175348900D03*
X137058400Y-176149000D03*
X137058400Y-176949100D03*
X139661900Y-176949100D03*
X139661900Y-176149000D03*
X139661900Y-175348900D03*
D50*
X132740400Y-176123600D03*
D51*
X143662400Y-176123600D03*
%TD*%
D49*
%TO.C,U4*%
X137058400Y-190385700D03*
X137058400Y-191185800D03*
X137058400Y-191985900D03*
X139661900Y-191985900D03*
X139661900Y-191185800D03*
X139661900Y-190385700D03*
D50*
X132740400Y-191160400D03*
D51*
X143662400Y-191160400D03*
%TD*%
D49*
%TO.C,U5*%
X152044400Y-190385700D03*
X152044400Y-191185800D03*
X152044400Y-191985900D03*
X154647900Y-191985900D03*
X154647900Y-191185800D03*
X154647900Y-190385700D03*
D50*
X147726400Y-191160400D03*
D51*
X158648400Y-191160400D03*
%TD*%
D49*
%TO.C,U21*%
X152044400Y-175348900D03*
X152044400Y-176149000D03*
X152044400Y-176949100D03*
X154647900Y-176949100D03*
X154647900Y-176149000D03*
X154647900Y-175348900D03*
D50*
X147726400Y-176123600D03*
D51*
X158648400Y-176123600D03*
%TD*%
D34*
%TO.C,TP38*%
X110490000Y-116840000D03*
%TD*%
D49*
%TO.C,U22*%
X167081200Y-175348900D03*
X167081200Y-176149000D03*
X167081200Y-176949100D03*
X169684700Y-176949100D03*
X169684700Y-176149000D03*
X169684700Y-175348900D03*
D50*
X162763200Y-176123600D03*
D51*
X173685200Y-176123600D03*
%TD*%
D49*
%TO.C,U6*%
X167081200Y-190385700D03*
X167081200Y-191185800D03*
X167081200Y-191985900D03*
X169684700Y-191985900D03*
X169684700Y-191185800D03*
X169684700Y-190385700D03*
D50*
X162763200Y-191160400D03*
D51*
X173685200Y-191160400D03*
%TD*%
D49*
%TO.C,U23*%
X182067200Y-175348900D03*
X182067200Y-176149000D03*
X182067200Y-176949100D03*
X184670700Y-176949100D03*
X184670700Y-176149000D03*
X184670700Y-175348900D03*
D50*
X177749200Y-176123600D03*
D51*
X188671200Y-176123600D03*
%TD*%
D49*
%TO.C,U7*%
X182067200Y-190385700D03*
X182067200Y-191185800D03*
X182067200Y-191985900D03*
X184670700Y-191985900D03*
X184670700Y-191185800D03*
X184670700Y-190385700D03*
D50*
X177749200Y-191160400D03*
D51*
X188671200Y-191160400D03*
%TD*%
D49*
%TO.C,U8*%
X197053200Y-190385700D03*
X197053200Y-191185800D03*
X197053200Y-191985900D03*
X199656700Y-191985900D03*
X199656700Y-191185800D03*
X199656700Y-190385700D03*
D50*
X192735200Y-191160400D03*
D51*
X203657200Y-191160400D03*
%TD*%
D53*
%TO.C,U42*%
X179498000Y-118049000D03*
X179498000Y-118999000D03*
X179498000Y-119949000D03*
X182198000Y-119949000D03*
X182198000Y-118049000D03*
%TD*%
D34*
%TO.C,TP50*%
X175514000Y-118999000D03*
%TD*%
D49*
%TO.C,U24*%
X197053200Y-175348900D03*
X197053200Y-176149000D03*
X197053200Y-176949100D03*
X199656700Y-176949100D03*
X199656700Y-176149000D03*
X199656700Y-175348900D03*
D50*
X192735200Y-176123600D03*
D51*
X203657200Y-176123600D03*
%TD*%
D49*
%TO.C,U25*%
X212039200Y-175348900D03*
X212039200Y-176149000D03*
X212039200Y-176949100D03*
X214642700Y-176949100D03*
X214642700Y-176149000D03*
X214642700Y-175348900D03*
D50*
X207721200Y-176123600D03*
D51*
X218643200Y-176123600D03*
%TD*%
D49*
%TO.C,U9*%
X212039200Y-190360300D03*
X212039200Y-191160400D03*
X212039200Y-191960500D03*
X214642700Y-191960500D03*
X214642700Y-191160400D03*
X214642700Y-190360300D03*
D50*
X207721200Y-191135000D03*
D51*
X218643200Y-191135000D03*
%TD*%
D49*
%TO.C,U26*%
X227050600Y-175348900D03*
X227050600Y-176149000D03*
X227050600Y-176949100D03*
X229654100Y-176949100D03*
X229654100Y-176149000D03*
X229654100Y-175348900D03*
D50*
X222732600Y-176123600D03*
D51*
X233654600Y-176123600D03*
%TD*%
D49*
%TO.C,U10*%
X227050600Y-190360300D03*
X227050600Y-191160400D03*
X227050600Y-191960500D03*
X229654100Y-191960500D03*
X229654100Y-191160400D03*
X229654100Y-190360300D03*
D50*
X222732600Y-191135000D03*
D51*
X233654600Y-191135000D03*
%TD*%
D49*
%TO.C,U11*%
X242036600Y-190360300D03*
X242036600Y-191160400D03*
X242036600Y-191960500D03*
X244640100Y-191960500D03*
X244640100Y-191160400D03*
X244640100Y-190360300D03*
D50*
X237718600Y-191135000D03*
D51*
X248640600Y-191135000D03*
%TD*%
D49*
%TO.C,U27*%
X242036600Y-175348900D03*
X242036600Y-176149000D03*
X242036600Y-176949100D03*
X244640100Y-176949100D03*
X244640100Y-176149000D03*
X244640100Y-175348900D03*
D50*
X237718600Y-176123600D03*
D51*
X248640600Y-176123600D03*
%TD*%
D54*
%TO.C,U38*%
X92644000Y-155745000D03*
X91694000Y-155745000D03*
X90744000Y-155745000D03*
X90744000Y-157945000D03*
X91694000Y-157945000D03*
X92644000Y-157945000D03*
%TD*%
D34*
%TO.C,TP4*%
X86995000Y-153543000D03*
%TD*%
%TO.C,TP5*%
X107950000Y-156210000D03*
%TD*%
D32*
%TO.C,R7*%
X98314000Y-157988000D03*
X100314000Y-157988000D03*
%TD*%
D30*
%TO.C,R8*%
X100822000Y-153543000D03*
X98822000Y-153543000D03*
%TD*%
D55*
%TO.C,C1*%
X90144000Y-150749000D03*
X93244000Y-150749000D03*
%TD*%
%TO.C,C2*%
X90144000Y-148209000D03*
X93244000Y-148209000D03*
%TD*%
D18*
%TO.C,C3*%
X95504000Y-157882500D03*
X95504000Y-155807500D03*
%TD*%
D44*
%TO.C,C4*%
X101880000Y-150749000D03*
X98780000Y-150749000D03*
%TD*%
%TO.C,C5*%
X101880000Y-148209000D03*
X98780000Y-148209000D03*
%TD*%
D19*
%TO.C,D3*%
X102861000Y-153543000D03*
X104911000Y-153543000D03*
%TD*%
D30*
%TO.C,R6*%
X105140000Y-156210000D03*
X103140000Y-156210000D03*
%TD*%
D31*
%TO.C,R28*%
X316230000Y-145034000D03*
X316230000Y-143034000D03*
%TD*%
D49*
%TO.C,U28*%
X257048000Y-175348900D03*
X257048000Y-176149000D03*
X257048000Y-176949100D03*
X259651500Y-176949100D03*
X259651500Y-176149000D03*
X259651500Y-175348900D03*
D50*
X252730000Y-176123600D03*
D51*
X263652000Y-176123600D03*
%TD*%
D49*
%TO.C,U12*%
X257048000Y-190360300D03*
X257048000Y-191160400D03*
X257048000Y-191960500D03*
X259651500Y-191960500D03*
X259651500Y-191160400D03*
X259651500Y-190360300D03*
D50*
X252730000Y-191135000D03*
D51*
X263652000Y-191135000D03*
%TD*%
D56*
%TO.C,SW5*%
X253890000Y-160655000D03*
X241390000Y-160655000D03*
X241390000Y-155655000D03*
X253890000Y-155655000D03*
%TD*%
D49*
%TO.C,U29*%
X272034000Y-175348900D03*
X272034000Y-176149000D03*
X272034000Y-176949100D03*
X274637500Y-176949100D03*
X274637500Y-176149000D03*
X274637500Y-175348900D03*
D50*
X267716000Y-176123600D03*
D51*
X278638000Y-176123600D03*
%TD*%
D49*
%TO.C,U13*%
X272034000Y-190360300D03*
X272034000Y-191160400D03*
X272034000Y-191960500D03*
X274637500Y-191960500D03*
X274637500Y-191160400D03*
X274637500Y-190360300D03*
D50*
X267716000Y-191135000D03*
D51*
X278638000Y-191135000D03*
%TD*%
D49*
%TO.C,U14*%
X287045400Y-190360300D03*
X287045400Y-191160400D03*
X287045400Y-191960500D03*
X289648900Y-191960500D03*
X289648900Y-191160400D03*
X289648900Y-190360300D03*
D50*
X282727400Y-191135000D03*
D51*
X293649400Y-191135000D03*
%TD*%
D49*
%TO.C,U30*%
X287045400Y-175374300D03*
X287045400Y-176174400D03*
X287045400Y-176974500D03*
X289648900Y-176974500D03*
X289648900Y-176174400D03*
X289648900Y-175374300D03*
D50*
X282727400Y-176149000D03*
D51*
X293649400Y-176149000D03*
%TD*%
D49*
%TO.C,U31*%
X302031400Y-175348900D03*
X302031400Y-176149000D03*
X302031400Y-176949100D03*
X304634900Y-176949100D03*
X304634900Y-176149000D03*
X304634900Y-175348900D03*
D50*
X297713400Y-176123600D03*
D51*
X308635400Y-176123600D03*
%TD*%
D49*
%TO.C,U32*%
X317042800Y-175348900D03*
X317042800Y-176149000D03*
X317042800Y-176949100D03*
X319646300Y-176949100D03*
X319646300Y-176149000D03*
X319646300Y-175348900D03*
D50*
X312724800Y-176123600D03*
D51*
X323646800Y-176123600D03*
%TD*%
D49*
%TO.C,U15*%
X302031400Y-190360300D03*
X302031400Y-191160400D03*
X302031400Y-191960500D03*
X304634900Y-191960500D03*
X304634900Y-191160400D03*
X304634900Y-190360300D03*
D50*
X297713400Y-191135000D03*
D51*
X308635400Y-191135000D03*
%TD*%
D49*
%TO.C,U16*%
X317042800Y-190334900D03*
X317042800Y-191135000D03*
X317042800Y-191935100D03*
X319646300Y-191935100D03*
X319646300Y-191135000D03*
X319646300Y-190334900D03*
D50*
X312724800Y-191109600D03*
D51*
X323646800Y-191109600D03*
%TD*%
D12*
%TO.C,REF\u002A\u002A*%
X88057056Y-162987056D03*
X86360000Y-163690000D03*
X84662944Y-162987056D03*
X88057056Y-159592944D03*
D13*
X86360000Y-161290000D03*
D12*
X83960000Y-161290000D03*
X84662944Y-159592944D03*
X86360000Y-158890000D03*
X88760000Y-161290000D03*
%TD*%
D56*
%TO.C,SW9*%
X298450000Y-160655000D03*
X285950000Y-160655000D03*
X298450000Y-155655000D03*
X285950000Y-155655000D03*
%TD*%
D34*
%TO.C,TP60*%
X137795000Y-127381000D03*
%TD*%
D11*
%TO.C,REF\u002A\u002A*%
X220802200Y-196621400D03*
%TD*%
%TO.C,REF\u002A\u002A*%
X250837700Y-196621400D03*
%TD*%
D34*
%TO.C,TP19*%
X226885500Y-137668000D03*
%TD*%
D56*
%TO.C,SW10*%
X275480000Y-160615000D03*
X262980000Y-160615000D03*
X262980000Y-155615000D03*
X275480000Y-155615000D03*
%TD*%
D34*
%TO.C,TP58*%
X168148000Y-152654000D03*
%TD*%
%TO.C,TP56*%
X168148000Y-150368000D03*
%TD*%
%TO.C,TP51*%
X168148000Y-157226000D03*
%TD*%
D57*
%TO.C,J1*%
X147320000Y-107950000D03*
X154940000Y-107950000D03*
X162560000Y-107950000D03*
X149860000Y-110490000D03*
X160020000Y-110490000D03*
X149860000Y-97790000D03*
X160020000Y-97790000D03*
%TD*%
D34*
%TO.C,TP14*%
X176784000Y-140970000D03*
%TD*%
%TO.C,TP17*%
X226885500Y-140716000D03*
%TD*%
%TO.C,TP57*%
X168148000Y-154940000D03*
%TD*%
%TO.C,TP20*%
X226949000Y-135255000D03*
%TD*%
D12*
%TO.C,REF\u002A\u002A*%
X84662944Y-102027056D03*
D13*
X86360000Y-100330000D03*
D12*
X88057056Y-102027056D03*
X86360000Y-97930000D03*
X88760000Y-100330000D03*
X88057056Y-98632944D03*
X86360000Y-102730000D03*
X84662944Y-98632944D03*
X83960000Y-100330000D03*
%TD*%
D34*
%TO.C,TP12*%
X176784000Y-144780000D03*
%TD*%
%TO.C,TP59*%
X137795000Y-124841000D03*
%TD*%
%TO.C,TP18*%
X226822000Y-143256000D03*
%TD*%
%TO.C,TP1*%
X176784000Y-137160000D03*
%TD*%
D58*
%TO.C,J3*%
X153010000Y-156820000D03*
D59*
X153010000Y-154280000D03*
X153010000Y-151740000D03*
X153010000Y-149200000D03*
X153010000Y-146660000D03*
X153010000Y-144120000D03*
%TD*%
D56*
%TO.C,SW8*%
X295820000Y-99735000D03*
X283320000Y-99735000D03*
X295820000Y-104735000D03*
X283320000Y-104735000D03*
%TD*%
D57*
%TO.C,J2*%
X173990000Y-107950000D03*
X181610000Y-107950000D03*
X189230000Y-107950000D03*
X176530000Y-110490000D03*
X186690000Y-110490000D03*
X176530000Y-97790000D03*
X186690000Y-97790000D03*
%TD*%
D11*
%TO.C,REF\u002A\u002A*%
X280809700Y-196621400D03*
%TD*%
D56*
%TO.C,SW6*%
X263000000Y-99735000D03*
X275500000Y-99735000D03*
X275500000Y-104735000D03*
X263000000Y-104735000D03*
%TD*%
D60*
%TO.C,SW1*%
X316270000Y-137314000D03*
D42*
X321270000Y-137314000D03*
X318770000Y-137314000D03*
D61*
X324370000Y-129814000D03*
X313170000Y-129814000D03*
D42*
X316270000Y-122814000D03*
X321270000Y-122814000D03*
%TD*%
D11*
%TO.C,REF\u002A\u002A*%
X190830200Y-196621400D03*
%TD*%
D12*
%TO.C,REF\u002A\u002A*%
X205740000Y-97930000D03*
X204042944Y-102027056D03*
X205740000Y-102730000D03*
X208140000Y-100330000D03*
X207437056Y-98632944D03*
D13*
X205740000Y-100330000D03*
D12*
X204042944Y-98632944D03*
X203340000Y-100330000D03*
X207437056Y-102027056D03*
%TD*%
D56*
%TO.C,SW4*%
X241410000Y-99735000D03*
X253910000Y-99735000D03*
X253910000Y-104735000D03*
X241410000Y-104735000D03*
%TD*%
D12*
%TO.C,REF\u002A\u002A*%
X84662944Y-214422056D03*
X84662944Y-211027944D03*
D13*
X86360000Y-212725000D03*
D12*
X83960000Y-212725000D03*
X88760000Y-212725000D03*
X88057056Y-211027944D03*
X88057056Y-214422056D03*
X86360000Y-210325000D03*
X86360000Y-215125000D03*
%TD*%
M02*
