<?xml version="1.0" standalone="no"?>
 <!DOCTYPE svg PUBLIC "-//W3C//DTD SVG 1.1//EN" 
 "http://www.w3.org/Graphics/SVG/1.1/DTD/svg11.dtd"> 
<svg
  xmlns:svg="http://www.w3.org/2000/svg"
  xmlns="http://www.w3.org/2000/svg"
  xmlns:xlink="http://www.w3.org/1999/xlink"
  version="1.1"
  width="29.700220cm" height="21.000720cm" viewBox="0 0 116930 82680">
<title>SVG Picture created as 10PinARMSWD-MCU-10PinARMSWD.svg date 2021/06/08 00:07:06 </title>
  <desc>Picture generated by Eeschema-SVG </desc>
<g style="fill:#000000; fill-opacity:1;stroke:#000000; stroke-opacity:1;
stroke-linecap:round; stroke-linejoin:round;"
 transform="translate(0 0) scale(1 1)">
</g>
<g style="fill:#000000; fill-opacity:0.0; 
stroke:#000000; stroke-width:-10; stroke-opacity:1; 
stroke-linecap:round; stroke-linejoin:round;">
</g>
<g style="fill:#840000; fill-opacity:0.0; 
stroke:#840000; stroke-width:-10; stroke-opacity:1; 
stroke-linecap:round; stroke-linejoin:round;">
</g>
<g style="fill:#840000; fill-opacity:0.0; 
stroke:#840000; stroke-width:100; stroke-opacity:1; 
stroke-linecap:round; stroke-linejoin:round;">
</g>
<g style="fill:#840000; fill-opacity:0.0; 
stroke:#840000; stroke-width:60; stroke-opacity:1; 
stroke-linecap:round; stroke-linejoin:round;">
<rect x="69690" y="65360" width="42520" height="12600" rx="0" />
</g>
<g style="fill:#840000; fill-opacity:0.0; 
stroke:#840000; stroke-width:100; stroke-opacity:1; 
stroke-linecap:round; stroke-linejoin:round;">
</g>
<g style="fill:#840000; fill-opacity:0.0; 
stroke:#840000; stroke-width:60; stroke-opacity:1; 
stroke-linecap:round; stroke-linejoin:round;">
<rect x="3940" y="3940" width="109050" height="74800" rx="0" />
</g>
<g style="fill:#840000; fill-opacity:0.0; 
stroke:#840000; stroke-width:100; stroke-opacity:1; 
stroke-linecap:round; stroke-linejoin:round;">
</g>
<g style="fill:#840000; fill-opacity:0.0; 
stroke:#840000; stroke-width:60; stroke-opacity:1; 
stroke-linecap:round; stroke-linejoin:round;">
<rect x="4720" y="4720" width="107490" height="73240" rx="0" />
</g>
<g style="fill:#840000; fill-opacity:0.0; 
stroke:#840000; stroke-width:100; stroke-opacity:1; 
stroke-linecap:round; stroke-linejoin:round;">
</g>
<g style="fill:#840000; fill-opacity:0.0; 
stroke:#840000; stroke-width:60; stroke-opacity:1; 
stroke-linecap:round; stroke-linejoin:round;">
<path d="M23620 4720
L23620 3940
" />
</g>
<g style="fill:#840000; fill-opacity:0.0; 
stroke:#840000; stroke-width:100; stroke-opacity:1; 
stroke-linecap:round; stroke-linejoin:round;">
</g>
<g style="fill:#840000; fill-opacity:0.0; 
stroke:#840000; stroke-width:60; stroke-opacity:1; 
stroke-linecap:round; stroke-linejoin:round;">
<path d="M43310 4720
L43310 3940
" />
</g>
<g style="fill:#840000; fill-opacity:0.0; 
stroke:#840000; stroke-width:100; stroke-opacity:1; 
stroke-linecap:round; stroke-linejoin:round;">
</g>
<g style="fill:#840000; fill-opacity:0.0; 
stroke:#840000; stroke-width:60; stroke-opacity:1; 
stroke-linecap:round; stroke-linejoin:round;">
<path d="M62990 4720
L62990 3940
" />
</g>
<g style="fill:#840000; fill-opacity:0.0; 
stroke:#840000; stroke-width:100; stroke-opacity:1; 
stroke-linecap:round; stroke-linejoin:round;">
</g>
<g style="fill:#840000; fill-opacity:0.0; 
stroke:#840000; stroke-width:60; stroke-opacity:1; 
stroke-linecap:round; stroke-linejoin:round;">
<path d="M82680 4720
L82680 3940
" />
</g>
<g style="fill:#840000; fill-opacity:0.0; 
stroke:#840000; stroke-width:100; stroke-opacity:1; 
stroke-linecap:round; stroke-linejoin:round;">
</g>
<g style="fill:#840000; fill-opacity:0.0; 
stroke:#840000; stroke-width:60; stroke-opacity:1; 
stroke-linecap:round; stroke-linejoin:round;">
<path d="M102360 4720
L102360 3940
" />
</g>
<g style="fill:#840000; fill-opacity:0.0; 
stroke:#840000; stroke-width:100; stroke-opacity:1; 
stroke-linecap:round; stroke-linejoin:round;">
</g>
<g style="fill:#840000; fill-opacity:0.0; 
stroke:#840000; stroke-width:60; stroke-opacity:1; 
stroke-linecap:round; stroke-linejoin:round;">
<text x="13780" y="4580"
textLength="550" font-size="680" lengthAdjust="spacingAndGlyphs"
text-anchor="start" opacity="0">1</text>
<path d="M14190 4560
L13900 4560
" />
<path d="M14050 4560
L14050 4050
L14000 4120
L13950 4170
L13900 4190
" />
</g>
<g style="fill:#840000; fill-opacity:0.0; 
stroke:#840000; stroke-width:100; stroke-opacity:1; 
stroke-linecap:round; stroke-linejoin:round;">
</g>
<g style="fill:#840000; fill-opacity:0.0; 
stroke:#840000; stroke-width:60; stroke-opacity:1; 
stroke-linecap:round; stroke-linejoin:round;">
<text x="33460" y="4580"
textLength="550" font-size="680" lengthAdjust="spacingAndGlyphs"
text-anchor="start" opacity="0">2</text>
<path d="M33580 4090
L33610 4070
L33660 4050
L33780 4050
L33830 4070
L33850 4090
L33870 4140
L33870 4190
L33850 4260
L33560 4560
L33870 4560
" />
</g>
<g style="fill:#840000; fill-opacity:0.0; 
stroke:#840000; stroke-width:100; stroke-opacity:1; 
stroke-linecap:round; stroke-linejoin:round;">
</g>
<g style="fill:#840000; fill-opacity:0.0; 
stroke:#840000; stroke-width:60; stroke-opacity:1; 
stroke-linecap:round; stroke-linejoin:round;">
<text x="53150" y="4580"
textLength="550" font-size="680" lengthAdjust="spacingAndGlyphs"
text-anchor="start" opacity="0">3</text>
<path d="M53250 4050
L53560 4050
L53390 4240
L53470 4240
L53520 4260
L53540 4290
L53560 4340
L53560 4460
L53540 4510
L53520 4530
L53470 4560
L53320 4560
L53270 4530
L53250 4510
" />
</g>
<g style="fill:#840000; fill-opacity:0.0; 
stroke:#840000; stroke-width:100; stroke-opacity:1; 
stroke-linecap:round; stroke-linejoin:round;">
</g>
<g style="fill:#840000; fill-opacity:0.0; 
stroke:#840000; stroke-width:60; stroke-opacity:1; 
stroke-linecap:round; stroke-linejoin:round;">
<text x="72830" y="4580"
textLength="550" font-size="680" lengthAdjust="spacingAndGlyphs"
text-anchor="start" opacity="0">4</text>
<path d="M73200 4220
L73200 4560
" />
<path d="M73070 4020
L72950 4390
L73270 4390
" />
</g>
<g style="fill:#840000; fill-opacity:0.0; 
stroke:#840000; stroke-width:100; stroke-opacity:1; 
stroke-linecap:round; stroke-linejoin:round;">
</g>
<g style="fill:#840000; fill-opacity:0.0; 
stroke:#840000; stroke-width:60; stroke-opacity:1; 
stroke-linecap:round; stroke-linejoin:round;">
<text x="92520" y="4580"
textLength="550" font-size="680" lengthAdjust="spacingAndGlyphs"
text-anchor="start" opacity="0">5</text>
<path d="M92910 4050
L92670 4050
L92640 4290
L92670 4260
L92720 4240
L92840 4240
L92890 4260
L92910 4290
L92930 4340
L92930 4460
L92910 4510
L92890 4530
L92840 4560
L92720 4560
L92670 4530
L92640 4510
" />
</g>
<g style="fill:#840000; fill-opacity:0.0; 
stroke:#840000; stroke-width:100; stroke-opacity:1; 
stroke-linecap:round; stroke-linejoin:round;">
</g>
<g style="fill:#840000; fill-opacity:0.0; 
stroke:#840000; stroke-width:60; stroke-opacity:1; 
stroke-linecap:round; stroke-linejoin:round;">
<text x="112200" y="4580"
textLength="550" font-size="680" lengthAdjust="spacingAndGlyphs"
text-anchor="start" opacity="0">6</text>
<path d="M112570 4050
L112470 4050
L112420 4070
L112400 4090
L112350 4170
L112320 4260
L112320 4460
L112350 4510
L112370 4530
L112420 4560
L112520 4560
L112570 4530
L112590 4510
L112610 4460
L112610 4340
L112590 4290
L112570 4260
L112520 4240
L112420 4240
L112370 4260
L112350 4290
L112320 4340
" />
</g>
<g style="fill:#840000; fill-opacity:0.0; 
stroke:#840000; stroke-width:100; stroke-opacity:1; 
stroke-linecap:round; stroke-linejoin:round;">
</g>
<g style="fill:#840000; fill-opacity:0.0; 
stroke:#840000; stroke-width:60; stroke-opacity:1; 
stroke-linecap:round; stroke-linejoin:round;">
<path d="M23620 77960
L23620 78740
" />
</g>
<g style="fill:#840000; fill-opacity:0.0; 
stroke:#840000; stroke-width:100; stroke-opacity:1; 
stroke-linecap:round; stroke-linejoin:round;">
</g>
<g style="fill:#840000; fill-opacity:0.0; 
stroke:#840000; stroke-width:60; stroke-opacity:1; 
stroke-linecap:round; stroke-linejoin:round;">
<path d="M43310 77960
L43310 78740
" />
</g>
<g style="fill:#840000; fill-opacity:0.0; 
stroke:#840000; stroke-width:100; stroke-opacity:1; 
stroke-linecap:round; stroke-linejoin:round;">
</g>
<g style="fill:#840000; fill-opacity:0.0; 
stroke:#840000; stroke-width:60; stroke-opacity:1; 
stroke-linecap:round; stroke-linejoin:round;">
<path d="M62990 77960
L62990 78740
" />
</g>
<g style="fill:#840000; fill-opacity:0.0; 
stroke:#840000; stroke-width:100; stroke-opacity:1; 
stroke-linecap:round; stroke-linejoin:round;">
</g>
<g style="fill:#840000; fill-opacity:0.0; 
stroke:#840000; stroke-width:60; stroke-opacity:1; 
stroke-linecap:round; stroke-linejoin:round;">
<path d="M82680 77960
L82680 78740
" />
</g>
<g style="fill:#840000; fill-opacity:0.0; 
stroke:#840000; stroke-width:100; stroke-opacity:1; 
stroke-linecap:round; stroke-linejoin:round;">
</g>
<g style="fill:#840000; fill-opacity:0.0; 
stroke:#840000; stroke-width:60; stroke-opacity:1; 
stroke-linecap:round; stroke-linejoin:round;">
<path d="M102360 77960
L102360 78740
" />
</g>
<g style="fill:#840000; fill-opacity:0.0; 
stroke:#840000; stroke-width:100; stroke-opacity:1; 
stroke-linecap:round; stroke-linejoin:round;">
</g>
<g style="fill:#840000; fill-opacity:0.0; 
stroke:#840000; stroke-width:60; stroke-opacity:1; 
stroke-linecap:round; stroke-linejoin:round;">
<text x="13780" y="78600"
textLength="550" font-size="680" lengthAdjust="spacingAndGlyphs"
text-anchor="start" opacity="0">1</text>
<path d="M14190 78580
L13900 78580
" />
<path d="M14050 78580
L14050 78070
L14000 78140
L13950 78190
L13900 78210
" />
</g>
<g style="fill:#840000; fill-opacity:0.0; 
stroke:#840000; stroke-width:100; stroke-opacity:1; 
stroke-linecap:round; stroke-linejoin:round;">
</g>
<g style="fill:#840000; fill-opacity:0.0; 
stroke:#840000; stroke-width:60; stroke-opacity:1; 
stroke-linecap:round; stroke-linejoin:round;">
<text x="33460" y="78600"
textLength="550" font-size="680" lengthAdjust="spacingAndGlyphs"
text-anchor="start" opacity="0">2</text>
<path d="M33580 78110
L33610 78090
L33660 78070
L33780 78070
L33830 78090
L33850 78110
L33870 78160
L33870 78210
L33850 78280
L33560 78580
L33870 78580
" />
</g>
<g style="fill:#840000; fill-opacity:0.0; 
stroke:#840000; stroke-width:100; stroke-opacity:1; 
stroke-linecap:round; stroke-linejoin:round;">
</g>
<g style="fill:#840000; fill-opacity:0.0; 
stroke:#840000; stroke-width:60; stroke-opacity:1; 
stroke-linecap:round; stroke-linejoin:round;">
<text x="53150" y="78600"
textLength="550" font-size="680" lengthAdjust="spacingAndGlyphs"
text-anchor="start" opacity="0">3</text>
<path d="M53250 78070
L53560 78070
L53390 78260
L53470 78260
L53520 78280
L53540 78310
L53560 78360
L53560 78480
L53540 78530
L53520 78550
L53470 78580
L53320 78580
L53270 78550
L53250 78530
" />
</g>
<g style="fill:#840000; fill-opacity:0.0; 
stroke:#840000; stroke-width:100; stroke-opacity:1; 
stroke-linecap:round; stroke-linejoin:round;">
</g>
<g style="fill:#840000; fill-opacity:0.0; 
stroke:#840000; stroke-width:60; stroke-opacity:1; 
stroke-linecap:round; stroke-linejoin:round;">
<text x="72830" y="78600"
textLength="550" font-size="680" lengthAdjust="spacingAndGlyphs"
text-anchor="start" opacity="0">4</text>
<path d="M73200 78240
L73200 78580
" />
<path d="M73070 78040
L72950 78410
L73270 78410
" />
</g>
<g style="fill:#840000; fill-opacity:0.0; 
stroke:#840000; stroke-width:100; stroke-opacity:1; 
stroke-linecap:round; stroke-linejoin:round;">
</g>
<g style="fill:#840000; fill-opacity:0.0; 
stroke:#840000; stroke-width:60; stroke-opacity:1; 
stroke-linecap:round; stroke-linejoin:round;">
<text x="92520" y="78600"
textLength="550" font-size="680" lengthAdjust="spacingAndGlyphs"
text-anchor="start" opacity="0">5</text>
<path d="M92910 78070
L92670 78070
L92640 78310
L92670 78280
L92720 78260
L92840 78260
L92890 78280
L92910 78310
L92930 78360
L92930 78480
L92910 78530
L92890 78550
L92840 78580
L92720 78580
L92670 78550
L92640 78530
" />
</g>
<g style="fill:#840000; fill-opacity:0.0; 
stroke:#840000; stroke-width:100; stroke-opacity:1; 
stroke-linecap:round; stroke-linejoin:round;">
</g>
<g style="fill:#840000; fill-opacity:0.0; 
stroke:#840000; stroke-width:60; stroke-opacity:1; 
stroke-linecap:round; stroke-linejoin:round;">
<text x="112200" y="78600"
textLength="550" font-size="680" lengthAdjust="spacingAndGlyphs"
text-anchor="start" opacity="0">6</text>
<path d="M112570 78070
L112470 78070
L112420 78090
L112400 78110
L112350 78190
L112320 78280
L112320 78480
L112350 78530
L112370 78550
L112420 78580
L112520 78580
L112570 78550
L112590 78530
L112610 78480
L112610 78360
L112590 78310
L112570 78280
L112520 78260
L112420 78260
L112370 78280
L112350 78310
L112320 78360
" />
</g>
<g style="fill:#840000; fill-opacity:0.0; 
stroke:#840000; stroke-width:100; stroke-opacity:1; 
stroke-linecap:round; stroke-linejoin:round;">
</g>
<g style="fill:#840000; fill-opacity:0.0; 
stroke:#840000; stroke-width:60; stroke-opacity:1; 
stroke-linecap:round; stroke-linejoin:round;">
<path d="M3940 23620
L4720 23620
" />
</g>
<g style="fill:#840000; fill-opacity:0.0; 
stroke:#840000; stroke-width:100; stroke-opacity:1; 
stroke-linecap:round; stroke-linejoin:round;">
</g>
<g style="fill:#840000; fill-opacity:0.0; 
stroke:#840000; stroke-width:60; stroke-opacity:1; 
stroke-linecap:round; stroke-linejoin:round;">
<path d="M3940 43310
L4720 43310
" />
</g>
<g style="fill:#840000; fill-opacity:0.0; 
stroke:#840000; stroke-width:100; stroke-opacity:1; 
stroke-linecap:round; stroke-linejoin:round;">
</g>
<g style="fill:#840000; fill-opacity:0.0; 
stroke:#840000; stroke-width:60; stroke-opacity:1; 
stroke-linecap:round; stroke-linejoin:round;">
<path d="M3940 62990
L4720 62990
" />
</g>
<g style="fill:#840000; fill-opacity:0.0; 
stroke:#840000; stroke-width:100; stroke-opacity:1; 
stroke-linecap:round; stroke-linejoin:round;">
</g>
<g style="fill:#840000; fill-opacity:0.0; 
stroke:#840000; stroke-width:60; stroke-opacity:1; 
stroke-linecap:round; stroke-linejoin:round;">
<text x="4330" y="14030"
textLength="500" font-size="680" lengthAdjust="spacingAndGlyphs"
text-anchor="middle" opacity="0">A</text>
<path d="M4200 13860
L4450 13860
" />
<path d="M4160 14010
L4330 13500
L4500 14010
" />
</g>
<g style="fill:#840000; fill-opacity:0.0; 
stroke:#840000; stroke-width:100; stroke-opacity:1; 
stroke-linecap:round; stroke-linejoin:round;">
</g>
<g style="fill:#840000; fill-opacity:0.0; 
stroke:#840000; stroke-width:60; stroke-opacity:1; 
stroke-linecap:round; stroke-linejoin:round;">
<text x="4330" y="33710"
textLength="570" font-size="680" lengthAdjust="spacingAndGlyphs"
text-anchor="middle" opacity="0">B</text>
<path d="M4360 33420
L4430 33440
L4460 33470
L4480 33520
L4480 33590
L4460 33640
L4430 33660
L4390 33690
L4190 33690
L4190 33180
L4360 33180
L4410 33200
L4430 33220
L4460 33270
L4460 33320
L4430 33370
L4410 33390
L4360 33420
L4190 33420
" />
</g>
<g style="fill:#840000; fill-opacity:0.0; 
stroke:#840000; stroke-width:100; stroke-opacity:1; 
stroke-linecap:round; stroke-linejoin:round;">
</g>
<g style="fill:#840000; fill-opacity:0.0; 
stroke:#840000; stroke-width:60; stroke-opacity:1; 
stroke-linecap:round; stroke-linejoin:round;">
<text x="4330" y="53400"
textLength="570" font-size="680" lengthAdjust="spacingAndGlyphs"
text-anchor="middle" opacity="0">C</text>
<path d="M4480 53330
L4460 53350
L4390 53380
L4340 53380
L4260 53350
L4220 53300
L4190 53250
L4170 53160
L4170 53080
L4190 52990
L4220 52940
L4260 52890
L4340 52870
L4390 52870
L4460 52890
L4480 52910
" />
</g>
<g style="fill:#840000; fill-opacity:0.0; 
stroke:#840000; stroke-width:100; stroke-opacity:1; 
stroke-linecap:round; stroke-linejoin:round;">
</g>
<g style="fill:#840000; fill-opacity:0.0; 
stroke:#840000; stroke-width:60; stroke-opacity:1; 
stroke-linecap:round; stroke-linejoin:round;">
<text x="4330" y="73080"
textLength="570" font-size="680" lengthAdjust="spacingAndGlyphs"
text-anchor="middle" opacity="0">D</text>
<path d="M4190 73060
L4190 72550
L4310 72550
L4390 72570
L4430 72620
L4460 72670
L4480 72760
L4480 72840
L4460 72930
L4430 72980
L4390 73030
L4310 73060
L4190 73060
" />
</g>
<g style="fill:#840000; fill-opacity:0.0; 
stroke:#840000; stroke-width:100; stroke-opacity:1; 
stroke-linecap:round; stroke-linejoin:round;">
</g>
<g style="fill:#840000; fill-opacity:0.0; 
stroke:#840000; stroke-width:60; stroke-opacity:1; 
stroke-linecap:round; stroke-linejoin:round;">
<path d="M112990 23620
L112210 23620
" />
</g>
<g style="fill:#840000; fill-opacity:0.0; 
stroke:#840000; stroke-width:100; stroke-opacity:1; 
stroke-linecap:round; stroke-linejoin:round;">
</g>
<g style="fill:#840000; fill-opacity:0.0; 
stroke:#840000; stroke-width:60; stroke-opacity:1; 
stroke-linecap:round; stroke-linejoin:round;">
<path d="M112990 43310
L112210 43310
" />
</g>
<g style="fill:#840000; fill-opacity:0.0; 
stroke:#840000; stroke-width:100; stroke-opacity:1; 
stroke-linecap:round; stroke-linejoin:round;">
</g>
<g style="fill:#840000; fill-opacity:0.0; 
stroke:#840000; stroke-width:60; stroke-opacity:1; 
stroke-linecap:round; stroke-linejoin:round;">
<path d="M112990 62990
L112210 62990
" />
</g>
<g style="fill:#840000; fill-opacity:0.0; 
stroke:#840000; stroke-width:100; stroke-opacity:1; 
stroke-linecap:round; stroke-linejoin:round;">
</g>
<g style="fill:#840000; fill-opacity:0.0; 
stroke:#840000; stroke-width:60; stroke-opacity:1; 
stroke-linecap:round; stroke-linejoin:round;">
<text x="112600" y="14030"
textLength="500" font-size="680" lengthAdjust="spacingAndGlyphs"
text-anchor="middle" opacity="0">A</text>
<path d="M112470 13860
L112720 13860
" />
<path d="M112430 14010
L112600 13500
L112770 14010
" />
</g>
<g style="fill:#840000; fill-opacity:0.0; 
stroke:#840000; stroke-width:100; stroke-opacity:1; 
stroke-linecap:round; stroke-linejoin:round;">
</g>
<g style="fill:#840000; fill-opacity:0.0; 
stroke:#840000; stroke-width:60; stroke-opacity:1; 
stroke-linecap:round; stroke-linejoin:round;">
<text x="112600" y="33710"
textLength="570" font-size="680" lengthAdjust="spacingAndGlyphs"
text-anchor="middle" opacity="0">B</text>
<path d="M112630 33420
L112700 33440
L112730 33470
L112750 33520
L112750 33590
L112730 33640
L112700 33660
L112660 33690
L112460 33690
L112460 33180
L112630 33180
L112680 33200
L112700 33220
L112730 33270
L112730 33320
L112700 33370
L112680 33390
L112630 33420
L112460 33420
" />
</g>
<g style="fill:#840000; fill-opacity:0.0; 
stroke:#840000; stroke-width:100; stroke-opacity:1; 
stroke-linecap:round; stroke-linejoin:round;">
</g>
<g style="fill:#840000; fill-opacity:0.0; 
stroke:#840000; stroke-width:60; stroke-opacity:1; 
stroke-linecap:round; stroke-linejoin:round;">
<text x="112600" y="53400"
textLength="570" font-size="680" lengthAdjust="spacingAndGlyphs"
text-anchor="middle" opacity="0">C</text>
<path d="M112750 53330
L112730 53350
L112660 53380
L112610 53380
L112530 53350
L112490 53300
L112460 53250
L112440 53160
L112440 53080
L112460 52990
L112490 52940
L112530 52890
L112610 52870
L112660 52870
L112730 52890
L112750 52910
" />
</g>
<g style="fill:#840000; fill-opacity:0.0; 
stroke:#840000; stroke-width:100; stroke-opacity:1; 
stroke-linecap:round; stroke-linejoin:round;">
</g>
<g style="fill:#840000; fill-opacity:0.0; 
stroke:#840000; stroke-width:60; stroke-opacity:1; 
stroke-linecap:round; stroke-linejoin:round;">
<text x="112600" y="73080"
textLength="570" font-size="680" lengthAdjust="spacingAndGlyphs"
text-anchor="middle" opacity="0">D</text>
<path d="M112460 73060
L112460 72550
L112580 72550
L112660 72570
L112700 72620
L112730 72670
L112750 72760
L112750 72840
L112730 72930
L112700 72980
L112660 73030
L112580 73060
L112460 73060
" />
</g>
<g style="fill:#840000; fill-opacity:0.0; 
stroke:#840000; stroke-width:100; stroke-opacity:1; 
stroke-linecap:round; stroke-linejoin:round;">
</g>
<g style="fill:#840000; fill-opacity:0.0; 
stroke:#840000; stroke-width:60; stroke-opacity:1; 
stroke-linecap:round; stroke-linejoin:round;">
<text x="78740" y="76320"
textLength="8710" font-size="780" lengthAdjust="spacingAndGlyphs"
text-anchor="start" opacity="0">Date: 2021-06-05</text>
<path d="M78910 76290
L78910 75700
L79050 75700
L79130 75730
L79190 75790
L79210 75840
L79240 75950
L79240 76040
L79210 76150
L79190 76210
L79130 76260
L79050 76290
L78910 76290
" />
<path d="M79750 76290
L79750 75980
L79720 75930
L79660 75900
L79550 75900
L79500 75930
" />
<path d="M79750 76260
L79690 76290
L79550 76290
L79500 76260
L79470 76210
L79470 76150
L79500 76100
L79550 76070
L79690 76070
L79750 76040
" />
<path d="M79950 75900
L80170 75900
" />
<path d="M80030 75700
L80030 76210
L80060 76260
L80110 76290
L80170 76290
" />
<path d="M80590 76260
L80540 76290
L80420 76290
L80370 76260
L80340 76210
L80340 75980
L80370 75930
L80420 75900
L80540 75900
L80590 75930
L80620 75980
L80620 76040
L80340 76100
" />
<path d="M80870 76240
L80900 76260
L80870 76290
L80840 76260
L80870 76240
L80870 76290
" />
<path d="M80870 75930
L80900 75950
L80870 75980
L80840 75950
L80870 75930
L80870 75980
" />
<path d="M81570 75760
L81600 75730
L81660 75700
L81800 75700
L81860 75730
L81880 75760
L81910 75810
L81910 75870
L81880 75950
L81550 76290
L81910 76290
" />
<path d="M82280 75700
L82330 75700
L82390 75730
L82420 75760
L82450 75810
L82470 75930
L82470 76070
L82450 76180
L82420 76240
L82390 76260
L82330 76290
L82280 76290
L82220 76260
L82190 76240
L82160 76180
L82140 76070
L82140 75930
L82160 75810
L82190 75760
L82220 75730
L82280 75700
" />
<path d="M82700 75760
L82730 75730
L82780 75700
L82920 75700
L82980 75730
L83010 75760
L83040 75810
L83040 75870
L83010 75950
L82670 76290
L83040 76290
" />
<path d="M83600 76290
L83260 76290
" />
<path d="M83430 76290
L83430 75700
L83370 75790
L83320 75840
L83260 75870
" />
<path d="M83850 76070
L84300 76070
" />
<path d="M84690 75700
L84750 75700
L84810 75730
L84830 75760
L84860 75810
L84890 75930
L84890 76070
L84860 76180
L84830 76240
L84810 76260
L84750 76290
L84690 76290
L84640 76260
L84610 76240
L84580 76180
L84550 76070
L84550 75930
L84580 75810
L84610 75760
L84640 75730
L84690 75700
" />
<path d="M85400 75700
L85280 75700
L85230 75730
L85200 75760
L85140 75840
L85110 75950
L85110 76180
L85140 76240
L85170 76260
L85230 76290
L85340 76290
L85400 76260
L85420 76240
L85450 76180
L85450 76040
L85420 75980
L85400 75950
L85340 75930
L85230 75930
L85170 75950
L85140 75980
L85110 76040
" />
<path d="M85700 76070
L86150 76070
" />
<path d="M86550 75700
L86600 75700
L86660 75730
L86690 75760
L86720 75810
L86740 75930
L86740 76070
L86720 76180
L86690 76240
L86660 76260
L86600 76290
L86550 76290
L86490 76260
L86460 76240
L86440 76180
L86410 76070
L86410 75930
L86440 75810
L86460 75760
L86490 75730
L86550 75700
" />
<path d="M87280 75700
L87000 75700
L86970 75980
L87000 75950
L87050 75930
L87190 75930
L87250 75950
L87280 75980
L87310 76040
L87310 76180
L87280 76240
L87250 76260
L87190 76290
L87050 76290
L87000 76260
L86970 76240
" />
</g>
<g style="fill:#840000; fill-opacity:0.0; 
stroke:#840000; stroke-width:100; stroke-opacity:1; 
stroke-linecap:round; stroke-linejoin:round;">
</g>
<g style="fill:#840000; fill-opacity:0.0; 
stroke:#840000; stroke-width:60; stroke-opacity:1; 
stroke-linecap:round; stroke-linejoin:round;">
<path d="M69690 76580
L112210 76580
" />
</g>
<g style="fill:#840000; fill-opacity:0.0; 
stroke:#840000; stroke-width:100; stroke-opacity:1; 
stroke-linecap:round; stroke-linejoin:round;">
</g>
<g style="fill:#840000; fill-opacity:0.0; 
stroke:#840000; stroke-width:60; stroke-opacity:1; 
stroke-linecap:round; stroke-linejoin:round;">
<text x="70080" y="77420"
textLength="16950" font-size="780" lengthAdjust="spacingAndGlyphs"
text-anchor="start" opacity="0">KiCad E.D.A.  kicad (5.1.8-0-10_14)</text>
<path d="M70250 77390
L70250 76800
" />
<path d="M70580 77390
L70330 77050
" />
<path d="M70580 76800
L70250 77140
" />
<path d="M70840 77390
L70840 77000
" />
<path d="M70840 76800
L70810 76830
L70840 76860
L70860 76830
L70840 76800
L70840 76860
" />
<path d="M71450 77340
L71430 77360
L71340 77390
L71290 77390
L71200 77360
L71140 77310
L71120 77250
L71090 77140
L71090 77050
L71120 76940
L71140 76890
L71200 76830
L71290 76800
L71340 76800
L71430 76830
L71450 76860
" />
<path d="M71960 77390
L71960 77080
L71930 77030
L71880 77000
L71760 77000
L71710 77030
" />
<path d="M71960 77360
L71900 77390
L71760 77390
L71710 77360
L71680 77310
L71680 77250
L71710 77200
L71760 77170
L71900 77170
L71960 77140
" />
<path d="M72490 77390
L72490 76800
" />
<path d="M72490 77360
L72440 77390
L72320 77390
L72270 77360
L72240 77340
L72210 77280
L72210 77110
L72240 77050
L72270 77030
L72320 77000
L72440 77000
L72490 77030
" />
<path d="M73220 77080
L73420 77080
" />
<path d="M73500 77390
L73220 77390
L73220 76800
L73500 76800
" />
<path d="M73760 77340
L73790 77360
L73760 77390
L73730 77360
L73760 77340
L73760 77390
" />
<path d="M74040 77390
L74040 76800
L74180 76800
L74260 76830
L74320 76890
L74350 76940
L74380 77050
L74380 77140
L74350 77250
L74320 77310
L74260 77360
L74180 77390
L74040 77390
" />
<path d="M74630 77340
L74660 77360
L74630 77390
L74600 77360
L74630 77340
L74630 77390
" />
<path d="M74880 77220
L75160 77220
" />
<path d="M74830 77390
L75020 76800
L75220 77390
" />
<path d="M75420 77340
L75440 77360
L75420 77390
L75390 77360
L75420 77340
L75420 77390
" />
<path d="M76600 77390
L76600 76800
" />
<path d="M76650 77170
L76820 77390
" />
<path d="M76820 77000
L76600 77220
" />
<path d="M77070 77390
L77070 77000
" />
<path d="M77070 76800
L77040 76830
L77070 76860
L77100 76830
L77070 76800
L77070 76860
" />
<path d="M77610 77360
L77550 77390
L77440 77390
L77380 77360
L77350 77340
L77330 77280
L77330 77110
L77350 77050
L77380 77030
L77440 77000
L77550 77000
L77610 77030
" />
<path d="M78110 77390
L78110 77080
L78080 77030
L78030 77000
L77920 77000
L77860 77030
" />
<path d="M78110 77360
L78060 77390
L77920 77390
L77860 77360
L77830 77310
L77830 77250
L77860 77200
L77920 77170
L78060 77170
L78110 77140
" />
<path d="M78650 77390
L78650 76800
" />
<path d="M78650 77360
L78590 77390
L78480 77390
L78420 77360
L78390 77340
L78370 77280
L78370 77110
L78390 77050
L78420 77030
L78480 77000
L78590 77000
L78650 77030
" />
<path d="M79550 77620
L79520 77590
L79460 77500
L79430 77450
L79400 77360
L79380 77220
L79380 77110
L79400 76970
L79430 76890
L79460 76830
L79520 76750
L79550 76720
" />
<path d="M80050 76800
L79770 76800
L79740 77080
L79770 77050
L79830 77030
L79970 77030
L80020 77050
L80050 77080
L80080 77140
L80080 77280
L80050 77340
L80020 77360
L79970 77390
L79830 77390
L79770 77360
L79740 77340
" />
<path d="M80330 77340
L80360 77360
L80330 77390
L80300 77360
L80330 77340
L80330 77390
" />
<path d="M80920 77390
L80580 77390
" />
<path d="M80750 77390
L80750 76800
L80700 76890
L80640 76940
L80580 76970
" />
<path d="M81170 77340
L81200 77360
L81170 77390
L81150 77360
L81170 77340
L81170 77390
" />
<path d="M81540 77050
L81480 77030
L81460 77000
L81430 76940
L81430 76910
L81460 76860
L81480 76830
L81540 76800
L81650 76800
L81710 76830
L81740 76860
L81760 76910
L81760 76940
L81740 77000
L81710 77030
L81650 77050
L81540 77050
L81480 77080
L81460 77110
L81430 77170
L81430 77280
L81460 77340
L81480 77360
L81540 77390
L81650 77390
L81710 77360
L81740 77340
L81760 77280
L81760 77170
L81740 77110
L81710 77080
L81650 77050
" />
<path d="M82020 77170
L82470 77170
" />
<path d="M82860 76800
L82920 76800
L82970 76830
L83000 76860
L83030 76910
L83060 77030
L83060 77170
L83030 77280
L83000 77340
L82970 77360
L82920 77390
L82860 77390
L82800 77360
L82780 77340
L82750 77280
L82720 77170
L82720 77030
L82750 76910
L82780 76860
L82800 76830
L82860 76800
" />
<path d="M83310 77170
L83760 77170
" />
<path d="M84350 77390
L84010 77390
" />
<path d="M84180 77390
L84180 76800
L84120 76890
L84070 76940
L84010 76970
" />
<path d="M84710 76800
L84770 76800
L84830 76830
L84860 76860
L84880 76910
L84910 77030
L84910 77170
L84880 77280
L84860 77340
L84830 77360
L84770 77390
L84710 77390
L84660 77360
L84630 77340
L84600 77280
L84570 77170
L84570 77030
L84600 76910
L84630 76860
L84660 76830
L84710 76800
" />
<path d="M85020 77450
L85470 77450
" />
<path d="M85920 77390
L85590 77390
" />
<path d="M85750 77390
L85750 76800
L85700 76890
L85640 76940
L85590 76970
" />
<path d="M86430 77000
L86430 77390
" />
<path d="M86290 76770
L86150 77200
L86510 77200
" />
<path d="M86680 77620
L86710 77590
L86770 77500
L86790 77450
L86820 77360
L86850 77220
L86850 77110
L86820 76970
L86790 76890
L86770 76830
L86710 76750
L86680 76720
" />
</g>
<g style="fill:#840000; fill-opacity:0.0; 
stroke:#840000; stroke-width:100; stroke-opacity:1; 
stroke-linecap:round; stroke-linejoin:round;">
</g>
<g style="fill:#840000; fill-opacity:0.0; 
stroke:#840000; stroke-width:60; stroke-opacity:1; 
stroke-linecap:round; stroke-linejoin:round;">
<path d="M69690 75400
L112210 75400
" />
</g>
<g style="fill:#840000; fill-opacity:0.0; 
stroke:#840000; stroke-width:100; stroke-opacity:1; 
stroke-linecap:round; stroke-linejoin:round;">
</g>
<g style="fill:#840000; fill-opacity:0.0; 
stroke:#840000; stroke-width:120; stroke-opacity:1; 
stroke-linecap:round; stroke-linejoin:round;">
<text x="103540" y="76320"
textLength="2840" font-size="780" lengthAdjust="spacingAndGlyphs"
text-anchor="start" opacity="0">Rev: A</text>
<path d="M104090 76290
L103890 76010
" />
<path d="M103750 76290
L103750 75700
L103980 75700
L104030 75730
L104060 75760
L104090 75810
L104090 75900
L104060 75950
L104030 75980
L103980 76010
L103750 76010
" />
<path d="M104570 76260
L104510 76290
L104400 76290
L104340 76260
L104320 76210
L104320 75980
L104340 75930
L104400 75900
L104510 75900
L104570 75930
L104600 75980
L104600 76040
L104320 76100
" />
<path d="M104790 75900
L104930 76290
L105070 75900
" />
<path d="M105300 76240
L105330 76260
L105300 76290
L105270 76260
L105300 76240
L105300 76290
" />
<path d="M105300 75930
L105330 75950
L105300 75980
L105270 75950
L105300 75930
L105300 75980
" />
<path d="M106000 76120
L106280 76120
" />
<path d="M105940 76290
L106140 75700
L106340 76290
" />
</g>
<g style="fill:#840000; fill-opacity:0.0; 
stroke:#840000; stroke-width:100; stroke-opacity:1; 
stroke-linecap:round; stroke-linejoin:round;">
</g>
<g style="fill:#840000; fill-opacity:0.0; 
stroke:#840000; stroke-width:60; stroke-opacity:1; 
stroke-linecap:round; stroke-linejoin:round;">
<text x="70080" y="76320"
textLength="3780" font-size="780" lengthAdjust="spacingAndGlyphs"
text-anchor="start" opacity="0">Size: A4</text>
<path d="M70220 76260
L70300 76290
L70440 76290
L70500 76260
L70530 76240
L70550 76180
L70550 76120
L70530 76070
L70500 76040
L70440 76010
L70330 75980
L70270 75950
L70250 75930
L70220 75870
L70220 75810
L70250 75760
L70270 75730
L70330 75700
L70470 75700
L70550 75730
" />
<path d="M70810 76290
L70810 75900
" />
<path d="M70810 75700
L70780 75730
L70810 75760
L70840 75730
L70810 75700
L70810 75760
" />
<path d="M71030 75900
L71340 75900
L71030 76290
L71340 76290
" />
<path d="M71790 76260
L71730 76290
L71620 76290
L71570 76260
L71540 76210
L71540 75980
L71570 75930
L71620 75900
L71730 75900
L71790 75930
L71820 75980
L71820 76040
L71540 76100
" />
<path d="M72070 76240
L72100 76260
L72070 76290
L72040 76260
L72070 76240
L72070 76290
" />
<path d="M72070 75930
L72100 75950
L72070 75980
L72040 75950
L72070 75930
L72070 75980
" />
<path d="M72770 76120
L73060 76120
" />
<path d="M72720 76290
L72910 75700
L73110 76290
" />
<path d="M73560 75900
L73560 76290
" />
<path d="M73420 75670
L73280 76100
L73650 76100
" />
</g>
<g style="fill:#840000; fill-opacity:0.0; 
stroke:#840000; stroke-width:100; stroke-opacity:1; 
stroke-linecap:round; stroke-linejoin:round;">
</g>
<g style="fill:#840000; fill-opacity:0.0; 
stroke:#840000; stroke-width:60; stroke-opacity:1; 
stroke-linecap:round; stroke-linejoin:round;">
<text x="103540" y="77420"
textLength="3910" font-size="780" lengthAdjust="spacingAndGlyphs"
text-anchor="start" opacity="0">Id: 4/46</text>
<path d="M103710 77390
L103710 76800
" />
<path d="M104240 77390
L104240 76800
" />
<path d="M104240 77360
L104180 77390
L104070 77390
L104010 77360
L103990 77340
L103960 77280
L103960 77110
L103990 77050
L104010 77030
L104070 77000
L104180 77000
L104240 77030
" />
<path d="M104520 77340
L104550 77360
L104520 77390
L104490 77360
L104520 77340
L104520 77390
" />
<path d="M104520 77030
L104550 77050
L104520 77080
L104490 77050
L104520 77030
L104520 77080
" />
<path d="M105500 77000
L105500 77390
" />
<path d="M105360 76770
L105220 77200
L105590 77200
" />
<path d="M106230 76770
L105730 77530
" />
<path d="M106680 77000
L106680 77390
" />
<path d="M106540 76770
L106400 77200
L106770 77200
" />
<path d="M107250 76800
L107130 76800
L107080 76830
L107050 76860
L106990 76940
L106960 77050
L106960 77280
L106990 77340
L107020 77360
L107080 77390
L107190 77390
L107250 77360
L107270 77340
L107300 77280
L107300 77140
L107270 77080
L107250 77050
L107190 77030
L107080 77030
L107020 77050
L106990 77080
L106960 77140
" />
</g>
<g style="fill:#840000; fill-opacity:0.0; 
stroke:#840000; stroke-width:100; stroke-opacity:1; 
stroke-linecap:round; stroke-linejoin:round;">
</g>
<g style="fill:#840000; fill-opacity:0.0; 
stroke:#840000; stroke-width:60; stroke-opacity:1; 
stroke-linecap:round; stroke-linejoin:round;">
<path d="M69690 73820
L112210 73820
" />
</g>
<g style="fill:#840000; fill-opacity:0.0; 
stroke:#840000; stroke-width:100; stroke-opacity:1; 
stroke-linecap:round; stroke-linejoin:round;">
</g>
<g style="fill:#840000; fill-opacity:0.0; 
stroke:#840000; stroke-width:160; stroke-opacity:1; 
stroke-linecap:round; stroke-linejoin:round;">
<text x="70080" y="74920"
textLength="13870" font-size="1050" lengthAdjust="spacingAndGlyphs"
text-anchor="start" opacity="0">Title: Debug Connector</text>
<path d="M70360 74090
L70810 74090
" />
<path d="M70480 74880
L70580 74090
" />
<path d="M70970 74880
L71040 74360
" />
<path d="M71070 74090
L71030 74130
L71060 74170
L71110 74130
L71070 74090
L71060 74170
" />
<path d="M71300 74360
L71600 74360
" />
<path d="M71450 74090
L71360 74770
L71390 74840
L71460 74880
L71540 74880
" />
<path d="M71910 74880
L71840 74840
L71820 74770
L71900 74090
" />
<path d="M72520 74840
L72440 74880
L72290 74880
L72220 74840
L72190 74770
L72230 74470
L72280 74390
L72360 74360
L72510 74360
L72580 74390
L72610 74470
L72600 74540
L72210 74620
" />
<path d="M72900 74810
L72930 74840
L72890 74880
L72860 74840
L72900 74810
L72890 74880
" />
<path d="M72950 74390
L72990 74430
L72940 74470
L72910 74430
L72950 74390
L72940 74470
" />
<path d="M73870 74880
L73970 74090
L74160 74090
L74270 74130
L74330 74210
L74360 74280
L74380 74430
L74360 74540
L74310 74690
L74260 74770
L74180 74840
L74060 74880
L73870 74880
" />
<path d="M74970 74840
L74890 74880
L74740 74880
L74670 74840
L74640 74770
L74670 74470
L74720 74390
L74800 74360
L74950 74360
L75020 74390
L75050 74470
L75040 74540
L74660 74620
" />
<path d="M75340 74880
L75440 74090
" />
<path d="M75400 74390
L75480 74360
L75630 74360
L75700 74390
L75730 74430
L75760 74510
L75730 74730
L75690 74810
L75640 74840
L75560 74880
L75410 74880
L75340 74840
" />
<path d="M76460 74360
L76390 74880
" />
<path d="M76120 74360
L76070 74770
L76090 74840
L76170 74880
L76280 74880
L76360 74840
L76400 74810
" />
<path d="M77170 74360
L77090 75000
L77040 75070
L77000 75110
L76920 75150
L76810 75150
L76740 75110
" />
<path d="M77110 74840
L77030 74880
L76880 74880
L76810 74840
L76780 74810
L76750 74730
L76780 74510
L76820 74430
L76870 74390
L76950 74360
L77100 74360
L77170 74390
" />
<path d="M78540 74810
L78500 74840
L78380 74880
L78310 74880
L78200 74840
L78140 74770
L78110 74690
L78090 74540
L78100 74430
L78160 74280
L78210 74210
L78290 74130
L78410 74090
L78480 74090
L78590 74130
L78620 74170
" />
<path d="M78990 74880
L78920 74840
L78880 74810
L78850 74730
L78880 74510
L78930 74430
L78970 74390
L79050 74360
L79170 74360
L79240 74390
L79270 74430
L79300 74510
L79270 74730
L79220 74810
L79180 74840
L79100 74880
L78990 74880
" />
<path d="M79650 74360
L79590 74880
" />
<path d="M79640 74430
L79690 74390
L79770 74360
L79880 74360
L79950 74390
L79980 74470
L79930 74880
" />
<path d="M80370 74360
L80300 74880
" />
<path d="M80360 74430
L80400 74390
L80480 74360
L80590 74360
L80670 74390
L80690 74470
L80640 74880
" />
<path d="M81320 74840
L81240 74880
L81090 74880
L81020 74840
L80990 74770
L81030 74470
L81080 74390
L81160 74360
L81310 74360
L81380 74390
L81410 74470
L81400 74540
L81010 74620
" />
<path d="M82040 74840
L81960 74880
L81810 74880
L81740 74840
L81700 74810
L81680 74730
L81700 74510
L81750 74430
L81790 74390
L81870 74360
L82020 74360
L82090 74390
" />
<path d="M82330 74360
L82630 74360
" />
<path d="M82470 74090
L82390 74770
L82410 74840
L82490 74880
L82560 74880
" />
<path d="M82940 74880
L82870 74840
L82830 74810
L82800 74730
L82830 74510
L82880 74430
L82920 74390
L83000 74360
L83120 74360
L83190 74390
L83220 74430
L83250 74510
L83220 74730
L83170 74810
L83130 74840
L83050 74880
L82940 74880
" />
<path d="M83540 74880
L83600 74360
" />
<path d="M83590 74510
L83630 74430
L83670 74390
L83750 74360
L83830 74360
" />
</g>
<g style="fill:#840000; fill-opacity:0.0; 
stroke:#840000; stroke-width:100; stroke-opacity:1; 
stroke-linecap:round; stroke-linejoin:round;">
</g>
<g style="fill:#840000; fill-opacity:0.0; 
stroke:#840000; stroke-width:60; stroke-opacity:1; 
stroke-linecap:round; stroke-linejoin:round;">
<text x="70080" y="73400"
textLength="10460" font-size="780" lengthAdjust="spacingAndGlyphs"
text-anchor="start" opacity="0">File: 10PinARMSWD.sch</text>
<path d="M70440 73060
L70250 73060
" />
<path d="M70250 73370
L70250 72780
L70530 72780
" />
<path d="M70750 73370
L70750 72980
" />
<path d="M70750 72780
L70720 72810
L70750 72840
L70780 72810
L70750 72780
L70750 72840
" />
<path d="M71120 73370
L71060 73340
L71030 73290
L71030 72780
" />
<path d="M71570 73340
L71510 73370
L71400 73370
L71340 73340
L71310 73290
L71310 73060
L71340 73010
L71400 72980
L71510 72980
L71570 73010
L71590 73060
L71590 73120
L71310 73180
" />
<path d="M71850 73320
L71880 73340
L71850 73370
L71820 73340
L71850 73320
L71850 73370
" />
<path d="M71850 73010
L71880 73030
L71850 73060
L71820 73030
L71850 73010
L71850 73060
" />
<path d="M72890 73370
L72550 73370
" />
<path d="M72720 73370
L72720 72780
L72660 72870
L72610 72920
L72550 72950
" />
<path d="M73250 72780
L73310 72780
L73360 72810
L73390 72840
L73420 72890
L73450 73010
L73450 73150
L73420 73260
L73390 73320
L73360 73340
L73310 73370
L73250 73370
L73200 73340
L73170 73320
L73140 73260
L73110 73150
L73110 73010
L73140 72890
L73170 72840
L73200 72810
L73250 72780
" />
<path d="M73700 73370
L73700 72780
L73930 72780
L73980 72810
L74010 72840
L74040 72890
L74040 72980
L74010 73030
L73980 73060
L73930 73090
L73700 73090
" />
<path d="M74290 73370
L74290 72980
" />
<path d="M74290 72780
L74260 72810
L74290 72840
L74320 72810
L74290 72780
L74290 72840
" />
<path d="M74570 72980
L74570 73370
" />
<path d="M74570 73030
L74600 73010
L74660 72980
L74740 72980
L74800 73010
L74830 73060
L74830 73370
" />
<path d="M75080 73200
L75360 73200
" />
<path d="M75020 73370
L75220 72780
L75420 73370
" />
<path d="M75950 73370
L75750 73090
" />
<path d="M75610 73370
L75610 72780
L75840 72780
L75890 72810
L75920 72840
L75950 72890
L75950 72980
L75920 73030
L75890 73060
L75840 73090
L75610 73090
" />
<path d="M76200 73370
L76200 72780
L76400 73200
L76600 72780
L76600 73370
" />
<path d="M76850 73340
L76930 73370
L77070 73370
L77130 73340
L77160 73320
L77190 73260
L77190 73200
L77160 73150
L77130 73120
L77070 73090
L76960 73060
L76900 73030
L76880 73010
L76850 72950
L76850 72890
L76880 72840
L76900 72810
L76960 72780
L77100 72780
L77190 72810
" />
<path d="M77380 72780
L77520 73370
L77630 72950
L77750 73370
L77890 72780
" />
<path d="M78110 73370
L78110 72780
L78250 72780
L78340 72810
L78390 72870
L78420 72920
L78450 73030
L78450 73120
L78420 73230
L78390 73290
L78340 73340
L78250 73370
L78110 73370
" />
<path d="M78700 73320
L78730 73340
L78700 73370
L78670 73340
L78700 73320
L78700 73370
" />
<path d="M78960 73340
L79010 73370
L79120 73370
L79180 73340
L79210 73290
L79210 73260
L79180 73200
L79120 73180
L79040 73180
L78980 73150
L78960 73090
L78960 73060
L78980 73010
L79040 72980
L79120 72980
L79180 73010
" />
<path d="M79710 73340
L79660 73370
L79550 73370
L79490 73340
L79460 73320
L79430 73260
L79430 73090
L79460 73030
L79490 73010
L79550 72980
L79660 72980
L79710 73010
" />
<path d="M79970 73370
L79970 72780
" />
<path d="M80220 73370
L80220 73060
L80190 73010
L80140 72980
L80050 72980
L79990 73010
L79970 73030
" />
</g>
<g style="fill:#840000; fill-opacity:0.0; 
stroke:#840000; stroke-width:100; stroke-opacity:1; 
stroke-linecap:round; stroke-linejoin:round;">
</g>
<g style="fill:#840000; fill-opacity:0.0; 
stroke:#840000; stroke-width:60; stroke-opacity:1; 
stroke-linecap:round; stroke-linejoin:round;">
<path d="M69690 71460
L112210 71460
" />
</g>
<g style="fill:#840000; fill-opacity:0.0; 
stroke:#840000; stroke-width:100; stroke-opacity:1; 
stroke-linecap:round; stroke-linejoin:round;">
</g>
<g style="fill:#840000; fill-opacity:0.0; 
stroke:#840000; stroke-width:60; stroke-opacity:1; 
stroke-linecap:round; stroke-linejoin:round;">
<text x="70080" y="72340"
textLength="13100" font-size="780" lengthAdjust="spacingAndGlyphs"
text-anchor="start" opacity="0">Sheet: /MCU/10PinARMSWD/</text>
<path d="M70220 72280
L70300 72310
L70440 72310
L70500 72280
L70530 72260
L70550 72200
L70550 72140
L70530 72090
L70500 72060
L70440 72030
L70330 72000
L70270 71970
L70250 71950
L70220 71890
L70220 71830
L70250 71780
L70270 71750
L70330 71720
L70470 71720
L70550 71750
" />
<path d="M70810 72310
L70810 71720
" />
<path d="M71060 72310
L71060 72000
L71030 71950
L70980 71920
L70890 71920
L70840 71950
L70810 71970
" />
<path d="M71570 72280
L71510 72310
L71400 72310
L71340 72280
L71310 72230
L71310 72000
L71340 71950
L71400 71920
L71510 71920
L71570 71950
L71590 72000
L71590 72060
L71310 72120
" />
<path d="M72070 72280
L72020 72310
L71900 72310
L71850 72280
L71820 72230
L71820 72000
L71850 71950
L71900 71920
L72020 71920
L72070 71950
L72100 72000
L72100 72060
L71820 72120
" />
<path d="M72270 71920
L72490 71920
" />
<path d="M72350 71720
L72350 72230
L72380 72280
L72440 72310
L72490 72310
" />
<path d="M72690 72260
L72720 72280
L72690 72310
L72660 72280
L72690 72260
L72690 72310
" />
<path d="M72690 71950
L72720 71970
L72690 72000
L72660 71970
L72690 71950
L72690 72000
" />
<path d="M73840 71690
L73340 72450
" />
<path d="M74040 72310
L74040 71720
L74240 72140
L74430 71720
L74430 72310
" />
<path d="M75050 72260
L75020 72280
L74940 72310
L74880 72310
L74800 72280
L74740 72230
L74710 72170
L74680 72060
L74680 71970
L74710 71860
L74740 71810
L74800 71750
L74880 71720
L74940 71720
L75020 71750
L75050 71780
" />
<path d="M75300 71720
L75300 72200
L75330 72260
L75360 72280
L75420 72310
L75530 72310
L75580 72280
L75610 72260
L75640 72200
L75640 71720
" />
<path d="M76340 71690
L75840 72450
" />
<path d="M76850 72310
L76510 72310
" />
<path d="M76680 72310
L76680 71720
L76620 71810
L76570 71860
L76510 71890
" />
<path d="M77210 71720
L77270 71720
L77330 71750
L77350 71780
L77380 71830
L77410 71950
L77410 72090
L77380 72200
L77350 72260
L77330 72280
L77270 72310
L77210 72310
L77160 72280
L77130 72260
L77100 72200
L77070 72090
L77070 71950
L77100 71830
L77130 71780
L77160 71750
L77210 71720
" />
<path d="M77660 72310
L77660 71720
L77890 71720
L77940 71750
L77970 71780
L78000 71830
L78000 71920
L77970 71970
L77940 72000
L77890 72030
L77660 72030
" />
<path d="M78250 72310
L78250 71920
" />
<path d="M78250 71720
L78220 71750
L78250 71780
L78280 71750
L78250 71720
L78250 71780
" />
<path d="M78530 71920
L78530 72310
" />
<path d="M78530 71970
L78560 71950
L78620 71920
L78700 71920
L78760 71950
L78790 72000
L78790 72310
" />
<path d="M79040 72140
L79320 72140
" />
<path d="M78980 72310
L79180 71720
L79380 72310
" />
<path d="M79910 72310
L79710 72030
" />
<path d="M79570 72310
L79570 71720
L79800 71720
L79850 71750
L79880 71780
L79910 71830
L79910 71920
L79880 71970
L79850 72000
L79800 72030
L79570 72030
" />
<path d="M80160 72310
L80160 71720
L80360 72140
L80560 71720
L80560 72310
" />
<path d="M80810 72280
L80890 72310
L81030 72310
L81090 72280
L81120 72260
L81150 72200
L81150 72140
L81120 72090
L81090 72060
L81030 72030
L80920 72000
L80870 71970
L80840 71950
L80810 71890
L80810 71830
L80840 71780
L80870 71750
L80920 71720
L81060 71720
L81150 71750
" />
<path d="M81340 71720
L81480 72310
L81600 71890
L81710 72310
L81850 71720
" />
<path d="M82070 72310
L82070 71720
L82210 71720
L82300 71750
L82350 71810
L82380 71860
L82410 71970
L82410 72060
L82380 72170
L82350 72230
L82300 72280
L82210 72310
L82070 72310
" />
<path d="M83090 71690
L82580 72450
" />
</g>
<g style="fill:#840000; fill-opacity:0.0; 
stroke:#840000; stroke-width:100; stroke-opacity:1; 
stroke-linecap:round; stroke-linejoin:round;">
</g>
<g style="fill:#840000; fill-opacity:0.0; 
stroke:#840000; stroke-width:120; stroke-opacity:1; 
stroke-linecap:round; stroke-linejoin:round;">
<text x="70080" y="71160"
textLength="9190" font-size="780" lengthAdjust="spacingAndGlyphs"
text-anchor="start" opacity="0">Created by C Sutton</text>
<path d="M70630 71080
L70600 71100
L70520 71130
L70460 71130
L70380 71100
L70320 71050
L70290 70990
L70270 70880
L70270 70790
L70290 70680
L70320 70630
L70380 70570
L70460 70540
L70520 70540
L70600 70570
L70630 70600
" />
<path d="M70880 71130
L70880 70740
" />
<path d="M70880 70850
L70910 70790
L70940 70770
L71000 70740
L71050 70740
" />
<path d="M71470 71100
L71420 71130
L71300 71130
L71250 71100
L71220 71050
L71220 70820
L71250 70770
L71300 70740
L71420 70740
L71470 70770
L71500 70820
L71500 70880
L71220 70940
" />
<path d="M72010 71130
L72010 70820
L71980 70770
L71920 70740
L71810 70740
L71750 70770
" />
<path d="M72010 71100
L71950 71130
L71810 71130
L71750 71100
L71730 71050
L71730 70990
L71750 70940
L71810 70910
L71950 70910
L72010 70880
" />
<path d="M72200 70740
L72430 70740
" />
<path d="M72290 70540
L72290 71050
L72320 71100
L72370 71130
L72430 71130
" />
<path d="M72850 71100
L72790 71130
L72680 71130
L72630 71100
L72600 71050
L72600 70820
L72630 70770
L72680 70740
L72790 70740
L72850 70770
L72880 70820
L72880 70880
L72600 70940
" />
<path d="M73380 71130
L73380 70540
" />
<path d="M73380 71100
L73330 71130
L73220 71130
L73160 71100
L73130 71080
L73100 71020
L73100 70850
L73130 70790
L73160 70770
L73220 70740
L73330 70740
L73380 70770
" />
<path d="M74110 71130
L74110 70540
" />
<path d="M74110 70770
L74170 70740
L74280 70740
L74340 70770
L74370 70790
L74400 70850
L74400 71020
L74370 71080
L74340 71100
L74280 71130
L74170 71130
L74110 71100
" />
<path d="M74590 70740
L74730 71130
" />
<path d="M74870 70740
L74730 71130
L74680 71270
L74650 71300
L74590 71330
" />
<path d="M75880 71080
L75860 71100
L75770 71130
L75720 71130
L75630 71100
L75580 71050
L75550 70990
L75520 70880
L75520 70790
L75550 70680
L75580 70630
L75630 70570
L75720 70540
L75770 70540
L75860 70570
L75880 70600
" />
<path d="M76560 71100
L76640 71130
L76780 71130
L76840 71100
L76870 71080
L76900 71020
L76900 70960
L76870 70910
L76840 70880
L76780 70850
L76670 70820
L76610 70790
L76590 70770
L76560 70710
L76560 70650
L76590 70600
L76610 70570
L76670 70540
L76810 70540
L76900 70570
" />
<path d="M77400 70740
L77400 71130
" />
<path d="M77150 70740
L77150 71050
L77180 71100
L77230 71130
L77320 71130
L77370 71100
L77400 71080
" />
<path d="M77600 70740
L77820 70740
" />
<path d="M77680 70540
L77680 71050
L77710 71100
L77770 71130
L77820 71130
" />
<path d="M77940 70740
L78160 70740
" />
<path d="M78020 70540
L78020 71050
L78050 71100
L78100 71130
L78160 71130
" />
<path d="M78440 71130
L78380 71100
L78360 71080
L78330 71020
L78330 70850
L78360 70790
L78380 70770
L78440 70740
L78530 70740
L78580 70770
L78610 70790
L78640 70850
L78640 71020
L78610 71080
L78580 71100
L78530 71130
L78440 71130
" />
<path d="M78890 70740
L78890 71130
" />
<path d="M78890 70790
L78920 70770
L78970 70740
L79060 70740
L79120 70770
L79140 70820
L79140 71130
" />
</g>
<g style="fill:#840000; fill-opacity:0.0; 
stroke:#840000; stroke-width:100; stroke-opacity:1; 
stroke-linecap:round; stroke-linejoin:round;">
</g>
<g style="fill:#840000; fill-opacity:0.0; 
stroke:#840000; stroke-width:60; stroke-opacity:1; 
stroke-linecap:round; stroke-linejoin:round;">
<path d="M77560 75400
L77560 76580
" />
</g>
<g style="fill:#840000; fill-opacity:0.0; 
stroke:#840000; stroke-width:100; stroke-opacity:1; 
stroke-linecap:round; stroke-linejoin:round;">
</g>
<g style="fill:#840000; fill-opacity:0.0; 
stroke:#840000; stroke-width:60; stroke-opacity:1; 
stroke-linecap:round; stroke-linejoin:round;">
<path d="M102760 75400
L102760 77960
" />
</g>
<g style="fill:#840000; fill-opacity:0.0; 
stroke:#840000; stroke-width:0; stroke-opacity:1; 
stroke-linecap:round; stroke-linejoin:round;">
<g >
</g>
<g style="fill:#FFFFC2; fill-opacity:0.0; 
stroke:#FFFFC2; stroke-width:0; stroke-opacity:1; 
stroke-linecap:round; stroke-linejoin:round;">
</g>
<g style="fill:#FFFFC2; fill-opacity:0.6; 
stroke:#FFFFC2; stroke-width:0; stroke-opacity:1; 
stroke-linecap:round; stroke-linejoin:round;">
<rect x="58000" y="33000" width="2000" height="5000" rx="0" />
</g>
<g style="fill:#840000; fill-opacity:0.6; 
stroke:#840000; stroke-width:0; stroke-opacity:1; 
stroke-linecap:round; stroke-linejoin:round;">
</g>
<g style="fill:#840000; fill-opacity:0.0; 
stroke:#840000; stroke-width:100; stroke-opacity:1; 
stroke-linecap:round; stroke-linejoin:round;">
<rect x="58000" y="33000" width="2000" height="5000" rx="0" />
</g>
<g style="fill:#840000; fill-opacity:0.0; 
stroke:#840000; stroke-width:60; stroke-opacity:1; 
stroke-linecap:round; stroke-linejoin:round;">
<rect x="58000" y="37450" width="500" height="100" rx="0" />
<rect x="58000" y="36450" width="500" height="100" rx="0" />
<rect x="58000" y="34450" width="500" height="100" rx="0" />
<rect x="58000" y="33450" width="500" height="100" rx="0" />
</g>
<g style="fill:#840000; fill-opacity:0.0; 
stroke:#840000; stroke-width:100; stroke-opacity:1; 
stroke-linecap:round; stroke-linejoin:round;">
<rect x="58000" y="33000" width="2000" height="5000" rx="0" />
</g>
<g style="fill:#840000; fill-opacity:0.0; 
stroke:#840000; stroke-width:60; stroke-opacity:1; 
stroke-linecap:round; stroke-linejoin:round;">
<rect x="58000" y="35450" width="500" height="100" rx="0" />
<rect x="59500" y="37450" width="500" height="100" rx="0" />
<rect x="59500" y="36450" width="500" height="100" rx="0" />
<rect x="59500" y="34450" width="500" height="100" rx="0" />
<rect x="59500" y="33450" width="500" height="100" rx="0" />
<rect x="59500" y="35450" width="500" height="100" rx="0" />
<path d="M58000 33500
L56500 33500
" />
<text x="57250" y="33400"
textLength="630" font-size="660" lengthAdjust="spacingAndGlyphs"
text-anchor="middle" opacity="0">1</text>
<path d="M57390 33370
L57100 33370
" />
<path d="M57250 33370
L57250 32870
L57200 32940
L57150 32990
L57100 33010
" />
<path d="M60000 37500
L61500 37500
" />
<text x="60750" y="37400"
textLength="1010" font-size="660" lengthAdjust="spacingAndGlyphs"
text-anchor="middle" opacity="0">10</text>
<path d="M60650 37370
L60360 37370
" />
<path d="M60510 37370
L60510 36870
L60460 36940
L60410 36990
L60360 37010
" />
<path d="M60960 36870
L61010 36870
L61050 36900
L61080 36920
L61100 36970
L61130 37060
L61130 37180
L61100 37280
L61080 37320
L61050 37350
L61010 37370
L60960 37370
L60910 37350
L60890 37320
L60860 37280
L60840 37180
L60840 37060
L60860 36970
L60890 36920
L60910 36900
L60960 36870
" />
<path d="M60000 33500
L61500 33500
" />
<text x="60750" y="33400"
textLength="540" font-size="660" lengthAdjust="spacingAndGlyphs"
text-anchor="middle" opacity="0">2</text>
<path d="M60600 32920
L60630 32900
L60670 32870
L60790 32870
L60840 32900
L60860 32920
L60890 32970
L60890 33010
L60860 33090
L60580 33370
L60890 33370
" />
<path d="M58000 34500
L56500 34500
" />
<text x="57250" y="34400"
textLength="540" font-size="660" lengthAdjust="spacingAndGlyphs"
text-anchor="middle" opacity="0">3</text>
<path d="M57080 33870
L57390 33870
L57220 34060
L57290 34060
L57340 34090
L57360 34110
L57390 34160
L57390 34280
L57360 34320
L57340 34350
L57290 34370
L57150 34370
L57100 34350
L57080 34320
" />
<path d="M60000 34500
L61500 34500
" />
<text x="60750" y="34400"
textLength="540" font-size="660" lengthAdjust="spacingAndGlyphs"
text-anchor="middle" opacity="0">4</text>
<path d="M60840 34040
L60840 34370
" />
<path d="M60720 33850
L60600 34200
L60910 34200
" />
<path d="M58000 35500
L56500 35500
" />
<text x="57250" y="35400"
textLength="540" font-size="660" lengthAdjust="spacingAndGlyphs"
text-anchor="middle" opacity="0">5</text>
<path d="M57360 34870
L57130 34870
L57100 35110
L57130 35090
L57170 35060
L57290 35060
L57340 35090
L57360 35110
L57390 35160
L57390 35280
L57360 35320
L57340 35350
L57290 35370
L57170 35370
L57130 35350
L57100 35320
" />
<path d="M60000 35500
L61500 35500
" />
<text x="60750" y="35400"
textLength="540" font-size="660" lengthAdjust="spacingAndGlyphs"
text-anchor="middle" opacity="0">6</text>
<path d="M60840 34870
L60750 34870
L60700 34900
L60670 34920
L60630 34990
L60600 35090
L60600 35280
L60630 35320
L60650 35350
L60700 35370
L60790 35370
L60840 35350
L60860 35320
L60890 35280
L60890 35160
L60860 35110
L60840 35090
L60790 35060
L60700 35060
L60650 35090
L60630 35110
L60600 35160
" />
<path d="M58000 36500
L56500 36500
" />
<text x="57250" y="36400"
textLength="540" font-size="660" lengthAdjust="spacingAndGlyphs"
text-anchor="middle" opacity="0">7</text>
<path d="M57080 35870
L57410 35870
L57200 36370
" />
<path d="M60000 36500
L61500 36500
" />
<text x="60750" y="36400"
textLength="540" font-size="660" lengthAdjust="spacingAndGlyphs"
text-anchor="middle" opacity="0">8</text>
<path d="M60700 36090
L60650 36060
L60630 36040
L60600 35990
L60600 35970
L60630 35920
L60650 35900
L60700 35870
L60790 35870
L60840 35900
L60860 35920
L60890 35970
L60890 35990
L60860 36040
L60840 36060
L60790 36090
L60700 36090
L60650 36110
L60630 36130
L60600 36180
L60600 36280
L60630 36320
L60650 36350
L60700 36370
L60790 36370
L60840 36350
L60860 36320
L60890 36280
L60890 36180
L60860 36130
L60840 36110
L60790 36090
" />
<path d="M58000 37500
L56500 37500
" />
<text x="57250" y="37400"
textLength="540" font-size="660" lengthAdjust="spacingAndGlyphs"
text-anchor="middle" opacity="0">9</text>
<path d="M57150 37370
L57250 37370
L57290 37350
L57320 37320
L57360 37250
L57390 37160
L57390 36970
L57360 36920
L57340 36900
L57290 36870
L57200 36870
L57150 36900
L57130 36920
L57100 36970
L57100 37090
L57130 37130
L57150 37160
L57200 37180
L57290 37180
L57340 37160
L57360 37130
L57390 37090
" />
</g>
<g style="fill:#008484; fill-opacity:0.0; 
stroke:#008484; stroke-width:60; stroke-opacity:1; 
stroke-linecap:round; stroke-linejoin:round;">
<text x="59000" y="31600"
textLength="920" font-size="660" lengthAdjust="spacingAndGlyphs"
text-anchor="middle" opacity="0">J7</text>
<path d="M58830 31070
L58830 31430
L58800 31500
L58760 31550
L58690 31570
L58640 31570
" />
<path d="M59020 31070
L59350 31070
L59140 31570
" />
<text x="59000" y="32510"
textLength="8510" font-size="660" lengthAdjust="spacingAndGlyphs"
text-anchor="middle" opacity="0">Conn_02x05_Odd_Even</text>
<path d="M55170 32430
L55150 32460
L55080 32480
L55030 32480
L54960 32460
L54910 32410
L54890 32360
L54860 32270
L54860 32200
L54890 32100
L54910 32050
L54960 32010
L55030 31980
L55080 31980
L55150 32010
L55170 32030
" />
<path d="M55460 32480
L55410 32460
L55390 32430
L55360 32390
L55360 32240
L55390 32200
L55410 32170
L55460 32150
L55530 32150
L55580 32170
L55600 32200
L55630 32240
L55630 32390
L55600 32430
L55580 32460
L55530 32480
L55460 32480
" />
<path d="M55840 32150
L55840 32480
" />
<path d="M55840 32200
L55860 32170
L55910 32150
L55980 32150
L56030 32170
L56050 32220
L56050 32480
" />
<path d="M56290 32150
L56290 32480
" />
<path d="M56290 32200
L56320 32170
L56360 32150
L56440 32150
L56480 32170
L56510 32220
L56510 32480
" />
<path d="M56630 32530
L57010 32530
" />
<path d="M57220 31980
L57270 31980
L57320 32010
L57340 32030
L57360 32080
L57390 32170
L57390 32290
L57360 32390
L57340 32430
L57320 32460
L57270 32480
L57220 32480
L57170 32460
L57150 32430
L57130 32390
L57100 32290
L57100 32170
L57130 32080
L57150 32030
L57170 32010
L57220 31980
" />
<path d="M57580 32030
L57600 32010
L57650 31980
L57770 31980
L57820 32010
L57840 32030
L57860 32080
L57860 32120
L57840 32200
L57550 32480
L57860 32480
" />
<path d="M58030 32480
L58290 32150
" />
<path d="M58030 32150
L58290 32480
" />
<path d="M58580 31980
L58630 31980
L58670 32010
L58700 32030
L58720 32080
L58750 32170
L58750 32290
L58720 32390
L58700 32430
L58670 32460
L58630 32480
L58580 32480
L58530 32460
L58510 32430
L58480 32390
L58460 32290
L58460 32170
L58480 32080
L58510 32030
L58530 32010
L58580 31980
" />
<path d="M59200 31980
L58960 31980
L58940 32220
L58960 32200
L59010 32170
L59130 32170
L59170 32200
L59200 32220
L59220 32270
L59220 32390
L59200 32430
L59170 32460
L59130 32480
L59010 32480
L58960 32460
L58940 32430
" />
<path d="M59320 32530
L59700 32530
" />
<path d="M59910 31980
L60010 31980
L60050 32010
L60100 32050
L60130 32150
L60130 32310
L60100 32410
L60050 32460
L60010 32480
L59910 32480
L59860 32460
L59820 32410
L59790 32310
L59790 32150
L59820 32050
L59860 32010
L59910 31980
" />
<path d="M60550 32480
L60550 31980
" />
<path d="M60550 32460
L60510 32480
L60410 32480
L60360 32460
L60340 32430
L60320 32390
L60320 32240
L60340 32200
L60360 32170
L60410 32150
L60510 32150
L60550 32170
" />
<path d="M61010 32480
L61010 31980
" />
<path d="M61010 32460
L60960 32480
L60860 32480
L60820 32460
L60790 32430
L60770 32390
L60770 32240
L60790 32200
L60820 32170
L60860 32150
L60960 32150
L61010 32170
" />
<path d="M61130 32530
L61510 32530
" />
<path d="M61630 32220
L61790 32220
" />
<path d="M61860 32480
L61630 32480
L61630 31980
L61860 31980
" />
<path d="M62030 32150
L62150 32480
L62270 32150
" />
<path d="M62650 32460
L62600 32480
L62510 32480
L62460 32460
L62440 32410
L62440 32220
L62460 32170
L62510 32150
L62600 32150
L62650 32170
L62670 32220
L62670 32270
L62440 32310
" />
<path d="M62890 32150
L62890 32480
" />
<path d="M62890 32200
L62910 32170
L62960 32150
L63030 32150
L63080 32170
L63100 32220
L63100 32480
" />
</g>
</g>
<g style="fill:#008484; fill-opacity:0.0; 
stroke:#008484; stroke-width:0; stroke-opacity:1; 
stroke-linecap:round; stroke-linejoin:round;">
<g >
</g>
<g style="fill:#840000; fill-opacity:0.0; 
stroke:#840000; stroke-width:0; stroke-opacity:1; 
stroke-linecap:round; stroke-linejoin:round;">
</g>
<g style="fill:#840000; fill-opacity:0.0; 
stroke:#840000; stroke-width:60; stroke-opacity:1; 
stroke-linecap:round; stroke-linejoin:round;">
<path style="fill:#840000; fill-opacity:0.0; 
stroke:#840000; stroke-width:60; stroke-opacity:1; 
stroke-linecap:round; stroke-linejoin:round;fill:none"
d="M 49750,39000
49750,39500
50250,39500
49750,40000
49250,39500
49750,39500
" /> 
</g>
<g style="fill:#008484; fill-opacity:0.0; 
stroke:#008484; stroke-width:60; stroke-opacity:1; 
stroke-linecap:round; stroke-linejoin:round;">
<text x="49800" y="41000"
textLength="2060" font-size="660" lengthAdjust="spacingAndGlyphs"
text-anchor="middle" opacity="0">GNDS</text>
<path d="M49180 40500
L49130 40470
L49060 40470
L48990 40500
L48940 40540
L48910 40590
L48890 40690
L48890 40760
L48910 40850
L48940 40900
L48990 40950
L49060 40970
L49100 40970
L49180 40950
L49200 40920
L49200 40760
L49100 40760
" />
<path d="M49410 40970
L49410 40470
L49700 40970
L49700 40470
" />
<path d="M49940 40970
L49940 40470
L50060 40470
L50130 40500
L50180 40540
L50200 40590
L50220 40690
L50220 40760
L50200 40850
L50180 40900
L50130 40950
L50060 40970
L49940 40970
" />
<path d="M50410 40950
L50490 40970
L50600 40970
L50650 40950
L50680 40920
L50700 40880
L50700 40830
L50680 40780
L50650 40760
L50600 40730
L50510 40710
L50460 40690
L50440 40660
L50410 40610
L50410 40570
L50440 40520
L50460 40500
L50510 40470
L50630 40470
L50700 40500
" />
</g>
</g>
<g style="fill:#008484; fill-opacity:0.0; 
stroke:#008484; stroke-width:60; stroke-opacity:1; 
stroke-linecap:round; stroke-linejoin:round;">
</g>
<g style="fill:#008400; fill-opacity:0.0; 
stroke:#008400; stroke-width:60; stroke-opacity:1; 
stroke-linecap:round; stroke-linejoin:round;">
<path d="M56500 33500
L49750 33500
" />
<path d="M56500 34500
L49750 34500
" />
<path d="M49750 34500
L49750 35500
" />
<path d="M56500 35500
L49750 35500
" />
<path d="M49750 35500
L49750 37500
" />
<path d="M56500 37500
L49750 37500
" />
<path d="M49750 37500
L49750 39000
" />
<path d="M61500 33500
L66250 33500
" />
<path d="M61500 34500
L66250 34500
" />
<path d="M61500 35500
L66250 35500
" />
<path d="M61500 36500
L66250 36500
" />
<path d="M61500 37500
L66250 37500
" />
</g>
<g style="fill:#848400; fill-opacity:0.0; 
stroke:#848400; stroke-width:60; stroke-opacity:1; 
stroke-linecap:round; stroke-linejoin:round;">
<text x="49150" y="33750"
textLength="4060" font-size="660" lengthAdjust="spacingAndGlyphs"
text-anchor="end" opacity="0">VCC_VTREF</text>
<path d="M45160 33220
L45330 33720
L45500 33220
" />
<path d="M45950 33670
L45920 33700
L45850 33720
L45810 33720
L45730 33700
L45690 33650
L45660 33600
L45640 33510
L45640 33440
L45660 33340
L45690 33290
L45730 33250
L45810 33220
L45850 33220
L45920 33250
L45950 33270
" />
<path d="M46450 33670
L46420 33700
L46350 33720
L46310 33720
L46230 33700
L46190 33650
L46160 33600
L46140 33510
L46140 33440
L46160 33340
L46190 33290
L46230 33250
L46310 33220
L46350 33220
L46420 33250
L46450 33270
" />
<path d="M46540 33770
L46920 33770
" />
<path d="M46970 33220
L47140 33720
L47310 33220
" />
<path d="M47400 33220
L47690 33220
" />
<path d="M47540 33720
L47540 33220
" />
<path d="M48140 33720
L47970 33480
" />
<path d="M47850 33720
L47850 33220
L48040 33220
L48090 33250
L48120 33270
L48140 33320
L48140 33390
L48120 33440
L48090 33460
L48040 33480
L47850 33480
" />
<path d="M48350 33460
L48520 33460
" />
<path d="M48590 33720
L48350 33720
L48350 33220
L48590 33220
" />
<path d="M48970 33460
L48810 33460
" />
<path d="M48810 33720
L48810 33220
L49040 33220
" />
</g>
<g style="fill:#848400; fill-opacity:0.0; 
stroke:#848400; stroke-width:100; stroke-opacity:1; 
stroke-linecap:round; stroke-linejoin:round;">
<path style="fill:#848400; fill-opacity:0.0; 
stroke:#848400; stroke-width:100; stroke-opacity:1; 
stroke-linecap:round; stroke-linejoin:round;fill:none"
d="M 49750,33500
49500,33250
49250,33250
49250,33750
49500,33750
Z" /> 
</g>
<g style="fill:#848400; fill-opacity:0.0; 
stroke:#848400; stroke-width:60; stroke-opacity:1; 
stroke-linecap:round; stroke-linejoin:round;">
<text x="66850" y="33750"
textLength="4180" font-size="660" lengthAdjust="spacingAndGlyphs"
text-anchor="start" opacity="0">SWDIO_TMS</text>
<path d="M66970 33700
L67040 33720
L67160 33720
L67210 33700
L67230 33670
L67260 33630
L67260 33580
L67230 33530
L67210 33510
L67160 33480
L67070 33460
L67020 33440
L66990 33410
L66970 33360
L66970 33320
L66990 33270
L67020 33250
L67070 33220
L67180 33220
L67260 33250
" />
<path d="M67420 33220
L67540 33720
L67640 33360
L67730 33720
L67850 33220
" />
<path d="M68040 33720
L68040 33220
L68160 33220
L68230 33250
L68280 33290
L68300 33340
L68330 33440
L68330 33510
L68300 33600
L68280 33650
L68230 33700
L68160 33720
L68040 33720
" />
<path d="M68540 33720
L68540 33220
" />
<path d="M68880 33220
L68970 33220
L69020 33250
L69070 33290
L69090 33390
L69090 33550
L69070 33650
L69020 33700
L68970 33720
L68880 33720
L68830 33700
L68780 33650
L68760 33550
L68760 33390
L68780 33290
L68830 33250
L68880 33220
" />
<path d="M69180 33770
L69570 33770
" />
<path d="M69610 33220
L69900 33220
" />
<path d="M69760 33720
L69760 33220
" />
<path d="M70070 33720
L70070 33220
L70230 33580
L70400 33220
L70400 33720
" />
<path d="M70610 33700
L70680 33720
L70800 33720
L70850 33700
L70880 33670
L70900 33630
L70900 33580
L70880 33530
L70850 33510
L70800 33480
L70710 33460
L70660 33440
L70640 33410
L70610 33360
L70610 33320
L70640 33270
L70660 33250
L70710 33220
L70830 33220
L70900 33250
" />
</g>
<g style="fill:#848400; fill-opacity:0.0; 
stroke:#848400; stroke-width:100; stroke-opacity:1; 
stroke-linecap:round; stroke-linejoin:round;">
<path style="fill:#848400; fill-opacity:0.0; 
stroke:#848400; stroke-width:100; stroke-opacity:1; 
stroke-linecap:round; stroke-linejoin:round;fill:none"
d="M 66250,33500
66500,33750
66750,33750
66750,33250
66500,33250
Z" /> 
</g>
<g style="fill:#848400; fill-opacity:0.0; 
stroke:#848400; stroke-width:60; stroke-opacity:1; 
stroke-linecap:round; stroke-linejoin:round;">
<text x="66850" y="34750"
textLength="4770" font-size="660" lengthAdjust="spacingAndGlyphs"
text-anchor="start" opacity="0">SWDCLK_TCK</text>
<path d="M66970 34700
L67040 34720
L67160 34720
L67210 34700
L67230 34670
L67260 34630
L67260 34580
L67230 34530
L67210 34510
L67160 34480
L67070 34460
L67020 34440
L66990 34410
L66970 34360
L66970 34320
L66990 34270
L67020 34250
L67070 34220
L67180 34220
L67260 34250
" />
<path d="M67420 34220
L67540 34720
L67640 34360
L67730 34720
L67850 34220
" />
<path d="M68040 34720
L68040 34220
L68160 34220
L68230 34250
L68280 34290
L68300 34340
L68330 34440
L68330 34510
L68300 34600
L68280 34650
L68230 34700
L68160 34720
L68040 34720
" />
<path d="M68830 34670
L68800 34700
L68730 34720
L68680 34720
L68610 34700
L68570 34650
L68540 34600
L68520 34510
L68520 34440
L68540 34340
L68570 34290
L68610 34250
L68680 34220
L68730 34220
L68800 34250
L68830 34270
" />
<path d="M69280 34720
L69040 34720
L69040 34220
" />
<path d="M69450 34720
L69450 34220
" />
<path d="M69730 34720
L69520 34440
" />
<path d="M69730 34220
L69450 34510
" />
<path d="M69830 34770
L70210 34770
" />
<path d="M70260 34220
L70540 34220
" />
<path d="M70400 34720
L70400 34220
" />
<path d="M70990 34670
L70970 34700
L70900 34720
L70850 34720
L70780 34700
L70730 34650
L70710 34600
L70680 34510
L70680 34440
L70710 34340
L70730 34290
L70780 34250
L70850 34220
L70900 34220
L70970 34250
L70990 34270
" />
<path d="M71210 34720
L71210 34220
" />
<path d="M71490 34720
L71280 34440
" />
<path d="M71490 34220
L71210 34510
" />
</g>
<g style="fill:#848400; fill-opacity:0.0; 
stroke:#848400; stroke-width:100; stroke-opacity:1; 
stroke-linecap:round; stroke-linejoin:round;">
<path style="fill:#848400; fill-opacity:0.0; 
stroke:#848400; stroke-width:100; stroke-opacity:1; 
stroke-linecap:round; stroke-linejoin:round;fill:none"
d="M 66250,34500
66500,34750
66750,34750
66750,34250
66500,34250
Z" /> 
</g>
<g style="fill:#848400; fill-opacity:0.0; 
stroke:#848400; stroke-width:60; stroke-opacity:1; 
stroke-linecap:round; stroke-linejoin:round;">
<text x="66850" y="35750"
textLength="3420" font-size="660" lengthAdjust="spacingAndGlyphs"
text-anchor="start" opacity="0">SWO_TDO</text>
<path d="M66970 35700
L67040 35720
L67160 35720
L67210 35700
L67230 35670
L67260 35630
L67260 35580
L67230 35530
L67210 35510
L67160 35480
L67070 35460
L67020 35440
L66990 35410
L66970 35360
L66970 35320
L66990 35270
L67020 35250
L67070 35220
L67180 35220
L67260 35250
" />
<path d="M67420 35220
L67540 35720
L67640 35360
L67730 35720
L67850 35220
" />
<path d="M68140 35220
L68230 35220
L68280 35250
L68330 35290
L68350 35390
L68350 35550
L68330 35650
L68280 35700
L68230 35720
L68140 35720
L68090 35700
L68040 35650
L68020 35550
L68020 35390
L68040 35290
L68090 35250
L68140 35220
" />
<path d="M68450 35770
L68830 35770
" />
<path d="M68880 35220
L69160 35220
" />
<path d="M69020 35720
L69020 35220
" />
<path d="M69330 35720
L69330 35220
L69450 35220
L69520 35250
L69570 35290
L69590 35340
L69610 35440
L69610 35510
L69590 35600
L69570 35650
L69520 35700
L69450 35720
L69330 35720
" />
<path d="M69920 35220
L70020 35220
L70070 35250
L70110 35290
L70140 35390
L70140 35550
L70110 35650
L70070 35700
L70020 35720
L69920 35720
L69880 35700
L69830 35650
L69800 35550
L69800 35390
L69830 35290
L69880 35250
L69920 35220
" />
</g>
<g style="fill:#848400; fill-opacity:0.0; 
stroke:#848400; stroke-width:100; stroke-opacity:1; 
stroke-linecap:round; stroke-linejoin:round;">
<path style="fill:#848400; fill-opacity:0.0; 
stroke:#848400; stroke-width:100; stroke-opacity:1; 
stroke-linecap:round; stroke-linejoin:round;fill:none"
d="M 66250,35500
66500,35750
66750,35750
66750,35250
66500,35250
Z" /> 
</g>
<g style="fill:#848400; fill-opacity:0.0; 
stroke:#848400; stroke-width:60; stroke-opacity:1; 
stroke-linecap:round; stroke-linejoin:round;">
<text x="66850" y="36750"
textLength="2580" font-size="660" lengthAdjust="spacingAndGlyphs"
text-anchor="start" opacity="0">NC_TDI</text>
<path d="M66990 36720
L66990 36220
L67280 36720
L67280 36220
" />
<path d="M67800 36670
L67780 36700
L67710 36720
L67660 36720
L67590 36700
L67540 36650
L67520 36600
L67490 36510
L67490 36440
L67520 36340
L67540 36290
L67590 36250
L67660 36220
L67710 36220
L67780 36250
L67800 36270
" />
<path d="M67900 36770
L68280 36770
" />
<path d="M68330 36220
L68610 36220
" />
<path d="M68470 36720
L68470 36220
" />
<path d="M68780 36720
L68780 36220
L68900 36220
L68970 36250
L69020 36290
L69040 36340
L69070 36440
L69070 36510
L69040 36600
L69020 36650
L68970 36700
L68900 36720
L68780 36720
" />
<path d="M69280 36720
L69280 36220
" />
</g>
<g style="fill:#848400; fill-opacity:0.0; 
stroke:#848400; stroke-width:100; stroke-opacity:1; 
stroke-linecap:round; stroke-linejoin:round;">
<path style="fill:#848400; fill-opacity:0.0; 
stroke:#848400; stroke-width:100; stroke-opacity:1; 
stroke-linecap:round; stroke-linejoin:round;fill:none"
d="M 66250,36500
66500,36750
66750,36750
66750,36250
66500,36250
Z" /> 
</g>
<g style="fill:#848400; fill-opacity:0.0; 
stroke:#848400; stroke-width:60; stroke-opacity:1; 
stroke-linecap:round; stroke-linejoin:round;">
<text x="66850" y="37750"
textLength="5040" font-size="660" lengthAdjust="spacingAndGlyphs"
text-anchor="start" opacity="0">NRST_nRESET</text>
<path d="M66990 37720
L66990 37220
L67280 37720
L67280 37220
" />
<path d="M67800 37720
L67640 37480
" />
<path d="M67520 37720
L67520 37220
L67710 37220
L67760 37250
L67780 37270
L67800 37320
L67800 37390
L67780 37440
L67760 37460
L67710 37480
L67520 37480
" />
<path d="M67990 37700
L68070 37720
L68180 37720
L68230 37700
L68260 37670
L68280 37630
L68280 37580
L68260 37530
L68230 37510
L68180 37480
L68090 37460
L68040 37440
L68020 37410
L67990 37360
L67990 37320
L68020 37270
L68040 37250
L68090 37220
L68210 37220
L68280 37250
" />
<path d="M68420 37220
L68710 37220
" />
<path d="M68570 37720
L68570 37220
" />
<path d="M68760 37770
L69140 37770
" />
<path d="M69260 37390
L69260 37720
" />
<path d="M69260 37440
L69280 37410
L69330 37390
L69400 37390
L69450 37410
L69470 37460
L69470 37720
" />
<path d="M69990 37720
L69830 37480
" />
<path d="M69710 37720
L69710 37220
L69900 37220
L69950 37250
L69970 37270
L69990 37320
L69990 37390
L69970 37440
L69950 37460
L69900 37480
L69710 37480
" />
<path d="M70210 37460
L70380 37460
" />
<path d="M70450 37720
L70210 37720
L70210 37220
L70450 37220
" />
<path d="M70640 37700
L70710 37720
L70830 37720
L70880 37700
L70900 37670
L70920 37630
L70920 37580
L70900 37530
L70880 37510
L70830 37480
L70730 37460
L70680 37440
L70660 37410
L70640 37360
L70640 37320
L70660 37270
L70680 37250
L70730 37220
L70850 37220
L70920 37250
" />
<path d="M71140 37460
L71300 37460
" />
<path d="M71380 37720
L71140 37720
L71140 37220
L71380 37220
" />
<path d="M71520 37220
L71800 37220
" />
<path d="M71660 37720
L71660 37220
" />
</g>
<g style="fill:#848400; fill-opacity:0.0; 
stroke:#848400; stroke-width:100; stroke-opacity:1; 
stroke-linecap:round; stroke-linejoin:round;">
<path style="fill:#848400; fill-opacity:0.0; 
stroke:#848400; stroke-width:100; stroke-opacity:1; 
stroke-linecap:round; stroke-linejoin:round;fill:none"
d="M 66250,37500
66500,37750
66750,37750
66750,37250
66500,37250
Z" /> 
</g>
<g style="fill:#848400; fill-opacity:0.0; 
stroke:#848400; stroke-width:0; stroke-opacity:1; 
stroke-linecap:round; stroke-linejoin:round;">
</g>
<g style="fill:#008400; fill-opacity:0.0; 
stroke:#008400; stroke-width:0; stroke-opacity:1; 
stroke-linecap:round; stroke-linejoin:round;">
</g>
<g style="fill:#008400; fill-opacity:1.0; 
stroke:#008400; stroke-width:100; stroke-opacity:1; 
stroke-linecap:round; stroke-linejoin:round;">
<circle cx="49750" cy="35500" r="200" /> 
</g>
<g style="fill:#008400; fill-opacity:1.0; 
stroke:#008400; stroke-width:0; stroke-opacity:1; 
stroke-linecap:round; stroke-linejoin:round;">
</g>
<g style="fill:#008400; fill-opacity:1.0; 
stroke:#008400; stroke-width:100; stroke-opacity:1; 
stroke-linecap:round; stroke-linejoin:round;">
<circle cx="49750" cy="37500" r="200" /> 
</g>
<g style="fill:#008400; fill-opacity:1.0; 
stroke:#008400; stroke-width:60; stroke-opacity:1; 
stroke-linecap:round; stroke-linejoin:round;">
</g>
<g style="fill:#000084; fill-opacity:1.0; 
stroke:#000084; stroke-width:60; stroke-opacity:1; 
stroke-linecap:round; stroke-linejoin:round;">
</g>
<g style="fill:#000084; fill-opacity:0.0; 
stroke:#000084; stroke-width:60; stroke-opacity:1; 
stroke-linecap:round; stroke-linejoin:round;">
<path d="M56260 36260
L56740 36740
" />
<path d="M56740 36260
L56260 36740
" />
</g> 
</svg>
