<?xml version="1.0" standalone="no"?>
 <!DOCTYPE svg PUBLIC "-//W3C//DTD SVG 1.1//EN" 
 "http://www.w3.org/Graphics/SVG/1.1/DTD/svg11.dtd"> 
<svg
  xmlns:svg="http://www.w3.org/2000/svg"
  xmlns="http://www.w3.org/2000/svg"
  xmlns:xlink="http://www.w3.org/1999/xlink"
  version="1.1"
  width="29.700220cm" height="21.000720cm" viewBox="0 0 116930 82680">
<title>SVG Picture created as BassStation_Sequencer_MidiInterface-OLED_Display.svg date 2022/02/09 00:26:51 </title>
  <desc>Picture generated by Eeschema-SVG </desc>
<g style="fill:#000000; fill-opacity:1.000000;stroke:#000000; stroke-opacity:1.000000;
stroke-linecap:round; stroke-linejoin:round;"
 transform="translate(0 0) scale(1 1)">
</g>
<g style="fill:#840000; fill-opacity:0.0; 
stroke:#840000; stroke-width:0.000000; stroke-opacity:1; 
stroke-linecap:round; stroke-linejoin:round;">
</g>
<g style="fill:#840000; fill-opacity:0.0; 
stroke:#840000; stroke-width:60.000000; stroke-opacity:1; 
stroke-linecap:round; stroke-linejoin:round;">
<rect x="69685.905512" y="65357.165354" width="42519.685039" height="12598.425197" rx="0.000000" />
<rect x="3937.007874" y="3937.007874" width="109055.984252" height="74805.984252" rx="0.000000" />
<rect x="4724.409449" y="4724.409449" width="107481.181102" height="73231.181102" rx="0.000000" />
<path d="M23622 4724
L23622 3937
" />
<path d="M43307 4724
L43307 3937
" />
<path d="M62992 4724
L62992 3937
" />
<path d="M82677 4724
L82677 3937
" />
<path d="M102362 4724
L102362 3937
" />
<text x="13779.527559" y="4586.614173"
textLength="549.960630" font-size="682.401575" lengthAdjust="spacingAndGlyphs"
text-anchor="start" opacity="0">1</text>
<g class="stroked-text"><desc>1</desc>
<path d="M14199 4562
L13907 4562
" />
<path d="M14053 4562
L14053 4050
L14004 4123
L13955 4172
L13907 4196
" />
</g><text x="33464.566929" y="4586.614173"
textLength="547.440945" font-size="682.401575" lengthAdjust="spacingAndGlyphs"
text-anchor="start" opacity="0">2</text>
<g class="stroked-text"><desc>2</desc>
<path d="M33592 4099
L33616 4074
L33665 4050
L33787 4050
L33835 4074
L33860 4099
L33884 4147
L33884 4196
L33860 4269
L33567 4562
L33884 4562
" />
</g><text x="53149.606299" y="4586.614173"
textLength="547.440945" font-size="682.401575" lengthAdjust="spacingAndGlyphs"
text-anchor="start" opacity="0">3</text>
<g class="stroked-text"><desc>3</desc>
<path d="M53252 4050
L53569 4050
L53398 4245
L53472 4245
L53520 4269
L53545 4294
L53569 4342
L53569 4464
L53545 4513
L53520 4537
L53472 4562
L53325 4562
L53277 4537
L53252 4513
" />
</g><text x="72834.645669" y="4586.614173"
textLength="547.440945" font-size="682.401575" lengthAdjust="spacingAndGlyphs"
text-anchor="start" opacity="0">4</text>
<g class="stroked-text"><desc>4</desc>
<path d="M73205 4221
L73205 4562
" />
<path d="M73083 4026
L72962 4391
L73278 4391
" />
</g><text x="92519.685039" y="4586.614173"
textLength="547.440945" font-size="682.401575" lengthAdjust="spacingAndGlyphs"
text-anchor="start" opacity="0">5</text>
<g class="stroked-text"><desc>5</desc>
<path d="M92915 4050
L92671 4050
L92647 4294
L92671 4269
L92720 4245
L92842 4245
L92890 4269
L92915 4294
L92939 4342
L92939 4464
L92915 4513
L92890 4537
L92842 4562
L92720 4562
L92671 4537
L92647 4513
" />
</g><text x="112204.724409" y="4586.614173"
textLength="547.440945" font-size="682.401575" lengthAdjust="spacingAndGlyphs"
text-anchor="start" opacity="0">6</text>
<g class="stroked-text"><desc>6</desc>
<path d="M112575 4050
L112478 4050
L112429 4074
L112405 4099
L112356 4172
L112332 4269
L112332 4464
L112356 4513
L112380 4537
L112429 4562
L112527 4562
L112575 4537
L112600 4513
L112624 4464
L112624 4342
L112600 4294
L112575 4269
L112527 4245
L112429 4245
L112380 4269
L112356 4294
L112332 4342
" />
</g><path d="M23622 77955
L23622 78742
" />
<path d="M43307 77955
L43307 78742
" />
<path d="M62992 77955
L62992 78742
" />
<path d="M82677 77955
L82677 78742
" />
<path d="M102362 77955
L102362 78742
" />
<text x="13779.527559" y="78605.196850"
textLength="547.440945" font-size="682.401575" lengthAdjust="spacingAndGlyphs"
text-anchor="start" opacity="0">1</text>
<g class="stroked-text"><desc>1</desc>
<path d="M14199 78580
L13907 78580
" />
<path d="M14053 78580
L14053 78068
L14004 78142
L13955 78190
L13907 78215
" />
</g><text x="33464.566929" y="78605.196850"
textLength="547.440945" font-size="682.401575" lengthAdjust="spacingAndGlyphs"
text-anchor="start" opacity="0">2</text>
<g class="stroked-text"><desc>2</desc>
<path d="M33592 78117
L33616 78093
L33665 78068
L33787 78068
L33835 78093
L33860 78117
L33884 78166
L33884 78215
L33860 78288
L33567 78580
L33884 78580
" />
</g><text x="53149.606299" y="78605.196850"
textLength="547.440945" font-size="682.401575" lengthAdjust="spacingAndGlyphs"
text-anchor="start" opacity="0">3</text>
<g class="stroked-text"><desc>3</desc>
<path d="M53252 78068
L53569 78068
L53398 78263
L53472 78263
L53520 78288
L53545 78312
L53569 78361
L53569 78483
L53545 78532
L53520 78556
L53472 78580
L53325 78580
L53277 78556
L53252 78532
" />
</g><text x="72834.645669" y="78605.196850"
textLength="547.440945" font-size="682.401575" lengthAdjust="spacingAndGlyphs"
text-anchor="start" opacity="0">4</text>
<g class="stroked-text"><desc>4</desc>
<path d="M73205 78239
L73205 78580
" />
<path d="M73083 78044
L72962 78410
L73278 78410
" />
</g><text x="92519.685039" y="78605.196850"
textLength="547.440945" font-size="682.401575" lengthAdjust="spacingAndGlyphs"
text-anchor="start" opacity="0">5</text>
<g class="stroked-text"><desc>5</desc>
<path d="M92915 78068
L92671 78068
L92647 78312
L92671 78288
L92720 78263
L92842 78263
L92890 78288
L92915 78312
L92939 78361
L92939 78483
L92915 78532
L92890 78556
L92842 78580
L92720 78580
L92671 78556
L92647 78532
" />
</g><text x="112204.724409" y="78605.196850"
textLength="547.440945" font-size="682.401575" lengthAdjust="spacingAndGlyphs"
text-anchor="start" opacity="0">6</text>
<g class="stroked-text"><desc>6</desc>
<path d="M112575 78068
L112478 78068
L112429 78093
L112405 78117
L112356 78190
L112332 78288
L112332 78483
L112356 78532
L112380 78556
L112429 78580
L112527 78580
L112575 78556
L112600 78532
L112624 78483
L112624 78361
L112600 78312
L112575 78288
L112527 78263
L112429 78263
L112380 78288
L112356 78312
L112332 78361
" />
</g><path d="M3937 23622
L4724 23622
" />
<path d="M3937 43307
L4724 43307
" />
<path d="M3937 62992
L4724 62992
" />
<text x="4330.708661" y="14035.433071"
textLength="498.700787" font-size="682.401575" lengthAdjust="spacingAndGlyphs"
text-anchor="middle" opacity="0">A</text>
<g class="stroked-text"><desc>A</desc>
<path d="M4208 13864
L4452 13864
" />
<path d="M4160 14011
L4330 13499
L4501 14011
" />
</g><text x="4330.708661" y="33720.472441"
textLength="571.811024" font-size="682.401575" lengthAdjust="spacingAndGlyphs"
text-anchor="middle" opacity="0">B</text>
<g class="stroked-text"><desc>B</desc>
<path d="M4367 33427
L4440 33452
L4464 33476
L4489 33525
L4489 33598
L4464 33647
L4440 33671
L4391 33696
L4196 33696
L4196 33184
L4367 33184
L4415 33208
L4440 33233
L4464 33281
L4464 33330
L4440 33379
L4415 33403
L4367 33427
L4196 33427
" />
</g><text x="4330.708661" y="53405.511811"
textLength="571.811024" font-size="682.401575" lengthAdjust="spacingAndGlyphs"
text-anchor="middle" opacity="0">C</text>
<g class="stroked-text"><desc>C</desc>
<path d="M4489 53332
L4464 53356
L4391 53381
L4342 53381
L4269 53356
L4221 53307
L4196 53259
L4172 53161
L4172 53088
L4196 52991
L4221 52942
L4269 52893
L4342 52869
L4391 52869
L4464 52893
L4489 52918
" />
</g><text x="4330.708661" y="73090.551181"
textLength="571.811024" font-size="682.401575" lengthAdjust="spacingAndGlyphs"
text-anchor="middle" opacity="0">D</text>
<g class="stroked-text"><desc>D</desc>
<path d="M4196 73066
L4196 72554
L4318 72554
L4391 72578
L4440 72627
L4464 72676
L4489 72773
L4489 72846
L4464 72944
L4440 72993
L4391 73041
L4318 73066
L4196 73066
" />
</g><path d="M112992 23622
L112205 23622
" />
<path d="M112992 43307
L112205 43307
" />
<path d="M112992 62992
L112205 62992
" />
<text x="112599.291339" y="14035.433071"
textLength="498.700787" font-size="682.401575" lengthAdjust="spacingAndGlyphs"
text-anchor="middle" opacity="0">A</text>
<g class="stroked-text"><desc>A</desc>
<path d="M112477 13864
L112721 13864
" />
<path d="M112428 14011
L112599 13499
L112769 14011
" />
</g><text x="112599.291339" y="33720.472441"
textLength="571.811024" font-size="682.401575" lengthAdjust="spacingAndGlyphs"
text-anchor="middle" opacity="0">B</text>
<g class="stroked-text"><desc>B</desc>
<path d="M112635 33427
L112708 33452
L112733 33476
L112757 33525
L112757 33598
L112733 33647
L112708 33671
L112660 33696
L112465 33696
L112465 33184
L112635 33184
L112684 33208
L112708 33233
L112733 33281
L112733 33330
L112708 33379
L112684 33403
L112635 33427
L112465 33427
" />
</g><text x="112599.291339" y="53405.511811"
textLength="571.811024" font-size="682.401575" lengthAdjust="spacingAndGlyphs"
text-anchor="middle" opacity="0">C</text>
<g class="stroked-text"><desc>C</desc>
<path d="M112757 53332
L112733 53356
L112660 53381
L112611 53381
L112538 53356
L112489 53307
L112465 53259
L112440 53161
L112440 53088
L112465 52991
L112489 52942
L112538 52893
L112611 52869
L112660 52869
L112733 52893
L112757 52918
" />
</g><text x="112599.291339" y="73090.551181"
textLength="571.811024" font-size="682.401575" lengthAdjust="spacingAndGlyphs"
text-anchor="middle" opacity="0">D</text>
<g class="stroked-text"><desc>D</desc>
<path d="M112465 73066
L112465 72554
L112587 72554
L112660 72578
L112708 72627
L112733 72676
L112757 72773
L112757 72846
L112733 72944
L112708 72993
L112660 73041
L112587 73066
L112465 73066
" />
</g><text x="78741.023622" y="76321.732283"
textLength="8721.417323" font-size="787.401575" lengthAdjust="spacingAndGlyphs"
text-anchor="start" opacity="0">Date: 2021-06-05</text>
<g class="stroked-text"><desc>Date: 2021-06-05</desc>
<path d="M78911 76293
L78911 75703
L79052 75703
L79136 75731
L79192 75787
L79220 75843
L79249 75956
L79249 76040
L79220 76152
L79192 76209
L79136 76265
L79052 76293
L78911 76293
" />
<path d="M79755 76293
L79755 75984
L79727 75928
L79670 75899
L79558 75899
L79502 75928
" />
<path d="M79755 76265
L79699 76293
L79558 76293
L79502 76265
L79474 76209
L79474 76152
L79502 76096
L79558 76068
L79699 76068
L79755 76040
" />
<path d="M79952 75899
L80177 75899
" />
<path d="M80036 75703
L80036 76209
L80064 76265
L80120 76293
L80177 76293
" />
<path d="M80598 76265
L80542 76293
L80430 76293
L80373 76265
L80345 76209
L80345 75984
L80373 75928
L80430 75899
L80542 75899
L80598 75928
L80627 75984
L80627 76040
L80345 76096
" />
<path d="M80880 76237
L80908 76265
L80880 76293
L80852 76265
L80880 76237
L80880 76293
" />
<path d="M80880 75928
L80908 75956
L80880 75984
L80852 75956
L80880 75928
L80880 75984
" />
<path d="M81583 75759
L81611 75731
L81667 75703
L81808 75703
L81864 75731
L81892 75759
L81920 75815
L81920 75871
L81892 75956
L81555 76293
L81920 76293
" />
<path d="M82286 75703
L82342 75703
L82398 75731
L82426 75759
L82454 75815
L82483 75928
L82483 76068
L82454 76181
L82426 76237
L82398 76265
L82342 76293
L82286 76293
L82229 76265
L82201 76237
L82173 76181
L82145 76068
L82145 75928
L82173 75815
L82201 75759
L82229 75731
L82286 75703
" />
<path d="M82708 75759
L82736 75731
L82792 75703
L82932 75703
L82989 75731
L83017 75759
L83045 75815
L83045 75871
L83017 75956
L82679 76293
L83045 76293
" />
<path d="M83607 76293
L83270 76293
" />
<path d="M83439 76293
L83439 75703
L83382 75787
L83326 75843
L83270 75871
" />
<path d="M83860 76068
L84310 76068
" />
<path d="M84704 75703
L84760 75703
L84817 75731
L84845 75759
L84873 75815
L84901 75928
L84901 76068
L84873 76181
L84845 76237
L84817 76265
L84760 76293
L84704 76293
L84648 76265
L84620 76237
L84592 76181
L84564 76068
L84564 75928
L84592 75815
L84620 75759
L84648 75731
L84704 75703
" />
<path d="M85407 75703
L85295 75703
L85238 75731
L85210 75759
L85154 75843
L85126 75956
L85126 76181
L85154 76237
L85182 76265
L85238 76293
L85351 76293
L85407 76265
L85435 76237
L85463 76181
L85463 76040
L85435 75984
L85407 75956
L85351 75928
L85238 75928
L85182 75956
L85154 75984
L85126 76040
" />
<path d="M85717 76068
L86166 76068
" />
<path d="M86560 75703
L86616 75703
L86673 75731
L86701 75759
L86729 75815
L86757 75928
L86757 76068
L86729 76181
L86701 76237
L86673 76265
L86616 76293
L86560 76293
L86504 76265
L86476 76237
L86448 76181
L86420 76068
L86420 75928
L86448 75815
L86476 75759
L86504 75731
L86560 75703
" />
<path d="M87291 75703
L87010 75703
L86982 75984
L87010 75956
L87066 75928
L87207 75928
L87263 75956
L87291 75984
L87319 76040
L87319 76181
L87291 76237
L87263 76265
L87207 76293
L87066 76293
L87010 76265
L86982 76237
" />
</g><path d="M69685 76577
L112205 76577
" />
<text x="70079.606299" y="77424.094488"
textLength="26550.433071" font-size="787.401575" lengthAdjust="spacingAndGlyphs"
text-anchor="start" opacity="0">KiCad E.D.A.  kicad 6.0.1-79c1e3a40b~116~ubuntu20.04.1</text>
<g class="stroked-text"><desc>KiCad E.D.A.  kicad 6.0.1-79c1e3a40b~116~ubuntu20.04.1</desc>
<path d="M70250 77395
L70250 76805
" />
<path d="M70587 77395
L70334 77058
" />
<path d="M70587 76805
L70250 77142
" />
<path d="M70840 77395
L70840 77002
" />
<path d="M70840 76805
L70812 76833
L70840 76861
L70868 76833
L70840 76805
L70840 76861
" />
<path d="M71459 77339
L71431 77367
L71346 77395
L71290 77395
L71206 77367
L71150 77311
L71121 77255
L71093 77142
L71093 77058
L71121 76946
L71150 76889
L71206 76833
L71290 76805
L71346 76805
L71431 76833
L71459 76861
" />
<path d="M71965 77395
L71965 77086
L71937 77030
L71881 77002
L71768 77002
L71712 77030
" />
<path d="M71965 77367
L71909 77395
L71768 77395
L71712 77367
L71684 77311
L71684 77255
L71712 77199
L71768 77170
L71909 77170
L71965 77142
" />
<path d="M72499 77395
L72499 76805
" />
<path d="M72499 77367
L72443 77395
L72331 77395
L72274 77367
L72246 77339
L72218 77283
L72218 77114
L72246 77058
L72274 77030
L72331 77002
L72443 77002
L72499 77030
" />
<path d="M73231 77086
L73427 77086
" />
<path d="M73512 77395
L73231 77395
L73231 76805
L73512 76805
" />
<path d="M73765 77339
L73793 77367
L73765 77395
L73737 77367
L73765 77339
L73765 77395
" />
<path d="M74046 77395
L74046 76805
L74187 76805
L74271 76833
L74327 76889
L74355 76946
L74384 77058
L74384 77142
L74355 77255
L74327 77311
L74271 77367
L74187 77395
L74046 77395
" />
<path d="M74637 77339
L74665 77367
L74637 77395
L74609 77367
L74637 77339
L74637 77395
" />
<path d="M74890 77227
L75171 77227
" />
<path d="M74834 77395
L75030 76805
L75227 77395
" />
<path d="M75424 77339
L75452 77367
L75424 77395
L75396 77367
L75424 77339
L75424 77395
" />
<path d="M76605 77395
L76605 76805
" />
<path d="M76661 77170
L76830 77395
" />
<path d="M76830 77002
L76605 77227
" />
<path d="M77083 77395
L77083 77002
" />
<path d="M77083 76805
L77055 76833
L77083 76861
L77111 76833
L77083 76805
L77083 76861
" />
<path d="M77618 77367
L77561 77395
L77449 77395
L77393 77367
L77364 77339
L77336 77283
L77336 77114
L77364 77058
L77393 77030
L77449 77002
L77561 77002
L77618 77030
" />
<path d="M78124 77395
L78124 77086
L78096 77030
L78039 77002
L77927 77002
L77871 77030
" />
<path d="M78124 77367
L78067 77395
L77927 77395
L77871 77367
L77842 77311
L77842 77255
L77871 77199
L77927 77170
L78067 77170
L78124 77142
" />
<path d="M78658 77395
L78658 76805
" />
<path d="M78658 77367
L78602 77395
L78489 77395
L78433 77367
L78405 77339
L78377 77283
L78377 77114
L78405 77058
L78433 77030
L78489 77002
L78602 77002
L78658 77030
" />
<path d="M79642 76805
L79530 76805
L79474 76833
L79445 76861
L79389 76946
L79361 77058
L79361 77283
L79389 77339
L79417 77367
L79474 77395
L79586 77395
L79642 77367
L79670 77339
L79699 77283
L79699 77142
L79670 77086
L79642 77058
L79586 77030
L79474 77030
L79417 77058
L79389 77086
L79361 77142
" />
<path d="M79952 77339
L79980 77367
L79952 77395
L79923 77367
L79952 77339
L79952 77395
" />
<path d="M80345 76805
L80402 76805
L80458 76833
L80486 76861
L80514 76917
L80542 77030
L80542 77170
L80514 77283
L80486 77339
L80458 77367
L80402 77395
L80345 77395
L80289 77367
L80261 77339
L80233 77283
L80205 77170
L80205 77030
L80233 76917
L80261 76861
L80289 76833
L80345 76805
" />
<path d="M80795 77339
L80823 77367
L80795 77395
L80767 77367
L80795 77339
L80795 77395
" />
<path d="M81386 77395
L81048 77395
" />
<path d="M81217 77395
L81217 76805
L81161 76889
L81105 76946
L81048 76974
" />
<path d="M81639 77170
L82089 77170
" />
<path d="M82314 76805
L82708 76805
L82454 77395
" />
<path d="M82961 77395
L83073 77395
L83129 77367
L83157 77339
L83214 77255
L83242 77142
L83242 76917
L83214 76861
L83186 76833
L83129 76805
L83017 76805
L82961 76833
L82932 76861
L82904 76917
L82904 77058
L82932 77114
L82961 77142
L83017 77170
L83129 77170
L83186 77142
L83214 77114
L83242 77058
" />
<path d="M83748 77367
L83692 77395
L83579 77395
L83523 77367
L83495 77339
L83467 77283
L83467 77114
L83495 77058
L83523 77030
L83579 77002
L83692 77002
L83748 77030
" />
<path d="M84310 77395
L83973 77395
" />
<path d="M84142 77395
L84142 76805
L84085 76889
L84029 76946
L83973 76974
" />
<path d="M84789 77367
L84732 77395
L84620 77395
L84564 77367
L84535 77311
L84535 77086
L84564 77030
L84620 77002
L84732 77002
L84789 77030
L84817 77086
L84817 77142
L84535 77199
" />
<path d="M85013 76805
L85379 76805
L85182 77030
L85267 77030
L85323 77058
L85351 77086
L85379 77142
L85379 77283
L85351 77339
L85323 77367
L85267 77395
L85098 77395
L85042 77367
L85013 77339
" />
<path d="M85885 77395
L85885 77086
L85857 77030
L85801 77002
L85688 77002
L85632 77030
" />
<path d="M85885 77367
L85829 77395
L85688 77395
L85632 77367
L85604 77311
L85604 77255
L85632 77199
L85688 77170
L85829 77170
L85885 77142
" />
<path d="M86420 77002
L86420 77395
" />
<path d="M86279 76777
L86138 77199
L86504 77199
" />
<path d="M86841 76805
L86898 76805
L86954 76833
L86982 76861
L87010 76917
L87038 77030
L87038 77170
L87010 77283
L86982 77339
L86954 77367
L86898 77395
L86841 77395
L86785 77367
L86757 77339
L86729 77283
L86701 77170
L86701 77030
L86729 76917
L86757 76861
L86785 76833
L86841 76805
" />
<path d="M87291 77395
L87291 76805
" />
<path d="M87291 77030
L87348 77002
L87460 77002
L87516 77030
L87544 77058
L87573 77114
L87573 77283
L87544 77339
L87516 77367
L87460 77395
L87348 77395
L87291 77367
" />
<path d="M87741 77170
L87769 77142
L87826 77114
L87938 77170
L87994 77142
L88022 77114
" />
<path d="M88557 77395
L88219 77395
" />
<path d="M88388 77395
L88388 76805
L88332 76889
L88276 76946
L88219 76974
" />
<path d="M89119 77395
L88782 77395
" />
<path d="M88950 77395
L88950 76805
L88894 76889
L88838 76946
L88782 76974
" />
<path d="M89625 76805
L89513 76805
L89457 76833
L89429 76861
L89372 76946
L89344 77058
L89344 77283
L89372 77339
L89400 77367
L89457 77395
L89569 77395
L89625 77367
L89654 77339
L89682 77283
L89682 77142
L89654 77086
L89625 77058
L89569 77030
L89457 77030
L89400 77058
L89372 77086
L89344 77142
" />
<path d="M89850 77170
L89878 77142
L89935 77114
L90047 77170
L90103 77142
L90132 77114
" />
<path d="M90610 77002
L90610 77395
" />
<path d="M90357 77002
L90357 77311
L90385 77367
L90441 77395
L90525 77395
L90582 77367
L90610 77339
" />
<path d="M90891 77395
L90891 76805
" />
<path d="M90891 77030
L90947 77002
L91060 77002
L91116 77030
L91144 77058
L91172 77114
L91172 77283
L91144 77339
L91116 77367
L91060 77395
L90947 77395
L90891 77367
" />
<path d="M91678 77002
L91678 77395
" />
<path d="M91425 77002
L91425 77311
L91453 77367
L91510 77395
L91594 77395
L91650 77367
L91678 77339
" />
<path d="M91959 77002
L91959 77395
" />
<path d="M91959 77058
L91988 77030
L92044 77002
L92128 77002
L92184 77030
L92213 77086
L92213 77395
" />
<path d="M92409 77002
L92634 77002
" />
<path d="M92494 76805
L92494 77311
L92522 77367
L92578 77395
L92634 77395
" />
<path d="M93084 77002
L93084 77395
" />
<path d="M92831 77002
L92831 77311
L92859 77367
L92916 77395
L93000 77395
L93056 77367
L93084 77339
" />
<path d="M93337 76861
L93366 76833
L93422 76805
L93562 76805
L93619 76833
L93647 76861
L93675 76917
L93675 76974
L93647 77058
L93309 77395
L93675 77395
" />
<path d="M94040 76805
L94097 76805
L94153 76833
L94181 76861
L94209 76917
L94237 77030
L94237 77170
L94209 77283
L94181 77339
L94153 77367
L94097 77395
L94040 77395
L93984 77367
L93956 77339
L93928 77283
L93900 77170
L93900 77030
L93928 76917
L93956 76861
L93984 76833
L94040 76805
" />
<path d="M94490 77339
L94519 77367
L94490 77395
L94462 77367
L94490 77339
L94490 77395
" />
<path d="M94884 76805
L94940 76805
L94997 76833
L95025 76861
L95053 76917
L95081 77030
L95081 77170
L95053 77283
L95025 77339
L94997 77367
L94940 77395
L94884 77395
L94828 77367
L94800 77339
L94772 77283
L94744 77170
L94744 77030
L94772 76917
L94800 76861
L94828 76833
L94884 76805
" />
<path d="M95587 77002
L95587 77395
" />
<path d="M95447 76777
L95306 77199
L95672 77199
" />
<path d="M95896 77339
L95925 77367
L95896 77395
L95868 77367
L95896 77339
L95896 77395
" />
<path d="M96487 77395
L96150 77395
" />
<path d="M96318 77395
L96318 76805
L96262 76889
L96206 76946
L96150 76974
" />
</g><path d="M69685 75396
L112205 75396
" />
</g>
<g style="fill:#840000; fill-opacity:0.0; 
stroke:#840000; stroke-width:118.110236; stroke-opacity:1; 
stroke-linecap:round; stroke-linejoin:round;">
<text x="103544.173228" y="76321.732283"
textLength="2928.385827" font-size="787.401575" lengthAdjust="spacingAndGlyphs"
text-anchor="start" opacity="0">Rev: B</text>
<g class="stroked-text"><desc>Rev: B</desc>
<path d="M104098 76293
L103902 76012
" />
<path d="M103761 76293
L103761 75703
L103986 75703
L104042 75731
L104070 75759
L104098 75815
L104098 75899
L104070 75956
L104042 75984
L103986 76012
L103761 76012
" />
<path d="M104577 76265
L104520 76293
L104408 76293
L104352 76265
L104323 76209
L104323 75984
L104352 75928
L104408 75899
L104520 75899
L104577 75928
L104605 75984
L104605 76040
L104323 76096
" />
<path d="M104802 75899
L104942 76293
L105083 75899
" />
<path d="M105308 76237
L105336 76265
L105308 76293
L105280 76265
L105308 76237
L105308 76293
" />
<path d="M105308 75928
L105336 75956
L105308 75984
L105280 75956
L105308 75928
L105308 75984
" />
<path d="M106236 75984
L106320 76012
L106348 76040
L106376 76096
L106376 76181
L106348 76237
L106320 76265
L106264 76293
L106039 76293
L106039 75703
L106236 75703
L106292 75731
L106320 75759
L106348 75815
L106348 75871
L106320 75928
L106292 75956
L106236 75984
L106039 75984
" />
</g></g>
<g style="fill:#840000; fill-opacity:0.0; 
stroke:#840000; stroke-width:60.000000; stroke-opacity:1; 
stroke-linecap:round; stroke-linejoin:round;">
<text x="70079.606299" y="76321.732283"
textLength="3781.220472" font-size="787.401575" lengthAdjust="spacingAndGlyphs"
text-anchor="start" opacity="0">Size: A4</text>
<g class="stroked-text"><desc>Size: A4</desc>
<path d="M70222 76265
L70306 76293
L70447 76293
L70503 76265
L70531 76237
L70559 76181
L70559 76124
L70531 76068
L70503 76040
L70447 76012
L70334 75984
L70278 75956
L70250 75928
L70222 75871
L70222 75815
L70250 75759
L70278 75731
L70334 75703
L70475 75703
L70559 75731
" />
<path d="M70812 76293
L70812 75899
" />
<path d="M70812 75703
L70784 75731
L70812 75759
L70840 75731
L70812 75703
L70812 75759
" />
<path d="M71037 75899
L71346 75899
L71037 76293
L71346 76293
" />
<path d="M71796 76265
L71740 76293
L71628 76293
L71571 76265
L71543 76209
L71543 75984
L71571 75928
L71628 75899
L71740 75899
L71796 75928
L71825 75984
L71825 76040
L71543 76096
" />
<path d="M72078 76237
L72106 76265
L72078 76293
L72049 76265
L72078 76237
L72078 76293
" />
<path d="M72078 75928
L72106 75956
L72078 75984
L72049 75956
L72078 75928
L72078 75984
" />
<path d="M72781 76124
L73062 76124
" />
<path d="M72724 76293
L72921 75703
L73118 76293
" />
<path d="M73568 75899
L73568 76293
" />
<path d="M73427 75674
L73287 76096
L73652 76096
" />
</g><text x="103544.173228" y="77424.094488"
textLength="4475.078740" font-size="787.401575" lengthAdjust="spacingAndGlyphs"
text-anchor="start" opacity="0">Id: 41/46</text>
<g class="stroked-text"><desc>Id: 41/46</desc>
<path d="M103714 77395
L103714 76805
" />
<path d="M104249 77395
L104249 76805
" />
<path d="M104249 77367
L104192 77395
L104080 77395
L104024 77367
L103995 77339
L103967 77283
L103967 77114
L103995 77058
L104024 77030
L104080 77002
L104192 77002
L104249 77030
" />
<path d="M104530 77339
L104558 77367
L104530 77395
L104502 77367
L104530 77339
L104530 77395
" />
<path d="M104530 77030
L104558 77058
L104530 77086
L104502 77058
L104530 77030
L104530 77086
" />
<path d="M105514 77002
L105514 77395
" />
<path d="M105373 76777
L105233 77199
L105598 77199
" />
<path d="M106133 77395
L105795 77395
" />
<path d="M105964 77395
L105964 76805
L105908 76889
L105852 76946
L105795 76974
" />
<path d="M106808 76777
L106301 77536
" />
<path d="M107258 77002
L107258 77395
" />
<path d="M107117 76777
L106976 77199
L107342 77199
" />
<path d="M107820 76805
L107708 76805
L107651 76833
L107623 76861
L107567 76946
L107539 77058
L107539 77283
L107567 77339
L107595 77367
L107651 77395
L107764 77395
L107820 77367
L107848 77339
L107876 77283
L107876 77142
L107848 77086
L107820 77058
L107764 77030
L107651 77030
L107595 77058
L107567 77086
L107539 77142
" />
</g><path d="M69685 73821
L112205 73821
" />
</g>
<g style="fill:#840000; fill-opacity:0.0; 
stroke:#840000; stroke-width:157.480315; stroke-opacity:1; 
stroke-linecap:round; stroke-linejoin:round;">
<text x="70079.606299" y="74924.094488"
textLength="25940.236220" font-size="1049.842520" lengthAdjust="spacingAndGlyphs"
text-anchor="start" opacity="0">Title: 2.42" SSD1309 OLED DIsplay Module</text>
<g class="stroked-text"><desc>Title: 2.42" SSD1309 OLED DIsplay Module</desc>
<path d="M70360 74099
L70810 74099
" />
<path d="M70486 74886
L70585 74099
" />
<path d="M70974 74886
L71039 74361
" />
<path d="M71072 74099
L71030 74136
L71063 74174
L71105 74136
L71072 74099
L71063 74174
" />
<path d="M71302 74361
L71602 74361
" />
<path d="M71447 74099
L71363 74774
L71391 74849
L71461 74886
L71536 74886
" />
<path d="M71911 74886
L71841 74849
L71812 74774
L71897 74099
" />
<path d="M72516 74849
L72436 74886
L72286 74886
L72216 74849
L72187 74774
L72225 74474
L72272 74399
L72352 74361
L72501 74361
L72572 74399
L72600 74474
L72591 74549
L72206 74624
" />
<path d="M72895 74811
L72928 74849
L72886 74886
L72853 74849
L72895 74811
L72886 74886
" />
<path d="M72947 74399
L72980 74436
L72937 74474
L72905 74436
L72947 74399
L72937 74474
" />
<path d="M73912 74174
L73954 74136
L74034 74099
L74222 74099
L74292 74136
L74325 74174
L74353 74249
L74343 74324
L74292 74436
L73786 74886
L74273 74886
" />
<path d="M74620 74811
L74653 74849
L74611 74886
L74578 74849
L74620 74811
L74611 74886
" />
<path d="M75389 74361
L75323 74886
" />
<path d="M75239 74061
L74981 74624
L75468 74624
" />
<path d="M75787 74174
L75829 74136
L75909 74099
L76096 74099
L76167 74136
L76199 74174
L76228 74249
L76218 74324
L76167 74436
L75660 74886
L76148 74886
" />
<path d="M76546 74099
L76528 74249
" />
<path d="M76846 74099
L76827 74249
" />
<path d="M77652 74849
L77760 74886
L77948 74886
L78027 74849
L78070 74811
L78116 74736
L78126 74661
L78098 74586
L78065 74549
L77995 74511
L77849 74474
L77779 74436
L77746 74399
L77718 74324
L77727 74249
L77774 74174
L77816 74136
L77896 74099
L78084 74099
L78191 74136
" />
<path d="M78402 74849
L78510 74886
L78698 74886
L78777 74849
L78819 74811
L78866 74736
L78876 74661
L78848 74586
L78815 74549
L78744 74511
L78599 74474
L78529 74436
L78496 74399
L78468 74324
L78477 74249
L78524 74174
L78566 74136
L78646 74099
L78833 74099
L78941 74136
" />
<path d="M79185 74886
L79283 74099
L79471 74099
L79579 74136
L79644 74211
L79672 74286
L79691 74436
L79677 74549
L79621 74699
L79574 74774
L79490 74849
L79372 74886
L79185 74886
" />
<path d="M80385 74886
L79935 74886
" />
<path d="M80160 74886
L80258 74099
L80169 74211
L80085 74286
L80005 74324
" />
<path d="M80746 74099
L81233 74099
L80933 74399
L81046 74399
L81116 74436
L81149 74474
L81177 74549
L81154 74736
L81107 74811
L81064 74849
L80985 74886
L80760 74886
L80690 74849
L80657 74811
" />
<path d="M81721 74099
L81796 74099
L81866 74136
L81899 74174
L81927 74249
L81946 74399
L81922 74586
L81866 74736
L81819 74811
L81777 74849
L81697 74886
L81622 74886
L81552 74849
L81519 74811
L81491 74736
L81472 74586
L81496 74399
L81552 74249
L81599 74174
L81641 74136
L81721 74099
" />
<path d="M82260 74886
L82410 74886
L82489 74849
L82531 74811
L82621 74699
L82677 74549
L82714 74249
L82686 74174
L82653 74136
L82583 74099
L82433 74099
L82353 74136
L82311 74174
L82264 74249
L82241 74436
L82269 74511
L82302 74549
L82372 74586
L82522 74586
L82602 74549
L82644 74511
L82691 74436
" />
<path d="M83820 74099
L83970 74099
L84041 74136
L84106 74211
L84125 74361
L84092 74624
L84036 74774
L83952 74849
L83872 74886
L83722 74886
L83652 74849
L83586 74774
L83567 74624
L83600 74361
L83656 74211
L83741 74136
L83820 74099
" />
<path d="M84772 74886
L84397 74886
L84495 74099
" />
<path d="M85086 74474
L85348 74474
" />
<path d="M85409 74886
L85034 74886
L85133 74099
L85508 74099
" />
<path d="M85747 74886
L85845 74099
L86033 74099
L86140 74136
L86206 74211
L86234 74286
L86253 74436
L86239 74549
L86183 74699
L86136 74774
L86051 74849
L85934 74886
L85747 74886
" />
<path d="M87134 74886
L87232 74099
L87420 74099
L87528 74136
L87593 74211
L87621 74286
L87640 74436
L87626 74549
L87570 74699
L87523 74774
L87439 74849
L87322 74886
L87134 74886
" />
<path d="M87921 74886
L88020 74099
" />
<path d="M88264 74849
L88334 74886
L88484 74886
L88564 74849
L88610 74774
L88615 74736
L88587 74661
L88517 74624
L88404 74624
L88334 74586
L88306 74511
L88310 74474
L88357 74399
L88437 74361
L88549 74361
L88620 74399
" />
<path d="M88999 74361
L88901 75149
" />
<path d="M88995 74399
L89074 74361
L89224 74361
L89295 74399
L89327 74436
L89356 74511
L89327 74736
L89281 74811
L89238 74849
L89159 74886
L89009 74886
L88938 74849
" />
<path d="M89759 74886
L89688 74849
L89660 74774
L89745 74099
" />
<path d="M90396 74886
L90448 74474
L90420 74399
L90349 74361
L90199 74361
L90120 74399
" />
<path d="M90401 74849
L90321 74886
L90134 74886
L90063 74849
L90035 74774
L90045 74699
L90091 74624
L90171 74586
L90359 74586
L90438 74549
" />
<path d="M90762 74361
L90884 74886
" />
<path d="M91137 74361
L90884 74886
L90785 75074
L90743 75111
L90663 75149
" />
<path d="M91971 74886
L92069 74099
L92262 74661
L92594 74099
L92496 74886
" />
<path d="M92983 74886
L92913 74849
L92880 74811
L92852 74736
L92880 74511
L92927 74436
L92969 74399
L93049 74361
L93161 74361
L93232 74399
L93265 74436
L93293 74511
L93265 74736
L93218 74811
L93175 74849
L93096 74886
L92983 74886
" />
<path d="M93921 74886
L94019 74099
" />
<path d="M93925 74849
L93846 74886
L93696 74886
L93625 74849
L93593 74811
L93564 74736
L93593 74511
L93639 74436
L93682 74399
L93761 74361
L93911 74361
L93982 74399
" />
<path d="M94699 74361
L94633 74886
" />
<path d="M94361 74361
L94310 74774
L94338 74849
L94408 74886
L94521 74886
L94600 74849
L94642 74811
" />
<path d="M95121 74886
L95050 74849
L95022 74774
L95106 74099
" />
<path d="M95725 74849
L95645 74886
L95495 74886
L95425 74849
L95397 74774
L95435 74474
L95481 74399
L95561 74361
L95711 74361
L95781 74399
L95810 74474
L95800 74549
L95416 74624
" />
</g></g>
<g style="fill:#840000; fill-opacity:0.0; 
stroke:#840000; stroke-width:60.000000; stroke-opacity:1; 
stroke-linecap:round; stroke-linejoin:round;">
<text x="70079.606299" y="73408.346457"
textLength="12971.889764" font-size="787.401575" lengthAdjust="spacingAndGlyphs"
text-anchor="start" opacity="0">File: OLED_Display.kicad_sch</text>
<g class="stroked-text"><desc>File: OLED_Display.kicad_sch</desc>
<path d="M70447 73070
L70250 73070
" />
<path d="M70250 73380
L70250 72789
L70531 72789
" />
<path d="M70756 73380
L70756 72986
" />
<path d="M70756 72789
L70728 72817
L70756 72845
L70784 72817
L70756 72789
L70756 72845
" />
<path d="M71121 73380
L71065 73352
L71037 73295
L71037 72789
" />
<path d="M71571 73352
L71515 73380
L71403 73380
L71346 73352
L71318 73295
L71318 73070
L71346 73014
L71403 72986
L71515 72986
L71571 73014
L71600 73070
L71600 73127
L71318 73183
" />
<path d="M71853 73323
L71881 73352
L71853 73380
L71825 73352
L71853 73323
L71853 73380
" />
<path d="M71853 73014
L71881 73042
L71853 73070
L71825 73042
L71853 73014
L71853 73070
" />
<path d="M72696 72789
L72809 72789
L72865 72817
L72921 72874
L72949 72986
L72949 73183
L72921 73295
L72865 73352
L72809 73380
L72696 73380
L72640 73352
L72584 73295
L72556 73183
L72556 72986
L72584 72874
L72640 72817
L72696 72789
" />
<path d="M73484 73380
L73202 73380
L73202 72789
" />
<path d="M73681 73070
L73877 73070
" />
<path d="M73962 73380
L73681 73380
L73681 72789
L73962 72789
" />
<path d="M74215 73380
L74215 72789
L74355 72789
L74440 72817
L74496 72874
L74524 72930
L74552 73042
L74552 73127
L74524 73239
L74496 73295
L74440 73352
L74355 73380
L74215 73380
" />
<path d="M74665 73436
L75115 73436
" />
<path d="M75255 73380
L75255 72789
L75396 72789
L75480 72817
L75537 72874
L75565 72930
L75593 73042
L75593 73127
L75565 73239
L75537 73295
L75480 73352
L75396 73380
L75255 73380
" />
<path d="M75846 73380
L75846 72986
" />
<path d="M75846 72789
L75818 72817
L75846 72845
L75874 72817
L75846 72789
L75846 72845
" />
<path d="M76099 73352
L76155 73380
L76268 73380
L76324 73352
L76352 73295
L76352 73267
L76324 73211
L76268 73183
L76183 73183
L76127 73155
L76099 73098
L76099 73070
L76127 73014
L76183 72986
L76268 72986
L76324 73014
" />
<path d="M76605 72986
L76605 73577
" />
<path d="M76605 73014
L76661 72986
L76774 72986
L76830 73014
L76858 73042
L76886 73098
L76886 73267
L76858 73323
L76830 73352
L76774 73380
L76661 73380
L76605 73352
" />
<path d="M77224 73380
L77168 73352
L77139 73295
L77139 72789
" />
<path d="M77702 73380
L77702 73070
L77674 73014
L77618 72986
L77505 72986
L77449 73014
" />
<path d="M77702 73352
L77646 73380
L77505 73380
L77449 73352
L77421 73295
L77421 73239
L77449 73183
L77505 73155
L77646 73155
L77702 73127
" />
<path d="M77927 72986
L78067 73380
" />
<path d="M78208 72986
L78067 73380
L78011 73520
L77983 73548
L77927 73577
" />
<path d="M78433 73323
L78461 73352
L78433 73380
L78405 73352
L78433 73323
L78433 73380
" />
<path d="M78714 73380
L78714 72789
" />
<path d="M78771 73155
L78939 73380
" />
<path d="M78939 72986
L78714 73211
" />
<path d="M79192 73380
L79192 72986
" />
<path d="M79192 72789
L79164 72817
L79192 72845
L79220 72817
L79192 72789
L79192 72845
" />
<path d="M79727 73352
L79670 73380
L79558 73380
L79502 73352
L79474 73323
L79445 73267
L79445 73098
L79474 73042
L79502 73014
L79558 72986
L79670 72986
L79727 73014
" />
<path d="M80233 73380
L80233 73070
L80205 73014
L80148 72986
L80036 72986
L79980 73014
" />
<path d="M80233 73352
L80177 73380
L80036 73380
L79980 73352
L79952 73295
L79952 73239
L79980 73183
L80036 73155
L80177 73155
L80233 73127
" />
<path d="M80767 73380
L80767 72789
" />
<path d="M80767 73352
L80711 73380
L80598 73380
L80542 73352
L80514 73323
L80486 73267
L80486 73098
L80514 73042
L80542 73014
L80598 72986
L80711 72986
L80767 73014
" />
<path d="M80908 73436
L81358 73436
" />
<path d="M81470 73352
L81526 73380
L81639 73380
L81695 73352
L81723 73295
L81723 73267
L81695 73211
L81639 73183
L81555 73183
L81498 73155
L81470 73098
L81470 73070
L81498 73014
L81555 72986
L81639 72986
L81695 73014
" />
<path d="M82229 73352
L82173 73380
L82061 73380
L82004 73352
L81976 73323
L81948 73267
L81948 73098
L81976 73042
L82004 73014
L82061 72986
L82173 72986
L82229 73014
" />
<path d="M82483 73380
L82483 72789
" />
<path d="M82736 73380
L82736 73070
L82708 73014
L82651 72986
L82567 72986
L82511 73014
L82483 73042
" />
</g><path d="M69685 71459
L112205 71459
" />
<text x="70079.606299" y="72345.354331"
textLength="10324.330709" font-size="787.401575" lengthAdjust="spacingAndGlyphs"
text-anchor="start" opacity="0">Sheet: /OLED_Display/</text>
<g class="stroked-text"><desc>Sheet: /OLED_Display/</desc>
<path d="M70222 72289
L70306 72317
L70447 72317
L70503 72289
L70531 72260
L70559 72204
L70559 72148
L70531 72092
L70503 72064
L70447 72035
L70334 72007
L70278 71979
L70250 71951
L70222 71895
L70222 71839
L70250 71782
L70278 71754
L70334 71726
L70475 71726
L70559 71754
" />
<path d="M70812 72317
L70812 71726
" />
<path d="M71065 72317
L71065 72007
L71037 71951
L70981 71923
L70897 71923
L70840 71951
L70812 71979
" />
<path d="M71571 72289
L71515 72317
L71403 72317
L71346 72289
L71318 72232
L71318 72007
L71346 71951
L71403 71923
L71515 71923
L71571 71951
L71600 72007
L71600 72064
L71318 72120
" />
<path d="M72078 72289
L72021 72317
L71909 72317
L71853 72289
L71825 72232
L71825 72007
L71853 71951
L71909 71923
L72021 71923
L72078 71951
L72106 72007
L72106 72064
L71825 72120
" />
<path d="M72274 71923
L72499 71923
" />
<path d="M72359 71726
L72359 72232
L72387 72289
L72443 72317
L72499 72317
" />
<path d="M72696 72260
L72724 72289
L72696 72317
L72668 72289
L72696 72260
L72696 72317
" />
<path d="M72696 71951
L72724 71979
L72696 72007
L72668 71979
L72696 71951
L72696 72007
" />
<path d="M73849 71698
L73343 72457
" />
<path d="M74159 71726
L74271 71726
L74327 71754
L74384 71811
L74412 71923
L74412 72120
L74384 72232
L74327 72289
L74271 72317
L74159 72317
L74102 72289
L74046 72232
L74018 72120
L74018 71923
L74046 71811
L74102 71754
L74159 71726
" />
<path d="M74946 72317
L74665 72317
L74665 71726
" />
<path d="M75143 72007
L75340 72007
" />
<path d="M75424 72317
L75143 72317
L75143 71726
L75424 71726
" />
<path d="M75677 72317
L75677 71726
L75818 71726
L75902 71754
L75958 71811
L75986 71867
L76015 71979
L76015 72064
L75986 72176
L75958 72232
L75902 72289
L75818 72317
L75677 72317
" />
<path d="M76127 72373
L76577 72373
" />
<path d="M76718 72317
L76718 71726
L76858 71726
L76943 71754
L76999 71811
L77027 71867
L77055 71979
L77055 72064
L77027 72176
L76999 72232
L76943 72289
L76858 72317
L76718 72317
" />
<path d="M77308 72317
L77308 71923
" />
<path d="M77308 71726
L77280 71754
L77308 71782
L77336 71754
L77308 71726
L77308 71782
" />
<path d="M77561 72289
L77618 72317
L77730 72317
L77786 72289
L77814 72232
L77814 72204
L77786 72148
L77730 72120
L77646 72120
L77589 72092
L77561 72035
L77561 72007
L77589 71951
L77646 71923
L77730 71923
L77786 71951
" />
<path d="M78067 71923
L78067 72514
" />
<path d="M78067 71951
L78124 71923
L78236 71923
L78292 71951
L78321 71979
L78349 72035
L78349 72204
L78321 72260
L78292 72289
L78236 72317
L78124 72317
L78067 72289
" />
<path d="M78686 72317
L78630 72289
L78602 72232
L78602 71726
" />
<path d="M79164 72317
L79164 72007
L79136 71951
L79080 71923
L78967 71923
L78911 71951
" />
<path d="M79164 72289
L79108 72317
L78967 72317
L78911 72289
L78883 72232
L78883 72176
L78911 72120
L78967 72092
L79108 72092
L79164 72064
" />
<path d="M79389 71923
L79530 72317
" />
<path d="M79670 71923
L79530 72317
L79474 72457
L79445 72485
L79389 72514
" />
<path d="M80317 71698
L79811 72457
" />
</g></g>
<g style="fill:#840000; fill-opacity:0.0; 
stroke:#840000; stroke-width:118.110236; stroke-opacity:1; 
stroke-linecap:round; stroke-linejoin:round;">
<text x="70079.606299" y="71164.251969"
textLength="9199.488189" font-size="787.401575" lengthAdjust="spacingAndGlyphs"
text-anchor="start" opacity="0">Created by C Sutton</text>
<g class="stroked-text"><desc>Created by C Sutton</desc>
<path d="M70634 71079
L70606 71107
L70521 71136
L70465 71136
L70381 71107
L70325 71051
L70296 70995
L70268 70883
L70268 70798
L70296 70686
L70325 70629
L70381 70573
L70465 70545
L70521 70545
L70606 70573
L70634 70601
" />
<path d="M70887 71136
L70887 70742
" />
<path d="M70887 70854
L70915 70798
L70943 70770
L71000 70742
L71056 70742
" />
<path d="M71478 71107
L71421 71136
L71309 71136
L71253 71107
L71224 71051
L71224 70826
L71253 70770
L71309 70742
L71421 70742
L71478 70770
L71506 70826
L71506 70883
L71224 70939
" />
<path d="M72012 71136
L72012 70826
L71984 70770
L71928 70742
L71815 70742
L71759 70770
" />
<path d="M72012 71107
L71956 71136
L71815 71136
L71759 71107
L71731 71051
L71731 70995
L71759 70939
L71815 70911
L71956 70911
L72012 70883
" />
<path d="M72209 70742
L72434 70742
" />
<path d="M72293 70545
L72293 71051
L72321 71107
L72377 71136
L72434 71136
" />
<path d="M72856 71107
L72799 71136
L72687 71136
L72631 71107
L72602 71051
L72602 70826
L72631 70770
L72687 70742
L72799 70742
L72856 70770
L72884 70826
L72884 70883
L72602 70939
" />
<path d="M73390 71136
L73390 70545
" />
<path d="M73390 71107
L73334 71136
L73221 71136
L73165 71107
L73137 71079
L73109 71023
L73109 70854
L73137 70798
L73165 70770
L73221 70742
L73334 70742
L73390 70770
" />
<path d="M74121 71136
L74121 70545
" />
<path d="M74121 70770
L74177 70742
L74290 70742
L74346 70770
L74374 70798
L74402 70854
L74402 71023
L74374 71079
L74346 71107
L74290 71136
L74177 71136
L74121 71107
" />
<path d="M74599 70742
L74740 71136
" />
<path d="M74880 70742
L74740 71136
L74683 71276
L74655 71304
L74599 71332
" />
<path d="M75893 71079
L75865 71107
L75780 71136
L75724 71136
L75640 71107
L75583 71051
L75555 70995
L75527 70883
L75527 70798
L75555 70686
L75583 70629
L75640 70573
L75724 70545
L75780 70545
L75865 70573
L75893 70601
" />
<path d="M76568 71107
L76652 71136
L76793 71136
L76849 71107
L76877 71079
L76905 71023
L76905 70967
L76877 70911
L76849 70883
L76793 70854
L76680 70826
L76624 70798
L76596 70770
L76568 70714
L76568 70658
L76596 70601
L76624 70573
L76680 70545
L76821 70545
L76905 70573
" />
<path d="M77411 70742
L77411 71136
" />
<path d="M77158 70742
L77158 71051
L77186 71107
L77242 71136
L77327 71136
L77383 71107
L77411 71079
" />
<path d="M77608 70742
L77833 70742
" />
<path d="M77692 70545
L77692 71051
L77721 71107
L77777 71136
L77833 71136
" />
<path d="M77946 70742
L78170 70742
" />
<path d="M78030 70545
L78030 71051
L78058 71107
L78114 71136
L78170 71136
" />
<path d="M78452 71136
L78395 71107
L78367 71079
L78339 71023
L78339 70854
L78367 70798
L78395 70770
L78452 70742
L78536 70742
L78592 70770
L78620 70798
L78649 70854
L78649 71023
L78620 71079
L78592 71107
L78536 71136
L78452 71136
" />
<path d="M78902 70742
L78902 71136
" />
<path d="M78902 70798
L78930 70770
L78986 70742
L79070 70742
L79127 70770
L79155 70826
L79155 71136
" />
</g></g>
<g style="fill:#840000; fill-opacity:0.0; 
stroke:#840000; stroke-width:60.000000; stroke-opacity:1; 
stroke-linecap:round; stroke-linejoin:round;">
<text x="70079.606299" y="69983.149606"
textLength="153.543307" font-size="787.401575" lengthAdjust="spacingAndGlyphs"
text-anchor="start" opacity="0"></text>
<g class="stroked-text"><desc></desc>
</g><text x="70079.606299" y="68802.047244"
textLength="60.000000" font-size="787.401575" lengthAdjust="spacingAndGlyphs"
text-anchor="start" opacity="0"></text>
<g class="stroked-text"><desc></desc>
</g><text x="70079.606299" y="67620.944882"
textLength="60.000000" font-size="787.401575" lengthAdjust="spacingAndGlyphs"
text-anchor="start" opacity="0"></text>
<g class="stroked-text"><desc></desc>
</g><text x="70079.606299" y="66439.842520"
textLength="60.000000" font-size="787.401575" lengthAdjust="spacingAndGlyphs"
text-anchor="start" opacity="0"></text>
<g class="stroked-text"><desc></desc>
</g><path d="M77559 75396
L77559 76577
" />
<path d="M102756 75396
L102756 77955
" />
<g >
</g>
<g style="fill:#FFFFC2; fill-opacity:0.0; 
stroke:#FFFFC2; stroke-width:60.000000; stroke-opacity:1; 
stroke-linecap:round; stroke-linejoin:round;">
</g>
<g style="fill:#FFFFC2; fill-opacity:0.6; 
stroke:#FFFFC2; stroke-width:0.039370; stroke-opacity:1; 
stroke-linecap:round; stroke-linejoin:round;">
<rect x="61500.000000" y="31500.000000" width="1000.000000" height="7000.000000" rx="0.000000" />
</g>
<g style="fill:#840000; fill-opacity:0.6; 
stroke:#840000; stroke-width:0.039370; stroke-opacity:1; 
stroke-linecap:round; stroke-linejoin:round;">
</g>
<g style="fill:#840000; fill-opacity:0.0; 
stroke:#840000; stroke-width:100.000000; stroke-opacity:1; 
stroke-linecap:round; stroke-linejoin:round;">
<rect x="61500.000000" y="31500.000000" width="1000.000000" height="7000.000000" rx="0.000000" />
</g>
<g style="fill:#840000; fill-opacity:0.0; 
stroke:#840000; stroke-width:60.000000; stroke-opacity:1; 
stroke-linecap:round; stroke-linejoin:round;">
<rect x="61500.000000" y="31950.000000" width="500.000000" height="100.000000" rx="0.000000" />
<rect x="61500.000000" y="32950.000000" width="500.000000" height="100.000000" rx="0.000000" />
<rect x="61500.000000" y="33950.000000" width="500.000000" height="100.000000" rx="0.000000" />
<rect x="61500.000000" y="34950.000000" width="500.000000" height="100.000000" rx="0.000000" />
<rect x="61500.000000" y="35950.000000" width="500.000000" height="100.000000" rx="0.000000" />
<rect x="61500.000000" y="36950.000000" width="500.000000" height="100.000000" rx="0.000000" />
<rect x="61500.000000" y="37950.000000" width="500.000000" height="100.000000" rx="0.000000" />
</g>
<g style="fill:#840000; fill-opacity:0.0; 
stroke:#840000; stroke-width:100.000000; stroke-opacity:1; 
stroke-linecap:round; stroke-linejoin:round;">
<rect x="61500.000000" y="31500.000000" width="1000.000000" height="7000.000000" rx="0.000000" />
</g>
<g style="fill:#840000; fill-opacity:0.0; 
stroke:#840000; stroke-width:60.000000; stroke-opacity:1; 
stroke-linecap:round; stroke-linejoin:round;">
<path d="M61500 38000
L60000 38000
" />
</g>
<g style="fill:#A90000; fill-opacity:0.0; 
stroke:#A90000; stroke-width:60.000000; stroke-opacity:1; 
stroke-linecap:round; stroke-linejoin:round;">
<text x="60750.000000" y="37900.000000"
textLength="536.181102" font-size="666.653543" lengthAdjust="spacingAndGlyphs"
text-anchor="middle" opacity="0">1</text>
<g class="stroked-text"><desc>1</desc>
<path d="M60892 37876
L60607 37876
" />
<path d="M60750 37876
L60750 37376
L60702 37447
L60654 37495
L60607 37519
" />
</g></g>
<g style="fill:#840000; fill-opacity:0.0; 
stroke:#840000; stroke-width:60.000000; stroke-opacity:1; 
stroke-linecap:round; stroke-linejoin:round;">
<path d="M61500 37000
L60000 37000
" />
</g>
<g style="fill:#A90000; fill-opacity:0.0; 
stroke:#A90000; stroke-width:60.000000; stroke-opacity:1; 
stroke-linecap:round; stroke-linejoin:round;">
<text x="60750.000000" y="36900.000000"
textLength="536.181102" font-size="666.653543" lengthAdjust="spacingAndGlyphs"
text-anchor="middle" opacity="0">2</text>
<g class="stroked-text"><desc>2</desc>
<path d="M60607 36423
L60630 36400
L60678 36376
L60797 36376
L60845 36400
L60869 36423
L60892 36471
L60892 36519
L60869 36590
L60583 36876
L60892 36876
" />
</g></g>
<g style="fill:#840000; fill-opacity:0.0; 
stroke:#840000; stroke-width:60.000000; stroke-opacity:1; 
stroke-linecap:round; stroke-linejoin:round;">
<path d="M61500 36000
L60000 36000
" />
</g>
<g style="fill:#A90000; fill-opacity:0.0; 
stroke:#A90000; stroke-width:60.000000; stroke-opacity:1; 
stroke-linecap:round; stroke-linejoin:round;">
<text x="60750.000000" y="35900.000000"
textLength="536.181102" font-size="666.653543" lengthAdjust="spacingAndGlyphs"
text-anchor="middle" opacity="0">3</text>
<g class="stroked-text"><desc>3</desc>
<path d="M60583 35376
L60892 35376
L60726 35566
L60797 35566
L60845 35590
L60869 35614
L60892 35661
L60892 35780
L60869 35828
L60845 35852
L60797 35876
L60654 35876
L60607 35852
L60583 35828
" />
</g></g>
<g style="fill:#840000; fill-opacity:0.0; 
stroke:#840000; stroke-width:60.000000; stroke-opacity:1; 
stroke-linecap:round; stroke-linejoin:round;">
<path d="M61500 35000
L60000 35000
" />
</g>
<g style="fill:#A90000; fill-opacity:0.0; 
stroke:#A90000; stroke-width:60.000000; stroke-opacity:1; 
stroke-linecap:round; stroke-linejoin:round;">
<text x="60750.000000" y="34900.000000"
textLength="536.181102" font-size="666.653543" lengthAdjust="spacingAndGlyphs"
text-anchor="middle" opacity="0">4</text>
<g class="stroked-text"><desc>4</desc>
<path d="M60845 34542
L60845 34876
" />
<path d="M60726 34352
L60607 34709
L60916 34709
" />
</g></g>
<g style="fill:#840000; fill-opacity:0.0; 
stroke:#840000; stroke-width:60.000000; stroke-opacity:1; 
stroke-linecap:round; stroke-linejoin:round;">
<path d="M61500 34000
L60000 34000
" />
</g>
<g style="fill:#A90000; fill-opacity:0.0; 
stroke:#A90000; stroke-width:60.000000; stroke-opacity:1; 
stroke-linecap:round; stroke-linejoin:round;">
<text x="60750.000000" y="33900.000000"
textLength="536.181102" font-size="666.653543" lengthAdjust="spacingAndGlyphs"
text-anchor="middle" opacity="0">5</text>
<g class="stroked-text"><desc>5</desc>
<path d="M60869 33376
L60630 33376
L60607 33614
L60630 33590
L60678 33566
L60797 33566
L60845 33590
L60869 33614
L60892 33661
L60892 33780
L60869 33828
L60845 33852
L60797 33876
L60678 33876
L60630 33852
L60607 33828
" />
</g></g>
<g style="fill:#840000; fill-opacity:0.0; 
stroke:#840000; stroke-width:60.000000; stroke-opacity:1; 
stroke-linecap:round; stroke-linejoin:round;">
<path d="M61500 33000
L60000 33000
" />
</g>
<g style="fill:#A90000; fill-opacity:0.0; 
stroke:#A90000; stroke-width:60.000000; stroke-opacity:1; 
stroke-linecap:round; stroke-linejoin:round;">
<text x="60750.000000" y="32900.000000"
textLength="536.181102" font-size="666.653543" lengthAdjust="spacingAndGlyphs"
text-anchor="middle" opacity="0">6</text>
<g class="stroked-text"><desc>6</desc>
<path d="M60845 32376
L60750 32376
L60702 32400
L60678 32423
L60630 32495
L60607 32590
L60607 32780
L60630 32828
L60654 32852
L60702 32876
L60797 32876
L60845 32852
L60869 32828
L60892 32780
L60892 32661
L60869 32614
L60845 32590
L60797 32566
L60702 32566
L60654 32590
L60630 32614
L60607 32661
" />
</g></g>
<g style="fill:#840000; fill-opacity:0.0; 
stroke:#840000; stroke-width:60.000000; stroke-opacity:1; 
stroke-linecap:round; stroke-linejoin:round;">
<path d="M61500 32000
L60000 32000
" />
</g>
<g style="fill:#A90000; fill-opacity:0.0; 
stroke:#A90000; stroke-width:60.000000; stroke-opacity:1; 
stroke-linecap:round; stroke-linejoin:round;">
<text x="60750.000000" y="31900.000000"
textLength="536.181102" font-size="666.653543" lengthAdjust="spacingAndGlyphs"
text-anchor="middle" opacity="0">7</text>
<g class="stroked-text"><desc>7</desc>
<path d="M60583 31376
L60916 31376
L60702 31876
" />
</g></g>
<g style="fill:#006464; fill-opacity:0.0; 
stroke:#006464; stroke-width:60.000000; stroke-opacity:1; 
stroke-linecap:round; stroke-linejoin:round;">
<text x="61180.000000" y="29999.960630"
textLength="917.125984" font-size="666.653543" lengthAdjust="spacingAndGlyphs"
text-anchor="middle" opacity="0">J8</text>
<g class="stroked-text"><desc>J8</desc>
<path d="M61013 29476
L61013 29833
L60989 29904
L60941 29952
L60870 29976
L60822 29976
" />
<path d="M61322 29690
L61275 29666
L61251 29642
L61227 29595
L61227 29571
L61251 29523
L61275 29499
L61322 29476
L61418 29476
L61465 29499
L61489 29523
L61513 29571
L61513 29595
L61489 29642
L61465 29666
L61418 29690
L61322 29690
L61275 29714
L61251 29738
L61227 29785
L61227 29880
L61251 29928
L61275 29952
L61322 29976
L61418 29976
L61465 29952
L61489 29928
L61513 29880
L61513 29785
L61489 29738
L61465 29714
L61418 29690
" />
</g><text x="61180.000000" y="30909.960630"
textLength="4607.637795" font-size="666.653543" lengthAdjust="spacingAndGlyphs"
text-anchor="middle" opacity="0">Conn_01x07</text>
<g class="stroked-text"><desc>Conn_01x07</desc>
<path d="M59310 30838
L59287 30862
L59215 30886
L59168 30886
L59096 30862
L59049 30814
L59025 30767
L59001 30671
L59001 30600
L59025 30505
L59049 30457
L59096 30409
L59168 30386
L59215 30386
L59287 30409
L59310 30433
" />
<path d="M59596 30886
L59549 30862
L59525 30838
L59501 30790
L59501 30648
L59525 30600
L59549 30576
L59596 30552
L59668 30552
L59715 30576
L59739 30600
L59763 30648
L59763 30790
L59739 30838
L59715 30862
L59668 30886
L59596 30886
" />
<path d="M59977 30552
L59977 30886
" />
<path d="M59977 30600
L60001 30576
L60049 30552
L60120 30552
L60168 30576
L60191 30624
L60191 30886
" />
<path d="M60430 30552
L60430 30886
" />
<path d="M60430 30600
L60453 30576
L60501 30552
L60572 30552
L60620 30576
L60644 30624
L60644 30886
" />
<path d="M60763 30933
L61144 30933
" />
<path d="M61358 30386
L61406 30386
L61453 30409
L61477 30433
L61501 30481
L61525 30576
L61525 30695
L61501 30790
L61477 30838
L61453 30862
L61406 30886
L61358 30886
L61310 30862
L61287 30838
L61263 30790
L61239 30695
L61239 30576
L61263 30481
L61287 30433
L61310 30409
L61358 30386
" />
<path d="M62001 30886
L61715 30886
" />
<path d="M61858 30886
L61858 30386
L61810 30457
L61763 30505
L61715 30528
" />
<path d="M62168 30886
L62430 30552
" />
<path d="M62168 30552
L62430 30886
" />
<path d="M62715 30386
L62763 30386
L62810 30409
L62834 30433
L62858 30481
L62882 30576
L62882 30695
L62858 30790
L62834 30838
L62810 30862
L62763 30886
L62715 30886
L62668 30862
L62644 30838
L62620 30790
L62596 30695
L62596 30576
L62620 30481
L62644 30433
L62668 30409
L62715 30386
" />
<path d="M63049 30386
L63382 30386
L63168 30886
" />
</g></g>
</g>
<g style="fill:#006464; fill-opacity:0.0; 
stroke:#006464; stroke-width:60.000000; stroke-opacity:1; 
stroke-linecap:round; stroke-linejoin:round;">
<g >
</g>
<g style="fill:#840000; fill-opacity:0.0; 
stroke:#840000; stroke-width:60.000000; stroke-opacity:1; 
stroke-linecap:round; stroke-linejoin:round;">
<path style="fill:#840000; fill-opacity:0.0; 
stroke:#840000; stroke-width:60.000000; stroke-opacity:1; 
stroke-linecap:round; stroke-linejoin:round;fill:none"
d="M 44000.000000,40750.000000
44000.000000,41250.000000
44500.000000,41250.000000
44000.000000,41750.000000
43500.000000,41250.000000
44000.000000,41250.000000
" /> 
</g>
<g style="fill:#006464; fill-opacity:0.0; 
stroke:#006464; stroke-width:60.000000; stroke-opacity:1; 
stroke-linecap:round; stroke-linejoin:round;">
<text x="44050.000000" y="42730.000000"
textLength="2060.000000" font-size="666.653543" lengthAdjust="spacingAndGlyphs"
text-anchor="middle" opacity="0">GNDS</text>
<g class="stroked-text"><desc>GNDS</desc>
<path d="M43430 42230
L43383 42206
L43311 42206
L43240 42230
L43192 42277
L43169 42325
L43145 42420
L43145 42491
L43169 42587
L43192 42634
L43240 42682
L43311 42706
L43359 42706
L43430 42682
L43454 42658
L43454 42491
L43359 42491
" />
<path d="M43669 42706
L43669 42206
L43954 42706
L43954 42206
" />
<path d="M44192 42706
L44192 42206
L44311 42206
L44383 42230
L44430 42277
L44454 42325
L44478 42420
L44478 42491
L44454 42587
L44430 42634
L44383 42682
L44311 42706
L44192 42706
" />
<path d="M44669 42682
L44740 42706
L44859 42706
L44907 42682
L44930 42658
L44954 42610
L44954 42563
L44930 42515
L44907 42491
L44859 42468
L44764 42444
L44716 42420
L44692 42396
L44669 42349
L44669 42301
L44692 42253
L44716 42230
L44764 42206
L44883 42206
L44954 42230
" />
</g></g>
</g>
<g style="fill:#006464; fill-opacity:0.0; 
stroke:#006464; stroke-width:60.000000; stroke-opacity:1; 
stroke-linecap:round; stroke-linejoin:round;">
<g >
</g>
<g style="fill:#840000; fill-opacity:0.0; 
stroke:#840000; stroke-width:60.000000; stroke-opacity:1; 
stroke-linecap:round; stroke-linejoin:round;">
<circle cx="50250.000000" cy="27700.000000" r="300.000000" /> 
<path d="M50250 28000
L50250 29000
" />
</g>
<g style="fill:#006464; fill-opacity:0.0; 
stroke:#006464; stroke-width:60.000000; stroke-opacity:1; 
stroke-linecap:round; stroke-linejoin:round;">
<text x="50447.913386" y="26750.000000"
textLength="1893.346457" font-size="666.653543" lengthAdjust="spacingAndGlyphs"
text-anchor="middle" opacity="0">TP52</text>
<g class="stroked-text"><desc>TP52</desc>
<path d="M49578 26226
L49864 26226
" />
<path d="M49721 26726
L49721 26226
" />
<path d="M50031 26726
L50031 26226
L50221 26226
L50269 26250
L50293 26273
L50316 26321
L50316 26392
L50293 26440
L50269 26464
L50221 26488
L50031 26488
" />
<path d="M50769 26226
L50531 26226
L50507 26464
L50531 26440
L50578 26416
L50697 26416
L50745 26440
L50769 26464
L50793 26511
L50793 26630
L50769 26678
L50745 26702
L50697 26726
L50578 26726
L50531 26702
L50507 26678
" />
<path d="M50983 26273
L51007 26250
L51055 26226
L51174 26226
L51221 26250
L51245 26273
L51269 26321
L51269 26369
L51245 26440
L50959 26726
L51269 26726
" />
</g></g>
</g>
<g style="fill:#006464; fill-opacity:0.0; 
stroke:#006464; stroke-width:60.000000; stroke-opacity:1; 
stroke-linecap:round; stroke-linejoin:round;">
<g >
</g>
<g style="fill:#840000; fill-opacity:0.0; 
stroke:#840000; stroke-width:60.000000; stroke-opacity:1; 
stroke-linecap:round; stroke-linejoin:round;">
<circle cx="51500.000000" cy="28950.000000" r="300.000000" /> 
<path d="M51500 29250
L51500 30250
" />
</g>
<g style="fill:#006464; fill-opacity:0.0; 
stroke:#006464; stroke-width:60.000000; stroke-opacity:1; 
stroke-linecap:round; stroke-linejoin:round;">
<text x="51697.913386" y="28000.000000"
textLength="1893.346457" font-size="666.653543" lengthAdjust="spacingAndGlyphs"
text-anchor="middle" opacity="0">TP53</text>
<g class="stroked-text"><desc>TP53</desc>
<path d="M50828 27476
L51114 27476
" />
<path d="M50971 27976
L50971 27476
" />
<path d="M51281 27976
L51281 27476
L51471 27476
L51519 27500
L51543 27523
L51566 27571
L51566 27642
L51543 27690
L51519 27714
L51471 27738
L51281 27738
" />
<path d="M52019 27476
L51781 27476
L51757 27714
L51781 27690
L51828 27666
L51947 27666
L51995 27690
L52019 27714
L52043 27761
L52043 27880
L52019 27928
L51995 27952
L51947 27976
L51828 27976
L51781 27952
L51757 27928
" />
<path d="M52209 27476
L52519 27476
L52352 27666
L52424 27666
L52471 27690
L52495 27714
L52519 27761
L52519 27880
L52495 27928
L52471 27952
L52424 27976
L52281 27976
L52233 27952
L52209 27928
" />
</g></g>
</g>
<g style="fill:#006464; fill-opacity:0.0; 
stroke:#006464; stroke-width:60.000000; stroke-opacity:1; 
stroke-linecap:round; stroke-linejoin:round;">
<g >
</g>
<g style="fill:#840000; fill-opacity:0.0; 
stroke:#840000; stroke-width:60.000000; stroke-opacity:1; 
stroke-linecap:round; stroke-linejoin:round;">
<circle cx="54000.000000" cy="28950.000000" r="300.000000" /> 
<path d="M54000 29250
L54000 30250
" />
</g>
<g style="fill:#006464; fill-opacity:0.0; 
stroke:#006464; stroke-width:60.000000; stroke-opacity:1; 
stroke-linecap:round; stroke-linejoin:round;">
<text x="54197.913386" y="28000.000000"
textLength="1893.346457" font-size="666.653543" lengthAdjust="spacingAndGlyphs"
text-anchor="middle" opacity="0">TP55</text>
<g class="stroked-text"><desc>TP55</desc>
<path d="M53328 27476
L53614 27476
" />
<path d="M53471 27976
L53471 27476
" />
<path d="M53781 27976
L53781 27476
L53971 27476
L54019 27500
L54043 27523
L54066 27571
L54066 27642
L54043 27690
L54019 27714
L53971 27738
L53781 27738
" />
<path d="M54519 27476
L54281 27476
L54257 27714
L54281 27690
L54328 27666
L54447 27666
L54495 27690
L54519 27714
L54543 27761
L54543 27880
L54519 27928
L54495 27952
L54447 27976
L54328 27976
L54281 27952
L54257 27928
" />
<path d="M54995 27476
L54757 27476
L54733 27714
L54757 27690
L54805 27666
L54924 27666
L54971 27690
L54995 27714
L55019 27761
L55019 27880
L54995 27928
L54971 27952
L54924 27976
L54805 27976
L54757 27952
L54733 27928
" />
</g></g>
</g>
<g style="fill:#006464; fill-opacity:0.0; 
stroke:#006464; stroke-width:60.000000; stroke-opacity:1; 
stroke-linecap:round; stroke-linejoin:round;">
<g >
</g>
<g style="fill:#840000; fill-opacity:0.0; 
stroke:#840000; stroke-width:60.000000; stroke-opacity:1; 
stroke-linecap:round; stroke-linejoin:round;">
<circle cx="52750.000000" cy="27700.000000" r="300.000000" /> 
<path d="M52750 28000
L52750 29000
" />
</g>
<g style="fill:#006464; fill-opacity:0.0; 
stroke:#006464; stroke-width:60.000000; stroke-opacity:1; 
stroke-linecap:round; stroke-linejoin:round;">
<text x="52947.913386" y="26750.000000"
textLength="1893.346457" font-size="666.653543" lengthAdjust="spacingAndGlyphs"
text-anchor="middle" opacity="0">TP54</text>
<g class="stroked-text"><desc>TP54</desc>
<path d="M52078 26226
L52364 26226
" />
<path d="M52221 26726
L52221 26226
" />
<path d="M52531 26726
L52531 26226
L52721 26226
L52769 26250
L52793 26273
L52816 26321
L52816 26392
L52793 26440
L52769 26464
L52721 26488
L52531 26488
" />
<path d="M53269 26226
L53031 26226
L53007 26464
L53031 26440
L53078 26416
L53197 26416
L53245 26440
L53269 26464
L53293 26511
L53293 26630
L53269 26678
L53245 26702
L53197 26726
L53078 26726
L53031 26702
L53007 26678
" />
<path d="M53721 26392
L53721 26726
" />
<path d="M53602 26202
L53483 26559
L53793 26559
" />
</g></g>
</g>
<g style="fill:#006464; fill-opacity:0.0; 
stroke:#006464; stroke-width:62.519685; stroke-opacity:1; 
stroke-linecap:round; stroke-linejoin:round;">
</g>
<g style="fill:#006464; fill-opacity:0.0; 
stroke:#006464; stroke-width:60.000000; stroke-opacity:1; 
stroke-linecap:round; stroke-linejoin:round;">
</g>
<g style="fill:#725600; fill-opacity:0.0; 
stroke:#725600; stroke-width:60.000000; stroke-opacity:1; 
stroke-linecap:round; stroke-linejoin:round;">
<text x="33960.000000" y="37250.000000"
textLength="4560.000000" font-size="666.653543" lengthAdjust="spacingAndGlyphs"
text-anchor="end" opacity="0">+3.3V_OLED</text>
<g class="stroked-text"><desc>+3.3V_OLED</desc>
<path d="M29549 37035
L29930 37035
" />
<path d="M29739 37226
L29739 36845
" />
<path d="M30120 36726
L30430 36726
L30263 36916
L30334 36916
L30382 36940
L30406 36964
L30430 37011
L30430 37130
L30406 37178
L30382 37202
L30334 37226
L30191 37226
L30144 37202
L30120 37178
" />
<path d="M30644 37178
L30668 37202
L30644 37226
L30620 37202
L30644 37178
L30644 37226
" />
<path d="M30834 36726
L31144 36726
L30977 36916
L31049 36916
L31096 36940
L31120 36964
L31144 37011
L31144 37130
L31120 37178
L31096 37202
L31049 37226
L30906 37226
L30858 37202
L30834 37178
" />
<path d="M31287 36726
L31453 37226
L31620 36726
" />
<path d="M31668 37273
L32049 37273
" />
<path d="M32263 36726
L32358 36726
L32406 36750
L32453 36797
L32477 36892
L32477 37059
L32453 37154
L32406 37202
L32358 37226
L32263 37226
L32215 37202
L32168 37154
L32144 37059
L32144 36892
L32168 36797
L32215 36750
L32263 36726
" />
<path d="M32930 37226
L32691 37226
L32691 36726
" />
<path d="M33096 36964
L33263 36964
" />
<path d="M33334 37226
L33096 37226
L33096 36726
L33334 36726
" />
<path d="M33549 37226
L33549 36726
L33668 36726
L33739 36750
L33787 36797
L33810 36845
L33834 36940
L33834 37011
L33810 37107
L33787 37154
L33739 37202
L33668 37226
L33549 37226
" />
</g><path style="fill:#725600; fill-opacity:0.0; 
stroke:#725600; stroke-width:60.000000; stroke-opacity:1; 
stroke-linecap:round; stroke-linejoin:round;fill:none"
d="M 34500.000000,37000.000000
34250.000000,36750.000000
34000.000000,36750.000000
34000.000000,37250.000000
34250.000000,37250.000000
Z" /> 
</g>
<g style="fill:#725600; fill-opacity:0.0; 
stroke:#725600; stroke-width:62.519685; stroke-opacity:1; 
stroke-linecap:round; stroke-linejoin:round;">
</g>
<g style="fill:#725600; fill-opacity:0.0; 
stroke:#725600; stroke-width:60.000000; stroke-opacity:1; 
stroke-linecap:round; stroke-linejoin:round;">
<text x="33960.000000" y="34250.000000"
textLength="2321.889764" font-size="666.653543" lengthAdjust="spacingAndGlyphs"
text-anchor="end" opacity="0">RESET</text>
<g class="stroked-text"><desc>RESET</desc>
<path d="M32072 34226
L31906 33988
" />
<path d="M31787 34226
L31787 33726
L31977 33726
L32025 33750
L32049 33773
L32072 33821
L32072 33892
L32049 33940
L32025 33964
L31977 33988
L31787 33988
" />
<path d="M32287 33964
L32453 33964
" />
<path d="M32525 34226
L32287 34226
L32287 33726
L32525 33726
" />
<path d="M32715 34202
L32787 34226
L32906 34226
L32953 34202
L32977 34178
L33001 34130
L33001 34083
L32977 34035
L32953 34011
L32906 33988
L32810 33964
L32763 33940
L32739 33916
L32715 33869
L32715 33821
L32739 33773
L32763 33750
L32810 33726
L32930 33726
L33001 33750
" />
<path d="M33215 33964
L33382 33964
" />
<path d="M33453 34226
L33215 34226
L33215 33726
L33453 33726
" />
<path d="M33596 33726
L33882 33726
" />
<path d="M33739 34226
L33739 33726
" />
</g><path style="fill:#725600; fill-opacity:0.0; 
stroke:#725600; stroke-width:60.000000; stroke-opacity:1; 
stroke-linecap:round; stroke-linejoin:round;fill:none"
d="M 34500.000000,34000.000000
34250.000000,33750.000000
34000.000000,33750.000000
34000.000000,34250.000000
34250.000000,34250.000000
Z" /> 
</g>
<g style="fill:#725600; fill-opacity:0.0; 
stroke:#725600; stroke-width:62.519685; stroke-opacity:1; 
stroke-linecap:round; stroke-linejoin:round;">
</g>
<g style="fill:#725600; fill-opacity:0.0; 
stroke:#725600; stroke-width:60.000000; stroke-opacity:1; 
stroke-linecap:round; stroke-linejoin:round;">
<text x="33960.000000" y="33250.000000"
textLength="5798.110236" font-size="666.653543" lengthAdjust="spacingAndGlyphs"
text-anchor="end" opacity="0">DATA_COMMAND</text>
<g class="stroked-text"><desc>DATA_COMMAND</desc>
<path d="M28310 33226
L28310 32726
L28430 32726
L28501 32750
L28549 32797
L28572 32845
L28596 32940
L28596 33011
L28572 33107
L28549 33154
L28501 33202
L28430 33226
L28310 33226
" />
<path d="M28787 33083
L29025 33083
" />
<path d="M28739 33226
L28906 32726
L29072 33226
" />
<path d="M29168 32726
L29453 32726
" />
<path d="M29310 33226
L29310 32726
" />
<path d="M29596 33083
L29834 33083
" />
<path d="M29549 33226
L29715 32726
L29882 33226
" />
<path d="M29930 33273
L30310 33273
" />
<path d="M30715 33178
L30691 33202
L30620 33226
L30572 33226
L30501 33202
L30453 33154
L30430 33107
L30406 33011
L30406 32940
L30430 32845
L30453 32797
L30501 32750
L30572 32726
L30620 32726
L30691 32750
L30715 32773
" />
<path d="M31025 32726
L31120 32726
L31168 32750
L31215 32797
L31239 32892
L31239 33059
L31215 33154
L31168 33202
L31120 33226
L31025 33226
L30977 33202
L30930 33154
L30906 33059
L30906 32892
L30930 32797
L30977 32750
L31025 32726
" />
<path d="M31453 33226
L31453 32726
L31620 33083
L31787 32726
L31787 33226
" />
<path d="M32025 33226
L32025 32726
L32191 33083
L32358 32726
L32358 33226
" />
<path d="M32572 33083
L32810 33083
" />
<path d="M32525 33226
L32691 32726
L32858 33226
" />
<path d="M33025 33226
L33025 32726
L33310 33226
L33310 32726
" />
<path d="M33549 33226
L33549 32726
L33668 32726
L33739 32750
L33787 32797
L33810 32845
L33834 32940
L33834 33011
L33810 33107
L33787 33154
L33739 33202
L33668 33226
L33549 33226
" />
</g><path style="fill:#725600; fill-opacity:0.0; 
stroke:#725600; stroke-width:60.000000; stroke-opacity:1; 
stroke-linecap:round; stroke-linejoin:round;fill:none"
d="M 34500.000000,33000.000000
34250.000000,32750.000000
34000.000000,32750.000000
34000.000000,33250.000000
34250.000000,33250.000000
Z" /> 
</g>
<g style="fill:#725600; fill-opacity:0.0; 
stroke:#725600; stroke-width:62.519685; stroke-opacity:1; 
stroke-linecap:round; stroke-linejoin:round;">
</g>
<g style="fill:#725600; fill-opacity:0.0; 
stroke:#725600; stroke-width:60.000000; stroke-opacity:1; 
stroke-linecap:round; stroke-linejoin:round;">
<text x="33960.000000" y="36250.000000"
textLength="1464.763780" font-size="666.653543" lengthAdjust="spacingAndGlyphs"
text-anchor="end" opacity="0">CLK</text>
<g class="stroked-text"><desc>CLK</desc>
<path d="M32930 36178
L32906 36202
L32834 36226
L32787 36226
L32715 36202
L32668 36154
L32644 36107
L32620 36011
L32620 35940
L32644 35845
L32668 35797
L32715 35750
L32787 35726
L32834 35726
L32906 35750
L32930 35773
" />
<path d="M33382 36226
L33144 36226
L33144 35726
" />
<path d="M33549 36226
L33549 35726
" />
<path d="M33834 36226
L33620 35940
" />
<path d="M33834 35726
L33549 36011
" />
</g><path style="fill:#725600; fill-opacity:0.0; 
stroke:#725600; stroke-width:60.000000; stroke-opacity:1; 
stroke-linecap:round; stroke-linejoin:round;fill:none"
d="M 34500.000000,36000.000000
34250.000000,35750.000000
34000.000000,35750.000000
34000.000000,36250.000000
34250.000000,36250.000000
Z" /> 
</g>
<g style="fill:#725600; fill-opacity:0.0; 
stroke:#725600; stroke-width:62.519685; stroke-opacity:1; 
stroke-linecap:round; stroke-linejoin:round;">
</g>
<g style="fill:#725600; fill-opacity:0.0; 
stroke:#725600; stroke-width:60.000000; stroke-opacity:1; 
stroke-linecap:round; stroke-linejoin:round;">
<text x="33960.000000" y="35250.000000"
textLength="1798.110236" font-size="666.653543" lengthAdjust="spacingAndGlyphs"
text-anchor="end" opacity="0">DATA</text>
<g class="stroked-text"><desc>DATA</desc>
<path d="M32310 35226
L32310 34726
L32430 34726
L32501 34750
L32549 34797
L32572 34845
L32596 34940
L32596 35011
L32572 35107
L32549 35154
L32501 35202
L32430 35226
L32310 35226
" />
<path d="M32787 35083
L33025 35083
" />
<path d="M32739 35226
L32906 34726
L33072 35226
" />
<path d="M33168 34726
L33453 34726
" />
<path d="M33310 35226
L33310 34726
" />
<path d="M33596 35083
L33834 35083
" />
<path d="M33549 35226
L33715 34726
L33882 35226
" />
</g><path style="fill:#725600; fill-opacity:0.0; 
stroke:#725600; stroke-width:60.000000; stroke-opacity:1; 
stroke-linecap:round; stroke-linejoin:round;fill:none"
d="M 34500.000000,35000.000000
34250.000000,34750.000000
34000.000000,34750.000000
34000.000000,35250.000000
34250.000000,35250.000000
Z" /> 
</g>
<g style="fill:#725600; fill-opacity:0.0; 
stroke:#725600; stroke-width:62.519685; stroke-opacity:1; 
stroke-linecap:round; stroke-linejoin:round;">
</g>
<g style="fill:#725600; fill-opacity:0.0; 
stroke:#725600; stroke-width:60.000000; stroke-opacity:1; 
stroke-linecap:round; stroke-linejoin:round;">
</g>
<g style="fill:#0000C2; fill-opacity:0.0; 
stroke:#0000C2; stroke-width:60.000000; stroke-opacity:1; 
stroke-linecap:round; stroke-linejoin:round;">
<text x="37250.000000" y="31897.480315"
textLength="5393.346457" font-size="666.653543" lengthAdjust="spacingAndGlyphs"
text-anchor="start" opacity="0">CABLE_SELECT</text>
<g class="stroked-text"><desc>CABLE_SELECT</desc>
<path d="M37684 31826
L37660 31849
L37589 31873
L37541 31873
L37470 31849
L37422 31802
L37399 31754
L37375 31659
L37375 31587
L37399 31492
L37422 31445
L37470 31397
L37541 31373
L37589 31373
L37660 31397
L37684 31421
" />
<path d="M37875 31730
L38113 31730
" />
<path d="M37827 31873
L37994 31373
L38160 31873
" />
<path d="M38494 31611
L38565 31635
L38589 31659
L38613 31706
L38613 31778
L38589 31826
L38565 31849
L38518 31873
L38327 31873
L38327 31373
L38494 31373
L38541 31397
L38565 31421
L38589 31468
L38589 31516
L38565 31564
L38541 31587
L38494 31611
L38327 31611
" />
<path d="M39065 31873
L38827 31873
L38827 31373
" />
<path d="M39232 31611
L39399 31611
" />
<path d="M39470 31873
L39232 31873
L39232 31373
L39470 31373
" />
<path d="M39565 31921
L39946 31921
" />
<path d="M40041 31849
L40113 31873
L40232 31873
L40280 31849
L40303 31826
L40327 31778
L40327 31730
L40303 31683
L40280 31659
L40232 31635
L40137 31611
L40089 31587
L40065 31564
L40041 31516
L40041 31468
L40065 31421
L40089 31397
L40137 31373
L40256 31373
L40327 31397
" />
<path d="M40541 31611
L40708 31611
" />
<path d="M40780 31873
L40541 31873
L40541 31373
L40780 31373
" />
<path d="M41232 31873
L40994 31873
L40994 31373
" />
<path d="M41399 31611
L41565 31611
" />
<path d="M41637 31873
L41399 31873
L41399 31373
L41637 31373
" />
<path d="M42137 31826
L42113 31849
L42041 31873
L41994 31873
L41922 31849
L41875 31802
L41851 31754
L41827 31659
L41827 31587
L41851 31492
L41875 31445
L41922 31397
L41994 31373
L42041 31373
L42113 31397
L42137 31421
" />
<path d="M42280 31373
L42565 31373
" />
<path d="M42422 31873
L42422 31373
" />
</g></g>
<g style="fill:#0000C2; fill-opacity:0.0; 
stroke:#0000C2; stroke-width:62.519685; stroke-opacity:1; 
stroke-linecap:round; stroke-linejoin:round;">
</g>
<g style="fill:#0000C2; fill-opacity:0.0; 
stroke:#0000C2; stroke-width:60.000000; stroke-opacity:1; 
stroke-linecap:round; stroke-linejoin:round;">
<text x="37000.000000" y="28787.480315"
textLength="7940.944882" font-size="666.653543" lengthAdjust="spacingAndGlyphs"
text-anchor="start" opacity="0">CS Pin pulled down </text>
<g class="stroked-text"><desc>CS Pin pulled down </desc>
<path d="M37434 28716
L37410 28739
L37339 28763
L37291 28763
L37220 28739
L37172 28692
L37149 28644
L37125 28549
L37125 28477
L37149 28382
L37172 28335
L37220 28287
L37291 28263
L37339 28263
L37410 28287
L37434 28311
" />
<path d="M37625 28739
L37696 28763
L37815 28763
L37863 28739
L37887 28716
L37910 28668
L37910 28620
L37887 28573
L37863 28549
L37815 28525
L37720 28501
L37672 28477
L37649 28454
L37625 28406
L37625 28358
L37649 28311
L37672 28287
L37720 28263
L37839 28263
L37910 28287
" />
<path d="M38506 28763
L38506 28263
L38696 28263
L38744 28287
L38768 28311
L38791 28358
L38791 28430
L38768 28477
L38744 28501
L38696 28525
L38506 28525
" />
<path d="M39006 28763
L39006 28430
" />
<path d="M39006 28263
L38982 28287
L39006 28311
L39030 28287
L39006 28263
L39006 28311
" />
<path d="M39244 28430
L39244 28763
" />
<path d="M39244 28477
L39268 28454
L39315 28430
L39387 28430
L39434 28454
L39458 28501
L39458 28763
" />
<path d="M40077 28430
L40077 28930
" />
<path d="M40077 28454
L40125 28430
L40220 28430
L40268 28454
L40291 28477
L40315 28525
L40315 28668
L40291 28716
L40268 28739
L40220 28763
L40125 28763
L40077 28739
" />
<path d="M40744 28430
L40744 28763
" />
<path d="M40530 28430
L40530 28692
L40553 28739
L40601 28763
L40672 28763
L40720 28739
L40744 28716
" />
<path d="M41053 28763
L41006 28739
L40982 28692
L40982 28263
" />
<path d="M41315 28763
L41268 28739
L41244 28692
L41244 28263
" />
<path d="M41696 28739
L41649 28763
L41553 28763
L41506 28739
L41482 28692
L41482 28501
L41506 28454
L41553 28430
L41649 28430
L41696 28454
L41720 28501
L41720 28549
L41482 28596
" />
<path d="M42149 28763
L42149 28263
" />
<path d="M42149 28739
L42101 28763
L42006 28763
L41958 28739
L41934 28716
L41910 28668
L41910 28525
L41934 28477
L41958 28454
L42006 28430
L42101 28430
L42149 28454
" />
<path d="M42982 28763
L42982 28263
" />
<path d="M42982 28739
L42934 28763
L42839 28763
L42791 28739
L42768 28716
L42744 28668
L42744 28525
L42768 28477
L42791 28454
L42839 28430
L42934 28430
L42982 28454
" />
<path d="M43291 28763
L43244 28739
L43220 28716
L43196 28668
L43196 28525
L43220 28477
L43244 28454
L43291 28430
L43363 28430
L43410 28454
L43434 28477
L43458 28525
L43458 28668
L43434 28716
L43410 28739
L43363 28763
L43291 28763
" />
<path d="M43625 28430
L43720 28763
L43815 28525
L43910 28763
L44006 28430
" />
<path d="M44196 28430
L44196 28763
" />
<path d="M44196 28477
L44220 28454
L44268 28430
L44339 28430
L44387 28454
L44410 28501
L44410 28763
" />
</g><text x="37000.000000" y="29592.480315"
textLength="7131.417323" font-size="666.653543" lengthAdjust="spacingAndGlyphs"
text-anchor="start" opacity="0">on daughterboard </text>
<g class="stroked-text"><desc>on daughterboard </desc>
<path d="M37220 29568
L37172 29544
L37149 29521
L37125 29473
L37125 29330
L37149 29282
L37172 29259
L37220 29235
L37291 29235
L37339 29259
L37363 29282
L37387 29330
L37387 29473
L37363 29521
L37339 29544
L37291 29568
L37220 29568
" />
<path d="M37601 29235
L37601 29568
" />
<path d="M37601 29282
L37625 29259
L37672 29235
L37744 29235
L37791 29259
L37815 29306
L37815 29568
" />
<path d="M38649 29568
L38649 29068
" />
<path d="M38649 29544
L38601 29568
L38506 29568
L38458 29544
L38434 29521
L38410 29473
L38410 29330
L38434 29282
L38458 29259
L38506 29235
L38601 29235
L38649 29259
" />
<path d="M39101 29568
L39101 29306
L39077 29259
L39030 29235
L38934 29235
L38887 29259
" />
<path d="M39101 29544
L39053 29568
L38934 29568
L38887 29544
L38863 29497
L38863 29449
L38887 29401
L38934 29378
L39053 29378
L39101 29354
" />
<path d="M39553 29235
L39553 29568
" />
<path d="M39339 29235
L39339 29497
L39363 29544
L39410 29568
L39482 29568
L39530 29544
L39553 29521
" />
<path d="M40006 29235
L40006 29640
L39982 29687
L39958 29711
L39910 29735
L39839 29735
L39791 29711
" />
<path d="M40006 29544
L39958 29568
L39863 29568
L39815 29544
L39791 29521
L39768 29473
L39768 29330
L39791 29282
L39815 29259
L39863 29235
L39958 29235
L40006 29259
" />
<path d="M40244 29568
L40244 29068
" />
<path d="M40458 29568
L40458 29306
L40434 29259
L40387 29235
L40315 29235
L40268 29259
L40244 29282
" />
<path d="M40625 29235
L40815 29235
" />
<path d="M40696 29068
L40696 29497
L40720 29544
L40768 29568
L40815 29568
" />
<path d="M41172 29544
L41125 29568
L41030 29568
L40982 29544
L40958 29497
L40958 29306
L40982 29259
L41030 29235
L41125 29235
L41172 29259
L41196 29306
L41196 29354
L40958 29401
" />
<path d="M41410 29568
L41410 29235
" />
<path d="M41410 29330
L41434 29282
L41458 29259
L41506 29235
L41553 29235
" />
<path d="M41720 29568
L41720 29068
" />
<path d="M41720 29259
L41768 29235
L41863 29235
L41910 29259
L41934 29282
L41958 29330
L41958 29473
L41934 29521
L41910 29544
L41863 29568
L41768 29568
L41720 29544
" />
<path d="M42244 29568
L42196 29544
L42172 29521
L42149 29473
L42149 29330
L42172 29282
L42196 29259
L42244 29235
L42315 29235
L42363 29259
L42387 29282
L42410 29330
L42410 29473
L42387 29521
L42363 29544
L42315 29568
L42244 29568
" />
<path d="M42839 29568
L42839 29306
L42815 29259
L42768 29235
L42672 29235
L42625 29259
" />
<path d="M42839 29544
L42791 29568
L42672 29568
L42625 29544
L42601 29497
L42601 29449
L42625 29401
L42672 29378
L42791 29378
L42839 29354
" />
<path d="M43077 29568
L43077 29235
" />
<path d="M43077 29330
L43101 29282
L43125 29259
L43172 29235
L43220 29235
" />
<path d="M43601 29568
L43601 29068
" />
<path d="M43601 29544
L43553 29568
L43458 29568
L43410 29544
L43387 29521
L43363 29473
L43363 29330
L43387 29282
L43410 29259
L43458 29235
L43553 29235
L43601 29259
" />
</g><text x="37000.000000" y="30397.480315"
textLength="6702.874016" font-size="666.653543" lengthAdjust="spacingAndGlyphs"
text-anchor="start" opacity="0">(always selected)</text>
<g class="stroked-text"><desc>(always selected)</desc>
<path d="M37291 30564
L37268 30540
L37220 30468
L37196 30421
L37172 30349
L37149 30230
L37149 30135
L37172 30016
L37196 29945
L37220 29897
L37268 29826
L37291 29802
" />
<path d="M37696 30373
L37696 30111
L37672 30064
L37625 30040
L37530 30040
L37482 30064
" />
<path d="M37696 30349
L37649 30373
L37530 30373
L37482 30349
L37458 30302
L37458 30254
L37482 30206
L37530 30183
L37649 30183
L37696 30159
" />
<path d="M38006 30373
L37958 30349
L37934 30302
L37934 29873
" />
<path d="M38149 30040
L38244 30373
L38339 30135
L38434 30373
L38530 30040
" />
<path d="M38934 30373
L38934 30111
L38910 30064
L38863 30040
L38768 30040
L38720 30064
" />
<path d="M38934 30349
L38887 30373
L38768 30373
L38720 30349
L38696 30302
L38696 30254
L38720 30206
L38768 30183
L38887 30183
L38934 30159
" />
<path d="M39125 30040
L39244 30373
" />
<path d="M39363 30040
L39244 30373
L39196 30492
L39172 30516
L39125 30540
" />
<path d="M39530 30349
L39577 30373
L39672 30373
L39720 30349
L39744 30302
L39744 30278
L39720 30230
L39672 30206
L39601 30206
L39553 30183
L39530 30135
L39530 30111
L39553 30064
L39601 30040
L39672 30040
L39720 30064
" />
<path d="M40315 30349
L40363 30373
L40458 30373
L40506 30349
L40530 30302
L40530 30278
L40506 30230
L40458 30206
L40387 30206
L40339 30183
L40315 30135
L40315 30111
L40339 30064
L40387 30040
L40458 30040
L40506 30064
" />
<path d="M40934 30349
L40887 30373
L40791 30373
L40744 30349
L40720 30302
L40720 30111
L40744 30064
L40791 30040
L40887 30040
L40934 30064
L40958 30111
L40958 30159
L40720 30206
" />
<path d="M41244 30373
L41196 30349
L41172 30302
L41172 29873
" />
<path d="M41625 30349
L41577 30373
L41482 30373
L41434 30349
L41410 30302
L41410 30111
L41434 30064
L41482 30040
L41577 30040
L41625 30064
L41649 30111
L41649 30159
L41410 30206
" />
<path d="M42077 30349
L42030 30373
L41934 30373
L41887 30349
L41863 30326
L41839 30278
L41839 30135
L41863 30087
L41887 30064
L41934 30040
L42030 30040
L42077 30064
" />
<path d="M42220 30040
L42410 30040
" />
<path d="M42291 29873
L42291 30302
L42315 30349
L42363 30373
L42410 30373
" />
<path d="M42768 30349
L42720 30373
L42625 30373
L42577 30349
L42553 30302
L42553 30111
L42577 30064
L42625 30040
L42720 30040
L42768 30064
L42791 30111
L42791 30159
L42553 30206
" />
<path d="M43220 30373
L43220 29873
" />
<path d="M43220 30349
L43172 30373
L43077 30373
L43030 30349
L43006 30326
L42982 30278
L42982 30135
L43006 30087
L43030 30064
L43077 30040
L43172 30040
L43220 30064
" />
<path d="M43410 30564
L43434 30540
L43482 30468
L43506 30421
L43530 30349
L43553 30230
L43553 30135
L43530 30016
L43506 29945
L43482 29897
L43434 29826
L43410 29802
" />
</g></g>
<g style="fill:#009600; fill-opacity:0.0; 
stroke:#009600; stroke-width:60.000000; stroke-opacity:1; 
stroke-linecap:round; stroke-linejoin:round;">
<path d="M60000 38000
L44000 38000
" />
<path d="M54000 36000
L34500 36000
" />
<path d="M34500 32000
L60000 32000
" />
<path d="M60000 36000
L54000 36000
" />
<path d="M52750 35000
L34500 35000
" />
<path d="M60000 37000
L34500 37000
" />
<path d="M52750 35000
L52750 29000
" />
<path d="M60000 34000
L51500 34000
" />
<path d="M60000 35000
L52750 35000
" />
<path d="M60000 33000
L50250 33000
" />
<path d="M50250 33000
L34500 33000
" />
<path d="M44000 38000
L44000 40750
" />
<path d="M51500 34000
L34500 34000
" />
<path d="M54000 36000
L54000 30250
" />
<path d="M51500 34000
L51500 30250
" />
<path d="M50250 33000
L50250 29000
" />
</g>
<g style="fill:#000084; fill-opacity:0.0; 
stroke:#000084; stroke-width:60.000000; stroke-opacity:1; 
stroke-linecap:round; stroke-linejoin:round;">
<path d="M34260 31760
L34740 32240
" />
<path d="M34740 31760
L34260 32240
" />
</g>
<g style="fill:#009600; fill-opacity:0.0; 
stroke:#009600; stroke-width:60.000000; stroke-opacity:1; 
stroke-linecap:round; stroke-linejoin:round;">
</g>
<g style="fill:#009600; fill-opacity:1.0; 
stroke:#009600; stroke-width:60.000000; stroke-opacity:1; 
stroke-linecap:round; stroke-linejoin:round;">
<circle cx="50250.000000" cy="33000.000000" r="180.000000" /> 
<circle cx="54000.000000" cy="36000.000000" r="180.000000" /> 
<circle cx="51500.000000" cy="34000.000000" r="180.000000" /> 
<circle cx="52750.000000" cy="35000.000000" r="180.000000" /> 
</g> 
</svg>
