<?xml version="1.0" standalone="no"?>
 <!DOCTYPE svg PUBLIC "-//W3C//DTD SVG 1.1//EN" 
 "http://www.w3.org/Graphics/SVG/1.1/DTD/svg11.dtd"> 
<svg
  xmlns:svg="http://www.w3.org/2000/svg"
  xmlns="http://www.w3.org/2000/svg"
  xmlns:xlink="http://www.w3.org/1999/xlink"
  version="1.1"
  width="29.700220cm" height="21.000720cm" viewBox="0 0 116930 82680">
<title>SVG Picture created as BassStation_Sequencer_MidiInterface-Input Keyscan and RGB LED Driver-LED_PCB_SW_21.svg date 2022/04/15 23:52:43 </title>
  <desc>Picture generated by Eeschema-SVG </desc>
<g style="fill:#000000; fill-opacity:1.000000;stroke:#000000; stroke-opacity:1.000000;
stroke-linecap:round; stroke-linejoin:round;"
 transform="translate(0 0) scale(1 1)">
</g>
<g style="fill:#840000; fill-opacity:0.0; 
stroke:#840000; stroke-width:0.000000; stroke-opacity:1; 
stroke-linecap:round; stroke-linejoin:round;">
</g>
<g style="fill:#840000; fill-opacity:0.0; 
stroke:#840000; stroke-width:60.000000; stroke-opacity:1; 
stroke-linecap:round; stroke-linejoin:round;">
<rect x="69685.905512" y="65357.165354" width="42519.685039" height="12598.425197" rx="0.000000" />
<rect x="3937.007874" y="3937.007874" width="109055.984252" height="74805.984252" rx="0.000000" />
<rect x="4724.409449" y="4724.409449" width="107481.181102" height="73231.181102" rx="0.000000" />
<path d="M23622 4724
L23622 3937
" />
<path d="M43307 4724
L43307 3937
" />
<path d="M62992 4724
L62992 3937
" />
<path d="M82677 4724
L82677 3937
" />
<path d="M102362 4724
L102362 3937
" />
<text x="13779.527559" y="4586.614173"
textLength="549.960630" font-size="682.401575" lengthAdjust="spacingAndGlyphs"
text-anchor="start" opacity="0">1</text>
<g class="stroked-text"><desc>1</desc>
<path d="M14199 4562
L13907 4562
" />
<path d="M14053 4562
L14053 4050
L14004 4123
L13955 4172
L13907 4196
" />
</g><text x="33464.566929" y="4586.614173"
textLength="547.440945" font-size="682.401575" lengthAdjust="spacingAndGlyphs"
text-anchor="start" opacity="0">2</text>
<g class="stroked-text"><desc>2</desc>
<path d="M33592 4099
L33616 4074
L33665 4050
L33787 4050
L33835 4074
L33860 4099
L33884 4147
L33884 4196
L33860 4269
L33567 4562
L33884 4562
" />
</g><text x="53149.606299" y="4586.614173"
textLength="547.440945" font-size="682.401575" lengthAdjust="spacingAndGlyphs"
text-anchor="start" opacity="0">3</text>
<g class="stroked-text"><desc>3</desc>
<path d="M53252 4050
L53569 4050
L53398 4245
L53472 4245
L53520 4269
L53545 4294
L53569 4342
L53569 4464
L53545 4513
L53520 4537
L53472 4562
L53325 4562
L53277 4537
L53252 4513
" />
</g><text x="72834.645669" y="4586.614173"
textLength="547.440945" font-size="682.401575" lengthAdjust="spacingAndGlyphs"
text-anchor="start" opacity="0">4</text>
<g class="stroked-text"><desc>4</desc>
<path d="M73205 4221
L73205 4562
" />
<path d="M73083 4026
L72962 4391
L73278 4391
" />
</g><text x="92519.685039" y="4586.614173"
textLength="547.440945" font-size="682.401575" lengthAdjust="spacingAndGlyphs"
text-anchor="start" opacity="0">5</text>
<g class="stroked-text"><desc>5</desc>
<path d="M92915 4050
L92671 4050
L92647 4294
L92671 4269
L92720 4245
L92842 4245
L92890 4269
L92915 4294
L92939 4342
L92939 4464
L92915 4513
L92890 4537
L92842 4562
L92720 4562
L92671 4537
L92647 4513
" />
</g><text x="112204.724409" y="4586.614173"
textLength="547.440945" font-size="682.401575" lengthAdjust="spacingAndGlyphs"
text-anchor="start" opacity="0">6</text>
<g class="stroked-text"><desc>6</desc>
<path d="M112575 4050
L112478 4050
L112429 4074
L112405 4099
L112356 4172
L112332 4269
L112332 4464
L112356 4513
L112380 4537
L112429 4562
L112527 4562
L112575 4537
L112600 4513
L112624 4464
L112624 4342
L112600 4294
L112575 4269
L112527 4245
L112429 4245
L112380 4269
L112356 4294
L112332 4342
" />
</g><path d="M23622 77955
L23622 78742
" />
<path d="M43307 77955
L43307 78742
" />
<path d="M62992 77955
L62992 78742
" />
<path d="M82677 77955
L82677 78742
" />
<path d="M102362 77955
L102362 78742
" />
<text x="13779.527559" y="78605.196850"
textLength="547.440945" font-size="682.401575" lengthAdjust="spacingAndGlyphs"
text-anchor="start" opacity="0">1</text>
<g class="stroked-text"><desc>1</desc>
<path d="M14199 78580
L13907 78580
" />
<path d="M14053 78580
L14053 78068
L14004 78142
L13955 78190
L13907 78215
" />
</g><text x="33464.566929" y="78605.196850"
textLength="547.440945" font-size="682.401575" lengthAdjust="spacingAndGlyphs"
text-anchor="start" opacity="0">2</text>
<g class="stroked-text"><desc>2</desc>
<path d="M33592 78117
L33616 78093
L33665 78068
L33787 78068
L33835 78093
L33860 78117
L33884 78166
L33884 78215
L33860 78288
L33567 78580
L33884 78580
" />
</g><text x="53149.606299" y="78605.196850"
textLength="547.440945" font-size="682.401575" lengthAdjust="spacingAndGlyphs"
text-anchor="start" opacity="0">3</text>
<g class="stroked-text"><desc>3</desc>
<path d="M53252 78068
L53569 78068
L53398 78263
L53472 78263
L53520 78288
L53545 78312
L53569 78361
L53569 78483
L53545 78532
L53520 78556
L53472 78580
L53325 78580
L53277 78556
L53252 78532
" />
</g><text x="72834.645669" y="78605.196850"
textLength="547.440945" font-size="682.401575" lengthAdjust="spacingAndGlyphs"
text-anchor="start" opacity="0">4</text>
<g class="stroked-text"><desc>4</desc>
<path d="M73205 78239
L73205 78580
" />
<path d="M73083 78044
L72962 78410
L73278 78410
" />
</g><text x="92519.685039" y="78605.196850"
textLength="547.440945" font-size="682.401575" lengthAdjust="spacingAndGlyphs"
text-anchor="start" opacity="0">5</text>
<g class="stroked-text"><desc>5</desc>
<path d="M92915 78068
L92671 78068
L92647 78312
L92671 78288
L92720 78263
L92842 78263
L92890 78288
L92915 78312
L92939 78361
L92939 78483
L92915 78532
L92890 78556
L92842 78580
L92720 78580
L92671 78556
L92647 78532
" />
</g><text x="112204.724409" y="78605.196850"
textLength="547.440945" font-size="682.401575" lengthAdjust="spacingAndGlyphs"
text-anchor="start" opacity="0">6</text>
<g class="stroked-text"><desc>6</desc>
<path d="M112575 78068
L112478 78068
L112429 78093
L112405 78117
L112356 78190
L112332 78288
L112332 78483
L112356 78532
L112380 78556
L112429 78580
L112527 78580
L112575 78556
L112600 78532
L112624 78483
L112624 78361
L112600 78312
L112575 78288
L112527 78263
L112429 78263
L112380 78288
L112356 78312
L112332 78361
" />
</g><path d="M3937 23622
L4724 23622
" />
<path d="M3937 43307
L4724 43307
" />
<path d="M3937 62992
L4724 62992
" />
<text x="4330.708661" y="14035.433071"
textLength="498.700787" font-size="682.401575" lengthAdjust="spacingAndGlyphs"
text-anchor="middle" opacity="0">A</text>
<g class="stroked-text"><desc>A</desc>
<path d="M4208 13864
L4452 13864
" />
<path d="M4160 14011
L4330 13499
L4501 14011
" />
</g><text x="4330.708661" y="33720.472441"
textLength="571.811024" font-size="682.401575" lengthAdjust="spacingAndGlyphs"
text-anchor="middle" opacity="0">B</text>
<g class="stroked-text"><desc>B</desc>
<path d="M4367 33427
L4440 33452
L4464 33476
L4489 33525
L4489 33598
L4464 33647
L4440 33671
L4391 33696
L4196 33696
L4196 33184
L4367 33184
L4415 33208
L4440 33233
L4464 33281
L4464 33330
L4440 33379
L4415 33403
L4367 33427
L4196 33427
" />
</g><text x="4330.708661" y="53405.511811"
textLength="571.811024" font-size="682.401575" lengthAdjust="spacingAndGlyphs"
text-anchor="middle" opacity="0">C</text>
<g class="stroked-text"><desc>C</desc>
<path d="M4489 53332
L4464 53356
L4391 53381
L4342 53381
L4269 53356
L4221 53307
L4196 53259
L4172 53161
L4172 53088
L4196 52991
L4221 52942
L4269 52893
L4342 52869
L4391 52869
L4464 52893
L4489 52918
" />
</g><text x="4330.708661" y="73090.551181"
textLength="571.811024" font-size="682.401575" lengthAdjust="spacingAndGlyphs"
text-anchor="middle" opacity="0">D</text>
<g class="stroked-text"><desc>D</desc>
<path d="M4196 73066
L4196 72554
L4318 72554
L4391 72578
L4440 72627
L4464 72676
L4489 72773
L4489 72846
L4464 72944
L4440 72993
L4391 73041
L4318 73066
L4196 73066
" />
</g><path d="M112992 23622
L112205 23622
" />
<path d="M112992 43307
L112205 43307
" />
<path d="M112992 62992
L112205 62992
" />
<text x="112599.291339" y="14035.433071"
textLength="498.700787" font-size="682.401575" lengthAdjust="spacingAndGlyphs"
text-anchor="middle" opacity="0">A</text>
<g class="stroked-text"><desc>A</desc>
<path d="M112477 13864
L112721 13864
" />
<path d="M112428 14011
L112599 13499
L112769 14011
" />
</g><text x="112599.291339" y="33720.472441"
textLength="571.811024" font-size="682.401575" lengthAdjust="spacingAndGlyphs"
text-anchor="middle" opacity="0">B</text>
<g class="stroked-text"><desc>B</desc>
<path d="M112635 33427
L112708 33452
L112733 33476
L112757 33525
L112757 33598
L112733 33647
L112708 33671
L112660 33696
L112465 33696
L112465 33184
L112635 33184
L112684 33208
L112708 33233
L112733 33281
L112733 33330
L112708 33379
L112684 33403
L112635 33427
L112465 33427
" />
</g><text x="112599.291339" y="53405.511811"
textLength="571.811024" font-size="682.401575" lengthAdjust="spacingAndGlyphs"
text-anchor="middle" opacity="0">C</text>
<g class="stroked-text"><desc>C</desc>
<path d="M112757 53332
L112733 53356
L112660 53381
L112611 53381
L112538 53356
L112489 53307
L112465 53259
L112440 53161
L112440 53088
L112465 52991
L112489 52942
L112538 52893
L112611 52869
L112660 52869
L112733 52893
L112757 52918
" />
</g><text x="112599.291339" y="73090.551181"
textLength="571.811024" font-size="682.401575" lengthAdjust="spacingAndGlyphs"
text-anchor="middle" opacity="0">D</text>
<g class="stroked-text"><desc>D</desc>
<path d="M112465 73066
L112465 72554
L112587 72554
L112660 72578
L112708 72627
L112733 72676
L112757 72773
L112757 72846
L112733 72944
L112708 72993
L112660 73041
L112587 73066
L112465 73066
" />
</g><text x="78741.023622" y="76321.732283"
textLength="8721.417323" font-size="787.401575" lengthAdjust="spacingAndGlyphs"
text-anchor="start" opacity="0">Date: 2021-06-05</text>
<g class="stroked-text"><desc>Date: 2021-06-05</desc>
<path d="M78911 76293
L78911 75703
L79052 75703
L79136 75731
L79192 75787
L79220 75843
L79249 75956
L79249 76040
L79220 76152
L79192 76209
L79136 76265
L79052 76293
L78911 76293
" />
<path d="M79755 76293
L79755 75984
L79727 75928
L79670 75899
L79558 75899
L79502 75928
" />
<path d="M79755 76265
L79699 76293
L79558 76293
L79502 76265
L79474 76209
L79474 76152
L79502 76096
L79558 76068
L79699 76068
L79755 76040
" />
<path d="M79952 75899
L80177 75899
" />
<path d="M80036 75703
L80036 76209
L80064 76265
L80120 76293
L80177 76293
" />
<path d="M80598 76265
L80542 76293
L80430 76293
L80373 76265
L80345 76209
L80345 75984
L80373 75928
L80430 75899
L80542 75899
L80598 75928
L80627 75984
L80627 76040
L80345 76096
" />
<path d="M80880 76237
L80908 76265
L80880 76293
L80852 76265
L80880 76237
L80880 76293
" />
<path d="M80880 75928
L80908 75956
L80880 75984
L80852 75956
L80880 75928
L80880 75984
" />
<path d="M81583 75759
L81611 75731
L81667 75703
L81808 75703
L81864 75731
L81892 75759
L81920 75815
L81920 75871
L81892 75956
L81555 76293
L81920 76293
" />
<path d="M82286 75703
L82342 75703
L82398 75731
L82426 75759
L82454 75815
L82483 75928
L82483 76068
L82454 76181
L82426 76237
L82398 76265
L82342 76293
L82286 76293
L82229 76265
L82201 76237
L82173 76181
L82145 76068
L82145 75928
L82173 75815
L82201 75759
L82229 75731
L82286 75703
" />
<path d="M82708 75759
L82736 75731
L82792 75703
L82932 75703
L82989 75731
L83017 75759
L83045 75815
L83045 75871
L83017 75956
L82679 76293
L83045 76293
" />
<path d="M83607 76293
L83270 76293
" />
<path d="M83439 76293
L83439 75703
L83382 75787
L83326 75843
L83270 75871
" />
<path d="M83860 76068
L84310 76068
" />
<path d="M84704 75703
L84760 75703
L84817 75731
L84845 75759
L84873 75815
L84901 75928
L84901 76068
L84873 76181
L84845 76237
L84817 76265
L84760 76293
L84704 76293
L84648 76265
L84620 76237
L84592 76181
L84564 76068
L84564 75928
L84592 75815
L84620 75759
L84648 75731
L84704 75703
" />
<path d="M85407 75703
L85295 75703
L85238 75731
L85210 75759
L85154 75843
L85126 75956
L85126 76181
L85154 76237
L85182 76265
L85238 76293
L85351 76293
L85407 76265
L85435 76237
L85463 76181
L85463 76040
L85435 75984
L85407 75956
L85351 75928
L85238 75928
L85182 75956
L85154 75984
L85126 76040
" />
<path d="M85717 76068
L86166 76068
" />
<path d="M86560 75703
L86616 75703
L86673 75731
L86701 75759
L86729 75815
L86757 75928
L86757 76068
L86729 76181
L86701 76237
L86673 76265
L86616 76293
L86560 76293
L86504 76265
L86476 76237
L86448 76181
L86420 76068
L86420 75928
L86448 75815
L86476 75759
L86504 75731
L86560 75703
" />
<path d="M87291 75703
L87010 75703
L86982 75984
L87010 75956
L87066 75928
L87207 75928
L87263 75956
L87291 75984
L87319 76040
L87319 76181
L87291 76237
L87263 76265
L87207 76293
L87066 76293
L87010 76265
L86982 76237
" />
</g><path d="M69685 76577
L112205 76577
" />
<text x="70079.606299" y="77424.094488"
textLength="26212.992126" font-size="787.401575" lengthAdjust="spacingAndGlyphs"
text-anchor="start" opacity="0">KiCad E.D.A.  kicad 6.0.4-6f826c9f35~116~ubuntu20.04.1</text>
<g class="stroked-text"><desc>KiCad E.D.A.  kicad 6.0.4-6f826c9f35~116~ubuntu20.04.1</desc>
<path d="M70250 77395
L70250 76805
" />
<path d="M70587 77395
L70334 77058
" />
<path d="M70587 76805
L70250 77142
" />
<path d="M70840 77395
L70840 77002
" />
<path d="M70840 76805
L70812 76833
L70840 76861
L70868 76833
L70840 76805
L70840 76861
" />
<path d="M71459 77339
L71431 77367
L71346 77395
L71290 77395
L71206 77367
L71150 77311
L71121 77255
L71093 77142
L71093 77058
L71121 76946
L71150 76889
L71206 76833
L71290 76805
L71346 76805
L71431 76833
L71459 76861
" />
<path d="M71965 77395
L71965 77086
L71937 77030
L71881 77002
L71768 77002
L71712 77030
" />
<path d="M71965 77367
L71909 77395
L71768 77395
L71712 77367
L71684 77311
L71684 77255
L71712 77199
L71768 77170
L71909 77170
L71965 77142
" />
<path d="M72499 77395
L72499 76805
" />
<path d="M72499 77367
L72443 77395
L72331 77395
L72274 77367
L72246 77339
L72218 77283
L72218 77114
L72246 77058
L72274 77030
L72331 77002
L72443 77002
L72499 77030
" />
<path d="M73231 77086
L73427 77086
" />
<path d="M73512 77395
L73231 77395
L73231 76805
L73512 76805
" />
<path d="M73765 77339
L73793 77367
L73765 77395
L73737 77367
L73765 77339
L73765 77395
" />
<path d="M74046 77395
L74046 76805
L74187 76805
L74271 76833
L74327 76889
L74355 76946
L74384 77058
L74384 77142
L74355 77255
L74327 77311
L74271 77367
L74187 77395
L74046 77395
" />
<path d="M74637 77339
L74665 77367
L74637 77395
L74609 77367
L74637 77339
L74637 77395
" />
<path d="M74890 77227
L75171 77227
" />
<path d="M74834 77395
L75030 76805
L75227 77395
" />
<path d="M75424 77339
L75452 77367
L75424 77395
L75396 77367
L75424 77339
L75424 77395
" />
<path d="M76605 77395
L76605 76805
" />
<path d="M76661 77170
L76830 77395
" />
<path d="M76830 77002
L76605 77227
" />
<path d="M77083 77395
L77083 77002
" />
<path d="M77083 76805
L77055 76833
L77083 76861
L77111 76833
L77083 76805
L77083 76861
" />
<path d="M77618 77367
L77561 77395
L77449 77395
L77393 77367
L77364 77339
L77336 77283
L77336 77114
L77364 77058
L77393 77030
L77449 77002
L77561 77002
L77618 77030
" />
<path d="M78124 77395
L78124 77086
L78096 77030
L78039 77002
L77927 77002
L77871 77030
" />
<path d="M78124 77367
L78067 77395
L77927 77395
L77871 77367
L77842 77311
L77842 77255
L77871 77199
L77927 77170
L78067 77170
L78124 77142
" />
<path d="M78658 77395
L78658 76805
" />
<path d="M78658 77367
L78602 77395
L78489 77395
L78433 77367
L78405 77339
L78377 77283
L78377 77114
L78405 77058
L78433 77030
L78489 77002
L78602 77002
L78658 77030
" />
<path d="M79642 76805
L79530 76805
L79474 76833
L79445 76861
L79389 76946
L79361 77058
L79361 77283
L79389 77339
L79417 77367
L79474 77395
L79586 77395
L79642 77367
L79670 77339
L79699 77283
L79699 77142
L79670 77086
L79642 77058
L79586 77030
L79474 77030
L79417 77058
L79389 77086
L79361 77142
" />
<path d="M79952 77339
L79980 77367
L79952 77395
L79923 77367
L79952 77339
L79952 77395
" />
<path d="M80345 76805
L80402 76805
L80458 76833
L80486 76861
L80514 76917
L80542 77030
L80542 77170
L80514 77283
L80486 77339
L80458 77367
L80402 77395
L80345 77395
L80289 77367
L80261 77339
L80233 77283
L80205 77170
L80205 77030
L80233 76917
L80261 76861
L80289 76833
L80345 76805
" />
<path d="M80795 77339
L80823 77367
L80795 77395
L80767 77367
L80795 77339
L80795 77395
" />
<path d="M81330 77002
L81330 77395
" />
<path d="M81189 76777
L81048 77199
L81414 77199
" />
<path d="M81639 77170
L82089 77170
" />
<path d="M82623 76805
L82511 76805
L82454 76833
L82426 76861
L82370 76946
L82342 77058
L82342 77283
L82370 77339
L82398 77367
L82454 77395
L82567 77395
L82623 77367
L82651 77339
L82679 77283
L82679 77142
L82651 77086
L82623 77058
L82567 77030
L82454 77030
L82398 77058
L82370 77086
L82342 77142
" />
<path d="M82848 77002
L83073 77002
" />
<path d="M82932 77395
L82932 76889
L82961 76833
L83017 76805
L83073 76805
" />
<path d="M83354 77058
L83298 77030
L83270 77002
L83242 76946
L83242 76917
L83270 76861
L83298 76833
L83354 76805
L83467 76805
L83523 76833
L83551 76861
L83579 76917
L83579 76946
L83551 77002
L83523 77030
L83467 77058
L83354 77058
L83298 77086
L83270 77114
L83242 77170
L83242 77283
L83270 77339
L83298 77367
L83354 77395
L83467 77395
L83523 77367
L83551 77339
L83579 77283
L83579 77170
L83551 77114
L83523 77086
L83467 77058
" />
<path d="M83804 76861
L83832 76833
L83889 76805
L84029 76805
L84085 76833
L84114 76861
L84142 76917
L84142 76974
L84114 77058
L83776 77395
L84142 77395
" />
<path d="M84648 76805
L84535 76805
L84479 76833
L84451 76861
L84395 76946
L84367 77058
L84367 77283
L84395 77339
L84423 77367
L84479 77395
L84592 77395
L84648 77367
L84676 77339
L84704 77283
L84704 77142
L84676 77086
L84648 77058
L84592 77030
L84479 77030
L84423 77058
L84395 77086
L84367 77142
" />
<path d="M85210 77367
L85154 77395
L85042 77395
L84985 77367
L84957 77339
L84929 77283
L84929 77114
L84957 77058
L84985 77030
L85042 77002
L85154 77002
L85210 77030
" />
<path d="M85492 77395
L85604 77395
L85660 77367
L85688 77339
L85745 77255
L85773 77142
L85773 76917
L85745 76861
L85717 76833
L85660 76805
L85548 76805
L85492 76833
L85463 76861
L85435 76917
L85435 77058
L85463 77114
L85492 77142
L85548 77170
L85660 77170
L85717 77142
L85745 77114
L85773 77058
" />
<path d="M85941 77002
L86166 77002
" />
<path d="M86026 77395
L86026 76889
L86054 76833
L86110 76805
L86166 76805
" />
<path d="M86307 76805
L86673 76805
L86476 77030
L86560 77030
L86616 77058
L86645 77086
L86673 77142
L86673 77283
L86645 77339
L86616 77367
L86560 77395
L86391 77395
L86335 77367
L86307 77339
" />
<path d="M87207 76805
L86926 76805
L86898 77086
L86926 77058
L86982 77030
L87123 77030
L87179 77058
L87207 77086
L87235 77142
L87235 77283
L87207 77339
L87179 77367
L87123 77395
L86982 77395
L86926 77367
L86898 77339
" />
<path d="M87404 77170
L87432 77142
L87488 77114
L87601 77170
L87657 77142
L87685 77114
" />
<path d="M88219 77395
L87882 77395
" />
<path d="M88051 77395
L88051 76805
L87994 76889
L87938 76946
L87882 76974
" />
<path d="M88782 77395
L88444 77395
" />
<path d="M88613 77395
L88613 76805
L88557 76889
L88501 76946
L88444 76974
" />
<path d="M89288 76805
L89175 76805
L89119 76833
L89091 76861
L89035 76946
L89007 77058
L89007 77283
L89035 77339
L89063 77367
L89119 77395
L89232 77395
L89288 77367
L89316 77339
L89344 77283
L89344 77142
L89316 77086
L89288 77058
L89232 77030
L89119 77030
L89063 77058
L89035 77086
L89007 77142
" />
<path d="M89513 77170
L89541 77142
L89597 77114
L89710 77170
L89766 77142
L89794 77114
" />
<path d="M90272 77002
L90272 77395
" />
<path d="M90019 77002
L90019 77311
L90047 77367
L90103 77395
L90188 77395
L90244 77367
L90272 77339
" />
<path d="M90553 77395
L90553 76805
" />
<path d="M90553 77030
L90610 77002
L90722 77002
L90778 77030
L90807 77058
L90835 77114
L90835 77283
L90807 77339
L90778 77367
L90722 77395
L90610 77395
L90553 77367
" />
<path d="M91341 77002
L91341 77395
" />
<path d="M91088 77002
L91088 77311
L91116 77367
L91172 77395
L91256 77395
L91313 77367
L91341 77339
" />
<path d="M91622 77002
L91622 77395
" />
<path d="M91622 77058
L91650 77030
L91706 77002
L91791 77002
L91847 77030
L91875 77086
L91875 77395
" />
<path d="M92072 77002
L92297 77002
" />
<path d="M92156 76805
L92156 77311
L92184 77367
L92241 77395
L92297 77395
" />
<path d="M92747 77002
L92747 77395
" />
<path d="M92494 77002
L92494 77311
L92522 77367
L92578 77395
L92663 77395
L92719 77367
L92747 77339
" />
<path d="M93000 76861
L93028 76833
L93084 76805
L93225 76805
L93281 76833
L93309 76861
L93337 76917
L93337 76974
L93309 77058
L92972 77395
L93337 77395
" />
<path d="M93703 76805
L93759 76805
L93815 76833
L93844 76861
L93872 76917
L93900 77030
L93900 77170
L93872 77283
L93844 77339
L93815 77367
L93759 77395
L93703 77395
L93647 77367
L93619 77339
L93591 77283
L93562 77170
L93562 77030
L93591 76917
L93619 76861
L93647 76833
L93703 76805
" />
<path d="M94153 77339
L94181 77367
L94153 77395
L94125 77367
L94153 77339
L94153 77395
" />
<path d="M94547 76805
L94603 76805
L94659 76833
L94687 76861
L94715 76917
L94744 77030
L94744 77170
L94715 77283
L94687 77339
L94659 77367
L94603 77395
L94547 77395
L94490 77367
L94462 77339
L94434 77283
L94406 77170
L94406 77030
L94434 76917
L94462 76861
L94490 76833
L94547 76805
" />
<path d="M95250 77002
L95250 77395
" />
<path d="M95109 76777
L94968 77199
L95334 77199
" />
<path d="M95559 77339
L95587 77367
L95559 77395
L95531 77367
L95559 77339
L95559 77395
" />
<path d="M96150 77395
L95812 77395
" />
<path d="M95981 77395
L95981 76805
L95925 76889
L95868 76946
L95812 76974
" />
</g><path d="M69685 75396
L112205 75396
" />
</g>
<g style="fill:#840000; fill-opacity:0.0; 
stroke:#840000; stroke-width:118.110236; stroke-opacity:1; 
stroke-linecap:round; stroke-linejoin:round;">
<text x="103544.173228" y="76321.732283"
textLength="2928.385827" font-size="787.401575" lengthAdjust="spacingAndGlyphs"
text-anchor="start" opacity="0">Rev: B</text>
<g class="stroked-text"><desc>Rev: B</desc>
<path d="M104098 76293
L103902 76012
" />
<path d="M103761 76293
L103761 75703
L103986 75703
L104042 75731
L104070 75759
L104098 75815
L104098 75899
L104070 75956
L104042 75984
L103986 76012
L103761 76012
" />
<path d="M104577 76265
L104520 76293
L104408 76293
L104352 76265
L104323 76209
L104323 75984
L104352 75928
L104408 75899
L104520 75899
L104577 75928
L104605 75984
L104605 76040
L104323 76096
" />
<path d="M104802 75899
L104942 76293
L105083 75899
" />
<path d="M105308 76237
L105336 76265
L105308 76293
L105280 76265
L105308 76237
L105308 76293
" />
<path d="M105308 75928
L105336 75956
L105308 75984
L105280 75956
L105308 75928
L105308 75984
" />
<path d="M106236 75984
L106320 76012
L106348 76040
L106376 76096
L106376 76181
L106348 76237
L106320 76265
L106264 76293
L106039 76293
L106039 75703
L106236 75703
L106292 75731
L106320 75759
L106348 75815
L106348 75871
L106320 75928
L106292 75956
L106236 75984
L106039 75984
" />
</g></g>
<g style="fill:#840000; fill-opacity:0.0; 
stroke:#840000; stroke-width:60.000000; stroke-opacity:1; 
stroke-linecap:round; stroke-linejoin:round;">
<text x="70079.606299" y="76321.732283"
textLength="3781.220472" font-size="787.401575" lengthAdjust="spacingAndGlyphs"
text-anchor="start" opacity="0">Size: A4</text>
<g class="stroked-text"><desc>Size: A4</desc>
<path d="M70222 76265
L70306 76293
L70447 76293
L70503 76265
L70531 76237
L70559 76181
L70559 76124
L70531 76068
L70503 76040
L70447 76012
L70334 75984
L70278 75956
L70250 75928
L70222 75871
L70222 75815
L70250 75759
L70278 75731
L70334 75703
L70475 75703
L70559 75731
" />
<path d="M70812 76293
L70812 75899
" />
<path d="M70812 75703
L70784 75731
L70812 75759
L70840 75731
L70812 75703
L70812 75759
" />
<path d="M71037 75899
L71346 75899
L71037 76293
L71346 76293
" />
<path d="M71796 76265
L71740 76293
L71628 76293
L71571 76265
L71543 76209
L71543 75984
L71571 75928
L71628 75899
L71740 75899
L71796 75928
L71825 75984
L71825 76040
L71543 76096
" />
<path d="M72078 76237
L72106 76265
L72078 76293
L72049 76265
L72078 76237
L72078 76293
" />
<path d="M72078 75928
L72106 75956
L72078 75984
L72049 75956
L72078 75928
L72078 75984
" />
<path d="M72781 76124
L73062 76124
" />
<path d="M72724 76293
L72921 75703
L73118 76293
" />
<path d="M73568 75899
L73568 76293
" />
<path d="M73427 75674
L73287 76096
L73652 76096
" />
</g><text x="103544.173228" y="77424.094488"
textLength="4475.078740" font-size="787.401575" lengthAdjust="spacingAndGlyphs"
text-anchor="start" opacity="0">Id: 20/47</text>
<g class="stroked-text"><desc>Id: 20/47</desc>
<path d="M103714 77395
L103714 76805
" />
<path d="M104249 77395
L104249 76805
" />
<path d="M104249 77367
L104192 77395
L104080 77395
L104024 77367
L103995 77339
L103967 77283
L103967 77114
L103995 77058
L104024 77030
L104080 77002
L104192 77002
L104249 77030
" />
<path d="M104530 77339
L104558 77367
L104530 77395
L104502 77367
L104530 77339
L104530 77395
" />
<path d="M104530 77030
L104558 77058
L104530 77086
L104502 77058
L104530 77030
L104530 77086
" />
<path d="M105233 76861
L105261 76833
L105317 76805
L105458 76805
L105514 76833
L105542 76861
L105570 76917
L105570 76974
L105542 77058
L105205 77395
L105570 77395
" />
<path d="M105936 76805
L105992 76805
L106048 76833
L106076 76861
L106105 76917
L106133 77030
L106133 77170
L106105 77283
L106076 77339
L106048 77367
L105992 77395
L105936 77395
L105880 77367
L105852 77339
L105823 77283
L105795 77170
L105795 77030
L105823 76917
L105852 76861
L105880 76833
L105936 76805
" />
<path d="M106808 76777
L106301 77536
" />
<path d="M107258 77002
L107258 77395
" />
<path d="M107117 76777
L106976 77199
L107342 77199
" />
<path d="M107511 76805
L107904 76805
L107651 77395
" />
</g><path d="M69685 73821
L112205 73821
" />
</g>
<g style="fill:#840000; fill-opacity:0.0; 
stroke:#840000; stroke-width:157.480315; stroke-opacity:1; 
stroke-linecap:round; stroke-linejoin:round;">
<text x="70079.606299" y="74924.094488"
textLength="21365.826772" font-size="1049.842520" lengthAdjust="spacingAndGlyphs"
text-anchor="start" opacity="0">Title: Combined RGB LED and SPST</text>
<g class="stroked-text"><desc>Title: Combined RGB LED and SPST</desc>
<path d="M70360 74099
L70810 74099
" />
<path d="M70486 74886
L70585 74099
" />
<path d="M70974 74886
L71039 74361
" />
<path d="M71072 74099
L71030 74136
L71063 74174
L71105 74136
L71072 74099
L71063 74174
" />
<path d="M71302 74361
L71602 74361
" />
<path d="M71447 74099
L71363 74774
L71391 74849
L71461 74886
L71536 74886
" />
<path d="M71911 74886
L71841 74849
L71812 74774
L71897 74099
" />
<path d="M72516 74849
L72436 74886
L72286 74886
L72216 74849
L72187 74774
L72225 74474
L72272 74399
L72352 74361
L72501 74361
L72572 74399
L72600 74474
L72591 74549
L72206 74624
" />
<path d="M72895 74811
L72928 74849
L72886 74886
L72853 74849
L72895 74811
L72886 74886
" />
<path d="M72947 74399
L72980 74436
L72937 74474
L72905 74436
L72947 74399
L72937 74474
" />
<path d="M74320 74811
L74278 74849
L74161 74886
L74086 74886
L73978 74849
L73912 74774
L73884 74699
L73865 74549
L73879 74436
L73936 74286
L73983 74211
L74067 74136
L74184 74099
L74259 74099
L74367 74136
L74400 74174
" />
<path d="M74761 74886
L74690 74849
L74657 74811
L74629 74736
L74657 74511
L74704 74436
L74747 74399
L74826 74361
L74939 74361
L75009 74399
L75042 74436
L75070 74511
L75042 74736
L74995 74811
L74953 74849
L74873 74886
L74761 74886
" />
<path d="M75360 74886
L75426 74361
" />
<path d="M75417 74436
L75459 74399
L75539 74361
L75651 74361
L75721 74399
L75750 74474
L75698 74886
" />
<path d="M75750 74474
L75796 74399
L75876 74361
L75989 74361
L76059 74399
L76087 74474
L76035 74886
" />
<path d="M76410 74886
L76509 74099
" />
<path d="M76471 74399
L76551 74361
L76701 74361
L76771 74399
L76804 74436
L76832 74511
L76804 74736
L76757 74811
L76715 74849
L76635 74886
L76485 74886
L76415 74849
" />
<path d="M77123 74886
L77188 74361
" />
<path d="M77221 74099
L77179 74136
L77212 74174
L77254 74136
L77221 74099
L77212 74174
" />
<path d="M77563 74361
L77498 74886
" />
<path d="M77554 74436
L77596 74399
L77676 74361
L77788 74361
L77859 74399
L77887 74474
L77835 74886
" />
<path d="M78515 74849
L78435 74886
L78285 74886
L78215 74849
L78187 74774
L78224 74474
L78271 74399
L78351 74361
L78501 74361
L78571 74399
L78599 74474
L78590 74549
L78205 74624
" />
<path d="M79222 74886
L79321 74099
" />
<path d="M79227 74849
L79148 74886
L78998 74886
L78927 74849
L78894 74811
L78866 74736
L78894 74511
L78941 74436
L78983 74399
L79063 74361
L79213 74361
L79283 74399
" />
<path d="M80647 74886
L80432 74511
" />
<path d="M80197 74886
L80296 74099
L80596 74099
L80666 74136
L80699 74174
L80727 74249
L80713 74361
L80666 74436
L80624 74474
L80544 74511
L80244 74511
" />
<path d="M81491 74136
L81421 74099
L81308 74099
L81191 74136
L81107 74211
L81060 74286
L81004 74436
L80989 74549
L81008 74699
L81036 74774
L81102 74849
L81210 74886
L81285 74886
L81402 74849
L81444 74811
L81477 74549
L81327 74549
" />
<path d="M82086 74474
L82194 74511
L82227 74549
L82255 74624
L82241 74736
L82194 74811
L82152 74849
L82072 74886
L81772 74886
L81871 74099
L82133 74099
L82203 74136
L82236 74174
L82264 74249
L82255 74324
L82208 74399
L82166 74436
L82086 74474
L81824 74474
" />
<path d="M83534 74886
L83160 74886
L83258 74099
" />
<path d="M83848 74474
L84111 74474
" />
<path d="M84172 74886
L83797 74886
L83895 74099
L84270 74099
" />
<path d="M84509 74886
L84608 74099
L84795 74099
L84903 74136
L84969 74211
L84997 74286
L85016 74436
L85001 74549
L84945 74699
L84898 74774
L84814 74849
L84697 74886
L84509 74886
" />
<path d="M86234 74886
L86286 74474
L86258 74399
L86187 74361
L86037 74361
L85958 74399
" />
<path d="M86239 74849
L86159 74886
L85972 74886
L85901 74849
L85873 74774
L85883 74699
L85930 74624
L86009 74586
L86197 74586
L86276 74549
" />
<path d="M86675 74361
L86609 74886
" />
<path d="M86665 74436
L86707 74399
L86787 74361
L86900 74361
L86970 74399
L86998 74474
L86947 74886
" />
<path d="M87659 74886
L87757 74099
" />
<path d="M87664 74849
L87584 74886
L87434 74886
L87364 74849
L87331 74811
L87303 74736
L87331 74511
L87378 74436
L87420 74399
L87500 74361
L87650 74361
L87720 74399
" />
<path d="M88601 74849
L88709 74886
L88896 74886
L88976 74849
L89018 74811
L89065 74736
L89074 74661
L89046 74586
L89013 74549
L88943 74511
L88798 74474
L88728 74436
L88695 74399
L88667 74324
L88676 74249
L88723 74174
L88765 74136
L88845 74099
L89032 74099
L89140 74136
" />
<path d="M89384 74886
L89482 74099
L89782 74099
L89852 74136
L89885 74174
L89913 74249
L89899 74361
L89852 74436
L89810 74474
L89731 74511
L89431 74511
" />
<path d="M90138 74849
L90246 74886
L90434 74886
L90513 74849
L90555 74811
L90602 74736
L90612 74661
L90584 74586
L90551 74549
L90480 74511
L90335 74474
L90265 74436
L90232 74399
L90204 74324
L90213 74249
L90260 74174
L90302 74136
L90382 74099
L90570 74099
L90677 74136
" />
<path d="M90907 74099
L91357 74099
" />
<path d="M91034 74886
L91132 74099
" />
</g></g>
<g style="fill:#840000; fill-opacity:0.0; 
stroke:#840000; stroke-width:60.000000; stroke-opacity:1; 
stroke-linecap:round; stroke-linejoin:round;">
<text x="70079.606299" y="73408.346457"
textLength="12634.409449" font-size="787.401575" lengthAdjust="spacingAndGlyphs"
text-anchor="start" opacity="0">File: LED_PCB_SW.kicad_sch</text>
<g class="stroked-text"><desc>File: LED_PCB_SW.kicad_sch</desc>
<path d="M70447 73070
L70250 73070
" />
<path d="M70250 73380
L70250 72789
L70531 72789
" />
<path d="M70756 73380
L70756 72986
" />
<path d="M70756 72789
L70728 72817
L70756 72845
L70784 72817
L70756 72789
L70756 72845
" />
<path d="M71121 73380
L71065 73352
L71037 73295
L71037 72789
" />
<path d="M71571 73352
L71515 73380
L71403 73380
L71346 73352
L71318 73295
L71318 73070
L71346 73014
L71403 72986
L71515 72986
L71571 73014
L71600 73070
L71600 73127
L71318 73183
" />
<path d="M71853 73323
L71881 73352
L71853 73380
L71825 73352
L71853 73323
L71853 73380
" />
<path d="M71853 73014
L71881 73042
L71853 73070
L71825 73042
L71853 73014
L71853 73070
" />
<path d="M72865 73380
L72584 73380
L72584 72789
" />
<path d="M73062 73070
L73259 73070
" />
<path d="M73343 73380
L73062 73380
L73062 72789
L73343 72789
" />
<path d="M73596 73380
L73596 72789
L73737 72789
L73821 72817
L73877 72874
L73905 72930
L73934 73042
L73934 73127
L73905 73239
L73877 73295
L73821 73352
L73737 73380
L73596 73380
" />
<path d="M74046 73436
L74496 73436
" />
<path d="M74637 73380
L74637 72789
L74862 72789
L74918 72817
L74946 72845
L74974 72902
L74974 72986
L74946 73042
L74918 73070
L74862 73098
L74637 73098
" />
<path d="M75565 73323
L75537 73352
L75452 73380
L75396 73380
L75312 73352
L75255 73295
L75227 73239
L75199 73127
L75199 73042
L75227 72930
L75255 72874
L75312 72817
L75396 72789
L75452 72789
L75537 72817
L75565 72845
" />
<path d="M76015 73070
L76099 73098
L76127 73127
L76155 73183
L76155 73267
L76127 73323
L76099 73352
L76043 73380
L75818 73380
L75818 72789
L76015 72789
L76071 72817
L76099 72845
L76127 72902
L76127 72958
L76099 73014
L76071 73042
L76015 73070
L75818 73070
" />
<path d="M76268 73436
L76718 73436
" />
<path d="M76830 73352
L76915 73380
L77055 73380
L77111 73352
L77139 73323
L77168 73267
L77168 73211
L77139 73155
L77111 73127
L77055 73098
L76943 73070
L76886 73042
L76858 73014
L76830 72958
L76830 72902
L76858 72845
L76886 72817
L76943 72789
L77083 72789
L77168 72817
" />
<path d="M77364 72789
L77505 73380
L77618 72958
L77730 73380
L77871 72789
" />
<path d="M78096 73323
L78124 73352
L78096 73380
L78067 73352
L78096 73323
L78096 73380
" />
<path d="M78377 73380
L78377 72789
" />
<path d="M78433 73155
L78602 73380
" />
<path d="M78602 72986
L78377 73211
" />
<path d="M78855 73380
L78855 72986
" />
<path d="M78855 72789
L78827 72817
L78855 72845
L78883 72817
L78855 72789
L78855 72845
" />
<path d="M79389 73352
L79333 73380
L79220 73380
L79164 73352
L79136 73323
L79108 73267
L79108 73098
L79136 73042
L79164 73014
L79220 72986
L79333 72986
L79389 73014
" />
<path d="M79895 73380
L79895 73070
L79867 73014
L79811 72986
L79699 72986
L79642 73014
" />
<path d="M79895 73352
L79839 73380
L79699 73380
L79642 73352
L79614 73295
L79614 73239
L79642 73183
L79699 73155
L79839 73155
L79895 73127
" />
<path d="M80430 73380
L80430 72789
" />
<path d="M80430 73352
L80373 73380
L80261 73380
L80205 73352
L80177 73323
L80148 73267
L80148 73098
L80177 73042
L80205 73014
L80261 72986
L80373 72986
L80430 73014
" />
<path d="M80570 73436
L81020 73436
" />
<path d="M81133 73352
L81189 73380
L81301 73380
L81358 73352
L81386 73295
L81386 73267
L81358 73211
L81301 73183
L81217 73183
L81161 73155
L81133 73098
L81133 73070
L81161 73014
L81217 72986
L81301 72986
L81358 73014
" />
<path d="M81892 73352
L81836 73380
L81723 73380
L81667 73352
L81639 73323
L81611 73267
L81611 73098
L81639 73042
L81667 73014
L81723 72986
L81836 72986
L81892 73014
" />
<path d="M82145 73380
L82145 72789
" />
<path d="M82398 73380
L82398 73070
L82370 73014
L82314 72986
L82229 72986
L82173 73014
L82145 73042
" />
</g><path d="M69685 71459
L112205 71459
" />
<text x="70079.606299" y="72345.354331"
textLength="27787.795276" font-size="787.401575" lengthAdjust="spacingAndGlyphs"
text-anchor="start" opacity="0">Sheet: /Input Keyscan and RGB LED Driver/LED_PCB_SW_21/</text>
<g class="stroked-text"><desc>Sheet: /Input Keyscan and RGB LED Driver/LED_PCB_SW_21/</desc>
<path d="M70222 72289
L70306 72317
L70447 72317
L70503 72289
L70531 72260
L70559 72204
L70559 72148
L70531 72092
L70503 72064
L70447 72035
L70334 72007
L70278 71979
L70250 71951
L70222 71895
L70222 71839
L70250 71782
L70278 71754
L70334 71726
L70475 71726
L70559 71754
" />
<path d="M70812 72317
L70812 71726
" />
<path d="M71065 72317
L71065 72007
L71037 71951
L70981 71923
L70897 71923
L70840 71951
L70812 71979
" />
<path d="M71571 72289
L71515 72317
L71403 72317
L71346 72289
L71318 72232
L71318 72007
L71346 71951
L71403 71923
L71515 71923
L71571 71951
L71600 72007
L71600 72064
L71318 72120
" />
<path d="M72078 72289
L72021 72317
L71909 72317
L71853 72289
L71825 72232
L71825 72007
L71853 71951
L71909 71923
L72021 71923
L72078 71951
L72106 72007
L72106 72064
L71825 72120
" />
<path d="M72274 71923
L72499 71923
" />
<path d="M72359 71726
L72359 72232
L72387 72289
L72443 72317
L72499 72317
" />
<path d="M72696 72260
L72724 72289
L72696 72317
L72668 72289
L72696 72260
L72696 72317
" />
<path d="M72696 71951
L72724 71979
L72696 72007
L72668 71979
L72696 71951
L72696 72007
" />
<path d="M73849 71698
L73343 72457
" />
<path d="M74046 72317
L74046 71726
" />
<path d="M74327 71923
L74327 72317
" />
<path d="M74327 71979
L74355 71951
L74412 71923
L74496 71923
L74552 71951
L74580 72007
L74580 72317
" />
<path d="M74862 71923
L74862 72514
" />
<path d="M74862 71951
L74918 71923
L75030 71923
L75087 71951
L75115 71979
L75143 72035
L75143 72204
L75115 72260
L75087 72289
L75030 72317
L74918 72317
L74862 72289
" />
<path d="M75649 71923
L75649 72317
" />
<path d="M75396 71923
L75396 72232
L75424 72289
L75480 72317
L75565 72317
L75621 72289
L75649 72260
" />
<path d="M75846 71923
L76071 71923
" />
<path d="M75930 71726
L75930 72232
L75958 72289
L76015 72317
L76071 72317
" />
<path d="M76718 72317
L76718 71726
" />
<path d="M77055 72317
L76802 71979
" />
<path d="M77055 71726
L76718 72064
" />
<path d="M77533 72289
L77477 72317
L77364 72317
L77308 72289
L77280 72232
L77280 72007
L77308 71951
L77364 71923
L77477 71923
L77533 71951
L77561 72007
L77561 72064
L77280 72120
" />
<path d="M77758 71923
L77899 72317
" />
<path d="M78039 71923
L77899 72317
L77842 72457
L77814 72485
L77758 72514
" />
<path d="M78236 72289
L78292 72317
L78405 72317
L78461 72289
L78489 72232
L78489 72204
L78461 72148
L78405 72120
L78321 72120
L78264 72092
L78236 72035
L78236 72007
L78264 71951
L78321 71923
L78405 71923
L78461 71951
" />
<path d="M78995 72289
L78939 72317
L78827 72317
L78771 72289
L78742 72260
L78714 72204
L78714 72035
L78742 71979
L78771 71951
L78827 71923
L78939 71923
L78995 71951
" />
<path d="M79502 72317
L79502 72007
L79474 71951
L79417 71923
L79305 71923
L79249 71951
" />
<path d="M79502 72289
L79445 72317
L79305 72317
L79249 72289
L79220 72232
L79220 72176
L79249 72120
L79305 72092
L79445 72092
L79502 72064
" />
<path d="M79783 71923
L79783 72317
" />
<path d="M79783 71979
L79811 71951
L79867 71923
L79952 71923
L80008 71951
L80036 72007
L80036 72317
" />
<path d="M81020 72317
L81020 72007
L80992 71951
L80936 71923
L80823 71923
L80767 71951
" />
<path d="M81020 72289
L80964 72317
L80823 72317
L80767 72289
L80739 72232
L80739 72176
L80767 72120
L80823 72092
L80964 72092
L81020 72064
" />
<path d="M81301 71923
L81301 72317
" />
<path d="M81301 71979
L81330 71951
L81386 71923
L81470 71923
L81526 71951
L81555 72007
L81555 72317
" />
<path d="M82089 72317
L82089 71726
" />
<path d="M82089 72289
L82033 72317
L81920 72317
L81864 72289
L81836 72260
L81808 72204
L81808 72035
L81836 71979
L81864 71951
L81920 71923
L82033 71923
L82089 71951
" />
<path d="M83157 72317
L82961 72035
" />
<path d="M82820 72317
L82820 71726
L83045 71726
L83101 71754
L83129 71782
L83157 71839
L83157 71923
L83129 71979
L83101 72007
L83045 72035
L82820 72035
" />
<path d="M83720 71754
L83664 71726
L83579 71726
L83495 71754
L83439 71811
L83411 71867
L83382 71979
L83382 72064
L83411 72176
L83439 72232
L83495 72289
L83579 72317
L83636 72317
L83720 72289
L83748 72260
L83748 72064
L83636 72064
" />
<path d="M84198 72007
L84282 72035
L84310 72064
L84339 72120
L84339 72204
L84310 72260
L84282 72289
L84226 72317
L84001 72317
L84001 71726
L84198 71726
L84254 71754
L84282 71782
L84310 71839
L84310 71895
L84282 71951
L84254 71979
L84198 72007
L84001 72007
" />
<path d="M85323 72317
L85042 72317
L85042 71726
" />
<path d="M85520 72007
L85717 72007
" />
<path d="M85801 72317
L85520 72317
L85520 71726
L85801 71726
" />
<path d="M86054 72317
L86054 71726
L86195 71726
L86279 71754
L86335 71811
L86363 71867
L86391 71979
L86391 72064
L86363 72176
L86335 72232
L86279 72289
L86195 72317
L86054 72317
" />
<path d="M87094 72317
L87094 71726
L87235 71726
L87319 71754
L87376 71811
L87404 71867
L87432 71979
L87432 72064
L87404 72176
L87376 72232
L87319 72289
L87235 72317
L87094 72317
" />
<path d="M87685 72317
L87685 71923
" />
<path d="M87685 72035
L87713 71979
L87741 71951
L87797 71923
L87854 71923
" />
<path d="M88051 72317
L88051 71923
" />
<path d="M88051 71726
L88022 71754
L88051 71782
L88079 71754
L88051 71726
L88051 71782
" />
<path d="M88276 71923
L88416 72317
L88557 71923
" />
<path d="M89007 72289
L88950 72317
L88838 72317
L88782 72289
L88754 72232
L88754 72007
L88782 71951
L88838 71923
L88950 71923
L89007 71951
L89035 72007
L89035 72064
L88754 72120
" />
<path d="M89288 72317
L89288 71923
" />
<path d="M89288 72035
L89316 71979
L89344 71951
L89400 71923
L89457 71923
" />
<path d="M90075 71698
L89569 72457
" />
<path d="M90553 72317
L90272 72317
L90272 71726
" />
<path d="M90750 72007
L90947 72007
" />
<path d="M91031 72317
L90750 72317
L90750 71726
L91031 71726
" />
<path d="M91285 72317
L91285 71726
L91425 71726
L91510 71754
L91566 71811
L91594 71867
L91622 71979
L91622 72064
L91594 72176
L91566 72232
L91510 72289
L91425 72317
L91285 72317
" />
<path d="M91735 72373
L92184 72373
" />
<path d="M92325 72317
L92325 71726
L92550 71726
L92606 71754
L92634 71782
L92663 71839
L92663 71923
L92634 71979
L92606 72007
L92550 72035
L92325 72035
" />
<path d="M93253 72260
L93225 72289
L93141 72317
L93084 72317
L93000 72289
L92944 72232
L92916 72176
L92887 72064
L92887 71979
L92916 71867
L92944 71811
L93000 71754
L93084 71726
L93141 71726
L93225 71754
L93253 71782
" />
<path d="M93703 72007
L93787 72035
L93815 72064
L93844 72120
L93844 72204
L93815 72260
L93787 72289
L93731 72317
L93506 72317
L93506 71726
L93703 71726
L93759 71754
L93787 71782
L93815 71839
L93815 71895
L93787 71951
L93759 71979
L93703 72007
L93506 72007
" />
<path d="M93956 72373
L94406 72373
" />
<path d="M94519 72289
L94603 72317
L94744 72317
L94800 72289
L94828 72260
L94856 72204
L94856 72148
L94828 72092
L94800 72064
L94744 72035
L94631 72007
L94575 71979
L94547 71951
L94519 71895
L94519 71839
L94547 71782
L94575 71754
L94631 71726
L94772 71726
L94856 71754
" />
<path d="M95053 71726
L95193 72317
L95306 71895
L95418 72317
L95559 71726
" />
<path d="M95643 72373
L96093 72373
" />
<path d="M96206 71782
L96234 71754
L96290 71726
L96431 71726
L96487 71754
L96515 71782
L96543 71839
L96543 71895
L96515 71979
L96178 72317
L96543 72317
" />
<path d="M97106 72317
L96768 72317
" />
<path d="M96937 72317
L96937 71726
L96881 71811
L96825 71867
L96768 71895
" />
<path d="M97781 71698
L97274 72457
" />
</g></g>
<g style="fill:#840000; fill-opacity:0.0; 
stroke:#840000; stroke-width:118.110236; stroke-opacity:1; 
stroke-linecap:round; stroke-linejoin:round;">
<text x="70079.606299" y="71164.251969"
textLength="9199.488189" font-size="787.401575" lengthAdjust="spacingAndGlyphs"
text-anchor="start" opacity="0">Created by C Sutton</text>
<g class="stroked-text"><desc>Created by C Sutton</desc>
<path d="M70634 71079
L70606 71107
L70521 71136
L70465 71136
L70381 71107
L70325 71051
L70296 70995
L70268 70883
L70268 70798
L70296 70686
L70325 70629
L70381 70573
L70465 70545
L70521 70545
L70606 70573
L70634 70601
" />
<path d="M70887 71136
L70887 70742
" />
<path d="M70887 70854
L70915 70798
L70943 70770
L71000 70742
L71056 70742
" />
<path d="M71478 71107
L71421 71136
L71309 71136
L71253 71107
L71224 71051
L71224 70826
L71253 70770
L71309 70742
L71421 70742
L71478 70770
L71506 70826
L71506 70883
L71224 70939
" />
<path d="M72012 71136
L72012 70826
L71984 70770
L71928 70742
L71815 70742
L71759 70770
" />
<path d="M72012 71107
L71956 71136
L71815 71136
L71759 71107
L71731 71051
L71731 70995
L71759 70939
L71815 70911
L71956 70911
L72012 70883
" />
<path d="M72209 70742
L72434 70742
" />
<path d="M72293 70545
L72293 71051
L72321 71107
L72377 71136
L72434 71136
" />
<path d="M72856 71107
L72799 71136
L72687 71136
L72631 71107
L72602 71051
L72602 70826
L72631 70770
L72687 70742
L72799 70742
L72856 70770
L72884 70826
L72884 70883
L72602 70939
" />
<path d="M73390 71136
L73390 70545
" />
<path d="M73390 71107
L73334 71136
L73221 71136
L73165 71107
L73137 71079
L73109 71023
L73109 70854
L73137 70798
L73165 70770
L73221 70742
L73334 70742
L73390 70770
" />
<path d="M74121 71136
L74121 70545
" />
<path d="M74121 70770
L74177 70742
L74290 70742
L74346 70770
L74374 70798
L74402 70854
L74402 71023
L74374 71079
L74346 71107
L74290 71136
L74177 71136
L74121 71107
" />
<path d="M74599 70742
L74740 71136
" />
<path d="M74880 70742
L74740 71136
L74683 71276
L74655 71304
L74599 71332
" />
<path d="M75893 71079
L75865 71107
L75780 71136
L75724 71136
L75640 71107
L75583 71051
L75555 70995
L75527 70883
L75527 70798
L75555 70686
L75583 70629
L75640 70573
L75724 70545
L75780 70545
L75865 70573
L75893 70601
" />
<path d="M76568 71107
L76652 71136
L76793 71136
L76849 71107
L76877 71079
L76905 71023
L76905 70967
L76877 70911
L76849 70883
L76793 70854
L76680 70826
L76624 70798
L76596 70770
L76568 70714
L76568 70658
L76596 70601
L76624 70573
L76680 70545
L76821 70545
L76905 70573
" />
<path d="M77411 70742
L77411 71136
" />
<path d="M77158 70742
L77158 71051
L77186 71107
L77242 71136
L77327 71136
L77383 71107
L77411 71079
" />
<path d="M77608 70742
L77833 70742
" />
<path d="M77692 70545
L77692 71051
L77721 71107
L77777 71136
L77833 71136
" />
<path d="M77946 70742
L78170 70742
" />
<path d="M78030 70545
L78030 71051
L78058 71107
L78114 71136
L78170 71136
" />
<path d="M78452 71136
L78395 71107
L78367 71079
L78339 71023
L78339 70854
L78367 70798
L78395 70770
L78452 70742
L78536 70742
L78592 70770
L78620 70798
L78649 70854
L78649 71023
L78620 71079
L78592 71107
L78536 71136
L78452 71136
" />
<path d="M78902 70742
L78902 71136
" />
<path d="M78902 70798
L78930 70770
L78986 70742
L79070 70742
L79127 70770
L79155 70826
L79155 71136
" />
</g></g>
<g style="fill:#840000; fill-opacity:0.0; 
stroke:#840000; stroke-width:60.000000; stroke-opacity:1; 
stroke-linecap:round; stroke-linejoin:round;">
<text x="70079.606299" y="69983.149606"
textLength="153.543307" font-size="787.401575" lengthAdjust="spacingAndGlyphs"
text-anchor="start" opacity="0"></text>
<g class="stroked-text"><desc></desc>
</g><text x="70079.606299" y="68802.047244"
textLength="60.000000" font-size="787.401575" lengthAdjust="spacingAndGlyphs"
text-anchor="start" opacity="0"></text>
<g class="stroked-text"><desc></desc>
</g><text x="70079.606299" y="67620.944882"
textLength="60.000000" font-size="787.401575" lengthAdjust="spacingAndGlyphs"
text-anchor="start" opacity="0"></text>
<g class="stroked-text"><desc></desc>
</g><text x="70079.606299" y="66439.842520"
textLength="60.000000" font-size="787.401575" lengthAdjust="spacingAndGlyphs"
text-anchor="start" opacity="0"></text>
<g class="stroked-text"><desc></desc>
</g><path d="M77559 75396
L77559 76577
" />
<path d="M102756 75396
L102756 77955
" />
<g >
</g>
<g style="fill:#FFFFC2; fill-opacity:0.0; 
stroke:#FFFFC2; stroke-width:60.000000; stroke-opacity:1; 
stroke-linecap:round; stroke-linejoin:round;">
</g>
<g style="fill:#FFFFC2; fill-opacity:0.6; 
stroke:#FFFFC2; stroke-width:0.039370; stroke-opacity:1; 
stroke-linecap:round; stroke-linejoin:round;">
<rect x="59750.000000" y="33500.000000" width="5000.000000" height="10000.000000" rx="0.000000" />
</g>
<g style="fill:#840000; fill-opacity:0.6; 
stroke:#840000; stroke-width:0.039370; stroke-opacity:1; 
stroke-linecap:round; stroke-linejoin:round;">
</g>
<g style="fill:#840000; fill-opacity:0.0; 
stroke:#840000; stroke-width:60.000000; stroke-opacity:1; 
stroke-linecap:round; stroke-linejoin:round;">
<rect x="59750.000000" y="33500.000000" width="5000.000000" height="10000.000000" rx="0.000000" />
<rect x="59750.000000" y="33500.000000" width="5000.000000" height="10000.000000" rx="0.000000" />
<line x1="63250.000000" y1="42500.000000" x2="63750.000000" y2="42500.000000" />
<line x1="60750.000000" y1="42500.000000" x2="61250.000000" y2="42500.000000" />
<line x1="60750.000000" y1="42500.000000" x2="60750.000000" y2="42500.000000" />
<circle cx="63050.000000" cy="42500.000000" r="200.000000" /> 
<circle cx="63050.000000" cy="42500.000000" r="200.000000" /> 
<path style="fill:#840000; fill-opacity:0.0; 
stroke:#840000; stroke-width:60.000000; stroke-opacity:1; 
stroke-linecap:round; stroke-linejoin:round;fill:none"
d="M 62850.000000,42400.000000
61650.000000,41800.000000
" /> 
<path style="fill:#840000; fill-opacity:0.0; 
stroke:#840000; stroke-width:60.000000; stroke-opacity:1; 
stroke-linecap:round; stroke-linejoin:round;fill:none"
d="M 62850.000000,42400.000000
61650.000000,41800.000000
" /> 
<path style="fill:#840000; fill-opacity:0.0; 
stroke:#840000; stroke-width:60.000000; stroke-opacity:1; 
stroke-linecap:round; stroke-linejoin:round;fill:none"
d="M 62750.000000,40000.000000
63250.000000,40000.000000
" /> 
<path style="fill:#840000; fill-opacity:0.0; 
stroke:#840000; stroke-width:60.000000; stroke-opacity:1; 
stroke-linecap:round; stroke-linejoin:round;fill:none"
d="M 62750.000000,40000.000000
61750.000000,40000.000000
" /> 
</g>
<g style="fill:#840000; fill-opacity:0.0; 
stroke:#840000; stroke-width:100.000000; stroke-opacity:1; 
stroke-linecap:round; stroke-linejoin:round;">
<path style="fill:#840000; fill-opacity:0.0; 
stroke:#840000; stroke-width:100.000000; stroke-opacity:1; 
stroke-linecap:round; stroke-linejoin:round;fill:none"
d="M 62750.000000,39500.000000
62750.000000,40500.000000
" /> 
</g>
<g style="fill:#840000; fill-opacity:0.0; 
stroke:#840000; stroke-width:60.000000; stroke-opacity:1; 
stroke-linecap:round; stroke-linejoin:round;">
<path style="fill:#840000; fill-opacity:0.0; 
stroke:#840000; stroke-width:60.000000; stroke-opacity:1; 
stroke-linecap:round; stroke-linejoin:round;fill:none"
d="M 62750.000000,37500.000000
63250.000000,37500.000000
" /> 
</g>
<g style="fill:#840000; fill-opacity:0.0; 
stroke:#840000; stroke-width:100.000000; stroke-opacity:1; 
stroke-linecap:round; stroke-linejoin:round;">
<path style="fill:#840000; fill-opacity:0.0; 
stroke:#840000; stroke-width:100.000000; stroke-opacity:1; 
stroke-linecap:round; stroke-linejoin:round;fill:none"
d="M 62750.000000,37000.000000
62750.000000,38000.000000
" /> 
</g>
<g style="fill:#840000; fill-opacity:0.0; 
stroke:#840000; stroke-width:60.000000; stroke-opacity:1; 
stroke-linecap:round; stroke-linejoin:round;">
<path style="fill:#840000; fill-opacity:0.0; 
stroke:#840000; stroke-width:60.000000; stroke-opacity:1; 
stroke-linecap:round; stroke-linejoin:round;fill:none"
d="M 62750.000000,35000.000000
63250.000000,35000.000000
" /> 
<path style="fill:#840000; fill-opacity:0.0; 
stroke:#840000; stroke-width:60.000000; stroke-opacity:1; 
stroke-linecap:round; stroke-linejoin:round;fill:none"
d="M 62750.000000,35000.000000
61750.000000,35000.000000
" /> 
</g>
<g style="fill:#840000; fill-opacity:0.0; 
stroke:#840000; stroke-width:100.000000; stroke-opacity:1; 
stroke-linecap:round; stroke-linejoin:round;">
<path style="fill:#840000; fill-opacity:0.0; 
stroke:#840000; stroke-width:100.000000; stroke-opacity:1; 
stroke-linecap:round; stroke-linejoin:round;fill:none"
d="M 62750.000000,34500.000000
62750.000000,35500.000000
" /> 
</g>
<g style="fill:#840000; fill-opacity:0.0; 
stroke:#840000; stroke-width:60.000000; stroke-opacity:1; 
stroke-linecap:round; stroke-linejoin:round;">
<path style="fill:#840000; fill-opacity:0.0; 
stroke:#840000; stroke-width:60.000000; stroke-opacity:1; 
stroke-linecap:round; stroke-linejoin:round;fill:none"
d="M 61750.000000,40000.000000
61250.000000,40000.000000
" /> 
<path style="fill:#840000; fill-opacity:0.0; 
stroke:#840000; stroke-width:60.000000; stroke-opacity:1; 
stroke-linecap:round; stroke-linejoin:round;fill:none"
d="M 61750.000000,37500.000000
62750.000000,37500.000000
" /> 
<path style="fill:#840000; fill-opacity:0.0; 
stroke:#840000; stroke-width:60.000000; stroke-opacity:1; 
stroke-linecap:round; stroke-linejoin:round;fill:none"
d="M 61750.000000,37500.000000
61250.000000,37500.000000
" /> 
<path style="fill:#840000; fill-opacity:0.0; 
stroke:#840000; stroke-width:60.000000; stroke-opacity:1; 
stroke-linecap:round; stroke-linejoin:round;fill:none"
d="M 61750.000000,35000.000000
61250.000000,35000.000000
" /> 
<path style="fill:#840000; fill-opacity:0.0; 
stroke:#840000; stroke-width:60.000000; stroke-opacity:1; 
stroke-linecap:round; stroke-linejoin:round;fill:none"
d="M 62750.000000,39500.000000
62750.000000,40500.000000
62750.000000,40500.000000
" /> 
<path style="fill:#840000; fill-opacity:0.0; 
stroke:#840000; stroke-width:60.000000; stroke-opacity:1; 
stroke-linecap:round; stroke-linejoin:round;fill:none"
d="M 62750.000000,37000.000000
62750.000000,38000.000000
62750.000000,38000.000000
" /> 
</g>
<g style="fill:#840000; fill-opacity:0.0; 
stroke:#840000; stroke-width:100.000000; stroke-opacity:1; 
stroke-linecap:round; stroke-linejoin:round;">
<path style="fill:#840000; fill-opacity:0.0; 
stroke:#840000; stroke-width:100.000000; stroke-opacity:1; 
stroke-linecap:round; stroke-linejoin:round;fill:none"
d="M 61750.000000,39500.000000
61750.000000,40500.000000
62750.000000,40000.000000
Z" /> 
<path style="fill:#840000; fill-opacity:0.0; 
stroke:#840000; stroke-width:100.000000; stroke-opacity:1; 
stroke-linecap:round; stroke-linejoin:round;fill:none"
d="M 61750.000000,37000.000000
61750.000000,38000.000000
62750.000000,37500.000000
Z" /> 
<path style="fill:#840000; fill-opacity:0.0; 
stroke:#840000; stroke-width:100.000000; stroke-opacity:1; 
stroke-linecap:round; stroke-linejoin:round;fill:none"
d="M 61750.000000,34500.000000
61750.000000,35500.000000
62750.000000,35000.000000
Z" /> 
</g>
<g style="fill:#840000; fill-opacity:0.0; 
stroke:#840000; stroke-width:60.000000; stroke-opacity:1; 
stroke-linecap:round; stroke-linejoin:round;">
<path style="fill:#840000; fill-opacity:0.0; 
stroke:#840000; stroke-width:60.000000; stroke-opacity:1; 
stroke-linecap:round; stroke-linejoin:round;fill:none"
d="M 62650.000000,39500.000000
62050.000000,38900.000000
62350.000000,38900.000000
62050.000000,38900.000000
62050.000000,39200.000000
" /> 
<path style="fill:#840000; fill-opacity:0.0; 
stroke:#840000; stroke-width:60.000000; stroke-opacity:1; 
stroke-linecap:round; stroke-linejoin:round;fill:none"
d="M 62650.000000,37000.000000
62050.000000,36400.000000
62350.000000,36400.000000
62050.000000,36400.000000
62050.000000,36700.000000
" /> 
<path style="fill:#840000; fill-opacity:0.0; 
stroke:#840000; stroke-width:60.000000; stroke-opacity:1; 
stroke-linecap:round; stroke-linejoin:round;fill:none"
d="M 62650.000000,34500.000000
62050.000000,33900.000000
62350.000000,33900.000000
62050.000000,33900.000000
62050.000000,34200.000000
" /> 
<path style="fill:#840000; fill-opacity:0.0; 
stroke:#840000; stroke-width:60.000000; stroke-opacity:1; 
stroke-linecap:round; stroke-linejoin:round;fill:none"
d="M 62250.000000,39500.000000
61650.000000,38900.000000
61950.000000,38900.000000
61650.000000,38900.000000
61650.000000,39200.000000
" /> 
<path style="fill:#840000; fill-opacity:0.0; 
stroke:#840000; stroke-width:60.000000; stroke-opacity:1; 
stroke-linecap:round; stroke-linejoin:round;fill:none"
d="M 62250.000000,37000.000000
61650.000000,36400.000000
61950.000000,36400.000000
61650.000000,36400.000000
61650.000000,36700.000000
" /> 
<path style="fill:#840000; fill-opacity:0.0; 
stroke:#840000; stroke-width:60.000000; stroke-opacity:1; 
stroke-linecap:round; stroke-linejoin:round;fill:none"
d="M 62250.000000,34500.000000
61650.000000,33900.000000
61950.000000,33900.000000
61650.000000,33900.000000
61650.000000,34200.000000
" /> 
<line x1="61750.000000" y1="39500.000000" x2="61750.000000" y2="40500.000000" />
<line x1="61750.000000" y1="39500.000000" x2="61750.000000" y2="39500.000000" />
<line x1="61750.000000" y1="37000.000000" x2="61750.000000" y2="38000.000000" />
<line x1="61750.000000" y1="37000.000000" x2="61750.000000" y2="37000.000000" />
<circle cx="61450.000000" cy="42500.000000" r="200.000000" /> 
<circle cx="61450.000000" cy="42500.000000" r="200.000000" /> 
</g>
<g style="fill:#840000; fill-opacity:0.0; 
stroke:#840000; stroke-width:62.519685; stroke-opacity:1; 
stroke-linecap:round; stroke-linejoin:round;">
<text x="63000.000000" y="35750.000000"
textLength="560.000000" font-size="666.653543" lengthAdjust="spacingAndGlyphs"
text-anchor="middle" opacity="0">B</text>
<g class="stroked-text"><desc>B</desc>
<path d="M63035 35464
L63107 35488
L63130 35511
L63154 35559
L63154 35630
L63130 35678
L63107 35702
L63059 35726
L62869 35726
L62869 35226
L63035 35226
L63083 35250
L63107 35273
L63130 35321
L63130 35369
L63107 35416
L63083 35440
L63035 35464
L62869 35464
" />
</g><text x="63000.000000" y="38250.000000"
textLength="562.519685" font-size="666.653543" lengthAdjust="spacingAndGlyphs"
text-anchor="middle" opacity="0">G</text>
<g class="stroked-text"><desc>G</desc>
<path d="M63130 37750
L63083 37726
L63011 37726
L62940 37750
L62892 37797
L62869 37845
L62845 37940
L62845 38011
L62869 38107
L62892 38154
L62940 38202
L63011 38226
L63059 38226
L63130 38202
L63154 38178
L63154 38011
L63059 38011
" />
</g><text x="63000.000000" y="40750.000000"
textLength="562.519685" font-size="666.653543" lengthAdjust="spacingAndGlyphs"
text-anchor="middle" opacity="0">R</text>
<g class="stroked-text"><desc>R</desc>
<path d="M63154 40726
L62988 40488
" />
<path d="M62869 40726
L62869 40226
L63059 40226
L63107 40250
L63130 40273
L63154 40321
L63154 40392
L63130 40440
L63107 40464
L63059 40488
L62869 40488
" />
</g></g>
<g style="fill:#840000; fill-opacity:0.0; 
stroke:#840000; stroke-width:60.000000; stroke-opacity:1; 
stroke-linecap:round; stroke-linejoin:round;">
<path d="M64750 35000
L65750 35000
" />
</g>
<g style="fill:#006464; fill-opacity:0.0; 
stroke:#006464; stroke-width:60.000000; stroke-opacity:1; 
stroke-linecap:round; stroke-linejoin:round;">
<text x="64350.000000" y="35250.000000"
textLength="1062.519685" font-size="666.653543" lengthAdjust="spacingAndGlyphs"
text-anchor="end" opacity="0">BK</text>
<g class="stroked-text"><desc>BK</desc>
<path d="M63605 34964
L63677 34988
L63700 35011
L63724 35059
L63724 35130
L63700 35178
L63677 35202
L63629 35226
L63439 35226
L63439 34726
L63605 34726
L63653 34750
L63677 34773
L63700 34821
L63700 34869
L63677 34916
L63653 34940
L63605 34964
L63439 34964
" />
<path d="M63939 35226
L63939 34726
" />
<path d="M64224 35226
L64010 34940
" />
<path d="M64224 34726
L63939 35011
" />
</g></g>
<g style="fill:#A90000; fill-opacity:0.0; 
stroke:#A90000; stroke-width:60.000000; stroke-opacity:1; 
stroke-linecap:round; stroke-linejoin:round;">
<text x="65250.000000" y="34900.000000"
textLength="536.181102" font-size="666.653543" lengthAdjust="spacingAndGlyphs"
text-anchor="middle" opacity="0">1</text>
<g class="stroked-text"><desc>1</desc>
<path d="M65392 34876
L65107 34876
" />
<path d="M65250 34876
L65250 34376
L65202 34447
L65154 34495
L65107 34519
" />
</g></g>
<g style="fill:#840000; fill-opacity:0.0; 
stroke:#840000; stroke-width:60.000000; stroke-opacity:1; 
stroke-linecap:round; stroke-linejoin:round;">
<path d="M64750 37500
L65750 37500
" />
</g>
<g style="fill:#006464; fill-opacity:0.0; 
stroke:#006464; stroke-width:60.000000; stroke-opacity:1; 
stroke-linecap:round; stroke-linejoin:round;">
<text x="64350.000000" y="37750.000000"
textLength="1060.000000" font-size="666.653543" lengthAdjust="spacingAndGlyphs"
text-anchor="end" opacity="0">GK</text>
<g class="stroked-text"><desc>GK</desc>
<path d="M63700 37250
L63653 37226
L63581 37226
L63510 37250
L63462 37297
L63439 37345
L63415 37440
L63415 37511
L63439 37607
L63462 37654
L63510 37702
L63581 37726
L63629 37726
L63700 37702
L63724 37678
L63724 37511
L63629 37511
" />
<path d="M63939 37726
L63939 37226
" />
<path d="M64224 37726
L64010 37440
" />
<path d="M64224 37226
L63939 37511
" />
</g></g>
<g style="fill:#A90000; fill-opacity:0.0; 
stroke:#A90000; stroke-width:60.000000; stroke-opacity:1; 
stroke-linecap:round; stroke-linejoin:round;">
<text x="65250.000000" y="37400.000000"
textLength="536.181102" font-size="666.653543" lengthAdjust="spacingAndGlyphs"
text-anchor="middle" opacity="0">2</text>
<g class="stroked-text"><desc>2</desc>
<path d="M65107 36923
L65130 36900
L65178 36876
L65297 36876
L65345 36900
L65369 36923
L65392 36971
L65392 37019
L65369 37090
L65083 37376
L65392 37376
" />
</g></g>
<g style="fill:#840000; fill-opacity:0.0; 
stroke:#840000; stroke-width:60.000000; stroke-opacity:1; 
stroke-linecap:round; stroke-linejoin:round;">
<path d="M64750 40000
L65750 40000
" />
</g>
<g style="fill:#006464; fill-opacity:0.0; 
stroke:#006464; stroke-width:60.000000; stroke-opacity:1; 
stroke-linecap:round; stroke-linejoin:round;">
<text x="64350.000000" y="40250.000000"
textLength="1060.000000" font-size="666.653543" lengthAdjust="spacingAndGlyphs"
text-anchor="end" opacity="0">RK</text>
<g class="stroked-text"><desc>RK</desc>
<path d="M63724 40226
L63558 39988
" />
<path d="M63439 40226
L63439 39726
L63629 39726
L63677 39750
L63700 39773
L63724 39821
L63724 39892
L63700 39940
L63677 39964
L63629 39988
L63439 39988
" />
<path d="M63939 40226
L63939 39726
" />
<path d="M64224 40226
L64010 39940
" />
<path d="M64224 39726
L63939 40011
" />
</g></g>
<g style="fill:#A90000; fill-opacity:0.0; 
stroke:#A90000; stroke-width:60.000000; stroke-opacity:1; 
stroke-linecap:round; stroke-linejoin:round;">
<text x="65250.000000" y="39900.000000"
textLength="536.181102" font-size="666.653543" lengthAdjust="spacingAndGlyphs"
text-anchor="middle" opacity="0">3</text>
<g class="stroked-text"><desc>3</desc>
<path d="M65083 39376
L65392 39376
L65226 39566
L65297 39566
L65345 39590
L65369 39614
L65392 39661
L65392 39780
L65369 39828
L65345 39852
L65297 39876
L65154 39876
L65107 39852
L65083 39828
" />
</g></g>
<g style="fill:#840000; fill-opacity:0.0; 
stroke:#840000; stroke-width:60.000000; stroke-opacity:1; 
stroke-linecap:round; stroke-linejoin:round;">
<path d="M59750 40000
L58750 40000
" />
</g>
<g style="fill:#006464; fill-opacity:0.0; 
stroke:#006464; stroke-width:60.000000; stroke-opacity:1; 
stroke-linecap:round; stroke-linejoin:round;">
<text x="60150.000000" y="40250.000000"
textLength="988.582677" font-size="666.653543" lengthAdjust="spacingAndGlyphs"
text-anchor="start" opacity="0">RA</text>
<g class="stroked-text"><desc>RA</desc>
<path d="M60584 40226
L60418 39988
" />
<path d="M60299 40226
L60299 39726
L60489 39726
L60537 39750
L60560 39773
L60584 39821
L60584 39892
L60560 39940
L60537 39964
L60489 39988
L60299 39988
" />
<path d="M60775 40083
L61013 40083
" />
<path d="M60727 40226
L60894 39726
L61060 40226
" />
</g></g>
<g style="fill:#A90000; fill-opacity:0.0; 
stroke:#A90000; stroke-width:60.000000; stroke-opacity:1; 
stroke-linecap:round; stroke-linejoin:round;">
<text x="59250.000000" y="39900.000000"
textLength="536.181102" font-size="666.653543" lengthAdjust="spacingAndGlyphs"
text-anchor="middle" opacity="0">4</text>
<g class="stroked-text"><desc>4</desc>
<path d="M59345 39542
L59345 39876
" />
<path d="M59226 39352
L59107 39709
L59416 39709
" />
</g></g>
<g style="fill:#840000; fill-opacity:0.0; 
stroke:#840000; stroke-width:60.000000; stroke-opacity:1; 
stroke-linecap:round; stroke-linejoin:round;">
<path d="M59750 37500
L58750 37500
" />
</g>
<g style="fill:#006464; fill-opacity:0.0; 
stroke:#006464; stroke-width:60.000000; stroke-opacity:1; 
stroke-linecap:round; stroke-linejoin:round;">
<text x="60150.000000" y="37750.000000"
textLength="988.582677" font-size="666.653543" lengthAdjust="spacingAndGlyphs"
text-anchor="start" opacity="0">GA</text>
<g class="stroked-text"><desc>GA</desc>
<path d="M60560 37250
L60513 37226
L60441 37226
L60370 37250
L60322 37297
L60299 37345
L60275 37440
L60275 37511
L60299 37607
L60322 37654
L60370 37702
L60441 37726
L60489 37726
L60560 37702
L60584 37678
L60584 37511
L60489 37511
" />
<path d="M60775 37583
L61013 37583
" />
<path d="M60727 37726
L60894 37226
L61060 37726
" />
</g></g>
<g style="fill:#A90000; fill-opacity:0.0; 
stroke:#A90000; stroke-width:60.000000; stroke-opacity:1; 
stroke-linecap:round; stroke-linejoin:round;">
<text x="59250.000000" y="37400.000000"
textLength="536.181102" font-size="666.653543" lengthAdjust="spacingAndGlyphs"
text-anchor="middle" opacity="0">5</text>
<g class="stroked-text"><desc>5</desc>
<path d="M59369 36876
L59130 36876
L59107 37114
L59130 37090
L59178 37066
L59297 37066
L59345 37090
L59369 37114
L59392 37161
L59392 37280
L59369 37328
L59345 37352
L59297 37376
L59178 37376
L59130 37352
L59107 37328
" />
</g></g>
<g style="fill:#840000; fill-opacity:0.0; 
stroke:#840000; stroke-width:60.000000; stroke-opacity:1; 
stroke-linecap:round; stroke-linejoin:round;">
<path d="M59750 35000
L58750 35000
" />
</g>
<g style="fill:#006464; fill-opacity:0.0; 
stroke:#006464; stroke-width:60.000000; stroke-opacity:1; 
stroke-linecap:round; stroke-linejoin:round;">
<text x="60150.000000" y="35250.000000"
textLength="988.582677" font-size="666.653543" lengthAdjust="spacingAndGlyphs"
text-anchor="start" opacity="0">BA</text>
<g class="stroked-text"><desc>BA</desc>
<path d="M60465 34964
L60537 34988
L60560 35011
L60584 35059
L60584 35130
L60560 35178
L60537 35202
L60489 35226
L60299 35226
L60299 34726
L60465 34726
L60513 34750
L60537 34773
L60560 34821
L60560 34869
L60537 34916
L60513 34940
L60465 34964
L60299 34964
" />
<path d="M60775 35083
L61013 35083
" />
<path d="M60727 35226
L60894 34726
L61060 35226
" />
</g></g>
<g style="fill:#A90000; fill-opacity:0.0; 
stroke:#A90000; stroke-width:60.000000; stroke-opacity:1; 
stroke-linecap:round; stroke-linejoin:round;">
<text x="59250.000000" y="34900.000000"
textLength="536.181102" font-size="666.653543" lengthAdjust="spacingAndGlyphs"
text-anchor="middle" opacity="0">6</text>
<g class="stroked-text"><desc>6</desc>
<path d="M59345 34376
L59250 34376
L59202 34400
L59178 34423
L59130 34495
L59107 34590
L59107 34780
L59130 34828
L59154 34852
L59202 34876
L59297 34876
L59345 34852
L59369 34828
L59392 34780
L59392 34661
L59369 34614
L59345 34590
L59297 34566
L59202 34566
L59154 34590
L59130 34614
L59107 34661
" />
</g></g>
<g style="fill:#840000; fill-opacity:0.0; 
stroke:#840000; stroke-width:60.000000; stroke-opacity:1; 
stroke-linecap:round; stroke-linejoin:round;">
<path d="M59750 42500
L58750 42500
" />
</g>
<g style="fill:#006464; fill-opacity:0.0; 
stroke:#006464; stroke-width:60.000000; stroke-opacity:1; 
stroke-linecap:round; stroke-linejoin:round;">
<text x="60150.000000" y="42750.000000"
textLength="488.582677" font-size="666.653543" lengthAdjust="spacingAndGlyphs"
text-anchor="start" opacity="0">A</text>
<g class="stroked-text"><desc>A</desc>
<path d="M60275 42583
L60513 42583
" />
<path d="M60227 42726
L60394 42226
L60560 42726
" />
</g></g>
<g style="fill:#A90000; fill-opacity:0.0; 
stroke:#A90000; stroke-width:60.000000; stroke-opacity:1; 
stroke-linecap:round; stroke-linejoin:round;">
<text x="59250.000000" y="42400.000000"
textLength="536.181102" font-size="666.653543" lengthAdjust="spacingAndGlyphs"
text-anchor="middle" opacity="0">7</text>
<g class="stroked-text"><desc>7</desc>
<path d="M59083 41876
L59416 41876
L59202 42376
" />
</g></g>
<g style="fill:#840000; fill-opacity:0.0; 
stroke:#840000; stroke-width:60.000000; stroke-opacity:1; 
stroke-linecap:round; stroke-linejoin:round;">
<path d="M64750 42500
L65750 42500
" />
</g>
<g style="fill:#006464; fill-opacity:0.0; 
stroke:#006464; stroke-width:60.000000; stroke-opacity:1; 
stroke-linecap:round; stroke-linejoin:round;">
<text x="64350.000000" y="42750.000000"
textLength="560.000000" font-size="666.653543" lengthAdjust="spacingAndGlyphs"
text-anchor="end" opacity="0">B</text>
<g class="stroked-text"><desc>B</desc>
<path d="M64105 42464
L64177 42488
L64200 42511
L64224 42559
L64224 42630
L64200 42678
L64177 42702
L64129 42726
L63939 42726
L63939 42226
L64105 42226
L64153 42250
L64177 42273
L64200 42321
L64200 42369
L64177 42416
L64153 42440
L64105 42464
L63939 42464
" />
</g></g>
<g style="fill:#A90000; fill-opacity:0.0; 
stroke:#A90000; stroke-width:60.000000; stroke-opacity:1; 
stroke-linecap:round; stroke-linejoin:round;">
<text x="65250.000000" y="42400.000000"
textLength="536.181102" font-size="666.653543" lengthAdjust="spacingAndGlyphs"
text-anchor="middle" opacity="0">8</text>
<g class="stroked-text"><desc>8</desc>
<path d="M65202 42090
L65154 42066
L65130 42042
L65107 41995
L65107 41971
L65130 41923
L65154 41900
L65202 41876
L65297 41876
L65345 41900
L65369 41923
L65392 41971
L65392 41995
L65369 42042
L65345 42066
L65297 42090
L65202 42090
L65154 42114
L65130 42138
L65107 42185
L65107 42280
L65130 42328
L65154 42352
L65202 42376
L65297 42376
L65345 42352
L65369 42328
L65392 42280
L65392 42185
L65369 42138
L65345 42114
L65297 42090
" />
</g></g>
<g style="fill:#006464; fill-opacity:0.0; 
stroke:#006464; stroke-width:60.000000; stroke-opacity:1; 
stroke-linecap:round; stroke-linejoin:round;">
<text x="62249.960630" y="32099.960630"
textLength="1536.181102" font-size="666.653543" lengthAdjust="spacingAndGlyphs"
text-anchor="middle" opacity="0">U21</text>
<g class="stroked-text"><desc>U21</desc>
<path d="M61630 31576
L61630 31980
L61654 32028
L61678 32052
L61726 32076
L61821 32076
L61868 32052
L61892 32028
L61916 31980
L61916 31576
" />
<path d="M62130 31623
L62154 31599
L62202 31576
L62321 31576
L62368 31599
L62392 31623
L62416 31671
L62416 31718
L62392 31790
L62107 32076
L62416 32076
" />
<path d="M62892 32076
L62607 32076
" />
<path d="M62749 32076
L62749 31576
L62702 31647
L62654 31695
L62607 31718
" />
</g><text x="62250.000000" y="33009.960630"
textLength="15631.417323" font-size="666.653543" lengthAdjust="spacingAndGlyphs"
text-anchor="middle" opacity="0">PCB-SPST_RGB-LED-Counter-Clockwise</text>
<g class="stroked-text"><desc>PCB-SPST_RGB-LED-Counter-Clockwise</desc>
<path d="M54583 32986
L54583 32486
L54773 32486
L54821 32509
L54845 32533
L54869 32581
L54869 32652
L54845 32700
L54821 32724
L54773 32748
L54583 32748
" />
<path d="M55369 32938
L55345 32962
L55273 32986
L55226 32986
L55154 32962
L55107 32914
L55083 32867
L55059 32771
L55059 32700
L55083 32605
L55107 32557
L55154 32509
L55226 32486
L55273 32486
L55345 32509
L55369 32533
" />
<path d="M55750 32724
L55821 32748
L55845 32771
L55869 32819
L55869 32890
L55845 32938
L55821 32962
L55773 32986
L55583 32986
L55583 32486
L55750 32486
L55797 32509
L55821 32533
L55845 32581
L55845 32628
L55821 32676
L55797 32700
L55750 32724
L55583 32724
" />
<path d="M56083 32795
L56464 32795
" />
<path d="M56678 32962
L56750 32986
L56869 32986
L56916 32962
L56940 32938
L56964 32890
L56964 32843
L56940 32795
L56916 32771
L56869 32748
L56773 32724
L56726 32700
L56702 32676
L56678 32628
L56678 32581
L56702 32533
L56726 32509
L56773 32486
L56892 32486
L56964 32509
" />
<path d="M57178 32986
L57178 32486
L57369 32486
L57416 32509
L57440 32533
L57464 32581
L57464 32652
L57440 32700
L57416 32724
L57369 32748
L57178 32748
" />
<path d="M57654 32962
L57726 32986
L57845 32986
L57892 32962
L57916 32938
L57940 32890
L57940 32843
L57916 32795
L57892 32771
L57845 32748
L57750 32724
L57702 32700
L57678 32676
L57654 32628
L57654 32581
L57678 32533
L57702 32509
L57750 32486
L57869 32486
L57940 32509
" />
<path d="M58083 32486
L58369 32486
" />
<path d="M58226 32986
L58226 32486
" />
<path d="M58416 33033
L58797 33033
" />
<path d="M59202 32986
L59035 32748
" />
<path d="M58916 32986
L58916 32486
L59107 32486
L59154 32509
L59178 32533
L59202 32581
L59202 32652
L59178 32700
L59154 32724
L59107 32748
L58916 32748
" />
<path d="M59678 32509
L59630 32486
L59559 32486
L59488 32509
L59440 32557
L59416 32605
L59392 32700
L59392 32771
L59416 32867
L59440 32914
L59488 32962
L59559 32986
L59607 32986
L59678 32962
L59702 32938
L59702 32771
L59607 32771
" />
<path d="M60083 32724
L60154 32748
L60178 32771
L60202 32819
L60202 32890
L60178 32938
L60154 32962
L60107 32986
L59916 32986
L59916 32486
L60083 32486
L60130 32509
L60154 32533
L60178 32581
L60178 32628
L60154 32676
L60130 32700
L60083 32724
L59916 32724
" />
<path d="M60416 32795
L60797 32795
" />
<path d="M61273 32986
L61035 32986
L61035 32486
" />
<path d="M61440 32724
L61607 32724
" />
<path d="M61678 32986
L61440 32986
L61440 32486
L61678 32486
" />
<path d="M61892 32986
L61892 32486
L62011 32486
L62083 32509
L62130 32557
L62154 32605
L62178 32700
L62178 32771
L62154 32867
L62130 32914
L62083 32962
L62011 32986
L61892 32986
" />
<path d="M62392 32795
L62773 32795
" />
<path d="M63297 32938
L63273 32962
L63202 32986
L63154 32986
L63083 32962
L63035 32914
L63011 32867
L62988 32771
L62988 32700
L63011 32605
L63035 32557
L63083 32509
L63154 32486
L63202 32486
L63273 32509
L63297 32533
" />
<path d="M63583 32986
L63535 32962
L63511 32938
L63488 32890
L63488 32748
L63511 32700
L63535 32676
L63583 32652
L63654 32652
L63702 32676
L63726 32700
L63750 32748
L63750 32890
L63726 32938
L63702 32962
L63654 32986
L63583 32986
" />
<path d="M64178 32652
L64178 32986
" />
<path d="M63964 32652
L63964 32914
L63988 32962
L64035 32986
L64107 32986
L64154 32962
L64178 32938
" />
<path d="M64416 32652
L64416 32986
" />
<path d="M64416 32700
L64440 32676
L64488 32652
L64559 32652
L64607 32676
L64630 32724
L64630 32986
" />
<path d="M64797 32652
L64988 32652
" />
<path d="M64869 32486
L64869 32914
L64892 32962
L64940 32986
L64988 32986
" />
<path d="M65345 32962
L65297 32986
L65202 32986
L65154 32962
L65130 32914
L65130 32724
L65154 32676
L65202 32652
L65297 32652
L65345 32676
L65369 32724
L65369 32771
L65130 32819
" />
<path d="M65583 32986
L65583 32652
" />
<path d="M65583 32748
L65607 32700
L65630 32676
L65678 32652
L65726 32652
" />
<path d="M65892 32795
L66273 32795
" />
<path d="M66797 32938
L66773 32962
L66702 32986
L66654 32986
L66583 32962
L66535 32914
L66511 32867
L66488 32771
L66488 32700
L66511 32605
L66535 32557
L66583 32509
L66654 32486
L66702 32486
L66773 32509
L66797 32533
" />
<path d="M67083 32986
L67035 32962
L67011 32914
L67011 32486
" />
<path d="M67345 32986
L67297 32962
L67273 32938
L67249 32890
L67249 32748
L67273 32700
L67297 32676
L67345 32652
L67416 32652
L67464 32676
L67488 32700
L67511 32748
L67511 32890
L67488 32938
L67464 32962
L67416 32986
L67345 32986
" />
<path d="M67940 32962
L67892 32986
L67797 32986
L67749 32962
L67726 32938
L67702 32890
L67702 32748
L67726 32700
L67749 32676
L67797 32652
L67892 32652
L67940 32676
" />
<path d="M68154 32986
L68154 32486
" />
<path d="M68202 32795
L68345 32986
" />
<path d="M68345 32652
L68154 32843
" />
<path d="M68511 32652
L68607 32986
L68702 32748
L68797 32986
L68892 32652
" />
<path d="M69083 32986
L69083 32652
" />
<path d="M69083 32486
L69059 32509
L69083 32533
L69107 32509
L69083 32486
L69083 32533
" />
<path d="M69297 32962
L69345 32986
L69440 32986
L69488 32962
L69511 32914
L69511 32890
L69488 32843
L69440 32819
L69369 32819
L69321 32795
L69297 32748
L69297 32724
L69321 32676
L69369 32652
L69440 32652
L69488 32676
" />
<path d="M69916 32962
L69869 32986
L69773 32986
L69726 32962
L69702 32914
L69702 32724
L69726 32676
L69773 32652
L69869 32652
L69916 32676
L69940 32724
L69940 32771
L69702 32819
" />
</g></g>
</g>
<g style="fill:#006464; fill-opacity:0.0; 
stroke:#006464; stroke-width:62.519685; stroke-opacity:1; 
stroke-linecap:round; stroke-linejoin:round;">
</g>
<g style="fill:#006464; fill-opacity:0.0; 
stroke:#006464; stroke-width:60.000000; stroke-opacity:1; 
stroke-linecap:round; stroke-linejoin:round;">
</g>
<g style="fill:#725600; fill-opacity:0.0; 
stroke:#725600; stroke-width:60.000000; stroke-opacity:1; 
stroke-linecap:round; stroke-linejoin:round;">
<text x="48960.000000" y="42750.000000"
textLength="1917.125984" font-size="666.653543" lengthAdjust="spacingAndGlyphs"
text-anchor="end" opacity="0">SW_A</text>
<g class="stroked-text"><desc>SW_A</desc>
<path d="M47168 42702
L47239 42726
L47358 42726
L47406 42702
L47430 42678
L47453 42630
L47453 42583
L47430 42535
L47406 42511
L47358 42488
L47263 42464
L47215 42440
L47191 42416
L47168 42369
L47168 42321
L47191 42273
L47215 42250
L47263 42226
L47382 42226
L47453 42250
" />
<path d="M47620 42226
L47739 42726
L47834 42369
L47930 42726
L48049 42226
" />
<path d="M48120 42773
L48501 42773
" />
<path d="M48596 42583
L48834 42583
" />
<path d="M48549 42726
L48715 42226
L48882 42726
" />
</g><path style="fill:#725600; fill-opacity:0.0; 
stroke:#725600; stroke-width:60.000000; stroke-opacity:1; 
stroke-linecap:round; stroke-linejoin:round;fill:none"
d="M 49500.000000,42500.000000
49250.000000,42250.000000
49000.000000,42250.000000
49000.000000,42750.000000
49250.000000,42750.000000
Z" /> 
</g>
<g style="fill:#725600; fill-opacity:0.0; 
stroke:#725600; stroke-width:62.519685; stroke-opacity:1; 
stroke-linecap:round; stroke-linejoin:round;">
</g>
<g style="fill:#725600; fill-opacity:0.0; 
stroke:#725600; stroke-width:60.000000; stroke-opacity:1; 
stroke-linecap:round; stroke-linejoin:round;">
<text x="48960.000000" y="40250.000000"
textLength="2726.653543" font-size="666.653543" lengthAdjust="spacingAndGlyphs"
text-anchor="end" opacity="0">LED_RA</text>
<g class="stroked-text"><desc>LED_RA</desc>
<path d="M46620 40226
L46382 40226
L46382 39726
" />
<path d="M46787 39964
L46953 39964
" />
<path d="M47025 40226
L46787 40226
L46787 39726
L47025 39726
" />
<path d="M47239 40226
L47239 39726
L47358 39726
L47430 39750
L47477 39797
L47501 39845
L47525 39940
L47525 40011
L47501 40107
L47477 40154
L47430 40202
L47358 40226
L47239 40226
" />
<path d="M47620 40273
L48001 40273
" />
<path d="M48406 40226
L48239 39988
" />
<path d="M48120 40226
L48120 39726
L48310 39726
L48358 39750
L48382 39773
L48406 39821
L48406 39892
L48382 39940
L48358 39964
L48310 39988
L48120 39988
" />
<path d="M48596 40083
L48834 40083
" />
<path d="M48549 40226
L48715 39726
L48882 40226
" />
</g><path style="fill:#725600; fill-opacity:0.0; 
stroke:#725600; stroke-width:60.000000; stroke-opacity:1; 
stroke-linecap:round; stroke-linejoin:round;fill:none"
d="M 49500.000000,40000.000000
49250.000000,39750.000000
49000.000000,39750.000000
49000.000000,40250.000000
49250.000000,40250.000000
Z" /> 
</g>
<g style="fill:#725600; fill-opacity:0.0; 
stroke:#725600; stroke-width:62.519685; stroke-opacity:1; 
stroke-linecap:round; stroke-linejoin:round;">
</g>
<g style="fill:#725600; fill-opacity:0.0; 
stroke:#725600; stroke-width:60.000000; stroke-opacity:1; 
stroke-linecap:round; stroke-linejoin:round;">
<text x="48960.000000" y="37750.000000"
textLength="2726.653543" font-size="666.653543" lengthAdjust="spacingAndGlyphs"
text-anchor="end" opacity="0">LED_GA</text>
<g class="stroked-text"><desc>LED_GA</desc>
<path d="M46620 37726
L46382 37726
L46382 37226
" />
<path d="M46787 37464
L46953 37464
" />
<path d="M47025 37726
L46787 37726
L46787 37226
L47025 37226
" />
<path d="M47239 37726
L47239 37226
L47358 37226
L47430 37250
L47477 37297
L47501 37345
L47525 37440
L47525 37511
L47501 37607
L47477 37654
L47430 37702
L47358 37726
L47239 37726
" />
<path d="M47620 37773
L48001 37773
" />
<path d="M48382 37250
L48334 37226
L48263 37226
L48191 37250
L48144 37297
L48120 37345
L48096 37440
L48096 37511
L48120 37607
L48144 37654
L48191 37702
L48263 37726
L48310 37726
L48382 37702
L48406 37678
L48406 37511
L48310 37511
" />
<path d="M48596 37583
L48834 37583
" />
<path d="M48549 37726
L48715 37226
L48882 37726
" />
</g><path style="fill:#725600; fill-opacity:0.0; 
stroke:#725600; stroke-width:60.000000; stroke-opacity:1; 
stroke-linecap:round; stroke-linejoin:round;fill:none"
d="M 49500.000000,37500.000000
49250.000000,37250.000000
49000.000000,37250.000000
49000.000000,37750.000000
49250.000000,37750.000000
Z" /> 
</g>
<g style="fill:#725600; fill-opacity:0.0; 
stroke:#725600; stroke-width:62.519685; stroke-opacity:1; 
stroke-linecap:round; stroke-linejoin:round;">
</g>
<g style="fill:#725600; fill-opacity:0.0; 
stroke:#725600; stroke-width:60.000000; stroke-opacity:1; 
stroke-linecap:round; stroke-linejoin:round;">
<text x="48960.000000" y="35250.000000"
textLength="2726.653543" font-size="666.653543" lengthAdjust="spacingAndGlyphs"
text-anchor="end" opacity="0">LED_BA</text>
<g class="stroked-text"><desc>LED_BA</desc>
<path d="M46620 35226
L46382 35226
L46382 34726
" />
<path d="M46787 34964
L46953 34964
" />
<path d="M47025 35226
L46787 35226
L46787 34726
L47025 34726
" />
<path d="M47239 35226
L47239 34726
L47358 34726
L47430 34750
L47477 34797
L47501 34845
L47525 34940
L47525 35011
L47501 35107
L47477 35154
L47430 35202
L47358 35226
L47239 35226
" />
<path d="M47620 35273
L48001 35273
" />
<path d="M48287 34964
L48358 34988
L48382 35011
L48406 35059
L48406 35130
L48382 35178
L48358 35202
L48310 35226
L48120 35226
L48120 34726
L48287 34726
L48334 34750
L48358 34773
L48382 34821
L48382 34869
L48358 34916
L48334 34940
L48287 34964
L48120 34964
" />
<path d="M48596 35083
L48834 35083
" />
<path d="M48549 35226
L48715 34726
L48882 35226
" />
</g><path style="fill:#725600; fill-opacity:0.0; 
stroke:#725600; stroke-width:60.000000; stroke-opacity:1; 
stroke-linecap:round; stroke-linejoin:round;fill:none"
d="M 49500.000000,35000.000000
49250.000000,34750.000000
49000.000000,34750.000000
49000.000000,35250.000000
49250.000000,35250.000000
Z" /> 
</g>
<g style="fill:#725600; fill-opacity:0.0; 
stroke:#725600; stroke-width:62.519685; stroke-opacity:1; 
stroke-linecap:round; stroke-linejoin:round;">
</g>
<g style="fill:#725600; fill-opacity:0.0; 
stroke:#725600; stroke-width:60.000000; stroke-opacity:1; 
stroke-linecap:round; stroke-linejoin:round;">
<text x="73540.000000" y="40250.000000"
textLength="2798.110236" font-size="666.653543" lengthAdjust="spacingAndGlyphs"
text-anchor="start" opacity="0">LED_RK</text>
<g class="stroked-text"><desc>LED_RK</desc>
<path d="M73927 40226
L73689 40226
L73689 39726
" />
<path d="M74093 39964
L74260 39964
" />
<path d="M74331 40226
L74093 40226
L74093 39726
L74331 39726
" />
<path d="M74546 40226
L74546 39726
L74665 39726
L74736 39750
L74784 39797
L74808 39845
L74831 39940
L74831 40011
L74808 40107
L74784 40154
L74736 40202
L74665 40226
L74546 40226
" />
<path d="M74927 40273
L75308 40273
" />
<path d="M75712 40226
L75546 39988
" />
<path d="M75427 40226
L75427 39726
L75617 39726
L75665 39750
L75689 39773
L75712 39821
L75712 39892
L75689 39940
L75665 39964
L75617 39988
L75427 39988
" />
<path d="M75927 40226
L75927 39726
" />
<path d="M76212 40226
L75998 39940
" />
<path d="M76212 39726
L75927 40011
" />
</g><path style="fill:#725600; fill-opacity:0.0; 
stroke:#725600; stroke-width:60.000000; stroke-opacity:1; 
stroke-linecap:round; stroke-linejoin:round;fill:none"
d="M 73500.000000,40000.000000
73250.000000,39750.000000
73000.000000,39750.000000
73000.000000,40250.000000
73250.000000,40250.000000
Z" /> 
</g>
<g style="fill:#725600; fill-opacity:0.0; 
stroke:#725600; stroke-width:62.519685; stroke-opacity:1; 
stroke-linecap:round; stroke-linejoin:round;">
</g>
<g style="fill:#725600; fill-opacity:0.0; 
stroke:#725600; stroke-width:60.000000; stroke-opacity:1; 
stroke-linecap:round; stroke-linejoin:round;">
<text x="73540.000000" y="35250.000000"
textLength="2798.110236" font-size="666.653543" lengthAdjust="spacingAndGlyphs"
text-anchor="start" opacity="0">LED_BK</text>
<g class="stroked-text"><desc>LED_BK</desc>
<path d="M73927 35226
L73689 35226
L73689 34726
" />
<path d="M74093 34964
L74260 34964
" />
<path d="M74331 35226
L74093 35226
L74093 34726
L74331 34726
" />
<path d="M74546 35226
L74546 34726
L74665 34726
L74736 34750
L74784 34797
L74808 34845
L74831 34940
L74831 35011
L74808 35107
L74784 35154
L74736 35202
L74665 35226
L74546 35226
" />
<path d="M74927 35273
L75308 35273
" />
<path d="M75593 34964
L75665 34988
L75689 35011
L75712 35059
L75712 35130
L75689 35178
L75665 35202
L75617 35226
L75427 35226
L75427 34726
L75593 34726
L75641 34750
L75665 34773
L75689 34821
L75689 34869
L75665 34916
L75641 34940
L75593 34964
L75427 34964
" />
<path d="M75927 35226
L75927 34726
" />
<path d="M76212 35226
L75998 34940
" />
<path d="M76212 34726
L75927 35011
" />
</g><path style="fill:#725600; fill-opacity:0.0; 
stroke:#725600; stroke-width:60.000000; stroke-opacity:1; 
stroke-linecap:round; stroke-linejoin:round;fill:none"
d="M 73500.000000,35000.000000
73250.000000,34750.000000
73000.000000,34750.000000
73000.000000,35250.000000
73250.000000,35250.000000
Z" /> 
</g>
<g style="fill:#725600; fill-opacity:0.0; 
stroke:#725600; stroke-width:62.519685; stroke-opacity:1; 
stroke-linecap:round; stroke-linejoin:round;">
</g>
<g style="fill:#725600; fill-opacity:0.0; 
stroke:#725600; stroke-width:60.000000; stroke-opacity:1; 
stroke-linecap:round; stroke-linejoin:round;">
<text x="73540.000000" y="37750.000000"
textLength="2798.110236" font-size="666.653543" lengthAdjust="spacingAndGlyphs"
text-anchor="start" opacity="0">LED_GK</text>
<g class="stroked-text"><desc>LED_GK</desc>
<path d="M73927 37726
L73689 37726
L73689 37226
" />
<path d="M74093 37464
L74260 37464
" />
<path d="M74331 37726
L74093 37726
L74093 37226
L74331 37226
" />
<path d="M74546 37726
L74546 37226
L74665 37226
L74736 37250
L74784 37297
L74808 37345
L74831 37440
L74831 37511
L74808 37607
L74784 37654
L74736 37702
L74665 37726
L74546 37726
" />
<path d="M74927 37773
L75308 37773
" />
<path d="M75689 37250
L75641 37226
L75570 37226
L75498 37250
L75450 37297
L75427 37345
L75403 37440
L75403 37511
L75427 37607
L75450 37654
L75498 37702
L75570 37726
L75617 37726
L75689 37702
L75712 37678
L75712 37511
L75617 37511
" />
<path d="M75927 37726
L75927 37226
" />
<path d="M76212 37726
L75998 37440
" />
<path d="M76212 37226
L75927 37511
" />
</g><path style="fill:#725600; fill-opacity:0.0; 
stroke:#725600; stroke-width:60.000000; stroke-opacity:1; 
stroke-linecap:round; stroke-linejoin:round;fill:none"
d="M 73500.000000,37500.000000
73250.000000,37250.000000
73000.000000,37250.000000
73000.000000,37750.000000
73250.000000,37750.000000
Z" /> 
</g>
<g style="fill:#725600; fill-opacity:0.0; 
stroke:#725600; stroke-width:62.519685; stroke-opacity:1; 
stroke-linecap:round; stroke-linejoin:round;">
</g>
<g style="fill:#725600; fill-opacity:0.0; 
stroke:#725600; stroke-width:60.000000; stroke-opacity:1; 
stroke-linecap:round; stroke-linejoin:round;">
<text x="73540.000000" y="42750.000000"
textLength="1988.582677" font-size="666.653543" lengthAdjust="spacingAndGlyphs"
text-anchor="start" opacity="0">SW_B</text>
<g class="stroked-text"><desc>SW_B</desc>
<path d="M73665 42702
L73736 42726
L73855 42726
L73903 42702
L73927 42678
L73950 42630
L73950 42583
L73927 42535
L73903 42511
L73855 42488
L73760 42464
L73712 42440
L73689 42416
L73665 42369
L73665 42321
L73689 42273
L73712 42250
L73760 42226
L73879 42226
L73950 42250
" />
<path d="M74117 42226
L74236 42726
L74331 42369
L74427 42726
L74546 42226
" />
<path d="M74617 42773
L74998 42773
" />
<path d="M75284 42464
L75355 42488
L75379 42511
L75403 42559
L75403 42630
L75379 42678
L75355 42702
L75308 42726
L75117 42726
L75117 42226
L75284 42226
L75331 42250
L75355 42273
L75379 42321
L75379 42369
L75355 42416
L75331 42440
L75284 42464
L75117 42464
" />
</g><path style="fill:#725600; fill-opacity:0.0; 
stroke:#725600; stroke-width:60.000000; stroke-opacity:1; 
stroke-linecap:round; stroke-linejoin:round;fill:none"
d="M 73500.000000,42500.000000
73250.000000,42250.000000
73000.000000,42250.000000
73000.000000,42750.000000
73250.000000,42750.000000
Z" /> 
</g>
<g style="fill:#009600; fill-opacity:0.0; 
stroke:#009600; stroke-width:60.000000; stroke-opacity:1; 
stroke-linecap:round; stroke-linejoin:round;">
<path d="M65750 42500
L73000 42500
" />
<path d="M65750 40000
L73000 40000
" />
<path d="M65750 35000
L73000 35000
" />
<path d="M65750 37500
L73000 37500
" />
<path d="M49500 42500
L58750 42500
" />
<path d="M58750 37500
L49500 37500
" />
<path d="M58750 35000
L49500 35000
" />
<path d="M58750 40000
L49500 40000
" />
</g> 
</svg>
