<?xml version="1.0" standalone="no"?>
 <!DOCTYPE svg PUBLIC "-//W3C//DTD SVG 1.1//EN" 
 "http://www.w3.org/Graphics/SVG/1.1/DTD/svg11.dtd"> 
<svg
  xmlns:svg="http://www.w3.org/2000/svg"
  xmlns="http://www.w3.org/2000/svg"
  xmlns:xlink="http://www.w3.org/1999/xlink"
  version="1.1"
  width="29.700220cm" height="21.000720cm" viewBox="0 0 116930 82680">
<title>SVG Picture created as BassStation_Sequencer_MidiInterface-PSU-2_42Inch_OLED_LDO.svg date 2022/02/10 02:08:44 </title>
  <desc>Picture generated by Eeschema-SVG </desc>
<g style="fill:#000000; fill-opacity:1.000000;stroke:#000000; stroke-opacity:1.000000;
stroke-linecap:round; stroke-linejoin:round;"
 transform="translate(0 0) scale(1 1)">
</g>
<g style="fill:#840000; fill-opacity:0.0; 
stroke:#840000; stroke-width:0.000000; stroke-opacity:1; 
stroke-linecap:round; stroke-linejoin:round;">
</g>
<g style="fill:#840000; fill-opacity:0.0; 
stroke:#840000; stroke-width:60.000000; stroke-opacity:1; 
stroke-linecap:round; stroke-linejoin:round;">
<rect x="69685.905512" y="65357.165354" width="42519.685039" height="12598.425197" rx="0.000000" />
<rect x="3937.007874" y="3937.007874" width="109055.984252" height="74805.984252" rx="0.000000" />
<rect x="4724.409449" y="4724.409449" width="107481.181102" height="73231.181102" rx="0.000000" />
<path d="M23622 4724
L23622 3937
" />
<path d="M43307 4724
L43307 3937
" />
<path d="M62992 4724
L62992 3937
" />
<path d="M82677 4724
L82677 3937
" />
<path d="M102362 4724
L102362 3937
" />
<text x="13779.527559" y="4586.614173"
textLength="549.960630" font-size="682.401575" lengthAdjust="spacingAndGlyphs"
text-anchor="start" opacity="0">1</text>
<g class="stroked-text"><desc>1</desc>
<path d="M14199 4562
L13907 4562
" />
<path d="M14053 4562
L14053 4050
L14004 4123
L13955 4172
L13907 4196
" />
</g><text x="33464.566929" y="4586.614173"
textLength="547.440945" font-size="682.401575" lengthAdjust="spacingAndGlyphs"
text-anchor="start" opacity="0">2</text>
<g class="stroked-text"><desc>2</desc>
<path d="M33592 4099
L33616 4074
L33665 4050
L33787 4050
L33835 4074
L33860 4099
L33884 4147
L33884 4196
L33860 4269
L33567 4562
L33884 4562
" />
</g><text x="53149.606299" y="4586.614173"
textLength="547.440945" font-size="682.401575" lengthAdjust="spacingAndGlyphs"
text-anchor="start" opacity="0">3</text>
<g class="stroked-text"><desc>3</desc>
<path d="M53252 4050
L53569 4050
L53398 4245
L53472 4245
L53520 4269
L53545 4294
L53569 4342
L53569 4464
L53545 4513
L53520 4537
L53472 4562
L53325 4562
L53277 4537
L53252 4513
" />
</g><text x="72834.645669" y="4586.614173"
textLength="547.440945" font-size="682.401575" lengthAdjust="spacingAndGlyphs"
text-anchor="start" opacity="0">4</text>
<g class="stroked-text"><desc>4</desc>
<path d="M73205 4221
L73205 4562
" />
<path d="M73083 4026
L72962 4391
L73278 4391
" />
</g><text x="92519.685039" y="4586.614173"
textLength="547.440945" font-size="682.401575" lengthAdjust="spacingAndGlyphs"
text-anchor="start" opacity="0">5</text>
<g class="stroked-text"><desc>5</desc>
<path d="M92915 4050
L92671 4050
L92647 4294
L92671 4269
L92720 4245
L92842 4245
L92890 4269
L92915 4294
L92939 4342
L92939 4464
L92915 4513
L92890 4537
L92842 4562
L92720 4562
L92671 4537
L92647 4513
" />
</g><text x="112204.724409" y="4586.614173"
textLength="547.440945" font-size="682.401575" lengthAdjust="spacingAndGlyphs"
text-anchor="start" opacity="0">6</text>
<g class="stroked-text"><desc>6</desc>
<path d="M112575 4050
L112478 4050
L112429 4074
L112405 4099
L112356 4172
L112332 4269
L112332 4464
L112356 4513
L112380 4537
L112429 4562
L112527 4562
L112575 4537
L112600 4513
L112624 4464
L112624 4342
L112600 4294
L112575 4269
L112527 4245
L112429 4245
L112380 4269
L112356 4294
L112332 4342
" />
</g><path d="M23622 77955
L23622 78742
" />
<path d="M43307 77955
L43307 78742
" />
<path d="M62992 77955
L62992 78742
" />
<path d="M82677 77955
L82677 78742
" />
<path d="M102362 77955
L102362 78742
" />
<text x="13779.527559" y="78605.196850"
textLength="547.440945" font-size="682.401575" lengthAdjust="spacingAndGlyphs"
text-anchor="start" opacity="0">1</text>
<g class="stroked-text"><desc>1</desc>
<path d="M14199 78580
L13907 78580
" />
<path d="M14053 78580
L14053 78068
L14004 78142
L13955 78190
L13907 78215
" />
</g><text x="33464.566929" y="78605.196850"
textLength="547.440945" font-size="682.401575" lengthAdjust="spacingAndGlyphs"
text-anchor="start" opacity="0">2</text>
<g class="stroked-text"><desc>2</desc>
<path d="M33592 78117
L33616 78093
L33665 78068
L33787 78068
L33835 78093
L33860 78117
L33884 78166
L33884 78215
L33860 78288
L33567 78580
L33884 78580
" />
</g><text x="53149.606299" y="78605.196850"
textLength="547.440945" font-size="682.401575" lengthAdjust="spacingAndGlyphs"
text-anchor="start" opacity="0">3</text>
<g class="stroked-text"><desc>3</desc>
<path d="M53252 78068
L53569 78068
L53398 78263
L53472 78263
L53520 78288
L53545 78312
L53569 78361
L53569 78483
L53545 78532
L53520 78556
L53472 78580
L53325 78580
L53277 78556
L53252 78532
" />
</g><text x="72834.645669" y="78605.196850"
textLength="547.440945" font-size="682.401575" lengthAdjust="spacingAndGlyphs"
text-anchor="start" opacity="0">4</text>
<g class="stroked-text"><desc>4</desc>
<path d="M73205 78239
L73205 78580
" />
<path d="M73083 78044
L72962 78410
L73278 78410
" />
</g><text x="92519.685039" y="78605.196850"
textLength="547.440945" font-size="682.401575" lengthAdjust="spacingAndGlyphs"
text-anchor="start" opacity="0">5</text>
<g class="stroked-text"><desc>5</desc>
<path d="M92915 78068
L92671 78068
L92647 78312
L92671 78288
L92720 78263
L92842 78263
L92890 78288
L92915 78312
L92939 78361
L92939 78483
L92915 78532
L92890 78556
L92842 78580
L92720 78580
L92671 78556
L92647 78532
" />
</g><text x="112204.724409" y="78605.196850"
textLength="547.440945" font-size="682.401575" lengthAdjust="spacingAndGlyphs"
text-anchor="start" opacity="0">6</text>
<g class="stroked-text"><desc>6</desc>
<path d="M112575 78068
L112478 78068
L112429 78093
L112405 78117
L112356 78190
L112332 78288
L112332 78483
L112356 78532
L112380 78556
L112429 78580
L112527 78580
L112575 78556
L112600 78532
L112624 78483
L112624 78361
L112600 78312
L112575 78288
L112527 78263
L112429 78263
L112380 78288
L112356 78312
L112332 78361
" />
</g><path d="M3937 23622
L4724 23622
" />
<path d="M3937 43307
L4724 43307
" />
<path d="M3937 62992
L4724 62992
" />
<text x="4330.708661" y="14035.433071"
textLength="498.700787" font-size="682.401575" lengthAdjust="spacingAndGlyphs"
text-anchor="middle" opacity="0">A</text>
<g class="stroked-text"><desc>A</desc>
<path d="M4208 13864
L4452 13864
" />
<path d="M4160 14011
L4330 13499
L4501 14011
" />
</g><text x="4330.708661" y="33720.472441"
textLength="571.811024" font-size="682.401575" lengthAdjust="spacingAndGlyphs"
text-anchor="middle" opacity="0">B</text>
<g class="stroked-text"><desc>B</desc>
<path d="M4367 33427
L4440 33452
L4464 33476
L4489 33525
L4489 33598
L4464 33647
L4440 33671
L4391 33696
L4196 33696
L4196 33184
L4367 33184
L4415 33208
L4440 33233
L4464 33281
L4464 33330
L4440 33379
L4415 33403
L4367 33427
L4196 33427
" />
</g><text x="4330.708661" y="53405.511811"
textLength="571.811024" font-size="682.401575" lengthAdjust="spacingAndGlyphs"
text-anchor="middle" opacity="0">C</text>
<g class="stroked-text"><desc>C</desc>
<path d="M4489 53332
L4464 53356
L4391 53381
L4342 53381
L4269 53356
L4221 53307
L4196 53259
L4172 53161
L4172 53088
L4196 52991
L4221 52942
L4269 52893
L4342 52869
L4391 52869
L4464 52893
L4489 52918
" />
</g><text x="4330.708661" y="73090.551181"
textLength="571.811024" font-size="682.401575" lengthAdjust="spacingAndGlyphs"
text-anchor="middle" opacity="0">D</text>
<g class="stroked-text"><desc>D</desc>
<path d="M4196 73066
L4196 72554
L4318 72554
L4391 72578
L4440 72627
L4464 72676
L4489 72773
L4489 72846
L4464 72944
L4440 72993
L4391 73041
L4318 73066
L4196 73066
" />
</g><path d="M112992 23622
L112205 23622
" />
<path d="M112992 43307
L112205 43307
" />
<path d="M112992 62992
L112205 62992
" />
<text x="112599.291339" y="14035.433071"
textLength="498.700787" font-size="682.401575" lengthAdjust="spacingAndGlyphs"
text-anchor="middle" opacity="0">A</text>
<g class="stroked-text"><desc>A</desc>
<path d="M112477 13864
L112721 13864
" />
<path d="M112428 14011
L112599 13499
L112769 14011
" />
</g><text x="112599.291339" y="33720.472441"
textLength="571.811024" font-size="682.401575" lengthAdjust="spacingAndGlyphs"
text-anchor="middle" opacity="0">B</text>
<g class="stroked-text"><desc>B</desc>
<path d="M112635 33427
L112708 33452
L112733 33476
L112757 33525
L112757 33598
L112733 33647
L112708 33671
L112660 33696
L112465 33696
L112465 33184
L112635 33184
L112684 33208
L112708 33233
L112733 33281
L112733 33330
L112708 33379
L112684 33403
L112635 33427
L112465 33427
" />
</g><text x="112599.291339" y="53405.511811"
textLength="571.811024" font-size="682.401575" lengthAdjust="spacingAndGlyphs"
text-anchor="middle" opacity="0">C</text>
<g class="stroked-text"><desc>C</desc>
<path d="M112757 53332
L112733 53356
L112660 53381
L112611 53381
L112538 53356
L112489 53307
L112465 53259
L112440 53161
L112440 53088
L112465 52991
L112489 52942
L112538 52893
L112611 52869
L112660 52869
L112733 52893
L112757 52918
" />
</g><text x="112599.291339" y="73090.551181"
textLength="571.811024" font-size="682.401575" lengthAdjust="spacingAndGlyphs"
text-anchor="middle" opacity="0">D</text>
<g class="stroked-text"><desc>D</desc>
<path d="M112465 73066
L112465 72554
L112587 72554
L112660 72578
L112708 72627
L112733 72676
L112757 72773
L112757 72846
L112733 72944
L112708 72993
L112660 73041
L112587 73066
L112465 73066
" />
</g><text x="78741.023622" y="76321.732283"
textLength="8721.417323" font-size="787.401575" lengthAdjust="spacingAndGlyphs"
text-anchor="start" opacity="0">Date: 2021-06-05</text>
<g class="stroked-text"><desc>Date: 2021-06-05</desc>
<path d="M78911 76293
L78911 75703
L79052 75703
L79136 75731
L79192 75787
L79220 75843
L79249 75956
L79249 76040
L79220 76152
L79192 76209
L79136 76265
L79052 76293
L78911 76293
" />
<path d="M79755 76293
L79755 75984
L79727 75928
L79670 75899
L79558 75899
L79502 75928
" />
<path d="M79755 76265
L79699 76293
L79558 76293
L79502 76265
L79474 76209
L79474 76152
L79502 76096
L79558 76068
L79699 76068
L79755 76040
" />
<path d="M79952 75899
L80177 75899
" />
<path d="M80036 75703
L80036 76209
L80064 76265
L80120 76293
L80177 76293
" />
<path d="M80598 76265
L80542 76293
L80430 76293
L80373 76265
L80345 76209
L80345 75984
L80373 75928
L80430 75899
L80542 75899
L80598 75928
L80627 75984
L80627 76040
L80345 76096
" />
<path d="M80880 76237
L80908 76265
L80880 76293
L80852 76265
L80880 76237
L80880 76293
" />
<path d="M80880 75928
L80908 75956
L80880 75984
L80852 75956
L80880 75928
L80880 75984
" />
<path d="M81583 75759
L81611 75731
L81667 75703
L81808 75703
L81864 75731
L81892 75759
L81920 75815
L81920 75871
L81892 75956
L81555 76293
L81920 76293
" />
<path d="M82286 75703
L82342 75703
L82398 75731
L82426 75759
L82454 75815
L82483 75928
L82483 76068
L82454 76181
L82426 76237
L82398 76265
L82342 76293
L82286 76293
L82229 76265
L82201 76237
L82173 76181
L82145 76068
L82145 75928
L82173 75815
L82201 75759
L82229 75731
L82286 75703
" />
<path d="M82708 75759
L82736 75731
L82792 75703
L82932 75703
L82989 75731
L83017 75759
L83045 75815
L83045 75871
L83017 75956
L82679 76293
L83045 76293
" />
<path d="M83607 76293
L83270 76293
" />
<path d="M83439 76293
L83439 75703
L83382 75787
L83326 75843
L83270 75871
" />
<path d="M83860 76068
L84310 76068
" />
<path d="M84704 75703
L84760 75703
L84817 75731
L84845 75759
L84873 75815
L84901 75928
L84901 76068
L84873 76181
L84845 76237
L84817 76265
L84760 76293
L84704 76293
L84648 76265
L84620 76237
L84592 76181
L84564 76068
L84564 75928
L84592 75815
L84620 75759
L84648 75731
L84704 75703
" />
<path d="M85407 75703
L85295 75703
L85238 75731
L85210 75759
L85154 75843
L85126 75956
L85126 76181
L85154 76237
L85182 76265
L85238 76293
L85351 76293
L85407 76265
L85435 76237
L85463 76181
L85463 76040
L85435 75984
L85407 75956
L85351 75928
L85238 75928
L85182 75956
L85154 75984
L85126 76040
" />
<path d="M85717 76068
L86166 76068
" />
<path d="M86560 75703
L86616 75703
L86673 75731
L86701 75759
L86729 75815
L86757 75928
L86757 76068
L86729 76181
L86701 76237
L86673 76265
L86616 76293
L86560 76293
L86504 76265
L86476 76237
L86448 76181
L86420 76068
L86420 75928
L86448 75815
L86476 75759
L86504 75731
L86560 75703
" />
<path d="M87291 75703
L87010 75703
L86982 75984
L87010 75956
L87066 75928
L87207 75928
L87263 75956
L87291 75984
L87319 76040
L87319 76181
L87291 76237
L87263 76265
L87207 76293
L87066 76293
L87010 76265
L86982 76237
" />
</g><path d="M69685 76577
L112205 76577
" />
<text x="70079.606299" y="77424.094488"
textLength="26550.433071" font-size="787.401575" lengthAdjust="spacingAndGlyphs"
text-anchor="start" opacity="0">KiCad E.D.A.  kicad 6.0.1-79c1e3a40b~116~ubuntu20.04.1</text>
<g class="stroked-text"><desc>KiCad E.D.A.  kicad 6.0.1-79c1e3a40b~116~ubuntu20.04.1</desc>
<path d="M70250 77395
L70250 76805
" />
<path d="M70587 77395
L70334 77058
" />
<path d="M70587 76805
L70250 77142
" />
<path d="M70840 77395
L70840 77002
" />
<path d="M70840 76805
L70812 76833
L70840 76861
L70868 76833
L70840 76805
L70840 76861
" />
<path d="M71459 77339
L71431 77367
L71346 77395
L71290 77395
L71206 77367
L71150 77311
L71121 77255
L71093 77142
L71093 77058
L71121 76946
L71150 76889
L71206 76833
L71290 76805
L71346 76805
L71431 76833
L71459 76861
" />
<path d="M71965 77395
L71965 77086
L71937 77030
L71881 77002
L71768 77002
L71712 77030
" />
<path d="M71965 77367
L71909 77395
L71768 77395
L71712 77367
L71684 77311
L71684 77255
L71712 77199
L71768 77170
L71909 77170
L71965 77142
" />
<path d="M72499 77395
L72499 76805
" />
<path d="M72499 77367
L72443 77395
L72331 77395
L72274 77367
L72246 77339
L72218 77283
L72218 77114
L72246 77058
L72274 77030
L72331 77002
L72443 77002
L72499 77030
" />
<path d="M73231 77086
L73427 77086
" />
<path d="M73512 77395
L73231 77395
L73231 76805
L73512 76805
" />
<path d="M73765 77339
L73793 77367
L73765 77395
L73737 77367
L73765 77339
L73765 77395
" />
<path d="M74046 77395
L74046 76805
L74187 76805
L74271 76833
L74327 76889
L74355 76946
L74384 77058
L74384 77142
L74355 77255
L74327 77311
L74271 77367
L74187 77395
L74046 77395
" />
<path d="M74637 77339
L74665 77367
L74637 77395
L74609 77367
L74637 77339
L74637 77395
" />
<path d="M74890 77227
L75171 77227
" />
<path d="M74834 77395
L75030 76805
L75227 77395
" />
<path d="M75424 77339
L75452 77367
L75424 77395
L75396 77367
L75424 77339
L75424 77395
" />
<path d="M76605 77395
L76605 76805
" />
<path d="M76661 77170
L76830 77395
" />
<path d="M76830 77002
L76605 77227
" />
<path d="M77083 77395
L77083 77002
" />
<path d="M77083 76805
L77055 76833
L77083 76861
L77111 76833
L77083 76805
L77083 76861
" />
<path d="M77618 77367
L77561 77395
L77449 77395
L77393 77367
L77364 77339
L77336 77283
L77336 77114
L77364 77058
L77393 77030
L77449 77002
L77561 77002
L77618 77030
" />
<path d="M78124 77395
L78124 77086
L78096 77030
L78039 77002
L77927 77002
L77871 77030
" />
<path d="M78124 77367
L78067 77395
L77927 77395
L77871 77367
L77842 77311
L77842 77255
L77871 77199
L77927 77170
L78067 77170
L78124 77142
" />
<path d="M78658 77395
L78658 76805
" />
<path d="M78658 77367
L78602 77395
L78489 77395
L78433 77367
L78405 77339
L78377 77283
L78377 77114
L78405 77058
L78433 77030
L78489 77002
L78602 77002
L78658 77030
" />
<path d="M79642 76805
L79530 76805
L79474 76833
L79445 76861
L79389 76946
L79361 77058
L79361 77283
L79389 77339
L79417 77367
L79474 77395
L79586 77395
L79642 77367
L79670 77339
L79699 77283
L79699 77142
L79670 77086
L79642 77058
L79586 77030
L79474 77030
L79417 77058
L79389 77086
L79361 77142
" />
<path d="M79952 77339
L79980 77367
L79952 77395
L79923 77367
L79952 77339
L79952 77395
" />
<path d="M80345 76805
L80402 76805
L80458 76833
L80486 76861
L80514 76917
L80542 77030
L80542 77170
L80514 77283
L80486 77339
L80458 77367
L80402 77395
L80345 77395
L80289 77367
L80261 77339
L80233 77283
L80205 77170
L80205 77030
L80233 76917
L80261 76861
L80289 76833
L80345 76805
" />
<path d="M80795 77339
L80823 77367
L80795 77395
L80767 77367
L80795 77339
L80795 77395
" />
<path d="M81386 77395
L81048 77395
" />
<path d="M81217 77395
L81217 76805
L81161 76889
L81105 76946
L81048 76974
" />
<path d="M81639 77170
L82089 77170
" />
<path d="M82314 76805
L82708 76805
L82454 77395
" />
<path d="M82961 77395
L83073 77395
L83129 77367
L83157 77339
L83214 77255
L83242 77142
L83242 76917
L83214 76861
L83186 76833
L83129 76805
L83017 76805
L82961 76833
L82932 76861
L82904 76917
L82904 77058
L82932 77114
L82961 77142
L83017 77170
L83129 77170
L83186 77142
L83214 77114
L83242 77058
" />
<path d="M83748 77367
L83692 77395
L83579 77395
L83523 77367
L83495 77339
L83467 77283
L83467 77114
L83495 77058
L83523 77030
L83579 77002
L83692 77002
L83748 77030
" />
<path d="M84310 77395
L83973 77395
" />
<path d="M84142 77395
L84142 76805
L84085 76889
L84029 76946
L83973 76974
" />
<path d="M84789 77367
L84732 77395
L84620 77395
L84564 77367
L84535 77311
L84535 77086
L84564 77030
L84620 77002
L84732 77002
L84789 77030
L84817 77086
L84817 77142
L84535 77199
" />
<path d="M85013 76805
L85379 76805
L85182 77030
L85267 77030
L85323 77058
L85351 77086
L85379 77142
L85379 77283
L85351 77339
L85323 77367
L85267 77395
L85098 77395
L85042 77367
L85013 77339
" />
<path d="M85885 77395
L85885 77086
L85857 77030
L85801 77002
L85688 77002
L85632 77030
" />
<path d="M85885 77367
L85829 77395
L85688 77395
L85632 77367
L85604 77311
L85604 77255
L85632 77199
L85688 77170
L85829 77170
L85885 77142
" />
<path d="M86420 77002
L86420 77395
" />
<path d="M86279 76777
L86138 77199
L86504 77199
" />
<path d="M86841 76805
L86898 76805
L86954 76833
L86982 76861
L87010 76917
L87038 77030
L87038 77170
L87010 77283
L86982 77339
L86954 77367
L86898 77395
L86841 77395
L86785 77367
L86757 77339
L86729 77283
L86701 77170
L86701 77030
L86729 76917
L86757 76861
L86785 76833
L86841 76805
" />
<path d="M87291 77395
L87291 76805
" />
<path d="M87291 77030
L87348 77002
L87460 77002
L87516 77030
L87544 77058
L87573 77114
L87573 77283
L87544 77339
L87516 77367
L87460 77395
L87348 77395
L87291 77367
" />
<path d="M87741 77170
L87769 77142
L87826 77114
L87938 77170
L87994 77142
L88022 77114
" />
<path d="M88557 77395
L88219 77395
" />
<path d="M88388 77395
L88388 76805
L88332 76889
L88276 76946
L88219 76974
" />
<path d="M89119 77395
L88782 77395
" />
<path d="M88950 77395
L88950 76805
L88894 76889
L88838 76946
L88782 76974
" />
<path d="M89625 76805
L89513 76805
L89457 76833
L89429 76861
L89372 76946
L89344 77058
L89344 77283
L89372 77339
L89400 77367
L89457 77395
L89569 77395
L89625 77367
L89654 77339
L89682 77283
L89682 77142
L89654 77086
L89625 77058
L89569 77030
L89457 77030
L89400 77058
L89372 77086
L89344 77142
" />
<path d="M89850 77170
L89878 77142
L89935 77114
L90047 77170
L90103 77142
L90132 77114
" />
<path d="M90610 77002
L90610 77395
" />
<path d="M90357 77002
L90357 77311
L90385 77367
L90441 77395
L90525 77395
L90582 77367
L90610 77339
" />
<path d="M90891 77395
L90891 76805
" />
<path d="M90891 77030
L90947 77002
L91060 77002
L91116 77030
L91144 77058
L91172 77114
L91172 77283
L91144 77339
L91116 77367
L91060 77395
L90947 77395
L90891 77367
" />
<path d="M91678 77002
L91678 77395
" />
<path d="M91425 77002
L91425 77311
L91453 77367
L91510 77395
L91594 77395
L91650 77367
L91678 77339
" />
<path d="M91959 77002
L91959 77395
" />
<path d="M91959 77058
L91988 77030
L92044 77002
L92128 77002
L92184 77030
L92213 77086
L92213 77395
" />
<path d="M92409 77002
L92634 77002
" />
<path d="M92494 76805
L92494 77311
L92522 77367
L92578 77395
L92634 77395
" />
<path d="M93084 77002
L93084 77395
" />
<path d="M92831 77002
L92831 77311
L92859 77367
L92916 77395
L93000 77395
L93056 77367
L93084 77339
" />
<path d="M93337 76861
L93366 76833
L93422 76805
L93562 76805
L93619 76833
L93647 76861
L93675 76917
L93675 76974
L93647 77058
L93309 77395
L93675 77395
" />
<path d="M94040 76805
L94097 76805
L94153 76833
L94181 76861
L94209 76917
L94237 77030
L94237 77170
L94209 77283
L94181 77339
L94153 77367
L94097 77395
L94040 77395
L93984 77367
L93956 77339
L93928 77283
L93900 77170
L93900 77030
L93928 76917
L93956 76861
L93984 76833
L94040 76805
" />
<path d="M94490 77339
L94519 77367
L94490 77395
L94462 77367
L94490 77339
L94490 77395
" />
<path d="M94884 76805
L94940 76805
L94997 76833
L95025 76861
L95053 76917
L95081 77030
L95081 77170
L95053 77283
L95025 77339
L94997 77367
L94940 77395
L94884 77395
L94828 77367
L94800 77339
L94772 77283
L94744 77170
L94744 77030
L94772 76917
L94800 76861
L94828 76833
L94884 76805
" />
<path d="M95587 77002
L95587 77395
" />
<path d="M95447 76777
L95306 77199
L95672 77199
" />
<path d="M95896 77339
L95925 77367
L95896 77395
L95868 77367
L95896 77339
L95896 77395
" />
<path d="M96487 77395
L96150 77395
" />
<path d="M96318 77395
L96318 76805
L96262 76889
L96206 76946
L96150 76974
" />
</g><path d="M69685 75396
L112205 75396
" />
</g>
<g style="fill:#840000; fill-opacity:0.0; 
stroke:#840000; stroke-width:118.110236; stroke-opacity:1; 
stroke-linecap:round; stroke-linejoin:round;">
<text x="103544.173228" y="76321.732283"
textLength="2928.385827" font-size="787.401575" lengthAdjust="spacingAndGlyphs"
text-anchor="start" opacity="0">Rev: B</text>
<g class="stroked-text"><desc>Rev: B</desc>
<path d="M104098 76293
L103902 76012
" />
<path d="M103761 76293
L103761 75703
L103986 75703
L104042 75731
L104070 75759
L104098 75815
L104098 75899
L104070 75956
L104042 75984
L103986 76012
L103761 76012
" />
<path d="M104577 76265
L104520 76293
L104408 76293
L104352 76265
L104323 76209
L104323 75984
L104352 75928
L104408 75899
L104520 75899
L104577 75928
L104605 75984
L104605 76040
L104323 76096
" />
<path d="M104802 75899
L104942 76293
L105083 75899
" />
<path d="M105308 76237
L105336 76265
L105308 76293
L105280 76265
L105308 76237
L105308 76293
" />
<path d="M105308 75928
L105336 75956
L105308 75984
L105280 75956
L105308 75928
L105308 75984
" />
<path d="M106236 75984
L106320 76012
L106348 76040
L106376 76096
L106376 76181
L106348 76237
L106320 76265
L106264 76293
L106039 76293
L106039 75703
L106236 75703
L106292 75731
L106320 75759
L106348 75815
L106348 75871
L106320 75928
L106292 75956
L106236 75984
L106039 75984
" />
</g></g>
<g style="fill:#840000; fill-opacity:0.0; 
stroke:#840000; stroke-width:60.000000; stroke-opacity:1; 
stroke-linecap:round; stroke-linejoin:round;">
<text x="70079.606299" y="76321.732283"
textLength="3781.220472" font-size="787.401575" lengthAdjust="spacingAndGlyphs"
text-anchor="start" opacity="0">Size: A4</text>
<g class="stroked-text"><desc>Size: A4</desc>
<path d="M70222 76265
L70306 76293
L70447 76293
L70503 76265
L70531 76237
L70559 76181
L70559 76124
L70531 76068
L70503 76040
L70447 76012
L70334 75984
L70278 75956
L70250 75928
L70222 75871
L70222 75815
L70250 75759
L70278 75731
L70334 75703
L70475 75703
L70559 75731
" />
<path d="M70812 76293
L70812 75899
" />
<path d="M70812 75703
L70784 75731
L70812 75759
L70840 75731
L70812 75703
L70812 75759
" />
<path d="M71037 75899
L71346 75899
L71037 76293
L71346 76293
" />
<path d="M71796 76265
L71740 76293
L71628 76293
L71571 76265
L71543 76209
L71543 75984
L71571 75928
L71628 75899
L71740 75899
L71796 75928
L71825 75984
L71825 76040
L71543 76096
" />
<path d="M72078 76237
L72106 76265
L72078 76293
L72049 76265
L72078 76237
L72078 76293
" />
<path d="M72078 75928
L72106 75956
L72078 75984
L72049 75956
L72078 75928
L72078 75984
" />
<path d="M72781 76124
L73062 76124
" />
<path d="M72724 76293
L72921 75703
L73118 76293
" />
<path d="M73568 75899
L73568 76293
" />
<path d="M73427 75674
L73287 76096
L73652 76096
" />
</g><text x="103544.173228" y="77424.094488"
textLength="3912.637795" font-size="787.401575" lengthAdjust="spacingAndGlyphs"
text-anchor="start" opacity="0">Id: 3/46</text>
<g class="stroked-text"><desc>Id: 3/46</desc>
<path d="M103714 77395
L103714 76805
" />
<path d="M104249 77395
L104249 76805
" />
<path d="M104249 77367
L104192 77395
L104080 77395
L104024 77367
L103995 77339
L103967 77283
L103967 77114
L103995 77058
L104024 77030
L104080 77002
L104192 77002
L104249 77030
" />
<path d="M104530 77339
L104558 77367
L104530 77395
L104502 77367
L104530 77339
L104530 77395
" />
<path d="M104530 77030
L104558 77058
L104530 77086
L104502 77058
L104530 77030
L104530 77086
" />
<path d="M105205 76805
L105570 76805
L105373 77030
L105458 77030
L105514 77058
L105542 77086
L105570 77142
L105570 77283
L105542 77339
L105514 77367
L105458 77395
L105289 77395
L105233 77367
L105205 77339
" />
<path d="M106245 76777
L105739 77536
" />
<path d="M106695 77002
L106695 77395
" />
<path d="M106555 76777
L106414 77199
L106780 77199
" />
<path d="M107258 76805
L107145 76805
L107089 76833
L107061 76861
L107004 76946
L106976 77058
L106976 77283
L107004 77339
L107033 77367
L107089 77395
L107201 77395
L107258 77367
L107286 77339
L107314 77283
L107314 77142
L107286 77086
L107258 77058
L107201 77030
L107089 77030
L107033 77058
L107004 77086
L106976 77142
" />
</g><path d="M69685 73821
L112205 73821
" />
</g>
<g style="fill:#840000; fill-opacity:0.0; 
stroke:#840000; stroke-width:157.480315; stroke-opacity:1; 
stroke-linecap:round; stroke-linejoin:round;">
<text x="70079.606299" y="74924.094488"
textLength="19828.503937" font-size="1049.842520" lengthAdjust="spacingAndGlyphs"
text-anchor="start" opacity="0">Title: PSU - LDO 3.3V @ 250mA</text>
<g class="stroked-text"><desc>Title: PSU - LDO 3.3V @ 250mA</desc>
<path d="M70360 74099
L70810 74099
" />
<path d="M70486 74886
L70585 74099
" />
<path d="M70974 74886
L71039 74361
" />
<path d="M71072 74099
L71030 74136
L71063 74174
L71105 74136
L71072 74099
L71063 74174
" />
<path d="M71302 74361
L71602 74361
" />
<path d="M71447 74099
L71363 74774
L71391 74849
L71461 74886
L71536 74886
" />
<path d="M71911 74886
L71841 74849
L71812 74774
L71897 74099
" />
<path d="M72516 74849
L72436 74886
L72286 74886
L72216 74849
L72187 74774
L72225 74474
L72272 74399
L72352 74361
L72501 74361
L72572 74399
L72600 74474
L72591 74549
L72206 74624
" />
<path d="M72895 74811
L72928 74849
L72886 74886
L72853 74849
L72895 74811
L72886 74886
" />
<path d="M72947 74399
L72980 74436
L72937 74474
L72905 74436
L72947 74399
L72937 74474
" />
<path d="M73861 74886
L73959 74099
L74259 74099
L74329 74136
L74362 74174
L74390 74249
L74376 74361
L74329 74436
L74287 74474
L74207 74511
L73908 74511
" />
<path d="M74615 74849
L74723 74886
L74911 74886
L74990 74849
L75032 74811
L75079 74736
L75089 74661
L75061 74586
L75028 74549
L74957 74511
L74812 74474
L74742 74436
L74709 74399
L74681 74324
L74690 74249
L74737 74174
L74779 74136
L74859 74099
L75046 74099
L75154 74136
" />
<path d="M75496 74099
L75417 74736
L75445 74811
L75478 74849
L75548 74886
L75698 74886
L75778 74849
L75820 74811
L75867 74736
L75946 74099
" />
<path d="M76860 74586
L77460 74586
" />
<path d="M78773 74886
L78398 74886
L78496 74099
" />
<path d="M79035 74886
L79133 74099
L79321 74099
L79429 74136
L79494 74211
L79522 74286
L79541 74436
L79527 74549
L79471 74699
L79424 74774
L79340 74849
L79222 74886
L79035 74886
" />
<path d="M80071 74099
L80221 74099
L80291 74136
L80357 74211
L80375 74361
L80343 74624
L80286 74774
L80202 74849
L80122 74886
L79972 74886
L79902 74849
L79837 74774
L79818 74624
L79851 74361
L79907 74211
L79991 74136
L80071 74099
" />
<path d="M81271 74099
L81758 74099
L81458 74399
L81571 74399
L81641 74436
L81674 74474
L81702 74549
L81678 74736
L81632 74811
L81589 74849
L81510 74886
L81285 74886
L81214 74849
L81182 74811
" />
<path d="M82007 74811
L82039 74849
L81997 74886
L81964 74849
L82007 74811
L81997 74886
" />
<path d="M82396 74099
L82883 74099
L82583 74399
L82696 74399
L82766 74436
L82799 74474
L82827 74549
L82803 74736
L82756 74811
L82714 74849
L82635 74886
L82410 74886
L82339 74849
L82307 74811
" />
<path d="M83108 74099
L83272 74886
L83633 74099
" />
<path d="M84931 74511
L84898 74474
L84828 74436
L84753 74436
L84673 74474
L84631 74511
L84584 74586
L84575 74661
L84603 74736
L84636 74774
L84706 74811
L84781 74811
L84861 74774
L84903 74736
" />
<path d="M84941 74436
L84903 74736
L84936 74774
L84973 74774
L85053 74736
L85100 74661
L85123 74474
L85062 74361
L84959 74286
L84814 74249
L84659 74286
L84537 74361
L84448 74474
L84392 74624
L84411 74774
L84472 74886
L84575 74961
L84720 74999
L84875 74961
L84997 74886
" />
<path d="M86061 74174
L86103 74136
L86183 74099
L86370 74099
L86440 74136
L86473 74174
L86501 74249
L86492 74324
L86440 74436
L85934 74886
L86422 74886
" />
<path d="M87232 74099
L86857 74099
L86773 74474
L86815 74436
L86895 74399
L87082 74399
L87153 74436
L87186 74474
L87214 74549
L87190 74736
L87143 74811
L87101 74849
L87022 74886
L86834 74886
L86764 74849
L86731 74811
" />
<path d="M87757 74099
L87832 74099
L87903 74136
L87935 74174
L87964 74249
L87982 74399
L87959 74586
L87903 74736
L87856 74811
L87814 74849
L87734 74886
L87659 74886
L87589 74849
L87556 74811
L87528 74736
L87509 74586
L87532 74399
L87589 74249
L87636 74174
L87678 74136
L87757 74099
" />
<path d="M88259 74886
L88325 74361
" />
<path d="M88315 74436
L88357 74399
L88437 74361
L88549 74361
L88620 74399
L88648 74474
L88596 74886
" />
<path d="M88648 74474
L88695 74399
L88774 74361
L88887 74361
L88957 74399
L88985 74474
L88934 74886
" />
<path d="M89299 74661
L89674 74661
" />
<path d="M89196 74886
L89557 74099
L89721 74886
" />
</g></g>
<g style="fill:#840000; fill-opacity:0.0; 
stroke:#840000; stroke-width:60.000000; stroke-opacity:1; 
stroke-linecap:round; stroke-linejoin:round;">
<text x="70079.606299" y="73408.346457"
textLength="15924.645669" font-size="787.401575" lengthAdjust="spacingAndGlyphs"
text-anchor="start" opacity="0">File: 2_42Inch_OLED_LDO.kicad_sch</text>
<g class="stroked-text"><desc>File: 2_42Inch_OLED_LDO.kicad_sch</desc>
<path d="M70447 73070
L70250 73070
" />
<path d="M70250 73380
L70250 72789
L70531 72789
" />
<path d="M70756 73380
L70756 72986
" />
<path d="M70756 72789
L70728 72817
L70756 72845
L70784 72817
L70756 72789
L70756 72845
" />
<path d="M71121 73380
L71065 73352
L71037 73295
L71037 72789
" />
<path d="M71571 73352
L71515 73380
L71403 73380
L71346 73352
L71318 73295
L71318 73070
L71346 73014
L71403 72986
L71515 72986
L71571 73014
L71600 73070
L71600 73127
L71318 73183
" />
<path d="M71853 73323
L71881 73352
L71853 73380
L71825 73352
L71853 73323
L71853 73380
" />
<path d="M71853 73014
L71881 73042
L71853 73070
L71825 73042
L71853 73014
L71853 73070
" />
<path d="M72556 72845
L72584 72817
L72640 72789
L72781 72789
L72837 72817
L72865 72845
L72893 72902
L72893 72958
L72865 73042
L72528 73380
L72893 73380
" />
<path d="M73006 73436
L73456 73436
" />
<path d="M73849 72986
L73849 73380
" />
<path d="M73709 72761
L73568 73183
L73934 73183
" />
<path d="M74130 72845
L74159 72817
L74215 72789
L74355 72789
L74412 72817
L74440 72845
L74468 72902
L74468 72958
L74440 73042
L74102 73380
L74468 73380
" />
<path d="M74721 73380
L74721 72789
" />
<path d="M75002 72986
L75002 73380
" />
<path d="M75002 73042
L75030 73014
L75087 72986
L75171 72986
L75227 73014
L75255 73070
L75255 73380
" />
<path d="M75790 73352
L75733 73380
L75621 73380
L75565 73352
L75537 73323
L75508 73267
L75508 73098
L75537 73042
L75565 73014
L75621 72986
L75733 72986
L75790 73014
" />
<path d="M76043 73380
L76043 72789
" />
<path d="M76296 73380
L76296 73070
L76268 73014
L76211 72986
L76127 72986
L76071 73014
L76043 73042
" />
<path d="M76436 73436
L76886 73436
" />
<path d="M77139 72789
L77252 72789
L77308 72817
L77364 72874
L77393 72986
L77393 73183
L77364 73295
L77308 73352
L77252 73380
L77139 73380
L77083 73352
L77027 73295
L76999 73183
L76999 72986
L77027 72874
L77083 72817
L77139 72789
" />
<path d="M77927 73380
L77646 73380
L77646 72789
" />
<path d="M78124 73070
L78321 73070
" />
<path d="M78405 73380
L78124 73380
L78124 72789
L78405 72789
" />
<path d="M78658 73380
L78658 72789
L78799 72789
L78883 72817
L78939 72874
L78967 72930
L78995 73042
L78995 73127
L78967 73239
L78939 73295
L78883 73352
L78799 73380
L78658 73380
" />
<path d="M79108 73436
L79558 73436
" />
<path d="M79980 73380
L79699 73380
L79699 72789
" />
<path d="M80177 73380
L80177 72789
L80317 72789
L80402 72817
L80458 72874
L80486 72930
L80514 73042
L80514 73127
L80486 73239
L80458 73295
L80402 73352
L80317 73380
L80177 73380
" />
<path d="M80880 72789
L80992 72789
L81048 72817
L81105 72874
L81133 72986
L81133 73183
L81105 73295
L81048 73352
L80992 73380
L80880 73380
L80823 73352
L80767 73295
L80739 73183
L80739 72986
L80767 72874
L80823 72817
L80880 72789
" />
<path d="M81386 73323
L81414 73352
L81386 73380
L81358 73352
L81386 73323
L81386 73380
" />
<path d="M81667 73380
L81667 72789
" />
<path d="M81723 73155
L81892 73380
" />
<path d="M81892 72986
L81667 73211
" />
<path d="M82145 73380
L82145 72986
" />
<path d="M82145 72789
L82117 72817
L82145 72845
L82173 72817
L82145 72789
L82145 72845
" />
<path d="M82679 73352
L82623 73380
L82511 73380
L82454 73352
L82426 73323
L82398 73267
L82398 73098
L82426 73042
L82454 73014
L82511 72986
L82623 72986
L82679 73014
" />
<path d="M83186 73380
L83186 73070
L83157 73014
L83101 72986
L82989 72986
L82932 73014
" />
<path d="M83186 73352
L83129 73380
L82989 73380
L82932 73352
L82904 73295
L82904 73239
L82932 73183
L82989 73155
L83129 73155
L83186 73127
" />
<path d="M83720 73380
L83720 72789
" />
<path d="M83720 73352
L83664 73380
L83551 73380
L83495 73352
L83467 73323
L83439 73267
L83439 73098
L83467 73042
L83495 73014
L83551 72986
L83664 72986
L83720 73014
" />
<path d="M83860 73436
L84310 73436
" />
<path d="M84423 73352
L84479 73380
L84592 73380
L84648 73352
L84676 73295
L84676 73267
L84648 73211
L84592 73183
L84507 73183
L84451 73155
L84423 73098
L84423 73070
L84451 73014
L84507 72986
L84592 72986
L84648 73014
" />
<path d="M85182 73352
L85126 73380
L85013 73380
L84957 73352
L84929 73323
L84901 73267
L84901 73098
L84929 73042
L84957 73014
L85013 72986
L85126 72986
L85182 73014
" />
<path d="M85435 73380
L85435 72789
" />
<path d="M85688 73380
L85688 73070
L85660 73014
L85604 72986
L85520 72986
L85463 73014
L85435 73042
" />
</g><path d="M69685 71459
L112205 71459
" />
<text x="70079.606299" y="72345.354331"
textLength="15667.440945" font-size="787.401575" lengthAdjust="spacingAndGlyphs"
text-anchor="start" opacity="0">Sheet: /PSU/2_42Inch_OLED_LDO/</text>
<g class="stroked-text"><desc>Sheet: /PSU/2_42Inch_OLED_LDO/</desc>
<path d="M70222 72289
L70306 72317
L70447 72317
L70503 72289
L70531 72260
L70559 72204
L70559 72148
L70531 72092
L70503 72064
L70447 72035
L70334 72007
L70278 71979
L70250 71951
L70222 71895
L70222 71839
L70250 71782
L70278 71754
L70334 71726
L70475 71726
L70559 71754
" />
<path d="M70812 72317
L70812 71726
" />
<path d="M71065 72317
L71065 72007
L71037 71951
L70981 71923
L70897 71923
L70840 71951
L70812 71979
" />
<path d="M71571 72289
L71515 72317
L71403 72317
L71346 72289
L71318 72232
L71318 72007
L71346 71951
L71403 71923
L71515 71923
L71571 71951
L71600 72007
L71600 72064
L71318 72120
" />
<path d="M72078 72289
L72021 72317
L71909 72317
L71853 72289
L71825 72232
L71825 72007
L71853 71951
L71909 71923
L72021 71923
L72078 71951
L72106 72007
L72106 72064
L71825 72120
" />
<path d="M72274 71923
L72499 71923
" />
<path d="M72359 71726
L72359 72232
L72387 72289
L72443 72317
L72499 72317
" />
<path d="M72696 72260
L72724 72289
L72696 72317
L72668 72289
L72696 72260
L72696 72317
" />
<path d="M72696 71951
L72724 71979
L72696 72007
L72668 71979
L72696 71951
L72696 72007
" />
<path d="M73849 71698
L73343 72457
" />
<path d="M74046 72317
L74046 71726
L74271 71726
L74327 71754
L74355 71782
L74384 71839
L74384 71923
L74355 71979
L74327 72007
L74271 72035
L74046 72035
" />
<path d="M74609 72289
L74693 72317
L74834 72317
L74890 72289
L74918 72260
L74946 72204
L74946 72148
L74918 72092
L74890 72064
L74834 72035
L74721 72007
L74665 71979
L74637 71951
L74609 71895
L74609 71839
L74637 71782
L74665 71754
L74721 71726
L74862 71726
L74946 71754
" />
<path d="M75199 71726
L75199 72204
L75227 72260
L75255 72289
L75312 72317
L75424 72317
L75480 72289
L75508 72260
L75537 72204
L75537 71726
" />
<path d="M76240 71698
L75733 72457
" />
<path d="M76408 71782
L76436 71754
L76493 71726
L76633 71726
L76690 71754
L76718 71782
L76746 71839
L76746 71895
L76718 71979
L76380 72317
L76746 72317
" />
<path d="M76858 72373
L77308 72373
" />
<path d="M77702 71923
L77702 72317
" />
<path d="M77561 71698
L77421 72120
L77786 72120
" />
<path d="M77983 71782
L78011 71754
L78067 71726
L78208 71726
L78264 71754
L78292 71782
L78321 71839
L78321 71895
L78292 71979
L77955 72317
L78321 72317
" />
<path d="M78574 72317
L78574 71726
" />
<path d="M78855 71923
L78855 72317
" />
<path d="M78855 71979
L78883 71951
L78939 71923
L79024 71923
L79080 71951
L79108 72007
L79108 72317
" />
<path d="M79642 72289
L79586 72317
L79474 72317
L79417 72289
L79389 72260
L79361 72204
L79361 72035
L79389 71979
L79417 71951
L79474 71923
L79586 71923
L79642 71951
" />
<path d="M79895 72317
L79895 71726
" />
<path d="M80148 72317
L80148 72007
L80120 71951
L80064 71923
L79980 71923
L79923 71951
L79895 71979
" />
<path d="M80289 72373
L80739 72373
" />
<path d="M80992 71726
L81105 71726
L81161 71754
L81217 71811
L81245 71923
L81245 72120
L81217 72232
L81161 72289
L81105 72317
L80992 72317
L80936 72289
L80880 72232
L80852 72120
L80852 71923
L80880 71811
L80936 71754
L80992 71726
" />
<path d="M81780 72317
L81498 72317
L81498 71726
" />
<path d="M81976 72007
L82173 72007
" />
<path d="M82258 72317
L81976 72317
L81976 71726
L82258 71726
" />
<path d="M82511 72317
L82511 71726
L82651 71726
L82736 71754
L82792 71811
L82820 71867
L82848 71979
L82848 72064
L82820 72176
L82792 72232
L82736 72289
L82651 72317
L82511 72317
" />
<path d="M82961 72373
L83411 72373
" />
<path d="M83832 72317
L83551 72317
L83551 71726
" />
<path d="M84029 72317
L84029 71726
L84170 71726
L84254 71754
L84310 71811
L84339 71867
L84367 71979
L84367 72064
L84339 72176
L84310 72232
L84254 72289
L84170 72317
L84029 72317
" />
<path d="M84732 71726
L84845 71726
L84901 71754
L84957 71811
L84985 71923
L84985 72120
L84957 72232
L84901 72289
L84845 72317
L84732 72317
L84676 72289
L84620 72232
L84592 72120
L84592 71923
L84620 71811
L84676 71754
L84732 71726
" />
<path d="M85660 71698
L85154 72457
" />
</g></g>
<g style="fill:#840000; fill-opacity:0.0; 
stroke:#840000; stroke-width:118.110236; stroke-opacity:1; 
stroke-linecap:round; stroke-linejoin:round;">
<text x="70079.606299" y="71164.251969"
textLength="9199.488189" font-size="787.401575" lengthAdjust="spacingAndGlyphs"
text-anchor="start" opacity="0">Created by C Sutton</text>
<g class="stroked-text"><desc>Created by C Sutton</desc>
<path d="M70634 71079
L70606 71107
L70521 71136
L70465 71136
L70381 71107
L70325 71051
L70296 70995
L70268 70883
L70268 70798
L70296 70686
L70325 70629
L70381 70573
L70465 70545
L70521 70545
L70606 70573
L70634 70601
" />
<path d="M70887 71136
L70887 70742
" />
<path d="M70887 70854
L70915 70798
L70943 70770
L71000 70742
L71056 70742
" />
<path d="M71478 71107
L71421 71136
L71309 71136
L71253 71107
L71224 71051
L71224 70826
L71253 70770
L71309 70742
L71421 70742
L71478 70770
L71506 70826
L71506 70883
L71224 70939
" />
<path d="M72012 71136
L72012 70826
L71984 70770
L71928 70742
L71815 70742
L71759 70770
" />
<path d="M72012 71107
L71956 71136
L71815 71136
L71759 71107
L71731 71051
L71731 70995
L71759 70939
L71815 70911
L71956 70911
L72012 70883
" />
<path d="M72209 70742
L72434 70742
" />
<path d="M72293 70545
L72293 71051
L72321 71107
L72377 71136
L72434 71136
" />
<path d="M72856 71107
L72799 71136
L72687 71136
L72631 71107
L72602 71051
L72602 70826
L72631 70770
L72687 70742
L72799 70742
L72856 70770
L72884 70826
L72884 70883
L72602 70939
" />
<path d="M73390 71136
L73390 70545
" />
<path d="M73390 71107
L73334 71136
L73221 71136
L73165 71107
L73137 71079
L73109 71023
L73109 70854
L73137 70798
L73165 70770
L73221 70742
L73334 70742
L73390 70770
" />
<path d="M74121 71136
L74121 70545
" />
<path d="M74121 70770
L74177 70742
L74290 70742
L74346 70770
L74374 70798
L74402 70854
L74402 71023
L74374 71079
L74346 71107
L74290 71136
L74177 71136
L74121 71107
" />
<path d="M74599 70742
L74740 71136
" />
<path d="M74880 70742
L74740 71136
L74683 71276
L74655 71304
L74599 71332
" />
<path d="M75893 71079
L75865 71107
L75780 71136
L75724 71136
L75640 71107
L75583 71051
L75555 70995
L75527 70883
L75527 70798
L75555 70686
L75583 70629
L75640 70573
L75724 70545
L75780 70545
L75865 70573
L75893 70601
" />
<path d="M76568 71107
L76652 71136
L76793 71136
L76849 71107
L76877 71079
L76905 71023
L76905 70967
L76877 70911
L76849 70883
L76793 70854
L76680 70826
L76624 70798
L76596 70770
L76568 70714
L76568 70658
L76596 70601
L76624 70573
L76680 70545
L76821 70545
L76905 70573
" />
<path d="M77411 70742
L77411 71136
" />
<path d="M77158 70742
L77158 71051
L77186 71107
L77242 71136
L77327 71136
L77383 71107
L77411 71079
" />
<path d="M77608 70742
L77833 70742
" />
<path d="M77692 70545
L77692 71051
L77721 71107
L77777 71136
L77833 71136
" />
<path d="M77946 70742
L78170 70742
" />
<path d="M78030 70545
L78030 71051
L78058 71107
L78114 71136
L78170 71136
" />
<path d="M78452 71136
L78395 71107
L78367 71079
L78339 71023
L78339 70854
L78367 70798
L78395 70770
L78452 70742
L78536 70742
L78592 70770
L78620 70798
L78649 70854
L78649 71023
L78620 71079
L78592 71107
L78536 71136
L78452 71136
" />
<path d="M78902 70742
L78902 71136
" />
<path d="M78902 70798
L78930 70770
L78986 70742
L79070 70742
L79127 70770
L79155 70826
L79155 71136
" />
</g></g>
<g style="fill:#840000; fill-opacity:0.0; 
stroke:#840000; stroke-width:60.000000; stroke-opacity:1; 
stroke-linecap:round; stroke-linejoin:round;">
<text x="70079.606299" y="69983.149606"
textLength="153.543307" font-size="787.401575" lengthAdjust="spacingAndGlyphs"
text-anchor="start" opacity="0"></text>
<g class="stroked-text"><desc></desc>
</g><text x="70079.606299" y="68802.047244"
textLength="60.000000" font-size="787.401575" lengthAdjust="spacingAndGlyphs"
text-anchor="start" opacity="0"></text>
<g class="stroked-text"><desc></desc>
</g><text x="70079.606299" y="67620.944882"
textLength="60.000000" font-size="787.401575" lengthAdjust="spacingAndGlyphs"
text-anchor="start" opacity="0"></text>
<g class="stroked-text"><desc></desc>
</g><text x="70079.606299" y="66439.842520"
textLength="60.000000" font-size="787.401575" lengthAdjust="spacingAndGlyphs"
text-anchor="start" opacity="0"></text>
<g class="stroked-text"><desc></desc>
</g><path d="M77559 75396
L77559 76577
" />
<path d="M102756 75396
L102756 77955
" />
<g >
</g>
<g style="fill:#FFFFC2; fill-opacity:0.0; 
stroke:#FFFFC2; stroke-width:60.000000; stroke-opacity:1; 
stroke-linecap:round; stroke-linejoin:round;">
</g>
<g style="fill:#FFFFC2; fill-opacity:0.6; 
stroke:#FFFFC2; stroke-width:0.039370; stroke-opacity:1; 
stroke-linecap:round; stroke-linejoin:round;">
<rect x="47750.000000" y="32000.000000" width="4000.000000" height="2750.000000" rx="0.000000" />
</g>
<g style="fill:#840000; fill-opacity:0.6; 
stroke:#840000; stroke-width:0.039370; stroke-opacity:1; 
stroke-linecap:round; stroke-linejoin:round;">
</g>
<g style="fill:#840000; fill-opacity:0.0; 
stroke:#840000; stroke-width:100.000000; stroke-opacity:1; 
stroke-linecap:round; stroke-linejoin:round;">
<rect x="47750.000000" y="32000.000000" width="4000.000000" height="2750.000000" rx="0.000000" />
<rect x="47750.000000" y="32000.000000" width="4000.000000" height="2750.000000" rx="0.000000" />
</g>
<g style="fill:#840000; fill-opacity:0.0; 
stroke:#840000; stroke-width:60.000000; stroke-opacity:1; 
stroke-linecap:round; stroke-linejoin:round;">
<path d="M47750 32750
L46750 32750
" />
</g>
<g style="fill:#006464; fill-opacity:0.0; 
stroke:#006464; stroke-width:60.000000; stroke-opacity:1; 
stroke-linecap:round; stroke-linejoin:round;">
<text x="47850.000000" y="33000.000000"
textLength="726.653543" font-size="666.653543" lengthAdjust="spacingAndGlyphs"
text-anchor="start" opacity="0">VI</text>
<g class="stroked-text"><desc>VI</desc>
<path d="M47927 32476
L48094 32976
L48260 32476
" />
<path d="M48427 32976
L48427 32476
" />
</g></g>
<g style="fill:#A90000; fill-opacity:0.0; 
stroke:#A90000; stroke-width:60.000000; stroke-opacity:1; 
stroke-linecap:round; stroke-linejoin:round;">
<text x="47250.000000" y="32650.000000"
textLength="536.181102" font-size="666.653543" lengthAdjust="spacingAndGlyphs"
text-anchor="middle" opacity="0">1</text>
<g class="stroked-text"><desc>1</desc>
<path d="M47392 32626
L47107 32626
" />
<path d="M47250 32626
L47250 32126
L47202 32197
L47154 32245
L47107 32269
" />
</g></g>
<g style="fill:#840000; fill-opacity:0.0; 
stroke:#840000; stroke-width:60.000000; stroke-opacity:1; 
stroke-linecap:round; stroke-linejoin:round;">
<path d="M49750 34750
L49750 35750
" />
</g>
<g style="fill:#006464; fill-opacity:0.0; 
stroke:#006464; stroke-width:60.000000; stroke-opacity:1; 
stroke-linecap:round; stroke-linejoin:round;">
<g transform="rotate(-90.000000 49750.000000 34650.000000)">
<text x="49750.000000" y="34900.000000"
textLength="1583.818898" font-size="666.653543" lengthAdjust="spacingAndGlyphs"
text-anchor="start" opacity="0">GND</text>
</g>
<g class="stroked-text"><desc>GND</desc>
<path d="M49500 34239
L49476 34286
L49476 34358
L49500 34429
L49547 34477
L49595 34500
L49690 34524
L49761 34524
L49857 34500
L49904 34477
L49952 34429
L49976 34358
L49976 34310
L49952 34239
L49928 34215
L49761 34215
L49761 34310
" />
<path d="M49976 34000
L49476 34000
L49976 33715
L49476 33715
" />
<path d="M49976 33477
L49476 33477
L49476 33358
L49500 33286
L49547 33239
L49595 33215
L49690 33191
L49761 33191
L49857 33215
L49904 33239
L49952 33286
L49976 33358
L49976 33477
" />
</g></g>
<g style="fill:#A90000; fill-opacity:0.0; 
stroke:#A90000; stroke-width:60.000000; stroke-opacity:1; 
stroke-linecap:round; stroke-linejoin:round;">
<g transform="rotate(-90.000000 49650.000000 35250.000000)">
<text x="49650.000000" y="35250.000000"
textLength="536.181102" font-size="666.653543" lengthAdjust="spacingAndGlyphs"
text-anchor="middle" opacity="0">2</text>
</g>
<g class="stroked-text"><desc>2</desc>
<path d="M49173 35392
L49150 35369
L49126 35321
L49126 35202
L49150 35154
L49173 35130
L49221 35107
L49269 35107
L49340 35130
L49626 35416
L49626 35107
" />
</g></g>
<g style="fill:#840000; fill-opacity:0.0; 
stroke:#840000; stroke-width:60.000000; stroke-opacity:1; 
stroke-linecap:round; stroke-linejoin:round;">
<path d="M51750 32750
L52750 32750
" />
</g>
<g style="fill:#006464; fill-opacity:0.0; 
stroke:#006464; stroke-width:60.000000; stroke-opacity:1; 
stroke-linecap:round; stroke-linejoin:round;">
<text x="51650.000000" y="33000.000000"
textLength="1012.362205" font-size="666.653543" lengthAdjust="spacingAndGlyphs"
text-anchor="end" opacity="0">VO</text>
<g class="stroked-text"><desc>VO</desc>
<path d="M50715 32476
L50881 32976
L51048 32476
" />
<path d="M51310 32476
L51405 32476
L51453 32500
L51500 32547
L51524 32642
L51524 32809
L51500 32904
L51453 32952
L51405 32976
L51310 32976
L51262 32952
L51215 32904
L51191 32809
L51191 32642
L51215 32547
L51262 32500
L51310 32476
" />
</g></g>
<g style="fill:#A90000; fill-opacity:0.0; 
stroke:#A90000; stroke-width:60.000000; stroke-opacity:1; 
stroke-linecap:round; stroke-linejoin:round;">
<text x="52250.000000" y="32650.000000"
textLength="536.181102" font-size="666.653543" lengthAdjust="spacingAndGlyphs"
text-anchor="middle" opacity="0">3</text>
<g class="stroked-text"><desc>3</desc>
<path d="M52083 32126
L52392 32126
L52226 32316
L52297 32316
L52345 32340
L52369 32364
L52392 32411
L52392 32530
L52369 32578
L52345 32602
L52297 32626
L52154 32626
L52107 32602
L52083 32578
" />
</g></g>
<g style="fill:#006464; fill-opacity:0.0; 
stroke:#006464; stroke-width:60.000000; stroke-opacity:1; 
stroke-linecap:round; stroke-linejoin:round;">
<text x="49750.000000" y="27500.000000"
textLength="1536.181102" font-size="666.653543" lengthAdjust="spacingAndGlyphs"
text-anchor="middle" opacity="0">U41</text>
<g class="stroked-text"><desc>U41</desc>
<path d="M49130 26976
L49130 27380
L49154 27428
L49178 27452
L49226 27476
L49321 27476
L49369 27452
L49392 27428
L49416 27380
L49416 26976
" />
<path d="M49869 27142
L49869 27476
" />
<path d="M49750 26952
L49630 27309
L49940 27309
" />
<path d="M50392 27476
L50107 27476
" />
<path d="M50250 27476
L50250 26976
L50202 27047
L50154 27095
L50107 27119
" />
</g><text x="49750.000000" y="28500.000000"
textLength="9679.055118" font-size="666.653543" lengthAdjust="spacingAndGlyphs"
text-anchor="middle" opacity="0">MCP1703A-3302_SOT223</text>
<g class="stroked-text"><desc>MCP1703A-3302_SOT223</desc>
<path d="M45059 28476
L45059 27976
L45226 28333
L45392 27976
L45392 28476
" />
<path d="M45916 28428
L45892 28452
L45821 28476
L45773 28476
L45702 28452
L45654 28404
L45630 28357
L45607 28261
L45607 28190
L45630 28095
L45654 28047
L45702 28000
L45773 27976
L45821 27976
L45892 28000
L45916 28023
" />
<path d="M46130 28476
L46130 27976
L46321 27976
L46369 28000
L46392 28023
L46416 28071
L46416 28142
L46392 28190
L46369 28214
L46321 28238
L46130 28238
" />
<path d="M46892 28476
L46607 28476
" />
<path d="M46750 28476
L46750 27976
L46702 28047
L46654 28095
L46607 28119
" />
<path d="M47059 27976
L47392 27976
L47178 28476
" />
<path d="M47678 27976
L47726 27976
L47773 28000
L47797 28023
L47821 28071
L47845 28166
L47845 28285
L47821 28380
L47797 28428
L47773 28452
L47726 28476
L47678 28476
L47630 28452
L47607 28428
L47583 28380
L47559 28285
L47559 28166
L47583 28071
L47607 28023
L47630 28000
L47678 27976
" />
<path d="M48011 27976
L48321 27976
L48154 28166
L48226 28166
L48273 28190
L48297 28214
L48321 28261
L48321 28380
L48297 28428
L48273 28452
L48226 28476
L48083 28476
L48035 28452
L48011 28428
" />
<path d="M48511 28333
L48750 28333
" />
<path d="M48464 28476
L48630 27976
L48797 28476
" />
<path d="M48964 28285
L49345 28285
" />
<path d="M49535 27976
L49845 27976
L49678 28166
L49750 28166
L49797 28190
L49821 28214
L49845 28261
L49845 28380
L49821 28428
L49797 28452
L49750 28476
L49607 28476
L49559 28452
L49535 28428
" />
<path d="M50011 27976
L50321 27976
L50154 28166
L50226 28166
L50273 28190
L50297 28214
L50321 28261
L50321 28380
L50297 28428
L50273 28452
L50226 28476
L50083 28476
L50035 28452
L50011 28428
" />
<path d="M50630 27976
L50678 27976
L50726 28000
L50750 28023
L50773 28071
L50797 28166
L50797 28285
L50773 28380
L50750 28428
L50726 28452
L50678 28476
L50630 28476
L50583 28452
L50559 28428
L50535 28380
L50511 28285
L50511 28166
L50535 28071
L50559 28023
L50583 28000
L50630 27976
" />
<path d="M50988 28023
L51011 28000
L51059 27976
L51178 27976
L51226 28000
L51250 28023
L51273 28071
L51273 28119
L51250 28190
L50964 28476
L51273 28476
" />
<path d="M51369 28523
L51750 28523
" />
<path d="M51845 28452
L51916 28476
L52035 28476
L52083 28452
L52107 28428
L52130 28380
L52130 28333
L52107 28285
L52083 28261
L52035 28238
L51940 28214
L51892 28190
L51869 28166
L51845 28119
L51845 28071
L51869 28023
L51892 28000
L51940 27976
L52059 27976
L52130 28000
" />
<path d="M52440 27976
L52535 27976
L52583 28000
L52630 28047
L52654 28142
L52654 28309
L52630 28404
L52583 28452
L52535 28476
L52440 28476
L52392 28452
L52345 28404
L52321 28309
L52321 28142
L52345 28047
L52392 28000
L52440 27976
" />
<path d="M52797 27976
L53083 27976
" />
<path d="M52940 28476
L52940 27976
" />
<path d="M53226 28023
L53250 28000
L53297 27976
L53416 27976
L53464 28000
L53488 28023
L53511 28071
L53511 28119
L53488 28190
L53202 28476
L53511 28476
" />
<path d="M53702 28023
L53726 28000
L53773 27976
L53892 27976
L53940 28000
L53964 28023
L53988 28071
L53988 28119
L53964 28190
L53678 28476
L53988 28476
" />
<path d="M54154 27976
L54464 27976
L54297 28166
L54369 28166
L54416 28190
L54440 28214
L54464 28261
L54464 28380
L54440 28428
L54416 28452
L54369 28476
L54226 28476
L54178 28452
L54154 28428
" />
</g></g>
</g>
<g style="fill:#006464; fill-opacity:0.0; 
stroke:#006464; stroke-width:60.000000; stroke-opacity:1; 
stroke-linecap:round; stroke-linejoin:round;">
<g >
</g>
<g style="fill:#840000; fill-opacity:0.0; 
stroke:#840000; stroke-width:60.000000; stroke-opacity:1; 
stroke-linecap:round; stroke-linejoin:round;">
</g>
<g style="fill:#840000; fill-opacity:0.0; 
stroke:#840000; stroke-width:200.000000; stroke-opacity:1; 
stroke-linecap:round; stroke-linejoin:round;">
<path style="fill:#840000; fill-opacity:0.0; 
stroke:#840000; stroke-width:200.000000; stroke-opacity:1; 
stroke-linecap:round; stroke-linejoin:round;fill:none"
d="M 38950.000000,37550.000000
40550.000000,37550.000000
" /> 
<path style="fill:#840000; fill-opacity:0.0; 
stroke:#840000; stroke-width:200.000000; stroke-opacity:1; 
stroke-linecap:round; stroke-linejoin:round;fill:none"
d="M 38950.000000,36950.000000
40550.000000,36950.000000
" /> 
</g>
<g style="fill:#840000; fill-opacity:0.0; 
stroke:#840000; stroke-width:60.000000; stroke-opacity:1; 
stroke-linecap:round; stroke-linejoin:round;">
<path d="M39750 36850
L39750 35750
" />
<path d="M39750 37650
L39750 38750
" />
</g>
<g style="fill:#006464; fill-opacity:0.0; 
stroke:#006464; stroke-width:60.000000; stroke-opacity:1; 
stroke-linecap:round; stroke-linejoin:round;">
<text x="41657.440945" y="37040.000000"
textLength="1512.362205" font-size="666.653543" lengthAdjust="spacingAndGlyphs"
text-anchor="middle" opacity="0">C24</text>
<g class="stroked-text"><desc>C24</desc>
<path d="M41335 36968
L41312 36992
L41240 37016
L41193 37016
L41121 36992
L41074 36944
L41050 36897
L41026 36801
L41026 36730
L41050 36635
L41074 36587
L41121 36540
L41193 36516
L41240 36516
L41312 36540
L41335 36563
" />
<path d="M41526 36563
L41550 36540
L41597 36516
L41716 36516
L41764 36540
L41788 36563
L41812 36611
L41812 36659
L41788 36730
L41502 37016
L41812 37016
" />
<path d="M42240 36682
L42240 37016
" />
<path d="M42121 36492
L42002 36849
L42312 36849
" />
</g><text x="41609.803150" y="37950.000000"
textLength="1417.125984" font-size="666.653543" lengthAdjust="spacingAndGlyphs"
text-anchor="middle" opacity="0">1uF</text>
<g class="stroked-text"><desc>1uF</desc>
<path d="M41312 37926
L41026 37926
" />
<path d="M41169 37926
L41169 37426
L41121 37497
L41074 37545
L41026 37569
" />
<path d="M41740 37592
L41740 37926
" />
<path d="M41526 37592
L41526 37854
L41550 37902
L41597 37926
L41669 37926
L41716 37902
L41740 37878
" />
<path d="M42145 37664
L41978 37664
" />
<path d="M41978 37926
L41978 37426
L42216 37426
" />
</g></g>
</g>
<g style="fill:#006464; fill-opacity:0.0; 
stroke:#006464; stroke-width:60.000000; stroke-opacity:1; 
stroke-linecap:round; stroke-linejoin:round;">
<g >
</g>
<g style="fill:#840000; fill-opacity:0.0; 
stroke:#840000; stroke-width:60.000000; stroke-opacity:1; 
stroke-linecap:round; stroke-linejoin:round;">
<circle cx="73000.000000" cy="30200.000000" r="300.000000" /> 
<path d="M73000 30500
L73000 31500
" />
</g>
<g style="fill:#006464; fill-opacity:0.0; 
stroke:#006464; stroke-width:60.000000; stroke-opacity:1; 
stroke-linecap:round; stroke-linejoin:round;">
<text x="74289.803150" y="31030.000000"
textLength="1417.125984" font-size="666.653543" lengthAdjust="spacingAndGlyphs"
text-anchor="middle" opacity="0">TP9</text>
<g class="stroked-text"><desc>TP9</desc>
<path d="M73658 30506
L73944 30506
" />
<path d="M73801 31006
L73801 30506
" />
<path d="M74111 31006
L74111 30506
L74301 30506
L74349 30530
L74373 30553
L74396 30601
L74396 30672
L74373 30720
L74349 30744
L74301 30768
L74111 30768
" />
<path d="M74635 31006
L74730 31006
L74777 30982
L74801 30958
L74849 30887
L74873 30791
L74873 30601
L74849 30553
L74825 30530
L74777 30506
L74682 30506
L74635 30530
L74611 30553
L74587 30601
L74587 30720
L74611 30768
L74635 30791
L74682 30815
L74777 30815
L74825 30791
L74849 30768
L74873 30720
" />
</g></g>
</g>
<g style="fill:#006464; fill-opacity:0.0; 
stroke:#006464; stroke-width:60.000000; stroke-opacity:1; 
stroke-linecap:round; stroke-linejoin:round;">
<g >
</g>
<g style="fill:#840000; fill-opacity:0.0; 
stroke:#840000; stroke-width:60.000000; stroke-opacity:1; 
stroke-linecap:round; stroke-linejoin:round;">
</g>
<g style="fill:#840000; fill-opacity:0.0; 
stroke:#840000; stroke-width:100.000000; stroke-opacity:1; 
stroke-linecap:round; stroke-linejoin:round;">
<path style="fill:#840000; fill-opacity:0.0; 
stroke:#840000; stroke-width:100.000000; stroke-opacity:1; 
stroke-linecap:round; stroke-linejoin:round;fill:none"
d="M 73500.000000,35500.000000
72500.000000,35500.000000
" /> 
</g>
<g style="fill:#840000; fill-opacity:0.0; 
stroke:#840000; stroke-width:60.000000; stroke-opacity:1; 
stroke-linecap:round; stroke-linejoin:round;">
<path style="fill:#840000; fill-opacity:0.0; 
stroke:#840000; stroke-width:60.000000; stroke-opacity:1; 
stroke-linecap:round; stroke-linejoin:round;fill:none"
d="M 73000.000000,35500.000000
73000.000000,34500.000000
" /> 
</g>
<g style="fill:#840000; fill-opacity:0.0; 
stroke:#840000; stroke-width:100.000000; stroke-opacity:1; 
stroke-linecap:round; stroke-linejoin:round;">
<path style="fill:#840000; fill-opacity:0.0; 
stroke:#840000; stroke-width:100.000000; stroke-opacity:1; 
stroke-linecap:round; stroke-linejoin:round;fill:none"
d="M 73500.000000,34500.000000
72500.000000,34500.000000
73000.000000,35500.000000
Z" /> 
</g>
<g style="fill:#840000; fill-opacity:0.0; 
stroke:#840000; stroke-width:60.000000; stroke-opacity:1; 
stroke-linecap:round; stroke-linejoin:round;">
<path style="fill:#840000; fill-opacity:0.0; 
stroke:#840000; stroke-width:60.000000; stroke-opacity:1; 
stroke-linecap:round; stroke-linejoin:round;fill:none"
d="M 73300.000000,36200.000000
73900.000000,36800.000000
73900.000000,36500.000000
73900.000000,36800.000000
73600.000000,36800.000000
" /> 
<path style="fill:#840000; fill-opacity:0.0; 
stroke:#840000; stroke-width:60.000000; stroke-opacity:1; 
stroke-linecap:round; stroke-linejoin:round;fill:none"
d="M 73300.000000,35700.000000
73900.000000,36300.000000
73900.000000,36000.000000
73900.000000,36300.000000
73600.000000,36300.000000
" /> 
<path d="M73000 35500
L73000 36500
" />
<path d="M73000 34500
L73000 33500
" />
</g>
<g style="fill:#006464; fill-opacity:0.0; 
stroke:#006464; stroke-width:60.000000; stroke-opacity:1; 
stroke-linecap:round; stroke-linejoin:round;">
<text x="74699.330709" y="34859.960630"
textLength="1036.181102" font-size="666.653543" lengthAdjust="spacingAndGlyphs"
text-anchor="middle" opacity="0">D6</text>
<g class="stroked-text"><desc>D6</desc>
<path d="M74330 34836
L74330 34336
L74449 34336
L74520 34359
L74568 34407
L74592 34455
L74615 34550
L74615 34621
L74592 34717
L74568 34764
L74520 34812
L74449 34836
L74330 34836
" />
<path d="M75044 34336
L74949 34336
L74901 34359
L74877 34383
L74830 34455
L74806 34550
L74806 34740
L74830 34788
L74854 34812
L74901 34836
L74996 34836
L75044 34812
L75068 34788
L75092 34740
L75092 34621
L75068 34574
L75044 34550
L74996 34526
L74901 34526
L74854 34550
L74830 34574
L74806 34621
" />
</g><text x="74937.440945" y="35769.960630"
textLength="1512.362205" font-size="666.653543" lengthAdjust="spacingAndGlyphs"
text-anchor="middle" opacity="0">RED</text>
<g class="stroked-text"><desc>RED</desc>
<path d="M74615 35746
L74449 35508
" />
<path d="M74330 35746
L74330 35246
L74520 35246
L74568 35269
L74592 35293
L74615 35341
L74615 35412
L74592 35460
L74568 35484
L74520 35508
L74330 35508
" />
<path d="M74830 35484
L74996 35484
" />
<path d="M75068 35746
L74830 35746
L74830 35246
L75068 35246
" />
<path d="M75282 35746
L75282 35246
L75401 35246
L75473 35269
L75520 35317
L75544 35365
L75568 35460
L75568 35531
L75544 35627
L75520 35674
L75473 35722
L75401 35746
L75282 35746
" />
</g></g>
</g>
<g style="fill:#006464; fill-opacity:0.0; 
stroke:#006464; stroke-width:60.000000; stroke-opacity:1; 
stroke-linecap:round; stroke-linejoin:round;">
<g >
</g>
<g style="fill:#840000; fill-opacity:0.0; 
stroke:#840000; stroke-width:60.000000; stroke-opacity:1; 
stroke-linecap:round; stroke-linejoin:round;">
</g>
<g style="fill:#840000; fill-opacity:0.0; 
stroke:#840000; stroke-width:100.000000; stroke-opacity:1; 
stroke-linecap:round; stroke-linejoin:round;">
<rect x="72600.000000" y="38000.000000" width="800.000000" height="2000.000000" rx="0.000000" />
</g>
<g style="fill:#840000; fill-opacity:0.0; 
stroke:#840000; stroke-width:60.000000; stroke-opacity:1; 
stroke-linecap:round; stroke-linejoin:round;">
<path d="M73000 38000
L73000 37500
" />
<path d="M73000 40000
L73000 40500
" />
</g>
<g style="fill:#006464; fill-opacity:0.0; 
stroke:#006464; stroke-width:60.000000; stroke-opacity:1; 
stroke-linecap:round; stroke-linejoin:round;">
<text x="74457.440945" y="38790.000000"
textLength="1512.362205" font-size="666.653543" lengthAdjust="spacingAndGlyphs"
text-anchor="middle" opacity="0">R32</text>
<g class="stroked-text"><desc>R32</desc>
<path d="M74135 38766
L73969 38528
" />
<path d="M73850 38766
L73850 38266
L74040 38266
L74088 38290
L74112 38313
L74135 38361
L74135 38432
L74112 38480
L74088 38504
L74040 38528
L73850 38528
" />
<path d="M74302 38266
L74612 38266
L74445 38456
L74516 38456
L74564 38480
L74588 38504
L74612 38551
L74612 38670
L74588 38718
L74564 38742
L74516 38766
L74374 38766
L74326 38742
L74302 38718
" />
<path d="M74802 38313
L74826 38290
L74874 38266
L74993 38266
L75040 38290
L75064 38313
L75088 38361
L75088 38409
L75064 38480
L74778 38766
L75088 38766
" />
</g><text x="74457.440945" y="39700.000000"
textLength="1512.362205" font-size="666.653543" lengthAdjust="spacingAndGlyphs"
text-anchor="middle" opacity="0">2K2</text>
<g class="stroked-text"><desc>2K2</desc>
<path d="M73826 39223
L73850 39200
L73897 39176
L74016 39176
L74064 39200
L74088 39223
L74112 39271
L74112 39319
L74088 39390
L73802 39676
L74112 39676
" />
<path d="M74326 39676
L74326 39176
" />
<path d="M74612 39676
L74397 39390
" />
<path d="M74612 39176
L74326 39461
" />
<path d="M74802 39223
L74826 39200
L74874 39176
L74993 39176
L75040 39200
L75064 39223
L75088 39271
L75088 39319
L75064 39390
L74778 39676
L75088 39676
" />
</g></g>
</g>
<g style="fill:#006464; fill-opacity:0.0; 
stroke:#006464; stroke-width:60.000000; stroke-opacity:1; 
stroke-linecap:round; stroke-linejoin:round;">
<g >
</g>
<g style="fill:#840000; fill-opacity:0.0; 
stroke:#840000; stroke-width:60.000000; stroke-opacity:1; 
stroke-linecap:round; stroke-linejoin:round;">
</g>
<g style="fill:#840000; fill-opacity:0.0; 
stroke:#840000; stroke-width:200.000000; stroke-opacity:1; 
stroke-linecap:round; stroke-linejoin:round;">
<path style="fill:#840000; fill-opacity:0.0; 
stroke:#840000; stroke-width:200.000000; stroke-opacity:1; 
stroke-linecap:round; stroke-linejoin:round;fill:none"
d="M 58950.000000,37550.000000
60550.000000,37550.000000
" /> 
<path style="fill:#840000; fill-opacity:0.0; 
stroke:#840000; stroke-width:200.000000; stroke-opacity:1; 
stroke-linecap:round; stroke-linejoin:round;fill:none"
d="M 58950.000000,36950.000000
60550.000000,36950.000000
" /> 
</g>
<g style="fill:#840000; fill-opacity:0.0; 
stroke:#840000; stroke-width:60.000000; stroke-opacity:1; 
stroke-linecap:round; stroke-linejoin:round;">
<path d="M59750 36850
L59750 35750
" />
<path d="M59750 37650
L59750 38750
" />
</g>
<g style="fill:#006464; fill-opacity:0.0; 
stroke:#006464; stroke-width:60.000000; stroke-opacity:1; 
stroke-linecap:round; stroke-linejoin:round;">
<text x="61657.440945" y="37040.000000"
textLength="1512.362205" font-size="666.653543" lengthAdjust="spacingAndGlyphs"
text-anchor="middle" opacity="0">C25</text>
<g class="stroked-text"><desc>C25</desc>
<path d="M61335 36968
L61312 36992
L61240 37016
L61193 37016
L61121 36992
L61074 36944
L61050 36897
L61026 36801
L61026 36730
L61050 36635
L61074 36587
L61121 36540
L61193 36516
L61240 36516
L61312 36540
L61335 36563
" />
<path d="M61526 36563
L61550 36540
L61597 36516
L61716 36516
L61764 36540
L61788 36563
L61812 36611
L61812 36659
L61788 36730
L61502 37016
L61812 37016
" />
<path d="M62264 36516
L62026 36516
L62002 36754
L62026 36730
L62074 36706
L62193 36706
L62240 36730
L62264 36754
L62288 36801
L62288 36920
L62264 36968
L62240 36992
L62193 37016
L62074 37016
L62026 36992
L62002 36968
" />
</g><text x="61609.803150" y="37950.000000"
textLength="1417.125984" font-size="666.653543" lengthAdjust="spacingAndGlyphs"
text-anchor="middle" opacity="0">1uF</text>
<g class="stroked-text"><desc>1uF</desc>
<path d="M61312 37926
L61026 37926
" />
<path d="M61169 37926
L61169 37426
L61121 37497
L61074 37545
L61026 37569
" />
<path d="M61740 37592
L61740 37926
" />
<path d="M61526 37592
L61526 37854
L61550 37902
L61597 37926
L61669 37926
L61716 37902
L61740 37878
" />
<path d="M62145 37664
L61978 37664
" />
<path d="M61978 37926
L61978 37426
L62216 37426
" />
</g></g>
</g>
<g style="fill:#006464; fill-opacity:0.0; 
stroke:#006464; stroke-width:60.000000; stroke-opacity:1; 
stroke-linecap:round; stroke-linejoin:round;">
<g >
</g>
<g style="fill:#840000; fill-opacity:0.0; 
stroke:#840000; stroke-width:60.000000; stroke-opacity:1; 
stroke-linecap:round; stroke-linejoin:round;">
<path style="fill:#840000; fill-opacity:0.0; 
stroke:#840000; stroke-width:60.000000; stroke-opacity:1; 
stroke-linecap:round; stroke-linejoin:round;fill:none"
d="M 49750.000000,44750.000000
49750.000000,45250.000000
50250.000000,45250.000000
49750.000000,45750.000000
49250.000000,45250.000000
49750.000000,45250.000000
" /> 
</g>
<g style="fill:#006464; fill-opacity:0.0; 
stroke:#006464; stroke-width:60.000000; stroke-opacity:1; 
stroke-linecap:round; stroke-linejoin:round;">
<text x="49800.000000" y="46730.000000"
textLength="2060.000000" font-size="666.653543" lengthAdjust="spacingAndGlyphs"
text-anchor="middle" opacity="0">GNDS</text>
<g class="stroked-text"><desc>GNDS</desc>
<path d="M49180 46230
L49133 46206
L49061 46206
L48990 46230
L48942 46277
L48919 46325
L48895 46420
L48895 46491
L48919 46587
L48942 46634
L48990 46682
L49061 46706
L49109 46706
L49180 46682
L49204 46658
L49204 46491
L49109 46491
" />
<path d="M49419 46706
L49419 46206
L49704 46706
L49704 46206
" />
<path d="M49942 46706
L49942 46206
L50061 46206
L50133 46230
L50180 46277
L50204 46325
L50228 46420
L50228 46491
L50204 46587
L50180 46634
L50133 46682
L50061 46706
L49942 46706
" />
<path d="M50419 46682
L50490 46706
L50609 46706
L50657 46682
L50680 46658
L50704 46610
L50704 46563
L50680 46515
L50657 46491
L50609 46468
L50514 46444
L50466 46420
L50442 46396
L50419 46349
L50419 46301
L50442 46253
L50466 46230
L50514 46206
L50633 46206
L50704 46230
" />
</g></g>
</g>
<g style="fill:#006464; fill-opacity:0.0; 
stroke:#006464; stroke-width:62.519685; stroke-opacity:1; 
stroke-linecap:round; stroke-linejoin:round;">
</g>
<g style="fill:#006464; fill-opacity:0.0; 
stroke:#006464; stroke-width:60.000000; stroke-opacity:1; 
stroke-linecap:round; stroke-linejoin:round;">
</g>
<g style="fill:#725600; fill-opacity:0.0; 
stroke:#725600; stroke-width:60.000000; stroke-opacity:1; 
stroke-linecap:round; stroke-linejoin:round;">
<text x="30710.000000" y="33000.000000"
textLength="1250.472441" font-size="666.653543" lengthAdjust="spacingAndGlyphs"
text-anchor="end" opacity="0">VIN</text>
<g class="stroked-text"><desc>VIN</desc>
<path d="M29537 32476
L29703 32976
L29870 32476
" />
<path d="M30037 32976
L30037 32476
" />
<path d="M30275 32976
L30275 32476
L30560 32976
L30560 32476
" />
</g><path style="fill:#725600; fill-opacity:0.0; 
stroke:#725600; stroke-width:60.000000; stroke-opacity:1; 
stroke-linecap:round; stroke-linejoin:round;fill:none"
d="M 31250.000000,32750.000000
31000.000000,32500.000000
30750.000000,32500.000000
30750.000000,33000.000000
31000.000000,33000.000000
Z" /> 
</g>
<g style="fill:#725600; fill-opacity:0.0; 
stroke:#725600; stroke-width:62.519685; stroke-opacity:1; 
stroke-linecap:round; stroke-linejoin:round;">
</g>
<g style="fill:#725600; fill-opacity:0.0; 
stroke:#725600; stroke-width:60.000000; stroke-opacity:1; 
stroke-linecap:round; stroke-linejoin:round;">
<text x="85290.000000" y="33000.000000"
textLength="1917.125984" font-size="666.653543" lengthAdjust="spacingAndGlyphs"
text-anchor="start" opacity="0">VOUT</text>
<g class="stroked-text"><desc>VOUT</desc>
<path d="M85367 32476
L85534 32976
L85700 32476
" />
<path d="M85962 32476
L86058 32476
L86105 32500
L86153 32547
L86177 32642
L86177 32809
L86153 32904
L86105 32952
L86058 32976
L85962 32976
L85915 32952
L85867 32904
L85843 32809
L85843 32642
L85867 32547
L85915 32500
L85962 32476
" />
<path d="M86391 32476
L86391 32880
L86415 32928
L86439 32952
L86486 32976
L86581 32976
L86629 32952
L86653 32928
L86677 32880
L86677 32476
" />
<path d="M86843 32476
L87129 32476
" />
<path d="M86986 32976
L86986 32476
" />
</g><path style="fill:#725600; fill-opacity:0.0; 
stroke:#725600; stroke-width:60.000000; stroke-opacity:1; 
stroke-linecap:round; stroke-linejoin:round;fill:none"
d="M 85250.000000,32750.000000
85000.000000,32500.000000
84750.000000,32500.000000
84750.000000,33000.000000
85000.000000,33000.000000
Z" /> 
</g>
<g style="fill:#725600; fill-opacity:0.0; 
stroke:#725600; stroke-width:62.519685; stroke-opacity:1; 
stroke-linecap:round; stroke-linejoin:round;">
</g>
<g style="fill:#725600; fill-opacity:0.0; 
stroke:#725600; stroke-width:60.000000; stroke-opacity:1; 
stroke-linecap:round; stroke-linejoin:round;">
</g>
<g style="fill:#0000C2; fill-opacity:0.0; 
stroke:#0000C2; stroke-width:60.000000; stroke-opacity:1; 
stroke-linecap:round; stroke-linejoin:round;">
<text x="48750.000000" y="29592.480315"
textLength="2202.874016" font-size="666.653543" lengthAdjust="spacingAndGlyphs"
text-anchor="start" opacity="0">16VIN</text>
<g class="stroked-text"><desc>16VIN</desc>
<path d="M49160 29568
L48875 29568
" />
<path d="M49018 29568
L49018 29068
L48970 29140
L48922 29187
L48875 29211
" />
<path d="M49589 29068
L49494 29068
L49446 29092
L49422 29116
L49375 29187
L49351 29282
L49351 29473
L49375 29521
L49399 29544
L49446 29568
L49541 29568
L49589 29544
L49613 29521
L49637 29473
L49637 29354
L49613 29306
L49589 29282
L49541 29259
L49446 29259
L49399 29282
L49375 29306
L49351 29354
" />
<path d="M49780 29068
L49946 29568
L50113 29068
" />
<path d="M50280 29568
L50280 29068
" />
<path d="M50518 29568
L50518 29068
L50803 29568
L50803 29068
" />
</g><text x="48750.000000" y="30397.480315"
textLength="2583.818898" font-size="666.653543" lengthAdjust="spacingAndGlyphs"
text-anchor="start" opacity="0">250mA</text>
<g class="stroked-text"><desc>250mA</desc>
<path d="M48875 29921
L48899 29897
L48946 29873
L49065 29873
L49113 29897
L49137 29921
L49160 29968
L49160 30016
L49137 30087
L48851 30373
L49160 30373
" />
<path d="M49613 29873
L49375 29873
L49351 30111
L49375 30087
L49422 30064
L49541 30064
L49589 30087
L49613 30111
L49637 30159
L49637 30278
L49613 30326
L49589 30349
L49541 30373
L49422 30373
L49375 30349
L49351 30326
" />
<path d="M49946 29873
L49994 29873
L50041 29897
L50065 29921
L50089 29968
L50113 30064
L50113 30183
L50089 30278
L50065 30326
L50041 30349
L49994 30373
L49946 30373
L49899 30349
L49875 30326
L49851 30278
L49827 30183
L49827 30064
L49851 29968
L49875 29921
L49899 29897
L49946 29873
" />
<path d="M50327 30373
L50327 30040
" />
<path d="M50327 30087
L50351 30064
L50399 30040
L50470 30040
L50518 30064
L50541 30111
L50541 30373
" />
<path d="M50541 30111
L50565 30064
L50613 30040
L50684 30040
L50732 30064
L50756 30111
L50756 30373
" />
<path d="M50970 30230
L51208 30230
" />
<path d="M50922 30373
L51089 29873
L51256 30373
" />
</g></g>
<g style="fill:#009600; fill-opacity:0.0; 
stroke:#009600; stroke-width:60.000000; stroke-opacity:1; 
stroke-linecap:round; stroke-linejoin:round;">
<path d="M49750 41750
L49750 44750
" />
<path d="M59750 35750
L59750 32750
" />
<path d="M52750 32750
L59750 32750
" />
<path d="M59750 41750
L59750 38750
" />
<path d="M73000 33500
L73000 32750
" />
<path d="M73000 32750
L73000 31500
" />
<path d="M73000 32750
L84750 32750
" />
<path d="M46750 32750
L39750 32750
" />
<path d="M49750 35750
L49750 41750
" />
<path d="M49750 41750
L59750 41750
" />
<path d="M73000 41750
L59750 41750
" />
<path d="M59750 32750
L73000 32750
" />
<path d="M73000 37500
L73000 36500
" />
<path d="M73000 40500
L73000 41750
" />
<path d="M39750 41750
L49750 41750
" />
<path d="M31250 32750
L39750 32750
" />
<path d="M39750 38750
L39750 41750
" />
<path d="M39750 32750
L39750 35750
" />
</g>
<g style="fill:#009600; fill-opacity:1.0; 
stroke:#009600; stroke-width:60.000000; stroke-opacity:1; 
stroke-linecap:round; stroke-linejoin:round;">
<circle cx="39750.000000" cy="32750.000000" r="180.000000" /> 
<circle cx="59750.000000" cy="32750.000000" r="180.000000" /> 
<circle cx="59750.000000" cy="41750.000000" r="180.000000" /> 
<circle cx="49750.000000" cy="41750.000000" r="180.000000" /> 
<circle cx="73000.000000" cy="32750.000000" r="180.000000" /> 
</g> 
</svg>
