<?xml version="1.0" standalone="no"?>
 <!DOCTYPE svg PUBLIC "-//W3C//DTD SVG 1.1//EN" 
 "http://www.w3.org/Graphics/SVG/1.1/DTD/svg11.dtd"> 
<svg
  xmlns:svg="http://www.w3.org/2000/svg"
  xmlns="http://www.w3.org/2000/svg"
  xmlns:xlink="http://www.w3.org/1999/xlink"
  version="1.1"
  width="29.700220cm" height="21.000720cm" viewBox="0 0 116930 82680">
<title>SVG Picture created as BassStation_Sequencer_MidiInterface-PSU-SE8233X2_LDO.svg date 2022/04/15 23:52:43 </title>
  <desc>Picture generated by Eeschema-SVG </desc>
<g style="fill:#000000; fill-opacity:1.000000;stroke:#000000; stroke-opacity:1.000000;
stroke-linecap:round; stroke-linejoin:round;"
 transform="translate(0 0) scale(1 1)">
</g>
<g style="fill:#840000; fill-opacity:0.0; 
stroke:#840000; stroke-width:0.000000; stroke-opacity:1; 
stroke-linecap:round; stroke-linejoin:round;">
</g>
<g style="fill:#840000; fill-opacity:0.0; 
stroke:#840000; stroke-width:60.000000; stroke-opacity:1; 
stroke-linecap:round; stroke-linejoin:round;">
<rect x="69685.905512" y="65357.165354" width="42519.685039" height="12598.425197" rx="0.000000" />
<rect x="3937.007874" y="3937.007874" width="109055.984252" height="74805.984252" rx="0.000000" />
<rect x="4724.409449" y="4724.409449" width="107481.181102" height="73231.181102" rx="0.000000" />
<path d="M23622 4724
L23622 3937
" />
<path d="M43307 4724
L43307 3937
" />
<path d="M62992 4724
L62992 3937
" />
<path d="M82677 4724
L82677 3937
" />
<path d="M102362 4724
L102362 3937
" />
<text x="13779.527559" y="4586.614173"
textLength="549.960630" font-size="682.401575" lengthAdjust="spacingAndGlyphs"
text-anchor="start" opacity="0">1</text>
<g class="stroked-text"><desc>1</desc>
<path d="M14199 4562
L13907 4562
" />
<path d="M14053 4562
L14053 4050
L14004 4123
L13955 4172
L13907 4196
" />
</g><text x="33464.566929" y="4586.614173"
textLength="547.440945" font-size="682.401575" lengthAdjust="spacingAndGlyphs"
text-anchor="start" opacity="0">2</text>
<g class="stroked-text"><desc>2</desc>
<path d="M33592 4099
L33616 4074
L33665 4050
L33787 4050
L33835 4074
L33860 4099
L33884 4147
L33884 4196
L33860 4269
L33567 4562
L33884 4562
" />
</g><text x="53149.606299" y="4586.614173"
textLength="547.440945" font-size="682.401575" lengthAdjust="spacingAndGlyphs"
text-anchor="start" opacity="0">3</text>
<g class="stroked-text"><desc>3</desc>
<path d="M53252 4050
L53569 4050
L53398 4245
L53472 4245
L53520 4269
L53545 4294
L53569 4342
L53569 4464
L53545 4513
L53520 4537
L53472 4562
L53325 4562
L53277 4537
L53252 4513
" />
</g><text x="72834.645669" y="4586.614173"
textLength="547.440945" font-size="682.401575" lengthAdjust="spacingAndGlyphs"
text-anchor="start" opacity="0">4</text>
<g class="stroked-text"><desc>4</desc>
<path d="M73205 4221
L73205 4562
" />
<path d="M73083 4026
L72962 4391
L73278 4391
" />
</g><text x="92519.685039" y="4586.614173"
textLength="547.440945" font-size="682.401575" lengthAdjust="spacingAndGlyphs"
text-anchor="start" opacity="0">5</text>
<g class="stroked-text"><desc>5</desc>
<path d="M92915 4050
L92671 4050
L92647 4294
L92671 4269
L92720 4245
L92842 4245
L92890 4269
L92915 4294
L92939 4342
L92939 4464
L92915 4513
L92890 4537
L92842 4562
L92720 4562
L92671 4537
L92647 4513
" />
</g><text x="112204.724409" y="4586.614173"
textLength="547.440945" font-size="682.401575" lengthAdjust="spacingAndGlyphs"
text-anchor="start" opacity="0">6</text>
<g class="stroked-text"><desc>6</desc>
<path d="M112575 4050
L112478 4050
L112429 4074
L112405 4099
L112356 4172
L112332 4269
L112332 4464
L112356 4513
L112380 4537
L112429 4562
L112527 4562
L112575 4537
L112600 4513
L112624 4464
L112624 4342
L112600 4294
L112575 4269
L112527 4245
L112429 4245
L112380 4269
L112356 4294
L112332 4342
" />
</g><path d="M23622 77955
L23622 78742
" />
<path d="M43307 77955
L43307 78742
" />
<path d="M62992 77955
L62992 78742
" />
<path d="M82677 77955
L82677 78742
" />
<path d="M102362 77955
L102362 78742
" />
<text x="13779.527559" y="78605.196850"
textLength="547.440945" font-size="682.401575" lengthAdjust="spacingAndGlyphs"
text-anchor="start" opacity="0">1</text>
<g class="stroked-text"><desc>1</desc>
<path d="M14199 78580
L13907 78580
" />
<path d="M14053 78580
L14053 78068
L14004 78142
L13955 78190
L13907 78215
" />
</g><text x="33464.566929" y="78605.196850"
textLength="547.440945" font-size="682.401575" lengthAdjust="spacingAndGlyphs"
text-anchor="start" opacity="0">2</text>
<g class="stroked-text"><desc>2</desc>
<path d="M33592 78117
L33616 78093
L33665 78068
L33787 78068
L33835 78093
L33860 78117
L33884 78166
L33884 78215
L33860 78288
L33567 78580
L33884 78580
" />
</g><text x="53149.606299" y="78605.196850"
textLength="547.440945" font-size="682.401575" lengthAdjust="spacingAndGlyphs"
text-anchor="start" opacity="0">3</text>
<g class="stroked-text"><desc>3</desc>
<path d="M53252 78068
L53569 78068
L53398 78263
L53472 78263
L53520 78288
L53545 78312
L53569 78361
L53569 78483
L53545 78532
L53520 78556
L53472 78580
L53325 78580
L53277 78556
L53252 78532
" />
</g><text x="72834.645669" y="78605.196850"
textLength="547.440945" font-size="682.401575" lengthAdjust="spacingAndGlyphs"
text-anchor="start" opacity="0">4</text>
<g class="stroked-text"><desc>4</desc>
<path d="M73205 78239
L73205 78580
" />
<path d="M73083 78044
L72962 78410
L73278 78410
" />
</g><text x="92519.685039" y="78605.196850"
textLength="547.440945" font-size="682.401575" lengthAdjust="spacingAndGlyphs"
text-anchor="start" opacity="0">5</text>
<g class="stroked-text"><desc>5</desc>
<path d="M92915 78068
L92671 78068
L92647 78312
L92671 78288
L92720 78263
L92842 78263
L92890 78288
L92915 78312
L92939 78361
L92939 78483
L92915 78532
L92890 78556
L92842 78580
L92720 78580
L92671 78556
L92647 78532
" />
</g><text x="112204.724409" y="78605.196850"
textLength="547.440945" font-size="682.401575" lengthAdjust="spacingAndGlyphs"
text-anchor="start" opacity="0">6</text>
<g class="stroked-text"><desc>6</desc>
<path d="M112575 78068
L112478 78068
L112429 78093
L112405 78117
L112356 78190
L112332 78288
L112332 78483
L112356 78532
L112380 78556
L112429 78580
L112527 78580
L112575 78556
L112600 78532
L112624 78483
L112624 78361
L112600 78312
L112575 78288
L112527 78263
L112429 78263
L112380 78288
L112356 78312
L112332 78361
" />
</g><path d="M3937 23622
L4724 23622
" />
<path d="M3937 43307
L4724 43307
" />
<path d="M3937 62992
L4724 62992
" />
<text x="4330.708661" y="14035.433071"
textLength="498.700787" font-size="682.401575" lengthAdjust="spacingAndGlyphs"
text-anchor="middle" opacity="0">A</text>
<g class="stroked-text"><desc>A</desc>
<path d="M4208 13864
L4452 13864
" />
<path d="M4160 14011
L4330 13499
L4501 14011
" />
</g><text x="4330.708661" y="33720.472441"
textLength="571.811024" font-size="682.401575" lengthAdjust="spacingAndGlyphs"
text-anchor="middle" opacity="0">B</text>
<g class="stroked-text"><desc>B</desc>
<path d="M4367 33427
L4440 33452
L4464 33476
L4489 33525
L4489 33598
L4464 33647
L4440 33671
L4391 33696
L4196 33696
L4196 33184
L4367 33184
L4415 33208
L4440 33233
L4464 33281
L4464 33330
L4440 33379
L4415 33403
L4367 33427
L4196 33427
" />
</g><text x="4330.708661" y="53405.511811"
textLength="571.811024" font-size="682.401575" lengthAdjust="spacingAndGlyphs"
text-anchor="middle" opacity="0">C</text>
<g class="stroked-text"><desc>C</desc>
<path d="M4489 53332
L4464 53356
L4391 53381
L4342 53381
L4269 53356
L4221 53307
L4196 53259
L4172 53161
L4172 53088
L4196 52991
L4221 52942
L4269 52893
L4342 52869
L4391 52869
L4464 52893
L4489 52918
" />
</g><text x="4330.708661" y="73090.551181"
textLength="571.811024" font-size="682.401575" lengthAdjust="spacingAndGlyphs"
text-anchor="middle" opacity="0">D</text>
<g class="stroked-text"><desc>D</desc>
<path d="M4196 73066
L4196 72554
L4318 72554
L4391 72578
L4440 72627
L4464 72676
L4489 72773
L4489 72846
L4464 72944
L4440 72993
L4391 73041
L4318 73066
L4196 73066
" />
</g><path d="M112992 23622
L112205 23622
" />
<path d="M112992 43307
L112205 43307
" />
<path d="M112992 62992
L112205 62992
" />
<text x="112599.291339" y="14035.433071"
textLength="498.700787" font-size="682.401575" lengthAdjust="spacingAndGlyphs"
text-anchor="middle" opacity="0">A</text>
<g class="stroked-text"><desc>A</desc>
<path d="M112477 13864
L112721 13864
" />
<path d="M112428 14011
L112599 13499
L112769 14011
" />
</g><text x="112599.291339" y="33720.472441"
textLength="571.811024" font-size="682.401575" lengthAdjust="spacingAndGlyphs"
text-anchor="middle" opacity="0">B</text>
<g class="stroked-text"><desc>B</desc>
<path d="M112635 33427
L112708 33452
L112733 33476
L112757 33525
L112757 33598
L112733 33647
L112708 33671
L112660 33696
L112465 33696
L112465 33184
L112635 33184
L112684 33208
L112708 33233
L112733 33281
L112733 33330
L112708 33379
L112684 33403
L112635 33427
L112465 33427
" />
</g><text x="112599.291339" y="53405.511811"
textLength="571.811024" font-size="682.401575" lengthAdjust="spacingAndGlyphs"
text-anchor="middle" opacity="0">C</text>
<g class="stroked-text"><desc>C</desc>
<path d="M112757 53332
L112733 53356
L112660 53381
L112611 53381
L112538 53356
L112489 53307
L112465 53259
L112440 53161
L112440 53088
L112465 52991
L112489 52942
L112538 52893
L112611 52869
L112660 52869
L112733 52893
L112757 52918
" />
</g><text x="112599.291339" y="73090.551181"
textLength="571.811024" font-size="682.401575" lengthAdjust="spacingAndGlyphs"
text-anchor="middle" opacity="0">D</text>
<g class="stroked-text"><desc>D</desc>
<path d="M112465 73066
L112465 72554
L112587 72554
L112660 72578
L112708 72627
L112733 72676
L112757 72773
L112757 72846
L112733 72944
L112708 72993
L112660 73041
L112587 73066
L112465 73066
" />
</g><text x="78741.023622" y="76321.732283"
textLength="8721.417323" font-size="787.401575" lengthAdjust="spacingAndGlyphs"
text-anchor="start" opacity="0">Date: 2021-06-05</text>
<g class="stroked-text"><desc>Date: 2021-06-05</desc>
<path d="M78911 76293
L78911 75703
L79052 75703
L79136 75731
L79192 75787
L79220 75843
L79249 75956
L79249 76040
L79220 76152
L79192 76209
L79136 76265
L79052 76293
L78911 76293
" />
<path d="M79755 76293
L79755 75984
L79727 75928
L79670 75899
L79558 75899
L79502 75928
" />
<path d="M79755 76265
L79699 76293
L79558 76293
L79502 76265
L79474 76209
L79474 76152
L79502 76096
L79558 76068
L79699 76068
L79755 76040
" />
<path d="M79952 75899
L80177 75899
" />
<path d="M80036 75703
L80036 76209
L80064 76265
L80120 76293
L80177 76293
" />
<path d="M80598 76265
L80542 76293
L80430 76293
L80373 76265
L80345 76209
L80345 75984
L80373 75928
L80430 75899
L80542 75899
L80598 75928
L80627 75984
L80627 76040
L80345 76096
" />
<path d="M80880 76237
L80908 76265
L80880 76293
L80852 76265
L80880 76237
L80880 76293
" />
<path d="M80880 75928
L80908 75956
L80880 75984
L80852 75956
L80880 75928
L80880 75984
" />
<path d="M81583 75759
L81611 75731
L81667 75703
L81808 75703
L81864 75731
L81892 75759
L81920 75815
L81920 75871
L81892 75956
L81555 76293
L81920 76293
" />
<path d="M82286 75703
L82342 75703
L82398 75731
L82426 75759
L82454 75815
L82483 75928
L82483 76068
L82454 76181
L82426 76237
L82398 76265
L82342 76293
L82286 76293
L82229 76265
L82201 76237
L82173 76181
L82145 76068
L82145 75928
L82173 75815
L82201 75759
L82229 75731
L82286 75703
" />
<path d="M82708 75759
L82736 75731
L82792 75703
L82932 75703
L82989 75731
L83017 75759
L83045 75815
L83045 75871
L83017 75956
L82679 76293
L83045 76293
" />
<path d="M83607 76293
L83270 76293
" />
<path d="M83439 76293
L83439 75703
L83382 75787
L83326 75843
L83270 75871
" />
<path d="M83860 76068
L84310 76068
" />
<path d="M84704 75703
L84760 75703
L84817 75731
L84845 75759
L84873 75815
L84901 75928
L84901 76068
L84873 76181
L84845 76237
L84817 76265
L84760 76293
L84704 76293
L84648 76265
L84620 76237
L84592 76181
L84564 76068
L84564 75928
L84592 75815
L84620 75759
L84648 75731
L84704 75703
" />
<path d="M85407 75703
L85295 75703
L85238 75731
L85210 75759
L85154 75843
L85126 75956
L85126 76181
L85154 76237
L85182 76265
L85238 76293
L85351 76293
L85407 76265
L85435 76237
L85463 76181
L85463 76040
L85435 75984
L85407 75956
L85351 75928
L85238 75928
L85182 75956
L85154 75984
L85126 76040
" />
<path d="M85717 76068
L86166 76068
" />
<path d="M86560 75703
L86616 75703
L86673 75731
L86701 75759
L86729 75815
L86757 75928
L86757 76068
L86729 76181
L86701 76237
L86673 76265
L86616 76293
L86560 76293
L86504 76265
L86476 76237
L86448 76181
L86420 76068
L86420 75928
L86448 75815
L86476 75759
L86504 75731
L86560 75703
" />
<path d="M87291 75703
L87010 75703
L86982 75984
L87010 75956
L87066 75928
L87207 75928
L87263 75956
L87291 75984
L87319 76040
L87319 76181
L87291 76237
L87263 76265
L87207 76293
L87066 76293
L87010 76265
L86982 76237
" />
</g><path d="M69685 76577
L112205 76577
" />
<text x="70079.606299" y="77424.094488"
textLength="26212.992126" font-size="787.401575" lengthAdjust="spacingAndGlyphs"
text-anchor="start" opacity="0">KiCad E.D.A.  kicad 6.0.4-6f826c9f35~116~ubuntu20.04.1</text>
<g class="stroked-text"><desc>KiCad E.D.A.  kicad 6.0.4-6f826c9f35~116~ubuntu20.04.1</desc>
<path d="M70250 77395
L70250 76805
" />
<path d="M70587 77395
L70334 77058
" />
<path d="M70587 76805
L70250 77142
" />
<path d="M70840 77395
L70840 77002
" />
<path d="M70840 76805
L70812 76833
L70840 76861
L70868 76833
L70840 76805
L70840 76861
" />
<path d="M71459 77339
L71431 77367
L71346 77395
L71290 77395
L71206 77367
L71150 77311
L71121 77255
L71093 77142
L71093 77058
L71121 76946
L71150 76889
L71206 76833
L71290 76805
L71346 76805
L71431 76833
L71459 76861
" />
<path d="M71965 77395
L71965 77086
L71937 77030
L71881 77002
L71768 77002
L71712 77030
" />
<path d="M71965 77367
L71909 77395
L71768 77395
L71712 77367
L71684 77311
L71684 77255
L71712 77199
L71768 77170
L71909 77170
L71965 77142
" />
<path d="M72499 77395
L72499 76805
" />
<path d="M72499 77367
L72443 77395
L72331 77395
L72274 77367
L72246 77339
L72218 77283
L72218 77114
L72246 77058
L72274 77030
L72331 77002
L72443 77002
L72499 77030
" />
<path d="M73231 77086
L73427 77086
" />
<path d="M73512 77395
L73231 77395
L73231 76805
L73512 76805
" />
<path d="M73765 77339
L73793 77367
L73765 77395
L73737 77367
L73765 77339
L73765 77395
" />
<path d="M74046 77395
L74046 76805
L74187 76805
L74271 76833
L74327 76889
L74355 76946
L74384 77058
L74384 77142
L74355 77255
L74327 77311
L74271 77367
L74187 77395
L74046 77395
" />
<path d="M74637 77339
L74665 77367
L74637 77395
L74609 77367
L74637 77339
L74637 77395
" />
<path d="M74890 77227
L75171 77227
" />
<path d="M74834 77395
L75030 76805
L75227 77395
" />
<path d="M75424 77339
L75452 77367
L75424 77395
L75396 77367
L75424 77339
L75424 77395
" />
<path d="M76605 77395
L76605 76805
" />
<path d="M76661 77170
L76830 77395
" />
<path d="M76830 77002
L76605 77227
" />
<path d="M77083 77395
L77083 77002
" />
<path d="M77083 76805
L77055 76833
L77083 76861
L77111 76833
L77083 76805
L77083 76861
" />
<path d="M77618 77367
L77561 77395
L77449 77395
L77393 77367
L77364 77339
L77336 77283
L77336 77114
L77364 77058
L77393 77030
L77449 77002
L77561 77002
L77618 77030
" />
<path d="M78124 77395
L78124 77086
L78096 77030
L78039 77002
L77927 77002
L77871 77030
" />
<path d="M78124 77367
L78067 77395
L77927 77395
L77871 77367
L77842 77311
L77842 77255
L77871 77199
L77927 77170
L78067 77170
L78124 77142
" />
<path d="M78658 77395
L78658 76805
" />
<path d="M78658 77367
L78602 77395
L78489 77395
L78433 77367
L78405 77339
L78377 77283
L78377 77114
L78405 77058
L78433 77030
L78489 77002
L78602 77002
L78658 77030
" />
<path d="M79642 76805
L79530 76805
L79474 76833
L79445 76861
L79389 76946
L79361 77058
L79361 77283
L79389 77339
L79417 77367
L79474 77395
L79586 77395
L79642 77367
L79670 77339
L79699 77283
L79699 77142
L79670 77086
L79642 77058
L79586 77030
L79474 77030
L79417 77058
L79389 77086
L79361 77142
" />
<path d="M79952 77339
L79980 77367
L79952 77395
L79923 77367
L79952 77339
L79952 77395
" />
<path d="M80345 76805
L80402 76805
L80458 76833
L80486 76861
L80514 76917
L80542 77030
L80542 77170
L80514 77283
L80486 77339
L80458 77367
L80402 77395
L80345 77395
L80289 77367
L80261 77339
L80233 77283
L80205 77170
L80205 77030
L80233 76917
L80261 76861
L80289 76833
L80345 76805
" />
<path d="M80795 77339
L80823 77367
L80795 77395
L80767 77367
L80795 77339
L80795 77395
" />
<path d="M81330 77002
L81330 77395
" />
<path d="M81189 76777
L81048 77199
L81414 77199
" />
<path d="M81639 77170
L82089 77170
" />
<path d="M82623 76805
L82511 76805
L82454 76833
L82426 76861
L82370 76946
L82342 77058
L82342 77283
L82370 77339
L82398 77367
L82454 77395
L82567 77395
L82623 77367
L82651 77339
L82679 77283
L82679 77142
L82651 77086
L82623 77058
L82567 77030
L82454 77030
L82398 77058
L82370 77086
L82342 77142
" />
<path d="M82848 77002
L83073 77002
" />
<path d="M82932 77395
L82932 76889
L82961 76833
L83017 76805
L83073 76805
" />
<path d="M83354 77058
L83298 77030
L83270 77002
L83242 76946
L83242 76917
L83270 76861
L83298 76833
L83354 76805
L83467 76805
L83523 76833
L83551 76861
L83579 76917
L83579 76946
L83551 77002
L83523 77030
L83467 77058
L83354 77058
L83298 77086
L83270 77114
L83242 77170
L83242 77283
L83270 77339
L83298 77367
L83354 77395
L83467 77395
L83523 77367
L83551 77339
L83579 77283
L83579 77170
L83551 77114
L83523 77086
L83467 77058
" />
<path d="M83804 76861
L83832 76833
L83889 76805
L84029 76805
L84085 76833
L84114 76861
L84142 76917
L84142 76974
L84114 77058
L83776 77395
L84142 77395
" />
<path d="M84648 76805
L84535 76805
L84479 76833
L84451 76861
L84395 76946
L84367 77058
L84367 77283
L84395 77339
L84423 77367
L84479 77395
L84592 77395
L84648 77367
L84676 77339
L84704 77283
L84704 77142
L84676 77086
L84648 77058
L84592 77030
L84479 77030
L84423 77058
L84395 77086
L84367 77142
" />
<path d="M85210 77367
L85154 77395
L85042 77395
L84985 77367
L84957 77339
L84929 77283
L84929 77114
L84957 77058
L84985 77030
L85042 77002
L85154 77002
L85210 77030
" />
<path d="M85492 77395
L85604 77395
L85660 77367
L85688 77339
L85745 77255
L85773 77142
L85773 76917
L85745 76861
L85717 76833
L85660 76805
L85548 76805
L85492 76833
L85463 76861
L85435 76917
L85435 77058
L85463 77114
L85492 77142
L85548 77170
L85660 77170
L85717 77142
L85745 77114
L85773 77058
" />
<path d="M85941 77002
L86166 77002
" />
<path d="M86026 77395
L86026 76889
L86054 76833
L86110 76805
L86166 76805
" />
<path d="M86307 76805
L86673 76805
L86476 77030
L86560 77030
L86616 77058
L86645 77086
L86673 77142
L86673 77283
L86645 77339
L86616 77367
L86560 77395
L86391 77395
L86335 77367
L86307 77339
" />
<path d="M87207 76805
L86926 76805
L86898 77086
L86926 77058
L86982 77030
L87123 77030
L87179 77058
L87207 77086
L87235 77142
L87235 77283
L87207 77339
L87179 77367
L87123 77395
L86982 77395
L86926 77367
L86898 77339
" />
<path d="M87404 77170
L87432 77142
L87488 77114
L87601 77170
L87657 77142
L87685 77114
" />
<path d="M88219 77395
L87882 77395
" />
<path d="M88051 77395
L88051 76805
L87994 76889
L87938 76946
L87882 76974
" />
<path d="M88782 77395
L88444 77395
" />
<path d="M88613 77395
L88613 76805
L88557 76889
L88501 76946
L88444 76974
" />
<path d="M89288 76805
L89175 76805
L89119 76833
L89091 76861
L89035 76946
L89007 77058
L89007 77283
L89035 77339
L89063 77367
L89119 77395
L89232 77395
L89288 77367
L89316 77339
L89344 77283
L89344 77142
L89316 77086
L89288 77058
L89232 77030
L89119 77030
L89063 77058
L89035 77086
L89007 77142
" />
<path d="M89513 77170
L89541 77142
L89597 77114
L89710 77170
L89766 77142
L89794 77114
" />
<path d="M90272 77002
L90272 77395
" />
<path d="M90019 77002
L90019 77311
L90047 77367
L90103 77395
L90188 77395
L90244 77367
L90272 77339
" />
<path d="M90553 77395
L90553 76805
" />
<path d="M90553 77030
L90610 77002
L90722 77002
L90778 77030
L90807 77058
L90835 77114
L90835 77283
L90807 77339
L90778 77367
L90722 77395
L90610 77395
L90553 77367
" />
<path d="M91341 77002
L91341 77395
" />
<path d="M91088 77002
L91088 77311
L91116 77367
L91172 77395
L91256 77395
L91313 77367
L91341 77339
" />
<path d="M91622 77002
L91622 77395
" />
<path d="M91622 77058
L91650 77030
L91706 77002
L91791 77002
L91847 77030
L91875 77086
L91875 77395
" />
<path d="M92072 77002
L92297 77002
" />
<path d="M92156 76805
L92156 77311
L92184 77367
L92241 77395
L92297 77395
" />
<path d="M92747 77002
L92747 77395
" />
<path d="M92494 77002
L92494 77311
L92522 77367
L92578 77395
L92663 77395
L92719 77367
L92747 77339
" />
<path d="M93000 76861
L93028 76833
L93084 76805
L93225 76805
L93281 76833
L93309 76861
L93337 76917
L93337 76974
L93309 77058
L92972 77395
L93337 77395
" />
<path d="M93703 76805
L93759 76805
L93815 76833
L93844 76861
L93872 76917
L93900 77030
L93900 77170
L93872 77283
L93844 77339
L93815 77367
L93759 77395
L93703 77395
L93647 77367
L93619 77339
L93591 77283
L93562 77170
L93562 77030
L93591 76917
L93619 76861
L93647 76833
L93703 76805
" />
<path d="M94153 77339
L94181 77367
L94153 77395
L94125 77367
L94153 77339
L94153 77395
" />
<path d="M94547 76805
L94603 76805
L94659 76833
L94687 76861
L94715 76917
L94744 77030
L94744 77170
L94715 77283
L94687 77339
L94659 77367
L94603 77395
L94547 77395
L94490 77367
L94462 77339
L94434 77283
L94406 77170
L94406 77030
L94434 76917
L94462 76861
L94490 76833
L94547 76805
" />
<path d="M95250 77002
L95250 77395
" />
<path d="M95109 76777
L94968 77199
L95334 77199
" />
<path d="M95559 77339
L95587 77367
L95559 77395
L95531 77367
L95559 77339
L95559 77395
" />
<path d="M96150 77395
L95812 77395
" />
<path d="M95981 77395
L95981 76805
L95925 76889
L95868 76946
L95812 76974
" />
</g><path d="M69685 75396
L112205 75396
" />
</g>
<g style="fill:#840000; fill-opacity:0.0; 
stroke:#840000; stroke-width:118.110236; stroke-opacity:1; 
stroke-linecap:round; stroke-linejoin:round;">
<text x="103544.173228" y="76321.732283"
textLength="2928.385827" font-size="787.401575" lengthAdjust="spacingAndGlyphs"
text-anchor="start" opacity="0">Rev: B</text>
<g class="stroked-text"><desc>Rev: B</desc>
<path d="M104098 76293
L103902 76012
" />
<path d="M103761 76293
L103761 75703
L103986 75703
L104042 75731
L104070 75759
L104098 75815
L104098 75899
L104070 75956
L104042 75984
L103986 76012
L103761 76012
" />
<path d="M104577 76265
L104520 76293
L104408 76293
L104352 76265
L104323 76209
L104323 75984
L104352 75928
L104408 75899
L104520 75899
L104577 75928
L104605 75984
L104605 76040
L104323 76096
" />
<path d="M104802 75899
L104942 76293
L105083 75899
" />
<path d="M105308 76237
L105336 76265
L105308 76293
L105280 76265
L105308 76237
L105308 76293
" />
<path d="M105308 75928
L105336 75956
L105308 75984
L105280 75956
L105308 75928
L105308 75984
" />
<path d="M106236 75984
L106320 76012
L106348 76040
L106376 76096
L106376 76181
L106348 76237
L106320 76265
L106264 76293
L106039 76293
L106039 75703
L106236 75703
L106292 75731
L106320 75759
L106348 75815
L106348 75871
L106320 75928
L106292 75956
L106236 75984
L106039 75984
" />
</g></g>
<g style="fill:#840000; fill-opacity:0.0; 
stroke:#840000; stroke-width:60.000000; stroke-opacity:1; 
stroke-linecap:round; stroke-linejoin:round;">
<text x="70079.606299" y="76321.732283"
textLength="3781.220472" font-size="787.401575" lengthAdjust="spacingAndGlyphs"
text-anchor="start" opacity="0">Size: A4</text>
<g class="stroked-text"><desc>Size: A4</desc>
<path d="M70222 76265
L70306 76293
L70447 76293
L70503 76265
L70531 76237
L70559 76181
L70559 76124
L70531 76068
L70503 76040
L70447 76012
L70334 75984
L70278 75956
L70250 75928
L70222 75871
L70222 75815
L70250 75759
L70278 75731
L70334 75703
L70475 75703
L70559 75731
" />
<path d="M70812 76293
L70812 75899
" />
<path d="M70812 75703
L70784 75731
L70812 75759
L70840 75731
L70812 75703
L70812 75759
" />
<path d="M71037 75899
L71346 75899
L71037 76293
L71346 76293
" />
<path d="M71796 76265
L71740 76293
L71628 76293
L71571 76265
L71543 76209
L71543 75984
L71571 75928
L71628 75899
L71740 75899
L71796 75928
L71825 75984
L71825 76040
L71543 76096
" />
<path d="M72078 76237
L72106 76265
L72078 76293
L72049 76265
L72078 76237
L72078 76293
" />
<path d="M72078 75928
L72106 75956
L72078 75984
L72049 75956
L72078 75928
L72078 75984
" />
<path d="M72781 76124
L73062 76124
" />
<path d="M72724 76293
L72921 75703
L73118 76293
" />
<path d="M73568 75899
L73568 76293
" />
<path d="M73427 75674
L73287 76096
L73652 76096
" />
</g><text x="103544.173228" y="77424.094488"
textLength="4475.078740" font-size="787.401575" lengthAdjust="spacingAndGlyphs"
text-anchor="start" opacity="0">Id: 44/47</text>
<g class="stroked-text"><desc>Id: 44/47</desc>
<path d="M103714 77395
L103714 76805
" />
<path d="M104249 77395
L104249 76805
" />
<path d="M104249 77367
L104192 77395
L104080 77395
L104024 77367
L103995 77339
L103967 77283
L103967 77114
L103995 77058
L104024 77030
L104080 77002
L104192 77002
L104249 77030
" />
<path d="M104530 77339
L104558 77367
L104530 77395
L104502 77367
L104530 77339
L104530 77395
" />
<path d="M104530 77030
L104558 77058
L104530 77086
L104502 77058
L104530 77030
L104530 77086
" />
<path d="M105514 77002
L105514 77395
" />
<path d="M105373 76777
L105233 77199
L105598 77199
" />
<path d="M106076 77002
L106076 77395
" />
<path d="M105936 76777
L105795 77199
L106161 77199
" />
<path d="M106808 76777
L106301 77536
" />
<path d="M107258 77002
L107258 77395
" />
<path d="M107117 76777
L106976 77199
L107342 77199
" />
<path d="M107511 76805
L107904 76805
L107651 77395
" />
</g><path d="M69685 73821
L112205 73821
" />
</g>
<g style="fill:#840000; fill-opacity:0.0; 
stroke:#840000; stroke-width:157.480315; stroke-opacity:1; 
stroke-linecap:round; stroke-linejoin:round;">
<text x="70079.606299" y="74924.094488"
textLength="19828.503937" font-size="1049.842520" lengthAdjust="spacingAndGlyphs"
text-anchor="start" opacity="0">Title: PSU - LDO 3.3V @ 100mA</text>
<g class="stroked-text"><desc>Title: PSU - LDO 3.3V @ 100mA</desc>
<path d="M70360 74099
L70810 74099
" />
<path d="M70486 74886
L70585 74099
" />
<path d="M70974 74886
L71039 74361
" />
<path d="M71072 74099
L71030 74136
L71063 74174
L71105 74136
L71072 74099
L71063 74174
" />
<path d="M71302 74361
L71602 74361
" />
<path d="M71447 74099
L71363 74774
L71391 74849
L71461 74886
L71536 74886
" />
<path d="M71911 74886
L71841 74849
L71812 74774
L71897 74099
" />
<path d="M72516 74849
L72436 74886
L72286 74886
L72216 74849
L72187 74774
L72225 74474
L72272 74399
L72352 74361
L72501 74361
L72572 74399
L72600 74474
L72591 74549
L72206 74624
" />
<path d="M72895 74811
L72928 74849
L72886 74886
L72853 74849
L72895 74811
L72886 74886
" />
<path d="M72947 74399
L72980 74436
L72937 74474
L72905 74436
L72947 74399
L72937 74474
" />
<path d="M73861 74886
L73959 74099
L74259 74099
L74329 74136
L74362 74174
L74390 74249
L74376 74361
L74329 74436
L74287 74474
L74207 74511
L73908 74511
" />
<path d="M74615 74849
L74723 74886
L74911 74886
L74990 74849
L75032 74811
L75079 74736
L75089 74661
L75061 74586
L75028 74549
L74957 74511
L74812 74474
L74742 74436
L74709 74399
L74681 74324
L74690 74249
L74737 74174
L74779 74136
L74859 74099
L75046 74099
L75154 74136
" />
<path d="M75496 74099
L75417 74736
L75445 74811
L75478 74849
L75548 74886
L75698 74886
L75778 74849
L75820 74811
L75867 74736
L75946 74099
" />
<path d="M76860 74586
L77460 74586
" />
<path d="M78773 74886
L78398 74886
L78496 74099
" />
<path d="M79035 74886
L79133 74099
L79321 74099
L79429 74136
L79494 74211
L79522 74286
L79541 74436
L79527 74549
L79471 74699
L79424 74774
L79340 74849
L79222 74886
L79035 74886
" />
<path d="M80071 74099
L80221 74099
L80291 74136
L80357 74211
L80375 74361
L80343 74624
L80286 74774
L80202 74849
L80122 74886
L79972 74886
L79902 74849
L79837 74774
L79818 74624
L79851 74361
L79907 74211
L79991 74136
L80071 74099
" />
<path d="M81271 74099
L81758 74099
L81458 74399
L81571 74399
L81641 74436
L81674 74474
L81702 74549
L81678 74736
L81632 74811
L81589 74849
L81510 74886
L81285 74886
L81214 74849
L81182 74811
" />
<path d="M82007 74811
L82039 74849
L81997 74886
L81964 74849
L82007 74811
L81997 74886
" />
<path d="M82396 74099
L82883 74099
L82583 74399
L82696 74399
L82766 74436
L82799 74474
L82827 74549
L82803 74736
L82756 74811
L82714 74849
L82635 74886
L82410 74886
L82339 74849
L82307 74811
" />
<path d="M83108 74099
L83272 74886
L83633 74099
" />
<path d="M84931 74511
L84898 74474
L84828 74436
L84753 74436
L84673 74474
L84631 74511
L84584 74586
L84575 74661
L84603 74736
L84636 74774
L84706 74811
L84781 74811
L84861 74774
L84903 74736
" />
<path d="M84941 74436
L84903 74736
L84936 74774
L84973 74774
L85053 74736
L85100 74661
L85123 74474
L85062 74361
L84959 74286
L84814 74249
L84659 74286
L84537 74361
L84448 74474
L84392 74624
L84411 74774
L84472 74886
L84575 74961
L84720 74999
L84875 74961
L84997 74886
" />
<path d="M86422 74886
L85972 74886
" />
<path d="M86197 74886
L86295 74099
L86206 74211
L86122 74286
L86042 74324
" />
<path d="M87007 74099
L87082 74099
L87153 74136
L87186 74174
L87214 74249
L87232 74399
L87209 74586
L87153 74736
L87106 74811
L87064 74849
L86984 74886
L86909 74886
L86839 74849
L86806 74811
L86778 74736
L86759 74586
L86782 74399
L86839 74249
L86886 74174
L86928 74136
L87007 74099
" />
<path d="M87757 74099
L87832 74099
L87903 74136
L87935 74174
L87964 74249
L87982 74399
L87959 74586
L87903 74736
L87856 74811
L87814 74849
L87734 74886
L87659 74886
L87589 74849
L87556 74811
L87528 74736
L87509 74586
L87532 74399
L87589 74249
L87636 74174
L87678 74136
L87757 74099
" />
<path d="M88259 74886
L88325 74361
" />
<path d="M88315 74436
L88357 74399
L88437 74361
L88549 74361
L88620 74399
L88648 74474
L88596 74886
" />
<path d="M88648 74474
L88695 74399
L88774 74361
L88887 74361
L88957 74399
L88985 74474
L88934 74886
" />
<path d="M89299 74661
L89674 74661
" />
<path d="M89196 74886
L89557 74099
L89721 74886
" />
</g></g>
<g style="fill:#840000; fill-opacity:0.0; 
stroke:#840000; stroke-width:60.000000; stroke-opacity:1; 
stroke-linecap:round; stroke-linejoin:round;">
<text x="70079.606299" y="73408.346457"
textLength="13731.141732" font-size="787.401575" lengthAdjust="spacingAndGlyphs"
text-anchor="start" opacity="0">File: SE8233X2_LDO.kicad_sch</text>
<g class="stroked-text"><desc>File: SE8233X2_LDO.kicad_sch</desc>
<path d="M70447 73070
L70250 73070
" />
<path d="M70250 73380
L70250 72789
L70531 72789
" />
<path d="M70756 73380
L70756 72986
" />
<path d="M70756 72789
L70728 72817
L70756 72845
L70784 72817
L70756 72789
L70756 72845
" />
<path d="M71121 73380
L71065 73352
L71037 73295
L71037 72789
" />
<path d="M71571 73352
L71515 73380
L71403 73380
L71346 73352
L71318 73295
L71318 73070
L71346 73014
L71403 72986
L71515 72986
L71571 73014
L71600 73070
L71600 73127
L71318 73183
" />
<path d="M71853 73323
L71881 73352
L71853 73380
L71825 73352
L71853 73323
L71853 73380
" />
<path d="M71853 73014
L71881 73042
L71853 73070
L71825 73042
L71853 73014
L71853 73070
" />
<path d="M72556 73352
L72640 73380
L72781 73380
L72837 73352
L72865 73323
L72893 73267
L72893 73211
L72865 73155
L72837 73127
L72781 73098
L72668 73070
L72612 73042
L72584 73014
L72556 72958
L72556 72902
L72584 72845
L72612 72817
L72668 72789
L72809 72789
L72893 72817
" />
<path d="M73146 73070
L73343 73070
" />
<path d="M73427 73380
L73146 73380
L73146 72789
L73427 72789
" />
<path d="M73765 73042
L73709 73014
L73681 72986
L73652 72930
L73652 72902
L73681 72845
L73709 72817
L73765 72789
L73877 72789
L73934 72817
L73962 72845
L73990 72902
L73990 72930
L73962 72986
L73934 73014
L73877 73042
L73765 73042
L73709 73070
L73681 73098
L73652 73155
L73652 73267
L73681 73323
L73709 73352
L73765 73380
L73877 73380
L73934 73352
L73962 73323
L73990 73267
L73990 73155
L73962 73098
L73934 73070
L73877 73042
" />
<path d="M74215 72845
L74243 72817
L74299 72789
L74440 72789
L74496 72817
L74524 72845
L74552 72902
L74552 72958
L74524 73042
L74187 73380
L74552 73380
" />
<path d="M74749 72789
L75115 72789
L74918 73014
L75002 73014
L75058 73042
L75087 73070
L75115 73127
L75115 73267
L75087 73323
L75058 73352
L75002 73380
L74834 73380
L74777 73352
L74749 73323
" />
<path d="M75312 72789
L75677 72789
L75480 73014
L75565 73014
L75621 73042
L75649 73070
L75677 73127
L75677 73267
L75649 73323
L75621 73352
L75565 73380
L75396 73380
L75340 73352
L75312 73323
" />
<path d="M75874 72789
L76268 73380
" />
<path d="M76268 72789
L75874 73380
" />
<path d="M76465 72845
L76493 72817
L76549 72789
L76690 72789
L76746 72817
L76774 72845
L76802 72902
L76802 72958
L76774 73042
L76436 73380
L76802 73380
" />
<path d="M76915 73436
L77364 73436
" />
<path d="M77786 73380
L77505 73380
L77505 72789
" />
<path d="M77983 73380
L77983 72789
L78124 72789
L78208 72817
L78264 72874
L78292 72930
L78321 73042
L78321 73127
L78292 73239
L78264 73295
L78208 73352
L78124 73380
L77983 73380
" />
<path d="M78686 72789
L78799 72789
L78855 72817
L78911 72874
L78939 72986
L78939 73183
L78911 73295
L78855 73352
L78799 73380
L78686 73380
L78630 73352
L78574 73295
L78546 73183
L78546 72986
L78574 72874
L78630 72817
L78686 72789
" />
<path d="M79192 73323
L79220 73352
L79192 73380
L79164 73352
L79192 73323
L79192 73380
" />
<path d="M79474 73380
L79474 72789
" />
<path d="M79530 73155
L79699 73380
" />
<path d="M79699 72986
L79474 73211
" />
<path d="M79952 73380
L79952 72986
" />
<path d="M79952 72789
L79923 72817
L79952 72845
L79980 72817
L79952 72789
L79952 72845
" />
<path d="M80486 73352
L80430 73380
L80317 73380
L80261 73352
L80233 73323
L80205 73267
L80205 73098
L80233 73042
L80261 73014
L80317 72986
L80430 72986
L80486 73014
" />
<path d="M80992 73380
L80992 73070
L80964 73014
L80908 72986
L80795 72986
L80739 73014
" />
<path d="M80992 73352
L80936 73380
L80795 73380
L80739 73352
L80711 73295
L80711 73239
L80739 73183
L80795 73155
L80936 73155
L80992 73127
" />
<path d="M81526 73380
L81526 72789
" />
<path d="M81526 73352
L81470 73380
L81358 73380
L81301 73352
L81273 73323
L81245 73267
L81245 73098
L81273 73042
L81301 73014
L81358 72986
L81470 72986
L81526 73014
" />
<path d="M81667 73436
L82117 73436
" />
<path d="M82229 73352
L82286 73380
L82398 73380
L82454 73352
L82483 73295
L82483 73267
L82454 73211
L82398 73183
L82314 73183
L82258 73155
L82229 73098
L82229 73070
L82258 73014
L82314 72986
L82398 72986
L82454 73014
" />
<path d="M82989 73352
L82932 73380
L82820 73380
L82764 73352
L82736 73323
L82708 73267
L82708 73098
L82736 73042
L82764 73014
L82820 72986
L82932 72986
L82989 73014
" />
<path d="M83242 73380
L83242 72789
" />
<path d="M83495 73380
L83495 73070
L83467 73014
L83411 72986
L83326 72986
L83270 73014
L83242 73042
" />
</g><path d="M69685 71459
L112205 71459
" />
<text x="70079.606299" y="72345.354331"
textLength="13473.937008" font-size="787.401575" lengthAdjust="spacingAndGlyphs"
text-anchor="start" opacity="0">Sheet: /PSU/SE8233X2_LDO/</text>
<g class="stroked-text"><desc>Sheet: /PSU/SE8233X2_LDO/</desc>
<path d="M70222 72289
L70306 72317
L70447 72317
L70503 72289
L70531 72260
L70559 72204
L70559 72148
L70531 72092
L70503 72064
L70447 72035
L70334 72007
L70278 71979
L70250 71951
L70222 71895
L70222 71839
L70250 71782
L70278 71754
L70334 71726
L70475 71726
L70559 71754
" />
<path d="M70812 72317
L70812 71726
" />
<path d="M71065 72317
L71065 72007
L71037 71951
L70981 71923
L70897 71923
L70840 71951
L70812 71979
" />
<path d="M71571 72289
L71515 72317
L71403 72317
L71346 72289
L71318 72232
L71318 72007
L71346 71951
L71403 71923
L71515 71923
L71571 71951
L71600 72007
L71600 72064
L71318 72120
" />
<path d="M72078 72289
L72021 72317
L71909 72317
L71853 72289
L71825 72232
L71825 72007
L71853 71951
L71909 71923
L72021 71923
L72078 71951
L72106 72007
L72106 72064
L71825 72120
" />
<path d="M72274 71923
L72499 71923
" />
<path d="M72359 71726
L72359 72232
L72387 72289
L72443 72317
L72499 72317
" />
<path d="M72696 72260
L72724 72289
L72696 72317
L72668 72289
L72696 72260
L72696 72317
" />
<path d="M72696 71951
L72724 71979
L72696 72007
L72668 71979
L72696 71951
L72696 72007
" />
<path d="M73849 71698
L73343 72457
" />
<path d="M74046 72317
L74046 71726
L74271 71726
L74327 71754
L74355 71782
L74384 71839
L74384 71923
L74355 71979
L74327 72007
L74271 72035
L74046 72035
" />
<path d="M74609 72289
L74693 72317
L74834 72317
L74890 72289
L74918 72260
L74946 72204
L74946 72148
L74918 72092
L74890 72064
L74834 72035
L74721 72007
L74665 71979
L74637 71951
L74609 71895
L74609 71839
L74637 71782
L74665 71754
L74721 71726
L74862 71726
L74946 71754
" />
<path d="M75199 71726
L75199 72204
L75227 72260
L75255 72289
L75312 72317
L75424 72317
L75480 72289
L75508 72260
L75537 72204
L75537 71726
" />
<path d="M76240 71698
L75733 72457
" />
<path d="M76408 72289
L76493 72317
L76633 72317
L76690 72289
L76718 72260
L76746 72204
L76746 72148
L76718 72092
L76690 72064
L76633 72035
L76521 72007
L76465 71979
L76436 71951
L76408 71895
L76408 71839
L76436 71782
L76465 71754
L76521 71726
L76661 71726
L76746 71754
" />
<path d="M76999 72007
L77196 72007
" />
<path d="M77280 72317
L76999 72317
L76999 71726
L77280 71726
" />
<path d="M77618 71979
L77561 71951
L77533 71923
L77505 71867
L77505 71839
L77533 71782
L77561 71754
L77618 71726
L77730 71726
L77786 71754
L77814 71782
L77842 71839
L77842 71867
L77814 71923
L77786 71951
L77730 71979
L77618 71979
L77561 72007
L77533 72035
L77505 72092
L77505 72204
L77533 72260
L77561 72289
L77618 72317
L77730 72317
L77786 72289
L77814 72260
L77842 72204
L77842 72092
L77814 72035
L77786 72007
L77730 71979
" />
<path d="M78067 71782
L78096 71754
L78152 71726
L78292 71726
L78349 71754
L78377 71782
L78405 71839
L78405 71895
L78377 71979
L78039 72317
L78405 72317
" />
<path d="M78602 71726
L78967 71726
L78771 71951
L78855 71951
L78911 71979
L78939 72007
L78967 72064
L78967 72204
L78939 72260
L78911 72289
L78855 72317
L78686 72317
L78630 72289
L78602 72260
" />
<path d="M79164 71726
L79530 71726
L79333 71951
L79417 71951
L79474 71979
L79502 72007
L79530 72064
L79530 72204
L79502 72260
L79474 72289
L79417 72317
L79249 72317
L79192 72289
L79164 72260
" />
<path d="M79727 71726
L80120 72317
" />
<path d="M80120 71726
L79727 72317
" />
<path d="M80317 71782
L80345 71754
L80402 71726
L80542 71726
L80598 71754
L80627 71782
L80655 71839
L80655 71895
L80627 71979
L80289 72317
L80655 72317
" />
<path d="M80767 72373
L81217 72373
" />
<path d="M81639 72317
L81358 72317
L81358 71726
" />
<path d="M81836 72317
L81836 71726
L81976 71726
L82061 71754
L82117 71811
L82145 71867
L82173 71979
L82173 72064
L82145 72176
L82117 72232
L82061 72289
L81976 72317
L81836 72317
" />
<path d="M82539 71726
L82651 71726
L82708 71754
L82764 71811
L82792 71923
L82792 72120
L82764 72232
L82708 72289
L82651 72317
L82539 72317
L82483 72289
L82426 72232
L82398 72120
L82398 71923
L82426 71811
L82483 71754
L82539 71726
" />
<path d="M83467 71698
L82961 72457
" />
</g></g>
<g style="fill:#840000; fill-opacity:0.0; 
stroke:#840000; stroke-width:118.110236; stroke-opacity:1; 
stroke-linecap:round; stroke-linejoin:round;">
<text x="70079.606299" y="71164.251969"
textLength="9199.488189" font-size="787.401575" lengthAdjust="spacingAndGlyphs"
text-anchor="start" opacity="0">Created by C Sutton</text>
<g class="stroked-text"><desc>Created by C Sutton</desc>
<path d="M70634 71079
L70606 71107
L70521 71136
L70465 71136
L70381 71107
L70325 71051
L70296 70995
L70268 70883
L70268 70798
L70296 70686
L70325 70629
L70381 70573
L70465 70545
L70521 70545
L70606 70573
L70634 70601
" />
<path d="M70887 71136
L70887 70742
" />
<path d="M70887 70854
L70915 70798
L70943 70770
L71000 70742
L71056 70742
" />
<path d="M71478 71107
L71421 71136
L71309 71136
L71253 71107
L71224 71051
L71224 70826
L71253 70770
L71309 70742
L71421 70742
L71478 70770
L71506 70826
L71506 70883
L71224 70939
" />
<path d="M72012 71136
L72012 70826
L71984 70770
L71928 70742
L71815 70742
L71759 70770
" />
<path d="M72012 71107
L71956 71136
L71815 71136
L71759 71107
L71731 71051
L71731 70995
L71759 70939
L71815 70911
L71956 70911
L72012 70883
" />
<path d="M72209 70742
L72434 70742
" />
<path d="M72293 70545
L72293 71051
L72321 71107
L72377 71136
L72434 71136
" />
<path d="M72856 71107
L72799 71136
L72687 71136
L72631 71107
L72602 71051
L72602 70826
L72631 70770
L72687 70742
L72799 70742
L72856 70770
L72884 70826
L72884 70883
L72602 70939
" />
<path d="M73390 71136
L73390 70545
" />
<path d="M73390 71107
L73334 71136
L73221 71136
L73165 71107
L73137 71079
L73109 71023
L73109 70854
L73137 70798
L73165 70770
L73221 70742
L73334 70742
L73390 70770
" />
<path d="M74121 71136
L74121 70545
" />
<path d="M74121 70770
L74177 70742
L74290 70742
L74346 70770
L74374 70798
L74402 70854
L74402 71023
L74374 71079
L74346 71107
L74290 71136
L74177 71136
L74121 71107
" />
<path d="M74599 70742
L74740 71136
" />
<path d="M74880 70742
L74740 71136
L74683 71276
L74655 71304
L74599 71332
" />
<path d="M75893 71079
L75865 71107
L75780 71136
L75724 71136
L75640 71107
L75583 71051
L75555 70995
L75527 70883
L75527 70798
L75555 70686
L75583 70629
L75640 70573
L75724 70545
L75780 70545
L75865 70573
L75893 70601
" />
<path d="M76568 71107
L76652 71136
L76793 71136
L76849 71107
L76877 71079
L76905 71023
L76905 70967
L76877 70911
L76849 70883
L76793 70854
L76680 70826
L76624 70798
L76596 70770
L76568 70714
L76568 70658
L76596 70601
L76624 70573
L76680 70545
L76821 70545
L76905 70573
" />
<path d="M77411 70742
L77411 71136
" />
<path d="M77158 70742
L77158 71051
L77186 71107
L77242 71136
L77327 71136
L77383 71107
L77411 71079
" />
<path d="M77608 70742
L77833 70742
" />
<path d="M77692 70545
L77692 71051
L77721 71107
L77777 71136
L77833 71136
" />
<path d="M77946 70742
L78170 70742
" />
<path d="M78030 70545
L78030 71051
L78058 71107
L78114 71136
L78170 71136
" />
<path d="M78452 71136
L78395 71107
L78367 71079
L78339 71023
L78339 70854
L78367 70798
L78395 70770
L78452 70742
L78536 70742
L78592 70770
L78620 70798
L78649 70854
L78649 71023
L78620 71079
L78592 71107
L78536 71136
L78452 71136
" />
<path d="M78902 70742
L78902 71136
" />
<path d="M78902 70798
L78930 70770
L78986 70742
L79070 70742
L79127 70770
L79155 70826
L79155 71136
" />
</g></g>
<g style="fill:#840000; fill-opacity:0.0; 
stroke:#840000; stroke-width:60.000000; stroke-opacity:1; 
stroke-linecap:round; stroke-linejoin:round;">
<text x="70079.606299" y="69983.149606"
textLength="153.543307" font-size="787.401575" lengthAdjust="spacingAndGlyphs"
text-anchor="start" opacity="0"></text>
<g class="stroked-text"><desc></desc>
</g><text x="70079.606299" y="68802.047244"
textLength="60.000000" font-size="787.401575" lengthAdjust="spacingAndGlyphs"
text-anchor="start" opacity="0"></text>
<g class="stroked-text"><desc></desc>
</g><text x="70079.606299" y="67620.944882"
textLength="60.000000" font-size="787.401575" lengthAdjust="spacingAndGlyphs"
text-anchor="start" opacity="0"></text>
<g class="stroked-text"><desc></desc>
</g><text x="70079.606299" y="66439.842520"
textLength="60.000000" font-size="787.401575" lengthAdjust="spacingAndGlyphs"
text-anchor="start" opacity="0"></text>
<g class="stroked-text"><desc></desc>
</g><path d="M77559 75396
L77559 76577
" />
<path d="M102756 75396
L102756 77955
" />
<g >
</g>
<g style="fill:#840000; fill-opacity:0.0; 
stroke:#840000; stroke-width:200.000000; stroke-opacity:1; 
stroke-linecap:round; stroke-linejoin:round;">
<path style="fill:#840000; fill-opacity:0.0; 
stroke:#840000; stroke-width:200.000000; stroke-opacity:1; 
stroke-linecap:round; stroke-linejoin:round;fill:none"
d="M 39450.000000,37550.000000
41050.000000,37550.000000
" /> 
<path style="fill:#840000; fill-opacity:0.0; 
stroke:#840000; stroke-width:200.000000; stroke-opacity:1; 
stroke-linecap:round; stroke-linejoin:round;fill:none"
d="M 39450.000000,36950.000000
41050.000000,36950.000000
" /> 
</g>
<g style="fill:#840000; fill-opacity:0.0; 
stroke:#840000; stroke-width:60.000000; stroke-opacity:1; 
stroke-linecap:round; stroke-linejoin:round;">
<path d="M40250 36850
L40250 35750
" />
<path d="M40250 37650
L40250 38750
" />
</g>
<g style="fill:#006464; fill-opacity:0.0; 
stroke:#006464; stroke-width:60.000000; stroke-opacity:1; 
stroke-linecap:round; stroke-linejoin:round;">
<text x="41919.330709" y="37039.960630"
textLength="1036.181102" font-size="666.653543" lengthAdjust="spacingAndGlyphs"
text-anchor="middle" opacity="0">C6</text>
<g class="stroked-text"><desc>C6</desc>
<path d="M41835 36968
L41812 36992
L41740 37016
L41693 37016
L41621 36992
L41574 36944
L41550 36897
L41526 36801
L41526 36730
L41550 36635
L41574 36587
L41621 36539
L41693 36516
L41740 36516
L41812 36539
L41835 36563
" />
<path d="M42264 36516
L42169 36516
L42121 36539
L42097 36563
L42050 36635
L42026 36730
L42026 36920
L42050 36968
L42074 36992
L42121 37016
L42216 37016
L42264 36992
L42288 36968
L42312 36920
L42312 36801
L42288 36754
L42264 36730
L42216 36706
L42121 36706
L42074 36730
L42050 36754
L42026 36801
" />
</g><text x="42109.803150" y="37949.960630"
textLength="1417.125984" font-size="666.653543" lengthAdjust="spacingAndGlyphs"
text-anchor="middle" opacity="0">1uF</text>
<g class="stroked-text"><desc>1uF</desc>
<path d="M41812 37926
L41526 37926
" />
<path d="M41669 37926
L41669 37426
L41621 37497
L41574 37545
L41526 37568
" />
<path d="M42240 37592
L42240 37926
" />
<path d="M42026 37592
L42026 37854
L42050 37902
L42097 37926
L42169 37926
L42216 37902
L42240 37878
" />
<path d="M42645 37664
L42478 37664
" />
<path d="M42478 37926
L42478 37426
L42716 37426
" />
</g></g>
</g>
<g style="fill:#006464; fill-opacity:0.0; 
stroke:#006464; stroke-width:60.000000; stroke-opacity:1; 
stroke-linecap:round; stroke-linejoin:round;">
<g >
</g>
<g style="fill:#840000; fill-opacity:0.0; 
stroke:#840000; stroke-width:60.000000; stroke-opacity:1; 
stroke-linecap:round; stroke-linejoin:round;">
<circle cx="71250.000000" cy="31700.000000" r="300.000000" /> 
<path d="M71250 32000
L71250 33000
" />
</g>
<g style="fill:#006464; fill-opacity:0.0; 
stroke:#006464; stroke-width:60.000000; stroke-opacity:1; 
stroke-linecap:round; stroke-linejoin:round;">
<text x="72539.803150" y="32529.960630"
textLength="1417.125984" font-size="666.653543" lengthAdjust="spacingAndGlyphs"
text-anchor="middle" opacity="0">TP8</text>
<g class="stroked-text"><desc>TP8</desc>
<path d="M71908 32006
L72194 32006
" />
<path d="M72051 32506
L72051 32006
" />
<path d="M72361 32506
L72361 32006
L72551 32006
L72599 32029
L72623 32053
L72646 32101
L72646 32172
L72623 32220
L72599 32244
L72551 32268
L72361 32268
" />
<path d="M72932 32220
L72885 32196
L72861 32172
L72837 32125
L72837 32101
L72861 32053
L72885 32029
L72932 32006
L73027 32006
L73075 32029
L73099 32053
L73123 32101
L73123 32125
L73099 32172
L73075 32196
L73027 32220
L72932 32220
L72885 32244
L72861 32268
L72837 32315
L72837 32410
L72861 32458
L72885 32482
L72932 32506
L73027 32506
L73075 32482
L73099 32458
L73123 32410
L73123 32315
L73099 32268
L73075 32244
L73027 32220
" />
</g></g>
</g>
<g style="fill:#006464; fill-opacity:0.0; 
stroke:#006464; stroke-width:60.000000; stroke-opacity:1; 
stroke-linecap:round; stroke-linejoin:round;">
<g >
</g>
<g style="fill:#840000; fill-opacity:0.0; 
stroke:#840000; stroke-width:60.000000; stroke-opacity:1; 
stroke-linecap:round; stroke-linejoin:round;">
</g>
<g style="fill:#FFFFC2; fill-opacity:0.0; 
stroke:#FFFFC2; stroke-width:60.000000; stroke-opacity:1; 
stroke-linecap:round; stroke-linejoin:round;">
</g>
<g style="fill:#FFFFC2; fill-opacity:0.6; 
stroke:#FFFFC2; stroke-width:0.039370; stroke-opacity:1; 
stroke-linecap:round; stroke-linejoin:round;">
<rect x="49500.000000" y="33500.000000" width="4000.000000" height="2750.000000" rx="0.000000" />
</g>
<g style="fill:#840000; fill-opacity:0.6; 
stroke:#840000; stroke-width:0.039370; stroke-opacity:1; 
stroke-linecap:round; stroke-linejoin:round;">
</g>
<g style="fill:#840000; fill-opacity:0.0; 
stroke:#840000; stroke-width:100.000000; stroke-opacity:1; 
stroke-linecap:round; stroke-linejoin:round;">
<rect x="49500.000000" y="33500.000000" width="4000.000000" height="2750.000000" rx="0.000000" />
<rect x="49500.000000" y="33500.000000" width="4000.000000" height="2750.000000" rx="0.000000" />
</g>
<g style="fill:#840000; fill-opacity:0.0; 
stroke:#840000; stroke-width:60.000000; stroke-opacity:1; 
stroke-linecap:round; stroke-linejoin:round;">
<path d="M51500 36250
L51500 37250
" />
</g>
<g style="fill:#006464; fill-opacity:0.0; 
stroke:#006464; stroke-width:60.000000; stroke-opacity:1; 
stroke-linecap:round; stroke-linejoin:round;">
<g transform="rotate(-90.000000 51500.000000 36150.000000)">
<text x="51500.000000" y="36400.000000"
textLength="1583.818898" font-size="666.653543" lengthAdjust="spacingAndGlyphs"
text-anchor="start" opacity="0">GND</text>
</g>
<g class="stroked-text"><desc>GND</desc>
<path d="M51250 35739
L51226 35786
L51226 35858
L51250 35929
L51297 35977
L51345 36000
L51440 36024
L51511 36024
L51607 36000
L51654 35977
L51702 35929
L51726 35858
L51726 35810
L51702 35739
L51678 35715
L51511 35715
L51511 35810
" />
<path d="M51726 35500
L51226 35500
L51726 35215
L51226 35215
" />
<path d="M51726 34977
L51226 34977
L51226 34858
L51250 34786
L51297 34739
L51345 34715
L51440 34691
L51511 34691
L51607 34715
L51654 34739
L51702 34786
L51726 34858
L51726 34977
" />
</g></g>
<g style="fill:#A90000; fill-opacity:0.0; 
stroke:#A90000; stroke-width:60.000000; stroke-opacity:1; 
stroke-linecap:round; stroke-linejoin:round;">
<g transform="rotate(-90.000000 51400.000000 36750.000000)">
<text x="51400.000000" y="36750.000000"
textLength="536.181102" font-size="666.653543" lengthAdjust="spacingAndGlyphs"
text-anchor="middle" opacity="0">1</text>
</g>
<g class="stroked-text"><desc>1</desc>
<path d="M51376 36607
L51376 36892
" />
<path d="M51376 36750
L50876 36750
L50947 36797
L50995 36845
L51019 36892
" />
</g></g>
<g style="fill:#840000; fill-opacity:0.0; 
stroke:#840000; stroke-width:60.000000; stroke-opacity:1; 
stroke-linecap:round; stroke-linejoin:round;">
<path d="M53500 34250
L54500 34250
" />
</g>
<g style="fill:#006464; fill-opacity:0.0; 
stroke:#006464; stroke-width:60.000000; stroke-opacity:1; 
stroke-linecap:round; stroke-linejoin:round;">
<text x="53400.000000" y="34500.000000"
textLength="1012.362205" font-size="666.653543" lengthAdjust="spacingAndGlyphs"
text-anchor="end" opacity="0">VO</text>
<g class="stroked-text"><desc>VO</desc>
<path d="M52465 33976
L52631 34476
L52798 33976
" />
<path d="M53060 33976
L53155 33976
L53203 34000
L53250 34047
L53274 34142
L53274 34309
L53250 34404
L53203 34452
L53155 34476
L53060 34476
L53012 34452
L52965 34404
L52941 34309
L52941 34142
L52965 34047
L53012 34000
L53060 33976
" />
</g></g>
<g style="fill:#A90000; fill-opacity:0.0; 
stroke:#A90000; stroke-width:60.000000; stroke-opacity:1; 
stroke-linecap:round; stroke-linejoin:round;">
<text x="54000.000000" y="34150.000000"
textLength="536.181102" font-size="666.653543" lengthAdjust="spacingAndGlyphs"
text-anchor="middle" opacity="0">2</text>
<g class="stroked-text"><desc>2</desc>
<path d="M53857 33673
L53880 33650
L53928 33626
L54047 33626
L54095 33650
L54119 33673
L54142 33721
L54142 33769
L54119 33840
L53833 34126
L54142 34126
" />
</g></g>
<g style="fill:#840000; fill-opacity:0.0; 
stroke:#840000; stroke-width:60.000000; stroke-opacity:1; 
stroke-linecap:round; stroke-linejoin:round;">
<path d="M49500 34250
L48500 34250
" />
</g>
<g style="fill:#006464; fill-opacity:0.0; 
stroke:#006464; stroke-width:60.000000; stroke-opacity:1; 
stroke-linecap:round; stroke-linejoin:round;">
<text x="49600.000000" y="34500.000000"
textLength="726.653543" font-size="666.653543" lengthAdjust="spacingAndGlyphs"
text-anchor="start" opacity="0">VI</text>
<g class="stroked-text"><desc>VI</desc>
<path d="M49677 33976
L49844 34476
L50010 33976
" />
<path d="M50177 34476
L50177 33976
" />
</g></g>
<g style="fill:#A90000; fill-opacity:0.0; 
stroke:#A90000; stroke-width:60.000000; stroke-opacity:1; 
stroke-linecap:round; stroke-linejoin:round;">
<text x="49000.000000" y="34150.000000"
textLength="536.181102" font-size="666.653543" lengthAdjust="spacingAndGlyphs"
text-anchor="middle" opacity="0">3</text>
<g class="stroked-text"><desc>3</desc>
<path d="M48833 33626
L49142 33626
L48976 33816
L49047 33816
L49095 33840
L49119 33864
L49142 33911
L49142 34030
L49119 34078
L49095 34102
L49047 34126
L48904 34126
L48857 34102
L48833 34078
" />
</g></g>
<g style="fill:#006464; fill-opacity:0.0; 
stroke:#006464; stroke-width:60.000000; stroke-opacity:1; 
stroke-linecap:round; stroke-linejoin:round;">
<text x="51500.000000" y="32079.960630"
textLength="1536.181102" font-size="666.653543" lengthAdjust="spacingAndGlyphs"
text-anchor="middle" opacity="0">U40</text>
<g class="stroked-text"><desc>U40</desc>
<path d="M50880 31556
L50880 31960
L50904 32008
L50928 32032
L50976 32056
L51071 32056
L51119 32032
L51142 32008
L51166 31960
L51166 31556
" />
<path d="M51619 31722
L51619 32056
" />
<path d="M51500 31532
L51380 31889
L51690 31889
" />
<path d="M51976 31556
L52023 31556
L52071 31579
L52095 31603
L52119 31651
L52142 31746
L52142 31865
L52119 31960
L52095 32008
L52071 32032
L52023 32056
L51976 32056
L51928 32032
L51904 32008
L51880 31960
L51857 31865
L51857 31746
L51880 31651
L51904 31603
L51928 31579
L51976 31556
" />
</g><text x="51500.000000" y="32989.960630"
textLength="3845.708661" font-size="666.653543" lengthAdjust="spacingAndGlyphs"
text-anchor="middle" opacity="0">SE8233X2</text>
<g class="stroked-text"><desc>SE8233X2</desc>
<path d="M49702 32942
L49773 32966
L49892 32966
L49940 32942
L49964 32918
L49988 32870
L49988 32823
L49964 32775
L49940 32751
L49892 32728
L49797 32704
L49750 32680
L49726 32656
L49702 32608
L49702 32561
L49726 32513
L49750 32489
L49797 32466
L49916 32466
L49988 32489
" />
<path d="M50202 32704
L50369 32704
" />
<path d="M50440 32966
L50202 32966
L50202 32466
L50440 32466
" />
<path d="M50726 32680
L50678 32656
L50654 32632
L50630 32585
L50630 32561
L50654 32513
L50678 32489
L50726 32466
L50821 32466
L50869 32489
L50892 32513
L50916 32561
L50916 32585
L50892 32632
L50869 32656
L50821 32680
L50726 32680
L50678 32704
L50654 32728
L50630 32775
L50630 32870
L50654 32918
L50678 32942
L50726 32966
L50821 32966
L50869 32942
L50892 32918
L50916 32870
L50916 32775
L50892 32728
L50869 32704
L50821 32680
" />
<path d="M51107 32513
L51130 32489
L51178 32466
L51297 32466
L51345 32489
L51369 32513
L51392 32561
L51392 32608
L51369 32680
L51083 32966
L51392 32966
" />
<path d="M51559 32466
L51869 32466
L51702 32656
L51773 32656
L51821 32680
L51845 32704
L51869 32751
L51869 32870
L51845 32918
L51821 32942
L51773 32966
L51630 32966
L51583 32942
L51559 32918
" />
<path d="M52035 32466
L52345 32466
L52178 32656
L52250 32656
L52297 32680
L52321 32704
L52345 32751
L52345 32870
L52321 32918
L52297 32942
L52250 32966
L52107 32966
L52059 32942
L52035 32918
" />
<path d="M52511 32466
L52845 32966
" />
<path d="M52845 32466
L52511 32966
" />
<path d="M53011 32513
L53035 32489
L53083 32466
L53202 32466
L53250 32489
L53273 32513
L53297 32561
L53297 32608
L53273 32680
L52988 32966
L53297 32966
" />
</g></g>
</g>
<g style="fill:#006464; fill-opacity:0.0; 
stroke:#006464; stroke-width:60.000000; stroke-opacity:1; 
stroke-linecap:round; stroke-linejoin:round;">
<g >
</g>
<g style="fill:#840000; fill-opacity:0.0; 
stroke:#840000; stroke-width:60.000000; stroke-opacity:1; 
stroke-linecap:round; stroke-linejoin:round;">
</g>
<g style="fill:#840000; fill-opacity:0.0; 
stroke:#840000; stroke-width:100.000000; stroke-opacity:1; 
stroke-linecap:round; stroke-linejoin:round;">
<path style="fill:#840000; fill-opacity:0.0; 
stroke:#840000; stroke-width:100.000000; stroke-opacity:1; 
stroke-linecap:round; stroke-linejoin:round;fill:none"
d="M 71750.000000,38000.000000
70750.000000,38000.000000
" /> 
</g>
<g style="fill:#840000; fill-opacity:0.0; 
stroke:#840000; stroke-width:60.000000; stroke-opacity:1; 
stroke-linecap:round; stroke-linejoin:round;">
<path style="fill:#840000; fill-opacity:0.0; 
stroke:#840000; stroke-width:60.000000; stroke-opacity:1; 
stroke-linecap:round; stroke-linejoin:round;fill:none"
d="M 71250.000000,38000.000000
71250.000000,37000.000000
" /> 
</g>
<g style="fill:#840000; fill-opacity:0.0; 
stroke:#840000; stroke-width:100.000000; stroke-opacity:1; 
stroke-linecap:round; stroke-linejoin:round;">
<path style="fill:#840000; fill-opacity:0.0; 
stroke:#840000; stroke-width:100.000000; stroke-opacity:1; 
stroke-linecap:round; stroke-linejoin:round;fill:none"
d="M 71750.000000,37000.000000
70750.000000,37000.000000
71250.000000,38000.000000
Z" /> 
</g>
<g style="fill:#840000; fill-opacity:0.0; 
stroke:#840000; stroke-width:60.000000; stroke-opacity:1; 
stroke-linecap:round; stroke-linejoin:round;">
<path style="fill:#840000; fill-opacity:0.0; 
stroke:#840000; stroke-width:60.000000; stroke-opacity:1; 
stroke-linecap:round; stroke-linejoin:round;fill:none"
d="M 71550.000000,38700.000000
72150.000000,39300.000000
72150.000000,39000.000000
72150.000000,39300.000000
71850.000000,39300.000000
" /> 
<path style="fill:#840000; fill-opacity:0.0; 
stroke:#840000; stroke-width:60.000000; stroke-opacity:1; 
stroke-linecap:round; stroke-linejoin:round;fill:none"
d="M 71550.000000,38200.000000
72150.000000,38800.000000
72150.000000,38500.000000
72150.000000,38800.000000
71850.000000,38800.000000
" /> 
<path d="M71250 38000
L71250 39000
" />
<path d="M71250 37000
L71250 36000
" />
</g>
<g style="fill:#006464; fill-opacity:0.0; 
stroke:#006464; stroke-width:60.000000; stroke-opacity:1; 
stroke-linecap:round; stroke-linejoin:round;">
<text x="72949.330709" y="37360.000000"
textLength="1036.181102" font-size="666.653543" lengthAdjust="spacingAndGlyphs"
text-anchor="middle" opacity="0">D4</text>
<g class="stroked-text"><desc>D4</desc>
<path d="M72580 37336
L72580 36836
L72699 36836
L72770 36860
L72818 36907
L72842 36955
L72865 37050
L72865 37121
L72842 37217
L72818 37264
L72770 37312
L72699 37336
L72580 37336
" />
<path d="M73294 37002
L73294 37336
" />
<path d="M73175 36812
L73056 37169
L73365 37169
" />
</g><text x="73187.440945" y="38270.000000"
textLength="1512.362205" font-size="666.653543" lengthAdjust="spacingAndGlyphs"
text-anchor="middle" opacity="0">RED</text>
<g class="stroked-text"><desc>RED</desc>
<path d="M72865 38246
L72699 38008
" />
<path d="M72580 38246
L72580 37746
L72770 37746
L72818 37770
L72842 37793
L72865 37841
L72865 37912
L72842 37960
L72818 37984
L72770 38008
L72580 38008
" />
<path d="M73080 37984
L73246 37984
" />
<path d="M73318 38246
L73080 38246
L73080 37746
L73318 37746
" />
<path d="M73532 38246
L73532 37746
L73651 37746
L73723 37770
L73770 37817
L73794 37865
L73818 37960
L73818 38031
L73794 38127
L73770 38174
L73723 38222
L73651 38246
L73532 38246
" />
</g></g>
</g>
<g style="fill:#006464; fill-opacity:0.0; 
stroke:#006464; stroke-width:60.000000; stroke-opacity:1; 
stroke-linecap:round; stroke-linejoin:round;">
<g >
</g>
<g style="fill:#840000; fill-opacity:0.0; 
stroke:#840000; stroke-width:60.000000; stroke-opacity:1; 
stroke-linecap:round; stroke-linejoin:round;">
</g>
<g style="fill:#840000; fill-opacity:0.0; 
stroke:#840000; stroke-width:100.000000; stroke-opacity:1; 
stroke-linecap:round; stroke-linejoin:round;">
<rect x="70850.000000" y="41250.000000" width="800.000000" height="2000.000000" rx="0.000000" />
</g>
<g style="fill:#840000; fill-opacity:0.0; 
stroke:#840000; stroke-width:60.000000; stroke-opacity:1; 
stroke-linecap:round; stroke-linejoin:round;">
<path d="M71250 41250
L71250 40750
" />
<path d="M71250 43250
L71250 43750
" />
</g>
<g style="fill:#006464; fill-opacity:0.0; 
stroke:#006464; stroke-width:60.000000; stroke-opacity:1; 
stroke-linecap:round; stroke-linejoin:round;">
<text x="72469.330709" y="42039.960630"
textLength="1036.181102" font-size="666.653543" lengthAdjust="spacingAndGlyphs"
text-anchor="middle" opacity="0">R9</text>
<g class="stroked-text"><desc>R9</desc>
<path d="M72385 42016
L72219 41778
" />
<path d="M72100 42016
L72100 41516
L72290 41516
L72338 41539
L72362 41563
L72385 41611
L72385 41682
L72362 41730
L72338 41754
L72290 41778
L72100 41778
" />
<path d="M72624 42016
L72719 42016
L72766 41992
L72790 41968
L72838 41897
L72862 41801
L72862 41611
L72838 41563
L72814 41539
L72766 41516
L72671 41516
L72624 41539
L72600 41563
L72576 41611
L72576 41730
L72600 41778
L72624 41801
L72671 41825
L72766 41825
L72814 41801
L72838 41778
L72862 41730
" />
</g><text x="72707.440945" y="42949.960630"
textLength="1512.362205" font-size="666.653543" lengthAdjust="spacingAndGlyphs"
text-anchor="middle" opacity="0">2K2</text>
<g class="stroked-text"><desc>2K2</desc>
<path d="M72076 42473
L72100 42449
L72147 42426
L72266 42426
L72314 42449
L72338 42473
L72362 42521
L72362 42568
L72338 42640
L72052 42926
L72362 42926
" />
<path d="M72576 42926
L72576 42426
" />
<path d="M72862 42926
L72647 42640
" />
<path d="M72862 42426
L72576 42711
" />
<path d="M73052 42473
L73076 42449
L73124 42426
L73243 42426
L73290 42449
L73314 42473
L73338 42521
L73338 42568
L73314 42640
L73028 42926
L73338 42926
" />
</g></g>
</g>
<g style="fill:#006464; fill-opacity:0.0; 
stroke:#006464; stroke-width:60.000000; stroke-opacity:1; 
stroke-linecap:round; stroke-linejoin:round;">
<g >
</g>
<g style="fill:#840000; fill-opacity:0.0; 
stroke:#840000; stroke-width:60.000000; stroke-opacity:1; 
stroke-linecap:round; stroke-linejoin:round;">
<path style="fill:#840000; fill-opacity:0.0; 
stroke:#840000; stroke-width:60.000000; stroke-opacity:1; 
stroke-linecap:round; stroke-linejoin:round;fill:none"
d="M 51500.000000,48000.000000
51500.000000,48500.000000
52000.000000,48500.000000
51500.000000,49000.000000
51000.000000,48500.000000
51500.000000,48500.000000
" /> 
</g>
<g style="fill:#006464; fill-opacity:0.0; 
stroke:#006464; stroke-width:60.000000; stroke-opacity:1; 
stroke-linecap:round; stroke-linejoin:round;">
<text x="51550.000000" y="49979.960630"
textLength="2060.000000" font-size="666.653543" lengthAdjust="spacingAndGlyphs"
text-anchor="middle" opacity="0">GNDS</text>
<g class="stroked-text"><desc>GNDS</desc>
<path d="M50930 49479
L50883 49456
L50811 49456
L50740 49479
L50692 49527
L50669 49575
L50645 49670
L50645 49741
L50669 49837
L50692 49884
L50740 49932
L50811 49956
L50859 49956
L50930 49932
L50954 49908
L50954 49741
L50859 49741
" />
<path d="M51169 49956
L51169 49456
L51454 49956
L51454 49456
" />
<path d="M51692 49956
L51692 49456
L51811 49456
L51883 49479
L51930 49527
L51954 49575
L51978 49670
L51978 49741
L51954 49837
L51930 49884
L51883 49932
L51811 49956
L51692 49956
" />
<path d="M52169 49932
L52240 49956
L52359 49956
L52407 49932
L52430 49908
L52454 49860
L52454 49813
L52430 49765
L52407 49741
L52359 49718
L52264 49694
L52216 49670
L52192 49646
L52169 49598
L52169 49551
L52192 49503
L52216 49479
L52264 49456
L52383 49456
L52454 49479
" />
</g></g>
</g>
<g style="fill:#006464; fill-opacity:0.0; 
stroke:#006464; stroke-width:60.000000; stroke-opacity:1; 
stroke-linecap:round; stroke-linejoin:round;">
<g >
</g>
<g style="fill:#840000; fill-opacity:0.0; 
stroke:#840000; stroke-width:60.000000; stroke-opacity:1; 
stroke-linecap:round; stroke-linejoin:round;">
</g>
<g style="fill:#840000; fill-opacity:0.0; 
stroke:#840000; stroke-width:200.000000; stroke-opacity:1; 
stroke-linecap:round; stroke-linejoin:round;">
<path style="fill:#840000; fill-opacity:0.0; 
stroke:#840000; stroke-width:200.000000; stroke-opacity:1; 
stroke-linecap:round; stroke-linejoin:round;fill:none"
d="M 61950.000000,37550.000000
63550.000000,37550.000000
" /> 
<path style="fill:#840000; fill-opacity:0.0; 
stroke:#840000; stroke-width:200.000000; stroke-opacity:1; 
stroke-linecap:round; stroke-linejoin:round;fill:none"
d="M 61950.000000,36950.000000
63550.000000,36950.000000
" /> 
</g>
<g style="fill:#840000; fill-opacity:0.0; 
stroke:#840000; stroke-width:60.000000; stroke-opacity:1; 
stroke-linecap:round; stroke-linejoin:round;">
<path d="M62750 36850
L62750 35750
" />
<path d="M62750 37650
L62750 38750
" />
</g>
<g style="fill:#006464; fill-opacity:0.0; 
stroke:#006464; stroke-width:60.000000; stroke-opacity:1; 
stroke-linecap:round; stroke-linejoin:round;">
<text x="64419.330709" y="37039.960630"
textLength="1036.181102" font-size="666.653543" lengthAdjust="spacingAndGlyphs"
text-anchor="middle" opacity="0">C7</text>
<g class="stroked-text"><desc>C7</desc>
<path d="M64335 36968
L64312 36992
L64240 37016
L64193 37016
L64121 36992
L64074 36944
L64050 36897
L64026 36801
L64026 36730
L64050 36635
L64074 36587
L64121 36539
L64193 36516
L64240 36516
L64312 36539
L64335 36563
" />
<path d="M64502 36516
L64835 36516
L64621 37016
" />
</g><text x="64847.913386" y="37949.960630"
textLength="1893.346457" font-size="666.653543" lengthAdjust="spacingAndGlyphs"
text-anchor="middle" opacity="0">10uF</text>
<g class="stroked-text"><desc>10uF</desc>
<path d="M64312 37926
L64026 37926
" />
<path d="M64169 37926
L64169 37426
L64121 37497
L64074 37545
L64026 37568
" />
<path d="M64621 37426
L64669 37426
L64716 37449
L64740 37473
L64764 37521
L64788 37616
L64788 37735
L64764 37830
L64740 37878
L64716 37902
L64669 37926
L64621 37926
L64574 37902
L64550 37878
L64526 37830
L64502 37735
L64502 37616
L64526 37521
L64550 37473
L64574 37449
L64621 37426
" />
<path d="M65216 37592
L65216 37926
" />
<path d="M65002 37592
L65002 37854
L65026 37902
L65074 37926
L65145 37926
L65193 37902
L65216 37878
" />
<path d="M65621 37664
L65455 37664
" />
<path d="M65455 37926
L65455 37426
L65693 37426
" />
</g></g>
</g>
<g style="fill:#006464; fill-opacity:0.0; 
stroke:#006464; stroke-width:62.519685; stroke-opacity:1; 
stroke-linecap:round; stroke-linejoin:round;">
</g>
<g style="fill:#006464; fill-opacity:0.0; 
stroke:#006464; stroke-width:60.000000; stroke-opacity:1; 
stroke-linecap:round; stroke-linejoin:round;">
</g>
<g style="fill:#725600; fill-opacity:0.0; 
stroke:#725600; stroke-width:60.000000; stroke-opacity:1; 
stroke-linecap:round; stroke-linejoin:round;">
<text x="31960.000000" y="34500.000000"
textLength="3060.000000" font-size="666.653543" lengthAdjust="spacingAndGlyphs"
text-anchor="end" opacity="0">LDO_VIN</text>
<g class="stroked-text"><desc>LDO_VIN</desc>
<path d="M29287 34476
L29049 34476
L29049 33976
" />
<path d="M29453 34476
L29453 33976
L29572 33976
L29644 34000
L29691 34047
L29715 34095
L29739 34190
L29739 34261
L29715 34357
L29691 34404
L29644 34452
L29572 34476
L29453 34476
" />
<path d="M30049 33976
L30144 33976
L30191 34000
L30239 34047
L30263 34142
L30263 34309
L30239 34404
L30191 34452
L30144 34476
L30049 34476
L30001 34452
L29953 34404
L29930 34309
L29930 34142
L29953 34047
L30001 34000
L30049 33976
" />
<path d="M30358 34523
L30739 34523
" />
<path d="M30787 33976
L30953 34476
L31120 33976
" />
<path d="M31287 34476
L31287 33976
" />
<path d="M31525 34476
L31525 33976
L31810 34476
L31810 33976
" />
</g><path style="fill:#725600; fill-opacity:0.0; 
stroke:#725600; stroke-width:60.000000; stroke-opacity:1; 
stroke-linecap:round; stroke-linejoin:round;fill:none"
d="M 32500.000000,34250.000000
32250.000000,34000.000000
32000.000000,34000.000000
32000.000000,34500.000000
32250.000000,34500.000000
Z" /> 
</g>
<g style="fill:#725600; fill-opacity:0.0; 
stroke:#725600; stroke-width:62.519685; stroke-opacity:1; 
stroke-linecap:round; stroke-linejoin:round;">
</g>
<g style="fill:#725600; fill-opacity:0.0; 
stroke:#725600; stroke-width:60.000000; stroke-opacity:1; 
stroke-linecap:round; stroke-linejoin:round;">
<text x="85790.000000" y="34500.000000"
textLength="3726.653543" font-size="666.653543" lengthAdjust="spacingAndGlyphs"
text-anchor="start" opacity="0">LDO_VOUT</text>
<g class="stroked-text"><desc>LDO_VOUT</desc>
<path d="M86177 34476
L85939 34476
L85939 33976
" />
<path d="M86343 34476
L86343 33976
L86462 33976
L86534 34000
L86581 34047
L86605 34095
L86629 34190
L86629 34261
L86605 34357
L86581 34404
L86534 34452
L86462 34476
L86343 34476
" />
<path d="M86939 33976
L87034 33976
L87081 34000
L87129 34047
L87153 34142
L87153 34309
L87129 34404
L87081 34452
L87034 34476
L86939 34476
L86891 34452
L86843 34404
L86820 34309
L86820 34142
L86843 34047
L86891 34000
L86939 33976
" />
<path d="M87248 34523
L87629 34523
" />
<path d="M87677 33976
L87843 34476
L88010 33976
" />
<path d="M88272 33976
L88367 33976
L88415 34000
L88462 34047
L88486 34142
L88486 34309
L88462 34404
L88415 34452
L88367 34476
L88272 34476
L88224 34452
L88177 34404
L88153 34309
L88153 34142
L88177 34047
L88224 34000
L88272 33976
" />
<path d="M88700 33976
L88700 34380
L88724 34428
L88748 34452
L88796 34476
L88891 34476
L88939 34452
L88962 34428
L88986 34380
L88986 33976
" />
<path d="M89153 33976
L89439 33976
" />
<path d="M89296 34476
L89296 33976
" />
</g><path style="fill:#725600; fill-opacity:0.0; 
stroke:#725600; stroke-width:60.000000; stroke-opacity:1; 
stroke-linecap:round; stroke-linejoin:round;fill:none"
d="M 85750.000000,34250.000000
85500.000000,34000.000000
85250.000000,34000.000000
85250.000000,34500.000000
85500.000000,34500.000000
Z" /> 
</g>
<g style="fill:#725600; fill-opacity:0.0; 
stroke:#725600; stroke-width:62.519685; stroke-opacity:1; 
stroke-linecap:round; stroke-linejoin:round;">
</g>
<g style="fill:#725600; fill-opacity:0.0; 
stroke:#725600; stroke-width:60.000000; stroke-opacity:1; 
stroke-linecap:round; stroke-linejoin:round;">
</g>
<g style="fill:#0000C2; fill-opacity:0.0; 
stroke:#0000C2; stroke-width:60.000000; stroke-opacity:1; 
stroke-linecap:round; stroke-linejoin:round;">
<text x="50250.000000" y="30092.480315"
textLength="2202.874016" font-size="666.653543" lengthAdjust="spacingAndGlyphs"
text-anchor="start" opacity="0">30VIN</text>
<g class="stroked-text"><desc>30VIN</desc>
<path d="M50351 29568
L50660 29568
L50494 29759
L50565 29759
L50613 29782
L50637 29806
L50660 29854
L50660 29973
L50637 30021
L50613 30044
L50565 30068
L50422 30068
L50375 30044
L50351 30021
" />
<path d="M50970 29568
L51018 29568
L51065 29592
L51089 29616
L51113 29663
L51137 29759
L51137 29878
L51113 29973
L51089 30021
L51065 30044
L51018 30068
L50970 30068
L50922 30044
L50899 30021
L50875 29973
L50851 29878
L50851 29759
L50875 29663
L50899 29616
L50922 29592
L50970 29568
" />
<path d="M51280 29568
L51446 30068
L51613 29568
" />
<path d="M51780 30068
L51780 29568
" />
<path d="M52018 30068
L52018 29568
L52303 30068
L52303 29568
" />
</g><text x="50250.000000" y="30897.480315"
textLength="2583.818898" font-size="666.653543" lengthAdjust="spacingAndGlyphs"
text-anchor="start" opacity="0">100mA</text>
<g class="stroked-text"><desc>100mA</desc>
<path d="M50660 30873
L50375 30873
" />
<path d="M50518 30873
L50518 30373
L50470 30445
L50422 30492
L50375 30516
" />
<path d="M50970 30373
L51018 30373
L51065 30397
L51089 30421
L51113 30468
L51137 30564
L51137 30683
L51113 30778
L51089 30826
L51065 30849
L51018 30873
L50970 30873
L50922 30849
L50899 30826
L50875 30778
L50851 30683
L50851 30564
L50875 30468
L50899 30421
L50922 30397
L50970 30373
" />
<path d="M51446 30373
L51494 30373
L51541 30397
L51565 30421
L51589 30468
L51613 30564
L51613 30683
L51589 30778
L51565 30826
L51541 30849
L51494 30873
L51446 30873
L51399 30849
L51375 30826
L51351 30778
L51327 30683
L51327 30564
L51351 30468
L51375 30421
L51399 30397
L51446 30373
" />
<path d="M51827 30873
L51827 30540
" />
<path d="M51827 30587
L51851 30564
L51899 30540
L51970 30540
L52018 30564
L52041 30611
L52041 30873
" />
<path d="M52041 30611
L52065 30564
L52113 30540
L52184 30540
L52232 30564
L52256 30611
L52256 30873
" />
<path d="M52470 30730
L52708 30730
" />
<path d="M52422 30873
L52589 30373
L52756 30873
" />
</g></g>
<g style="fill:#009600; fill-opacity:0.0; 
stroke:#009600; stroke-width:60.000000; stroke-opacity:1; 
stroke-linecap:round; stroke-linejoin:round;">
<path d="M62750 40250
L51500 40250
" />
<path d="M51500 37250
L51500 40250
" />
<path d="M54500 34250
L62750 34250
" />
<path d="M71250 45000
L51500 45000
" />
<path d="M71250 34250
L85250 34250
" />
<path d="M40250 38750
L40250 40250
" />
<path d="M48500 34250
L40250 34250
" />
<path d="M40250 40250
L51500 40250
" />
<path d="M71250 34250
L71250 33000
" />
<path d="M51500 40250
L51500 45000
" />
<path d="M71250 36000
L71250 34250
" />
<path d="M71250 40750
L71250 39000
" />
<path d="M40250 35750
L40250 34250
" />
<path d="M40250 34250
L32500 34250
" />
<path d="M71250 43750
L71250 45000
" />
<path d="M62750 38750
L62750 40250
" />
<path d="M62750 34250
L71250 34250
" />
<path d="M62750 35750
L62750 34250
" />
<path d="M51500 45000
L51500 48000
" />
</g>
<g style="fill:#009600; fill-opacity:1.0; 
stroke:#009600; stroke-width:60.000000; stroke-opacity:1; 
stroke-linecap:round; stroke-linejoin:round;">
<circle cx="51500.000000" cy="45000.000000" r="180.000000" /> 
<circle cx="51500.000000" cy="40250.000000" r="180.000000" /> 
<circle cx="62750.000000" cy="34250.000000" r="180.000000" /> 
<circle cx="40250.000000" cy="34250.000000" r="180.000000" /> 
<circle cx="71250.000000" cy="34250.000000" r="180.000000" /> 
</g> 
</svg>
