<?xml version="1.0" standalone="no"?>
 <!DOCTYPE svg PUBLIC "-//W3C//DTD SVG 1.1//EN" 
 "http://www.w3.org/Graphics/SVG/1.1/DTD/svg11.dtd"> 
<svg
  xmlns:svg="http://www.w3.org/2000/svg"
  xmlns="http://www.w3.org/2000/svg"
  xmlns:xlink="http://www.w3.org/1999/xlink"
  version="1.1"
  width="29.700220cm" height="21.000720cm" viewBox="0 0 116930 82680">
<title>SVG Picture created as BassStation_Sequencer_MidiInterface-MCU-10PinARMSWD.svg date 2022/02/10 02:08:44 </title>
  <desc>Picture generated by Eeschema-SVG </desc>
<g style="fill:#000000; fill-opacity:1.000000;stroke:#000000; stroke-opacity:1.000000;
stroke-linecap:round; stroke-linejoin:round;"
 transform="translate(0 0) scale(1 1)">
</g>
<g style="fill:#840000; fill-opacity:0.0; 
stroke:#840000; stroke-width:0.000000; stroke-opacity:1; 
stroke-linecap:round; stroke-linejoin:round;">
</g>
<g style="fill:#840000; fill-opacity:0.0; 
stroke:#840000; stroke-width:60.000000; stroke-opacity:1; 
stroke-linecap:round; stroke-linejoin:round;">
<rect x="69685.905512" y="65357.165354" width="42519.685039" height="12598.425197" rx="0.000000" />
<rect x="3937.007874" y="3937.007874" width="109055.984252" height="74805.984252" rx="0.000000" />
<rect x="4724.409449" y="4724.409449" width="107481.181102" height="73231.181102" rx="0.000000" />
<path d="M23622 4724
L23622 3937
" />
<path d="M43307 4724
L43307 3937
" />
<path d="M62992 4724
L62992 3937
" />
<path d="M82677 4724
L82677 3937
" />
<path d="M102362 4724
L102362 3937
" />
<text x="13779.527559" y="4586.614173"
textLength="549.960630" font-size="682.401575" lengthAdjust="spacingAndGlyphs"
text-anchor="start" opacity="0">1</text>
<g class="stroked-text"><desc>1</desc>
<path d="M14199 4562
L13907 4562
" />
<path d="M14053 4562
L14053 4050
L14004 4123
L13955 4172
L13907 4196
" />
</g><text x="33464.566929" y="4586.614173"
textLength="547.440945" font-size="682.401575" lengthAdjust="spacingAndGlyphs"
text-anchor="start" opacity="0">2</text>
<g class="stroked-text"><desc>2</desc>
<path d="M33592 4099
L33616 4074
L33665 4050
L33787 4050
L33835 4074
L33860 4099
L33884 4147
L33884 4196
L33860 4269
L33567 4562
L33884 4562
" />
</g><text x="53149.606299" y="4586.614173"
textLength="547.440945" font-size="682.401575" lengthAdjust="spacingAndGlyphs"
text-anchor="start" opacity="0">3</text>
<g class="stroked-text"><desc>3</desc>
<path d="M53252 4050
L53569 4050
L53398 4245
L53472 4245
L53520 4269
L53545 4294
L53569 4342
L53569 4464
L53545 4513
L53520 4537
L53472 4562
L53325 4562
L53277 4537
L53252 4513
" />
</g><text x="72834.645669" y="4586.614173"
textLength="547.440945" font-size="682.401575" lengthAdjust="spacingAndGlyphs"
text-anchor="start" opacity="0">4</text>
<g class="stroked-text"><desc>4</desc>
<path d="M73205 4221
L73205 4562
" />
<path d="M73083 4026
L72962 4391
L73278 4391
" />
</g><text x="92519.685039" y="4586.614173"
textLength="547.440945" font-size="682.401575" lengthAdjust="spacingAndGlyphs"
text-anchor="start" opacity="0">5</text>
<g class="stroked-text"><desc>5</desc>
<path d="M92915 4050
L92671 4050
L92647 4294
L92671 4269
L92720 4245
L92842 4245
L92890 4269
L92915 4294
L92939 4342
L92939 4464
L92915 4513
L92890 4537
L92842 4562
L92720 4562
L92671 4537
L92647 4513
" />
</g><text x="112204.724409" y="4586.614173"
textLength="547.440945" font-size="682.401575" lengthAdjust="spacingAndGlyphs"
text-anchor="start" opacity="0">6</text>
<g class="stroked-text"><desc>6</desc>
<path d="M112575 4050
L112478 4050
L112429 4074
L112405 4099
L112356 4172
L112332 4269
L112332 4464
L112356 4513
L112380 4537
L112429 4562
L112527 4562
L112575 4537
L112600 4513
L112624 4464
L112624 4342
L112600 4294
L112575 4269
L112527 4245
L112429 4245
L112380 4269
L112356 4294
L112332 4342
" />
</g><path d="M23622 77955
L23622 78742
" />
<path d="M43307 77955
L43307 78742
" />
<path d="M62992 77955
L62992 78742
" />
<path d="M82677 77955
L82677 78742
" />
<path d="M102362 77955
L102362 78742
" />
<text x="13779.527559" y="78605.196850"
textLength="547.440945" font-size="682.401575" lengthAdjust="spacingAndGlyphs"
text-anchor="start" opacity="0">1</text>
<g class="stroked-text"><desc>1</desc>
<path d="M14199 78580
L13907 78580
" />
<path d="M14053 78580
L14053 78068
L14004 78142
L13955 78190
L13907 78215
" />
</g><text x="33464.566929" y="78605.196850"
textLength="547.440945" font-size="682.401575" lengthAdjust="spacingAndGlyphs"
text-anchor="start" opacity="0">2</text>
<g class="stroked-text"><desc>2</desc>
<path d="M33592 78117
L33616 78093
L33665 78068
L33787 78068
L33835 78093
L33860 78117
L33884 78166
L33884 78215
L33860 78288
L33567 78580
L33884 78580
" />
</g><text x="53149.606299" y="78605.196850"
textLength="547.440945" font-size="682.401575" lengthAdjust="spacingAndGlyphs"
text-anchor="start" opacity="0">3</text>
<g class="stroked-text"><desc>3</desc>
<path d="M53252 78068
L53569 78068
L53398 78263
L53472 78263
L53520 78288
L53545 78312
L53569 78361
L53569 78483
L53545 78532
L53520 78556
L53472 78580
L53325 78580
L53277 78556
L53252 78532
" />
</g><text x="72834.645669" y="78605.196850"
textLength="547.440945" font-size="682.401575" lengthAdjust="spacingAndGlyphs"
text-anchor="start" opacity="0">4</text>
<g class="stroked-text"><desc>4</desc>
<path d="M73205 78239
L73205 78580
" />
<path d="M73083 78044
L72962 78410
L73278 78410
" />
</g><text x="92519.685039" y="78605.196850"
textLength="547.440945" font-size="682.401575" lengthAdjust="spacingAndGlyphs"
text-anchor="start" opacity="0">5</text>
<g class="stroked-text"><desc>5</desc>
<path d="M92915 78068
L92671 78068
L92647 78312
L92671 78288
L92720 78263
L92842 78263
L92890 78288
L92915 78312
L92939 78361
L92939 78483
L92915 78532
L92890 78556
L92842 78580
L92720 78580
L92671 78556
L92647 78532
" />
</g><text x="112204.724409" y="78605.196850"
textLength="547.440945" font-size="682.401575" lengthAdjust="spacingAndGlyphs"
text-anchor="start" opacity="0">6</text>
<g class="stroked-text"><desc>6</desc>
<path d="M112575 78068
L112478 78068
L112429 78093
L112405 78117
L112356 78190
L112332 78288
L112332 78483
L112356 78532
L112380 78556
L112429 78580
L112527 78580
L112575 78556
L112600 78532
L112624 78483
L112624 78361
L112600 78312
L112575 78288
L112527 78263
L112429 78263
L112380 78288
L112356 78312
L112332 78361
" />
</g><path d="M3937 23622
L4724 23622
" />
<path d="M3937 43307
L4724 43307
" />
<path d="M3937 62992
L4724 62992
" />
<text x="4330.708661" y="14035.433071"
textLength="498.700787" font-size="682.401575" lengthAdjust="spacingAndGlyphs"
text-anchor="middle" opacity="0">A</text>
<g class="stroked-text"><desc>A</desc>
<path d="M4208 13864
L4452 13864
" />
<path d="M4160 14011
L4330 13499
L4501 14011
" />
</g><text x="4330.708661" y="33720.472441"
textLength="571.811024" font-size="682.401575" lengthAdjust="spacingAndGlyphs"
text-anchor="middle" opacity="0">B</text>
<g class="stroked-text"><desc>B</desc>
<path d="M4367 33427
L4440 33452
L4464 33476
L4489 33525
L4489 33598
L4464 33647
L4440 33671
L4391 33696
L4196 33696
L4196 33184
L4367 33184
L4415 33208
L4440 33233
L4464 33281
L4464 33330
L4440 33379
L4415 33403
L4367 33427
L4196 33427
" />
</g><text x="4330.708661" y="53405.511811"
textLength="571.811024" font-size="682.401575" lengthAdjust="spacingAndGlyphs"
text-anchor="middle" opacity="0">C</text>
<g class="stroked-text"><desc>C</desc>
<path d="M4489 53332
L4464 53356
L4391 53381
L4342 53381
L4269 53356
L4221 53307
L4196 53259
L4172 53161
L4172 53088
L4196 52991
L4221 52942
L4269 52893
L4342 52869
L4391 52869
L4464 52893
L4489 52918
" />
</g><text x="4330.708661" y="73090.551181"
textLength="571.811024" font-size="682.401575" lengthAdjust="spacingAndGlyphs"
text-anchor="middle" opacity="0">D</text>
<g class="stroked-text"><desc>D</desc>
<path d="M4196 73066
L4196 72554
L4318 72554
L4391 72578
L4440 72627
L4464 72676
L4489 72773
L4489 72846
L4464 72944
L4440 72993
L4391 73041
L4318 73066
L4196 73066
" />
</g><path d="M112992 23622
L112205 23622
" />
<path d="M112992 43307
L112205 43307
" />
<path d="M112992 62992
L112205 62992
" />
<text x="112599.291339" y="14035.433071"
textLength="498.700787" font-size="682.401575" lengthAdjust="spacingAndGlyphs"
text-anchor="middle" opacity="0">A</text>
<g class="stroked-text"><desc>A</desc>
<path d="M112477 13864
L112721 13864
" />
<path d="M112428 14011
L112599 13499
L112769 14011
" />
</g><text x="112599.291339" y="33720.472441"
textLength="571.811024" font-size="682.401575" lengthAdjust="spacingAndGlyphs"
text-anchor="middle" opacity="0">B</text>
<g class="stroked-text"><desc>B</desc>
<path d="M112635 33427
L112708 33452
L112733 33476
L112757 33525
L112757 33598
L112733 33647
L112708 33671
L112660 33696
L112465 33696
L112465 33184
L112635 33184
L112684 33208
L112708 33233
L112733 33281
L112733 33330
L112708 33379
L112684 33403
L112635 33427
L112465 33427
" />
</g><text x="112599.291339" y="53405.511811"
textLength="571.811024" font-size="682.401575" lengthAdjust="spacingAndGlyphs"
text-anchor="middle" opacity="0">C</text>
<g class="stroked-text"><desc>C</desc>
<path d="M112757 53332
L112733 53356
L112660 53381
L112611 53381
L112538 53356
L112489 53307
L112465 53259
L112440 53161
L112440 53088
L112465 52991
L112489 52942
L112538 52893
L112611 52869
L112660 52869
L112733 52893
L112757 52918
" />
</g><text x="112599.291339" y="73090.551181"
textLength="571.811024" font-size="682.401575" lengthAdjust="spacingAndGlyphs"
text-anchor="middle" opacity="0">D</text>
<g class="stroked-text"><desc>D</desc>
<path d="M112465 73066
L112465 72554
L112587 72554
L112660 72578
L112708 72627
L112733 72676
L112757 72773
L112757 72846
L112733 72944
L112708 72993
L112660 73041
L112587 73066
L112465 73066
" />
</g><text x="78741.023622" y="76321.732283"
textLength="8721.417323" font-size="787.401575" lengthAdjust="spacingAndGlyphs"
text-anchor="start" opacity="0">Date: 2021-06-05</text>
<g class="stroked-text"><desc>Date: 2021-06-05</desc>
<path d="M78911 76293
L78911 75703
L79052 75703
L79136 75731
L79192 75787
L79220 75843
L79249 75956
L79249 76040
L79220 76152
L79192 76209
L79136 76265
L79052 76293
L78911 76293
" />
<path d="M79755 76293
L79755 75984
L79727 75928
L79670 75899
L79558 75899
L79502 75928
" />
<path d="M79755 76265
L79699 76293
L79558 76293
L79502 76265
L79474 76209
L79474 76152
L79502 76096
L79558 76068
L79699 76068
L79755 76040
" />
<path d="M79952 75899
L80177 75899
" />
<path d="M80036 75703
L80036 76209
L80064 76265
L80120 76293
L80177 76293
" />
<path d="M80598 76265
L80542 76293
L80430 76293
L80373 76265
L80345 76209
L80345 75984
L80373 75928
L80430 75899
L80542 75899
L80598 75928
L80627 75984
L80627 76040
L80345 76096
" />
<path d="M80880 76237
L80908 76265
L80880 76293
L80852 76265
L80880 76237
L80880 76293
" />
<path d="M80880 75928
L80908 75956
L80880 75984
L80852 75956
L80880 75928
L80880 75984
" />
<path d="M81583 75759
L81611 75731
L81667 75703
L81808 75703
L81864 75731
L81892 75759
L81920 75815
L81920 75871
L81892 75956
L81555 76293
L81920 76293
" />
<path d="M82286 75703
L82342 75703
L82398 75731
L82426 75759
L82454 75815
L82483 75928
L82483 76068
L82454 76181
L82426 76237
L82398 76265
L82342 76293
L82286 76293
L82229 76265
L82201 76237
L82173 76181
L82145 76068
L82145 75928
L82173 75815
L82201 75759
L82229 75731
L82286 75703
" />
<path d="M82708 75759
L82736 75731
L82792 75703
L82932 75703
L82989 75731
L83017 75759
L83045 75815
L83045 75871
L83017 75956
L82679 76293
L83045 76293
" />
<path d="M83607 76293
L83270 76293
" />
<path d="M83439 76293
L83439 75703
L83382 75787
L83326 75843
L83270 75871
" />
<path d="M83860 76068
L84310 76068
" />
<path d="M84704 75703
L84760 75703
L84817 75731
L84845 75759
L84873 75815
L84901 75928
L84901 76068
L84873 76181
L84845 76237
L84817 76265
L84760 76293
L84704 76293
L84648 76265
L84620 76237
L84592 76181
L84564 76068
L84564 75928
L84592 75815
L84620 75759
L84648 75731
L84704 75703
" />
<path d="M85407 75703
L85295 75703
L85238 75731
L85210 75759
L85154 75843
L85126 75956
L85126 76181
L85154 76237
L85182 76265
L85238 76293
L85351 76293
L85407 76265
L85435 76237
L85463 76181
L85463 76040
L85435 75984
L85407 75956
L85351 75928
L85238 75928
L85182 75956
L85154 75984
L85126 76040
" />
<path d="M85717 76068
L86166 76068
" />
<path d="M86560 75703
L86616 75703
L86673 75731
L86701 75759
L86729 75815
L86757 75928
L86757 76068
L86729 76181
L86701 76237
L86673 76265
L86616 76293
L86560 76293
L86504 76265
L86476 76237
L86448 76181
L86420 76068
L86420 75928
L86448 75815
L86476 75759
L86504 75731
L86560 75703
" />
<path d="M87291 75703
L87010 75703
L86982 75984
L87010 75956
L87066 75928
L87207 75928
L87263 75956
L87291 75984
L87319 76040
L87319 76181
L87291 76237
L87263 76265
L87207 76293
L87066 76293
L87010 76265
L86982 76237
" />
</g><path d="M69685 76577
L112205 76577
" />
<text x="70079.606299" y="77424.094488"
textLength="26550.433071" font-size="787.401575" lengthAdjust="spacingAndGlyphs"
text-anchor="start" opacity="0">KiCad E.D.A.  kicad 6.0.1-79c1e3a40b~116~ubuntu20.04.1</text>
<g class="stroked-text"><desc>KiCad E.D.A.  kicad 6.0.1-79c1e3a40b~116~ubuntu20.04.1</desc>
<path d="M70250 77395
L70250 76805
" />
<path d="M70587 77395
L70334 77058
" />
<path d="M70587 76805
L70250 77142
" />
<path d="M70840 77395
L70840 77002
" />
<path d="M70840 76805
L70812 76833
L70840 76861
L70868 76833
L70840 76805
L70840 76861
" />
<path d="M71459 77339
L71431 77367
L71346 77395
L71290 77395
L71206 77367
L71150 77311
L71121 77255
L71093 77142
L71093 77058
L71121 76946
L71150 76889
L71206 76833
L71290 76805
L71346 76805
L71431 76833
L71459 76861
" />
<path d="M71965 77395
L71965 77086
L71937 77030
L71881 77002
L71768 77002
L71712 77030
" />
<path d="M71965 77367
L71909 77395
L71768 77395
L71712 77367
L71684 77311
L71684 77255
L71712 77199
L71768 77170
L71909 77170
L71965 77142
" />
<path d="M72499 77395
L72499 76805
" />
<path d="M72499 77367
L72443 77395
L72331 77395
L72274 77367
L72246 77339
L72218 77283
L72218 77114
L72246 77058
L72274 77030
L72331 77002
L72443 77002
L72499 77030
" />
<path d="M73231 77086
L73427 77086
" />
<path d="M73512 77395
L73231 77395
L73231 76805
L73512 76805
" />
<path d="M73765 77339
L73793 77367
L73765 77395
L73737 77367
L73765 77339
L73765 77395
" />
<path d="M74046 77395
L74046 76805
L74187 76805
L74271 76833
L74327 76889
L74355 76946
L74384 77058
L74384 77142
L74355 77255
L74327 77311
L74271 77367
L74187 77395
L74046 77395
" />
<path d="M74637 77339
L74665 77367
L74637 77395
L74609 77367
L74637 77339
L74637 77395
" />
<path d="M74890 77227
L75171 77227
" />
<path d="M74834 77395
L75030 76805
L75227 77395
" />
<path d="M75424 77339
L75452 77367
L75424 77395
L75396 77367
L75424 77339
L75424 77395
" />
<path d="M76605 77395
L76605 76805
" />
<path d="M76661 77170
L76830 77395
" />
<path d="M76830 77002
L76605 77227
" />
<path d="M77083 77395
L77083 77002
" />
<path d="M77083 76805
L77055 76833
L77083 76861
L77111 76833
L77083 76805
L77083 76861
" />
<path d="M77618 77367
L77561 77395
L77449 77395
L77393 77367
L77364 77339
L77336 77283
L77336 77114
L77364 77058
L77393 77030
L77449 77002
L77561 77002
L77618 77030
" />
<path d="M78124 77395
L78124 77086
L78096 77030
L78039 77002
L77927 77002
L77871 77030
" />
<path d="M78124 77367
L78067 77395
L77927 77395
L77871 77367
L77842 77311
L77842 77255
L77871 77199
L77927 77170
L78067 77170
L78124 77142
" />
<path d="M78658 77395
L78658 76805
" />
<path d="M78658 77367
L78602 77395
L78489 77395
L78433 77367
L78405 77339
L78377 77283
L78377 77114
L78405 77058
L78433 77030
L78489 77002
L78602 77002
L78658 77030
" />
<path d="M79642 76805
L79530 76805
L79474 76833
L79445 76861
L79389 76946
L79361 77058
L79361 77283
L79389 77339
L79417 77367
L79474 77395
L79586 77395
L79642 77367
L79670 77339
L79699 77283
L79699 77142
L79670 77086
L79642 77058
L79586 77030
L79474 77030
L79417 77058
L79389 77086
L79361 77142
" />
<path d="M79952 77339
L79980 77367
L79952 77395
L79923 77367
L79952 77339
L79952 77395
" />
<path d="M80345 76805
L80402 76805
L80458 76833
L80486 76861
L80514 76917
L80542 77030
L80542 77170
L80514 77283
L80486 77339
L80458 77367
L80402 77395
L80345 77395
L80289 77367
L80261 77339
L80233 77283
L80205 77170
L80205 77030
L80233 76917
L80261 76861
L80289 76833
L80345 76805
" />
<path d="M80795 77339
L80823 77367
L80795 77395
L80767 77367
L80795 77339
L80795 77395
" />
<path d="M81386 77395
L81048 77395
" />
<path d="M81217 77395
L81217 76805
L81161 76889
L81105 76946
L81048 76974
" />
<path d="M81639 77170
L82089 77170
" />
<path d="M82314 76805
L82708 76805
L82454 77395
" />
<path d="M82961 77395
L83073 77395
L83129 77367
L83157 77339
L83214 77255
L83242 77142
L83242 76917
L83214 76861
L83186 76833
L83129 76805
L83017 76805
L82961 76833
L82932 76861
L82904 76917
L82904 77058
L82932 77114
L82961 77142
L83017 77170
L83129 77170
L83186 77142
L83214 77114
L83242 77058
" />
<path d="M83748 77367
L83692 77395
L83579 77395
L83523 77367
L83495 77339
L83467 77283
L83467 77114
L83495 77058
L83523 77030
L83579 77002
L83692 77002
L83748 77030
" />
<path d="M84310 77395
L83973 77395
" />
<path d="M84142 77395
L84142 76805
L84085 76889
L84029 76946
L83973 76974
" />
<path d="M84789 77367
L84732 77395
L84620 77395
L84564 77367
L84535 77311
L84535 77086
L84564 77030
L84620 77002
L84732 77002
L84789 77030
L84817 77086
L84817 77142
L84535 77199
" />
<path d="M85013 76805
L85379 76805
L85182 77030
L85267 77030
L85323 77058
L85351 77086
L85379 77142
L85379 77283
L85351 77339
L85323 77367
L85267 77395
L85098 77395
L85042 77367
L85013 77339
" />
<path d="M85885 77395
L85885 77086
L85857 77030
L85801 77002
L85688 77002
L85632 77030
" />
<path d="M85885 77367
L85829 77395
L85688 77395
L85632 77367
L85604 77311
L85604 77255
L85632 77199
L85688 77170
L85829 77170
L85885 77142
" />
<path d="M86420 77002
L86420 77395
" />
<path d="M86279 76777
L86138 77199
L86504 77199
" />
<path d="M86841 76805
L86898 76805
L86954 76833
L86982 76861
L87010 76917
L87038 77030
L87038 77170
L87010 77283
L86982 77339
L86954 77367
L86898 77395
L86841 77395
L86785 77367
L86757 77339
L86729 77283
L86701 77170
L86701 77030
L86729 76917
L86757 76861
L86785 76833
L86841 76805
" />
<path d="M87291 77395
L87291 76805
" />
<path d="M87291 77030
L87348 77002
L87460 77002
L87516 77030
L87544 77058
L87573 77114
L87573 77283
L87544 77339
L87516 77367
L87460 77395
L87348 77395
L87291 77367
" />
<path d="M87741 77170
L87769 77142
L87826 77114
L87938 77170
L87994 77142
L88022 77114
" />
<path d="M88557 77395
L88219 77395
" />
<path d="M88388 77395
L88388 76805
L88332 76889
L88276 76946
L88219 76974
" />
<path d="M89119 77395
L88782 77395
" />
<path d="M88950 77395
L88950 76805
L88894 76889
L88838 76946
L88782 76974
" />
<path d="M89625 76805
L89513 76805
L89457 76833
L89429 76861
L89372 76946
L89344 77058
L89344 77283
L89372 77339
L89400 77367
L89457 77395
L89569 77395
L89625 77367
L89654 77339
L89682 77283
L89682 77142
L89654 77086
L89625 77058
L89569 77030
L89457 77030
L89400 77058
L89372 77086
L89344 77142
" />
<path d="M89850 77170
L89878 77142
L89935 77114
L90047 77170
L90103 77142
L90132 77114
" />
<path d="M90610 77002
L90610 77395
" />
<path d="M90357 77002
L90357 77311
L90385 77367
L90441 77395
L90525 77395
L90582 77367
L90610 77339
" />
<path d="M90891 77395
L90891 76805
" />
<path d="M90891 77030
L90947 77002
L91060 77002
L91116 77030
L91144 77058
L91172 77114
L91172 77283
L91144 77339
L91116 77367
L91060 77395
L90947 77395
L90891 77367
" />
<path d="M91678 77002
L91678 77395
" />
<path d="M91425 77002
L91425 77311
L91453 77367
L91510 77395
L91594 77395
L91650 77367
L91678 77339
" />
<path d="M91959 77002
L91959 77395
" />
<path d="M91959 77058
L91988 77030
L92044 77002
L92128 77002
L92184 77030
L92213 77086
L92213 77395
" />
<path d="M92409 77002
L92634 77002
" />
<path d="M92494 76805
L92494 77311
L92522 77367
L92578 77395
L92634 77395
" />
<path d="M93084 77002
L93084 77395
" />
<path d="M92831 77002
L92831 77311
L92859 77367
L92916 77395
L93000 77395
L93056 77367
L93084 77339
" />
<path d="M93337 76861
L93366 76833
L93422 76805
L93562 76805
L93619 76833
L93647 76861
L93675 76917
L93675 76974
L93647 77058
L93309 77395
L93675 77395
" />
<path d="M94040 76805
L94097 76805
L94153 76833
L94181 76861
L94209 76917
L94237 77030
L94237 77170
L94209 77283
L94181 77339
L94153 77367
L94097 77395
L94040 77395
L93984 77367
L93956 77339
L93928 77283
L93900 77170
L93900 77030
L93928 76917
L93956 76861
L93984 76833
L94040 76805
" />
<path d="M94490 77339
L94519 77367
L94490 77395
L94462 77367
L94490 77339
L94490 77395
" />
<path d="M94884 76805
L94940 76805
L94997 76833
L95025 76861
L95053 76917
L95081 77030
L95081 77170
L95053 77283
L95025 77339
L94997 77367
L94940 77395
L94884 77395
L94828 77367
L94800 77339
L94772 77283
L94744 77170
L94744 77030
L94772 76917
L94800 76861
L94828 76833
L94884 76805
" />
<path d="M95587 77002
L95587 77395
" />
<path d="M95447 76777
L95306 77199
L95672 77199
" />
<path d="M95896 77339
L95925 77367
L95896 77395
L95868 77367
L95896 77339
L95896 77395
" />
<path d="M96487 77395
L96150 77395
" />
<path d="M96318 77395
L96318 76805
L96262 76889
L96206 76946
L96150 76974
" />
</g><path d="M69685 75396
L112205 75396
" />
</g>
<g style="fill:#840000; fill-opacity:0.0; 
stroke:#840000; stroke-width:118.110236; stroke-opacity:1; 
stroke-linecap:round; stroke-linejoin:round;">
<text x="103544.173228" y="76321.732283"
textLength="2928.385827" font-size="787.401575" lengthAdjust="spacingAndGlyphs"
text-anchor="start" opacity="0">Rev: B</text>
<g class="stroked-text"><desc>Rev: B</desc>
<path d="M104098 76293
L103902 76012
" />
<path d="M103761 76293
L103761 75703
L103986 75703
L104042 75731
L104070 75759
L104098 75815
L104098 75899
L104070 75956
L104042 75984
L103986 76012
L103761 76012
" />
<path d="M104577 76265
L104520 76293
L104408 76293
L104352 76265
L104323 76209
L104323 75984
L104352 75928
L104408 75899
L104520 75899
L104577 75928
L104605 75984
L104605 76040
L104323 76096
" />
<path d="M104802 75899
L104942 76293
L105083 75899
" />
<path d="M105308 76237
L105336 76265
L105308 76293
L105280 76265
L105308 76237
L105308 76293
" />
<path d="M105308 75928
L105336 75956
L105308 75984
L105280 75956
L105308 75928
L105308 75984
" />
<path d="M106236 75984
L106320 76012
L106348 76040
L106376 76096
L106376 76181
L106348 76237
L106320 76265
L106264 76293
L106039 76293
L106039 75703
L106236 75703
L106292 75731
L106320 75759
L106348 75815
L106348 75871
L106320 75928
L106292 75956
L106236 75984
L106039 75984
" />
</g></g>
<g style="fill:#840000; fill-opacity:0.0; 
stroke:#840000; stroke-width:60.000000; stroke-opacity:1; 
stroke-linecap:round; stroke-linejoin:round;">
<text x="70079.606299" y="76321.732283"
textLength="3781.220472" font-size="787.401575" lengthAdjust="spacingAndGlyphs"
text-anchor="start" opacity="0">Size: A4</text>
<g class="stroked-text"><desc>Size: A4</desc>
<path d="M70222 76265
L70306 76293
L70447 76293
L70503 76265
L70531 76237
L70559 76181
L70559 76124
L70531 76068
L70503 76040
L70447 76012
L70334 75984
L70278 75956
L70250 75928
L70222 75871
L70222 75815
L70250 75759
L70278 75731
L70334 75703
L70475 75703
L70559 75731
" />
<path d="M70812 76293
L70812 75899
" />
<path d="M70812 75703
L70784 75731
L70812 75759
L70840 75731
L70812 75703
L70812 75759
" />
<path d="M71037 75899
L71346 75899
L71037 76293
L71346 76293
" />
<path d="M71796 76265
L71740 76293
L71628 76293
L71571 76265
L71543 76209
L71543 75984
L71571 75928
L71628 75899
L71740 75899
L71796 75928
L71825 75984
L71825 76040
L71543 76096
" />
<path d="M72078 76237
L72106 76265
L72078 76293
L72049 76265
L72078 76237
L72078 76293
" />
<path d="M72078 75928
L72106 75956
L72078 75984
L72049 75956
L72078 75928
L72078 75984
" />
<path d="M72781 76124
L73062 76124
" />
<path d="M72724 76293
L72921 75703
L73118 76293
" />
<path d="M73568 75899
L73568 76293
" />
<path d="M73427 75674
L73287 76096
L73652 76096
" />
</g><text x="103544.173228" y="77424.094488"
textLength="3912.637795" font-size="787.401575" lengthAdjust="spacingAndGlyphs"
text-anchor="start" opacity="0">Id: 2/46</text>
<g class="stroked-text"><desc>Id: 2/46</desc>
<path d="M103714 77395
L103714 76805
" />
<path d="M104249 77395
L104249 76805
" />
<path d="M104249 77367
L104192 77395
L104080 77395
L104024 77367
L103995 77339
L103967 77283
L103967 77114
L103995 77058
L104024 77030
L104080 77002
L104192 77002
L104249 77030
" />
<path d="M104530 77339
L104558 77367
L104530 77395
L104502 77367
L104530 77339
L104530 77395
" />
<path d="M104530 77030
L104558 77058
L104530 77086
L104502 77058
L104530 77030
L104530 77086
" />
<path d="M105233 76861
L105261 76833
L105317 76805
L105458 76805
L105514 76833
L105542 76861
L105570 76917
L105570 76974
L105542 77058
L105205 77395
L105570 77395
" />
<path d="M106245 76777
L105739 77536
" />
<path d="M106695 77002
L106695 77395
" />
<path d="M106555 76777
L106414 77199
L106780 77199
" />
<path d="M107258 76805
L107145 76805
L107089 76833
L107061 76861
L107004 76946
L106976 77058
L106976 77283
L107004 77339
L107033 77367
L107089 77395
L107201 77395
L107258 77367
L107286 77339
L107314 77283
L107314 77142
L107286 77086
L107258 77058
L107201 77030
L107089 77030
L107033 77058
L107004 77086
L106976 77142
" />
</g><path d="M69685 73821
L112205 73821
" />
</g>
<g style="fill:#840000; fill-opacity:0.0; 
stroke:#840000; stroke-width:157.480315; stroke-opacity:1; 
stroke-linecap:round; stroke-linejoin:round;">
<text x="70079.606299" y="74924.094488"
textLength="13829.251969" font-size="1049.842520" lengthAdjust="spacingAndGlyphs"
text-anchor="start" opacity="0">Title: Debug Connector</text>
<g class="stroked-text"><desc>Title: Debug Connector</desc>
<path d="M70360 74099
L70810 74099
" />
<path d="M70486 74886
L70585 74099
" />
<path d="M70974 74886
L71039 74361
" />
<path d="M71072 74099
L71030 74136
L71063 74174
L71105 74136
L71072 74099
L71063 74174
" />
<path d="M71302 74361
L71602 74361
" />
<path d="M71447 74099
L71363 74774
L71391 74849
L71461 74886
L71536 74886
" />
<path d="M71911 74886
L71841 74849
L71812 74774
L71897 74099
" />
<path d="M72516 74849
L72436 74886
L72286 74886
L72216 74849
L72187 74774
L72225 74474
L72272 74399
L72352 74361
L72501 74361
L72572 74399
L72600 74474
L72591 74549
L72206 74624
" />
<path d="M72895 74811
L72928 74849
L72886 74886
L72853 74849
L72895 74811
L72886 74886
" />
<path d="M72947 74399
L72980 74436
L72937 74474
L72905 74436
L72947 74399
L72937 74474
" />
<path d="M73861 74886
L73959 74099
L74147 74099
L74254 74136
L74320 74211
L74348 74286
L74367 74436
L74353 74549
L74297 74699
L74250 74774
L74165 74849
L74048 74886
L73861 74886
" />
<path d="M74953 74849
L74873 74886
L74723 74886
L74653 74849
L74625 74774
L74662 74474
L74709 74399
L74789 74361
L74939 74361
L75009 74399
L75037 74474
L75028 74549
L74643 74624
" />
<path d="M75323 74886
L75421 74099
" />
<path d="M75384 74399
L75464 74361
L75614 74361
L75684 74399
L75717 74436
L75745 74511
L75717 74736
L75670 74811
L75628 74849
L75548 74886
L75398 74886
L75328 74849
" />
<path d="M76438 74361
L76373 74886
" />
<path d="M76101 74361
L76049 74774
L76078 74849
L76148 74886
L76260 74886
L76340 74849
L76382 74811
" />
<path d="M77151 74361
L77071 74999
L77024 75074
L76982 75111
L76902 75149
L76790 75149
L76720 75111
" />
<path d="M77090 74849
L77010 74886
L76860 74886
L76790 74849
L76757 74811
L76729 74736
L76757 74511
L76804 74436
L76846 74399
L76926 74361
L77076 74361
L77146 74399
" />
<path d="M78519 74811
L78477 74849
L78360 74886
L78285 74886
L78177 74849
L78112 74774
L78084 74699
L78065 74549
L78079 74436
L78135 74286
L78182 74211
L78266 74136
L78384 74099
L78459 74099
L78566 74136
L78599 74174
" />
<path d="M78960 74886
L78890 74849
L78857 74811
L78829 74736
L78857 74511
L78904 74436
L78946 74399
L79026 74361
L79138 74361
L79208 74399
L79241 74436
L79269 74511
L79241 74736
L79194 74811
L79152 74849
L79073 74886
L78960 74886
" />
<path d="M79626 74361
L79560 74886
" />
<path d="M79616 74436
L79658 74399
L79738 74361
L79851 74361
L79921 74399
L79949 74474
L79897 74886
" />
<path d="M80338 74361
L80272 74886
" />
<path d="M80329 74436
L80371 74399
L80450 74361
L80563 74361
L80633 74399
L80661 74474
L80610 74886
" />
<path d="M81289 74849
L81210 74886
L81060 74886
L80989 74849
L80961 74774
L80999 74474
L81046 74399
L81125 74361
L81275 74361
L81346 74399
L81374 74474
L81364 74549
L80980 74624
" />
<path d="M82002 74849
L81922 74886
L81772 74886
L81702 74849
L81669 74811
L81641 74736
L81669 74511
L81716 74436
L81758 74399
L81838 74361
L81988 74361
L82058 74399
" />
<path d="M82288 74361
L82588 74361
" />
<path d="M82433 74099
L82349 74774
L82377 74849
L82447 74886
L82522 74886
" />
<path d="M82897 74886
L82827 74849
L82794 74811
L82766 74736
L82794 74511
L82841 74436
L82883 74399
L82963 74361
L83075 74361
L83145 74399
L83178 74436
L83206 74511
L83178 74736
L83131 74811
L83089 74849
L83010 74886
L82897 74886
" />
<path d="M83497 74886
L83563 74361
" />
<path d="M83544 74511
L83591 74436
L83633 74399
L83713 74361
L83788 74361
" />
</g></g>
<g style="fill:#840000; fill-opacity:0.0; 
stroke:#840000; stroke-width:60.000000; stroke-opacity:1; 
stroke-linecap:round; stroke-linejoin:round;">
<text x="70079.606299" y="73408.346457"
textLength="13253.110236" font-size="787.401575" lengthAdjust="spacingAndGlyphs"
text-anchor="start" opacity="0">File: 10PinARMSWD.kicad_sch</text>
<g class="stroked-text"><desc>File: 10PinARMSWD.kicad_sch</desc>
<path d="M70447 73070
L70250 73070
" />
<path d="M70250 73380
L70250 72789
L70531 72789
" />
<path d="M70756 73380
L70756 72986
" />
<path d="M70756 72789
L70728 72817
L70756 72845
L70784 72817
L70756 72789
L70756 72845
" />
<path d="M71121 73380
L71065 73352
L71037 73295
L71037 72789
" />
<path d="M71571 73352
L71515 73380
L71403 73380
L71346 73352
L71318 73295
L71318 73070
L71346 73014
L71403 72986
L71515 72986
L71571 73014
L71600 73070
L71600 73127
L71318 73183
" />
<path d="M71853 73323
L71881 73352
L71853 73380
L71825 73352
L71853 73323
L71853 73380
" />
<path d="M71853 73014
L71881 73042
L71853 73070
L71825 73042
L71853 73014
L71853 73070
" />
<path d="M72893 73380
L72556 73380
" />
<path d="M72724 73380
L72724 72789
L72668 72874
L72612 72930
L72556 72958
" />
<path d="M73259 72789
L73315 72789
L73371 72817
L73399 72845
L73427 72902
L73456 73014
L73456 73155
L73427 73267
L73399 73323
L73371 73352
L73315 73380
L73259 73380
L73202 73352
L73174 73323
L73146 73267
L73118 73155
L73118 73014
L73146 72902
L73174 72845
L73202 72817
L73259 72789
" />
<path d="M73709 73380
L73709 72789
L73934 72789
L73990 72817
L74018 72845
L74046 72902
L74046 72986
L74018 73042
L73990 73070
L73934 73098
L73709 73098
" />
<path d="M74299 73380
L74299 72986
" />
<path d="M74299 72789
L74271 72817
L74299 72845
L74327 72817
L74299 72789
L74299 72845
" />
<path d="M74580 72986
L74580 73380
" />
<path d="M74580 73042
L74609 73014
L74665 72986
L74749 72986
L74805 73014
L74834 73070
L74834 73380
" />
<path d="M75087 73211
L75368 73211
" />
<path d="M75030 73380
L75227 72789
L75424 73380
" />
<path d="M75958 73380
L75762 73098
" />
<path d="M75621 73380
L75621 72789
L75846 72789
L75902 72817
L75930 72845
L75958 72902
L75958 72986
L75930 73042
L75902 73070
L75846 73098
L75621 73098
" />
<path d="M76211 73380
L76211 72789
L76408 73211
L76605 72789
L76605 73380
" />
<path d="M76858 73352
L76943 73380
L77083 73380
L77139 73352
L77168 73323
L77196 73267
L77196 73211
L77168 73155
L77139 73127
L77083 73098
L76971 73070
L76915 73042
L76886 73014
L76858 72958
L76858 72902
L76886 72845
L76915 72817
L76971 72789
L77111 72789
L77196 72817
" />
<path d="M77393 72789
L77533 73380
L77646 72958
L77758 73380
L77899 72789
" />
<path d="M78124 73380
L78124 72789
L78264 72789
L78349 72817
L78405 72874
L78433 72930
L78461 73042
L78461 73127
L78433 73239
L78405 73295
L78349 73352
L78264 73380
L78124 73380
" />
<path d="M78714 73323
L78742 73352
L78714 73380
L78686 73352
L78714 73323
L78714 73380
" />
<path d="M78995 73380
L78995 72789
" />
<path d="M79052 73155
L79220 73380
" />
<path d="M79220 72986
L78995 73211
" />
<path d="M79474 73380
L79474 72986
" />
<path d="M79474 72789
L79445 72817
L79474 72845
L79502 72817
L79474 72789
L79474 72845
" />
<path d="M80008 73352
L79952 73380
L79839 73380
L79783 73352
L79755 73323
L79727 73267
L79727 73098
L79755 73042
L79783 73014
L79839 72986
L79952 72986
L80008 73014
" />
<path d="M80514 73380
L80514 73070
L80486 73014
L80430 72986
L80317 72986
L80261 73014
" />
<path d="M80514 73352
L80458 73380
L80317 73380
L80261 73352
L80233 73295
L80233 73239
L80261 73183
L80317 73155
L80458 73155
L80514 73127
" />
<path d="M81048 73380
L81048 72789
" />
<path d="M81048 73352
L80992 73380
L80880 73380
L80823 73352
L80795 73323
L80767 73267
L80767 73098
L80795 73042
L80823 73014
L80880 72986
L80992 72986
L81048 73014
" />
<path d="M81189 73436
L81639 73436
" />
<path d="M81751 73352
L81808 73380
L81920 73380
L81976 73352
L82004 73295
L82004 73267
L81976 73211
L81920 73183
L81836 73183
L81780 73155
L81751 73098
L81751 73070
L81780 73014
L81836 72986
L81920 72986
L81976 73014
" />
<path d="M82511 73352
L82454 73380
L82342 73380
L82286 73352
L82258 73323
L82229 73267
L82229 73098
L82258 73042
L82286 73014
L82342 72986
L82454 72986
L82511 73014
" />
<path d="M82764 73380
L82764 72789
" />
<path d="M83017 73380
L83017 73070
L82989 73014
L82932 72986
L82848 72986
L82792 73014
L82764 73042
" />
</g><path d="M69685 71459
L112205 71459
" />
<text x="70079.606299" y="72345.354331"
textLength="13108.385827" font-size="787.401575" lengthAdjust="spacingAndGlyphs"
text-anchor="start" opacity="0">Sheet: /MCU/10PinARMSWD/</text>
<g class="stroked-text"><desc>Sheet: /MCU/10PinARMSWD/</desc>
<path d="M70222 72289
L70306 72317
L70447 72317
L70503 72289
L70531 72260
L70559 72204
L70559 72148
L70531 72092
L70503 72064
L70447 72035
L70334 72007
L70278 71979
L70250 71951
L70222 71895
L70222 71839
L70250 71782
L70278 71754
L70334 71726
L70475 71726
L70559 71754
" />
<path d="M70812 72317
L70812 71726
" />
<path d="M71065 72317
L71065 72007
L71037 71951
L70981 71923
L70897 71923
L70840 71951
L70812 71979
" />
<path d="M71571 72289
L71515 72317
L71403 72317
L71346 72289
L71318 72232
L71318 72007
L71346 71951
L71403 71923
L71515 71923
L71571 71951
L71600 72007
L71600 72064
L71318 72120
" />
<path d="M72078 72289
L72021 72317
L71909 72317
L71853 72289
L71825 72232
L71825 72007
L71853 71951
L71909 71923
L72021 71923
L72078 71951
L72106 72007
L72106 72064
L71825 72120
" />
<path d="M72274 71923
L72499 71923
" />
<path d="M72359 71726
L72359 72232
L72387 72289
L72443 72317
L72499 72317
" />
<path d="M72696 72260
L72724 72289
L72696 72317
L72668 72289
L72696 72260
L72696 72317
" />
<path d="M72696 71951
L72724 71979
L72696 72007
L72668 71979
L72696 71951
L72696 72007
" />
<path d="M73849 71698
L73343 72457
" />
<path d="M74046 72317
L74046 71726
L74243 72148
L74440 71726
L74440 72317
" />
<path d="M75058 72260
L75030 72289
L74946 72317
L74890 72317
L74805 72289
L74749 72232
L74721 72176
L74693 72064
L74693 71979
L74721 71867
L74749 71811
L74805 71754
L74890 71726
L74946 71726
L75030 71754
L75058 71782
" />
<path d="M75312 71726
L75312 72204
L75340 72260
L75368 72289
L75424 72317
L75537 72317
L75593 72289
L75621 72260
L75649 72204
L75649 71726
" />
<path d="M76352 71698
L75846 72457
" />
<path d="M76858 72317
L76521 72317
" />
<path d="M76690 72317
L76690 71726
L76633 71811
L76577 71867
L76521 71895
" />
<path d="M77224 71726
L77280 71726
L77336 71754
L77364 71782
L77393 71839
L77421 71951
L77421 72092
L77393 72204
L77364 72260
L77336 72289
L77280 72317
L77224 72317
L77168 72289
L77139 72260
L77111 72204
L77083 72092
L77083 71951
L77111 71839
L77139 71782
L77168 71754
L77224 71726
" />
<path d="M77674 72317
L77674 71726
L77899 71726
L77955 71754
L77983 71782
L78011 71839
L78011 71923
L77983 71979
L77955 72007
L77899 72035
L77674 72035
" />
<path d="M78264 72317
L78264 71923
" />
<path d="M78264 71726
L78236 71754
L78264 71782
L78292 71754
L78264 71726
L78264 71782
" />
<path d="M78546 71923
L78546 72317
" />
<path d="M78546 71979
L78574 71951
L78630 71923
L78714 71923
L78771 71951
L78799 72007
L78799 72317
" />
<path d="M79052 72148
L79333 72148
" />
<path d="M78995 72317
L79192 71726
L79389 72317
" />
<path d="M79923 72317
L79727 72035
" />
<path d="M79586 72317
L79586 71726
L79811 71726
L79867 71754
L79895 71782
L79923 71839
L79923 71923
L79895 71979
L79867 72007
L79811 72035
L79586 72035
" />
<path d="M80177 72317
L80177 71726
L80373 72148
L80570 71726
L80570 72317
" />
<path d="M80823 72289
L80908 72317
L81048 72317
L81105 72289
L81133 72260
L81161 72204
L81161 72148
L81133 72092
L81105 72064
L81048 72035
L80936 72007
L80880 71979
L80852 71951
L80823 71895
L80823 71839
L80852 71782
L80880 71754
L80936 71726
L81076 71726
L81161 71754
" />
<path d="M81358 71726
L81498 72317
L81611 71895
L81723 72317
L81864 71726
" />
<path d="M82089 72317
L82089 71726
L82229 71726
L82314 71754
L82370 71811
L82398 71867
L82426 71979
L82426 72064
L82398 72176
L82370 72232
L82314 72289
L82229 72317
L82089 72317
" />
<path d="M83101 71698
L82595 72457
" />
</g></g>
<g style="fill:#840000; fill-opacity:0.0; 
stroke:#840000; stroke-width:118.110236; stroke-opacity:1; 
stroke-linecap:round; stroke-linejoin:round;">
<text x="70079.606299" y="71164.251969"
textLength="9199.488189" font-size="787.401575" lengthAdjust="spacingAndGlyphs"
text-anchor="start" opacity="0">Created by C Sutton</text>
<g class="stroked-text"><desc>Created by C Sutton</desc>
<path d="M70634 71079
L70606 71107
L70521 71136
L70465 71136
L70381 71107
L70325 71051
L70296 70995
L70268 70883
L70268 70798
L70296 70686
L70325 70629
L70381 70573
L70465 70545
L70521 70545
L70606 70573
L70634 70601
" />
<path d="M70887 71136
L70887 70742
" />
<path d="M70887 70854
L70915 70798
L70943 70770
L71000 70742
L71056 70742
" />
<path d="M71478 71107
L71421 71136
L71309 71136
L71253 71107
L71224 71051
L71224 70826
L71253 70770
L71309 70742
L71421 70742
L71478 70770
L71506 70826
L71506 70883
L71224 70939
" />
<path d="M72012 71136
L72012 70826
L71984 70770
L71928 70742
L71815 70742
L71759 70770
" />
<path d="M72012 71107
L71956 71136
L71815 71136
L71759 71107
L71731 71051
L71731 70995
L71759 70939
L71815 70911
L71956 70911
L72012 70883
" />
<path d="M72209 70742
L72434 70742
" />
<path d="M72293 70545
L72293 71051
L72321 71107
L72377 71136
L72434 71136
" />
<path d="M72856 71107
L72799 71136
L72687 71136
L72631 71107
L72602 71051
L72602 70826
L72631 70770
L72687 70742
L72799 70742
L72856 70770
L72884 70826
L72884 70883
L72602 70939
" />
<path d="M73390 71136
L73390 70545
" />
<path d="M73390 71107
L73334 71136
L73221 71136
L73165 71107
L73137 71079
L73109 71023
L73109 70854
L73137 70798
L73165 70770
L73221 70742
L73334 70742
L73390 70770
" />
<path d="M74121 71136
L74121 70545
" />
<path d="M74121 70770
L74177 70742
L74290 70742
L74346 70770
L74374 70798
L74402 70854
L74402 71023
L74374 71079
L74346 71107
L74290 71136
L74177 71136
L74121 71107
" />
<path d="M74599 70742
L74740 71136
" />
<path d="M74880 70742
L74740 71136
L74683 71276
L74655 71304
L74599 71332
" />
<path d="M75893 71079
L75865 71107
L75780 71136
L75724 71136
L75640 71107
L75583 71051
L75555 70995
L75527 70883
L75527 70798
L75555 70686
L75583 70629
L75640 70573
L75724 70545
L75780 70545
L75865 70573
L75893 70601
" />
<path d="M76568 71107
L76652 71136
L76793 71136
L76849 71107
L76877 71079
L76905 71023
L76905 70967
L76877 70911
L76849 70883
L76793 70854
L76680 70826
L76624 70798
L76596 70770
L76568 70714
L76568 70658
L76596 70601
L76624 70573
L76680 70545
L76821 70545
L76905 70573
" />
<path d="M77411 70742
L77411 71136
" />
<path d="M77158 70742
L77158 71051
L77186 71107
L77242 71136
L77327 71136
L77383 71107
L77411 71079
" />
<path d="M77608 70742
L77833 70742
" />
<path d="M77692 70545
L77692 71051
L77721 71107
L77777 71136
L77833 71136
" />
<path d="M77946 70742
L78170 70742
" />
<path d="M78030 70545
L78030 71051
L78058 71107
L78114 71136
L78170 71136
" />
<path d="M78452 71136
L78395 71107
L78367 71079
L78339 71023
L78339 70854
L78367 70798
L78395 70770
L78452 70742
L78536 70742
L78592 70770
L78620 70798
L78649 70854
L78649 71023
L78620 71079
L78592 71107
L78536 71136
L78452 71136
" />
<path d="M78902 70742
L78902 71136
" />
<path d="M78902 70798
L78930 70770
L78986 70742
L79070 70742
L79127 70770
L79155 70826
L79155 71136
" />
</g></g>
<g style="fill:#840000; fill-opacity:0.0; 
stroke:#840000; stroke-width:60.000000; stroke-opacity:1; 
stroke-linecap:round; stroke-linejoin:round;">
<text x="70079.606299" y="69983.149606"
textLength="153.543307" font-size="787.401575" lengthAdjust="spacingAndGlyphs"
text-anchor="start" opacity="0"></text>
<g class="stroked-text"><desc></desc>
</g><text x="70079.606299" y="68802.047244"
textLength="60.000000" font-size="787.401575" lengthAdjust="spacingAndGlyphs"
text-anchor="start" opacity="0"></text>
<g class="stroked-text"><desc></desc>
</g><text x="70079.606299" y="67620.944882"
textLength="60.000000" font-size="787.401575" lengthAdjust="spacingAndGlyphs"
text-anchor="start" opacity="0"></text>
<g class="stroked-text"><desc></desc>
</g><text x="70079.606299" y="66439.842520"
textLength="60.000000" font-size="787.401575" lengthAdjust="spacingAndGlyphs"
text-anchor="start" opacity="0"></text>
<g class="stroked-text"><desc></desc>
</g><path d="M77559 75396
L77559 76577
" />
<path d="M102756 75396
L102756 77955
" />
<g >
<path style="fill:#840000; fill-opacity:0.0; 
stroke:#840000; stroke-width:60.000000; stroke-opacity:1; 
stroke-linecap:round; stroke-linejoin:round;fill:none"
d="M 49750.000000,39000.000000
49750.000000,39500.000000
50250.000000,39500.000000
49750.000000,40000.000000
49250.000000,39500.000000
49750.000000,39500.000000
" /> 
</g>
<g style="fill:#006464; fill-opacity:0.0; 
stroke:#006464; stroke-width:60.000000; stroke-opacity:1; 
stroke-linecap:round; stroke-linejoin:round;">
<text x="49800.000000" y="40980.000000"
textLength="2060.000000" font-size="666.653543" lengthAdjust="spacingAndGlyphs"
text-anchor="middle" opacity="0">GNDS</text>
<g class="stroked-text"><desc>GNDS</desc>
<path d="M49180 40480
L49133 40456
L49061 40456
L48990 40480
L48942 40527
L48919 40575
L48895 40670
L48895 40741
L48919 40837
L48942 40884
L48990 40932
L49061 40956
L49109 40956
L49180 40932
L49204 40908
L49204 40741
L49109 40741
" />
<path d="M49419 40956
L49419 40456
L49704 40956
L49704 40456
" />
<path d="M49942 40956
L49942 40456
L50061 40456
L50133 40480
L50180 40527
L50204 40575
L50228 40670
L50228 40741
L50204 40837
L50180 40884
L50133 40932
L50061 40956
L49942 40956
" />
<path d="M50419 40932
L50490 40956
L50609 40956
L50657 40932
L50680 40908
L50704 40860
L50704 40813
L50680 40765
L50657 40741
L50609 40718
L50514 40694
L50466 40670
L50442 40646
L50419 40599
L50419 40551
L50442 40503
L50466 40480
L50514 40456
L50633 40456
L50704 40480
" />
</g></g>
</g>
<g style="fill:#006464; fill-opacity:0.0; 
stroke:#006464; stroke-width:60.000000; stroke-opacity:1; 
stroke-linecap:round; stroke-linejoin:round;">
<g >
</g>
<g style="fill:#840000; fill-opacity:0.0; 
stroke:#840000; stroke-width:60.000000; stroke-opacity:1; 
stroke-linecap:round; stroke-linejoin:round;">
</g>
<g style="fill:#FFFFC2; fill-opacity:0.0; 
stroke:#FFFFC2; stroke-width:60.000000; stroke-opacity:1; 
stroke-linecap:round; stroke-linejoin:round;">
</g>
<g style="fill:#FFFFC2; fill-opacity:0.6; 
stroke:#FFFFC2; stroke-width:0.039370; stroke-opacity:1; 
stroke-linecap:round; stroke-linejoin:round;">
<rect x="58000.000000" y="33000.000000" width="2000.000000" height="5000.000000" rx="0.000000" />
</g>
<g style="fill:#840000; fill-opacity:0.6; 
stroke:#840000; stroke-width:0.039370; stroke-opacity:1; 
stroke-linecap:round; stroke-linejoin:round;">
</g>
<g style="fill:#840000; fill-opacity:0.0; 
stroke:#840000; stroke-width:100.000000; stroke-opacity:1; 
stroke-linecap:round; stroke-linejoin:round;">
<rect x="58000.000000" y="33000.000000" width="2000.000000" height="5000.000000" rx="0.000000" />
</g>
<g style="fill:#840000; fill-opacity:0.0; 
stroke:#840000; stroke-width:60.000000; stroke-opacity:1; 
stroke-linecap:round; stroke-linejoin:round;">
<rect x="58000.000000" y="37450.000000" width="500.000000" height="100.000000" rx="0.000000" />
<rect x="58000.000000" y="36450.000000" width="500.000000" height="100.000000" rx="0.000000" />
<rect x="58000.000000" y="35450.000000" width="500.000000" height="100.000000" rx="0.000000" />
<rect x="58000.000000" y="34450.000000" width="500.000000" height="100.000000" rx="0.000000" />
<rect x="58000.000000" y="33450.000000" width="500.000000" height="100.000000" rx="0.000000" />
</g>
<g style="fill:#840000; fill-opacity:0.0; 
stroke:#840000; stroke-width:100.000000; stroke-opacity:1; 
stroke-linecap:round; stroke-linejoin:round;">
<rect x="58000.000000" y="33000.000000" width="2000.000000" height="5000.000000" rx="0.000000" />
</g>
<g style="fill:#840000; fill-opacity:0.0; 
stroke:#840000; stroke-width:60.000000; stroke-opacity:1; 
stroke-linecap:round; stroke-linejoin:round;">
<rect x="59500.000000" y="37450.000000" width="500.000000" height="100.000000" rx="0.000000" />
<rect x="59500.000000" y="36450.000000" width="500.000000" height="100.000000" rx="0.000000" />
<rect x="59500.000000" y="35450.000000" width="500.000000" height="100.000000" rx="0.000000" />
<rect x="59500.000000" y="34450.000000" width="500.000000" height="100.000000" rx="0.000000" />
<rect x="59500.000000" y="33450.000000" width="500.000000" height="100.000000" rx="0.000000" />
<path d="M58000 33500
L56500 33500
" />
</g>
<g style="fill:#A90000; fill-opacity:0.0; 
stroke:#A90000; stroke-width:60.000000; stroke-opacity:1; 
stroke-linecap:round; stroke-linejoin:round;">
<text x="57250.000000" y="33400.000000"
textLength="536.181102" font-size="666.653543" lengthAdjust="spacingAndGlyphs"
text-anchor="middle" opacity="0">1</text>
<g class="stroked-text"><desc>1</desc>
<path d="M57392 33376
L57107 33376
" />
<path d="M57250 33376
L57250 32876
L57202 32947
L57154 32995
L57107 33019
" />
</g></g>
<g style="fill:#840000; fill-opacity:0.0; 
stroke:#840000; stroke-width:60.000000; stroke-opacity:1; 
stroke-linecap:round; stroke-linejoin:round;">
<path d="M60000 37500
L61500 37500
" />
</g>
<g style="fill:#A90000; fill-opacity:0.0; 
stroke:#A90000; stroke-width:60.000000; stroke-opacity:1; 
stroke-linecap:round; stroke-linejoin:round;">
<text x="60750.000000" y="37400.000000"
textLength="1012.362205" font-size="666.653543" lengthAdjust="spacingAndGlyphs"
text-anchor="middle" opacity="0">10</text>
<g class="stroked-text"><desc>10</desc>
<path d="M60654 37376
L60369 37376
" />
<path d="M60511 37376
L60511 36876
L60464 36947
L60416 36995
L60369 37019
" />
<path d="M60964 36876
L61011 36876
L61059 36900
L61083 36923
L61107 36971
L61130 37066
L61130 37185
L61107 37280
L61083 37328
L61059 37352
L61011 37376
L60964 37376
L60916 37352
L60892 37328
L60869 37280
L60845 37185
L60845 37066
L60869 36971
L60892 36923
L60916 36900
L60964 36876
" />
</g></g>
<g style="fill:#840000; fill-opacity:0.0; 
stroke:#840000; stroke-width:60.000000; stroke-opacity:1; 
stroke-linecap:round; stroke-linejoin:round;">
<path d="M60000 33500
L61500 33500
" />
</g>
<g style="fill:#A90000; fill-opacity:0.0; 
stroke:#A90000; stroke-width:60.000000; stroke-opacity:1; 
stroke-linecap:round; stroke-linejoin:round;">
<text x="60750.000000" y="33400.000000"
textLength="536.181102" font-size="666.653543" lengthAdjust="spacingAndGlyphs"
text-anchor="middle" opacity="0">2</text>
<g class="stroked-text"><desc>2</desc>
<path d="M60607 32923
L60630 32900
L60678 32876
L60797 32876
L60845 32900
L60869 32923
L60892 32971
L60892 33019
L60869 33090
L60583 33376
L60892 33376
" />
</g></g>
<g style="fill:#840000; fill-opacity:0.0; 
stroke:#840000; stroke-width:60.000000; stroke-opacity:1; 
stroke-linecap:round; stroke-linejoin:round;">
<path d="M58000 34500
L56500 34500
" />
</g>
<g style="fill:#A90000; fill-opacity:0.0; 
stroke:#A90000; stroke-width:60.000000; stroke-opacity:1; 
stroke-linecap:round; stroke-linejoin:round;">
<text x="57250.000000" y="34400.000000"
textLength="536.181102" font-size="666.653543" lengthAdjust="spacingAndGlyphs"
text-anchor="middle" opacity="0">3</text>
<g class="stroked-text"><desc>3</desc>
<path d="M57083 33876
L57392 33876
L57226 34066
L57297 34066
L57345 34090
L57369 34114
L57392 34161
L57392 34280
L57369 34328
L57345 34352
L57297 34376
L57154 34376
L57107 34352
L57083 34328
" />
</g></g>
<g style="fill:#840000; fill-opacity:0.0; 
stroke:#840000; stroke-width:60.000000; stroke-opacity:1; 
stroke-linecap:round; stroke-linejoin:round;">
<path d="M60000 34500
L61500 34500
" />
</g>
<g style="fill:#A90000; fill-opacity:0.0; 
stroke:#A90000; stroke-width:60.000000; stroke-opacity:1; 
stroke-linecap:round; stroke-linejoin:round;">
<text x="60750.000000" y="34400.000000"
textLength="536.181102" font-size="666.653543" lengthAdjust="spacingAndGlyphs"
text-anchor="middle" opacity="0">4</text>
<g class="stroked-text"><desc>4</desc>
<path d="M60845 34042
L60845 34376
" />
<path d="M60726 33852
L60607 34209
L60916 34209
" />
</g></g>
<g style="fill:#840000; fill-opacity:0.0; 
stroke:#840000; stroke-width:60.000000; stroke-opacity:1; 
stroke-linecap:round; stroke-linejoin:round;">
<path d="M58000 35500
L56500 35500
" />
</g>
<g style="fill:#A90000; fill-opacity:0.0; 
stroke:#A90000; stroke-width:60.000000; stroke-opacity:1; 
stroke-linecap:round; stroke-linejoin:round;">
<text x="57250.000000" y="35400.000000"
textLength="536.181102" font-size="666.653543" lengthAdjust="spacingAndGlyphs"
text-anchor="middle" opacity="0">5</text>
<g class="stroked-text"><desc>5</desc>
<path d="M57369 34876
L57130 34876
L57107 35114
L57130 35090
L57178 35066
L57297 35066
L57345 35090
L57369 35114
L57392 35161
L57392 35280
L57369 35328
L57345 35352
L57297 35376
L57178 35376
L57130 35352
L57107 35328
" />
</g></g>
<g style="fill:#840000; fill-opacity:0.0; 
stroke:#840000; stroke-width:60.000000; stroke-opacity:1; 
stroke-linecap:round; stroke-linejoin:round;">
<path d="M60000 35500
L61500 35500
" />
</g>
<g style="fill:#A90000; fill-opacity:0.0; 
stroke:#A90000; stroke-width:60.000000; stroke-opacity:1; 
stroke-linecap:round; stroke-linejoin:round;">
<text x="60750.000000" y="35400.000000"
textLength="536.181102" font-size="666.653543" lengthAdjust="spacingAndGlyphs"
text-anchor="middle" opacity="0">6</text>
<g class="stroked-text"><desc>6</desc>
<path d="M60845 34876
L60750 34876
L60702 34900
L60678 34923
L60630 34995
L60607 35090
L60607 35280
L60630 35328
L60654 35352
L60702 35376
L60797 35376
L60845 35352
L60869 35328
L60892 35280
L60892 35161
L60869 35114
L60845 35090
L60797 35066
L60702 35066
L60654 35090
L60630 35114
L60607 35161
" />
</g></g>
<g style="fill:#840000; fill-opacity:0.0; 
stroke:#840000; stroke-width:60.000000; stroke-opacity:1; 
stroke-linecap:round; stroke-linejoin:round;">
<path d="M58000 36500
L56500 36500
" />
</g>
<g style="fill:#A90000; fill-opacity:0.0; 
stroke:#A90000; stroke-width:60.000000; stroke-opacity:1; 
stroke-linecap:round; stroke-linejoin:round;">
<text x="57250.000000" y="36400.000000"
textLength="536.181102" font-size="666.653543" lengthAdjust="spacingAndGlyphs"
text-anchor="middle" opacity="0">7</text>
<g class="stroked-text"><desc>7</desc>
<path d="M57083 35876
L57416 35876
L57202 36376
" />
</g></g>
<g style="fill:#840000; fill-opacity:0.0; 
stroke:#840000; stroke-width:60.000000; stroke-opacity:1; 
stroke-linecap:round; stroke-linejoin:round;">
<path d="M60000 36500
L61500 36500
" />
</g>
<g style="fill:#A90000; fill-opacity:0.0; 
stroke:#A90000; stroke-width:60.000000; stroke-opacity:1; 
stroke-linecap:round; stroke-linejoin:round;">
<text x="60750.000000" y="36400.000000"
textLength="536.181102" font-size="666.653543" lengthAdjust="spacingAndGlyphs"
text-anchor="middle" opacity="0">8</text>
<g class="stroked-text"><desc>8</desc>
<path d="M60702 36090
L60654 36066
L60630 36042
L60607 35995
L60607 35971
L60630 35923
L60654 35900
L60702 35876
L60797 35876
L60845 35900
L60869 35923
L60892 35971
L60892 35995
L60869 36042
L60845 36066
L60797 36090
L60702 36090
L60654 36114
L60630 36138
L60607 36185
L60607 36280
L60630 36328
L60654 36352
L60702 36376
L60797 36376
L60845 36352
L60869 36328
L60892 36280
L60892 36185
L60869 36138
L60845 36114
L60797 36090
" />
</g></g>
<g style="fill:#840000; fill-opacity:0.0; 
stroke:#840000; stroke-width:60.000000; stroke-opacity:1; 
stroke-linecap:round; stroke-linejoin:round;">
<path d="M58000 37500
L56500 37500
" />
</g>
<g style="fill:#A90000; fill-opacity:0.0; 
stroke:#A90000; stroke-width:60.000000; stroke-opacity:1; 
stroke-linecap:round; stroke-linejoin:round;">
<text x="57250.000000" y="37400.000000"
textLength="536.181102" font-size="666.653543" lengthAdjust="spacingAndGlyphs"
text-anchor="middle" opacity="0">9</text>
<g class="stroked-text"><desc>9</desc>
<path d="M57154 37376
L57250 37376
L57297 37352
L57321 37328
L57369 37257
L57392 37161
L57392 36971
L57369 36923
L57345 36900
L57297 36876
L57202 36876
L57154 36900
L57130 36923
L57107 36971
L57107 37090
L57130 37138
L57154 37161
L57202 37185
L57297 37185
L57345 37161
L57369 37138
L57392 37090
" />
</g></g>
<g style="fill:#006464; fill-opacity:0.0; 
stroke:#006464; stroke-width:60.000000; stroke-opacity:1; 
stroke-linecap:round; stroke-linejoin:round;">
<text x="59000.000000" y="31580.000000"
textLength="917.125984" font-size="666.653543" lengthAdjust="spacingAndGlyphs"
text-anchor="middle" opacity="0">J7</text>
<g class="stroked-text"><desc>J7</desc>
<path d="M58833 31056
L58833 31413
L58809 31484
L58761 31532
L58690 31556
L58642 31556
" />
<path d="M59023 31056
L59357 31056
L59142 31556
" />
</g><text x="59000.000000" y="32490.000000"
textLength="8512.362205" font-size="666.653543" lengthAdjust="spacingAndGlyphs"
text-anchor="middle" opacity="0">Conn_02x05_Odd_Even</text>
<g class="stroked-text"><desc>Conn_02x05_Odd_Even</desc>
<path d="M55178 32418
L55154 32442
L55083 32466
L55035 32466
L54964 32442
L54916 32394
L54892 32347
L54869 32251
L54869 32180
L54892 32085
L54916 32037
L54964 31990
L55035 31966
L55083 31966
L55154 31990
L55178 32013
" />
<path d="M55464 32466
L55416 32442
L55392 32418
L55369 32370
L55369 32228
L55392 32180
L55416 32156
L55464 32132
L55535 32132
L55583 32156
L55607 32180
L55630 32228
L55630 32370
L55607 32418
L55583 32442
L55535 32466
L55464 32466
" />
<path d="M55845 32132
L55845 32466
" />
<path d="M55845 32180
L55869 32156
L55916 32132
L55988 32132
L56035 32156
L56059 32204
L56059 32466
" />
<path d="M56297 32132
L56297 32466
" />
<path d="M56297 32180
L56321 32156
L56369 32132
L56440 32132
L56488 32156
L56511 32204
L56511 32466
" />
<path d="M56630 32513
L57011 32513
" />
<path d="M57226 31966
L57273 31966
L57321 31990
L57345 32013
L57369 32061
L57392 32156
L57392 32275
L57369 32370
L57345 32418
L57321 32442
L57273 32466
L57226 32466
L57178 32442
L57154 32418
L57130 32370
L57107 32275
L57107 32156
L57130 32061
L57154 32013
L57178 31990
L57226 31966
" />
<path d="M57583 32013
L57607 31990
L57654 31966
L57773 31966
L57821 31990
L57845 32013
L57869 32061
L57869 32109
L57845 32180
L57559 32466
L57869 32466
" />
<path d="M58035 32466
L58297 32132
" />
<path d="M58035 32132
L58297 32466
" />
<path d="M58583 31966
L58630 31966
L58678 31990
L58702 32013
L58726 32061
L58750 32156
L58750 32275
L58726 32370
L58702 32418
L58678 32442
L58630 32466
L58583 32466
L58535 32442
L58511 32418
L58488 32370
L58464 32275
L58464 32156
L58488 32061
L58511 32013
L58535 31990
L58583 31966
" />
<path d="M59202 31966
L58964 31966
L58940 32204
L58964 32180
L59011 32156
L59130 32156
L59178 32180
L59202 32204
L59226 32251
L59226 32370
L59202 32418
L59178 32442
L59130 32466
L59011 32466
L58964 32442
L58940 32418
" />
<path d="M59321 32513
L59702 32513
" />
<path d="M59916 31966
L60011 31966
L60059 31990
L60107 32037
L60130 32132
L60130 32299
L60107 32394
L60059 32442
L60011 32466
L59916 32466
L59869 32442
L59821 32394
L59797 32299
L59797 32132
L59821 32037
L59869 31990
L59916 31966
" />
<path d="M60559 32466
L60559 31966
" />
<path d="M60559 32442
L60511 32466
L60416 32466
L60369 32442
L60345 32418
L60321 32370
L60321 32228
L60345 32180
L60369 32156
L60416 32132
L60511 32132
L60559 32156
" />
<path d="M61011 32466
L61011 31966
" />
<path d="M61011 32442
L60964 32466
L60869 32466
L60821 32442
L60797 32418
L60773 32370
L60773 32228
L60797 32180
L60821 32156
L60869 32132
L60964 32132
L61011 32156
" />
<path d="M61130 32513
L61511 32513
" />
<path d="M61630 32204
L61797 32204
" />
<path d="M61869 32466
L61630 32466
L61630 31966
L61869 31966
" />
<path d="M62035 32132
L62154 32466
L62273 32132
" />
<path d="M62654 32442
L62607 32466
L62511 32466
L62464 32442
L62440 32394
L62440 32204
L62464 32156
L62511 32132
L62607 32132
L62654 32156
L62678 32204
L62678 32251
L62440 32299
" />
<path d="M62892 32132
L62892 32466
" />
<path d="M62892 32180
L62916 32156
L62964 32132
L63035 32132
L63083 32156
L63107 32204
L63107 32466
" />
</g></g>
</g>
<g style="fill:#006464; fill-opacity:0.0; 
stroke:#006464; stroke-width:62.519685; stroke-opacity:1; 
stroke-linecap:round; stroke-linejoin:round;">
</g>
<g style="fill:#006464; fill-opacity:0.0; 
stroke:#006464; stroke-width:60.000000; stroke-opacity:1; 
stroke-linecap:round; stroke-linejoin:round;">
</g>
<g style="fill:#725600; fill-opacity:0.0; 
stroke:#725600; stroke-width:60.000000; stroke-opacity:1; 
stroke-linecap:round; stroke-linejoin:round;">
<text x="66790.000000" y="36750.000000"
textLength="2583.818898" font-size="666.653543" lengthAdjust="spacingAndGlyphs"
text-anchor="start" opacity="0">NC_TDI</text>
<g class="stroked-text"><desc>NC_TDI</desc>
<path d="M66939 36726
L66939 36226
L67224 36726
L67224 36226
" />
<path d="M67748 36678
L67724 36702
L67653 36726
L67605 36726
L67534 36702
L67486 36654
L67462 36607
L67439 36511
L67439 36440
L67462 36345
L67486 36297
L67534 36250
L67605 36226
L67653 36226
L67724 36250
L67748 36273
" />
<path d="M67843 36773
L68224 36773
" />
<path d="M68272 36226
L68558 36226
" />
<path d="M68415 36726
L68415 36226
" />
<path d="M68724 36726
L68724 36226
L68843 36226
L68915 36250
L68962 36297
L68986 36345
L69010 36440
L69010 36511
L68986 36607
L68962 36654
L68915 36702
L68843 36726
L68724 36726
" />
<path d="M69224 36726
L69224 36226
" />
</g><path style="fill:#725600; fill-opacity:0.0; 
stroke:#725600; stroke-width:60.000000; stroke-opacity:1; 
stroke-linecap:round; stroke-linejoin:round;fill:none"
d="M 66250.000000,36500.000000
66500.000000,36750.000000
66750.000000,36750.000000
66750.000000,36250.000000
66500.000000,36250.000000
Z" /> 
</g>
<g style="fill:#725600; fill-opacity:0.0; 
stroke:#725600; stroke-width:62.519685; stroke-opacity:1; 
stroke-linecap:round; stroke-linejoin:round;">
</g>
<g style="fill:#725600; fill-opacity:0.0; 
stroke:#725600; stroke-width:60.000000; stroke-opacity:1; 
stroke-linecap:round; stroke-linejoin:round;">
<text x="66790.000000" y="37750.000000"
textLength="5036.181102" font-size="666.653543" lengthAdjust="spacingAndGlyphs"
text-anchor="start" opacity="0">NRST_nRESET</text>
<g class="stroked-text"><desc>NRST_nRESET</desc>
<path d="M66939 37726
L66939 37226
L67224 37726
L67224 37226
" />
<path d="M67748 37726
L67581 37488
" />
<path d="M67462 37726
L67462 37226
L67653 37226
L67700 37250
L67724 37273
L67748 37321
L67748 37392
L67724 37440
L67700 37464
L67653 37488
L67462 37488
" />
<path d="M67939 37702
L68010 37726
L68129 37726
L68177 37702
L68200 37678
L68224 37630
L68224 37583
L68200 37535
L68177 37511
L68129 37488
L68034 37464
L67986 37440
L67962 37416
L67939 37369
L67939 37321
L67962 37273
L67986 37250
L68034 37226
L68153 37226
L68224 37250
" />
<path d="M68367 37226
L68653 37226
" />
<path d="M68510 37726
L68510 37226
" />
<path d="M68700 37773
L69081 37773
" />
<path d="M69200 37392
L69200 37726
" />
<path d="M69200 37440
L69224 37416
L69272 37392
L69343 37392
L69391 37416
L69415 37464
L69415 37726
" />
<path d="M69939 37726
L69772 37488
" />
<path d="M69653 37726
L69653 37226
L69843 37226
L69891 37250
L69915 37273
L69939 37321
L69939 37392
L69915 37440
L69891 37464
L69843 37488
L69653 37488
" />
<path d="M70153 37464
L70320 37464
" />
<path d="M70391 37726
L70153 37726
L70153 37226
L70391 37226
" />
<path d="M70581 37702
L70653 37726
L70772 37726
L70820 37702
L70843 37678
L70867 37630
L70867 37583
L70843 37535
L70820 37511
L70772 37488
L70677 37464
L70629 37440
L70605 37416
L70581 37369
L70581 37321
L70605 37273
L70629 37250
L70677 37226
L70796 37226
L70867 37250
" />
<path d="M71081 37464
L71248 37464
" />
<path d="M71320 37726
L71081 37726
L71081 37226
L71320 37226
" />
<path d="M71462 37226
L71748 37226
" />
<path d="M71605 37726
L71605 37226
" />
</g><path style="fill:#725600; fill-opacity:0.0; 
stroke:#725600; stroke-width:60.000000; stroke-opacity:1; 
stroke-linecap:round; stroke-linejoin:round;fill:none"
d="M 66250.000000,37500.000000
66500.000000,37750.000000
66750.000000,37750.000000
66750.000000,37250.000000
66500.000000,37250.000000
Z" /> 
</g>
<g style="fill:#725600; fill-opacity:0.0; 
stroke:#725600; stroke-width:62.519685; stroke-opacity:1; 
stroke-linecap:round; stroke-linejoin:round;">
</g>
<g style="fill:#725600; fill-opacity:0.0; 
stroke:#725600; stroke-width:60.000000; stroke-opacity:1; 
stroke-linecap:round; stroke-linejoin:round;">
<text x="66790.000000" y="35750.000000"
textLength="3417.125984" font-size="666.653543" lengthAdjust="spacingAndGlyphs"
text-anchor="start" opacity="0">SWO_TDO</text>
<g class="stroked-text"><desc>SWO_TDO</desc>
<path d="M66915 35702
L66986 35726
L67105 35726
L67153 35702
L67177 35678
L67200 35630
L67200 35583
L67177 35535
L67153 35511
L67105 35488
L67010 35464
L66962 35440
L66939 35416
L66915 35369
L66915 35321
L66939 35273
L66962 35250
L67010 35226
L67129 35226
L67200 35250
" />
<path d="M67367 35226
L67486 35726
L67581 35369
L67677 35726
L67796 35226
" />
<path d="M68081 35226
L68177 35226
L68224 35250
L68272 35297
L68296 35392
L68296 35559
L68272 35654
L68224 35702
L68177 35726
L68081 35726
L68034 35702
L67986 35654
L67962 35559
L67962 35392
L67986 35297
L68034 35250
L68081 35226
" />
<path d="M68391 35773
L68772 35773
" />
<path d="M68820 35226
L69105 35226
" />
<path d="M68962 35726
L68962 35226
" />
<path d="M69272 35726
L69272 35226
L69391 35226
L69462 35250
L69510 35297
L69534 35345
L69558 35440
L69558 35511
L69534 35607
L69510 35654
L69462 35702
L69391 35726
L69272 35726
" />
<path d="M69867 35226
L69962 35226
L70010 35250
L70058 35297
L70081 35392
L70081 35559
L70058 35654
L70010 35702
L69962 35726
L69867 35726
L69820 35702
L69772 35654
L69748 35559
L69748 35392
L69772 35297
L69820 35250
L69867 35226
" />
</g><path style="fill:#725600; fill-opacity:0.0; 
stroke:#725600; stroke-width:60.000000; stroke-opacity:1; 
stroke-linecap:round; stroke-linejoin:round;fill:none"
d="M 66250.000000,35500.000000
66500.000000,35750.000000
66750.000000,35750.000000
66750.000000,35250.000000
66500.000000,35250.000000
Z" /> 
</g>
<g style="fill:#725600; fill-opacity:0.0; 
stroke:#725600; stroke-width:62.519685; stroke-opacity:1; 
stroke-linecap:round; stroke-linejoin:round;">
</g>
<g style="fill:#725600; fill-opacity:0.0; 
stroke:#725600; stroke-width:60.000000; stroke-opacity:1; 
stroke-linecap:round; stroke-linejoin:round;">
<text x="66790.000000" y="33750.000000"
textLength="4179.055118" font-size="666.653543" lengthAdjust="spacingAndGlyphs"
text-anchor="start" opacity="0">SWDIO_TMS</text>
<g class="stroked-text"><desc>SWDIO_TMS</desc>
<path d="M66915 33702
L66986 33726
L67105 33726
L67153 33702
L67177 33678
L67200 33630
L67200 33583
L67177 33535
L67153 33511
L67105 33488
L67010 33464
L66962 33440
L66939 33416
L66915 33369
L66915 33321
L66939 33273
L66962 33250
L67010 33226
L67129 33226
L67200 33250
" />
<path d="M67367 33226
L67486 33726
L67581 33369
L67677 33726
L67796 33226
" />
<path d="M67986 33726
L67986 33226
L68105 33226
L68177 33250
L68224 33297
L68248 33345
L68272 33440
L68272 33511
L68248 33607
L68224 33654
L68177 33702
L68105 33726
L67986 33726
" />
<path d="M68486 33726
L68486 33226
" />
<path d="M68820 33226
L68915 33226
L68962 33250
L69010 33297
L69034 33392
L69034 33559
L69010 33654
L68962 33702
L68915 33726
L68820 33726
L68772 33702
L68724 33654
L68700 33559
L68700 33392
L68724 33297
L68772 33250
L68820 33226
" />
<path d="M69129 33773
L69510 33773
" />
<path d="M69558 33226
L69843 33226
" />
<path d="M69700 33726
L69700 33226
" />
<path d="M70010 33726
L70010 33226
L70177 33583
L70343 33226
L70343 33726
" />
<path d="M70558 33702
L70629 33726
L70748 33726
L70796 33702
L70820 33678
L70843 33630
L70843 33583
L70820 33535
L70796 33511
L70748 33488
L70653 33464
L70605 33440
L70581 33416
L70558 33369
L70558 33321
L70581 33273
L70605 33250
L70653 33226
L70772 33226
L70843 33250
" />
</g><path style="fill:#725600; fill-opacity:0.0; 
stroke:#725600; stroke-width:60.000000; stroke-opacity:1; 
stroke-linecap:round; stroke-linejoin:round;fill:none"
d="M 66250.000000,33500.000000
66500.000000,33750.000000
66750.000000,33750.000000
66750.000000,33250.000000
66500.000000,33250.000000
Z" /> 
</g>
<g style="fill:#725600; fill-opacity:0.0; 
stroke:#725600; stroke-width:62.519685; stroke-opacity:1; 
stroke-linecap:round; stroke-linejoin:round;">
</g>
<g style="fill:#725600; fill-opacity:0.0; 
stroke:#725600; stroke-width:60.000000; stroke-opacity:1; 
stroke-linecap:round; stroke-linejoin:round;">
<text x="66790.000000" y="34750.000000"
textLength="4774.291339" font-size="666.653543" lengthAdjust="spacingAndGlyphs"
text-anchor="start" opacity="0">SWDCLK_TCK</text>
<g class="stroked-text"><desc>SWDCLK_TCK</desc>
<path d="M66915 34702
L66986 34726
L67105 34726
L67153 34702
L67177 34678
L67200 34630
L67200 34583
L67177 34535
L67153 34511
L67105 34488
L67010 34464
L66962 34440
L66939 34416
L66915 34369
L66915 34321
L66939 34273
L66962 34250
L67010 34226
L67129 34226
L67200 34250
" />
<path d="M67367 34226
L67486 34726
L67581 34369
L67677 34726
L67796 34226
" />
<path d="M67986 34726
L67986 34226
L68105 34226
L68177 34250
L68224 34297
L68248 34345
L68272 34440
L68272 34511
L68248 34607
L68224 34654
L68177 34702
L68105 34726
L67986 34726
" />
<path d="M68772 34678
L68748 34702
L68677 34726
L68629 34726
L68558 34702
L68510 34654
L68486 34607
L68462 34511
L68462 34440
L68486 34345
L68510 34297
L68558 34250
L68629 34226
L68677 34226
L68748 34250
L68772 34273
" />
<path d="M69224 34726
L68986 34726
L68986 34226
" />
<path d="M69391 34726
L69391 34226
" />
<path d="M69677 34726
L69462 34440
" />
<path d="M69677 34226
L69391 34511
" />
<path d="M69772 34773
L70153 34773
" />
<path d="M70200 34226
L70486 34226
" />
<path d="M70343 34726
L70343 34226
" />
<path d="M70939 34678
L70915 34702
L70843 34726
L70796 34726
L70724 34702
L70677 34654
L70653 34607
L70629 34511
L70629 34440
L70653 34345
L70677 34297
L70724 34250
L70796 34226
L70843 34226
L70915 34250
L70939 34273
" />
<path d="M71153 34726
L71153 34226
" />
<path d="M71439 34726
L71224 34440
" />
<path d="M71439 34226
L71153 34511
" />
</g><path style="fill:#725600; fill-opacity:0.0; 
stroke:#725600; stroke-width:60.000000; stroke-opacity:1; 
stroke-linecap:round; stroke-linejoin:round;fill:none"
d="M 66250.000000,34500.000000
66500.000000,34750.000000
66750.000000,34750.000000
66750.000000,34250.000000
66500.000000,34250.000000
Z" /> 
</g>
<g style="fill:#725600; fill-opacity:0.0; 
stroke:#725600; stroke-width:62.519685; stroke-opacity:1; 
stroke-linecap:round; stroke-linejoin:round;">
</g>
<g style="fill:#725600; fill-opacity:0.0; 
stroke:#725600; stroke-width:60.000000; stroke-opacity:1; 
stroke-linecap:round; stroke-linejoin:round;">
<text x="49210.000000" y="33750.000000"
textLength="4060.000000" font-size="666.653543" lengthAdjust="spacingAndGlyphs"
text-anchor="end" opacity="0">VCC_VTREF</text>
<g class="stroked-text"><desc>VCC_VTREF</desc>
<path d="M45227 33226
L45394 33726
L45560 33226
" />
<path d="M46013 33678
L45989 33702
L45918 33726
L45870 33726
L45799 33702
L45751 33654
L45727 33607
L45703 33511
L45703 33440
L45727 33345
L45751 33297
L45799 33250
L45870 33226
L45918 33226
L45989 33250
L46013 33273
" />
<path d="M46513 33678
L46489 33702
L46418 33726
L46370 33726
L46299 33702
L46251 33654
L46227 33607
L46203 33511
L46203 33440
L46227 33345
L46251 33297
L46299 33250
L46370 33226
L46418 33226
L46489 33250
L46513 33273
" />
<path d="M46608 33773
L46989 33773
" />
<path d="M47037 33226
L47203 33726
L47370 33226
" />
<path d="M47465 33226
L47751 33226
" />
<path d="M47608 33726
L47608 33226
" />
<path d="M48203 33726
L48037 33488
" />
<path d="M47918 33726
L47918 33226
L48108 33226
L48156 33250
L48180 33273
L48203 33321
L48203 33392
L48180 33440
L48156 33464
L48108 33488
L47918 33488
" />
<path d="M48418 33464
L48584 33464
" />
<path d="M48656 33726
L48418 33726
L48418 33226
L48656 33226
" />
<path d="M49037 33464
L48870 33464
" />
<path d="M48870 33726
L48870 33226
L49108 33226
" />
</g><path style="fill:#725600; fill-opacity:0.0; 
stroke:#725600; stroke-width:60.000000; stroke-opacity:1; 
stroke-linecap:round; stroke-linejoin:round;fill:none"
d="M 49750.000000,33500.000000
49500.000000,33250.000000
49250.000000,33250.000000
49250.000000,33750.000000
49500.000000,33750.000000
Z" /> 
</g>
<g style="fill:#009600; fill-opacity:0.0; 
stroke:#009600; stroke-width:60.000000; stroke-opacity:1; 
stroke-linecap:round; stroke-linejoin:round;">
<path d="M61500 33500
L66250 33500
" />
<path d="M61500 35500
L66250 35500
" />
<path d="M61500 34500
L66250 34500
" />
<path d="M49750 35500
L49750 37500
" />
<path d="M49750 34500
L49750 35500
" />
<path d="M49750 37500
L49750 39000
" />
<path d="M61500 36500
L66250 36500
" />
<path d="M61500 37500
L66250 37500
" />
<path d="M56500 35500
L49750 35500
" />
<path d="M56500 33500
L49750 33500
" />
<path d="M56500 34500
L49750 34500
" />
<path d="M56500 37500
L49750 37500
" />
</g>
<g style="fill:#000084; fill-opacity:0.0; 
stroke:#000084; stroke-width:60.000000; stroke-opacity:1; 
stroke-linecap:round; stroke-linejoin:round;">
<path d="M56260 36260
L56740 36740
" />
<path d="M56740 36260
L56260 36740
" />
</g>
<g style="fill:#009600; fill-opacity:0.0; 
stroke:#009600; stroke-width:60.000000; stroke-opacity:1; 
stroke-linecap:round; stroke-linejoin:round;">
</g>
<g style="fill:#009600; fill-opacity:1.0; 
stroke:#009600; stroke-width:60.000000; stroke-opacity:1; 
stroke-linecap:round; stroke-linejoin:round;">
<circle cx="49750.000000" cy="37500.000000" r="180.000000" /> 
<circle cx="49750.000000" cy="35500.000000" r="180.000000" /> 
</g> 
</svg>
