<?xml version="1.0" standalone="no"?>
 <!DOCTYPE svg PUBLIC "-//W3C//DTD SVG 1.1//EN" 
 "http://www.w3.org/Graphics/SVG/1.1/DTD/svg11.dtd"> 
<svg
  xmlns:svg="http://www.w3.org/2000/svg"
  xmlns="http://www.w3.org/2000/svg"
  xmlns:xlink="http://www.w3.org/1999/xlink"
  version="1.1"
  width="29.700220cm" height="21.000720cm" viewBox="0 0 116930 82680">
<title>SVG Picture created as BassStation_Sequencer_MidiInterface-MCU-Encoder.svg date 2022/04/15 23:52:43 </title>
  <desc>Picture generated by Eeschema-SVG </desc>
<g style="fill:#000000; fill-opacity:1.000000;stroke:#000000; stroke-opacity:1.000000;
stroke-linecap:round; stroke-linejoin:round;"
 transform="translate(0 0) scale(1 1)">
</g>
<g style="fill:#840000; fill-opacity:0.0; 
stroke:#840000; stroke-width:0.000000; stroke-opacity:1; 
stroke-linecap:round; stroke-linejoin:round;">
</g>
<g style="fill:#840000; fill-opacity:0.0; 
stroke:#840000; stroke-width:60.000000; stroke-opacity:1; 
stroke-linecap:round; stroke-linejoin:round;">
<rect x="69685.905512" y="65357.165354" width="42519.685039" height="12598.425197" rx="0.000000" />
<rect x="3937.007874" y="3937.007874" width="109055.984252" height="74805.984252" rx="0.000000" />
<rect x="4724.409449" y="4724.409449" width="107481.181102" height="73231.181102" rx="0.000000" />
<path d="M23622 4724
L23622 3937
" />
<path d="M43307 4724
L43307 3937
" />
<path d="M62992 4724
L62992 3937
" />
<path d="M82677 4724
L82677 3937
" />
<path d="M102362 4724
L102362 3937
" />
<text x="13779.527559" y="4586.614173"
textLength="549.960630" font-size="682.401575" lengthAdjust="spacingAndGlyphs"
text-anchor="start" opacity="0">1</text>
<g class="stroked-text"><desc>1</desc>
<path d="M14199 4562
L13907 4562
" />
<path d="M14053 4562
L14053 4050
L14004 4123
L13955 4172
L13907 4196
" />
</g><text x="33464.566929" y="4586.614173"
textLength="547.440945" font-size="682.401575" lengthAdjust="spacingAndGlyphs"
text-anchor="start" opacity="0">2</text>
<g class="stroked-text"><desc>2</desc>
<path d="M33592 4099
L33616 4074
L33665 4050
L33787 4050
L33835 4074
L33860 4099
L33884 4147
L33884 4196
L33860 4269
L33567 4562
L33884 4562
" />
</g><text x="53149.606299" y="4586.614173"
textLength="547.440945" font-size="682.401575" lengthAdjust="spacingAndGlyphs"
text-anchor="start" opacity="0">3</text>
<g class="stroked-text"><desc>3</desc>
<path d="M53252 4050
L53569 4050
L53398 4245
L53472 4245
L53520 4269
L53545 4294
L53569 4342
L53569 4464
L53545 4513
L53520 4537
L53472 4562
L53325 4562
L53277 4537
L53252 4513
" />
</g><text x="72834.645669" y="4586.614173"
textLength="547.440945" font-size="682.401575" lengthAdjust="spacingAndGlyphs"
text-anchor="start" opacity="0">4</text>
<g class="stroked-text"><desc>4</desc>
<path d="M73205 4221
L73205 4562
" />
<path d="M73083 4026
L72962 4391
L73278 4391
" />
</g><text x="92519.685039" y="4586.614173"
textLength="547.440945" font-size="682.401575" lengthAdjust="spacingAndGlyphs"
text-anchor="start" opacity="0">5</text>
<g class="stroked-text"><desc>5</desc>
<path d="M92915 4050
L92671 4050
L92647 4294
L92671 4269
L92720 4245
L92842 4245
L92890 4269
L92915 4294
L92939 4342
L92939 4464
L92915 4513
L92890 4537
L92842 4562
L92720 4562
L92671 4537
L92647 4513
" />
</g><text x="112204.724409" y="4586.614173"
textLength="547.440945" font-size="682.401575" lengthAdjust="spacingAndGlyphs"
text-anchor="start" opacity="0">6</text>
<g class="stroked-text"><desc>6</desc>
<path d="M112575 4050
L112478 4050
L112429 4074
L112405 4099
L112356 4172
L112332 4269
L112332 4464
L112356 4513
L112380 4537
L112429 4562
L112527 4562
L112575 4537
L112600 4513
L112624 4464
L112624 4342
L112600 4294
L112575 4269
L112527 4245
L112429 4245
L112380 4269
L112356 4294
L112332 4342
" />
</g><path d="M23622 77955
L23622 78742
" />
<path d="M43307 77955
L43307 78742
" />
<path d="M62992 77955
L62992 78742
" />
<path d="M82677 77955
L82677 78742
" />
<path d="M102362 77955
L102362 78742
" />
<text x="13779.527559" y="78605.196850"
textLength="547.440945" font-size="682.401575" lengthAdjust="spacingAndGlyphs"
text-anchor="start" opacity="0">1</text>
<g class="stroked-text"><desc>1</desc>
<path d="M14199 78580
L13907 78580
" />
<path d="M14053 78580
L14053 78068
L14004 78142
L13955 78190
L13907 78215
" />
</g><text x="33464.566929" y="78605.196850"
textLength="547.440945" font-size="682.401575" lengthAdjust="spacingAndGlyphs"
text-anchor="start" opacity="0">2</text>
<g class="stroked-text"><desc>2</desc>
<path d="M33592 78117
L33616 78093
L33665 78068
L33787 78068
L33835 78093
L33860 78117
L33884 78166
L33884 78215
L33860 78288
L33567 78580
L33884 78580
" />
</g><text x="53149.606299" y="78605.196850"
textLength="547.440945" font-size="682.401575" lengthAdjust="spacingAndGlyphs"
text-anchor="start" opacity="0">3</text>
<g class="stroked-text"><desc>3</desc>
<path d="M53252 78068
L53569 78068
L53398 78263
L53472 78263
L53520 78288
L53545 78312
L53569 78361
L53569 78483
L53545 78532
L53520 78556
L53472 78580
L53325 78580
L53277 78556
L53252 78532
" />
</g><text x="72834.645669" y="78605.196850"
textLength="547.440945" font-size="682.401575" lengthAdjust="spacingAndGlyphs"
text-anchor="start" opacity="0">4</text>
<g class="stroked-text"><desc>4</desc>
<path d="M73205 78239
L73205 78580
" />
<path d="M73083 78044
L72962 78410
L73278 78410
" />
</g><text x="92519.685039" y="78605.196850"
textLength="547.440945" font-size="682.401575" lengthAdjust="spacingAndGlyphs"
text-anchor="start" opacity="0">5</text>
<g class="stroked-text"><desc>5</desc>
<path d="M92915 78068
L92671 78068
L92647 78312
L92671 78288
L92720 78263
L92842 78263
L92890 78288
L92915 78312
L92939 78361
L92939 78483
L92915 78532
L92890 78556
L92842 78580
L92720 78580
L92671 78556
L92647 78532
" />
</g><text x="112204.724409" y="78605.196850"
textLength="547.440945" font-size="682.401575" lengthAdjust="spacingAndGlyphs"
text-anchor="start" opacity="0">6</text>
<g class="stroked-text"><desc>6</desc>
<path d="M112575 78068
L112478 78068
L112429 78093
L112405 78117
L112356 78190
L112332 78288
L112332 78483
L112356 78532
L112380 78556
L112429 78580
L112527 78580
L112575 78556
L112600 78532
L112624 78483
L112624 78361
L112600 78312
L112575 78288
L112527 78263
L112429 78263
L112380 78288
L112356 78312
L112332 78361
" />
</g><path d="M3937 23622
L4724 23622
" />
<path d="M3937 43307
L4724 43307
" />
<path d="M3937 62992
L4724 62992
" />
<text x="4330.708661" y="14035.433071"
textLength="498.700787" font-size="682.401575" lengthAdjust="spacingAndGlyphs"
text-anchor="middle" opacity="0">A</text>
<g class="stroked-text"><desc>A</desc>
<path d="M4208 13864
L4452 13864
" />
<path d="M4160 14011
L4330 13499
L4501 14011
" />
</g><text x="4330.708661" y="33720.472441"
textLength="571.811024" font-size="682.401575" lengthAdjust="spacingAndGlyphs"
text-anchor="middle" opacity="0">B</text>
<g class="stroked-text"><desc>B</desc>
<path d="M4367 33427
L4440 33452
L4464 33476
L4489 33525
L4489 33598
L4464 33647
L4440 33671
L4391 33696
L4196 33696
L4196 33184
L4367 33184
L4415 33208
L4440 33233
L4464 33281
L4464 33330
L4440 33379
L4415 33403
L4367 33427
L4196 33427
" />
</g><text x="4330.708661" y="53405.511811"
textLength="571.811024" font-size="682.401575" lengthAdjust="spacingAndGlyphs"
text-anchor="middle" opacity="0">C</text>
<g class="stroked-text"><desc>C</desc>
<path d="M4489 53332
L4464 53356
L4391 53381
L4342 53381
L4269 53356
L4221 53307
L4196 53259
L4172 53161
L4172 53088
L4196 52991
L4221 52942
L4269 52893
L4342 52869
L4391 52869
L4464 52893
L4489 52918
" />
</g><text x="4330.708661" y="73090.551181"
textLength="571.811024" font-size="682.401575" lengthAdjust="spacingAndGlyphs"
text-anchor="middle" opacity="0">D</text>
<g class="stroked-text"><desc>D</desc>
<path d="M4196 73066
L4196 72554
L4318 72554
L4391 72578
L4440 72627
L4464 72676
L4489 72773
L4489 72846
L4464 72944
L4440 72993
L4391 73041
L4318 73066
L4196 73066
" />
</g><path d="M112992 23622
L112205 23622
" />
<path d="M112992 43307
L112205 43307
" />
<path d="M112992 62992
L112205 62992
" />
<text x="112599.291339" y="14035.433071"
textLength="498.700787" font-size="682.401575" lengthAdjust="spacingAndGlyphs"
text-anchor="middle" opacity="0">A</text>
<g class="stroked-text"><desc>A</desc>
<path d="M112477 13864
L112721 13864
" />
<path d="M112428 14011
L112599 13499
L112769 14011
" />
</g><text x="112599.291339" y="33720.472441"
textLength="571.811024" font-size="682.401575" lengthAdjust="spacingAndGlyphs"
text-anchor="middle" opacity="0">B</text>
<g class="stroked-text"><desc>B</desc>
<path d="M112635 33427
L112708 33452
L112733 33476
L112757 33525
L112757 33598
L112733 33647
L112708 33671
L112660 33696
L112465 33696
L112465 33184
L112635 33184
L112684 33208
L112708 33233
L112733 33281
L112733 33330
L112708 33379
L112684 33403
L112635 33427
L112465 33427
" />
</g><text x="112599.291339" y="53405.511811"
textLength="571.811024" font-size="682.401575" lengthAdjust="spacingAndGlyphs"
text-anchor="middle" opacity="0">C</text>
<g class="stroked-text"><desc>C</desc>
<path d="M112757 53332
L112733 53356
L112660 53381
L112611 53381
L112538 53356
L112489 53307
L112465 53259
L112440 53161
L112440 53088
L112465 52991
L112489 52942
L112538 52893
L112611 52869
L112660 52869
L112733 52893
L112757 52918
" />
</g><text x="112599.291339" y="73090.551181"
textLength="571.811024" font-size="682.401575" lengthAdjust="spacingAndGlyphs"
text-anchor="middle" opacity="0">D</text>
<g class="stroked-text"><desc>D</desc>
<path d="M112465 73066
L112465 72554
L112587 72554
L112660 72578
L112708 72627
L112733 72676
L112757 72773
L112757 72846
L112733 72944
L112708 72993
L112660 73041
L112587 73066
L112465 73066
" />
</g><text x="78741.023622" y="76321.732283"
textLength="8721.417323" font-size="787.401575" lengthAdjust="spacingAndGlyphs"
text-anchor="start" opacity="0">Date: 2021-06-05</text>
<g class="stroked-text"><desc>Date: 2021-06-05</desc>
<path d="M78911 76293
L78911 75703
L79052 75703
L79136 75731
L79192 75787
L79220 75843
L79249 75956
L79249 76040
L79220 76152
L79192 76209
L79136 76265
L79052 76293
L78911 76293
" />
<path d="M79755 76293
L79755 75984
L79727 75928
L79670 75899
L79558 75899
L79502 75928
" />
<path d="M79755 76265
L79699 76293
L79558 76293
L79502 76265
L79474 76209
L79474 76152
L79502 76096
L79558 76068
L79699 76068
L79755 76040
" />
<path d="M79952 75899
L80177 75899
" />
<path d="M80036 75703
L80036 76209
L80064 76265
L80120 76293
L80177 76293
" />
<path d="M80598 76265
L80542 76293
L80430 76293
L80373 76265
L80345 76209
L80345 75984
L80373 75928
L80430 75899
L80542 75899
L80598 75928
L80627 75984
L80627 76040
L80345 76096
" />
<path d="M80880 76237
L80908 76265
L80880 76293
L80852 76265
L80880 76237
L80880 76293
" />
<path d="M80880 75928
L80908 75956
L80880 75984
L80852 75956
L80880 75928
L80880 75984
" />
<path d="M81583 75759
L81611 75731
L81667 75703
L81808 75703
L81864 75731
L81892 75759
L81920 75815
L81920 75871
L81892 75956
L81555 76293
L81920 76293
" />
<path d="M82286 75703
L82342 75703
L82398 75731
L82426 75759
L82454 75815
L82483 75928
L82483 76068
L82454 76181
L82426 76237
L82398 76265
L82342 76293
L82286 76293
L82229 76265
L82201 76237
L82173 76181
L82145 76068
L82145 75928
L82173 75815
L82201 75759
L82229 75731
L82286 75703
" />
<path d="M82708 75759
L82736 75731
L82792 75703
L82932 75703
L82989 75731
L83017 75759
L83045 75815
L83045 75871
L83017 75956
L82679 76293
L83045 76293
" />
<path d="M83607 76293
L83270 76293
" />
<path d="M83439 76293
L83439 75703
L83382 75787
L83326 75843
L83270 75871
" />
<path d="M83860 76068
L84310 76068
" />
<path d="M84704 75703
L84760 75703
L84817 75731
L84845 75759
L84873 75815
L84901 75928
L84901 76068
L84873 76181
L84845 76237
L84817 76265
L84760 76293
L84704 76293
L84648 76265
L84620 76237
L84592 76181
L84564 76068
L84564 75928
L84592 75815
L84620 75759
L84648 75731
L84704 75703
" />
<path d="M85407 75703
L85295 75703
L85238 75731
L85210 75759
L85154 75843
L85126 75956
L85126 76181
L85154 76237
L85182 76265
L85238 76293
L85351 76293
L85407 76265
L85435 76237
L85463 76181
L85463 76040
L85435 75984
L85407 75956
L85351 75928
L85238 75928
L85182 75956
L85154 75984
L85126 76040
" />
<path d="M85717 76068
L86166 76068
" />
<path d="M86560 75703
L86616 75703
L86673 75731
L86701 75759
L86729 75815
L86757 75928
L86757 76068
L86729 76181
L86701 76237
L86673 76265
L86616 76293
L86560 76293
L86504 76265
L86476 76237
L86448 76181
L86420 76068
L86420 75928
L86448 75815
L86476 75759
L86504 75731
L86560 75703
" />
<path d="M87291 75703
L87010 75703
L86982 75984
L87010 75956
L87066 75928
L87207 75928
L87263 75956
L87291 75984
L87319 76040
L87319 76181
L87291 76237
L87263 76265
L87207 76293
L87066 76293
L87010 76265
L86982 76237
" />
</g><path d="M69685 76577
L112205 76577
" />
<text x="70079.606299" y="77424.094488"
textLength="26212.992126" font-size="787.401575" lengthAdjust="spacingAndGlyphs"
text-anchor="start" opacity="0">KiCad E.D.A.  kicad 6.0.4-6f826c9f35~116~ubuntu20.04.1</text>
<g class="stroked-text"><desc>KiCad E.D.A.  kicad 6.0.4-6f826c9f35~116~ubuntu20.04.1</desc>
<path d="M70250 77395
L70250 76805
" />
<path d="M70587 77395
L70334 77058
" />
<path d="M70587 76805
L70250 77142
" />
<path d="M70840 77395
L70840 77002
" />
<path d="M70840 76805
L70812 76833
L70840 76861
L70868 76833
L70840 76805
L70840 76861
" />
<path d="M71459 77339
L71431 77367
L71346 77395
L71290 77395
L71206 77367
L71150 77311
L71121 77255
L71093 77142
L71093 77058
L71121 76946
L71150 76889
L71206 76833
L71290 76805
L71346 76805
L71431 76833
L71459 76861
" />
<path d="M71965 77395
L71965 77086
L71937 77030
L71881 77002
L71768 77002
L71712 77030
" />
<path d="M71965 77367
L71909 77395
L71768 77395
L71712 77367
L71684 77311
L71684 77255
L71712 77199
L71768 77170
L71909 77170
L71965 77142
" />
<path d="M72499 77395
L72499 76805
" />
<path d="M72499 77367
L72443 77395
L72331 77395
L72274 77367
L72246 77339
L72218 77283
L72218 77114
L72246 77058
L72274 77030
L72331 77002
L72443 77002
L72499 77030
" />
<path d="M73231 77086
L73427 77086
" />
<path d="M73512 77395
L73231 77395
L73231 76805
L73512 76805
" />
<path d="M73765 77339
L73793 77367
L73765 77395
L73737 77367
L73765 77339
L73765 77395
" />
<path d="M74046 77395
L74046 76805
L74187 76805
L74271 76833
L74327 76889
L74355 76946
L74384 77058
L74384 77142
L74355 77255
L74327 77311
L74271 77367
L74187 77395
L74046 77395
" />
<path d="M74637 77339
L74665 77367
L74637 77395
L74609 77367
L74637 77339
L74637 77395
" />
<path d="M74890 77227
L75171 77227
" />
<path d="M74834 77395
L75030 76805
L75227 77395
" />
<path d="M75424 77339
L75452 77367
L75424 77395
L75396 77367
L75424 77339
L75424 77395
" />
<path d="M76605 77395
L76605 76805
" />
<path d="M76661 77170
L76830 77395
" />
<path d="M76830 77002
L76605 77227
" />
<path d="M77083 77395
L77083 77002
" />
<path d="M77083 76805
L77055 76833
L77083 76861
L77111 76833
L77083 76805
L77083 76861
" />
<path d="M77618 77367
L77561 77395
L77449 77395
L77393 77367
L77364 77339
L77336 77283
L77336 77114
L77364 77058
L77393 77030
L77449 77002
L77561 77002
L77618 77030
" />
<path d="M78124 77395
L78124 77086
L78096 77030
L78039 77002
L77927 77002
L77871 77030
" />
<path d="M78124 77367
L78067 77395
L77927 77395
L77871 77367
L77842 77311
L77842 77255
L77871 77199
L77927 77170
L78067 77170
L78124 77142
" />
<path d="M78658 77395
L78658 76805
" />
<path d="M78658 77367
L78602 77395
L78489 77395
L78433 77367
L78405 77339
L78377 77283
L78377 77114
L78405 77058
L78433 77030
L78489 77002
L78602 77002
L78658 77030
" />
<path d="M79642 76805
L79530 76805
L79474 76833
L79445 76861
L79389 76946
L79361 77058
L79361 77283
L79389 77339
L79417 77367
L79474 77395
L79586 77395
L79642 77367
L79670 77339
L79699 77283
L79699 77142
L79670 77086
L79642 77058
L79586 77030
L79474 77030
L79417 77058
L79389 77086
L79361 77142
" />
<path d="M79952 77339
L79980 77367
L79952 77395
L79923 77367
L79952 77339
L79952 77395
" />
<path d="M80345 76805
L80402 76805
L80458 76833
L80486 76861
L80514 76917
L80542 77030
L80542 77170
L80514 77283
L80486 77339
L80458 77367
L80402 77395
L80345 77395
L80289 77367
L80261 77339
L80233 77283
L80205 77170
L80205 77030
L80233 76917
L80261 76861
L80289 76833
L80345 76805
" />
<path d="M80795 77339
L80823 77367
L80795 77395
L80767 77367
L80795 77339
L80795 77395
" />
<path d="M81330 77002
L81330 77395
" />
<path d="M81189 76777
L81048 77199
L81414 77199
" />
<path d="M81639 77170
L82089 77170
" />
<path d="M82623 76805
L82511 76805
L82454 76833
L82426 76861
L82370 76946
L82342 77058
L82342 77283
L82370 77339
L82398 77367
L82454 77395
L82567 77395
L82623 77367
L82651 77339
L82679 77283
L82679 77142
L82651 77086
L82623 77058
L82567 77030
L82454 77030
L82398 77058
L82370 77086
L82342 77142
" />
<path d="M82848 77002
L83073 77002
" />
<path d="M82932 77395
L82932 76889
L82961 76833
L83017 76805
L83073 76805
" />
<path d="M83354 77058
L83298 77030
L83270 77002
L83242 76946
L83242 76917
L83270 76861
L83298 76833
L83354 76805
L83467 76805
L83523 76833
L83551 76861
L83579 76917
L83579 76946
L83551 77002
L83523 77030
L83467 77058
L83354 77058
L83298 77086
L83270 77114
L83242 77170
L83242 77283
L83270 77339
L83298 77367
L83354 77395
L83467 77395
L83523 77367
L83551 77339
L83579 77283
L83579 77170
L83551 77114
L83523 77086
L83467 77058
" />
<path d="M83804 76861
L83832 76833
L83889 76805
L84029 76805
L84085 76833
L84114 76861
L84142 76917
L84142 76974
L84114 77058
L83776 77395
L84142 77395
" />
<path d="M84648 76805
L84535 76805
L84479 76833
L84451 76861
L84395 76946
L84367 77058
L84367 77283
L84395 77339
L84423 77367
L84479 77395
L84592 77395
L84648 77367
L84676 77339
L84704 77283
L84704 77142
L84676 77086
L84648 77058
L84592 77030
L84479 77030
L84423 77058
L84395 77086
L84367 77142
" />
<path d="M85210 77367
L85154 77395
L85042 77395
L84985 77367
L84957 77339
L84929 77283
L84929 77114
L84957 77058
L84985 77030
L85042 77002
L85154 77002
L85210 77030
" />
<path d="M85492 77395
L85604 77395
L85660 77367
L85688 77339
L85745 77255
L85773 77142
L85773 76917
L85745 76861
L85717 76833
L85660 76805
L85548 76805
L85492 76833
L85463 76861
L85435 76917
L85435 77058
L85463 77114
L85492 77142
L85548 77170
L85660 77170
L85717 77142
L85745 77114
L85773 77058
" />
<path d="M85941 77002
L86166 77002
" />
<path d="M86026 77395
L86026 76889
L86054 76833
L86110 76805
L86166 76805
" />
<path d="M86307 76805
L86673 76805
L86476 77030
L86560 77030
L86616 77058
L86645 77086
L86673 77142
L86673 77283
L86645 77339
L86616 77367
L86560 77395
L86391 77395
L86335 77367
L86307 77339
" />
<path d="M87207 76805
L86926 76805
L86898 77086
L86926 77058
L86982 77030
L87123 77030
L87179 77058
L87207 77086
L87235 77142
L87235 77283
L87207 77339
L87179 77367
L87123 77395
L86982 77395
L86926 77367
L86898 77339
" />
<path d="M87404 77170
L87432 77142
L87488 77114
L87601 77170
L87657 77142
L87685 77114
" />
<path d="M88219 77395
L87882 77395
" />
<path d="M88051 77395
L88051 76805
L87994 76889
L87938 76946
L87882 76974
" />
<path d="M88782 77395
L88444 77395
" />
<path d="M88613 77395
L88613 76805
L88557 76889
L88501 76946
L88444 76974
" />
<path d="M89288 76805
L89175 76805
L89119 76833
L89091 76861
L89035 76946
L89007 77058
L89007 77283
L89035 77339
L89063 77367
L89119 77395
L89232 77395
L89288 77367
L89316 77339
L89344 77283
L89344 77142
L89316 77086
L89288 77058
L89232 77030
L89119 77030
L89063 77058
L89035 77086
L89007 77142
" />
<path d="M89513 77170
L89541 77142
L89597 77114
L89710 77170
L89766 77142
L89794 77114
" />
<path d="M90272 77002
L90272 77395
" />
<path d="M90019 77002
L90019 77311
L90047 77367
L90103 77395
L90188 77395
L90244 77367
L90272 77339
" />
<path d="M90553 77395
L90553 76805
" />
<path d="M90553 77030
L90610 77002
L90722 77002
L90778 77030
L90807 77058
L90835 77114
L90835 77283
L90807 77339
L90778 77367
L90722 77395
L90610 77395
L90553 77367
" />
<path d="M91341 77002
L91341 77395
" />
<path d="M91088 77002
L91088 77311
L91116 77367
L91172 77395
L91256 77395
L91313 77367
L91341 77339
" />
<path d="M91622 77002
L91622 77395
" />
<path d="M91622 77058
L91650 77030
L91706 77002
L91791 77002
L91847 77030
L91875 77086
L91875 77395
" />
<path d="M92072 77002
L92297 77002
" />
<path d="M92156 76805
L92156 77311
L92184 77367
L92241 77395
L92297 77395
" />
<path d="M92747 77002
L92747 77395
" />
<path d="M92494 77002
L92494 77311
L92522 77367
L92578 77395
L92663 77395
L92719 77367
L92747 77339
" />
<path d="M93000 76861
L93028 76833
L93084 76805
L93225 76805
L93281 76833
L93309 76861
L93337 76917
L93337 76974
L93309 77058
L92972 77395
L93337 77395
" />
<path d="M93703 76805
L93759 76805
L93815 76833
L93844 76861
L93872 76917
L93900 77030
L93900 77170
L93872 77283
L93844 77339
L93815 77367
L93759 77395
L93703 77395
L93647 77367
L93619 77339
L93591 77283
L93562 77170
L93562 77030
L93591 76917
L93619 76861
L93647 76833
L93703 76805
" />
<path d="M94153 77339
L94181 77367
L94153 77395
L94125 77367
L94153 77339
L94153 77395
" />
<path d="M94547 76805
L94603 76805
L94659 76833
L94687 76861
L94715 76917
L94744 77030
L94744 77170
L94715 77283
L94687 77339
L94659 77367
L94603 77395
L94547 77395
L94490 77367
L94462 77339
L94434 77283
L94406 77170
L94406 77030
L94434 76917
L94462 76861
L94490 76833
L94547 76805
" />
<path d="M95250 77002
L95250 77395
" />
<path d="M95109 76777
L94968 77199
L95334 77199
" />
<path d="M95559 77339
L95587 77367
L95559 77395
L95531 77367
L95559 77339
L95559 77395
" />
<path d="M96150 77395
L95812 77395
" />
<path d="M95981 77395
L95981 76805
L95925 76889
L95868 76946
L95812 76974
" />
</g><path d="M69685 75396
L112205 75396
" />
</g>
<g style="fill:#840000; fill-opacity:0.0; 
stroke:#840000; stroke-width:118.110236; stroke-opacity:1; 
stroke-linecap:round; stroke-linejoin:round;">
<text x="103544.173228" y="76321.732283"
textLength="2928.385827" font-size="787.401575" lengthAdjust="spacingAndGlyphs"
text-anchor="start" opacity="0">Rev: B</text>
<g class="stroked-text"><desc>Rev: B</desc>
<path d="M104098 76293
L103902 76012
" />
<path d="M103761 76293
L103761 75703
L103986 75703
L104042 75731
L104070 75759
L104098 75815
L104098 75899
L104070 75956
L104042 75984
L103986 76012
L103761 76012
" />
<path d="M104577 76265
L104520 76293
L104408 76293
L104352 76265
L104323 76209
L104323 75984
L104352 75928
L104408 75899
L104520 75899
L104577 75928
L104605 75984
L104605 76040
L104323 76096
" />
<path d="M104802 75899
L104942 76293
L105083 75899
" />
<path d="M105308 76237
L105336 76265
L105308 76293
L105280 76265
L105308 76237
L105308 76293
" />
<path d="M105308 75928
L105336 75956
L105308 75984
L105280 75956
L105308 75928
L105308 75984
" />
<path d="M106236 75984
L106320 76012
L106348 76040
L106376 76096
L106376 76181
L106348 76237
L106320 76265
L106264 76293
L106039 76293
L106039 75703
L106236 75703
L106292 75731
L106320 75759
L106348 75815
L106348 75871
L106320 75928
L106292 75956
L106236 75984
L106039 75984
" />
</g></g>
<g style="fill:#840000; fill-opacity:0.0; 
stroke:#840000; stroke-width:60.000000; stroke-opacity:1; 
stroke-linecap:round; stroke-linejoin:round;">
<text x="70079.606299" y="76321.732283"
textLength="3781.220472" font-size="787.401575" lengthAdjust="spacingAndGlyphs"
text-anchor="start" opacity="0">Size: A4</text>
<g class="stroked-text"><desc>Size: A4</desc>
<path d="M70222 76265
L70306 76293
L70447 76293
L70503 76265
L70531 76237
L70559 76181
L70559 76124
L70531 76068
L70503 76040
L70447 76012
L70334 75984
L70278 75956
L70250 75928
L70222 75871
L70222 75815
L70250 75759
L70278 75731
L70334 75703
L70475 75703
L70559 75731
" />
<path d="M70812 76293
L70812 75899
" />
<path d="M70812 75703
L70784 75731
L70812 75759
L70840 75731
L70812 75703
L70812 75759
" />
<path d="M71037 75899
L71346 75899
L71037 76293
L71346 76293
" />
<path d="M71796 76265
L71740 76293
L71628 76293
L71571 76265
L71543 76209
L71543 75984
L71571 75928
L71628 75899
L71740 75899
L71796 75928
L71825 75984
L71825 76040
L71543 76096
" />
<path d="M72078 76237
L72106 76265
L72078 76293
L72049 76265
L72078 76237
L72078 76293
" />
<path d="M72078 75928
L72106 75956
L72078 75984
L72049 75956
L72078 75928
L72078 75984
" />
<path d="M72781 76124
L73062 76124
" />
<path d="M72724 76293
L72921 75703
L73118 76293
" />
<path d="M73568 75899
L73568 76293
" />
<path d="M73427 75674
L73287 76096
L73652 76096
" />
</g><text x="103544.173228" y="77424.094488"
textLength="3912.637795" font-size="787.401575" lengthAdjust="spacingAndGlyphs"
text-anchor="start" opacity="0">Id: 5/47</text>
<g class="stroked-text"><desc>Id: 5/47</desc>
<path d="M103714 77395
L103714 76805
" />
<path d="M104249 77395
L104249 76805
" />
<path d="M104249 77367
L104192 77395
L104080 77395
L104024 77367
L103995 77339
L103967 77283
L103967 77114
L103995 77058
L104024 77030
L104080 77002
L104192 77002
L104249 77030
" />
<path d="M104530 77339
L104558 77367
L104530 77395
L104502 77367
L104530 77339
L104530 77395
" />
<path d="M104530 77030
L104558 77058
L104530 77086
L104502 77058
L104530 77030
L104530 77086
" />
<path d="M105542 76805
L105261 76805
L105233 77086
L105261 77058
L105317 77030
L105458 77030
L105514 77058
L105542 77086
L105570 77142
L105570 77283
L105542 77339
L105514 77367
L105458 77395
L105317 77395
L105261 77367
L105233 77339
" />
<path d="M106245 76777
L105739 77536
" />
<path d="M106695 77002
L106695 77395
" />
<path d="M106555 76777
L106414 77199
L106780 77199
" />
<path d="M106948 76805
L107342 76805
L107089 77395
" />
</g><path d="M69685 73821
L112205 73821
" />
</g>
<g style="fill:#840000; fill-opacity:0.0; 
stroke:#840000; stroke-width:157.480315; stroke-opacity:1; 
stroke-linecap:round; stroke-linejoin:round;">
<text x="70079.606299" y="74924.094488"
textLength="8392.440945" font-size="1049.842520" lengthAdjust="spacingAndGlyphs"
text-anchor="start" opacity="0">Title: Encoder</text>
<g class="stroked-text"><desc>Title: Encoder</desc>
<path d="M70360 74099
L70810 74099
" />
<path d="M70486 74886
L70585 74099
" />
<path d="M70974 74886
L71039 74361
" />
<path d="M71072 74099
L71030 74136
L71063 74174
L71105 74136
L71072 74099
L71063 74174
" />
<path d="M71302 74361
L71602 74361
" />
<path d="M71447 74099
L71363 74774
L71391 74849
L71461 74886
L71536 74886
" />
<path d="M71911 74886
L71841 74849
L71812 74774
L71897 74099
" />
<path d="M72516 74849
L72436 74886
L72286 74886
L72216 74849
L72187 74774
L72225 74474
L72272 74399
L72352 74361
L72501 74361
L72572 74399
L72600 74474
L72591 74549
L72206 74624
" />
<path d="M72895 74811
L72928 74849
L72886 74886
L72853 74849
L72895 74811
L72886 74886
" />
<path d="M72947 74399
L72980 74436
L72937 74474
L72905 74436
L72947 74399
L72937 74474
" />
<path d="M73912 74474
L74175 74474
" />
<path d="M74236 74886
L73861 74886
L73959 74099
L74334 74099
" />
<path d="M74639 74361
L74573 74886
" />
<path d="M74629 74436
L74672 74399
L74751 74361
L74864 74361
L74934 74399
L74962 74474
L74911 74886
" />
<path d="M75628 74849
L75548 74886
L75398 74886
L75328 74849
L75295 74811
L75267 74736
L75295 74511
L75342 74436
L75384 74399
L75464 74361
L75614 74361
L75684 74399
" />
<path d="M76073 74886
L76003 74849
L75970 74811
L75942 74736
L75970 74511
L76017 74436
L76059 74399
L76139 74361
L76251 74361
L76321 74399
L76354 74436
L76382 74511
L76354 74736
L76307 74811
L76265 74849
L76185 74886
L76073 74886
" />
<path d="M77010 74886
L77109 74099
" />
<path d="M77015 74849
L76935 74886
L76785 74886
L76715 74849
L76682 74811
L76654 74736
L76682 74511
L76729 74436
L76771 74399
L76851 74361
L77001 74361
L77071 74399
" />
<path d="M77690 74849
L77610 74886
L77460 74886
L77390 74849
L77362 74774
L77399 74474
L77446 74399
L77526 74361
L77676 74361
L77746 74399
L77774 74474
L77765 74549
L77381 74624
" />
<path d="M78060 74886
L78126 74361
" />
<path d="M78107 74511
L78154 74436
L78196 74399
L78276 74361
L78351 74361
" />
</g></g>
<g style="fill:#840000; fill-opacity:0.0; 
stroke:#840000; stroke-width:60.000000; stroke-opacity:1; 
stroke-linecap:round; stroke-linejoin:round;">
<text x="70079.606299" y="73408.346457"
textLength="10637.795276" font-size="787.401575" lengthAdjust="spacingAndGlyphs"
text-anchor="start" opacity="0">File: Encoder.kicad_sch</text>
<g class="stroked-text"><desc>File: Encoder.kicad_sch</desc>
<path d="M70447 73070
L70250 73070
" />
<path d="M70250 73380
L70250 72789
L70531 72789
" />
<path d="M70756 73380
L70756 72986
" />
<path d="M70756 72789
L70728 72817
L70756 72845
L70784 72817
L70756 72789
L70756 72845
" />
<path d="M71121 73380
L71065 73352
L71037 73295
L71037 72789
" />
<path d="M71571 73352
L71515 73380
L71403 73380
L71346 73352
L71318 73295
L71318 73070
L71346 73014
L71403 72986
L71515 72986
L71571 73014
L71600 73070
L71600 73127
L71318 73183
" />
<path d="M71853 73323
L71881 73352
L71853 73380
L71825 73352
L71853 73323
L71853 73380
" />
<path d="M71853 73014
L71881 73042
L71853 73070
L71825 73042
L71853 73014
L71853 73070
" />
<path d="M72584 73070
L72781 73070
" />
<path d="M72865 73380
L72584 73380
L72584 72789
L72865 72789
" />
<path d="M73118 72986
L73118 73380
" />
<path d="M73118 73042
L73146 73014
L73202 72986
L73287 72986
L73343 73014
L73371 73070
L73371 73380
" />
<path d="M73905 73352
L73849 73380
L73737 73380
L73681 73352
L73652 73323
L73624 73267
L73624 73098
L73652 73042
L73681 73014
L73737 72986
L73849 72986
L73905 73014
" />
<path d="M74243 73380
L74187 73352
L74159 73323
L74130 73267
L74130 73098
L74159 73042
L74187 73014
L74243 72986
L74327 72986
L74384 73014
L74412 73042
L74440 73098
L74440 73267
L74412 73323
L74384 73352
L74327 73380
L74243 73380
" />
<path d="M74946 73380
L74946 72789
" />
<path d="M74946 73352
L74890 73380
L74777 73380
L74721 73352
L74693 73323
L74665 73267
L74665 73098
L74693 73042
L74721 73014
L74777 72986
L74890 72986
L74946 73014
" />
<path d="M75452 73352
L75396 73380
L75283 73380
L75227 73352
L75199 73295
L75199 73070
L75227 73014
L75283 72986
L75396 72986
L75452 73014
L75480 73070
L75480 73127
L75199 73183
" />
<path d="M75733 73380
L75733 72986
" />
<path d="M75733 73098
L75762 73042
L75790 73014
L75846 72986
L75902 72986
" />
<path d="M76099 73323
L76127 73352
L76099 73380
L76071 73352
L76099 73323
L76099 73380
" />
<path d="M76380 73380
L76380 72789
" />
<path d="M76436 73155
L76605 73380
" />
<path d="M76605 72986
L76380 73211
" />
<path d="M76858 73380
L76858 72986
" />
<path d="M76858 72789
L76830 72817
L76858 72845
L76886 72817
L76858 72789
L76858 72845
" />
<path d="M77393 73352
L77336 73380
L77224 73380
L77168 73352
L77139 73323
L77111 73267
L77111 73098
L77139 73042
L77168 73014
L77224 72986
L77336 72986
L77393 73014
" />
<path d="M77899 73380
L77899 73070
L77871 73014
L77814 72986
L77702 72986
L77646 73014
" />
<path d="M77899 73352
L77842 73380
L77702 73380
L77646 73352
L77618 73295
L77618 73239
L77646 73183
L77702 73155
L77842 73155
L77899 73127
" />
<path d="M78433 73380
L78433 72789
" />
<path d="M78433 73352
L78377 73380
L78264 73380
L78208 73352
L78180 73323
L78152 73267
L78152 73098
L78180 73042
L78208 73014
L78264 72986
L78377 72986
L78433 73014
" />
<path d="M78574 73436
L79024 73436
" />
<path d="M79136 73352
L79192 73380
L79305 73380
L79361 73352
L79389 73295
L79389 73267
L79361 73211
L79305 73183
L79220 73183
L79164 73155
L79136 73098
L79136 73070
L79164 73014
L79220 72986
L79305 72986
L79361 73014
" />
<path d="M79895 73352
L79839 73380
L79727 73380
L79670 73352
L79642 73323
L79614 73267
L79614 73098
L79642 73042
L79670 73014
L79727 72986
L79839 72986
L79895 73014
" />
<path d="M80148 73380
L80148 72789
" />
<path d="M80402 73380
L80402 73070
L80373 73014
L80317 72986
L80233 72986
L80177 73014
L80148 73042
" />
</g><path d="M69685 71459
L112205 71459
" />
<text x="70079.606299" y="72345.354331"
textLength="10493.070866" font-size="787.401575" lengthAdjust="spacingAndGlyphs"
text-anchor="start" opacity="0">Sheet: /MCU/Encoder/</text>
<g class="stroked-text"><desc>Sheet: /MCU/Encoder/</desc>
<path d="M70222 72289
L70306 72317
L70447 72317
L70503 72289
L70531 72260
L70559 72204
L70559 72148
L70531 72092
L70503 72064
L70447 72035
L70334 72007
L70278 71979
L70250 71951
L70222 71895
L70222 71839
L70250 71782
L70278 71754
L70334 71726
L70475 71726
L70559 71754
" />
<path d="M70812 72317
L70812 71726
" />
<path d="M71065 72317
L71065 72007
L71037 71951
L70981 71923
L70897 71923
L70840 71951
L70812 71979
" />
<path d="M71571 72289
L71515 72317
L71403 72317
L71346 72289
L71318 72232
L71318 72007
L71346 71951
L71403 71923
L71515 71923
L71571 71951
L71600 72007
L71600 72064
L71318 72120
" />
<path d="M72078 72289
L72021 72317
L71909 72317
L71853 72289
L71825 72232
L71825 72007
L71853 71951
L71909 71923
L72021 71923
L72078 71951
L72106 72007
L72106 72064
L71825 72120
" />
<path d="M72274 71923
L72499 71923
" />
<path d="M72359 71726
L72359 72232
L72387 72289
L72443 72317
L72499 72317
" />
<path d="M72696 72260
L72724 72289
L72696 72317
L72668 72289
L72696 72260
L72696 72317
" />
<path d="M72696 71951
L72724 71979
L72696 72007
L72668 71979
L72696 71951
L72696 72007
" />
<path d="M73849 71698
L73343 72457
" />
<path d="M74046 72317
L74046 71726
L74243 72148
L74440 71726
L74440 72317
" />
<path d="M75058 72260
L75030 72289
L74946 72317
L74890 72317
L74805 72289
L74749 72232
L74721 72176
L74693 72064
L74693 71979
L74721 71867
L74749 71811
L74805 71754
L74890 71726
L74946 71726
L75030 71754
L75058 71782
" />
<path d="M75312 71726
L75312 72204
L75340 72260
L75368 72289
L75424 72317
L75537 72317
L75593 72289
L75621 72260
L75649 72204
L75649 71726
" />
<path d="M76352 71698
L75846 72457
" />
<path d="M76549 72007
L76746 72007
" />
<path d="M76830 72317
L76549 72317
L76549 71726
L76830 71726
" />
<path d="M77083 71923
L77083 72317
" />
<path d="M77083 71979
L77111 71951
L77168 71923
L77252 71923
L77308 71951
L77336 72007
L77336 72317
" />
<path d="M77871 72289
L77814 72317
L77702 72317
L77646 72289
L77618 72260
L77589 72204
L77589 72035
L77618 71979
L77646 71951
L77702 71923
L77814 71923
L77871 71951
" />
<path d="M78208 72317
L78152 72289
L78124 72260
L78096 72204
L78096 72035
L78124 71979
L78152 71951
L78208 71923
L78292 71923
L78349 71951
L78377 71979
L78405 72035
L78405 72204
L78377 72260
L78349 72289
L78292 72317
L78208 72317
" />
<path d="M78911 72317
L78911 71726
" />
<path d="M78911 72289
L78855 72317
L78742 72317
L78686 72289
L78658 72260
L78630 72204
L78630 72035
L78658 71979
L78686 71951
L78742 71923
L78855 71923
L78911 71951
" />
<path d="M79417 72289
L79361 72317
L79249 72317
L79192 72289
L79164 72232
L79164 72007
L79192 71951
L79249 71923
L79361 71923
L79417 71951
L79445 72007
L79445 72064
L79164 72120
" />
<path d="M79699 72317
L79699 71923
" />
<path d="M79699 72035
L79727 71979
L79755 71951
L79811 71923
L79867 71923
" />
<path d="M80486 71698
L79980 72457
" />
</g></g>
<g style="fill:#840000; fill-opacity:0.0; 
stroke:#840000; stroke-width:118.110236; stroke-opacity:1; 
stroke-linecap:round; stroke-linejoin:round;">
<text x="70079.606299" y="71164.251969"
textLength="9199.488189" font-size="787.401575" lengthAdjust="spacingAndGlyphs"
text-anchor="start" opacity="0">Created by C Sutton</text>
<g class="stroked-text"><desc>Created by C Sutton</desc>
<path d="M70634 71079
L70606 71107
L70521 71136
L70465 71136
L70381 71107
L70325 71051
L70296 70995
L70268 70883
L70268 70798
L70296 70686
L70325 70629
L70381 70573
L70465 70545
L70521 70545
L70606 70573
L70634 70601
" />
<path d="M70887 71136
L70887 70742
" />
<path d="M70887 70854
L70915 70798
L70943 70770
L71000 70742
L71056 70742
" />
<path d="M71478 71107
L71421 71136
L71309 71136
L71253 71107
L71224 71051
L71224 70826
L71253 70770
L71309 70742
L71421 70742
L71478 70770
L71506 70826
L71506 70883
L71224 70939
" />
<path d="M72012 71136
L72012 70826
L71984 70770
L71928 70742
L71815 70742
L71759 70770
" />
<path d="M72012 71107
L71956 71136
L71815 71136
L71759 71107
L71731 71051
L71731 70995
L71759 70939
L71815 70911
L71956 70911
L72012 70883
" />
<path d="M72209 70742
L72434 70742
" />
<path d="M72293 70545
L72293 71051
L72321 71107
L72377 71136
L72434 71136
" />
<path d="M72856 71107
L72799 71136
L72687 71136
L72631 71107
L72602 71051
L72602 70826
L72631 70770
L72687 70742
L72799 70742
L72856 70770
L72884 70826
L72884 70883
L72602 70939
" />
<path d="M73390 71136
L73390 70545
" />
<path d="M73390 71107
L73334 71136
L73221 71136
L73165 71107
L73137 71079
L73109 71023
L73109 70854
L73137 70798
L73165 70770
L73221 70742
L73334 70742
L73390 70770
" />
<path d="M74121 71136
L74121 70545
" />
<path d="M74121 70770
L74177 70742
L74290 70742
L74346 70770
L74374 70798
L74402 70854
L74402 71023
L74374 71079
L74346 71107
L74290 71136
L74177 71136
L74121 71107
" />
<path d="M74599 70742
L74740 71136
" />
<path d="M74880 70742
L74740 71136
L74683 71276
L74655 71304
L74599 71332
" />
<path d="M75893 71079
L75865 71107
L75780 71136
L75724 71136
L75640 71107
L75583 71051
L75555 70995
L75527 70883
L75527 70798
L75555 70686
L75583 70629
L75640 70573
L75724 70545
L75780 70545
L75865 70573
L75893 70601
" />
<path d="M76568 71107
L76652 71136
L76793 71136
L76849 71107
L76877 71079
L76905 71023
L76905 70967
L76877 70911
L76849 70883
L76793 70854
L76680 70826
L76624 70798
L76596 70770
L76568 70714
L76568 70658
L76596 70601
L76624 70573
L76680 70545
L76821 70545
L76905 70573
" />
<path d="M77411 70742
L77411 71136
" />
<path d="M77158 70742
L77158 71051
L77186 71107
L77242 71136
L77327 71136
L77383 71107
L77411 71079
" />
<path d="M77608 70742
L77833 70742
" />
<path d="M77692 70545
L77692 71051
L77721 71107
L77777 71136
L77833 71136
" />
<path d="M77946 70742
L78170 70742
" />
<path d="M78030 70545
L78030 71051
L78058 71107
L78114 71136
L78170 71136
" />
<path d="M78452 71136
L78395 71107
L78367 71079
L78339 71023
L78339 70854
L78367 70798
L78395 70770
L78452 70742
L78536 70742
L78592 70770
L78620 70798
L78649 70854
L78649 71023
L78620 71079
L78592 71107
L78536 71136
L78452 71136
" />
<path d="M78902 70742
L78902 71136
" />
<path d="M78902 70798
L78930 70770
L78986 70742
L79070 70742
L79127 70770
L79155 70826
L79155 71136
" />
</g></g>
<g style="fill:#840000; fill-opacity:0.0; 
stroke:#840000; stroke-width:60.000000; stroke-opacity:1; 
stroke-linecap:round; stroke-linejoin:round;">
<text x="70079.606299" y="69983.149606"
textLength="153.543307" font-size="787.401575" lengthAdjust="spacingAndGlyphs"
text-anchor="start" opacity="0"></text>
<g class="stroked-text"><desc></desc>
</g><text x="70079.606299" y="68802.047244"
textLength="60.000000" font-size="787.401575" lengthAdjust="spacingAndGlyphs"
text-anchor="start" opacity="0"></text>
<g class="stroked-text"><desc></desc>
</g><text x="70079.606299" y="67620.944882"
textLength="60.000000" font-size="787.401575" lengthAdjust="spacingAndGlyphs"
text-anchor="start" opacity="0"></text>
<g class="stroked-text"><desc></desc>
</g><text x="70079.606299" y="66439.842520"
textLength="60.000000" font-size="787.401575" lengthAdjust="spacingAndGlyphs"
text-anchor="start" opacity="0"></text>
<g class="stroked-text"><desc></desc>
</g><path d="M77559 75396
L77559 76577
" />
<path d="M102756 75396
L102756 77955
" />
<g >
<path style="fill:#840000; fill-opacity:0.0; 
stroke:#840000; stroke-width:60.000000; stroke-opacity:1; 
stroke-linecap:round; stroke-linejoin:round;fill:none"
d="M 61250.000000,34500.000000
61250.000000,35000.000000
61750.000000,35000.000000
61250.000000,35500.000000
60750.000000,35000.000000
61250.000000,35000.000000
" /> 
</g>
<g style="fill:#006464; fill-opacity:0.0; 
stroke:#006464; stroke-width:60.000000; stroke-opacity:1; 
stroke-linecap:round; stroke-linejoin:round;">
<text x="61300.000000" y="36479.960630"
textLength="2060.000000" font-size="666.653543" lengthAdjust="spacingAndGlyphs"
text-anchor="middle" opacity="0">GNDS</text>
<g class="stroked-text"><desc>GNDS</desc>
<path d="M60680 35979
L60633 35956
L60561 35956
L60490 35979
L60442 36027
L60419 36075
L60395 36170
L60395 36241
L60419 36337
L60442 36384
L60490 36432
L60561 36456
L60609 36456
L60680 36432
L60704 36408
L60704 36241
L60609 36241
" />
<path d="M60919 36456
L60919 35956
L61204 36456
L61204 35956
" />
<path d="M61442 36456
L61442 35956
L61561 35956
L61633 35979
L61680 36027
L61704 36075
L61728 36170
L61728 36241
L61704 36337
L61680 36384
L61633 36432
L61561 36456
L61442 36456
" />
<path d="M61919 36432
L61990 36456
L62109 36456
L62157 36432
L62180 36408
L62204 36360
L62204 36313
L62180 36265
L62157 36241
L62109 36218
L62014 36194
L61966 36170
L61942 36146
L61919 36098
L61919 36051
L61942 36003
L61966 35979
L62014 35956
L62133 35956
L62204 35979
" />
</g></g>
</g>
<g style="fill:#006464; fill-opacity:0.0; 
stroke:#006464; stroke-width:60.000000; stroke-opacity:1; 
stroke-linecap:round; stroke-linejoin:round;">
<g >
</g>
<g style="fill:#840000; fill-opacity:0.0; 
stroke:#840000; stroke-width:60.000000; stroke-opacity:1; 
stroke-linecap:round; stroke-linejoin:round;">
<path style="fill:#840000; fill-opacity:0.0; 
stroke:#840000; stroke-width:60.000000; stroke-opacity:1; 
stroke-linecap:round; stroke-linejoin:round;fill:none"
d="M 70700.000000,27500.000000
71000.000000,27000.000000
" /> 
<path style="fill:#840000; fill-opacity:0.0; 
stroke:#840000; stroke-width:60.000000; stroke-opacity:1; 
stroke-linecap:round; stroke-linejoin:round;fill:none"
d="M 71000.000000,28000.000000
71000.000000,27000.000000
" /> 
<path style="fill:#840000; fill-opacity:0.0; 
stroke:#840000; stroke-width:60.000000; stroke-opacity:1; 
stroke-linecap:round; stroke-linejoin:round;fill:none"
d="M 71000.000000,27000.000000
71300.000000,27500.000000
" /> 
</g>
<g style="fill:#006464; fill-opacity:0.0; 
stroke:#006464; stroke-width:60.000000; stroke-opacity:1; 
stroke-linecap:round; stroke-linejoin:round;">
<text x="71150.000000" y="26519.960630"
textLength="2060.000000" font-size="666.653543" lengthAdjust="spacingAndGlyphs"
text-anchor="middle" opacity="0">+3V3</text>
<g class="stroked-text"><desc>+3V3</desc>
<path d="M70269 26305
L70650 26305
" />
<path d="M70459 26496
L70459 26115
" />
<path d="M70840 25996
L71150 25996
L70983 26186
L71054 26186
L71102 26210
L71126 26234
L71150 26281
L71150 26400
L71126 26448
L71102 26472
L71054 26496
L70911 26496
L70864 26472
L70840 26448
" />
<path d="M71292 25996
L71459 26496
L71626 25996
" />
<path d="M71745 25996
L72054 25996
L71888 26186
L71959 26186
L72007 26210
L72030 26234
L72054 26281
L72054 26400
L72030 26448
L72007 26472
L71959 26496
L71816 26496
L71769 26472
L71745 26448
" />
</g></g>
</g>
<g style="fill:#006464; fill-opacity:0.0; 
stroke:#006464; stroke-width:60.000000; stroke-opacity:1; 
stroke-linecap:round; stroke-linejoin:round;">
<g >
</g>
<g style="fill:#840000; fill-opacity:0.0; 
stroke:#840000; stroke-width:60.000000; stroke-opacity:1; 
stroke-linecap:round; stroke-linejoin:round;">
</g>
<g style="fill:#FFFFC2; fill-opacity:0.0; 
stroke:#FFFFC2; stroke-width:60.000000; stroke-opacity:1; 
stroke-linecap:round; stroke-linejoin:round;">
</g>
<g style="fill:#FFFFC2; fill-opacity:0.6; 
stroke:#FFFFC2; stroke-width:0.039370; stroke-opacity:1; 
stroke-linecap:round; stroke-linejoin:round;">
<rect x="56250.000000" y="39000.000000" width="4000.000000" height="4000.000000" rx="0.000000" />
</g>
<g style="fill:#840000; fill-opacity:0.6; 
stroke:#840000; stroke-width:0.039370; stroke-opacity:1; 
stroke-linecap:round; stroke-linejoin:round;">
</g>
<g style="fill:#840000; fill-opacity:0.0; 
stroke:#840000; stroke-width:100.000000; stroke-opacity:1; 
stroke-linecap:round; stroke-linejoin:round;">
<rect x="56250.000000" y="39000.000000" width="4000.000000" height="4000.000000" rx="0.000000" />
<rect x="56250.000000" y="39000.000000" width="4000.000000" height="4000.000000" rx="0.000000" />
</g>
<g style="fill:#840000; fill-opacity:1.0; 
stroke:#840000; stroke-width:60.000000; stroke-opacity:1; 
stroke-linecap:round; stroke-linejoin:round;">
<circle cx="58250.000000" cy="42500.000000" r="100.000000" /> 
</g>
<g style="fill:#840000; fill-opacity:0.0; 
stroke:#840000; stroke-width:100.000000; stroke-opacity:1; 
stroke-linecap:round; stroke-linejoin:round;">
<path d="M57200.014736 41150.628661 A1075.000000 1075.000000 0.0 0 0 59349.985264 41150.628661" />
<circle cx="58250.000000" cy="41150.000000" r="750.000000" /> 
<path style="fill:#840000; fill-opacity:0.0; 
stroke:#840000; stroke-width:100.000000; stroke-opacity:1; 
stroke-linecap:round; stroke-linejoin:round;fill:none"
d="M 58950.000000,41250.000000
57550.000000,41250.000000
" /> 
<path style="fill:#840000; fill-opacity:0.0; 
stroke:#840000; stroke-width:100.000000; stroke-opacity:1; 
stroke-linecap:round; stroke-linejoin:round;fill:none"
d="M 58950.000000,41150.000000
57550.000000,41150.000000
" /> 
<path style="fill:#840000; fill-opacity:0.0; 
stroke:#840000; stroke-width:100.000000; stroke-opacity:1; 
stroke-linecap:round; stroke-linejoin:round;fill:none"
d="M 57550.000000,41050.000000
58950.000000,41050.000000
" /> 
<path style="fill:#840000; fill-opacity:0.0; 
stroke:#840000; stroke-width:100.000000; stroke-opacity:1; 
stroke-linecap:round; stroke-linejoin:round;fill:none"
d="M 58250.000000,39500.000000
58250.000000,39650.000000
" /> 
<path style="fill:#840000; fill-opacity:0.0; 
stroke:#840000; stroke-width:100.000000; stroke-opacity:1; 
stroke-linecap:round; stroke-linejoin:round;fill:none"
d="M 57850.000000,39500.000000
58650.000000,39500.000000
" /> 
</g>
<g style="fill:#840000; fill-opacity:0.0; 
stroke:#840000; stroke-width:60.000000; stroke-opacity:1; 
stroke-linecap:round; stroke-linejoin:round;">
<path style="fill:#840000; fill-opacity:0.0; 
stroke:#840000; stroke-width:60.000000; stroke-opacity:1; 
stroke-linecap:round; stroke-linejoin:round;fill:none"
d="M 59250.000000,43000.000000
59250.000000,42500.000000
59050.000000,42500.000000
" /> 
<path style="fill:#840000; fill-opacity:0.0; 
stroke:#840000; stroke-width:60.000000; stroke-opacity:1; 
stroke-linecap:round; stroke-linejoin:round;fill:none"
d="M 57250.000000,43000.000000
57250.000000,42500.000000
57450.000000,42500.000000
" /> 
</g>
<g style="fill:#840000; fill-opacity:0.0; 
stroke:#840000; stroke-width:100.000000; stroke-opacity:1; 
stroke-linecap:round; stroke-linejoin:round;">
<path style="fill:#840000; fill-opacity:0.0; 
stroke:#840000; stroke-width:100.000000; stroke-opacity:1; 
stroke-linecap:round; stroke-linejoin:round;fill:none"
d="M 59450.000000,40900.000000
59350.000000,41200.000000
59200.000000,40950.000000
" /> 
<path style="fill:#840000; fill-opacity:0.0; 
stroke:#840000; stroke-width:100.000000; stroke-opacity:1; 
stroke-linecap:round; stroke-linejoin:round;fill:none"
d="M 57100.000000,40900.000000
57200.000000,41200.000000
57350.000000,40950.000000
" /> 
<path style="fill:#840000; fill-opacity:0.0; 
stroke:#840000; stroke-width:100.000000; stroke-opacity:1; 
stroke-linecap:round; stroke-linejoin:round;fill:none"
d="M 59250.000000,39000.000000
59250.000000,39300.000000
58650.000000,39300.000000
" /> 
<path style="fill:#840000; fill-opacity:0.0; 
stroke:#840000; stroke-width:100.000000; stroke-opacity:1; 
stroke-linecap:round; stroke-linejoin:round;fill:none"
d="M 57250.000000,39000.000000
57250.000000,39300.000000
57850.000000,39300.000000
" /> 
</g>
<g style="fill:#840000; fill-opacity:0.0; 
stroke:#840000; stroke-width:60.000000; stroke-opacity:1; 
stroke-linecap:round; stroke-linejoin:round;">
<path style="fill:#840000; fill-opacity:0.0; 
stroke:#840000; stroke-width:60.000000; stroke-opacity:1; 
stroke-linecap:round; stroke-linejoin:round;fill:none"
d="M 58250.000000,43000.000000
58250.000000,42500.000000
58650.000000,42500.000000
59050.000000,42300.000000
" /> 
<path style="fill:#840000; fill-opacity:0.0; 
stroke:#840000; stroke-width:60.000000; stroke-opacity:1; 
stroke-linecap:round; stroke-linejoin:round;fill:none"
d="M 58250.000000,42700.000000
58250.000000,42500.000000
57850.000000,42500.000000
57450.000000,42300.000000
" /> 
</g>
<g style="fill:#840000; fill-opacity:0.0; 
stroke:#840000; stroke-width:100.000000; stroke-opacity:1; 
stroke-linecap:round; stroke-linejoin:round;">
<circle cx="58650.000000" cy="39300.000000" r="50.000000" /> 
<circle cx="57850.000000" cy="39300.000000" r="50.000000" /> 
</g>
<g style="fill:#840000; fill-opacity:0.0; 
stroke:#840000; stroke-width:60.000000; stroke-opacity:1; 
stroke-linecap:round; stroke-linejoin:round;">
<path d="M57250 43000
L57250 44000
" />
</g>
<g style="fill:#A90000; fill-opacity:0.0; 
stroke:#A90000; stroke-width:60.000000; stroke-opacity:1; 
stroke-linecap:round; stroke-linejoin:round;">
<g transform="rotate(-90.000000 57150.000000 43500.000000)">
<text x="57150.000000" y="43500.000000"
textLength="488.582677" font-size="666.653543" lengthAdjust="spacingAndGlyphs"
text-anchor="middle" opacity="0">A</text>
</g>
<g class="stroked-text"><desc>A</desc>
<path d="M56983 43619
L56983 43380
" />
<path d="M57126 43666
L56626 43500
L57126 43333
" />
</g></g>
<g style="fill:#840000; fill-opacity:0.0; 
stroke:#840000; stroke-width:60.000000; stroke-opacity:1; 
stroke-linecap:round; stroke-linejoin:round;">
<path d="M59250 43000
L59250 44000
" />
</g>
<g style="fill:#A90000; fill-opacity:0.0; 
stroke:#A90000; stroke-width:60.000000; stroke-opacity:1; 
stroke-linecap:round; stroke-linejoin:round;">
<g transform="rotate(-90.000000 59150.000000 43500.000000)">
<text x="59150.000000" y="43500.000000"
textLength="560.000000" font-size="666.653543" lengthAdjust="spacingAndGlyphs"
text-anchor="middle" opacity="0">B</text>
</g>
<g class="stroked-text"><desc>B</desc>
<path d="M58864 43464
L58888 43392
L58911 43369
L58959 43345
L59030 43345
L59078 43369
L59102 43392
L59126 43440
L59126 43630
L58626 43630
L58626 43464
L58650 43416
L58673 43392
L58721 43369
L58769 43369
L58816 43392
L58840 43416
L58864 43464
L58864 43630
" />
</g></g>
<g style="fill:#840000; fill-opacity:0.0; 
stroke:#840000; stroke-width:60.000000; stroke-opacity:1; 
stroke-linecap:round; stroke-linejoin:round;">
<path d="M58250 43000
L58250 44000
" />
</g>
<g style="fill:#A90000; fill-opacity:0.0; 
stroke:#A90000; stroke-width:60.000000; stroke-opacity:1; 
stroke-linecap:round; stroke-linejoin:round;">
<g transform="rotate(-90.000000 58150.000000 43500.000000)">
<text x="58150.000000" y="43500.000000"
textLength="560.000000" font-size="666.653543" lengthAdjust="spacingAndGlyphs"
text-anchor="middle" opacity="0">C</text>
</g>
<g class="stroked-text"><desc>C</desc>
<path d="M58078 43345
L58102 43369
L58126 43440
L58126 43488
L58102 43559
L58054 43607
L58007 43630
L57911 43654
L57840 43654
L57745 43630
L57697 43607
L57650 43559
L57626 43488
L57626 43440
L57650 43369
L57673 43345
" />
</g></g>
<g style="fill:#840000; fill-opacity:0.0; 
stroke:#840000; stroke-width:60.000000; stroke-opacity:1; 
stroke-linecap:round; stroke-linejoin:round;">
<path d="M57250 39000
L57250 38000
" />
</g>
<g style="fill:#A90000; fill-opacity:0.0; 
stroke:#A90000; stroke-width:60.000000; stroke-opacity:1; 
stroke-linecap:round; stroke-linejoin:round;">
<g transform="rotate(-90.000000 57150.000000 38500.000000)">
<text x="57150.000000" y="38500.000000"
textLength="1012.362205" font-size="666.653543" lengthAdjust="spacingAndGlyphs"
text-anchor="middle" opacity="0">S1</text>
</g>
<g class="stroked-text"><desc>S1</desc>
<path d="M57102 38880
L57126 38809
L57126 38690
L57102 38642
L57078 38619
L57030 38595
L56983 38595
L56935 38619
L56911 38642
L56888 38690
L56864 38785
L56840 38833
L56816 38857
L56769 38880
L56721 38880
L56673 38857
L56650 38833
L56626 38785
L56626 38666
L56650 38595
" />
<path d="M57126 38119
L57126 38404
" />
<path d="M57126 38261
L56626 38261
L56697 38309
L56745 38357
L56769 38404
" />
</g></g>
<g style="fill:#840000; fill-opacity:0.0; 
stroke:#840000; stroke-width:60.000000; stroke-opacity:1; 
stroke-linecap:round; stroke-linejoin:round;">
<path d="M59250 39000
L59250 38000
" />
</g>
<g style="fill:#A90000; fill-opacity:0.0; 
stroke:#A90000; stroke-width:60.000000; stroke-opacity:1; 
stroke-linecap:round; stroke-linejoin:round;">
<g transform="rotate(-90.000000 59150.000000 38500.000000)">
<text x="59150.000000" y="38500.000000"
textLength="1012.362205" font-size="666.653543" lengthAdjust="spacingAndGlyphs"
text-anchor="middle" opacity="0">S2</text>
</g>
<g class="stroked-text"><desc>S2</desc>
<path d="M59102 38880
L59126 38809
L59126 38690
L59102 38642
L59078 38619
L59030 38595
L58983 38595
L58935 38619
L58911 38642
L58888 38690
L58864 38785
L58840 38833
L58816 38857
L58769 38880
L58721 38880
L58673 38857
L58650 38833
L58626 38785
L58626 38666
L58650 38595
" />
<path d="M58673 38404
L58650 38380
L58626 38333
L58626 38214
L58650 38166
L58673 38142
L58721 38119
L58769 38119
L58840 38142
L59126 38428
L59126 38119
" />
</g></g>
<g style="fill:#006464; fill-opacity:0.0; 
stroke:#006464; stroke-width:60.000000; stroke-opacity:1; 
stroke-linecap:round; stroke-linejoin:round;">
<text x="55793.149606" y="44750.000000"
textLength="1583.818898" font-size="666.653543" lengthAdjust="spacingAndGlyphs"
text-anchor="middle" opacity="0">SW1</text>
<g class="stroked-text"><desc>SW1</desc>
<path d="M55126 44702
L55197 44726
L55316 44726
L55364 44702
L55388 44678
L55412 44630
L55412 44583
L55388 44535
L55364 44511
L55316 44488
L55221 44464
L55174 44440
L55150 44416
L55126 44369
L55126 44321
L55150 44273
L55174 44250
L55221 44226
L55340 44226
L55412 44250
" />
<path d="M55578 44226
L55697 44726
L55793 44369
L55888 44726
L56007 44226
" />
<path d="M56459 44726
L56174 44726
" />
<path d="M56316 44726
L56316 44226
L56269 44297
L56221 44345
L56174 44369
" />
</g><text x="52602.677165" y="45750.000000"
textLength="8202.874016" font-size="666.653543" lengthAdjust="spacingAndGlyphs"
text-anchor="middle" opacity="0">RotaryEncoder_Switch</text>
<g class="stroked-text"><desc>RotaryEncoder_Switch</desc>
<path d="M48935 45726
L48769 45488
" />
<path d="M48650 45726
L48650 45226
L48840 45226
L48888 45250
L48912 45273
L48935 45321
L48935 45392
L48912 45440
L48888 45464
L48840 45488
L48650 45488
" />
<path d="M49221 45726
L49174 45702
L49150 45678
L49126 45630
L49126 45488
L49150 45440
L49174 45416
L49221 45392
L49293 45392
L49340 45416
L49364 45440
L49388 45488
L49388 45630
L49364 45678
L49340 45702
L49293 45726
L49221 45726
" />
<path d="M49531 45392
L49721 45392
" />
<path d="M49602 45226
L49602 45654
L49626 45702
L49674 45726
L49721 45726
" />
<path d="M50102 45726
L50102 45464
L50078 45416
L50031 45392
L49935 45392
L49888 45416
" />
<path d="M50102 45702
L50055 45726
L49935 45726
L49888 45702
L49864 45654
L49864 45607
L49888 45559
L49935 45535
L50055 45535
L50102 45511
" />
<path d="M50340 45726
L50340 45392
" />
<path d="M50340 45488
L50364 45440
L50388 45416
L50435 45392
L50483 45392
" />
<path d="M50602 45392
L50721 45726
" />
<path d="M50840 45392
L50721 45726
L50674 45845
L50650 45869
L50602 45892
" />
<path d="M51031 45464
L51197 45464
" />
<path d="M51269 45726
L51031 45726
L51031 45226
L51269 45226
" />
<path d="M51483 45392
L51483 45726
" />
<path d="M51483 45440
L51507 45416
L51555 45392
L51626 45392
L51674 45416
L51697 45464
L51697 45726
" />
<path d="M52150 45702
L52102 45726
L52007 45726
L51959 45702
L51935 45678
L51912 45630
L51912 45488
L51935 45440
L51959 45416
L52007 45392
L52102 45392
L52150 45416
" />
<path d="M52435 45726
L52388 45702
L52364 45678
L52340 45630
L52340 45488
L52364 45440
L52388 45416
L52435 45392
L52507 45392
L52555 45416
L52578 45440
L52602 45488
L52602 45630
L52578 45678
L52555 45702
L52507 45726
L52435 45726
" />
<path d="M53031 45726
L53031 45226
" />
<path d="M53031 45702
L52983 45726
L52888 45726
L52840 45702
L52816 45678
L52793 45630
L52793 45488
L52816 45440
L52840 45416
L52888 45392
L52983 45392
L53031 45416
" />
<path d="M53459 45702
L53412 45726
L53316 45726
L53269 45702
L53245 45654
L53245 45464
L53269 45416
L53316 45392
L53412 45392
L53459 45416
L53483 45464
L53483 45511
L53245 45559
" />
<path d="M53697 45726
L53697 45392
" />
<path d="M53697 45488
L53721 45440
L53745 45416
L53793 45392
L53840 45392
" />
<path d="M53888 45773
L54269 45773
" />
<path d="M54364 45702
L54435 45726
L54555 45726
L54602 45702
L54626 45678
L54650 45630
L54650 45583
L54626 45535
L54602 45511
L54555 45488
L54459 45464
L54412 45440
L54388 45416
L54364 45369
L54364 45321
L54388 45273
L54412 45250
L54459 45226
L54578 45226
L54650 45250
" />
<path d="M54816 45392
L54912 45726
L55007 45488
L55102 45726
L55197 45392
" />
<path d="M55388 45726
L55388 45392
" />
<path d="M55388 45226
L55364 45250
L55388 45273
L55412 45250
L55388 45226
L55388 45273
" />
<path d="M55555 45392
L55745 45392
" />
<path d="M55626 45226
L55626 45654
L55650 45702
L55697 45726
L55745 45726
" />
<path d="M56126 45702
L56078 45726
L55983 45726
L55935 45702
L55912 45678
L55888 45630
L55888 45488
L55912 45440
L55935 45416
L55983 45392
L56078 45392
L56126 45416
" />
<path d="M56340 45726
L56340 45226
" />
<path d="M56555 45726
L56555 45464
L56531 45416
L56483 45392
L56412 45392
L56364 45416
L56340 45440
" />
</g></g>
</g>
<g style="fill:#006464; fill-opacity:0.0; 
stroke:#006464; stroke-width:60.000000; stroke-opacity:1; 
stroke-linecap:round; stroke-linejoin:round;">
<g >
</g>
<g style="fill:#840000; fill-opacity:0.0; 
stroke:#840000; stroke-width:60.000000; stroke-opacity:1; 
stroke-linecap:round; stroke-linejoin:round;">
<path style="fill:#840000; fill-opacity:0.0; 
stroke:#840000; stroke-width:60.000000; stroke-opacity:1; 
stroke-linecap:round; stroke-linejoin:round;fill:none"
d="M 58250.000000,51000.000000
58250.000000,51500.000000
58750.000000,51500.000000
58250.000000,52000.000000
57750.000000,51500.000000
58250.000000,51500.000000
" /> 
</g>
<g style="fill:#006464; fill-opacity:0.0; 
stroke:#006464; stroke-width:60.000000; stroke-opacity:1; 
stroke-linecap:round; stroke-linejoin:round;">
<text x="58300.000000" y="52979.960630"
textLength="2060.000000" font-size="666.653543" lengthAdjust="spacingAndGlyphs"
text-anchor="middle" opacity="0">GNDS</text>
<g class="stroked-text"><desc>GNDS</desc>
<path d="M57680 52479
L57633 52456
L57561 52456
L57490 52479
L57442 52527
L57419 52575
L57395 52670
L57395 52741
L57419 52837
L57442 52884
L57490 52932
L57561 52956
L57609 52956
L57680 52932
L57704 52908
L57704 52741
L57609 52741
" />
<path d="M57919 52956
L57919 52456
L58204 52956
L58204 52456
" />
<path d="M58442 52956
L58442 52456
L58561 52456
L58633 52479
L58680 52527
L58704 52575
L58728 52670
L58728 52741
L58704 52837
L58680 52884
L58633 52932
L58561 52956
L58442 52956
" />
<path d="M58919 52932
L58990 52956
L59109 52956
L59157 52932
L59180 52908
L59204 52860
L59204 52813
L59180 52765
L59157 52741
L59109 52718
L59014 52694
L58966 52670
L58942 52646
L58919 52598
L58919 52551
L58942 52503
L58966 52479
L59014 52456
L59133 52456
L59204 52479
" />
</g></g>
</g>
<g style="fill:#006464; fill-opacity:0.0; 
stroke:#006464; stroke-width:60.000000; stroke-opacity:1; 
stroke-linecap:round; stroke-linejoin:round;">
<g >
</g>
<g style="fill:#840000; fill-opacity:0.0; 
stroke:#840000; stroke-width:60.000000; stroke-opacity:1; 
stroke-linecap:round; stroke-linejoin:round;">
</g>
<g style="fill:#840000; fill-opacity:0.0; 
stroke:#840000; stroke-width:100.000000; stroke-opacity:1; 
stroke-linecap:round; stroke-linejoin:round;">
<rect x="43600.000000" y="41000.000000" width="800.000000" height="2000.000000" rx="0.000000" />
</g>
<g style="fill:#840000; fill-opacity:0.0; 
stroke:#840000; stroke-width:60.000000; stroke-opacity:1; 
stroke-linecap:round; stroke-linejoin:round;">
<path d="M44000 41000
L44000 40500
" />
<path d="M44000 43000
L44000 43500
" />
</g>
<g style="fill:#006464; fill-opacity:0.0; 
stroke:#006464; stroke-width:60.000000; stroke-opacity:1; 
stroke-linecap:round; stroke-linejoin:round;">
<text x="45457.440945" y="41789.960630"
textLength="1512.362205" font-size="666.653543" lengthAdjust="spacingAndGlyphs"
text-anchor="middle" opacity="0">R28</text>
<g class="stroked-text"><desc>R28</desc>
<path d="M45135 41766
L44969 41528
" />
<path d="M44850 41766
L44850 41266
L45040 41266
L45088 41289
L45112 41313
L45135 41361
L45135 41432
L45112 41480
L45088 41504
L45040 41528
L44850 41528
" />
<path d="M45326 41313
L45350 41289
L45397 41266
L45516 41266
L45564 41289
L45588 41313
L45612 41361
L45612 41408
L45588 41480
L45302 41766
L45612 41766
" />
<path d="M45897 41480
L45850 41456
L45826 41432
L45802 41385
L45802 41361
L45826 41313
L45850 41289
L45897 41266
L45993 41266
L46040 41289
L46064 41313
L46088 41361
L46088 41385
L46064 41432
L46040 41456
L45993 41480
L45897 41480
L45850 41504
L45826 41528
L45802 41575
L45802 41670
L45826 41718
L45850 41742
L45897 41766
L45993 41766
L46040 41742
L46064 41718
L46088 41670
L46088 41575
L46064 41528
L46040 41504
L45993 41480
" />
</g><text x="45457.440945" y="42699.960630"
textLength="1512.362205" font-size="666.653543" lengthAdjust="spacingAndGlyphs"
text-anchor="middle" opacity="0">10K</text>
<g class="stroked-text"><desc>10K</desc>
<path d="M45112 42676
L44826 42676
" />
<path d="M44969 42676
L44969 42176
L44921 42247
L44874 42295
L44826 42318
" />
<path d="M45421 42176
L45469 42176
L45516 42199
L45540 42223
L45564 42271
L45588 42366
L45588 42485
L45564 42580
L45540 42628
L45516 42652
L45469 42676
L45421 42676
L45374 42652
L45350 42628
L45326 42580
L45302 42485
L45302 42366
L45326 42271
L45350 42223
L45374 42199
L45421 42176
" />
<path d="M45802 42676
L45802 42176
" />
<path d="M46088 42676
L45874 42390
" />
<path d="M46088 42176
L45802 42461
" />
</g></g>
</g>
<g style="fill:#006464; fill-opacity:0.0; 
stroke:#006464; stroke-width:60.000000; stroke-opacity:1; 
stroke-linecap:round; stroke-linejoin:round;">
<g >
</g>
<g style="fill:#840000; fill-opacity:0.0; 
stroke:#840000; stroke-width:60.000000; stroke-opacity:1; 
stroke-linecap:round; stroke-linejoin:round;">
<path style="fill:#840000; fill-opacity:0.0; 
stroke:#840000; stroke-width:60.000000; stroke-opacity:1; 
stroke-linecap:round; stroke-linejoin:round;fill:none"
d="M 43700.000000,27500.000000
44000.000000,27000.000000
" /> 
<path style="fill:#840000; fill-opacity:0.0; 
stroke:#840000; stroke-width:60.000000; stroke-opacity:1; 
stroke-linecap:round; stroke-linejoin:round;fill:none"
d="M 44000.000000,28000.000000
44000.000000,27000.000000
" /> 
<path style="fill:#840000; fill-opacity:0.0; 
stroke:#840000; stroke-width:60.000000; stroke-opacity:1; 
stroke-linecap:round; stroke-linejoin:round;fill:none"
d="M 44000.000000,27000.000000
44300.000000,27500.000000
" /> 
</g>
<g style="fill:#006464; fill-opacity:0.0; 
stroke:#006464; stroke-width:60.000000; stroke-opacity:1; 
stroke-linecap:round; stroke-linejoin:round;">
<text x="44150.000000" y="26519.960630"
textLength="2060.000000" font-size="666.653543" lengthAdjust="spacingAndGlyphs"
text-anchor="middle" opacity="0">+3V3</text>
<g class="stroked-text"><desc>+3V3</desc>
<path d="M43269 26305
L43650 26305
" />
<path d="M43459 26496
L43459 26115
" />
<path d="M43840 25996
L44150 25996
L43983 26186
L44054 26186
L44102 26210
L44126 26234
L44150 26281
L44150 26400
L44126 26448
L44102 26472
L44054 26496
L43911 26496
L43864 26472
L43840 26448
" />
<path d="M44292 25996
L44459 26496
L44626 25996
" />
<path d="M44745 25996
L45054 25996
L44888 26186
L44959 26186
L45007 26210
L45030 26234
L45054 26281
L45054 26400
L45030 26448
L45007 26472
L44959 26496
L44816 26496
L44769 26472
L44745 26448
" />
</g></g>
</g>
<g style="fill:#006464; fill-opacity:0.0; 
stroke:#006464; stroke-width:60.000000; stroke-opacity:1; 
stroke-linecap:round; stroke-linejoin:round;">
<g >
</g>
<g style="fill:#840000; fill-opacity:0.0; 
stroke:#840000; stroke-width:60.000000; stroke-opacity:1; 
stroke-linecap:round; stroke-linejoin:round;">
</g>
<g style="fill:#840000; fill-opacity:0.0; 
stroke:#840000; stroke-width:100.000000; stroke-opacity:1; 
stroke-linecap:round; stroke-linejoin:round;">
<rect x="70600.000000" y="41000.000000" width="800.000000" height="2000.000000" rx="0.000000" />
</g>
<g style="fill:#840000; fill-opacity:0.0; 
stroke:#840000; stroke-width:60.000000; stroke-opacity:1; 
stroke-linecap:round; stroke-linejoin:round;">
<path d="M71000 41000
L71000 40500
" />
<path d="M71000 43000
L71000 43500
" />
</g>
<g style="fill:#006464; fill-opacity:0.0; 
stroke:#006464; stroke-width:60.000000; stroke-opacity:1; 
stroke-linecap:round; stroke-linejoin:round;">
<text x="72457.440945" y="41789.960630"
textLength="1512.362205" font-size="666.653543" lengthAdjust="spacingAndGlyphs"
text-anchor="middle" opacity="0">R29</text>
<g class="stroked-text"><desc>R29</desc>
<path d="M72135 41766
L71969 41528
" />
<path d="M71850 41766
L71850 41266
L72040 41266
L72088 41289
L72112 41313
L72135 41361
L72135 41432
L72112 41480
L72088 41504
L72040 41528
L71850 41528
" />
<path d="M72326 41313
L72350 41289
L72397 41266
L72516 41266
L72564 41289
L72588 41313
L72612 41361
L72612 41408
L72588 41480
L72302 41766
L72612 41766
" />
<path d="M72850 41766
L72945 41766
L72993 41742
L73016 41718
L73064 41647
L73088 41551
L73088 41361
L73064 41313
L73040 41289
L72993 41266
L72897 41266
L72850 41289
L72826 41313
L72802 41361
L72802 41480
L72826 41528
L72850 41551
L72897 41575
L72993 41575
L73040 41551
L73064 41528
L73088 41480
" />
</g><text x="72457.440945" y="42699.960630"
textLength="1512.362205" font-size="666.653543" lengthAdjust="spacingAndGlyphs"
text-anchor="middle" opacity="0">10K</text>
<g class="stroked-text"><desc>10K</desc>
<path d="M72112 42676
L71826 42676
" />
<path d="M71969 42676
L71969 42176
L71921 42247
L71874 42295
L71826 42318
" />
<path d="M72421 42176
L72469 42176
L72516 42199
L72540 42223
L72564 42271
L72588 42366
L72588 42485
L72564 42580
L72540 42628
L72516 42652
L72469 42676
L72421 42676
L72374 42652
L72350 42628
L72326 42580
L72302 42485
L72302 42366
L72326 42271
L72350 42223
L72374 42199
L72421 42176
" />
<path d="M72802 42676
L72802 42176
" />
<path d="M73088 42676
L72874 42390
" />
<path d="M73088 42176
L72802 42461
" />
</g></g>
</g>
<g style="fill:#006464; fill-opacity:0.0; 
stroke:#006464; stroke-width:62.519685; stroke-opacity:1; 
stroke-linecap:round; stroke-linejoin:round;">
</g>
<g style="fill:#006464; fill-opacity:0.0; 
stroke:#006464; stroke-width:60.000000; stroke-opacity:1; 
stroke-linecap:round; stroke-linejoin:round;">
</g>
<g style="fill:#725600; fill-opacity:0.0; 
stroke:#725600; stroke-width:60.000000; stroke-opacity:1; 
stroke-linecap:round; stroke-linejoin:round;">
<text x="87040.000000" y="38000.000000"
textLength="2345.708661" font-size="666.653543" lengthAdjust="spacingAndGlyphs"
text-anchor="start" opacity="0">ENC_A</text>
<g class="stroked-text"><desc>ENC_A</desc>
<path d="M87189 37714
L87355 37714
" />
<path d="M87427 37976
L87189 37976
L87189 37476
L87427 37476
" />
<path d="M87641 37976
L87641 37476
L87927 37976
L87927 37476
" />
<path d="M88450 37928
L88427 37952
L88355 37976
L88308 37976
L88236 37952
L88189 37904
L88165 37857
L88141 37761
L88141 37690
L88165 37595
L88189 37547
L88236 37500
L88308 37476
L88355 37476
L88427 37500
L88450 37523
" />
<path d="M88546 38023
L88927 38023
" />
<path d="M89022 37833
L89260 37833
" />
<path d="M88974 37976
L89141 37476
L89308 37976
" />
</g><path style="fill:#725600; fill-opacity:0.0; 
stroke:#725600; stroke-width:60.000000; stroke-opacity:1; 
stroke-linecap:round; stroke-linejoin:round;fill:none"
d="M 87000.000000,37750.000000
86750.000000,37500.000000
86500.000000,37500.000000
86500.000000,38000.000000
86750.000000,38000.000000
Z" /> 
</g>
<g style="fill:#725600; fill-opacity:0.0; 
stroke:#725600; stroke-width:62.519685; stroke-opacity:1; 
stroke-linecap:round; stroke-linejoin:round;">
</g>
<g style="fill:#725600; fill-opacity:0.0; 
stroke:#725600; stroke-width:60.000000; stroke-opacity:1; 
stroke-linecap:round; stroke-linejoin:round;">
<text x="87040.000000" y="36750.000000"
textLength="2964.763780" font-size="666.653543" lengthAdjust="spacingAndGlyphs"
text-anchor="start" opacity="0">ENC_SW</text>
<g class="stroked-text"><desc>ENC_SW</desc>
<path d="M87189 36464
L87355 36464
" />
<path d="M87427 36726
L87189 36726
L87189 36226
L87427 36226
" />
<path d="M87641 36726
L87641 36226
L87927 36726
L87927 36226
" />
<path d="M88450 36678
L88427 36702
L88355 36726
L88308 36726
L88236 36702
L88189 36654
L88165 36607
L88141 36511
L88141 36440
L88165 36345
L88189 36297
L88236 36250
L88308 36226
L88355 36226
L88427 36250
L88450 36273
" />
<path d="M88546 36773
L88927 36773
" />
<path d="M89022 36702
L89093 36726
L89212 36726
L89260 36702
L89284 36678
L89308 36630
L89308 36583
L89284 36535
L89260 36511
L89212 36488
L89117 36464
L89070 36440
L89046 36416
L89022 36369
L89022 36321
L89046 36273
L89070 36250
L89117 36226
L89236 36226
L89308 36250
" />
<path d="M89474 36226
L89593 36726
L89689 36369
L89784 36726
L89903 36226
" />
</g><path style="fill:#725600; fill-opacity:0.0; 
stroke:#725600; stroke-width:60.000000; stroke-opacity:1; 
stroke-linecap:round; stroke-linejoin:round;fill:none"
d="M 87000.000000,36500.000000
86750.000000,36250.000000
86500.000000,36250.000000
86500.000000,36750.000000
86750.000000,36750.000000
Z" /> 
</g>
<g style="fill:#725600; fill-opacity:0.0; 
stroke:#725600; stroke-width:62.519685; stroke-opacity:1; 
stroke-linecap:round; stroke-linejoin:round;">
</g>
<g style="fill:#725600; fill-opacity:0.0; 
stroke:#725600; stroke-width:60.000000; stroke-opacity:1; 
stroke-linecap:round; stroke-linejoin:round;">
<text x="87040.000000" y="39250.000000"
textLength="2417.125984" font-size="666.653543" lengthAdjust="spacingAndGlyphs"
text-anchor="start" opacity="0">ENC_B</text>
<g class="stroked-text"><desc>ENC_B</desc>
<path d="M87189 38964
L87355 38964
" />
<path d="M87427 39226
L87189 39226
L87189 38726
L87427 38726
" />
<path d="M87641 39226
L87641 38726
L87927 39226
L87927 38726
" />
<path d="M88450 39178
L88427 39202
L88355 39226
L88308 39226
L88236 39202
L88189 39154
L88165 39107
L88141 39011
L88141 38940
L88165 38845
L88189 38797
L88236 38750
L88308 38726
L88355 38726
L88427 38750
L88450 38773
" />
<path d="M88546 39273
L88927 39273
" />
<path d="M89212 38964
L89284 38988
L89308 39011
L89331 39059
L89331 39130
L89308 39178
L89284 39202
L89236 39226
L89046 39226
L89046 38726
L89212 38726
L89260 38750
L89284 38773
L89308 38821
L89308 38869
L89284 38916
L89260 38940
L89212 38964
L89046 38964
" />
</g><path style="fill:#725600; fill-opacity:0.0; 
stroke:#725600; stroke-width:60.000000; stroke-opacity:1; 
stroke-linecap:round; stroke-linejoin:round;fill:none"
d="M 87000.000000,39000.000000
86750.000000,38750.000000
86500.000000,38750.000000
86500.000000,39250.000000
86750.000000,39250.000000
Z" /> 
</g>
<g style="fill:#725600; fill-opacity:0.0; 
stroke:#725600; stroke-width:62.519685; stroke-opacity:1; 
stroke-linecap:round; stroke-linejoin:round;">
</g>
<g style="fill:#725600; fill-opacity:0.0; 
stroke:#725600; stroke-width:60.000000; stroke-opacity:1; 
stroke-linecap:round; stroke-linejoin:round;">
</g>
<g style="fill:#0F0F0F; fill-opacity:0.0; 
stroke:#0F0F0F; stroke-width:60.000000; stroke-opacity:1; 
stroke-linecap:round; stroke-linejoin:round;">
<text x="57250.000000" y="32397.480315"
textLength="2964.763780" font-size="666.653543" lengthAdjust="spacingAndGlyphs"
text-anchor="end" opacity="0">ENC_SW</text>
<g class="stroked-text"><desc>ENC_SW</desc>
<path d="M54434 32111
L54600 32111
" />
<path d="M54672 32373
L54434 32373
L54434 31873
L54672 31873
" />
<path d="M54886 32373
L54886 31873
L55172 32373
L55172 31873
" />
<path d="M55696 32326
L55672 32349
L55600 32373
L55553 32373
L55481 32349
L55434 32302
L55410 32254
L55386 32159
L55386 32087
L55410 31992
L55434 31945
L55481 31897
L55553 31873
L55600 31873
L55672 31897
L55696 31921
" />
<path d="M55791 32421
L56172 32421
" />
<path d="M56267 32349
L56339 32373
L56458 32373
L56505 32349
L56529 32326
L56553 32278
L56553 32230
L56529 32183
L56505 32159
L56458 32135
L56362 32111
L56315 32087
L56291 32064
L56267 32016
L56267 31968
L56291 31921
L56315 31897
L56362 31873
L56481 31873
L56553 31897
" />
<path d="M56720 31873
L56839 32373
L56934 32016
L57029 32373
L57148 31873
" />
</g></g>
<g style="fill:#0F0F0F; fill-opacity:0.0; 
stroke:#0F0F0F; stroke-width:62.519685; stroke-opacity:1; 
stroke-linecap:round; stroke-linejoin:round;">
</g>
<g style="fill:#0F0F0F; fill-opacity:0.0; 
stroke:#0F0F0F; stroke-width:60.000000; stroke-opacity:1; 
stroke-linecap:round; stroke-linejoin:round;">
<text x="74000.000000" y="47397.480315"
textLength="2417.125984" font-size="666.653543" lengthAdjust="spacingAndGlyphs"
text-anchor="end" opacity="0">ENC_B</text>
<g class="stroked-text"><desc>ENC_B</desc>
<path d="M71731 47111
L71898 47111
" />
<path d="M71970 47373
L71731 47373
L71731 46873
L71970 46873
" />
<path d="M72184 47373
L72184 46873
L72470 47373
L72470 46873
" />
<path d="M72993 47326
L72970 47349
L72898 47373
L72850 47373
L72779 47349
L72731 47302
L72708 47254
L72684 47159
L72684 47087
L72708 46992
L72731 46945
L72779 46897
L72850 46873
L72898 46873
L72970 46897
L72993 46921
" />
<path d="M73089 47421
L73470 47421
" />
<path d="M73755 47111
L73827 47135
L73850 47159
L73874 47206
L73874 47278
L73850 47326
L73827 47349
L73779 47373
L73589 47373
L73589 46873
L73755 46873
L73803 46897
L73827 46921
L73850 46968
L73850 47016
L73827 47064
L73803 47087
L73755 47111
L73589 47111
" />
</g></g>
<g style="fill:#0F0F0F; fill-opacity:0.0; 
stroke:#0F0F0F; stroke-width:62.519685; stroke-opacity:1; 
stroke-linecap:round; stroke-linejoin:round;">
</g>
<g style="fill:#0F0F0F; fill-opacity:0.0; 
stroke:#0F0F0F; stroke-width:60.000000; stroke-opacity:1; 
stroke-linecap:round; stroke-linejoin:round;">
<text x="41000.000000" y="47397.480315"
textLength="2345.708661" font-size="666.653543" lengthAdjust="spacingAndGlyphs"
text-anchor="start" opacity="0">ENC_A</text>
<g class="stroked-text"><desc>ENC_A</desc>
<path d="M41149 47111
L41315 47111
" />
<path d="M41387 47373
L41149 47373
L41149 46873
L41387 46873
" />
<path d="M41601 47373
L41601 46873
L41887 47373
L41887 46873
" />
<path d="M42410 47326
L42387 47349
L42315 47373
L42268 47373
L42196 47349
L42149 47302
L42125 47254
L42101 47159
L42101 47087
L42125 46992
L42149 46945
L42196 46897
L42268 46873
L42315 46873
L42387 46897
L42410 46921
" />
<path d="M42506 47421
L42887 47421
" />
<path d="M42982 47230
L43220 47230
" />
<path d="M42934 47373
L43101 46873
L43268 47373
" />
</g></g>
<g style="fill:#0F0F0F; fill-opacity:0.0; 
stroke:#0F0F0F; stroke-width:62.519685; stroke-opacity:1; 
stroke-linecap:round; stroke-linejoin:round;">
</g>
<g style="fill:#0F0F0F; fill-opacity:0.0; 
stroke:#0F0F0F; stroke-width:60.000000; stroke-opacity:1; 
stroke-linecap:round; stroke-linejoin:round;">
<text x="80750.000000" y="37647.480315"
textLength="2345.708661" font-size="666.653543" lengthAdjust="spacingAndGlyphs"
text-anchor="start" opacity="0">ENC_A</text>
<g class="stroked-text"><desc>ENC_A</desc>
<path d="M80899 37361
L81065 37361
" />
<path d="M81137 37623
L80899 37623
L80899 37123
L81137 37123
" />
<path d="M81351 37623
L81351 37123
L81637 37623
L81637 37123
" />
<path d="M82160 37576
L82137 37599
L82065 37623
L82018 37623
L81946 37599
L81899 37552
L81875 37504
L81851 37409
L81851 37337
L81875 37242
L81899 37195
L81946 37147
L82018 37123
L82065 37123
L82137 37147
L82160 37171
" />
<path d="M82256 37671
L82637 37671
" />
<path d="M82732 37480
L82970 37480
" />
<path d="M82684 37623
L82851 37123
L83018 37623
" />
</g></g>
<g style="fill:#0F0F0F; fill-opacity:0.0; 
stroke:#0F0F0F; stroke-width:62.519685; stroke-opacity:1; 
stroke-linecap:round; stroke-linejoin:round;">
</g>
<g style="fill:#0F0F0F; fill-opacity:0.0; 
stroke:#0F0F0F; stroke-width:60.000000; stroke-opacity:1; 
stroke-linecap:round; stroke-linejoin:round;">
<text x="80750.000000" y="36397.480315"
textLength="2964.763780" font-size="666.653543" lengthAdjust="spacingAndGlyphs"
text-anchor="start" opacity="0">ENC_SW</text>
<g class="stroked-text"><desc>ENC_SW</desc>
<path d="M80899 36111
L81065 36111
" />
<path d="M81137 36373
L80899 36373
L80899 35873
L81137 35873
" />
<path d="M81351 36373
L81351 35873
L81637 36373
L81637 35873
" />
<path d="M82160 36326
L82137 36349
L82065 36373
L82018 36373
L81946 36349
L81899 36302
L81875 36254
L81851 36159
L81851 36087
L81875 35992
L81899 35945
L81946 35897
L82018 35873
L82065 35873
L82137 35897
L82160 35921
" />
<path d="M82256 36421
L82637 36421
" />
<path d="M82732 36349
L82803 36373
L82922 36373
L82970 36349
L82994 36326
L83018 36278
L83018 36230
L82994 36183
L82970 36159
L82922 36135
L82827 36111
L82780 36087
L82756 36064
L82732 36016
L82732 35968
L82756 35921
L82780 35897
L82827 35873
L82946 35873
L83018 35897
" />
<path d="M83184 35873
L83303 36373
L83399 36016
L83494 36373
L83613 35873
" />
</g></g>
<g style="fill:#0F0F0F; fill-opacity:0.0; 
stroke:#0F0F0F; stroke-width:62.519685; stroke-opacity:1; 
stroke-linecap:round; stroke-linejoin:round;">
</g>
<g style="fill:#0F0F0F; fill-opacity:0.0; 
stroke:#0F0F0F; stroke-width:60.000000; stroke-opacity:1; 
stroke-linecap:round; stroke-linejoin:round;">
<text x="80750.000000" y="38897.480315"
textLength="2417.125984" font-size="666.653543" lengthAdjust="spacingAndGlyphs"
text-anchor="start" opacity="0">ENC_B</text>
<g class="stroked-text"><desc>ENC_B</desc>
<path d="M80899 38611
L81065 38611
" />
<path d="M81137 38873
L80899 38873
L80899 38373
L81137 38373
" />
<path d="M81351 38873
L81351 38373
L81637 38873
L81637 38373
" />
<path d="M82160 38826
L82137 38849
L82065 38873
L82018 38873
L81946 38849
L81899 38802
L81875 38754
L81851 38659
L81851 38587
L81875 38492
L81899 38445
L81946 38397
L82018 38373
L82065 38373
L82137 38397
L82160 38421
" />
<path d="M82256 38921
L82637 38921
" />
<path d="M82922 38611
L82994 38635
L83018 38659
L83041 38706
L83041 38778
L83018 38826
L82994 38849
L82946 38873
L82756 38873
L82756 38373
L82922 38373
L82970 38397
L82994 38421
L83018 38468
L83018 38516
L82994 38564
L82970 38587
L82922 38611
L82756 38611
" />
</g></g>
<g style="fill:#009600; fill-opacity:0.0; 
stroke:#009600; stroke-width:60.000000; stroke-opacity:1; 
stroke-linecap:round; stroke-linejoin:round;">
<path d="M71000 28000
L71000 40500
" />
<path d="M44000 47500
L44000 43500
" />
<path d="M86500 39000
L80750 39000
" />
<path d="M44000 28000
L44000 40500
" />
<path d="M86500 37750
L80750 37750
" />
<path d="M44000 47500
L41000 47500
" />
<path d="M80750 36500
L86500 36500
" />
<path d="M59250 44000
L59250 47500
" />
<path d="M57250 44000
L57250 47500
" />
<path d="M58250 44000
L58250 51000
" />
<path d="M57250 47500
L44000 47500
" />
<path d="M61250 32500
L61250 34500
" />
<path d="M57250 32500
L57250 38000
" />
<path d="M59250 38000
L59250 32500
" />
<path d="M59250 32500
L61250 32500
" />
<path d="M59250 47500
L71000 47500
" />
<path d="M71000 47500
L71000 43500
" />
<path d="M71000 47500
L74000 47500
" />
</g>
<g style="fill:#009600; fill-opacity:1.0; 
stroke:#009600; stroke-width:60.000000; stroke-opacity:1; 
stroke-linecap:round; stroke-linejoin:round;">
<circle cx="71000.000000" cy="47500.000000" r="180.000000" /> 
<circle cx="44000.000000" cy="47500.000000" r="180.000000" /> 
</g> 
</svg>
