<?xml version="1.0" standalone="no"?>
 <!DOCTYPE svg PUBLIC "-//W3C//DTD SVG 1.1//EN" 
 "http://www.w3.org/Graphics/SVG/1.1/DTD/svg11.dtd"> 
<svg
  xmlns:svg="http://www.w3.org/2000/svg"
  xmlns="http://www.w3.org/2000/svg"
  xmlns:xlink="http://www.w3.org/1999/xlink"
  version="1.1"
  width="29.700220cm" height="21.000720cm" viewBox="0 0 116930 82680">
<title>SVG Picture created as BassStation_Sequencer_MidiInterface-MCU-MicroSD.svg date 2022/04/15 23:52:43 </title>
  <desc>Picture generated by Eeschema-SVG </desc>
<g style="fill:#000000; fill-opacity:1.000000;stroke:#000000; stroke-opacity:1.000000;
stroke-linecap:round; stroke-linejoin:round;"
 transform="translate(0 0) scale(1 1)">
</g>
<g style="fill:#840000; fill-opacity:0.0; 
stroke:#840000; stroke-width:0.000000; stroke-opacity:1; 
stroke-linecap:round; stroke-linejoin:round;">
</g>
<g style="fill:#840000; fill-opacity:0.0; 
stroke:#840000; stroke-width:60.000000; stroke-opacity:1; 
stroke-linecap:round; stroke-linejoin:round;">
<rect x="69685.905512" y="65357.165354" width="42519.685039" height="12598.425197" rx="0.000000" />
<rect x="3937.007874" y="3937.007874" width="109055.984252" height="74805.984252" rx="0.000000" />
<rect x="4724.409449" y="4724.409449" width="107481.181102" height="73231.181102" rx="0.000000" />
<path d="M23622 4724
L23622 3937
" />
<path d="M43307 4724
L43307 3937
" />
<path d="M62992 4724
L62992 3937
" />
<path d="M82677 4724
L82677 3937
" />
<path d="M102362 4724
L102362 3937
" />
<text x="13779.527559" y="4586.614173"
textLength="549.960630" font-size="682.401575" lengthAdjust="spacingAndGlyphs"
text-anchor="start" opacity="0">1</text>
<g class="stroked-text"><desc>1</desc>
<path d="M14199 4562
L13907 4562
" />
<path d="M14053 4562
L14053 4050
L14004 4123
L13955 4172
L13907 4196
" />
</g><text x="33464.566929" y="4586.614173"
textLength="547.440945" font-size="682.401575" lengthAdjust="spacingAndGlyphs"
text-anchor="start" opacity="0">2</text>
<g class="stroked-text"><desc>2</desc>
<path d="M33592 4099
L33616 4074
L33665 4050
L33787 4050
L33835 4074
L33860 4099
L33884 4147
L33884 4196
L33860 4269
L33567 4562
L33884 4562
" />
</g><text x="53149.606299" y="4586.614173"
textLength="547.440945" font-size="682.401575" lengthAdjust="spacingAndGlyphs"
text-anchor="start" opacity="0">3</text>
<g class="stroked-text"><desc>3</desc>
<path d="M53252 4050
L53569 4050
L53398 4245
L53472 4245
L53520 4269
L53545 4294
L53569 4342
L53569 4464
L53545 4513
L53520 4537
L53472 4562
L53325 4562
L53277 4537
L53252 4513
" />
</g><text x="72834.645669" y="4586.614173"
textLength="547.440945" font-size="682.401575" lengthAdjust="spacingAndGlyphs"
text-anchor="start" opacity="0">4</text>
<g class="stroked-text"><desc>4</desc>
<path d="M73205 4221
L73205 4562
" />
<path d="M73083 4026
L72962 4391
L73278 4391
" />
</g><text x="92519.685039" y="4586.614173"
textLength="547.440945" font-size="682.401575" lengthAdjust="spacingAndGlyphs"
text-anchor="start" opacity="0">5</text>
<g class="stroked-text"><desc>5</desc>
<path d="M92915 4050
L92671 4050
L92647 4294
L92671 4269
L92720 4245
L92842 4245
L92890 4269
L92915 4294
L92939 4342
L92939 4464
L92915 4513
L92890 4537
L92842 4562
L92720 4562
L92671 4537
L92647 4513
" />
</g><text x="112204.724409" y="4586.614173"
textLength="547.440945" font-size="682.401575" lengthAdjust="spacingAndGlyphs"
text-anchor="start" opacity="0">6</text>
<g class="stroked-text"><desc>6</desc>
<path d="M112575 4050
L112478 4050
L112429 4074
L112405 4099
L112356 4172
L112332 4269
L112332 4464
L112356 4513
L112380 4537
L112429 4562
L112527 4562
L112575 4537
L112600 4513
L112624 4464
L112624 4342
L112600 4294
L112575 4269
L112527 4245
L112429 4245
L112380 4269
L112356 4294
L112332 4342
" />
</g><path d="M23622 77955
L23622 78742
" />
<path d="M43307 77955
L43307 78742
" />
<path d="M62992 77955
L62992 78742
" />
<path d="M82677 77955
L82677 78742
" />
<path d="M102362 77955
L102362 78742
" />
<text x="13779.527559" y="78605.196850"
textLength="547.440945" font-size="682.401575" lengthAdjust="spacingAndGlyphs"
text-anchor="start" opacity="0">1</text>
<g class="stroked-text"><desc>1</desc>
<path d="M14199 78580
L13907 78580
" />
<path d="M14053 78580
L14053 78068
L14004 78142
L13955 78190
L13907 78215
" />
</g><text x="33464.566929" y="78605.196850"
textLength="547.440945" font-size="682.401575" lengthAdjust="spacingAndGlyphs"
text-anchor="start" opacity="0">2</text>
<g class="stroked-text"><desc>2</desc>
<path d="M33592 78117
L33616 78093
L33665 78068
L33787 78068
L33835 78093
L33860 78117
L33884 78166
L33884 78215
L33860 78288
L33567 78580
L33884 78580
" />
</g><text x="53149.606299" y="78605.196850"
textLength="547.440945" font-size="682.401575" lengthAdjust="spacingAndGlyphs"
text-anchor="start" opacity="0">3</text>
<g class="stroked-text"><desc>3</desc>
<path d="M53252 78068
L53569 78068
L53398 78263
L53472 78263
L53520 78288
L53545 78312
L53569 78361
L53569 78483
L53545 78532
L53520 78556
L53472 78580
L53325 78580
L53277 78556
L53252 78532
" />
</g><text x="72834.645669" y="78605.196850"
textLength="547.440945" font-size="682.401575" lengthAdjust="spacingAndGlyphs"
text-anchor="start" opacity="0">4</text>
<g class="stroked-text"><desc>4</desc>
<path d="M73205 78239
L73205 78580
" />
<path d="M73083 78044
L72962 78410
L73278 78410
" />
</g><text x="92519.685039" y="78605.196850"
textLength="547.440945" font-size="682.401575" lengthAdjust="spacingAndGlyphs"
text-anchor="start" opacity="0">5</text>
<g class="stroked-text"><desc>5</desc>
<path d="M92915 78068
L92671 78068
L92647 78312
L92671 78288
L92720 78263
L92842 78263
L92890 78288
L92915 78312
L92939 78361
L92939 78483
L92915 78532
L92890 78556
L92842 78580
L92720 78580
L92671 78556
L92647 78532
" />
</g><text x="112204.724409" y="78605.196850"
textLength="547.440945" font-size="682.401575" lengthAdjust="spacingAndGlyphs"
text-anchor="start" opacity="0">6</text>
<g class="stroked-text"><desc>6</desc>
<path d="M112575 78068
L112478 78068
L112429 78093
L112405 78117
L112356 78190
L112332 78288
L112332 78483
L112356 78532
L112380 78556
L112429 78580
L112527 78580
L112575 78556
L112600 78532
L112624 78483
L112624 78361
L112600 78312
L112575 78288
L112527 78263
L112429 78263
L112380 78288
L112356 78312
L112332 78361
" />
</g><path d="M3937 23622
L4724 23622
" />
<path d="M3937 43307
L4724 43307
" />
<path d="M3937 62992
L4724 62992
" />
<text x="4330.708661" y="14035.433071"
textLength="498.700787" font-size="682.401575" lengthAdjust="spacingAndGlyphs"
text-anchor="middle" opacity="0">A</text>
<g class="stroked-text"><desc>A</desc>
<path d="M4208 13864
L4452 13864
" />
<path d="M4160 14011
L4330 13499
L4501 14011
" />
</g><text x="4330.708661" y="33720.472441"
textLength="571.811024" font-size="682.401575" lengthAdjust="spacingAndGlyphs"
text-anchor="middle" opacity="0">B</text>
<g class="stroked-text"><desc>B</desc>
<path d="M4367 33427
L4440 33452
L4464 33476
L4489 33525
L4489 33598
L4464 33647
L4440 33671
L4391 33696
L4196 33696
L4196 33184
L4367 33184
L4415 33208
L4440 33233
L4464 33281
L4464 33330
L4440 33379
L4415 33403
L4367 33427
L4196 33427
" />
</g><text x="4330.708661" y="53405.511811"
textLength="571.811024" font-size="682.401575" lengthAdjust="spacingAndGlyphs"
text-anchor="middle" opacity="0">C</text>
<g class="stroked-text"><desc>C</desc>
<path d="M4489 53332
L4464 53356
L4391 53381
L4342 53381
L4269 53356
L4221 53307
L4196 53259
L4172 53161
L4172 53088
L4196 52991
L4221 52942
L4269 52893
L4342 52869
L4391 52869
L4464 52893
L4489 52918
" />
</g><text x="4330.708661" y="73090.551181"
textLength="571.811024" font-size="682.401575" lengthAdjust="spacingAndGlyphs"
text-anchor="middle" opacity="0">D</text>
<g class="stroked-text"><desc>D</desc>
<path d="M4196 73066
L4196 72554
L4318 72554
L4391 72578
L4440 72627
L4464 72676
L4489 72773
L4489 72846
L4464 72944
L4440 72993
L4391 73041
L4318 73066
L4196 73066
" />
</g><path d="M112992 23622
L112205 23622
" />
<path d="M112992 43307
L112205 43307
" />
<path d="M112992 62992
L112205 62992
" />
<text x="112599.291339" y="14035.433071"
textLength="498.700787" font-size="682.401575" lengthAdjust="spacingAndGlyphs"
text-anchor="middle" opacity="0">A</text>
<g class="stroked-text"><desc>A</desc>
<path d="M112477 13864
L112721 13864
" />
<path d="M112428 14011
L112599 13499
L112769 14011
" />
</g><text x="112599.291339" y="33720.472441"
textLength="571.811024" font-size="682.401575" lengthAdjust="spacingAndGlyphs"
text-anchor="middle" opacity="0">B</text>
<g class="stroked-text"><desc>B</desc>
<path d="M112635 33427
L112708 33452
L112733 33476
L112757 33525
L112757 33598
L112733 33647
L112708 33671
L112660 33696
L112465 33696
L112465 33184
L112635 33184
L112684 33208
L112708 33233
L112733 33281
L112733 33330
L112708 33379
L112684 33403
L112635 33427
L112465 33427
" />
</g><text x="112599.291339" y="53405.511811"
textLength="571.811024" font-size="682.401575" lengthAdjust="spacingAndGlyphs"
text-anchor="middle" opacity="0">C</text>
<g class="stroked-text"><desc>C</desc>
<path d="M112757 53332
L112733 53356
L112660 53381
L112611 53381
L112538 53356
L112489 53307
L112465 53259
L112440 53161
L112440 53088
L112465 52991
L112489 52942
L112538 52893
L112611 52869
L112660 52869
L112733 52893
L112757 52918
" />
</g><text x="112599.291339" y="73090.551181"
textLength="571.811024" font-size="682.401575" lengthAdjust="spacingAndGlyphs"
text-anchor="middle" opacity="0">D</text>
<g class="stroked-text"><desc>D</desc>
<path d="M112465 73066
L112465 72554
L112587 72554
L112660 72578
L112708 72627
L112733 72676
L112757 72773
L112757 72846
L112733 72944
L112708 72993
L112660 73041
L112587 73066
L112465 73066
" />
</g><text x="78741.023622" y="76321.732283"
textLength="2759.645669" font-size="787.401575" lengthAdjust="spacingAndGlyphs"
text-anchor="start" opacity="0">Date: </text>
<g class="stroked-text"><desc>Date: </desc>
<path d="M78911 76293
L78911 75703
L79052 75703
L79136 75731
L79192 75787
L79220 75843
L79249 75956
L79249 76040
L79220 76152
L79192 76209
L79136 76265
L79052 76293
L78911 76293
" />
<path d="M79755 76293
L79755 75984
L79727 75928
L79670 75899
L79558 75899
L79502 75928
" />
<path d="M79755 76265
L79699 76293
L79558 76293
L79502 76265
L79474 76209
L79474 76152
L79502 76096
L79558 76068
L79699 76068
L79755 76040
" />
<path d="M79952 75899
L80177 75899
" />
<path d="M80036 75703
L80036 76209
L80064 76265
L80120 76293
L80177 76293
" />
<path d="M80598 76265
L80542 76293
L80430 76293
L80373 76265
L80345 76209
L80345 75984
L80373 75928
L80430 75899
L80542 75899
L80598 75928
L80627 75984
L80627 76040
L80345 76096
" />
<path d="M80880 76237
L80908 76265
L80880 76293
L80852 76265
L80880 76237
L80880 76293
" />
<path d="M80880 75928
L80908 75956
L80880 75984
L80852 75956
L80880 75928
L80880 75984
" />
</g><path d="M69685 76577
L112205 76577
" />
<text x="70079.606299" y="77424.094488"
textLength="26212.992126" font-size="787.401575" lengthAdjust="spacingAndGlyphs"
text-anchor="start" opacity="0">KiCad E.D.A.  kicad 6.0.4-6f826c9f35~116~ubuntu20.04.1</text>
<g class="stroked-text"><desc>KiCad E.D.A.  kicad 6.0.4-6f826c9f35~116~ubuntu20.04.1</desc>
<path d="M70250 77395
L70250 76805
" />
<path d="M70587 77395
L70334 77058
" />
<path d="M70587 76805
L70250 77142
" />
<path d="M70840 77395
L70840 77002
" />
<path d="M70840 76805
L70812 76833
L70840 76861
L70868 76833
L70840 76805
L70840 76861
" />
<path d="M71459 77339
L71431 77367
L71346 77395
L71290 77395
L71206 77367
L71150 77311
L71121 77255
L71093 77142
L71093 77058
L71121 76946
L71150 76889
L71206 76833
L71290 76805
L71346 76805
L71431 76833
L71459 76861
" />
<path d="M71965 77395
L71965 77086
L71937 77030
L71881 77002
L71768 77002
L71712 77030
" />
<path d="M71965 77367
L71909 77395
L71768 77395
L71712 77367
L71684 77311
L71684 77255
L71712 77199
L71768 77170
L71909 77170
L71965 77142
" />
<path d="M72499 77395
L72499 76805
" />
<path d="M72499 77367
L72443 77395
L72331 77395
L72274 77367
L72246 77339
L72218 77283
L72218 77114
L72246 77058
L72274 77030
L72331 77002
L72443 77002
L72499 77030
" />
<path d="M73231 77086
L73427 77086
" />
<path d="M73512 77395
L73231 77395
L73231 76805
L73512 76805
" />
<path d="M73765 77339
L73793 77367
L73765 77395
L73737 77367
L73765 77339
L73765 77395
" />
<path d="M74046 77395
L74046 76805
L74187 76805
L74271 76833
L74327 76889
L74355 76946
L74384 77058
L74384 77142
L74355 77255
L74327 77311
L74271 77367
L74187 77395
L74046 77395
" />
<path d="M74637 77339
L74665 77367
L74637 77395
L74609 77367
L74637 77339
L74637 77395
" />
<path d="M74890 77227
L75171 77227
" />
<path d="M74834 77395
L75030 76805
L75227 77395
" />
<path d="M75424 77339
L75452 77367
L75424 77395
L75396 77367
L75424 77339
L75424 77395
" />
<path d="M76605 77395
L76605 76805
" />
<path d="M76661 77170
L76830 77395
" />
<path d="M76830 77002
L76605 77227
" />
<path d="M77083 77395
L77083 77002
" />
<path d="M77083 76805
L77055 76833
L77083 76861
L77111 76833
L77083 76805
L77083 76861
" />
<path d="M77618 77367
L77561 77395
L77449 77395
L77393 77367
L77364 77339
L77336 77283
L77336 77114
L77364 77058
L77393 77030
L77449 77002
L77561 77002
L77618 77030
" />
<path d="M78124 77395
L78124 77086
L78096 77030
L78039 77002
L77927 77002
L77871 77030
" />
<path d="M78124 77367
L78067 77395
L77927 77395
L77871 77367
L77842 77311
L77842 77255
L77871 77199
L77927 77170
L78067 77170
L78124 77142
" />
<path d="M78658 77395
L78658 76805
" />
<path d="M78658 77367
L78602 77395
L78489 77395
L78433 77367
L78405 77339
L78377 77283
L78377 77114
L78405 77058
L78433 77030
L78489 77002
L78602 77002
L78658 77030
" />
<path d="M79642 76805
L79530 76805
L79474 76833
L79445 76861
L79389 76946
L79361 77058
L79361 77283
L79389 77339
L79417 77367
L79474 77395
L79586 77395
L79642 77367
L79670 77339
L79699 77283
L79699 77142
L79670 77086
L79642 77058
L79586 77030
L79474 77030
L79417 77058
L79389 77086
L79361 77142
" />
<path d="M79952 77339
L79980 77367
L79952 77395
L79923 77367
L79952 77339
L79952 77395
" />
<path d="M80345 76805
L80402 76805
L80458 76833
L80486 76861
L80514 76917
L80542 77030
L80542 77170
L80514 77283
L80486 77339
L80458 77367
L80402 77395
L80345 77395
L80289 77367
L80261 77339
L80233 77283
L80205 77170
L80205 77030
L80233 76917
L80261 76861
L80289 76833
L80345 76805
" />
<path d="M80795 77339
L80823 77367
L80795 77395
L80767 77367
L80795 77339
L80795 77395
" />
<path d="M81330 77002
L81330 77395
" />
<path d="M81189 76777
L81048 77199
L81414 77199
" />
<path d="M81639 77170
L82089 77170
" />
<path d="M82623 76805
L82511 76805
L82454 76833
L82426 76861
L82370 76946
L82342 77058
L82342 77283
L82370 77339
L82398 77367
L82454 77395
L82567 77395
L82623 77367
L82651 77339
L82679 77283
L82679 77142
L82651 77086
L82623 77058
L82567 77030
L82454 77030
L82398 77058
L82370 77086
L82342 77142
" />
<path d="M82848 77002
L83073 77002
" />
<path d="M82932 77395
L82932 76889
L82961 76833
L83017 76805
L83073 76805
" />
<path d="M83354 77058
L83298 77030
L83270 77002
L83242 76946
L83242 76917
L83270 76861
L83298 76833
L83354 76805
L83467 76805
L83523 76833
L83551 76861
L83579 76917
L83579 76946
L83551 77002
L83523 77030
L83467 77058
L83354 77058
L83298 77086
L83270 77114
L83242 77170
L83242 77283
L83270 77339
L83298 77367
L83354 77395
L83467 77395
L83523 77367
L83551 77339
L83579 77283
L83579 77170
L83551 77114
L83523 77086
L83467 77058
" />
<path d="M83804 76861
L83832 76833
L83889 76805
L84029 76805
L84085 76833
L84114 76861
L84142 76917
L84142 76974
L84114 77058
L83776 77395
L84142 77395
" />
<path d="M84648 76805
L84535 76805
L84479 76833
L84451 76861
L84395 76946
L84367 77058
L84367 77283
L84395 77339
L84423 77367
L84479 77395
L84592 77395
L84648 77367
L84676 77339
L84704 77283
L84704 77142
L84676 77086
L84648 77058
L84592 77030
L84479 77030
L84423 77058
L84395 77086
L84367 77142
" />
<path d="M85210 77367
L85154 77395
L85042 77395
L84985 77367
L84957 77339
L84929 77283
L84929 77114
L84957 77058
L84985 77030
L85042 77002
L85154 77002
L85210 77030
" />
<path d="M85492 77395
L85604 77395
L85660 77367
L85688 77339
L85745 77255
L85773 77142
L85773 76917
L85745 76861
L85717 76833
L85660 76805
L85548 76805
L85492 76833
L85463 76861
L85435 76917
L85435 77058
L85463 77114
L85492 77142
L85548 77170
L85660 77170
L85717 77142
L85745 77114
L85773 77058
" />
<path d="M85941 77002
L86166 77002
" />
<path d="M86026 77395
L86026 76889
L86054 76833
L86110 76805
L86166 76805
" />
<path d="M86307 76805
L86673 76805
L86476 77030
L86560 77030
L86616 77058
L86645 77086
L86673 77142
L86673 77283
L86645 77339
L86616 77367
L86560 77395
L86391 77395
L86335 77367
L86307 77339
" />
<path d="M87207 76805
L86926 76805
L86898 77086
L86926 77058
L86982 77030
L87123 77030
L87179 77058
L87207 77086
L87235 77142
L87235 77283
L87207 77339
L87179 77367
L87123 77395
L86982 77395
L86926 77367
L86898 77339
" />
<path d="M87404 77170
L87432 77142
L87488 77114
L87601 77170
L87657 77142
L87685 77114
" />
<path d="M88219 77395
L87882 77395
" />
<path d="M88051 77395
L88051 76805
L87994 76889
L87938 76946
L87882 76974
" />
<path d="M88782 77395
L88444 77395
" />
<path d="M88613 77395
L88613 76805
L88557 76889
L88501 76946
L88444 76974
" />
<path d="M89288 76805
L89175 76805
L89119 76833
L89091 76861
L89035 76946
L89007 77058
L89007 77283
L89035 77339
L89063 77367
L89119 77395
L89232 77395
L89288 77367
L89316 77339
L89344 77283
L89344 77142
L89316 77086
L89288 77058
L89232 77030
L89119 77030
L89063 77058
L89035 77086
L89007 77142
" />
<path d="M89513 77170
L89541 77142
L89597 77114
L89710 77170
L89766 77142
L89794 77114
" />
<path d="M90272 77002
L90272 77395
" />
<path d="M90019 77002
L90019 77311
L90047 77367
L90103 77395
L90188 77395
L90244 77367
L90272 77339
" />
<path d="M90553 77395
L90553 76805
" />
<path d="M90553 77030
L90610 77002
L90722 77002
L90778 77030
L90807 77058
L90835 77114
L90835 77283
L90807 77339
L90778 77367
L90722 77395
L90610 77395
L90553 77367
" />
<path d="M91341 77002
L91341 77395
" />
<path d="M91088 77002
L91088 77311
L91116 77367
L91172 77395
L91256 77395
L91313 77367
L91341 77339
" />
<path d="M91622 77002
L91622 77395
" />
<path d="M91622 77058
L91650 77030
L91706 77002
L91791 77002
L91847 77030
L91875 77086
L91875 77395
" />
<path d="M92072 77002
L92297 77002
" />
<path d="M92156 76805
L92156 77311
L92184 77367
L92241 77395
L92297 77395
" />
<path d="M92747 77002
L92747 77395
" />
<path d="M92494 77002
L92494 77311
L92522 77367
L92578 77395
L92663 77395
L92719 77367
L92747 77339
" />
<path d="M93000 76861
L93028 76833
L93084 76805
L93225 76805
L93281 76833
L93309 76861
L93337 76917
L93337 76974
L93309 77058
L92972 77395
L93337 77395
" />
<path d="M93703 76805
L93759 76805
L93815 76833
L93844 76861
L93872 76917
L93900 77030
L93900 77170
L93872 77283
L93844 77339
L93815 77367
L93759 77395
L93703 77395
L93647 77367
L93619 77339
L93591 77283
L93562 77170
L93562 77030
L93591 76917
L93619 76861
L93647 76833
L93703 76805
" />
<path d="M94153 77339
L94181 77367
L94153 77395
L94125 77367
L94153 77339
L94153 77395
" />
<path d="M94547 76805
L94603 76805
L94659 76833
L94687 76861
L94715 76917
L94744 77030
L94744 77170
L94715 77283
L94687 77339
L94659 77367
L94603 77395
L94547 77395
L94490 77367
L94462 77339
L94434 77283
L94406 77170
L94406 77030
L94434 76917
L94462 76861
L94490 76833
L94547 76805
" />
<path d="M95250 77002
L95250 77395
" />
<path d="M95109 76777
L94968 77199
L95334 77199
" />
<path d="M95559 77339
L95587 77367
L95559 77395
L95531 77367
L95559 77339
L95559 77395
" />
<path d="M96150 77395
L95812 77395
" />
<path d="M95981 77395
L95981 76805
L95925 76889
L95868 76946
L95812 76974
" />
</g><path d="M69685 75396
L112205 75396
" />
</g>
<g style="fill:#840000; fill-opacity:0.0; 
stroke:#840000; stroke-width:118.110236; stroke-opacity:1; 
stroke-linecap:round; stroke-linejoin:round;">
<text x="103544.173228" y="76321.732283"
textLength="2337.834646" font-size="787.401575" lengthAdjust="spacingAndGlyphs"
text-anchor="start" opacity="0">Rev: </text>
<g class="stroked-text"><desc>Rev: </desc>
<path d="M104098 76293
L103902 76012
" />
<path d="M103761 76293
L103761 75703
L103986 75703
L104042 75731
L104070 75759
L104098 75815
L104098 75899
L104070 75956
L104042 75984
L103986 76012
L103761 76012
" />
<path d="M104577 76265
L104520 76293
L104408 76293
L104352 76265
L104323 76209
L104323 75984
L104352 75928
L104408 75899
L104520 75899
L104577 75928
L104605 75984
L104605 76040
L104323 76096
" />
<path d="M104802 75899
L104942 76293
L105083 75899
" />
<path d="M105308 76237
L105336 76265
L105308 76293
L105280 76265
L105308 76237
L105308 76293
" />
<path d="M105308 75928
L105336 75956
L105308 75984
L105280 75956
L105308 75928
L105308 75984
" />
</g></g>
<g style="fill:#840000; fill-opacity:0.0; 
stroke:#840000; stroke-width:60.000000; stroke-opacity:1; 
stroke-linecap:round; stroke-linejoin:round;">
<text x="70079.606299" y="76321.732283"
textLength="3781.220472" font-size="787.401575" lengthAdjust="spacingAndGlyphs"
text-anchor="start" opacity="0">Size: A4</text>
<g class="stroked-text"><desc>Size: A4</desc>
<path d="M70222 76265
L70306 76293
L70447 76293
L70503 76265
L70531 76237
L70559 76181
L70559 76124
L70531 76068
L70503 76040
L70447 76012
L70334 75984
L70278 75956
L70250 75928
L70222 75871
L70222 75815
L70250 75759
L70278 75731
L70334 75703
L70475 75703
L70559 75731
" />
<path d="M70812 76293
L70812 75899
" />
<path d="M70812 75703
L70784 75731
L70812 75759
L70840 75731
L70812 75703
L70812 75759
" />
<path d="M71037 75899
L71346 75899
L71037 76293
L71346 76293
" />
<path d="M71796 76265
L71740 76293
L71628 76293
L71571 76265
L71543 76209
L71543 75984
L71571 75928
L71628 75899
L71740 75899
L71796 75928
L71825 75984
L71825 76040
L71543 76096
" />
<path d="M72078 76237
L72106 76265
L72078 76293
L72049 76265
L72078 76237
L72078 76293
" />
<path d="M72078 75928
L72106 75956
L72078 75984
L72049 75956
L72078 75928
L72078 75984
" />
<path d="M72781 76124
L73062 76124
" />
<path d="M72724 76293
L72921 75703
L73118 76293
" />
<path d="M73568 75899
L73568 76293
" />
<path d="M73427 75674
L73287 76096
L73652 76096
" />
</g><text x="103544.173228" y="77424.094488"
textLength="4475.078740" font-size="787.401575" lengthAdjust="spacingAndGlyphs"
text-anchor="start" opacity="0">Id: 47/47</text>
<g class="stroked-text"><desc>Id: 47/47</desc>
<path d="M103714 77395
L103714 76805
" />
<path d="M104249 77395
L104249 76805
" />
<path d="M104249 77367
L104192 77395
L104080 77395
L104024 77367
L103995 77339
L103967 77283
L103967 77114
L103995 77058
L104024 77030
L104080 77002
L104192 77002
L104249 77030
" />
<path d="M104530 77339
L104558 77367
L104530 77395
L104502 77367
L104530 77339
L104530 77395
" />
<path d="M104530 77030
L104558 77058
L104530 77086
L104502 77058
L104530 77030
L104530 77086
" />
<path d="M105514 77002
L105514 77395
" />
<path d="M105373 76777
L105233 77199
L105598 77199
" />
<path d="M105767 76805
L106161 76805
L105908 77395
" />
<path d="M106808 76777
L106301 77536
" />
<path d="M107258 77002
L107258 77395
" />
<path d="M107117 76777
L106976 77199
L107342 77199
" />
<path d="M107511 76805
L107904 76805
L107651 77395
" />
</g><path d="M69685 73821
L112205 73821
" />
</g>
<g style="fill:#840000; fill-opacity:0.0; 
stroke:#840000; stroke-width:157.480315; stroke-opacity:1; 
stroke-linecap:round; stroke-linejoin:round;">
<text x="70079.606299" y="74924.094488"
textLength="3705.511811" font-size="1049.842520" lengthAdjust="spacingAndGlyphs"
text-anchor="start" opacity="0">Title: </text>
<g class="stroked-text"><desc>Title: </desc>
<path d="M70360 74099
L70810 74099
" />
<path d="M70486 74886
L70585 74099
" />
<path d="M70974 74886
L71039 74361
" />
<path d="M71072 74099
L71030 74136
L71063 74174
L71105 74136
L71072 74099
L71063 74174
" />
<path d="M71302 74361
L71602 74361
" />
<path d="M71447 74099
L71363 74774
L71391 74849
L71461 74886
L71536 74886
" />
<path d="M71911 74886
L71841 74849
L71812 74774
L71897 74099
" />
<path d="M72516 74849
L72436 74886
L72286 74886
L72216 74849
L72187 74774
L72225 74474
L72272 74399
L72352 74361
L72501 74361
L72572 74399
L72600 74474
L72591 74549
L72206 74624
" />
<path d="M72895 74811
L72928 74849
L72886 74886
L72853 74849
L72895 74811
L72886 74886
" />
<path d="M72947 74399
L72980 74436
L72937 74474
L72905 74436
L72947 74399
L72937 74474
" />
</g></g>
<g style="fill:#840000; fill-opacity:0.0; 
stroke:#840000; stroke-width:60.000000; stroke-opacity:1; 
stroke-linecap:round; stroke-linejoin:round;">
<text x="70079.606299" y="73408.346457"
textLength="10637.795276" font-size="787.401575" lengthAdjust="spacingAndGlyphs"
text-anchor="start" opacity="0">File: MicroSD.kicad_sch</text>
<g class="stroked-text"><desc>File: MicroSD.kicad_sch</desc>
<path d="M70447 73070
L70250 73070
" />
<path d="M70250 73380
L70250 72789
L70531 72789
" />
<path d="M70756 73380
L70756 72986
" />
<path d="M70756 72789
L70728 72817
L70756 72845
L70784 72817
L70756 72789
L70756 72845
" />
<path d="M71121 73380
L71065 73352
L71037 73295
L71037 72789
" />
<path d="M71571 73352
L71515 73380
L71403 73380
L71346 73352
L71318 73295
L71318 73070
L71346 73014
L71403 72986
L71515 72986
L71571 73014
L71600 73070
L71600 73127
L71318 73183
" />
<path d="M71853 73323
L71881 73352
L71853 73380
L71825 73352
L71853 73323
L71853 73380
" />
<path d="M71853 73014
L71881 73042
L71853 73070
L71825 73042
L71853 73014
L71853 73070
" />
<path d="M72584 73380
L72584 72789
L72781 73211
L72977 72789
L72977 73380
" />
<path d="M73259 73380
L73259 72986
" />
<path d="M73259 72789
L73231 72817
L73259 72845
L73287 72817
L73259 72789
L73259 72845
" />
<path d="M73793 73352
L73737 73380
L73624 73380
L73568 73352
L73540 73323
L73512 73267
L73512 73098
L73540 73042
L73568 73014
L73624 72986
L73737 72986
L73793 73014
" />
<path d="M74046 73380
L74046 72986
" />
<path d="M74046 73098
L74074 73042
L74102 73014
L74159 72986
L74215 72986
" />
<path d="M74496 73380
L74440 73352
L74412 73323
L74384 73267
L74384 73098
L74412 73042
L74440 73014
L74496 72986
L74580 72986
L74637 73014
L74665 73042
L74693 73098
L74693 73267
L74665 73323
L74637 73352
L74580 73380
L74496 73380
" />
<path d="M74918 73352
L75002 73380
L75143 73380
L75199 73352
L75227 73323
L75255 73267
L75255 73211
L75227 73155
L75199 73127
L75143 73098
L75030 73070
L74974 73042
L74946 73014
L74918 72958
L74918 72902
L74946 72845
L74974 72817
L75030 72789
L75171 72789
L75255 72817
" />
<path d="M75508 73380
L75508 72789
L75649 72789
L75733 72817
L75790 72874
L75818 72930
L75846 73042
L75846 73127
L75818 73239
L75790 73295
L75733 73352
L75649 73380
L75508 73380
" />
<path d="M76099 73323
L76127 73352
L76099 73380
L76071 73352
L76099 73323
L76099 73380
" />
<path d="M76380 73380
L76380 72789
" />
<path d="M76436 73155
L76605 73380
" />
<path d="M76605 72986
L76380 73211
" />
<path d="M76858 73380
L76858 72986
" />
<path d="M76858 72789
L76830 72817
L76858 72845
L76886 72817
L76858 72789
L76858 72845
" />
<path d="M77393 73352
L77336 73380
L77224 73380
L77168 73352
L77139 73323
L77111 73267
L77111 73098
L77139 73042
L77168 73014
L77224 72986
L77336 72986
L77393 73014
" />
<path d="M77899 73380
L77899 73070
L77871 73014
L77814 72986
L77702 72986
L77646 73014
" />
<path d="M77899 73352
L77842 73380
L77702 73380
L77646 73352
L77618 73295
L77618 73239
L77646 73183
L77702 73155
L77842 73155
L77899 73127
" />
<path d="M78433 73380
L78433 72789
" />
<path d="M78433 73352
L78377 73380
L78264 73380
L78208 73352
L78180 73323
L78152 73267
L78152 73098
L78180 73042
L78208 73014
L78264 72986
L78377 72986
L78433 73014
" />
<path d="M78574 73436
L79024 73436
" />
<path d="M79136 73352
L79192 73380
L79305 73380
L79361 73352
L79389 73295
L79389 73267
L79361 73211
L79305 73183
L79220 73183
L79164 73155
L79136 73098
L79136 73070
L79164 73014
L79220 72986
L79305 72986
L79361 73014
" />
<path d="M79895 73352
L79839 73380
L79727 73380
L79670 73352
L79642 73323
L79614 73267
L79614 73098
L79642 73042
L79670 73014
L79727 72986
L79839 72986
L79895 73014
" />
<path d="M80148 73380
L80148 72789
" />
<path d="M80402 73380
L80402 73070
L80373 73014
L80317 72986
L80233 72986
L80177 73014
L80148 73042
" />
</g><path d="M69685 71459
L112205 71459
" />
<text x="70079.606299" y="72345.354331"
textLength="10493.070866" font-size="787.401575" lengthAdjust="spacingAndGlyphs"
text-anchor="start" opacity="0">Sheet: /MCU/MicroSD/</text>
<g class="stroked-text"><desc>Sheet: /MCU/MicroSD/</desc>
<path d="M70222 72289
L70306 72317
L70447 72317
L70503 72289
L70531 72260
L70559 72204
L70559 72148
L70531 72092
L70503 72064
L70447 72035
L70334 72007
L70278 71979
L70250 71951
L70222 71895
L70222 71839
L70250 71782
L70278 71754
L70334 71726
L70475 71726
L70559 71754
" />
<path d="M70812 72317
L70812 71726
" />
<path d="M71065 72317
L71065 72007
L71037 71951
L70981 71923
L70897 71923
L70840 71951
L70812 71979
" />
<path d="M71571 72289
L71515 72317
L71403 72317
L71346 72289
L71318 72232
L71318 72007
L71346 71951
L71403 71923
L71515 71923
L71571 71951
L71600 72007
L71600 72064
L71318 72120
" />
<path d="M72078 72289
L72021 72317
L71909 72317
L71853 72289
L71825 72232
L71825 72007
L71853 71951
L71909 71923
L72021 71923
L72078 71951
L72106 72007
L72106 72064
L71825 72120
" />
<path d="M72274 71923
L72499 71923
" />
<path d="M72359 71726
L72359 72232
L72387 72289
L72443 72317
L72499 72317
" />
<path d="M72696 72260
L72724 72289
L72696 72317
L72668 72289
L72696 72260
L72696 72317
" />
<path d="M72696 71951
L72724 71979
L72696 72007
L72668 71979
L72696 71951
L72696 72007
" />
<path d="M73849 71698
L73343 72457
" />
<path d="M74046 72317
L74046 71726
L74243 72148
L74440 71726
L74440 72317
" />
<path d="M75058 72260
L75030 72289
L74946 72317
L74890 72317
L74805 72289
L74749 72232
L74721 72176
L74693 72064
L74693 71979
L74721 71867
L74749 71811
L74805 71754
L74890 71726
L74946 71726
L75030 71754
L75058 71782
" />
<path d="M75312 71726
L75312 72204
L75340 72260
L75368 72289
L75424 72317
L75537 72317
L75593 72289
L75621 72260
L75649 72204
L75649 71726
" />
<path d="M76352 71698
L75846 72457
" />
<path d="M76549 72317
L76549 71726
L76746 72148
L76943 71726
L76943 72317
" />
<path d="M77224 72317
L77224 71923
" />
<path d="M77224 71726
L77196 71754
L77224 71782
L77252 71754
L77224 71726
L77224 71782
" />
<path d="M77758 72289
L77702 72317
L77589 72317
L77533 72289
L77505 72260
L77477 72204
L77477 72035
L77505 71979
L77533 71951
L77589 71923
L77702 71923
L77758 71951
" />
<path d="M78011 72317
L78011 71923
" />
<path d="M78011 72035
L78039 71979
L78067 71951
L78124 71923
L78180 71923
" />
<path d="M78461 72317
L78405 72289
L78377 72260
L78349 72204
L78349 72035
L78377 71979
L78405 71951
L78461 71923
L78546 71923
L78602 71951
L78630 71979
L78658 72035
L78658 72204
L78630 72260
L78602 72289
L78546 72317
L78461 72317
" />
<path d="M78883 72289
L78967 72317
L79108 72317
L79164 72289
L79192 72260
L79220 72204
L79220 72148
L79192 72092
L79164 72064
L79108 72035
L78995 72007
L78939 71979
L78911 71951
L78883 71895
L78883 71839
L78911 71782
L78939 71754
L78995 71726
L79136 71726
L79220 71754
" />
<path d="M79474 72317
L79474 71726
L79614 71726
L79699 71754
L79755 71811
L79783 71867
L79811 71979
L79811 72064
L79783 72176
L79755 72232
L79699 72289
L79614 72317
L79474 72317
" />
<path d="M80486 71698
L79980 72457
" />
</g></g>
<g style="fill:#840000; fill-opacity:0.0; 
stroke:#840000; stroke-width:118.110236; stroke-opacity:1; 
stroke-linecap:round; stroke-linejoin:round;">
<text x="70079.606299" y="71164.251969"
textLength="60.000000" font-size="787.401575" lengthAdjust="spacingAndGlyphs"
text-anchor="start" opacity="0"></text>
<g class="stroked-text"><desc></desc>
</g></g>
<g style="fill:#840000; fill-opacity:0.0; 
stroke:#840000; stroke-width:60.000000; stroke-opacity:1; 
stroke-linecap:round; stroke-linejoin:round;">
<text x="70079.606299" y="69983.149606"
textLength="118.110236" font-size="787.401575" lengthAdjust="spacingAndGlyphs"
text-anchor="start" opacity="0"></text>
<g class="stroked-text"><desc></desc>
</g><text x="70079.606299" y="68802.047244"
textLength="60.000000" font-size="787.401575" lengthAdjust="spacingAndGlyphs"
text-anchor="start" opacity="0"></text>
<g class="stroked-text"><desc></desc>
</g><text x="70079.606299" y="67620.944882"
textLength="60.000000" font-size="787.401575" lengthAdjust="spacingAndGlyphs"
text-anchor="start" opacity="0"></text>
<g class="stroked-text"><desc></desc>
</g><text x="70079.606299" y="66439.842520"
textLength="60.000000" font-size="787.401575" lengthAdjust="spacingAndGlyphs"
text-anchor="start" opacity="0"></text>
<g class="stroked-text"><desc></desc>
</g><path d="M77559 75396
L77559 76577
" />
<path d="M102756 75396
L102756 77955
" />
<g >
<path style="fill:#840000; fill-opacity:0.0; 
stroke:#840000; stroke-width:60.000000; stroke-opacity:1; 
stroke-linecap:round; stroke-linejoin:round;fill:none"
d="M 53250.000000,39250.000000
53250.000000,39750.000000
52750.000000,39750.000000
53250.000000,40250.000000
53750.000000,39750.000000
53250.000000,39750.000000
" /> 
</g>
<g style="fill:#006464; fill-opacity:0.0; 
stroke:#006464; stroke-width:60.000000; stroke-opacity:1; 
stroke-linecap:round; stroke-linejoin:round;">
<text x="53200.000000" y="41229.960630"
textLength="2060.000000" font-size="666.653543" lengthAdjust="spacingAndGlyphs"
text-anchor="middle" opacity="0">GNDS</text>
<g class="stroked-text"><desc>GNDS</desc>
<path d="M52580 40729
L52533 40706
L52461 40706
L52390 40729
L52342 40777
L52319 40825
L52295 40920
L52295 40991
L52319 41087
L52342 41134
L52390 41182
L52461 41206
L52509 41206
L52580 41182
L52604 41158
L52604 40991
L52509 40991
" />
<path d="M52819 41206
L52819 40706
L53104 41206
L53104 40706
" />
<path d="M53342 41206
L53342 40706
L53461 40706
L53533 40729
L53580 40777
L53604 40825
L53628 40920
L53628 40991
L53604 41087
L53580 41134
L53533 41182
L53461 41206
L53342 41206
" />
<path d="M53819 41182
L53890 41206
L54009 41206
L54057 41182
L54080 41158
L54104 41110
L54104 41063
L54080 41015
L54057 40991
L54009 40968
L53914 40944
L53866 40920
L53842 40896
L53819 40848
L53819 40801
L53842 40753
L53866 40729
L53914 40706
L54033 40706
L54104 40729
" />
</g></g>
</g>
<g style="fill:#006464; fill-opacity:0.0; 
stroke:#006464; stroke-width:60.000000; stroke-opacity:1; 
stroke-linecap:round; stroke-linejoin:round;">
<g >
</g>
<g style="fill:#840000; fill-opacity:0.0; 
stroke:#840000; stroke-width:60.000000; stroke-opacity:1; 
stroke-linecap:round; stroke-linejoin:round;">
</g>
<g style="fill:#FFFFC2; fill-opacity:0.0; 
stroke:#FFFFC2; stroke-width:60.000000; stroke-opacity:1; 
stroke-linecap:round; stroke-linejoin:round;">
</g>
<g style="fill:#FFFFC2; fill-opacity:0.6; 
stroke:#FFFFC2; stroke-width:0.039370; stroke-opacity:1; 
stroke-linecap:round; stroke-linejoin:round;">
<rect x="49000.000000" y="31750.000000" width="1000.000000" height="6000.000000" rx="0.000000" />
</g>
<g style="fill:#840000; fill-opacity:0.6; 
stroke:#840000; stroke-width:0.039370; stroke-opacity:1; 
stroke-linecap:round; stroke-linejoin:round;">
</g>
<g style="fill:#840000; fill-opacity:0.0; 
stroke:#840000; stroke-width:100.000000; stroke-opacity:1; 
stroke-linecap:round; stroke-linejoin:round;">
<rect x="49000.000000" y="31750.000000" width="1000.000000" height="6000.000000" rx="0.000000" />
</g>
<g style="fill:#840000; fill-opacity:0.0; 
stroke:#840000; stroke-width:60.000000; stroke-opacity:1; 
stroke-linecap:round; stroke-linejoin:round;">
<rect x="49500.000000" y="32200.000000" width="500.000000" height="100.000000" rx="0.000000" />
<rect x="49500.000000" y="33200.000000" width="500.000000" height="100.000000" rx="0.000000" />
<rect x="49500.000000" y="34200.000000" width="500.000000" height="100.000000" rx="0.000000" />
<rect x="49500.000000" y="35200.000000" width="500.000000" height="100.000000" rx="0.000000" />
<rect x="49500.000000" y="36200.000000" width="500.000000" height="100.000000" rx="0.000000" />
<rect x="49500.000000" y="37200.000000" width="500.000000" height="100.000000" rx="0.000000" />
</g>
<g style="fill:#840000; fill-opacity:0.0; 
stroke:#840000; stroke-width:100.000000; stroke-opacity:1; 
stroke-linecap:round; stroke-linejoin:round;">
<rect x="49000.000000" y="31750.000000" width="1000.000000" height="6000.000000" rx="0.000000" />
</g>
<g style="fill:#840000; fill-opacity:0.0; 
stroke:#840000; stroke-width:60.000000; stroke-opacity:1; 
stroke-linecap:round; stroke-linejoin:round;">
<path d="M50000 37250
L51500 37250
" />
</g>
<g style="fill:#A90000; fill-opacity:0.0; 
stroke:#A90000; stroke-width:60.000000; stroke-opacity:1; 
stroke-linecap:round; stroke-linejoin:round;">
<text x="50750.000000" y="37150.000000"
textLength="536.181102" font-size="666.653543" lengthAdjust="spacingAndGlyphs"
text-anchor="middle" opacity="0">1</text>
<g class="stroked-text"><desc>1</desc>
<path d="M50892 37126
L50607 37126
" />
<path d="M50750 37126
L50750 36626
L50702 36697
L50654 36745
L50607 36769
" />
</g></g>
<g style="fill:#840000; fill-opacity:0.0; 
stroke:#840000; stroke-width:60.000000; stroke-opacity:1; 
stroke-linecap:round; stroke-linejoin:round;">
<path d="M50000 36250
L51500 36250
" />
</g>
<g style="fill:#A90000; fill-opacity:0.0; 
stroke:#A90000; stroke-width:60.000000; stroke-opacity:1; 
stroke-linecap:round; stroke-linejoin:round;">
<text x="50750.000000" y="36150.000000"
textLength="536.181102" font-size="666.653543" lengthAdjust="spacingAndGlyphs"
text-anchor="middle" opacity="0">2</text>
<g class="stroked-text"><desc>2</desc>
<path d="M50607 35673
L50630 35650
L50678 35626
L50797 35626
L50845 35650
L50869 35673
L50892 35721
L50892 35769
L50869 35840
L50583 36126
L50892 36126
" />
</g></g>
<g style="fill:#840000; fill-opacity:0.0; 
stroke:#840000; stroke-width:60.000000; stroke-opacity:1; 
stroke-linecap:round; stroke-linejoin:round;">
<path d="M50000 35250
L51500 35250
" />
</g>
<g style="fill:#A90000; fill-opacity:0.0; 
stroke:#A90000; stroke-width:60.000000; stroke-opacity:1; 
stroke-linecap:round; stroke-linejoin:round;">
<text x="50750.000000" y="35150.000000"
textLength="536.181102" font-size="666.653543" lengthAdjust="spacingAndGlyphs"
text-anchor="middle" opacity="0">3</text>
<g class="stroked-text"><desc>3</desc>
<path d="M50583 34626
L50892 34626
L50726 34816
L50797 34816
L50845 34840
L50869 34864
L50892 34911
L50892 35030
L50869 35078
L50845 35102
L50797 35126
L50654 35126
L50607 35102
L50583 35078
" />
</g></g>
<g style="fill:#840000; fill-opacity:0.0; 
stroke:#840000; stroke-width:60.000000; stroke-opacity:1; 
stroke-linecap:round; stroke-linejoin:round;">
<path d="M50000 34250
L51500 34250
" />
</g>
<g style="fill:#A90000; fill-opacity:0.0; 
stroke:#A90000; stroke-width:60.000000; stroke-opacity:1; 
stroke-linecap:round; stroke-linejoin:round;">
<text x="50750.000000" y="34150.000000"
textLength="536.181102" font-size="666.653543" lengthAdjust="spacingAndGlyphs"
text-anchor="middle" opacity="0">4</text>
<g class="stroked-text"><desc>4</desc>
<path d="M50845 33792
L50845 34126
" />
<path d="M50726 33602
L50607 33959
L50916 33959
" />
</g></g>
<g style="fill:#840000; fill-opacity:0.0; 
stroke:#840000; stroke-width:60.000000; stroke-opacity:1; 
stroke-linecap:round; stroke-linejoin:round;">
<path d="M50000 33250
L51500 33250
" />
</g>
<g style="fill:#A90000; fill-opacity:0.0; 
stroke:#A90000; stroke-width:60.000000; stroke-opacity:1; 
stroke-linecap:round; stroke-linejoin:round;">
<text x="50750.000000" y="33150.000000"
textLength="536.181102" font-size="666.653543" lengthAdjust="spacingAndGlyphs"
text-anchor="middle" opacity="0">5</text>
<g class="stroked-text"><desc>5</desc>
<path d="M50869 32626
L50630 32626
L50607 32864
L50630 32840
L50678 32816
L50797 32816
L50845 32840
L50869 32864
L50892 32911
L50892 33030
L50869 33078
L50845 33102
L50797 33126
L50678 33126
L50630 33102
L50607 33078
" />
</g></g>
<g style="fill:#840000; fill-opacity:0.0; 
stroke:#840000; stroke-width:60.000000; stroke-opacity:1; 
stroke-linecap:round; stroke-linejoin:round;">
<path d="M50000 32250
L51500 32250
" />
</g>
<g style="fill:#A90000; fill-opacity:0.0; 
stroke:#A90000; stroke-width:60.000000; stroke-opacity:1; 
stroke-linecap:round; stroke-linejoin:round;">
<text x="50750.000000" y="32150.000000"
textLength="536.181102" font-size="666.653543" lengthAdjust="spacingAndGlyphs"
text-anchor="middle" opacity="0">6</text>
<g class="stroked-text"><desc>6</desc>
<path d="M50845 31626
L50750 31626
L50702 31650
L50678 31673
L50630 31745
L50607 31840
L50607 32030
L50630 32078
L50654 32102
L50702 32126
L50797 32126
L50845 32102
L50869 32078
L50892 32030
L50892 31911
L50869 31864
L50845 31840
L50797 31816
L50702 31816
L50654 31840
L50630 31864
L50607 31911
" />
</g></g>
<g style="fill:#006464; fill-opacity:0.0; 
stroke:#006464; stroke-width:60.000000; stroke-opacity:1; 
stroke-linecap:round; stroke-linejoin:round;">
<text x="49499.960630" y="30000.000000"
textLength="917.125984" font-size="666.653543" lengthAdjust="spacingAndGlyphs"
text-anchor="middle" opacity="0">J3</text>
<g class="stroked-text"><desc>J3</desc>
<path d="M49333 29476
L49333 29833
L49309 29904
L49261 29952
L49190 29976
L49142 29976
" />
<path d="M49523 29476
L49833 29476
L49666 29666
L49738 29666
L49785 29690
L49809 29714
L49833 29761
L49833 29880
L49809 29928
L49785 29952
L49738 29976
L49595 29976
L49547 29952
L49523 29928
" />
</g><text x="49500.000000" y="31000.000000"
textLength="4607.637795" font-size="666.653543" lengthAdjust="spacingAndGlyphs"
text-anchor="middle" opacity="0">Conn_01x06</text>
<g class="stroked-text"><desc>Conn_01x06</desc>
<path d="M47630 30928
L47607 30952
L47535 30976
L47488 30976
L47416 30952
L47369 30904
L47345 30857
L47321 30761
L47321 30690
L47345 30595
L47369 30547
L47416 30500
L47488 30476
L47535 30476
L47607 30500
L47630 30523
" />
<path d="M47916 30976
L47869 30952
L47845 30928
L47821 30880
L47821 30738
L47845 30690
L47869 30666
L47916 30642
L47988 30642
L48035 30666
L48059 30690
L48083 30738
L48083 30880
L48059 30928
L48035 30952
L47988 30976
L47916 30976
" />
<path d="M48297 30642
L48297 30976
" />
<path d="M48297 30690
L48321 30666
L48369 30642
L48440 30642
L48488 30666
L48511 30714
L48511 30976
" />
<path d="M48750 30642
L48750 30976
" />
<path d="M48750 30690
L48773 30666
L48821 30642
L48892 30642
L48940 30666
L48964 30714
L48964 30976
" />
<path d="M49083 31023
L49464 31023
" />
<path d="M49678 30476
L49726 30476
L49773 30500
L49797 30523
L49821 30571
L49845 30666
L49845 30785
L49821 30880
L49797 30928
L49773 30952
L49726 30976
L49678 30976
L49630 30952
L49607 30928
L49583 30880
L49559 30785
L49559 30666
L49583 30571
L49607 30523
L49630 30500
L49678 30476
" />
<path d="M50321 30976
L50035 30976
" />
<path d="M50178 30976
L50178 30476
L50130 30547
L50083 30595
L50035 30619
" />
<path d="M50488 30976
L50750 30642
" />
<path d="M50488 30642
L50750 30976
" />
<path d="M51035 30476
L51083 30476
L51130 30500
L51154 30523
L51178 30571
L51202 30666
L51202 30785
L51178 30880
L51154 30928
L51130 30952
L51083 30976
L51035 30976
L50988 30952
L50964 30928
L50940 30880
L50916 30785
L50916 30666
L50940 30571
L50964 30523
L50988 30500
L51035 30476
" />
<path d="M51630 30476
L51535 30476
L51488 30500
L51464 30523
L51416 30595
L51392 30690
L51392 30880
L51416 30928
L51440 30952
L51488 30976
L51583 30976
L51630 30952
L51654 30928
L51678 30880
L51678 30761
L51654 30714
L51630 30690
L51583 30666
L51488 30666
L51440 30690
L51416 30714
L51392 30761
" />
</g></g>
</g>
<g style="fill:#006464; fill-opacity:0.0; 
stroke:#006464; stroke-width:62.519685; stroke-opacity:1; 
stroke-linecap:round; stroke-linejoin:round;">
</g>
<g style="fill:#006464; fill-opacity:0.0; 
stroke:#006464; stroke-width:60.000000; stroke-opacity:1; 
stroke-linecap:round; stroke-linejoin:round;">
</g>
<g style="fill:#725600; fill-opacity:0.0; 
stroke:#725600; stroke-width:60.000000; stroke-opacity:1; 
stroke-linecap:round; stroke-linejoin:round;">
<text x="59290.000000" y="36500.000000"
textLength="2607.637795" font-size="666.653543" lengthAdjust="spacingAndGlyphs"
text-anchor="start" opacity="0">SD_VIN</text>
<g class="stroked-text"><desc>SD_VIN</desc>
<path d="M59415 36452
L59486 36476
L59605 36476
L59653 36452
L59677 36428
L59700 36380
L59700 36333
L59677 36285
L59653 36261
L59605 36238
L59510 36214
L59462 36190
L59439 36166
L59415 36119
L59415 36071
L59439 36023
L59462 36000
L59510 35976
L59629 35976
L59700 36000
" />
<path d="M59915 36476
L59915 35976
L60034 35976
L60105 36000
L60153 36047
L60177 36095
L60200 36190
L60200 36261
L60177 36357
L60153 36404
L60105 36452
L60034 36476
L59915 36476
" />
<path d="M60296 36523
L60677 36523
" />
<path d="M60724 35976
L60891 36476
L61058 35976
" />
<path d="M61224 36476
L61224 35976
" />
<path d="M61462 36476
L61462 35976
L61748 36476
L61748 35976
" />
</g><path style="fill:#725600; fill-opacity:0.0; 
stroke:#725600; stroke-width:60.000000; stroke-opacity:1; 
stroke-linecap:round; stroke-linejoin:round;fill:none"
d="M 58750.000000,36250.000000
59000.000000,36500.000000
59250.000000,36500.000000
59250.000000,36000.000000
59000.000000,36000.000000
Z" /> 
</g>
<g style="fill:#725600; fill-opacity:0.0; 
stroke:#725600; stroke-width:62.519685; stroke-opacity:1; 
stroke-linecap:round; stroke-linejoin:round;">
</g>
<g style="fill:#725600; fill-opacity:0.0; 
stroke:#725600; stroke-width:60.000000; stroke-opacity:1; 
stroke-linecap:round; stroke-linejoin:round;">
<text x="59290.000000" y="34500.000000"
textLength="3226.653543" font-size="666.653543" lengthAdjust="spacingAndGlyphs"
text-anchor="start" opacity="0">SD_MOSI</text>
<g class="stroked-text"><desc>SD_MOSI</desc>
<path d="M59415 34452
L59486 34476
L59605 34476
L59653 34452
L59677 34428
L59700 34380
L59700 34333
L59677 34285
L59653 34261
L59605 34238
L59510 34214
L59462 34190
L59439 34166
L59415 34119
L59415 34071
L59439 34023
L59462 34000
L59510 33976
L59629 33976
L59700 34000
" />
<path d="M59915 34476
L59915 33976
L60034 33976
L60105 34000
L60153 34047
L60177 34095
L60200 34190
L60200 34261
L60177 34357
L60153 34404
L60105 34452
L60034 34476
L59915 34476
" />
<path d="M60296 34523
L60677 34523
" />
<path d="M60796 34476
L60796 33976
L60962 34333
L61129 33976
L61129 34476
" />
<path d="M61462 33976
L61558 33976
L61605 34000
L61653 34047
L61677 34142
L61677 34309
L61653 34404
L61605 34452
L61558 34476
L61462 34476
L61415 34452
L61367 34404
L61343 34309
L61343 34142
L61367 34047
L61415 34000
L61462 33976
" />
<path d="M61867 34452
L61939 34476
L62058 34476
L62105 34452
L62129 34428
L62153 34380
L62153 34333
L62129 34285
L62105 34261
L62058 34238
L61962 34214
L61915 34190
L61891 34166
L61867 34119
L61867 34071
L61891 34023
L61915 34000
L61962 33976
L62081 33976
L62153 34000
" />
<path d="M62367 34476
L62367 33976
" />
</g><path style="fill:#725600; fill-opacity:0.0; 
stroke:#725600; stroke-width:60.000000; stroke-opacity:1; 
stroke-linecap:round; stroke-linejoin:round;fill:none"
d="M 58750.000000,34250.000000
59000.000000,34500.000000
59250.000000,34500.000000
59250.000000,34000.000000
59000.000000,34000.000000
Z" /> 
</g>
<g style="fill:#725600; fill-opacity:0.0; 
stroke:#725600; stroke-width:62.519685; stroke-opacity:1; 
stroke-linecap:round; stroke-linejoin:round;">
</g>
<g style="fill:#725600; fill-opacity:0.0; 
stroke:#725600; stroke-width:60.000000; stroke-opacity:1; 
stroke-linecap:round; stroke-linejoin:round;">
<text x="59290.000000" y="32500.000000"
textLength="2393.346457" font-size="666.653543" lengthAdjust="spacingAndGlyphs"
text-anchor="start" opacity="0">SD_CS</text>
<g class="stroked-text"><desc>SD_CS</desc>
<path d="M59415 32452
L59486 32476
L59605 32476
L59653 32452
L59677 32428
L59700 32380
L59700 32333
L59677 32285
L59653 32261
L59605 32238
L59510 32214
L59462 32190
L59439 32166
L59415 32119
L59415 32071
L59439 32023
L59462 32000
L59510 31976
L59629 31976
L59700 32000
" />
<path d="M59915 32476
L59915 31976
L60034 31976
L60105 32000
L60153 32047
L60177 32095
L60200 32190
L60200 32261
L60177 32357
L60153 32404
L60105 32452
L60034 32476
L59915 32476
" />
<path d="M60296 32523
L60677 32523
" />
<path d="M61081 32428
L61058 32452
L60986 32476
L60939 32476
L60867 32452
L60820 32404
L60796 32357
L60772 32261
L60772 32190
L60796 32095
L60820 32047
L60867 32000
L60939 31976
L60986 31976
L61058 32000
L61081 32023
" />
<path d="M61272 32452
L61343 32476
L61462 32476
L61510 32452
L61534 32428
L61558 32380
L61558 32333
L61534 32285
L61510 32261
L61462 32238
L61367 32214
L61320 32190
L61296 32166
L61272 32119
L61272 32071
L61296 32023
L61320 32000
L61367 31976
L61486 31976
L61558 32000
" />
</g><path style="fill:#725600; fill-opacity:0.0; 
stroke:#725600; stroke-width:60.000000; stroke-opacity:1; 
stroke-linecap:round; stroke-linejoin:round;fill:none"
d="M 58750.000000,32250.000000
59000.000000,32500.000000
59250.000000,32500.000000
59250.000000,32000.000000
59000.000000,32000.000000
Z" /> 
</g>
<g style="fill:#725600; fill-opacity:0.0; 
stroke:#725600; stroke-width:62.519685; stroke-opacity:1; 
stroke-linecap:round; stroke-linejoin:round;">
</g>
<g style="fill:#725600; fill-opacity:0.0; 
stroke:#725600; stroke-width:60.000000; stroke-opacity:1; 
stroke-linecap:round; stroke-linejoin:round;">
<text x="59290.000000" y="33500.000000"
textLength="2893.346457" font-size="666.653543" lengthAdjust="spacingAndGlyphs"
text-anchor="start" opacity="0">SD_SCK</text>
<g class="stroked-text"><desc>SD_SCK</desc>
<path d="M59415 33452
L59486 33476
L59605 33476
L59653 33452
L59677 33428
L59700 33380
L59700 33333
L59677 33285
L59653 33261
L59605 33238
L59510 33214
L59462 33190
L59439 33166
L59415 33119
L59415 33071
L59439 33023
L59462 33000
L59510 32976
L59629 32976
L59700 33000
" />
<path d="M59915 33476
L59915 32976
L60034 32976
L60105 33000
L60153 33047
L60177 33095
L60200 33190
L60200 33261
L60177 33357
L60153 33404
L60105 33452
L60034 33476
L59915 33476
" />
<path d="M60296 33523
L60677 33523
" />
<path d="M60772 33452
L60843 33476
L60962 33476
L61010 33452
L61034 33428
L61058 33380
L61058 33333
L61034 33285
L61010 33261
L60962 33238
L60867 33214
L60820 33190
L60796 33166
L60772 33119
L60772 33071
L60796 33023
L60820 33000
L60867 32976
L60986 32976
L61058 33000
" />
<path d="M61558 33428
L61534 33452
L61462 33476
L61415 33476
L61343 33452
L61296 33404
L61272 33357
L61248 33261
L61248 33190
L61272 33095
L61296 33047
L61343 33000
L61415 32976
L61462 32976
L61534 33000
L61558 33023
" />
<path d="M61772 33476
L61772 32976
" />
<path d="M62058 33476
L61843 33190
" />
<path d="M62058 32976
L61772 33261
" />
</g><path style="fill:#725600; fill-opacity:0.0; 
stroke:#725600; stroke-width:60.000000; stroke-opacity:1; 
stroke-linecap:round; stroke-linejoin:round;fill:none"
d="M 58750.000000,33250.000000
59000.000000,33500.000000
59250.000000,33500.000000
59250.000000,33000.000000
59000.000000,33000.000000
Z" /> 
</g>
<g style="fill:#725600; fill-opacity:0.0; 
stroke:#725600; stroke-width:62.519685; stroke-opacity:1; 
stroke-linecap:round; stroke-linejoin:round;">
</g>
<g style="fill:#725600; fill-opacity:0.0; 
stroke:#725600; stroke-width:60.000000; stroke-opacity:1; 
stroke-linecap:round; stroke-linejoin:round;">
<text x="59290.000000" y="35500.000000"
textLength="3226.653543" font-size="666.653543" lengthAdjust="spacingAndGlyphs"
text-anchor="start" opacity="0">SD_MISO</text>
<g class="stroked-text"><desc>SD_MISO</desc>
<path d="M59415 35452
L59486 35476
L59605 35476
L59653 35452
L59677 35428
L59700 35380
L59700 35333
L59677 35285
L59653 35261
L59605 35238
L59510 35214
L59462 35190
L59439 35166
L59415 35119
L59415 35071
L59439 35023
L59462 35000
L59510 34976
L59629 34976
L59700 35000
" />
<path d="M59915 35476
L59915 34976
L60034 34976
L60105 35000
L60153 35047
L60177 35095
L60200 35190
L60200 35261
L60177 35357
L60153 35404
L60105 35452
L60034 35476
L59915 35476
" />
<path d="M60296 35523
L60677 35523
" />
<path d="M60796 35476
L60796 34976
L60962 35333
L61129 34976
L61129 35476
" />
<path d="M61367 35476
L61367 34976
" />
<path d="M61581 35452
L61653 35476
L61772 35476
L61820 35452
L61843 35428
L61867 35380
L61867 35333
L61843 35285
L61820 35261
L61772 35238
L61677 35214
L61629 35190
L61605 35166
L61581 35119
L61581 35071
L61605 35023
L61629 35000
L61677 34976
L61796 34976
L61867 35000
" />
<path d="M62177 34976
L62272 34976
L62320 35000
L62367 35047
L62391 35142
L62391 35309
L62367 35404
L62320 35452
L62272 35476
L62177 35476
L62129 35452
L62081 35404
L62058 35309
L62058 35142
L62081 35047
L62129 35000
L62177 34976
" />
</g><path style="fill:#725600; fill-opacity:0.0; 
stroke:#725600; stroke-width:60.000000; stroke-opacity:1; 
stroke-linecap:round; stroke-linejoin:round;fill:none"
d="M 58750.000000,35250.000000
59000.000000,35500.000000
59250.000000,35500.000000
59250.000000,35000.000000
59000.000000,35000.000000
Z" /> 
</g>
<g style="fill:#725600; fill-opacity:0.0; 
stroke:#725600; stroke-width:62.519685; stroke-opacity:1; 
stroke-linecap:round; stroke-linejoin:round;">
</g>
<g style="fill:#725600; fill-opacity:0.0; 
stroke:#725600; stroke-width:60.000000; stroke-opacity:1; 
stroke-linecap:round; stroke-linejoin:round;">
</g>
<g style="fill:#0000C2; fill-opacity:0.0; 
stroke:#0000C2; stroke-width:60.000000; stroke-opacity:1; 
stroke-linecap:round; stroke-linejoin:round;">
<text x="62500.000000" y="30897.480315"
textLength="9369.527559" font-size="666.653543" lengthAdjust="spacingAndGlyphs"
text-anchor="end" opacity="0">MicroSD card connector.</text>
<g class="stroked-text"><desc>MicroSD card connector.</desc>
<path d="M53279 30873
L53279 30373
L53446 30730
L53612 30373
L53612 30873
" />
<path d="M53850 30873
L53850 30540
" />
<path d="M53850 30373
L53827 30397
L53850 30421
L53874 30397
L53850 30373
L53850 30421
" />
<path d="M54303 30849
L54255 30873
L54160 30873
L54112 30849
L54089 30826
L54065 30778
L54065 30635
L54089 30587
L54112 30564
L54160 30540
L54255 30540
L54303 30564
" />
<path d="M54517 30873
L54517 30540
" />
<path d="M54517 30635
L54541 30587
L54565 30564
L54612 30540
L54660 30540
" />
<path d="M54898 30873
L54850 30849
L54827 30826
L54803 30778
L54803 30635
L54827 30587
L54850 30564
L54898 30540
L54970 30540
L55017 30564
L55041 30587
L55065 30635
L55065 30778
L55041 30826
L55017 30849
L54970 30873
L54898 30873
" />
<path d="M55255 30849
L55327 30873
L55446 30873
L55493 30849
L55517 30826
L55541 30778
L55541 30730
L55517 30683
L55493 30659
L55446 30635
L55350 30611
L55303 30587
L55279 30564
L55255 30516
L55255 30468
L55279 30421
L55303 30397
L55350 30373
L55470 30373
L55541 30397
" />
<path d="M55755 30873
L55755 30373
L55874 30373
L55946 30397
L55993 30445
L56017 30492
L56041 30587
L56041 30659
L56017 30754
L55993 30802
L55946 30849
L55874 30873
L55755 30873
" />
<path d="M56850 30849
L56803 30873
L56708 30873
L56660 30849
L56636 30826
L56612 30778
L56612 30635
L56636 30587
L56660 30564
L56708 30540
L56803 30540
L56850 30564
" />
<path d="M57279 30873
L57279 30611
L57255 30564
L57208 30540
L57112 30540
L57065 30564
" />
<path d="M57279 30849
L57231 30873
L57112 30873
L57065 30849
L57041 30802
L57041 30754
L57065 30706
L57112 30683
L57231 30683
L57279 30659
" />
<path d="M57517 30873
L57517 30540
" />
<path d="M57517 30635
L57541 30587
L57565 30564
L57612 30540
L57660 30540
" />
<path d="M58041 30873
L58041 30373
" />
<path d="M58041 30849
L57993 30873
L57898 30873
L57850 30849
L57827 30826
L57803 30778
L57803 30635
L57827 30587
L57850 30564
L57898 30540
L57993 30540
L58041 30564
" />
<path d="M58874 30849
L58827 30873
L58731 30873
L58684 30849
L58660 30826
L58636 30778
L58636 30635
L58660 30587
L58684 30564
L58731 30540
L58827 30540
L58874 30564
" />
<path d="M59160 30873
L59112 30849
L59089 30826
L59065 30778
L59065 30635
L59089 30587
L59112 30564
L59160 30540
L59231 30540
L59279 30564
L59303 30587
L59327 30635
L59327 30778
L59303 30826
L59279 30849
L59231 30873
L59160 30873
" />
<path d="M59541 30540
L59541 30873
" />
<path d="M59541 30587
L59565 30564
L59612 30540
L59684 30540
L59731 30564
L59755 30611
L59755 30873
" />
<path d="M59993 30540
L59993 30873
" />
<path d="M59993 30587
L60017 30564
L60065 30540
L60136 30540
L60184 30564
L60208 30611
L60208 30873
" />
<path d="M60636 30849
L60589 30873
L60493 30873
L60446 30849
L60422 30802
L60422 30611
L60446 30564
L60493 30540
L60589 30540
L60636 30564
L60660 30611
L60660 30659
L60422 30706
" />
<path d="M61089 30849
L61041 30873
L60946 30873
L60898 30849
L60874 30826
L60850 30778
L60850 30635
L60874 30587
L60898 30564
L60946 30540
L61041 30540
L61089 30564
" />
<path d="M61231 30540
L61422 30540
" />
<path d="M61303 30373
L61303 30802
L61327 30849
L61374 30873
L61422 30873
" />
<path d="M61660 30873
L61612 30849
L61589 30826
L61565 30778
L61565 30635
L61589 30587
L61612 30564
L61660 30540
L61731 30540
L61779 30564
L61803 30587
L61827 30635
L61827 30778
L61803 30826
L61779 30849
L61731 30873
L61660 30873
" />
<path d="M62041 30873
L62041 30540
" />
<path d="M62041 30635
L62065 30587
L62089 30564
L62136 30540
L62184 30540
" />
<path d="M62350 30826
L62374 30849
L62350 30873
L62327 30849
L62350 30826
L62350 30873
" />
</g></g>
<g style="fill:#009600; fill-opacity:0.0; 
stroke:#009600; stroke-width:60.000000; stroke-opacity:1; 
stroke-linecap:round; stroke-linejoin:round;">
<path d="M58750 34250
L51500 34250
" />
<path d="M58750 35250
L51500 35250
" />
<path d="M58750 36250
L51500 36250
" />
<path d="M58750 33250
L51500 33250
" />
<path d="M51500 37250
L53250 37250
" />
<path d="M53250 37250
L53250 39250
" />
<path d="M58750 32250
L51500 32250
" />
</g> 
</svg>
