<?xml version="1.0" standalone="no"?>
 <!DOCTYPE svg PUBLIC "-//W3C//DTD SVG 1.1//EN" 
 "http://www.w3.org/Graphics/SVG/1.1/DTD/svg11.dtd"> 
<svg
  xmlns:svg="http://www.w3.org/2000/svg"
  xmlns="http://www.w3.org/2000/svg"
  xmlns:xlink="http://www.w3.org/1999/xlink"
  version="1.1"
  width="29.700220cm" height="21.000720cm" viewBox="0 0 116930 82680">
<title>SVG Picture created as Encoder-MCU-Encoder.svg date 2021/06/10 01:03:57 </title>
  <desc>Picture generated by Eeschema-SVG </desc>
<g style="fill:#000000; fill-opacity:1;stroke:#000000; stroke-opacity:1;
stroke-linecap:round; stroke-linejoin:round;"
 transform="translate(0 0) scale(1 1)">
</g>
<g style="fill:#000000; fill-opacity:0.0; 
stroke:#000000; stroke-width:-10; stroke-opacity:1; 
stroke-linecap:round; stroke-linejoin:round;">
</g>
<g style="fill:#840000; fill-opacity:0.0; 
stroke:#840000; stroke-width:-10; stroke-opacity:1; 
stroke-linecap:round; stroke-linejoin:round;">
</g>
<g style="fill:#840000; fill-opacity:0.0; 
stroke:#840000; stroke-width:100; stroke-opacity:1; 
stroke-linecap:round; stroke-linejoin:round;">
</g>
<g style="fill:#840000; fill-opacity:0.0; 
stroke:#840000; stroke-width:60; stroke-opacity:1; 
stroke-linecap:round; stroke-linejoin:round;">
<rect x="69690" y="65360" width="42520" height="12600" rx="0" />
</g>
<g style="fill:#840000; fill-opacity:0.0; 
stroke:#840000; stroke-width:100; stroke-opacity:1; 
stroke-linecap:round; stroke-linejoin:round;">
</g>
<g style="fill:#840000; fill-opacity:0.0; 
stroke:#840000; stroke-width:60; stroke-opacity:1; 
stroke-linecap:round; stroke-linejoin:round;">
<rect x="3940" y="3940" width="109050" height="74800" rx="0" />
</g>
<g style="fill:#840000; fill-opacity:0.0; 
stroke:#840000; stroke-width:100; stroke-opacity:1; 
stroke-linecap:round; stroke-linejoin:round;">
</g>
<g style="fill:#840000; fill-opacity:0.0; 
stroke:#840000; stroke-width:60; stroke-opacity:1; 
stroke-linecap:round; stroke-linejoin:round;">
<rect x="4720" y="4720" width="107490" height="73240" rx="0" />
</g>
<g style="fill:#840000; fill-opacity:0.0; 
stroke:#840000; stroke-width:100; stroke-opacity:1; 
stroke-linecap:round; stroke-linejoin:round;">
</g>
<g style="fill:#840000; fill-opacity:0.0; 
stroke:#840000; stroke-width:60; stroke-opacity:1; 
stroke-linecap:round; stroke-linejoin:round;">
<path d="M23620 4720
L23620 3940
" />
</g>
<g style="fill:#840000; fill-opacity:0.0; 
stroke:#840000; stroke-width:100; stroke-opacity:1; 
stroke-linecap:round; stroke-linejoin:round;">
</g>
<g style="fill:#840000; fill-opacity:0.0; 
stroke:#840000; stroke-width:60; stroke-opacity:1; 
stroke-linecap:round; stroke-linejoin:round;">
<path d="M43310 4720
L43310 3940
" />
</g>
<g style="fill:#840000; fill-opacity:0.0; 
stroke:#840000; stroke-width:100; stroke-opacity:1; 
stroke-linecap:round; stroke-linejoin:round;">
</g>
<g style="fill:#840000; fill-opacity:0.0; 
stroke:#840000; stroke-width:60; stroke-opacity:1; 
stroke-linecap:round; stroke-linejoin:round;">
<path d="M62990 4720
L62990 3940
" />
</g>
<g style="fill:#840000; fill-opacity:0.0; 
stroke:#840000; stroke-width:100; stroke-opacity:1; 
stroke-linecap:round; stroke-linejoin:round;">
</g>
<g style="fill:#840000; fill-opacity:0.0; 
stroke:#840000; stroke-width:60; stroke-opacity:1; 
stroke-linecap:round; stroke-linejoin:round;">
<path d="M82680 4720
L82680 3940
" />
</g>
<g style="fill:#840000; fill-opacity:0.0; 
stroke:#840000; stroke-width:100; stroke-opacity:1; 
stroke-linecap:round; stroke-linejoin:round;">
</g>
<g style="fill:#840000; fill-opacity:0.0; 
stroke:#840000; stroke-width:60; stroke-opacity:1; 
stroke-linecap:round; stroke-linejoin:round;">
<path d="M102360 4720
L102360 3940
" />
</g>
<g style="fill:#840000; fill-opacity:0.0; 
stroke:#840000; stroke-width:100; stroke-opacity:1; 
stroke-linecap:round; stroke-linejoin:round;">
</g>
<g style="fill:#840000; fill-opacity:0.0; 
stroke:#840000; stroke-width:60; stroke-opacity:1; 
stroke-linecap:round; stroke-linejoin:round;">
<text x="13780" y="4580"
textLength="550" font-size="680" lengthAdjust="spacingAndGlyphs"
text-anchor="start" opacity="0">1</text>
<path d="M14190 4560
L13900 4560
" />
<path d="M14050 4560
L14050 4050
L14000 4120
L13950 4170
L13900 4190
" />
</g>
<g style="fill:#840000; fill-opacity:0.0; 
stroke:#840000; stroke-width:100; stroke-opacity:1; 
stroke-linecap:round; stroke-linejoin:round;">
</g>
<g style="fill:#840000; fill-opacity:0.0; 
stroke:#840000; stroke-width:60; stroke-opacity:1; 
stroke-linecap:round; stroke-linejoin:round;">
<text x="33460" y="4580"
textLength="550" font-size="680" lengthAdjust="spacingAndGlyphs"
text-anchor="start" opacity="0">2</text>
<path d="M33580 4090
L33610 4070
L33660 4050
L33780 4050
L33830 4070
L33850 4090
L33870 4140
L33870 4190
L33850 4260
L33560 4560
L33870 4560
" />
</g>
<g style="fill:#840000; fill-opacity:0.0; 
stroke:#840000; stroke-width:100; stroke-opacity:1; 
stroke-linecap:round; stroke-linejoin:round;">
</g>
<g style="fill:#840000; fill-opacity:0.0; 
stroke:#840000; stroke-width:60; stroke-opacity:1; 
stroke-linecap:round; stroke-linejoin:round;">
<text x="53150" y="4580"
textLength="550" font-size="680" lengthAdjust="spacingAndGlyphs"
text-anchor="start" opacity="0">3</text>
<path d="M53250 4050
L53560 4050
L53390 4240
L53470 4240
L53520 4260
L53540 4290
L53560 4340
L53560 4460
L53540 4510
L53520 4530
L53470 4560
L53320 4560
L53270 4530
L53250 4510
" />
</g>
<g style="fill:#840000; fill-opacity:0.0; 
stroke:#840000; stroke-width:100; stroke-opacity:1; 
stroke-linecap:round; stroke-linejoin:round;">
</g>
<g style="fill:#840000; fill-opacity:0.0; 
stroke:#840000; stroke-width:60; stroke-opacity:1; 
stroke-linecap:round; stroke-linejoin:round;">
<text x="72830" y="4580"
textLength="550" font-size="680" lengthAdjust="spacingAndGlyphs"
text-anchor="start" opacity="0">4</text>
<path d="M73200 4220
L73200 4560
" />
<path d="M73070 4020
L72950 4390
L73270 4390
" />
</g>
<g style="fill:#840000; fill-opacity:0.0; 
stroke:#840000; stroke-width:100; stroke-opacity:1; 
stroke-linecap:round; stroke-linejoin:round;">
</g>
<g style="fill:#840000; fill-opacity:0.0; 
stroke:#840000; stroke-width:60; stroke-opacity:1; 
stroke-linecap:round; stroke-linejoin:round;">
<text x="92520" y="4580"
textLength="550" font-size="680" lengthAdjust="spacingAndGlyphs"
text-anchor="start" opacity="0">5</text>
<path d="M92910 4050
L92670 4050
L92640 4290
L92670 4260
L92720 4240
L92840 4240
L92890 4260
L92910 4290
L92930 4340
L92930 4460
L92910 4510
L92890 4530
L92840 4560
L92720 4560
L92670 4530
L92640 4510
" />
</g>
<g style="fill:#840000; fill-opacity:0.0; 
stroke:#840000; stroke-width:100; stroke-opacity:1; 
stroke-linecap:round; stroke-linejoin:round;">
</g>
<g style="fill:#840000; fill-opacity:0.0; 
stroke:#840000; stroke-width:60; stroke-opacity:1; 
stroke-linecap:round; stroke-linejoin:round;">
<text x="112200" y="4580"
textLength="550" font-size="680" lengthAdjust="spacingAndGlyphs"
text-anchor="start" opacity="0">6</text>
<path d="M112570 4050
L112470 4050
L112420 4070
L112400 4090
L112350 4170
L112320 4260
L112320 4460
L112350 4510
L112370 4530
L112420 4560
L112520 4560
L112570 4530
L112590 4510
L112610 4460
L112610 4340
L112590 4290
L112570 4260
L112520 4240
L112420 4240
L112370 4260
L112350 4290
L112320 4340
" />
</g>
<g style="fill:#840000; fill-opacity:0.0; 
stroke:#840000; stroke-width:100; stroke-opacity:1; 
stroke-linecap:round; stroke-linejoin:round;">
</g>
<g style="fill:#840000; fill-opacity:0.0; 
stroke:#840000; stroke-width:60; stroke-opacity:1; 
stroke-linecap:round; stroke-linejoin:round;">
<path d="M23620 77960
L23620 78740
" />
</g>
<g style="fill:#840000; fill-opacity:0.0; 
stroke:#840000; stroke-width:100; stroke-opacity:1; 
stroke-linecap:round; stroke-linejoin:round;">
</g>
<g style="fill:#840000; fill-opacity:0.0; 
stroke:#840000; stroke-width:60; stroke-opacity:1; 
stroke-linecap:round; stroke-linejoin:round;">
<path d="M43310 77960
L43310 78740
" />
</g>
<g style="fill:#840000; fill-opacity:0.0; 
stroke:#840000; stroke-width:100; stroke-opacity:1; 
stroke-linecap:round; stroke-linejoin:round;">
</g>
<g style="fill:#840000; fill-opacity:0.0; 
stroke:#840000; stroke-width:60; stroke-opacity:1; 
stroke-linecap:round; stroke-linejoin:round;">
<path d="M62990 77960
L62990 78740
" />
</g>
<g style="fill:#840000; fill-opacity:0.0; 
stroke:#840000; stroke-width:100; stroke-opacity:1; 
stroke-linecap:round; stroke-linejoin:round;">
</g>
<g style="fill:#840000; fill-opacity:0.0; 
stroke:#840000; stroke-width:60; stroke-opacity:1; 
stroke-linecap:round; stroke-linejoin:round;">
<path d="M82680 77960
L82680 78740
" />
</g>
<g style="fill:#840000; fill-opacity:0.0; 
stroke:#840000; stroke-width:100; stroke-opacity:1; 
stroke-linecap:round; stroke-linejoin:round;">
</g>
<g style="fill:#840000; fill-opacity:0.0; 
stroke:#840000; stroke-width:60; stroke-opacity:1; 
stroke-linecap:round; stroke-linejoin:round;">
<path d="M102360 77960
L102360 78740
" />
</g>
<g style="fill:#840000; fill-opacity:0.0; 
stroke:#840000; stroke-width:100; stroke-opacity:1; 
stroke-linecap:round; stroke-linejoin:round;">
</g>
<g style="fill:#840000; fill-opacity:0.0; 
stroke:#840000; stroke-width:60; stroke-opacity:1; 
stroke-linecap:round; stroke-linejoin:round;">
<text x="13780" y="78600"
textLength="550" font-size="680" lengthAdjust="spacingAndGlyphs"
text-anchor="start" opacity="0">1</text>
<path d="M14190 78580
L13900 78580
" />
<path d="M14050 78580
L14050 78070
L14000 78140
L13950 78190
L13900 78210
" />
</g>
<g style="fill:#840000; fill-opacity:0.0; 
stroke:#840000; stroke-width:100; stroke-opacity:1; 
stroke-linecap:round; stroke-linejoin:round;">
</g>
<g style="fill:#840000; fill-opacity:0.0; 
stroke:#840000; stroke-width:60; stroke-opacity:1; 
stroke-linecap:round; stroke-linejoin:round;">
<text x="33460" y="78600"
textLength="550" font-size="680" lengthAdjust="spacingAndGlyphs"
text-anchor="start" opacity="0">2</text>
<path d="M33580 78110
L33610 78090
L33660 78070
L33780 78070
L33830 78090
L33850 78110
L33870 78160
L33870 78210
L33850 78280
L33560 78580
L33870 78580
" />
</g>
<g style="fill:#840000; fill-opacity:0.0; 
stroke:#840000; stroke-width:100; stroke-opacity:1; 
stroke-linecap:round; stroke-linejoin:round;">
</g>
<g style="fill:#840000; fill-opacity:0.0; 
stroke:#840000; stroke-width:60; stroke-opacity:1; 
stroke-linecap:round; stroke-linejoin:round;">
<text x="53150" y="78600"
textLength="550" font-size="680" lengthAdjust="spacingAndGlyphs"
text-anchor="start" opacity="0">3</text>
<path d="M53250 78070
L53560 78070
L53390 78260
L53470 78260
L53520 78280
L53540 78310
L53560 78360
L53560 78480
L53540 78530
L53520 78550
L53470 78580
L53320 78580
L53270 78550
L53250 78530
" />
</g>
<g style="fill:#840000; fill-opacity:0.0; 
stroke:#840000; stroke-width:100; stroke-opacity:1; 
stroke-linecap:round; stroke-linejoin:round;">
</g>
<g style="fill:#840000; fill-opacity:0.0; 
stroke:#840000; stroke-width:60; stroke-opacity:1; 
stroke-linecap:round; stroke-linejoin:round;">
<text x="72830" y="78600"
textLength="550" font-size="680" lengthAdjust="spacingAndGlyphs"
text-anchor="start" opacity="0">4</text>
<path d="M73200 78240
L73200 78580
" />
<path d="M73070 78040
L72950 78410
L73270 78410
" />
</g>
<g style="fill:#840000; fill-opacity:0.0; 
stroke:#840000; stroke-width:100; stroke-opacity:1; 
stroke-linecap:round; stroke-linejoin:round;">
</g>
<g style="fill:#840000; fill-opacity:0.0; 
stroke:#840000; stroke-width:60; stroke-opacity:1; 
stroke-linecap:round; stroke-linejoin:round;">
<text x="92520" y="78600"
textLength="550" font-size="680" lengthAdjust="spacingAndGlyphs"
text-anchor="start" opacity="0">5</text>
<path d="M92910 78070
L92670 78070
L92640 78310
L92670 78280
L92720 78260
L92840 78260
L92890 78280
L92910 78310
L92930 78360
L92930 78480
L92910 78530
L92890 78550
L92840 78580
L92720 78580
L92670 78550
L92640 78530
" />
</g>
<g style="fill:#840000; fill-opacity:0.0; 
stroke:#840000; stroke-width:100; stroke-opacity:1; 
stroke-linecap:round; stroke-linejoin:round;">
</g>
<g style="fill:#840000; fill-opacity:0.0; 
stroke:#840000; stroke-width:60; stroke-opacity:1; 
stroke-linecap:round; stroke-linejoin:round;">
<text x="112200" y="78600"
textLength="550" font-size="680" lengthAdjust="spacingAndGlyphs"
text-anchor="start" opacity="0">6</text>
<path d="M112570 78070
L112470 78070
L112420 78090
L112400 78110
L112350 78190
L112320 78280
L112320 78480
L112350 78530
L112370 78550
L112420 78580
L112520 78580
L112570 78550
L112590 78530
L112610 78480
L112610 78360
L112590 78310
L112570 78280
L112520 78260
L112420 78260
L112370 78280
L112350 78310
L112320 78360
" />
</g>
<g style="fill:#840000; fill-opacity:0.0; 
stroke:#840000; stroke-width:100; stroke-opacity:1; 
stroke-linecap:round; stroke-linejoin:round;">
</g>
<g style="fill:#840000; fill-opacity:0.0; 
stroke:#840000; stroke-width:60; stroke-opacity:1; 
stroke-linecap:round; stroke-linejoin:round;">
<path d="M3940 23620
L4720 23620
" />
</g>
<g style="fill:#840000; fill-opacity:0.0; 
stroke:#840000; stroke-width:100; stroke-opacity:1; 
stroke-linecap:round; stroke-linejoin:round;">
</g>
<g style="fill:#840000; fill-opacity:0.0; 
stroke:#840000; stroke-width:60; stroke-opacity:1; 
stroke-linecap:round; stroke-linejoin:round;">
<path d="M3940 43310
L4720 43310
" />
</g>
<g style="fill:#840000; fill-opacity:0.0; 
stroke:#840000; stroke-width:100; stroke-opacity:1; 
stroke-linecap:round; stroke-linejoin:round;">
</g>
<g style="fill:#840000; fill-opacity:0.0; 
stroke:#840000; stroke-width:60; stroke-opacity:1; 
stroke-linecap:round; stroke-linejoin:round;">
<path d="M3940 62990
L4720 62990
" />
</g>
<g style="fill:#840000; fill-opacity:0.0; 
stroke:#840000; stroke-width:100; stroke-opacity:1; 
stroke-linecap:round; stroke-linejoin:round;">
</g>
<g style="fill:#840000; fill-opacity:0.0; 
stroke:#840000; stroke-width:60; stroke-opacity:1; 
stroke-linecap:round; stroke-linejoin:round;">
<text x="4330" y="14030"
textLength="500" font-size="680" lengthAdjust="spacingAndGlyphs"
text-anchor="middle" opacity="0">A</text>
<path d="M4200 13860
L4450 13860
" />
<path d="M4160 14010
L4330 13500
L4500 14010
" />
</g>
<g style="fill:#840000; fill-opacity:0.0; 
stroke:#840000; stroke-width:100; stroke-opacity:1; 
stroke-linecap:round; stroke-linejoin:round;">
</g>
<g style="fill:#840000; fill-opacity:0.0; 
stroke:#840000; stroke-width:60; stroke-opacity:1; 
stroke-linecap:round; stroke-linejoin:round;">
<text x="4330" y="33710"
textLength="570" font-size="680" lengthAdjust="spacingAndGlyphs"
text-anchor="middle" opacity="0">B</text>
<path d="M4360 33420
L4430 33440
L4460 33470
L4480 33520
L4480 33590
L4460 33640
L4430 33660
L4390 33690
L4190 33690
L4190 33180
L4360 33180
L4410 33200
L4430 33220
L4460 33270
L4460 33320
L4430 33370
L4410 33390
L4360 33420
L4190 33420
" />
</g>
<g style="fill:#840000; fill-opacity:0.0; 
stroke:#840000; stroke-width:100; stroke-opacity:1; 
stroke-linecap:round; stroke-linejoin:round;">
</g>
<g style="fill:#840000; fill-opacity:0.0; 
stroke:#840000; stroke-width:60; stroke-opacity:1; 
stroke-linecap:round; stroke-linejoin:round;">
<text x="4330" y="53400"
textLength="570" font-size="680" lengthAdjust="spacingAndGlyphs"
text-anchor="middle" opacity="0">C</text>
<path d="M4480 53330
L4460 53350
L4390 53380
L4340 53380
L4260 53350
L4220 53300
L4190 53250
L4170 53160
L4170 53080
L4190 52990
L4220 52940
L4260 52890
L4340 52870
L4390 52870
L4460 52890
L4480 52910
" />
</g>
<g style="fill:#840000; fill-opacity:0.0; 
stroke:#840000; stroke-width:100; stroke-opacity:1; 
stroke-linecap:round; stroke-linejoin:round;">
</g>
<g style="fill:#840000; fill-opacity:0.0; 
stroke:#840000; stroke-width:60; stroke-opacity:1; 
stroke-linecap:round; stroke-linejoin:round;">
<text x="4330" y="73080"
textLength="570" font-size="680" lengthAdjust="spacingAndGlyphs"
text-anchor="middle" opacity="0">D</text>
<path d="M4190 73060
L4190 72550
L4310 72550
L4390 72570
L4430 72620
L4460 72670
L4480 72760
L4480 72840
L4460 72930
L4430 72980
L4390 73030
L4310 73060
L4190 73060
" />
</g>
<g style="fill:#840000; fill-opacity:0.0; 
stroke:#840000; stroke-width:100; stroke-opacity:1; 
stroke-linecap:round; stroke-linejoin:round;">
</g>
<g style="fill:#840000; fill-opacity:0.0; 
stroke:#840000; stroke-width:60; stroke-opacity:1; 
stroke-linecap:round; stroke-linejoin:round;">
<path d="M112990 23620
L112210 23620
" />
</g>
<g style="fill:#840000; fill-opacity:0.0; 
stroke:#840000; stroke-width:100; stroke-opacity:1; 
stroke-linecap:round; stroke-linejoin:round;">
</g>
<g style="fill:#840000; fill-opacity:0.0; 
stroke:#840000; stroke-width:60; stroke-opacity:1; 
stroke-linecap:round; stroke-linejoin:round;">
<path d="M112990 43310
L112210 43310
" />
</g>
<g style="fill:#840000; fill-opacity:0.0; 
stroke:#840000; stroke-width:100; stroke-opacity:1; 
stroke-linecap:round; stroke-linejoin:round;">
</g>
<g style="fill:#840000; fill-opacity:0.0; 
stroke:#840000; stroke-width:60; stroke-opacity:1; 
stroke-linecap:round; stroke-linejoin:round;">
<path d="M112990 62990
L112210 62990
" />
</g>
<g style="fill:#840000; fill-opacity:0.0; 
stroke:#840000; stroke-width:100; stroke-opacity:1; 
stroke-linecap:round; stroke-linejoin:round;">
</g>
<g style="fill:#840000; fill-opacity:0.0; 
stroke:#840000; stroke-width:60; stroke-opacity:1; 
stroke-linecap:round; stroke-linejoin:round;">
<text x="112600" y="14030"
textLength="500" font-size="680" lengthAdjust="spacingAndGlyphs"
text-anchor="middle" opacity="0">A</text>
<path d="M112470 13860
L112720 13860
" />
<path d="M112430 14010
L112600 13500
L112770 14010
" />
</g>
<g style="fill:#840000; fill-opacity:0.0; 
stroke:#840000; stroke-width:100; stroke-opacity:1; 
stroke-linecap:round; stroke-linejoin:round;">
</g>
<g style="fill:#840000; fill-opacity:0.0; 
stroke:#840000; stroke-width:60; stroke-opacity:1; 
stroke-linecap:round; stroke-linejoin:round;">
<text x="112600" y="33710"
textLength="570" font-size="680" lengthAdjust="spacingAndGlyphs"
text-anchor="middle" opacity="0">B</text>
<path d="M112630 33420
L112700 33440
L112730 33470
L112750 33520
L112750 33590
L112730 33640
L112700 33660
L112660 33690
L112460 33690
L112460 33180
L112630 33180
L112680 33200
L112700 33220
L112730 33270
L112730 33320
L112700 33370
L112680 33390
L112630 33420
L112460 33420
" />
</g>
<g style="fill:#840000; fill-opacity:0.0; 
stroke:#840000; stroke-width:100; stroke-opacity:1; 
stroke-linecap:round; stroke-linejoin:round;">
</g>
<g style="fill:#840000; fill-opacity:0.0; 
stroke:#840000; stroke-width:60; stroke-opacity:1; 
stroke-linecap:round; stroke-linejoin:round;">
<text x="112600" y="53400"
textLength="570" font-size="680" lengthAdjust="spacingAndGlyphs"
text-anchor="middle" opacity="0">C</text>
<path d="M112750 53330
L112730 53350
L112660 53380
L112610 53380
L112530 53350
L112490 53300
L112460 53250
L112440 53160
L112440 53080
L112460 52990
L112490 52940
L112530 52890
L112610 52870
L112660 52870
L112730 52890
L112750 52910
" />
</g>
<g style="fill:#840000; fill-opacity:0.0; 
stroke:#840000; stroke-width:100; stroke-opacity:1; 
stroke-linecap:round; stroke-linejoin:round;">
</g>
<g style="fill:#840000; fill-opacity:0.0; 
stroke:#840000; stroke-width:60; stroke-opacity:1; 
stroke-linecap:round; stroke-linejoin:round;">
<text x="112600" y="73080"
textLength="570" font-size="680" lengthAdjust="spacingAndGlyphs"
text-anchor="middle" opacity="0">D</text>
<path d="M112460 73060
L112460 72550
L112580 72550
L112660 72570
L112700 72620
L112730 72670
L112750 72760
L112750 72840
L112730 72930
L112700 72980
L112660 73030
L112580 73060
L112460 73060
" />
</g>
<g style="fill:#840000; fill-opacity:0.0; 
stroke:#840000; stroke-width:100; stroke-opacity:1; 
stroke-linecap:round; stroke-linejoin:round;">
</g>
<g style="fill:#840000; fill-opacity:0.0; 
stroke:#840000; stroke-width:60; stroke-opacity:1; 
stroke-linecap:round; stroke-linejoin:round;">
<text x="78740" y="76320"
textLength="8710" font-size="780" lengthAdjust="spacingAndGlyphs"
text-anchor="start" opacity="0">Date: 2021-06-05</text>
<path d="M78910 76290
L78910 75700
L79050 75700
L79130 75730
L79190 75790
L79210 75840
L79240 75950
L79240 76040
L79210 76150
L79190 76210
L79130 76260
L79050 76290
L78910 76290
" />
<path d="M79750 76290
L79750 75980
L79720 75930
L79660 75900
L79550 75900
L79500 75930
" />
<path d="M79750 76260
L79690 76290
L79550 76290
L79500 76260
L79470 76210
L79470 76150
L79500 76100
L79550 76070
L79690 76070
L79750 76040
" />
<path d="M79950 75900
L80170 75900
" />
<path d="M80030 75700
L80030 76210
L80060 76260
L80110 76290
L80170 76290
" />
<path d="M80590 76260
L80540 76290
L80420 76290
L80370 76260
L80340 76210
L80340 75980
L80370 75930
L80420 75900
L80540 75900
L80590 75930
L80620 75980
L80620 76040
L80340 76100
" />
<path d="M80870 76240
L80900 76260
L80870 76290
L80840 76260
L80870 76240
L80870 76290
" />
<path d="M80870 75930
L80900 75950
L80870 75980
L80840 75950
L80870 75930
L80870 75980
" />
<path d="M81570 75760
L81600 75730
L81660 75700
L81800 75700
L81860 75730
L81880 75760
L81910 75810
L81910 75870
L81880 75950
L81550 76290
L81910 76290
" />
<path d="M82280 75700
L82330 75700
L82390 75730
L82420 75760
L82450 75810
L82470 75930
L82470 76070
L82450 76180
L82420 76240
L82390 76260
L82330 76290
L82280 76290
L82220 76260
L82190 76240
L82160 76180
L82140 76070
L82140 75930
L82160 75810
L82190 75760
L82220 75730
L82280 75700
" />
<path d="M82700 75760
L82730 75730
L82780 75700
L82920 75700
L82980 75730
L83010 75760
L83040 75810
L83040 75870
L83010 75950
L82670 76290
L83040 76290
" />
<path d="M83600 76290
L83260 76290
" />
<path d="M83430 76290
L83430 75700
L83370 75790
L83320 75840
L83260 75870
" />
<path d="M83850 76070
L84300 76070
" />
<path d="M84690 75700
L84750 75700
L84810 75730
L84830 75760
L84860 75810
L84890 75930
L84890 76070
L84860 76180
L84830 76240
L84810 76260
L84750 76290
L84690 76290
L84640 76260
L84610 76240
L84580 76180
L84550 76070
L84550 75930
L84580 75810
L84610 75760
L84640 75730
L84690 75700
" />
<path d="M85400 75700
L85280 75700
L85230 75730
L85200 75760
L85140 75840
L85110 75950
L85110 76180
L85140 76240
L85170 76260
L85230 76290
L85340 76290
L85400 76260
L85420 76240
L85450 76180
L85450 76040
L85420 75980
L85400 75950
L85340 75930
L85230 75930
L85170 75950
L85140 75980
L85110 76040
" />
<path d="M85700 76070
L86150 76070
" />
<path d="M86550 75700
L86600 75700
L86660 75730
L86690 75760
L86720 75810
L86740 75930
L86740 76070
L86720 76180
L86690 76240
L86660 76260
L86600 76290
L86550 76290
L86490 76260
L86460 76240
L86440 76180
L86410 76070
L86410 75930
L86440 75810
L86460 75760
L86490 75730
L86550 75700
" />
<path d="M87280 75700
L87000 75700
L86970 75980
L87000 75950
L87050 75930
L87190 75930
L87250 75950
L87280 75980
L87310 76040
L87310 76180
L87280 76240
L87250 76260
L87190 76290
L87050 76290
L87000 76260
L86970 76240
" />
</g>
<g style="fill:#840000; fill-opacity:0.0; 
stroke:#840000; stroke-width:100; stroke-opacity:1; 
stroke-linecap:round; stroke-linejoin:round;">
</g>
<g style="fill:#840000; fill-opacity:0.0; 
stroke:#840000; stroke-width:60; stroke-opacity:1; 
stroke-linecap:round; stroke-linejoin:round;">
<path d="M69690 76580
L112210 76580
" />
</g>
<g style="fill:#840000; fill-opacity:0.0; 
stroke:#840000; stroke-width:100; stroke-opacity:1; 
stroke-linecap:round; stroke-linejoin:round;">
</g>
<g style="fill:#840000; fill-opacity:0.0; 
stroke:#840000; stroke-width:60; stroke-opacity:1; 
stroke-linecap:round; stroke-linejoin:round;">
<text x="70080" y="77420"
textLength="16950" font-size="780" lengthAdjust="spacingAndGlyphs"
text-anchor="start" opacity="0">KiCad E.D.A.  kicad (5.1.8-0-10_14)</text>
<path d="M70250 77390
L70250 76800
" />
<path d="M70580 77390
L70330 77050
" />
<path d="M70580 76800
L70250 77140
" />
<path d="M70840 77390
L70840 77000
" />
<path d="M70840 76800
L70810 76830
L70840 76860
L70860 76830
L70840 76800
L70840 76860
" />
<path d="M71450 77340
L71430 77360
L71340 77390
L71290 77390
L71200 77360
L71140 77310
L71120 77250
L71090 77140
L71090 77050
L71120 76940
L71140 76890
L71200 76830
L71290 76800
L71340 76800
L71430 76830
L71450 76860
" />
<path d="M71960 77390
L71960 77080
L71930 77030
L71880 77000
L71760 77000
L71710 77030
" />
<path d="M71960 77360
L71900 77390
L71760 77390
L71710 77360
L71680 77310
L71680 77250
L71710 77200
L71760 77170
L71900 77170
L71960 77140
" />
<path d="M72490 77390
L72490 76800
" />
<path d="M72490 77360
L72440 77390
L72320 77390
L72270 77360
L72240 77340
L72210 77280
L72210 77110
L72240 77050
L72270 77030
L72320 77000
L72440 77000
L72490 77030
" />
<path d="M73220 77080
L73420 77080
" />
<path d="M73500 77390
L73220 77390
L73220 76800
L73500 76800
" />
<path d="M73760 77340
L73790 77360
L73760 77390
L73730 77360
L73760 77340
L73760 77390
" />
<path d="M74040 77390
L74040 76800
L74180 76800
L74260 76830
L74320 76890
L74350 76940
L74380 77050
L74380 77140
L74350 77250
L74320 77310
L74260 77360
L74180 77390
L74040 77390
" />
<path d="M74630 77340
L74660 77360
L74630 77390
L74600 77360
L74630 77340
L74630 77390
" />
<path d="M74880 77220
L75160 77220
" />
<path d="M74830 77390
L75020 76800
L75220 77390
" />
<path d="M75420 77340
L75440 77360
L75420 77390
L75390 77360
L75420 77340
L75420 77390
" />
<path d="M76600 77390
L76600 76800
" />
<path d="M76650 77170
L76820 77390
" />
<path d="M76820 77000
L76600 77220
" />
<path d="M77070 77390
L77070 77000
" />
<path d="M77070 76800
L77040 76830
L77070 76860
L77100 76830
L77070 76800
L77070 76860
" />
<path d="M77610 77360
L77550 77390
L77440 77390
L77380 77360
L77350 77340
L77330 77280
L77330 77110
L77350 77050
L77380 77030
L77440 77000
L77550 77000
L77610 77030
" />
<path d="M78110 77390
L78110 77080
L78080 77030
L78030 77000
L77920 77000
L77860 77030
" />
<path d="M78110 77360
L78060 77390
L77920 77390
L77860 77360
L77830 77310
L77830 77250
L77860 77200
L77920 77170
L78060 77170
L78110 77140
" />
<path d="M78650 77390
L78650 76800
" />
<path d="M78650 77360
L78590 77390
L78480 77390
L78420 77360
L78390 77340
L78370 77280
L78370 77110
L78390 77050
L78420 77030
L78480 77000
L78590 77000
L78650 77030
" />
<path d="M79550 77620
L79520 77590
L79460 77500
L79430 77450
L79400 77360
L79380 77220
L79380 77110
L79400 76970
L79430 76890
L79460 76830
L79520 76750
L79550 76720
" />
<path d="M80050 76800
L79770 76800
L79740 77080
L79770 77050
L79830 77030
L79970 77030
L80020 77050
L80050 77080
L80080 77140
L80080 77280
L80050 77340
L80020 77360
L79970 77390
L79830 77390
L79770 77360
L79740 77340
" />
<path d="M80330 77340
L80360 77360
L80330 77390
L80300 77360
L80330 77340
L80330 77390
" />
<path d="M80920 77390
L80580 77390
" />
<path d="M80750 77390
L80750 76800
L80700 76890
L80640 76940
L80580 76970
" />
<path d="M81170 77340
L81200 77360
L81170 77390
L81150 77360
L81170 77340
L81170 77390
" />
<path d="M81540 77050
L81480 77030
L81460 77000
L81430 76940
L81430 76910
L81460 76860
L81480 76830
L81540 76800
L81650 76800
L81710 76830
L81740 76860
L81760 76910
L81760 76940
L81740 77000
L81710 77030
L81650 77050
L81540 77050
L81480 77080
L81460 77110
L81430 77170
L81430 77280
L81460 77340
L81480 77360
L81540 77390
L81650 77390
L81710 77360
L81740 77340
L81760 77280
L81760 77170
L81740 77110
L81710 77080
L81650 77050
" />
<path d="M82020 77170
L82470 77170
" />
<path d="M82860 76800
L82920 76800
L82970 76830
L83000 76860
L83030 76910
L83060 77030
L83060 77170
L83030 77280
L83000 77340
L82970 77360
L82920 77390
L82860 77390
L82800 77360
L82780 77340
L82750 77280
L82720 77170
L82720 77030
L82750 76910
L82780 76860
L82800 76830
L82860 76800
" />
<path d="M83310 77170
L83760 77170
" />
<path d="M84350 77390
L84010 77390
" />
<path d="M84180 77390
L84180 76800
L84120 76890
L84070 76940
L84010 76970
" />
<path d="M84710 76800
L84770 76800
L84830 76830
L84860 76860
L84880 76910
L84910 77030
L84910 77170
L84880 77280
L84860 77340
L84830 77360
L84770 77390
L84710 77390
L84660 77360
L84630 77340
L84600 77280
L84570 77170
L84570 77030
L84600 76910
L84630 76860
L84660 76830
L84710 76800
" />
<path d="M85020 77450
L85470 77450
" />
<path d="M85920 77390
L85590 77390
" />
<path d="M85750 77390
L85750 76800
L85700 76890
L85640 76940
L85590 76970
" />
<path d="M86430 77000
L86430 77390
" />
<path d="M86290 76770
L86150 77200
L86510 77200
" />
<path d="M86680 77620
L86710 77590
L86770 77500
L86790 77450
L86820 77360
L86850 77220
L86850 77110
L86820 76970
L86790 76890
L86770 76830
L86710 76750
L86680 76720
" />
</g>
<g style="fill:#840000; fill-opacity:0.0; 
stroke:#840000; stroke-width:100; stroke-opacity:1; 
stroke-linecap:round; stroke-linejoin:round;">
</g>
<g style="fill:#840000; fill-opacity:0.0; 
stroke:#840000; stroke-width:60; stroke-opacity:1; 
stroke-linecap:round; stroke-linejoin:round;">
<path d="M69690 75400
L112210 75400
" />
</g>
<g style="fill:#840000; fill-opacity:0.0; 
stroke:#840000; stroke-width:100; stroke-opacity:1; 
stroke-linecap:round; stroke-linejoin:round;">
</g>
<g style="fill:#840000; fill-opacity:0.0; 
stroke:#840000; stroke-width:120; stroke-opacity:1; 
stroke-linecap:round; stroke-linejoin:round;">
<text x="103540" y="76320"
textLength="2840" font-size="780" lengthAdjust="spacingAndGlyphs"
text-anchor="start" opacity="0">Rev: A</text>
<path d="M104090 76290
L103890 76010
" />
<path d="M103750 76290
L103750 75700
L103980 75700
L104030 75730
L104060 75760
L104090 75810
L104090 75900
L104060 75950
L104030 75980
L103980 76010
L103750 76010
" />
<path d="M104570 76260
L104510 76290
L104400 76290
L104340 76260
L104320 76210
L104320 75980
L104340 75930
L104400 75900
L104510 75900
L104570 75930
L104600 75980
L104600 76040
L104320 76100
" />
<path d="M104790 75900
L104930 76290
L105070 75900
" />
<path d="M105300 76240
L105330 76260
L105300 76290
L105270 76260
L105300 76240
L105300 76290
" />
<path d="M105300 75930
L105330 75950
L105300 75980
L105270 75950
L105300 75930
L105300 75980
" />
<path d="M106000 76120
L106280 76120
" />
<path d="M105940 76290
L106140 75700
L106340 76290
" />
</g>
<g style="fill:#840000; fill-opacity:0.0; 
stroke:#840000; stroke-width:100; stroke-opacity:1; 
stroke-linecap:round; stroke-linejoin:round;">
</g>
<g style="fill:#840000; fill-opacity:0.0; 
stroke:#840000; stroke-width:60; stroke-opacity:1; 
stroke-linecap:round; stroke-linejoin:round;">
<text x="70080" y="76320"
textLength="3780" font-size="780" lengthAdjust="spacingAndGlyphs"
text-anchor="start" opacity="0">Size: A4</text>
<path d="M70220 76260
L70300 76290
L70440 76290
L70500 76260
L70530 76240
L70550 76180
L70550 76120
L70530 76070
L70500 76040
L70440 76010
L70330 75980
L70270 75950
L70250 75930
L70220 75870
L70220 75810
L70250 75760
L70270 75730
L70330 75700
L70470 75700
L70550 75730
" />
<path d="M70810 76290
L70810 75900
" />
<path d="M70810 75700
L70780 75730
L70810 75760
L70840 75730
L70810 75700
L70810 75760
" />
<path d="M71030 75900
L71340 75900
L71030 76290
L71340 76290
" />
<path d="M71790 76260
L71730 76290
L71620 76290
L71570 76260
L71540 76210
L71540 75980
L71570 75930
L71620 75900
L71730 75900
L71790 75930
L71820 75980
L71820 76040
L71540 76100
" />
<path d="M72070 76240
L72100 76260
L72070 76290
L72040 76260
L72070 76240
L72070 76290
" />
<path d="M72070 75930
L72100 75950
L72070 75980
L72040 75950
L72070 75930
L72070 75980
" />
<path d="M72770 76120
L73060 76120
" />
<path d="M72720 76290
L72910 75700
L73110 76290
" />
<path d="M73560 75900
L73560 76290
" />
<path d="M73420 75670
L73280 76100
L73650 76100
" />
</g>
<g style="fill:#840000; fill-opacity:0.0; 
stroke:#840000; stroke-width:100; stroke-opacity:1; 
stroke-linecap:round; stroke-linejoin:round;">
</g>
<g style="fill:#840000; fill-opacity:0.0; 
stroke:#840000; stroke-width:60; stroke-opacity:1; 
stroke-linecap:round; stroke-linejoin:round;">
<text x="103540" y="77420"
textLength="3910" font-size="780" lengthAdjust="spacingAndGlyphs"
text-anchor="start" opacity="0">Id: 5/46</text>
<path d="M103710 77390
L103710 76800
" />
<path d="M104240 77390
L104240 76800
" />
<path d="M104240 77360
L104180 77390
L104070 77390
L104010 77360
L103990 77340
L103960 77280
L103960 77110
L103990 77050
L104010 77030
L104070 77000
L104180 77000
L104240 77030
" />
<path d="M104520 77340
L104550 77360
L104520 77390
L104490 77360
L104520 77340
L104520 77390
" />
<path d="M104520 77030
L104550 77050
L104520 77080
L104490 77050
L104520 77030
L104520 77080
" />
<path d="M105530 76800
L105250 76800
L105220 77080
L105250 77050
L105310 77030
L105450 77030
L105500 77050
L105530 77080
L105560 77140
L105560 77280
L105530 77340
L105500 77360
L105450 77390
L105310 77390
L105250 77360
L105220 77340
" />
<path d="M106230 76770
L105730 77530
" />
<path d="M106680 77000
L106680 77390
" />
<path d="M106540 76770
L106400 77200
L106770 77200
" />
<path d="M107250 76800
L107130 76800
L107080 76830
L107050 76860
L106990 76940
L106960 77050
L106960 77280
L106990 77340
L107020 77360
L107080 77390
L107190 77390
L107250 77360
L107270 77340
L107300 77280
L107300 77140
L107270 77080
L107250 77050
L107190 77030
L107080 77030
L107020 77050
L106990 77080
L106960 77140
" />
</g>
<g style="fill:#840000; fill-opacity:0.0; 
stroke:#840000; stroke-width:100; stroke-opacity:1; 
stroke-linecap:round; stroke-linejoin:round;">
</g>
<g style="fill:#840000; fill-opacity:0.0; 
stroke:#840000; stroke-width:60; stroke-opacity:1; 
stroke-linecap:round; stroke-linejoin:round;">
<path d="M69690 73820
L112210 73820
" />
</g>
<g style="fill:#840000; fill-opacity:0.0; 
stroke:#840000; stroke-width:100; stroke-opacity:1; 
stroke-linecap:round; stroke-linejoin:round;">
</g>
<g style="fill:#840000; fill-opacity:0.0; 
stroke:#840000; stroke-width:160; stroke-opacity:1; 
stroke-linecap:round; stroke-linejoin:round;">
<text x="70080" y="74920"
textLength="8420" font-size="1050" lengthAdjust="spacingAndGlyphs"
text-anchor="start" opacity="0">Title: Encoder</text>
<path d="M70360 74090
L70810 74090
" />
<path d="M70480 74880
L70580 74090
" />
<path d="M70970 74880
L71040 74360
" />
<path d="M71070 74090
L71030 74130
L71060 74170
L71110 74130
L71070 74090
L71060 74170
" />
<path d="M71300 74360
L71600 74360
" />
<path d="M71450 74090
L71360 74770
L71390 74840
L71460 74880
L71540 74880
" />
<path d="M71910 74880
L71840 74840
L71820 74770
L71900 74090
" />
<path d="M72520 74840
L72440 74880
L72290 74880
L72220 74840
L72190 74770
L72230 74470
L72280 74390
L72360 74360
L72510 74360
L72580 74390
L72610 74470
L72600 74540
L72210 74620
" />
<path d="M72900 74810
L72930 74840
L72890 74880
L72860 74840
L72900 74810
L72890 74880
" />
<path d="M72950 74390
L72990 74430
L72940 74470
L72910 74430
L72950 74390
L72940 74470
" />
<path d="M73920 74470
L74190 74470
" />
<path d="M74250 74880
L73870 74880
L73970 74090
L74350 74090
" />
<path d="M74650 74360
L74590 74880
" />
<path d="M74640 74430
L74680 74390
L74760 74360
L74880 74360
L74950 74390
L74980 74470
L74920 74880
" />
<path d="M75640 74840
L75560 74880
L75410 74880
L75340 74840
L75310 74810
L75280 74730
L75310 74510
L75360 74430
L75400 74390
L75480 74360
L75630 74360
L75700 74390
" />
<path d="M76090 74880
L76020 74840
L75990 74810
L75960 74730
L75990 74510
L76030 74430
L76080 74390
L76160 74360
L76270 74360
L76340 74390
L76370 74430
L76400 74510
L76370 74730
L76330 74810
L76280 74840
L76200 74880
L76090 74880
" />
<path d="M77030 74880
L77130 74090
" />
<path d="M77040 74840
L76960 74880
L76800 74880
L76730 74840
L76700 74810
L76670 74730
L76700 74510
L76750 74430
L76790 74390
L76870 74360
L77020 74360
L77090 74390
" />
<path d="M77710 74840
L77630 74880
L77480 74880
L77410 74840
L77380 74770
L77420 74470
L77470 74390
L77550 74360
L77700 74360
L77770 74390
L77800 74470
L77790 74540
L77400 74620
" />
<path d="M78080 74880
L78150 74360
" />
<path d="M78130 74510
L78180 74430
L78220 74390
L78300 74360
L78380 74360
" />
</g>
<g style="fill:#840000; fill-opacity:0.0; 
stroke:#840000; stroke-width:100; stroke-opacity:1; 
stroke-linecap:round; stroke-linejoin:round;">
</g>
<g style="fill:#840000; fill-opacity:0.0; 
stroke:#840000; stroke-width:60; stroke-opacity:1; 
stroke-linecap:round; stroke-linejoin:round;">
<text x="70080" y="73400"
textLength="7850" font-size="780" lengthAdjust="spacingAndGlyphs"
text-anchor="start" opacity="0">File: Encoder.sch</text>
<path d="M70440 73060
L70250 73060
" />
<path d="M70250 73370
L70250 72780
L70530 72780
" />
<path d="M70750 73370
L70750 72980
" />
<path d="M70750 72780
L70720 72810
L70750 72840
L70780 72810
L70750 72780
L70750 72840
" />
<path d="M71120 73370
L71060 73340
L71030 73290
L71030 72780
" />
<path d="M71570 73340
L71510 73370
L71400 73370
L71340 73340
L71310 73290
L71310 73060
L71340 73010
L71400 72980
L71510 72980
L71570 73010
L71590 73060
L71590 73120
L71310 73180
" />
<path d="M71850 73320
L71880 73340
L71850 73370
L71820 73340
L71850 73320
L71850 73370
" />
<path d="M71850 73010
L71880 73030
L71850 73060
L71820 73030
L71850 73010
L71850 73060
" />
<path d="M72580 73060
L72770 73060
" />
<path d="M72860 73370
L72580 73370
L72580 72780
L72860 72780
" />
<path d="M73110 72980
L73110 73370
" />
<path d="M73110 73030
L73140 73010
L73200 72980
L73280 72980
L73340 73010
L73360 73060
L73360 73370
" />
<path d="M73900 73340
L73840 73370
L73730 73370
L73670 73340
L73650 73320
L73620 73260
L73620 73090
L73650 73030
L73670 73010
L73730 72980
L73840 72980
L73900 73010
" />
<path d="M74240 73370
L74180 73340
L74150 73320
L74120 73260
L74120 73090
L74150 73030
L74180 73010
L74240 72980
L74320 72980
L74380 73010
L74400 73030
L74430 73090
L74430 73260
L74400 73320
L74380 73340
L74320 73370
L74240 73370
" />
<path d="M74940 73370
L74940 72780
" />
<path d="M74940 73340
L74880 73370
L74770 73370
L74710 73340
L74680 73320
L74660 73260
L74660 73090
L74680 73030
L74710 73010
L74770 72980
L74880 72980
L74940 73010
" />
<path d="M75440 73340
L75390 73370
L75270 73370
L75220 73340
L75190 73290
L75190 73060
L75220 73010
L75270 72980
L75390 72980
L75440 73010
L75470 73060
L75470 73120
L75190 73180
" />
<path d="M75720 73370
L75720 72980
" />
<path d="M75720 73090
L75750 73030
L75780 73010
L75840 72980
L75890 72980
" />
<path d="M76090 73320
L76120 73340
L76090 73370
L76060 73340
L76090 73320
L76090 73370
" />
<path d="M76340 73340
L76400 73370
L76510 73370
L76570 73340
L76600 73290
L76600 73260
L76570 73200
L76510 73180
L76430 73180
L76370 73150
L76340 73090
L76340 73060
L76370 73010
L76430 72980
L76510 72980
L76570 73010
" />
<path d="M77100 73340
L77040 73370
L76930 73370
L76880 73340
L76850 73320
L76820 73260
L76820 73090
L76850 73030
L76880 73010
L76930 72980
L77040 72980
L77100 73010
" />
<path d="M77350 73370
L77350 72780
" />
<path d="M77610 73370
L77610 73060
L77580 73010
L77520 72980
L77440 72980
L77380 73010
L77350 73030
" />
</g>
<g style="fill:#840000; fill-opacity:0.0; 
stroke:#840000; stroke-width:100; stroke-opacity:1; 
stroke-linecap:round; stroke-linejoin:round;">
</g>
<g style="fill:#840000; fill-opacity:0.0; 
stroke:#840000; stroke-width:60; stroke-opacity:1; 
stroke-linecap:round; stroke-linejoin:round;">
<path d="M69690 71460
L112210 71460
" />
</g>
<g style="fill:#840000; fill-opacity:0.0; 
stroke:#840000; stroke-width:100; stroke-opacity:1; 
stroke-linecap:round; stroke-linejoin:round;">
</g>
<g style="fill:#840000; fill-opacity:0.0; 
stroke:#840000; stroke-width:60; stroke-opacity:1; 
stroke-linecap:round; stroke-linejoin:round;">
<text x="70080" y="72340"
textLength="10480" font-size="780" lengthAdjust="spacingAndGlyphs"
text-anchor="start" opacity="0">Sheet: /MCU/Encoder/</text>
<path d="M70220 72280
L70300 72310
L70440 72310
L70500 72280
L70530 72260
L70550 72200
L70550 72140
L70530 72090
L70500 72060
L70440 72030
L70330 72000
L70270 71970
L70250 71950
L70220 71890
L70220 71830
L70250 71780
L70270 71750
L70330 71720
L70470 71720
L70550 71750
" />
<path d="M70810 72310
L70810 71720
" />
<path d="M71060 72310
L71060 72000
L71030 71950
L70980 71920
L70890 71920
L70840 71950
L70810 71970
" />
<path d="M71570 72280
L71510 72310
L71400 72310
L71340 72280
L71310 72230
L71310 72000
L71340 71950
L71400 71920
L71510 71920
L71570 71950
L71590 72000
L71590 72060
L71310 72120
" />
<path d="M72070 72280
L72020 72310
L71900 72310
L71850 72280
L71820 72230
L71820 72000
L71850 71950
L71900 71920
L72020 71920
L72070 71950
L72100 72000
L72100 72060
L71820 72120
" />
<path d="M72270 71920
L72490 71920
" />
<path d="M72350 71720
L72350 72230
L72380 72280
L72440 72310
L72490 72310
" />
<path d="M72690 72260
L72720 72280
L72690 72310
L72660 72280
L72690 72260
L72690 72310
" />
<path d="M72690 71950
L72720 71970
L72690 72000
L72660 71970
L72690 71950
L72690 72000
" />
<path d="M73840 71690
L73340 72450
" />
<path d="M74040 72310
L74040 71720
L74240 72140
L74430 71720
L74430 72310
" />
<path d="M75050 72260
L75020 72280
L74940 72310
L74880 72310
L74800 72280
L74740 72230
L74710 72170
L74680 72060
L74680 71970
L74710 71860
L74740 71810
L74800 71750
L74880 71720
L74940 71720
L75020 71750
L75050 71780
" />
<path d="M75300 71720
L75300 72200
L75330 72260
L75360 72280
L75420 72310
L75530 72310
L75580 72280
L75610 72260
L75640 72200
L75640 71720
" />
<path d="M76340 71690
L75840 72450
" />
<path d="M76540 72000
L76740 72000
" />
<path d="M76820 72310
L76540 72310
L76540 71720
L76820 71720
" />
<path d="M77070 71920
L77070 72310
" />
<path d="M77070 71970
L77100 71950
L77160 71920
L77240 71920
L77300 71950
L77330 72000
L77330 72310
" />
<path d="M77860 72280
L77800 72310
L77690 72310
L77630 72280
L77610 72260
L77580 72200
L77580 72030
L77610 71970
L77630 71950
L77690 71920
L77800 71920
L77860 71950
" />
<path d="M78200 72310
L78140 72280
L78110 72260
L78080 72200
L78080 72030
L78110 71970
L78140 71950
L78200 71920
L78280 71920
L78340 71950
L78370 71970
L78390 72030
L78390 72200
L78370 72260
L78340 72280
L78280 72310
L78200 72310
" />
<path d="M78900 72310
L78900 71720
" />
<path d="M78900 72280
L78840 72310
L78730 72310
L78670 72280
L78650 72260
L78620 72200
L78620 72030
L78650 71970
L78670 71950
L78730 71920
L78840 71920
L78900 71950
" />
<path d="M79400 72280
L79350 72310
L79240 72310
L79180 72280
L79150 72230
L79150 72000
L79180 71950
L79240 71920
L79350 71920
L79400 71950
L79430 72000
L79430 72060
L79150 72120
" />
<path d="M79690 72310
L79690 71920
" />
<path d="M79690 72030
L79710 71970
L79740 71950
L79800 71920
L79850 71920
" />
<path d="M80470 71690
L79970 72450
" />
</g>
<g style="fill:#840000; fill-opacity:0.0; 
stroke:#840000; stroke-width:100; stroke-opacity:1; 
stroke-linecap:round; stroke-linejoin:round;">
</g>
<g style="fill:#840000; fill-opacity:0.0; 
stroke:#840000; stroke-width:120; stroke-opacity:1; 
stroke-linecap:round; stroke-linejoin:round;">
<text x="70080" y="71160"
textLength="9190" font-size="780" lengthAdjust="spacingAndGlyphs"
text-anchor="start" opacity="0">Created by C Sutton</text>
<path d="M70630 71080
L70600 71100
L70520 71130
L70460 71130
L70380 71100
L70320 71050
L70290 70990
L70270 70880
L70270 70790
L70290 70680
L70320 70630
L70380 70570
L70460 70540
L70520 70540
L70600 70570
L70630 70600
" />
<path d="M70880 71130
L70880 70740
" />
<path d="M70880 70850
L70910 70790
L70940 70770
L71000 70740
L71050 70740
" />
<path d="M71470 71100
L71420 71130
L71300 71130
L71250 71100
L71220 71050
L71220 70820
L71250 70770
L71300 70740
L71420 70740
L71470 70770
L71500 70820
L71500 70880
L71220 70940
" />
<path d="M72010 71130
L72010 70820
L71980 70770
L71920 70740
L71810 70740
L71750 70770
" />
<path d="M72010 71100
L71950 71130
L71810 71130
L71750 71100
L71730 71050
L71730 70990
L71750 70940
L71810 70910
L71950 70910
L72010 70880
" />
<path d="M72200 70740
L72430 70740
" />
<path d="M72290 70540
L72290 71050
L72320 71100
L72370 71130
L72430 71130
" />
<path d="M72850 71100
L72790 71130
L72680 71130
L72630 71100
L72600 71050
L72600 70820
L72630 70770
L72680 70740
L72790 70740
L72850 70770
L72880 70820
L72880 70880
L72600 70940
" />
<path d="M73380 71130
L73380 70540
" />
<path d="M73380 71100
L73330 71130
L73220 71130
L73160 71100
L73130 71080
L73100 71020
L73100 70850
L73130 70790
L73160 70770
L73220 70740
L73330 70740
L73380 70770
" />
<path d="M74110 71130
L74110 70540
" />
<path d="M74110 70770
L74170 70740
L74280 70740
L74340 70770
L74370 70790
L74400 70850
L74400 71020
L74370 71080
L74340 71100
L74280 71130
L74170 71130
L74110 71100
" />
<path d="M74590 70740
L74730 71130
" />
<path d="M74870 70740
L74730 71130
L74680 71270
L74650 71300
L74590 71330
" />
<path d="M75880 71080
L75860 71100
L75770 71130
L75720 71130
L75630 71100
L75580 71050
L75550 70990
L75520 70880
L75520 70790
L75550 70680
L75580 70630
L75630 70570
L75720 70540
L75770 70540
L75860 70570
L75880 70600
" />
<path d="M76560 71100
L76640 71130
L76780 71130
L76840 71100
L76870 71080
L76900 71020
L76900 70960
L76870 70910
L76840 70880
L76780 70850
L76670 70820
L76610 70790
L76590 70770
L76560 70710
L76560 70650
L76590 70600
L76610 70570
L76670 70540
L76810 70540
L76900 70570
" />
<path d="M77400 70740
L77400 71130
" />
<path d="M77150 70740
L77150 71050
L77180 71100
L77230 71130
L77320 71130
L77370 71100
L77400 71080
" />
<path d="M77600 70740
L77820 70740
" />
<path d="M77680 70540
L77680 71050
L77710 71100
L77770 71130
L77820 71130
" />
<path d="M77940 70740
L78160 70740
" />
<path d="M78020 70540
L78020 71050
L78050 71100
L78100 71130
L78160 71130
" />
<path d="M78440 71130
L78380 71100
L78360 71080
L78330 71020
L78330 70850
L78360 70790
L78380 70770
L78440 70740
L78530 70740
L78580 70770
L78610 70790
L78640 70850
L78640 71020
L78610 71080
L78580 71100
L78530 71130
L78440 71130
" />
<path d="M78890 70740
L78890 71130
" />
<path d="M78890 70790
L78920 70770
L78970 70740
L79060 70740
L79120 70770
L79140 70820
L79140 71130
" />
</g>
<g style="fill:#840000; fill-opacity:0.0; 
stroke:#840000; stroke-width:100; stroke-opacity:1; 
stroke-linecap:round; stroke-linejoin:round;">
</g>
<g style="fill:#840000; fill-opacity:0.0; 
stroke:#840000; stroke-width:60; stroke-opacity:1; 
stroke-linecap:round; stroke-linejoin:round;">
<path d="M77560 75400
L77560 76580
" />
</g>
<g style="fill:#840000; fill-opacity:0.0; 
stroke:#840000; stroke-width:100; stroke-opacity:1; 
stroke-linecap:round; stroke-linejoin:round;">
</g>
<g style="fill:#840000; fill-opacity:0.0; 
stroke:#840000; stroke-width:60; stroke-opacity:1; 
stroke-linecap:round; stroke-linejoin:round;">
<path d="M102760 75400
L102760 77960
" />
</g>
<g style="fill:#840000; fill-opacity:0.0; 
stroke:#840000; stroke-width:0; stroke-opacity:1; 
stroke-linecap:round; stroke-linejoin:round;">
<g >
</g>
<g style="fill:#FFFFC2; fill-opacity:0.0; 
stroke:#FFFFC2; stroke-width:0; stroke-opacity:1; 
stroke-linecap:round; stroke-linejoin:round;">
</g>
<g style="fill:#FFFFC2; fill-opacity:0.6; 
stroke:#FFFFC2; stroke-width:0; stroke-opacity:1; 
stroke-linecap:round; stroke-linejoin:round;">
<rect x="56250" y="39000" width="4000" height="4000" rx="0" />
</g>
<g style="fill:#840000; fill-opacity:0.6; 
stroke:#840000; stroke-width:0; stroke-opacity:1; 
stroke-linecap:round; stroke-linejoin:round;">
</g>
<g style="fill:#840000; fill-opacity:0.0; 
stroke:#840000; stroke-width:100; stroke-opacity:1; 
stroke-linecap:round; stroke-linejoin:round;">
<rect x="56250" y="39000" width="4000" height="4000" rx="0" />
<path d="M59350 41148.1 A1080 1080 0.0 0 0 57190 41148.1" />
</g>
<g style="fill:#840000; fill-opacity:1.0; 
stroke:#840000; stroke-width:60; stroke-opacity:1; 
stroke-linecap:round; stroke-linejoin:round;">
<circle cx="58250" cy="42500" r="100" /> 
</g>
<g style="fill:#840000; fill-opacity:0.0; 
stroke:#840000; stroke-width:100; stroke-opacity:1; 
stroke-linecap:round; stroke-linejoin:round;">
<circle cx="58250" cy="41150" r="750" /> 
<circle cx="58650" cy="39300" r="50" /> 
<circle cx="57850" cy="39300" r="50" /> 
<rect x="56250" y="39000" width="4000" height="4000" rx="0" />
<path style="fill:#840000; fill-opacity:0.0; 
stroke:#840000; stroke-width:100; stroke-opacity:1; 
stroke-linecap:round; stroke-linejoin:round;fill:none"
d="M 58950,41250
57550,41250
" /> 
<path style="fill:#840000; fill-opacity:0.0; 
stroke:#840000; stroke-width:100; stroke-opacity:1; 
stroke-linecap:round; stroke-linejoin:round;fill:none"
d="M 58950,41150
57550,41150
" /> 
<path style="fill:#840000; fill-opacity:0.0; 
stroke:#840000; stroke-width:100; stroke-opacity:1; 
stroke-linecap:round; stroke-linejoin:round;fill:none"
d="M 57550,41050
58950,41050
" /> 
<path style="fill:#840000; fill-opacity:0.0; 
stroke:#840000; stroke-width:100; stroke-opacity:1; 
stroke-linecap:round; stroke-linejoin:round;fill:none"
d="M 58250,39500
58250,39650
" /> 
<path style="fill:#840000; fill-opacity:0.0; 
stroke:#840000; stroke-width:100; stroke-opacity:1; 
stroke-linecap:round; stroke-linejoin:round;fill:none"
d="M 57850,39500
58650,39500
" /> 
</g>
<g style="fill:#840000; fill-opacity:0.0; 
stroke:#840000; stroke-width:60; stroke-opacity:1; 
stroke-linecap:round; stroke-linejoin:round;">
<path style="fill:#840000; fill-opacity:0.0; 
stroke:#840000; stroke-width:60; stroke-opacity:1; 
stroke-linecap:round; stroke-linejoin:round;fill:none"
d="M 59250,43000
59250,42500
59050,42500
" /> 
<path style="fill:#840000; fill-opacity:0.0; 
stroke:#840000; stroke-width:60; stroke-opacity:1; 
stroke-linecap:round; stroke-linejoin:round;fill:none"
d="M 57250,43000
57250,42500
57450,42500
" /> 
</g>
<g style="fill:#840000; fill-opacity:0.0; 
stroke:#840000; stroke-width:100; stroke-opacity:1; 
stroke-linecap:round; stroke-linejoin:round;">
<path style="fill:#840000; fill-opacity:0.0; 
stroke:#840000; stroke-width:100; stroke-opacity:1; 
stroke-linecap:round; stroke-linejoin:round;fill:none"
d="M 59450,40900
59350,41200
59200,40950
" /> 
<path style="fill:#840000; fill-opacity:0.0; 
stroke:#840000; stroke-width:100; stroke-opacity:1; 
stroke-linecap:round; stroke-linejoin:round;fill:none"
d="M 57100,40900
57200,41200
57350,40950
" /> 
<path style="fill:#840000; fill-opacity:0.0; 
stroke:#840000; stroke-width:100; stroke-opacity:1; 
stroke-linecap:round; stroke-linejoin:round;fill:none"
d="M 59250,39000
59250,39300
58650,39300
" /> 
<path style="fill:#840000; fill-opacity:0.0; 
stroke:#840000; stroke-width:100; stroke-opacity:1; 
stroke-linecap:round; stroke-linejoin:round;fill:none"
d="M 57250,39000
57250,39300
57850,39300
" /> 
</g>
<g style="fill:#840000; fill-opacity:0.0; 
stroke:#840000; stroke-width:60; stroke-opacity:1; 
stroke-linecap:round; stroke-linejoin:round;">
<path style="fill:#840000; fill-opacity:0.0; 
stroke:#840000; stroke-width:60; stroke-opacity:1; 
stroke-linecap:round; stroke-linejoin:round;fill:none"
d="M 58250,43000
58250,42500
58650,42500
59050,42300
" /> 
<path style="fill:#840000; fill-opacity:0.0; 
stroke:#840000; stroke-width:60; stroke-opacity:1; 
stroke-linecap:round; stroke-linejoin:round;fill:none"
d="M 58250,42700
58250,42500
57850,42500
57450,42300
" /> 
<path d="M57250 43000
L57250 44000
" />
<g transform="rotate(-90 57150 43500)">
<text x="57150" y="43500"
textLength="580" font-size="660" lengthAdjust="spacingAndGlyphs"
text-anchor="middle" opacity="0">A</text>
</g>
<path d="M56980 43610
L56980 43380
" />
<path d="M57120 43660
L56620 43500
L57120 43330
" />
<path d="M59250 43000
L59250 44000
" />
<g transform="rotate(-90 59150 43500)">
<text x="59150" y="43500"
textLength="560" font-size="660" lengthAdjust="spacingAndGlyphs"
text-anchor="middle" opacity="0">B</text>
</g>
<path d="M58860 43460
L58880 43390
L58910 43360
L58950 43340
L59030 43340
L59070 43360
L59100 43390
L59120 43440
L59120 43630
L58620 43630
L58620 43460
L58650 43410
L58670 43390
L58720 43360
L58760 43360
L58810 43390
L58840 43410
L58860 43460
L58860 43630
" />
<path d="M58250 43000
L58250 44000
" />
<g transform="rotate(-90 58150 43500)">
<text x="58150" y="43500"
textLength="560" font-size="660" lengthAdjust="spacingAndGlyphs"
text-anchor="middle" opacity="0">C</text>
</g>
<path d="M58070 43340
L58100 43360
L58120 43440
L58120 43480
L58100 43550
L58050 43600
L58000 43630
L57910 43650
L57840 43650
L57740 43630
L57690 43600
L57650 43550
L57620 43480
L57620 43440
L57650 43360
L57670 43340
" />
<path d="M57250 39000
L57250 38000
" />
<g transform="rotate(-90 57150 38500)">
<text x="57150" y="38500"
textLength="1010" font-size="660" lengthAdjust="spacingAndGlyphs"
text-anchor="middle" opacity="0">S1</text>
</g>
<path d="M57100 38880
L57120 38800
L57120 38690
L57100 38640
L57070 38610
L57030 38590
L56980 38590
L56930 38610
L56910 38640
L56880 38690
L56860 38780
L56840 38830
L56810 38850
L56760 38880
L56720 38880
L56670 38850
L56650 38830
L56620 38780
L56620 38660
L56650 38590
" />
<path d="M57120 38110
L57120 38400
" />
<path d="M57120 38260
L56620 38260
L56690 38300
L56740 38350
L56760 38400
" />
<path d="M59250 39000
L59250 38000
" />
<g transform="rotate(-90 59150 38500)">
<text x="59150" y="38500"
textLength="1010" font-size="660" lengthAdjust="spacingAndGlyphs"
text-anchor="middle" opacity="0">S2</text>
</g>
<path d="M59100 38880
L59120 38800
L59120 38690
L59100 38640
L59070 38610
L59030 38590
L58980 38590
L58930 38610
L58910 38640
L58880 38690
L58860 38780
L58840 38830
L58810 38850
L58760 38880
L58720 38880
L58670 38850
L58650 38830
L58620 38780
L58620 38660
L58650 38590
" />
<path d="M58670 38400
L58650 38380
L58620 38330
L58620 38210
L58650 38160
L58670 38140
L58720 38110
L58760 38110
L58840 38140
L59120 38420
L59120 38110
" />
</g>
<g style="fill:#008484; fill-opacity:0.0; 
stroke:#008484; stroke-width:60; stroke-opacity:1; 
stroke-linecap:round; stroke-linejoin:round;">
<text x="48960" y="41220"
textLength="1580" font-size="660" lengthAdjust="spacingAndGlyphs"
text-anchor="middle" opacity="0">SW1</text>
<path d="M48290 41170
L48360 41190
L48480 41190
L48530 41170
L48550 41140
L48570 41100
L48570 41050
L48550 41000
L48530 40980
L48480 40950
L48380 40930
L48340 40910
L48310 40880
L48290 40830
L48290 40790
L48310 40740
L48340 40720
L48380 40690
L48500 40690
L48570 40720
" />
<path d="M48740 40690
L48860 41190
L48960 40830
L49050 41190
L49170 40690
" />
<path d="M49620 41190
L49340 41190
" />
<path d="M49480 41190
L49480 40690
L49430 40760
L49380 40810
L49340 40830
" />
<text x="47460" y="40220"
textLength="8580" font-size="660" lengthAdjust="spacingAndGlyphs"
text-anchor="middle" opacity="0">Rotary_Encoder_Switch</text>
<path d="M43600 40190
L43430 39950
" />
<path d="M43310 40190
L43310 39690
L43500 39690
L43550 39720
L43570 39740
L43600 39790
L43600 39860
L43570 39910
L43550 39930
L43500 39950
L43310 39950
" />
<path d="M43880 40190
L43840 40170
L43810 40140
L43790 40100
L43790 39950
L43810 39910
L43840 39880
L43880 39860
L43960 39860
L44000 39880
L44030 39910
L44050 39950
L44050 40100
L44030 40140
L44000 40170
L43960 40190
L43880 40190
" />
<path d="M44190 39860
L44380 39860
" />
<path d="M44260 39690
L44260 40120
L44290 40170
L44340 40190
L44380 40190
" />
<path d="M44760 40190
L44760 39930
L44740 39880
L44690 39860
L44600 39860
L44550 39880
" />
<path d="M44760 40170
L44720 40190
L44600 40190
L44550 40170
L44530 40120
L44530 40070
L44550 40020
L44600 40000
L44720 40000
L44760 39980
" />
<path d="M45000 40190
L45000 39860
" />
<path d="M45000 39950
L45030 39910
L45050 39880
L45100 39860
L45150 39860
" />
<path d="M45260 39860
L45380 40190
" />
<path d="M45500 39860
L45380 40190
L45340 40310
L45310 40330
L45260 40360
" />
<path d="M45570 40240
L45960 40240
" />
<path d="M46070 39930
L46240 39930
" />
<path d="M46310 40190
L46070 40190
L46070 39690
L46310 39690
" />
<path d="M46530 39860
L46530 40190
" />
<path d="M46530 39910
L46550 39880
L46600 39860
L46670 39860
L46720 39880
L46740 39930
L46740 40190
" />
<path d="M47190 40170
L47150 40190
L47050 40190
L47000 40170
L46980 40140
L46960 40100
L46960 39950
L46980 39910
L47000 39880
L47050 39860
L47150 39860
L47190 39880
" />
<path d="M47480 40190
L47430 40170
L47410 40140
L47380 40100
L47380 39950
L47410 39910
L47430 39880
L47480 39860
L47550 39860
L47600 39880
L47620 39910
L47650 39950
L47650 40100
L47620 40140
L47600 40170
L47550 40190
L47480 40190
" />
<path d="M48070 40190
L48070 39690
" />
<path d="M48070 40170
L48030 40190
L47930 40190
L47880 40170
L47860 40140
L47840 40100
L47840 39950
L47860 39910
L47880 39880
L47930 39860
L48030 39860
L48070 39880
" />
<path d="M48500 40170
L48460 40190
L48360 40190
L48310 40170
L48290 40120
L48290 39930
L48310 39880
L48360 39860
L48460 39860
L48500 39880
L48530 39930
L48530 39980
L48290 40020
" />
<path d="M48740 40190
L48740 39860
" />
<path d="M48740 39950
L48760 39910
L48790 39880
L48840 39860
L48880 39860
" />
<path d="M48930 40240
L49310 40240
" />
<path d="M49410 40170
L49480 40190
L49600 40190
L49650 40170
L49670 40140
L49690 40100
L49690 40050
L49670 40000
L49650 39980
L49600 39950
L49500 39930
L49460 39910
L49430 39880
L49410 39830
L49410 39790
L49430 39740
L49460 39720
L49500 39690
L49620 39690
L49690 39720
" />
<path d="M49860 39860
L49960 40190
L50050 39950
L50150 40190
L50240 39860
" />
<path d="M50430 40190
L50430 39860
" />
<path d="M50430 39690
L50410 39720
L50430 39740
L50460 39720
L50430 39690
L50430 39740
" />
<path d="M50600 39860
L50790 39860
" />
<path d="M50670 39690
L50670 40120
L50690 40170
L50740 40190
L50790 40190
" />
<path d="M51170 40170
L51120 40190
L51030 40190
L50980 40170
L50960 40140
L50930 40100
L50930 39950
L50960 39910
L50980 39880
L51030 39860
L51120 39860
L51170 39880
" />
<path d="M51380 40190
L51380 39690
" />
<path d="M51600 40190
L51600 39930
L51570 39880
L51530 39860
L51460 39860
L51410 39880
L51380 39910
" />
</g>
</g>
<g style="fill:#008484; fill-opacity:0.0; 
stroke:#008484; stroke-width:0; stroke-opacity:1; 
stroke-linecap:round; stroke-linejoin:round;">
<g >
</g>
<g style="fill:#840000; fill-opacity:0.0; 
stroke:#840000; stroke-width:0; stroke-opacity:1; 
stroke-linecap:round; stroke-linejoin:round;">
</g>
<g style="fill:#840000; fill-opacity:0.0; 
stroke:#840000; stroke-width:60; stroke-opacity:1; 
stroke-linecap:round; stroke-linejoin:round;">
<path style="fill:#840000; fill-opacity:0.0; 
stroke:#840000; stroke-width:60; stroke-opacity:1; 
stroke-linecap:round; stroke-linejoin:round;fill:none"
d="M 61250,34500
61250,35000
61750,35000
61250,35500
60750,35000
61250,35000
" /> 
</g>
<g style="fill:#008484; fill-opacity:0.0; 
stroke:#008484; stroke-width:60; stroke-opacity:1; 
stroke-linecap:round; stroke-linejoin:round;">
<text x="61300" y="36500"
textLength="2060" font-size="660" lengthAdjust="spacingAndGlyphs"
text-anchor="middle" opacity="0">GNDS</text>
<path d="M60680 36000
L60630 35970
L60560 35970
L60490 36000
L60440 36040
L60410 36090
L60390 36190
L60390 36260
L60410 36350
L60440 36400
L60490 36450
L60560 36470
L60600 36470
L60680 36450
L60700 36420
L60700 36260
L60600 36260
" />
<path d="M60910 36470
L60910 35970
L61200 36470
L61200 35970
" />
<path d="M61440 36470
L61440 35970
L61560 35970
L61630 36000
L61680 36040
L61700 36090
L61720 36190
L61720 36260
L61700 36350
L61680 36400
L61630 36450
L61560 36470
L61440 36470
" />
<path d="M61910 36450
L61990 36470
L62100 36470
L62150 36450
L62180 36420
L62200 36380
L62200 36330
L62180 36280
L62150 36260
L62100 36230
L62010 36210
L61960 36190
L61940 36160
L61910 36110
L61910 36070
L61940 36020
L61960 36000
L62010 35970
L62130 35970
L62200 36000
" />
</g>
</g>
<g style="fill:#008484; fill-opacity:0.0; 
stroke:#008484; stroke-width:0; stroke-opacity:1; 
stroke-linecap:round; stroke-linejoin:round;">
<g >
</g>
<g style="fill:#840000; fill-opacity:0.0; 
stroke:#840000; stroke-width:0; stroke-opacity:1; 
stroke-linecap:round; stroke-linejoin:round;">
</g>
<g style="fill:#840000; fill-opacity:0.0; 
stroke:#840000; stroke-width:60; stroke-opacity:1; 
stroke-linecap:round; stroke-linejoin:round;">
<path style="fill:#840000; fill-opacity:0.0; 
stroke:#840000; stroke-width:60; stroke-opacity:1; 
stroke-linecap:round; stroke-linejoin:round;fill:none"
d="M 58250,51000
58250,51500
58750,51500
58250,52000
57750,51500
58250,51500
" /> 
</g>
<g style="fill:#008484; fill-opacity:0.0; 
stroke:#008484; stroke-width:60; stroke-opacity:1; 
stroke-linecap:round; stroke-linejoin:round;">
<text x="58300" y="53000"
textLength="2060" font-size="660" lengthAdjust="spacingAndGlyphs"
text-anchor="middle" opacity="0">GNDS</text>
<path d="M57680 52500
L57630 52470
L57560 52470
L57490 52500
L57440 52540
L57410 52590
L57390 52690
L57390 52760
L57410 52850
L57440 52900
L57490 52950
L57560 52970
L57600 52970
L57680 52950
L57700 52920
L57700 52760
L57600 52760
" />
<path d="M57910 52970
L57910 52470
L58200 52970
L58200 52470
" />
<path d="M58440 52970
L58440 52470
L58560 52470
L58630 52500
L58680 52540
L58700 52590
L58720 52690
L58720 52760
L58700 52850
L58680 52900
L58630 52950
L58560 52970
L58440 52970
" />
<path d="M58910 52950
L58990 52970
L59100 52970
L59150 52950
L59180 52920
L59200 52880
L59200 52830
L59180 52780
L59150 52760
L59100 52730
L59010 52710
L58960 52690
L58940 52660
L58910 52610
L58910 52570
L58940 52520
L58960 52500
L59010 52470
L59130 52470
L59200 52500
" />
</g>
</g>
<g style="fill:#008484; fill-opacity:0.0; 
stroke:#008484; stroke-width:0; stroke-opacity:1; 
stroke-linecap:round; stroke-linejoin:round;">
<g >
</g>
<g style="fill:#840000; fill-opacity:0.0; 
stroke:#840000; stroke-width:0; stroke-opacity:1; 
stroke-linecap:round; stroke-linejoin:round;">
</g>
<g style="fill:#840000; fill-opacity:0.0; 
stroke:#840000; stroke-width:60; stroke-opacity:1; 
stroke-linecap:round; stroke-linejoin:round;">
<path style="fill:#840000; fill-opacity:0.0; 
stroke:#840000; stroke-width:60; stroke-opacity:1; 
stroke-linecap:round; stroke-linejoin:round;fill:none"
d="M 50450,27500
50750,27000
" /> 
<path style="fill:#840000; fill-opacity:0.0; 
stroke:#840000; stroke-width:60; stroke-opacity:1; 
stroke-linecap:round; stroke-linejoin:round;fill:none"
d="M 50750,28000
50750,27000
" /> 
<path style="fill:#840000; fill-opacity:0.0; 
stroke:#840000; stroke-width:60; stroke-opacity:1; 
stroke-linecap:round; stroke-linejoin:round;fill:none"
d="M 50750,27000
51050,27500
" /> 
</g>
<g style="fill:#008484; fill-opacity:0.0; 
stroke:#008484; stroke-width:60; stroke-opacity:1; 
stroke-linecap:round; stroke-linejoin:round;">
<text x="50900" y="26540"
textLength="2060" font-size="660" lengthAdjust="spacingAndGlyphs"
text-anchor="middle" opacity="0">+3V3</text>
<path d="M50010 26320
L50400 26320
" />
<path d="M50200 26510
L50200 26130
" />
<path d="M50590 26010
L50900 26010
L50730 26200
L50800 26200
L50850 26230
L50870 26250
L50900 26300
L50900 26420
L50870 26460
L50850 26490
L50800 26510
L50660 26510
L50610 26490
L50590 26460
" />
<path d="M51040 26010
L51200 26510
L51370 26010
" />
<path d="M51490 26010
L51800 26010
L51630 26200
L51700 26200
L51750 26230
L51780 26250
L51800 26300
L51800 26420
L51780 26460
L51750 26490
L51700 26510
L51560 26510
L51510 26490
L51490 26460
" />
</g>
</g>
<g style="fill:#008484; fill-opacity:0.0; 
stroke:#008484; stroke-width:0; stroke-opacity:1; 
stroke-linecap:round; stroke-linejoin:round;">
<g >
</g>
<g style="fill:#840000; fill-opacity:0.0; 
stroke:#840000; stroke-width:0; stroke-opacity:1; 
stroke-linecap:round; stroke-linejoin:round;">
</g>
<g style="fill:#840000; fill-opacity:0.0; 
stroke:#840000; stroke-width:60; stroke-opacity:1; 
stroke-linecap:round; stroke-linejoin:round;">
<path style="fill:#840000; fill-opacity:0.0; 
stroke:#840000; stroke-width:60; stroke-opacity:1; 
stroke-linecap:round; stroke-linejoin:round;fill:none"
d="M 65950,27500
66250,27000
" /> 
<path style="fill:#840000; fill-opacity:0.0; 
stroke:#840000; stroke-width:60; stroke-opacity:1; 
stroke-linecap:round; stroke-linejoin:round;fill:none"
d="M 66250,28000
66250,27000
" /> 
<path style="fill:#840000; fill-opacity:0.0; 
stroke:#840000; stroke-width:60; stroke-opacity:1; 
stroke-linecap:round; stroke-linejoin:round;fill:none"
d="M 66250,27000
66550,27500
" /> 
</g>
<g style="fill:#008484; fill-opacity:0.0; 
stroke:#008484; stroke-width:60; stroke-opacity:1; 
stroke-linecap:round; stroke-linejoin:round;">
<text x="66400" y="26540"
textLength="2060" font-size="660" lengthAdjust="spacingAndGlyphs"
text-anchor="middle" opacity="0">+3V3</text>
<path d="M65510 26320
L65900 26320
" />
<path d="M65700 26510
L65700 26130
" />
<path d="M66090 26010
L66400 26010
L66230 26200
L66300 26200
L66350 26230
L66370 26250
L66400 26300
L66400 26420
L66370 26460
L66350 26490
L66300 26510
L66160 26510
L66110 26490
L66090 26460
" />
<path d="M66540 26010
L66700 26510
L66870 26010
" />
<path d="M66990 26010
L67300 26010
L67130 26200
L67200 26200
L67250 26230
L67280 26250
L67300 26300
L67300 26420
L67280 26460
L67250 26490
L67200 26510
L67060 26510
L67010 26490
L66990 26460
" />
</g>
</g>
<g style="fill:#008484; fill-opacity:0.0; 
stroke:#008484; stroke-width:0; stroke-opacity:1; 
stroke-linecap:round; stroke-linejoin:round;">
<g >
</g>
<g style="fill:#840000; fill-opacity:0.0; 
stroke:#840000; stroke-width:0; stroke-opacity:1; 
stroke-linecap:round; stroke-linejoin:round;">
</g>
<g style="fill:#840000; fill-opacity:0.0; 
stroke:#840000; stroke-width:100; stroke-opacity:1; 
stroke-linecap:round; stroke-linejoin:round;">
<rect x="65850" y="41000" width="800" height="2000" rx="0" />
</g>
<g style="fill:#840000; fill-opacity:0.0; 
stroke:#840000; stroke-width:60; stroke-opacity:1; 
stroke-linecap:round; stroke-linejoin:round;">
<path d="M66250 41000
L66250 40500
" />
<path d="M66250 43000
L66250 43500
" />
</g>
<g style="fill:#008484; fill-opacity:0.0; 
stroke:#008484; stroke-width:60; stroke-opacity:1; 
stroke-linecap:round; stroke-linejoin:round;">
<text x="67700" y="41810"
textLength="1510" font-size="660" lengthAdjust="spacingAndGlyphs"
text-anchor="middle" opacity="0">R29</text>
<path d="M67370 41780
L67210 41540
" />
<path d="M67090 41780
L67090 41280
L67280 41280
L67330 41310
L67350 41330
L67370 41380
L67370 41450
L67350 41500
L67330 41520
L67280 41540
L67090 41540
" />
<path d="M67560 41330
L67590 41310
L67640 41280
L67750 41280
L67800 41310
L67830 41330
L67850 41380
L67850 41420
L67830 41500
L67540 41780
L67850 41780
" />
<path d="M68090 41780
L68180 41780
L68230 41760
L68250 41730
L68300 41660
L68330 41570
L68330 41380
L68300 41330
L68280 41310
L68230 41280
L68140 41280
L68090 41310
L68060 41330
L68040 41380
L68040 41500
L68060 41540
L68090 41570
L68140 41590
L68230 41590
L68280 41570
L68300 41540
L68330 41500
" />
<text x="67700" y="42720"
textLength="1510" font-size="660" lengthAdjust="spacingAndGlyphs"
text-anchor="middle" opacity="0">10K</text>
<path d="M67350 42690
L67060 42690
" />
<path d="M67210 42690
L67210 42190
L67160 42260
L67110 42310
L67060 42330
" />
<path d="M67660 42190
L67710 42190
L67750 42220
L67780 42240
L67800 42290
L67830 42380
L67830 42500
L67800 42600
L67780 42640
L67750 42670
L67710 42690
L67660 42690
L67610 42670
L67590 42640
L67560 42600
L67540 42500
L67540 42380
L67560 42290
L67590 42240
L67610 42220
L67660 42190
" />
<path d="M68040 42690
L68040 42190
" />
<path d="M68330 42690
L68110 42410
" />
<path d="M68330 42190
L68040 42480
" />
</g>
</g>
<g style="fill:#008484; fill-opacity:0.0; 
stroke:#008484; stroke-width:0; stroke-opacity:1; 
stroke-linecap:round; stroke-linejoin:round;">
<g >
</g>
<g style="fill:#840000; fill-opacity:0.0; 
stroke:#840000; stroke-width:0; stroke-opacity:1; 
stroke-linecap:round; stroke-linejoin:round;">
</g>
<g style="fill:#840000; fill-opacity:0.0; 
stroke:#840000; stroke-width:100; stroke-opacity:1; 
stroke-linecap:round; stroke-linejoin:round;">
<rect x="50350" y="41000" width="800" height="2000" rx="0" />
</g>
<g style="fill:#840000; fill-opacity:0.0; 
stroke:#840000; stroke-width:60; stroke-opacity:1; 
stroke-linecap:round; stroke-linejoin:round;">
<path d="M50750 41000
L50750 40500
" />
<path d="M50750 43000
L50750 43500
" />
</g>
<g style="fill:#008484; fill-opacity:0.0; 
stroke:#008484; stroke-width:60; stroke-opacity:1; 
stroke-linecap:round; stroke-linejoin:round;">
<text x="52200" y="41810"
textLength="1510" font-size="660" lengthAdjust="spacingAndGlyphs"
text-anchor="middle" opacity="0">R28</text>
<path d="M51870 41780
L51710 41540
" />
<path d="M51590 41780
L51590 41280
L51780 41280
L51830 41310
L51850 41330
L51870 41380
L51870 41450
L51850 41500
L51830 41520
L51780 41540
L51590 41540
" />
<path d="M52060 41330
L52090 41310
L52140 41280
L52250 41280
L52300 41310
L52330 41330
L52350 41380
L52350 41420
L52330 41500
L52040 41780
L52350 41780
" />
<path d="M52640 41500
L52590 41470
L52560 41450
L52540 41400
L52540 41380
L52560 41330
L52590 41310
L52640 41280
L52730 41280
L52780 41310
L52800 41330
L52830 41380
L52830 41400
L52800 41450
L52780 41470
L52730 41500
L52640 41500
L52590 41520
L52560 41540
L52540 41590
L52540 41690
L52560 41730
L52590 41760
L52640 41780
L52730 41780
L52780 41760
L52800 41730
L52830 41690
L52830 41590
L52800 41540
L52780 41520
L52730 41500
" />
<text x="52200" y="42720"
textLength="1510" font-size="660" lengthAdjust="spacingAndGlyphs"
text-anchor="middle" opacity="0">10K</text>
<path d="M51850 42690
L51560 42690
" />
<path d="M51710 42690
L51710 42190
L51660 42260
L51610 42310
L51560 42330
" />
<path d="M52160 42190
L52210 42190
L52250 42220
L52280 42240
L52300 42290
L52330 42380
L52330 42500
L52300 42600
L52280 42640
L52250 42670
L52210 42690
L52160 42690
L52110 42670
L52090 42640
L52060 42600
L52040 42500
L52040 42380
L52060 42290
L52090 42240
L52110 42220
L52160 42190
" />
<path d="M52540 42690
L52540 42190
" />
<path d="M52830 42690
L52610 42410
" />
<path d="M52830 42190
L52540 42480
" />
</g>
</g>
<g style="fill:#008484; fill-opacity:0.0; 
stroke:#008484; stroke-width:60; stroke-opacity:1; 
stroke-linecap:round; stroke-linejoin:round;">
</g>
<g style="fill:#008400; fill-opacity:0.0; 
stroke:#008400; stroke-width:60; stroke-opacity:1; 
stroke-linecap:round; stroke-linejoin:round;">
<path d="M57250 47500
L50750 47500
" />
<path d="M50750 47500
L50750 43500
" />
<path d="M57250 44000
L57250 47500
" />
<path d="M66250 47500
L66250 43500
" />
<path d="M59250 47500
L66250 47500
" />
<path d="M59250 44000
L59250 47500
" />
<path d="M66250 47500
L69250 47500
" />
<path d="M50750 47500
L47750 47500
" />
<path d="M66250 28000
L66250 40500
" />
<path d="M59250 38000
L59250 32500
" />
<path d="M59250 32500
L61250 32500
" />
<path d="M61250 32500
L61250 34500
" />
<path d="M58250 44000
L58250 51000
" />
<path d="M50750 28000
L50750 40500
" />
<path d="M57250 32500
L57250 38000
" />
<path d="M80750 36500
L86500 36500
" />
<path d="M86500 37750
L80750 37750
" />
<path d="M86500 39000
L80750 39000
" />
</g>
<g style="fill:#848400; fill-opacity:0.0; 
stroke:#848400; stroke-width:60; stroke-opacity:1; 
stroke-linecap:round; stroke-linejoin:round;">
<text x="87100" y="36750"
textLength="2960" font-size="660" lengthAdjust="spacingAndGlyphs"
text-anchor="start" opacity="0">ENC_SW</text>
<path d="M87240 36460
L87410 36460
" />
<path d="M87480 36720
L87240 36720
L87240 36220
L87480 36220
" />
<path d="M87700 36720
L87700 36220
L87980 36720
L87980 36220
" />
<path d="M88510 36670
L88480 36700
L88410 36720
L88360 36720
L88290 36700
L88240 36650
L88220 36600
L88200 36510
L88200 36440
L88220 36340
L88240 36290
L88290 36250
L88360 36220
L88410 36220
L88480 36250
L88510 36270
" />
<path d="M88600 36770
L88980 36770
" />
<path d="M89080 36700
L89150 36720
L89270 36720
L89320 36700
L89340 36670
L89360 36630
L89360 36580
L89340 36530
L89320 36510
L89270 36480
L89170 36460
L89130 36440
L89100 36410
L89080 36360
L89080 36320
L89100 36270
L89130 36250
L89170 36220
L89290 36220
L89360 36250
" />
<path d="M89530 36220
L89650 36720
L89740 36360
L89840 36720
L89960 36220
" />
</g>
<g style="fill:#848400; fill-opacity:0.0; 
stroke:#848400; stroke-width:100; stroke-opacity:1; 
stroke-linecap:round; stroke-linejoin:round;">
<path style="fill:#848400; fill-opacity:0.0; 
stroke:#848400; stroke-width:100; stroke-opacity:1; 
stroke-linecap:round; stroke-linejoin:round;fill:none"
d="M 87000,36500
86750,36250
86500,36250
86500,36750
86750,36750
Z" /> 
</g>
<g style="fill:#848400; fill-opacity:0.0; 
stroke:#848400; stroke-width:60; stroke-opacity:1; 
stroke-linecap:round; stroke-linejoin:round;">
<text x="87100" y="38000"
textLength="2350" font-size="660" lengthAdjust="spacingAndGlyphs"
text-anchor="start" opacity="0">ENC_A</text>
<path d="M87240 37710
L87410 37710
" />
<path d="M87480 37970
L87240 37970
L87240 37470
L87480 37470
" />
<path d="M87700 37970
L87700 37470
L87980 37970
L87980 37470
" />
<path d="M88510 37920
L88480 37950
L88410 37970
L88360 37970
L88290 37950
L88240 37900
L88220 37850
L88200 37760
L88200 37690
L88220 37590
L88240 37540
L88290 37500
L88360 37470
L88410 37470
L88480 37500
L88510 37520
" />
<path d="M88600 38020
L88980 38020
" />
<path d="M89080 37830
L89320 37830
" />
<path d="M89030 37970
L89200 37470
L89360 37970
" />
</g>
<g style="fill:#848400; fill-opacity:0.0; 
stroke:#848400; stroke-width:100; stroke-opacity:1; 
stroke-linecap:round; stroke-linejoin:round;">
<path style="fill:#848400; fill-opacity:0.0; 
stroke:#848400; stroke-width:100; stroke-opacity:1; 
stroke-linecap:round; stroke-linejoin:round;fill:none"
d="M 87000,37750
86750,37500
86500,37500
86500,38000
86750,38000
Z" /> 
</g>
<g style="fill:#848400; fill-opacity:0.0; 
stroke:#848400; stroke-width:60; stroke-opacity:1; 
stroke-linecap:round; stroke-linejoin:round;">
<text x="87100" y="39250"
textLength="2420" font-size="660" lengthAdjust="spacingAndGlyphs"
text-anchor="start" opacity="0">ENC_B</text>
<path d="M87240 38960
L87410 38960
" />
<path d="M87480 39220
L87240 39220
L87240 38720
L87480 38720
" />
<path d="M87700 39220
L87700 38720
L87980 39220
L87980 38720
" />
<path d="M88510 39170
L88480 39200
L88410 39220
L88360 39220
L88290 39200
L88240 39150
L88220 39100
L88200 39010
L88200 38940
L88220 38840
L88240 38790
L88290 38750
L88360 38720
L88410 38720
L88480 38750
L88510 38770
" />
<path d="M88600 39270
L88980 39270
" />
<path d="M89270 38960
L89340 38980
L89360 39010
L89390 39050
L89390 39130
L89360 39170
L89340 39200
L89290 39220
L89100 39220
L89100 38720
L89270 38720
L89320 38750
L89340 38770
L89360 38820
L89360 38860
L89340 38910
L89320 38940
L89270 38960
L89100 38960
" />
</g>
<g style="fill:#848400; fill-opacity:0.0; 
stroke:#848400; stroke-width:100; stroke-opacity:1; 
stroke-linecap:round; stroke-linejoin:round;">
<path style="fill:#848400; fill-opacity:0.0; 
stroke:#848400; stroke-width:100; stroke-opacity:1; 
stroke-linecap:round; stroke-linejoin:round;fill:none"
d="M 87000,39000
86750,38750
86500,38750
86500,39250
86750,39250
Z" /> 
</g>
<g style="fill:#848400; fill-opacity:0.0; 
stroke:#848400; stroke-width:60; stroke-opacity:1; 
stroke-linecap:round; stroke-linejoin:round;">
</g>
<g style="fill:#000000; fill-opacity:0.0; 
stroke:#000000; stroke-width:60; stroke-opacity:1; 
stroke-linecap:round; stroke-linejoin:round;">
<text x="69250" y="47400"
textLength="2420" font-size="660" lengthAdjust="spacingAndGlyphs"
text-anchor="end" opacity="0">ENC_B</text>
<path d="M66980 47110
L67140 47110
" />
<path d="M67220 47370
L66980 47370
L66980 46870
L67220 46870
" />
<path d="M67430 47370
L67430 46870
L67720 47370
L67720 46870
" />
<path d="M68240 47320
L68220 47350
L68140 47370
L68100 47370
L68020 47350
L67980 47300
L67950 47250
L67930 47160
L67930 47090
L67950 46990
L67980 46940
L68020 46900
L68100 46870
L68140 46870
L68220 46900
L68240 46920
" />
<path d="M68330 47420
L68720 47420
" />
<path d="M69000 47110
L69070 47130
L69100 47160
L69120 47200
L69120 47280
L69100 47320
L69070 47350
L69020 47370
L68830 47370
L68830 46870
L69000 46870
L69050 46900
L69070 46920
L69100 46970
L69100 47010
L69070 47060
L69050 47090
L69000 47110
L68830 47110
" />
<text x="57250" y="32400"
textLength="2960" font-size="660" lengthAdjust="spacingAndGlyphs"
text-anchor="end" opacity="0">ENC_SW</text>
<path d="M54430 32110
L54600 32110
" />
<path d="M54670 32370
L54430 32370
L54430 31870
L54670 31870
" />
<path d="M54880 32370
L54880 31870
L55170 32370
L55170 31870
" />
<path d="M55690 32320
L55670 32350
L55600 32370
L55550 32370
L55480 32350
L55430 32300
L55410 32250
L55380 32160
L55380 32090
L55410 31990
L55430 31940
L55480 31900
L55550 31870
L55600 31870
L55670 31900
L55690 31920
" />
<path d="M55790 32420
L56170 32420
" />
<path d="M56260 32350
L56330 32370
L56450 32370
L56500 32350
L56520 32320
L56550 32280
L56550 32230
L56520 32180
L56500 32160
L56450 32130
L56360 32110
L56310 32090
L56290 32060
L56260 32010
L56260 31970
L56290 31920
L56310 31900
L56360 31870
L56480 31870
L56550 31900
" />
<path d="M56720 31870
L56830 32370
L56930 32010
L57020 32370
L57140 31870
" />
<text x="80750" y="36400"
textLength="2960" font-size="660" lengthAdjust="spacingAndGlyphs"
text-anchor="start" opacity="0">ENC_SW</text>
<path d="M80890 36110
L81060 36110
" />
<path d="M81130 36370
L80890 36370
L80890 35870
L81130 35870
" />
<path d="M81350 36370
L81350 35870
L81630 36370
L81630 35870
" />
<path d="M82160 36320
L82130 36350
L82060 36370
L82010 36370
L81940 36350
L81890 36300
L81870 36250
L81850 36160
L81850 36090
L81870 35990
L81890 35940
L81940 35900
L82010 35870
L82060 35870
L82130 35900
L82160 35920
" />
<path d="M82250 36420
L82630 36420
" />
<path d="M82730 36350
L82800 36370
L82920 36370
L82970 36350
L82990 36320
L83010 36280
L83010 36230
L82990 36180
L82970 36160
L82920 36130
L82820 36110
L82780 36090
L82750 36060
L82730 36010
L82730 35970
L82750 35920
L82780 35900
L82820 35870
L82940 35870
L83010 35900
" />
<path d="M83180 35870
L83300 36370
L83390 36010
L83490 36370
L83610 35870
" />
<text x="80750" y="37650"
textLength="2350" font-size="660" lengthAdjust="spacingAndGlyphs"
text-anchor="start" opacity="0">ENC_A</text>
<path d="M80890 37360
L81060 37360
" />
<path d="M81130 37620
L80890 37620
L80890 37120
L81130 37120
" />
<path d="M81350 37620
L81350 37120
L81630 37620
L81630 37120
" />
<path d="M82160 37570
L82130 37600
L82060 37620
L82010 37620
L81940 37600
L81890 37550
L81870 37500
L81850 37410
L81850 37340
L81870 37240
L81890 37190
L81940 37150
L82010 37120
L82060 37120
L82130 37150
L82160 37170
" />
<path d="M82250 37670
L82630 37670
" />
<path d="M82730 37480
L82970 37480
" />
<path d="M82680 37620
L82850 37120
L83010 37620
" />
<text x="80750" y="38900"
textLength="2420" font-size="660" lengthAdjust="spacingAndGlyphs"
text-anchor="start" opacity="0">ENC_B</text>
<path d="M80890 38610
L81060 38610
" />
<path d="M81130 38870
L80890 38870
L80890 38370
L81130 38370
" />
<path d="M81350 38870
L81350 38370
L81630 38870
L81630 38370
" />
<path d="M82160 38820
L82130 38850
L82060 38870
L82010 38870
L81940 38850
L81890 38800
L81870 38750
L81850 38660
L81850 38590
L81870 38490
L81890 38440
L81940 38400
L82010 38370
L82060 38370
L82130 38400
L82160 38420
" />
<path d="M82250 38920
L82630 38920
" />
<path d="M82920 38610
L82990 38630
L83010 38660
L83040 38700
L83040 38780
L83010 38820
L82990 38850
L82940 38870
L82750 38870
L82750 38370
L82920 38370
L82970 38400
L82990 38420
L83010 38470
L83010 38510
L82990 38560
L82970 38590
L82920 38610
L82750 38610
" />
<text x="47750" y="47400"
textLength="2350" font-size="660" lengthAdjust="spacingAndGlyphs"
text-anchor="start" opacity="0">ENC_A</text>
<path d="M47890 47110
L48060 47110
" />
<path d="M48130 47370
L47890 47370
L47890 46870
L48130 46870
" />
<path d="M48350 47370
L48350 46870
L48630 47370
L48630 46870
" />
<path d="M49160 47320
L49130 47350
L49060 47370
L49010 47370
L48940 47350
L48890 47300
L48870 47250
L48850 47160
L48850 47090
L48870 46990
L48890 46940
L48940 46900
L49010 46870
L49060 46870
L49130 46900
L49160 46920
" />
<path d="M49250 47420
L49630 47420
" />
<path d="M49730 47230
L49970 47230
" />
<path d="M49680 47370
L49850 46870
L50010 47370
" />
</g>
<g style="fill:#000000; fill-opacity:0.0; 
stroke:#000000; stroke-width:0; stroke-opacity:1; 
stroke-linecap:round; stroke-linejoin:round;">
</g>
<g style="fill:#008400; fill-opacity:0.0; 
stroke:#008400; stroke-width:0; stroke-opacity:1; 
stroke-linecap:round; stroke-linejoin:round;">
</g>
<g style="fill:#008400; fill-opacity:1.0; 
stroke:#008400; stroke-width:100; stroke-opacity:1; 
stroke-linecap:round; stroke-linejoin:round;">
<circle cx="66250" cy="47500" r="200" /> 
</g>
<g style="fill:#008400; fill-opacity:1.0; 
stroke:#008400; stroke-width:0; stroke-opacity:1; 
stroke-linecap:round; stroke-linejoin:round;">
</g>
<g style="fill:#008400; fill-opacity:1.0; 
stroke:#008400; stroke-width:100; stroke-opacity:1; 
stroke-linecap:round; stroke-linejoin:round;">
<circle cx="50750" cy="47500" r="200" /> 
</g> 
</svg>
