<?xml version="1.0" standalone="no"?>
 <!DOCTYPE svg PUBLIC "-//W3C//DTD SVG 1.1//EN" 
 "http://www.w3.org/Graphics/SVG/1.1/DTD/svg11.dtd"> 
<svg
  xmlns:svg="http://www.w3.org/2000/svg"
  xmlns="http://www.w3.org/2000/svg"
  xmlns:xlink="http://www.w3.org/1999/xlink"
  version="1.1"
  width="29.700220cm" height="21.000720cm" viewBox="0 0 116930 82680">
<title>SVG Picture created as LED_PCB_SW-Input Keyscan and RGB LED Driver-LED_PCB_SW_31.svg date 2021/06/05 18:48:45 </title>
  <desc>Picture generated by Eeschema-SVG </desc>
<g style="fill:#000000; fill-opacity:1;stroke:#000000; stroke-opacity:1;
stroke-linecap:round; stroke-linejoin:round;"
 transform="translate(0 0) scale(1 1)">
</g>
<g style="fill:#000000; fill-opacity:0.0; 
stroke:#000000; stroke-width:-10; stroke-opacity:1; 
stroke-linecap:round; stroke-linejoin:round;">
</g>
<g style="fill:#840000; fill-opacity:0.0; 
stroke:#840000; stroke-width:-10; stroke-opacity:1; 
stroke-linecap:round; stroke-linejoin:round;">
</g>
<g style="fill:#840000; fill-opacity:0.0; 
stroke:#840000; stroke-width:100; stroke-opacity:1; 
stroke-linecap:round; stroke-linejoin:round;">
</g>
<g style="fill:#840000; fill-opacity:0.0; 
stroke:#840000; stroke-width:60; stroke-opacity:1; 
stroke-linecap:round; stroke-linejoin:round;">
<rect x="69690" y="65360" width="42520" height="12600" rx="0" />
</g>
<g style="fill:#840000; fill-opacity:0.0; 
stroke:#840000; stroke-width:100; stroke-opacity:1; 
stroke-linecap:round; stroke-linejoin:round;">
</g>
<g style="fill:#840000; fill-opacity:0.0; 
stroke:#840000; stroke-width:60; stroke-opacity:1; 
stroke-linecap:round; stroke-linejoin:round;">
<rect x="3940" y="3940" width="109050" height="74800" rx="0" />
</g>
<g style="fill:#840000; fill-opacity:0.0; 
stroke:#840000; stroke-width:100; stroke-opacity:1; 
stroke-linecap:round; stroke-linejoin:round;">
</g>
<g style="fill:#840000; fill-opacity:0.0; 
stroke:#840000; stroke-width:60; stroke-opacity:1; 
stroke-linecap:round; stroke-linejoin:round;">
<rect x="4720" y="4720" width="107490" height="73240" rx="0" />
</g>
<g style="fill:#840000; fill-opacity:0.0; 
stroke:#840000; stroke-width:100; stroke-opacity:1; 
stroke-linecap:round; stroke-linejoin:round;">
</g>
<g style="fill:#840000; fill-opacity:0.0; 
stroke:#840000; stroke-width:60; stroke-opacity:1; 
stroke-linecap:round; stroke-linejoin:round;">
<path d="M23620 4720
L23620 3940
" />
</g>
<g style="fill:#840000; fill-opacity:0.0; 
stroke:#840000; stroke-width:100; stroke-opacity:1; 
stroke-linecap:round; stroke-linejoin:round;">
</g>
<g style="fill:#840000; fill-opacity:0.0; 
stroke:#840000; stroke-width:60; stroke-opacity:1; 
stroke-linecap:round; stroke-linejoin:round;">
<path d="M43310 4720
L43310 3940
" />
</g>
<g style="fill:#840000; fill-opacity:0.0; 
stroke:#840000; stroke-width:100; stroke-opacity:1; 
stroke-linecap:round; stroke-linejoin:round;">
</g>
<g style="fill:#840000; fill-opacity:0.0; 
stroke:#840000; stroke-width:60; stroke-opacity:1; 
stroke-linecap:round; stroke-linejoin:round;">
<path d="M62990 4720
L62990 3940
" />
</g>
<g style="fill:#840000; fill-opacity:0.0; 
stroke:#840000; stroke-width:100; stroke-opacity:1; 
stroke-linecap:round; stroke-linejoin:round;">
</g>
<g style="fill:#840000; fill-opacity:0.0; 
stroke:#840000; stroke-width:60; stroke-opacity:1; 
stroke-linecap:round; stroke-linejoin:round;">
<path d="M82680 4720
L82680 3940
" />
</g>
<g style="fill:#840000; fill-opacity:0.0; 
stroke:#840000; stroke-width:100; stroke-opacity:1; 
stroke-linecap:round; stroke-linejoin:round;">
</g>
<g style="fill:#840000; fill-opacity:0.0; 
stroke:#840000; stroke-width:60; stroke-opacity:1; 
stroke-linecap:round; stroke-linejoin:round;">
<path d="M102360 4720
L102360 3940
" />
</g>
<g style="fill:#840000; fill-opacity:0.0; 
stroke:#840000; stroke-width:100; stroke-opacity:1; 
stroke-linecap:round; stroke-linejoin:round;">
</g>
<g style="fill:#840000; fill-opacity:0.0; 
stroke:#840000; stroke-width:60; stroke-opacity:1; 
stroke-linecap:round; stroke-linejoin:round;">
<text x="13780" y="4580"
textLength="550" font-size="680" lengthAdjust="spacingAndGlyphs"
text-anchor="start" opacity="0">1</text>
<path d="M14190 4560
L13900 4560
" />
<path d="M14050 4560
L14050 4050
L14000 4120
L13950 4170
L13900 4190
" />
</g>
<g style="fill:#840000; fill-opacity:0.0; 
stroke:#840000; stroke-width:100; stroke-opacity:1; 
stroke-linecap:round; stroke-linejoin:round;">
</g>
<g style="fill:#840000; fill-opacity:0.0; 
stroke:#840000; stroke-width:60; stroke-opacity:1; 
stroke-linecap:round; stroke-linejoin:round;">
<text x="33460" y="4580"
textLength="550" font-size="680" lengthAdjust="spacingAndGlyphs"
text-anchor="start" opacity="0">2</text>
<path d="M33580 4090
L33610 4070
L33660 4050
L33780 4050
L33830 4070
L33850 4090
L33870 4140
L33870 4190
L33850 4260
L33560 4560
L33870 4560
" />
</g>
<g style="fill:#840000; fill-opacity:0.0; 
stroke:#840000; stroke-width:100; stroke-opacity:1; 
stroke-linecap:round; stroke-linejoin:round;">
</g>
<g style="fill:#840000; fill-opacity:0.0; 
stroke:#840000; stroke-width:60; stroke-opacity:1; 
stroke-linecap:round; stroke-linejoin:round;">
<text x="53150" y="4580"
textLength="550" font-size="680" lengthAdjust="spacingAndGlyphs"
text-anchor="start" opacity="0">3</text>
<path d="M53250 4050
L53560 4050
L53390 4240
L53470 4240
L53520 4260
L53540 4290
L53560 4340
L53560 4460
L53540 4510
L53520 4530
L53470 4560
L53320 4560
L53270 4530
L53250 4510
" />
</g>
<g style="fill:#840000; fill-opacity:0.0; 
stroke:#840000; stroke-width:100; stroke-opacity:1; 
stroke-linecap:round; stroke-linejoin:round;">
</g>
<g style="fill:#840000; fill-opacity:0.0; 
stroke:#840000; stroke-width:60; stroke-opacity:1; 
stroke-linecap:round; stroke-linejoin:round;">
<text x="72830" y="4580"
textLength="550" font-size="680" lengthAdjust="spacingAndGlyphs"
text-anchor="start" opacity="0">4</text>
<path d="M73200 4220
L73200 4560
" />
<path d="M73070 4020
L72950 4390
L73270 4390
" />
</g>
<g style="fill:#840000; fill-opacity:0.0; 
stroke:#840000; stroke-width:100; stroke-opacity:1; 
stroke-linecap:round; stroke-linejoin:round;">
</g>
<g style="fill:#840000; fill-opacity:0.0; 
stroke:#840000; stroke-width:60; stroke-opacity:1; 
stroke-linecap:round; stroke-linejoin:round;">
<text x="92520" y="4580"
textLength="550" font-size="680" lengthAdjust="spacingAndGlyphs"
text-anchor="start" opacity="0">5</text>
<path d="M92910 4050
L92670 4050
L92640 4290
L92670 4260
L92720 4240
L92840 4240
L92890 4260
L92910 4290
L92930 4340
L92930 4460
L92910 4510
L92890 4530
L92840 4560
L92720 4560
L92670 4530
L92640 4510
" />
</g>
<g style="fill:#840000; fill-opacity:0.0; 
stroke:#840000; stroke-width:100; stroke-opacity:1; 
stroke-linecap:round; stroke-linejoin:round;">
</g>
<g style="fill:#840000; fill-opacity:0.0; 
stroke:#840000; stroke-width:60; stroke-opacity:1; 
stroke-linecap:round; stroke-linejoin:round;">
<text x="112200" y="4580"
textLength="550" font-size="680" lengthAdjust="spacingAndGlyphs"
text-anchor="start" opacity="0">6</text>
<path d="M112570 4050
L112470 4050
L112420 4070
L112400 4090
L112350 4170
L112320 4260
L112320 4460
L112350 4510
L112370 4530
L112420 4560
L112520 4560
L112570 4530
L112590 4510
L112610 4460
L112610 4340
L112590 4290
L112570 4260
L112520 4240
L112420 4240
L112370 4260
L112350 4290
L112320 4340
" />
</g>
<g style="fill:#840000; fill-opacity:0.0; 
stroke:#840000; stroke-width:100; stroke-opacity:1; 
stroke-linecap:round; stroke-linejoin:round;">
</g>
<g style="fill:#840000; fill-opacity:0.0; 
stroke:#840000; stroke-width:60; stroke-opacity:1; 
stroke-linecap:round; stroke-linejoin:round;">
<path d="M23620 77960
L23620 78740
" />
</g>
<g style="fill:#840000; fill-opacity:0.0; 
stroke:#840000; stroke-width:100; stroke-opacity:1; 
stroke-linecap:round; stroke-linejoin:round;">
</g>
<g style="fill:#840000; fill-opacity:0.0; 
stroke:#840000; stroke-width:60; stroke-opacity:1; 
stroke-linecap:round; stroke-linejoin:round;">
<path d="M43310 77960
L43310 78740
" />
</g>
<g style="fill:#840000; fill-opacity:0.0; 
stroke:#840000; stroke-width:100; stroke-opacity:1; 
stroke-linecap:round; stroke-linejoin:round;">
</g>
<g style="fill:#840000; fill-opacity:0.0; 
stroke:#840000; stroke-width:60; stroke-opacity:1; 
stroke-linecap:round; stroke-linejoin:round;">
<path d="M62990 77960
L62990 78740
" />
</g>
<g style="fill:#840000; fill-opacity:0.0; 
stroke:#840000; stroke-width:100; stroke-opacity:1; 
stroke-linecap:round; stroke-linejoin:round;">
</g>
<g style="fill:#840000; fill-opacity:0.0; 
stroke:#840000; stroke-width:60; stroke-opacity:1; 
stroke-linecap:round; stroke-linejoin:round;">
<path d="M82680 77960
L82680 78740
" />
</g>
<g style="fill:#840000; fill-opacity:0.0; 
stroke:#840000; stroke-width:100; stroke-opacity:1; 
stroke-linecap:round; stroke-linejoin:round;">
</g>
<g style="fill:#840000; fill-opacity:0.0; 
stroke:#840000; stroke-width:60; stroke-opacity:1; 
stroke-linecap:round; stroke-linejoin:round;">
<path d="M102360 77960
L102360 78740
" />
</g>
<g style="fill:#840000; fill-opacity:0.0; 
stroke:#840000; stroke-width:100; stroke-opacity:1; 
stroke-linecap:round; stroke-linejoin:round;">
</g>
<g style="fill:#840000; fill-opacity:0.0; 
stroke:#840000; stroke-width:60; stroke-opacity:1; 
stroke-linecap:round; stroke-linejoin:round;">
<text x="13780" y="78600"
textLength="550" font-size="680" lengthAdjust="spacingAndGlyphs"
text-anchor="start" opacity="0">1</text>
<path d="M14190 78580
L13900 78580
" />
<path d="M14050 78580
L14050 78070
L14000 78140
L13950 78190
L13900 78210
" />
</g>
<g style="fill:#840000; fill-opacity:0.0; 
stroke:#840000; stroke-width:100; stroke-opacity:1; 
stroke-linecap:round; stroke-linejoin:round;">
</g>
<g style="fill:#840000; fill-opacity:0.0; 
stroke:#840000; stroke-width:60; stroke-opacity:1; 
stroke-linecap:round; stroke-linejoin:round;">
<text x="33460" y="78600"
textLength="550" font-size="680" lengthAdjust="spacingAndGlyphs"
text-anchor="start" opacity="0">2</text>
<path d="M33580 78110
L33610 78090
L33660 78070
L33780 78070
L33830 78090
L33850 78110
L33870 78160
L33870 78210
L33850 78280
L33560 78580
L33870 78580
" />
</g>
<g style="fill:#840000; fill-opacity:0.0; 
stroke:#840000; stroke-width:100; stroke-opacity:1; 
stroke-linecap:round; stroke-linejoin:round;">
</g>
<g style="fill:#840000; fill-opacity:0.0; 
stroke:#840000; stroke-width:60; stroke-opacity:1; 
stroke-linecap:round; stroke-linejoin:round;">
<text x="53150" y="78600"
textLength="550" font-size="680" lengthAdjust="spacingAndGlyphs"
text-anchor="start" opacity="0">3</text>
<path d="M53250 78070
L53560 78070
L53390 78260
L53470 78260
L53520 78280
L53540 78310
L53560 78360
L53560 78480
L53540 78530
L53520 78550
L53470 78580
L53320 78580
L53270 78550
L53250 78530
" />
</g>
<g style="fill:#840000; fill-opacity:0.0; 
stroke:#840000; stroke-width:100; stroke-opacity:1; 
stroke-linecap:round; stroke-linejoin:round;">
</g>
<g style="fill:#840000; fill-opacity:0.0; 
stroke:#840000; stroke-width:60; stroke-opacity:1; 
stroke-linecap:round; stroke-linejoin:round;">
<text x="72830" y="78600"
textLength="550" font-size="680" lengthAdjust="spacingAndGlyphs"
text-anchor="start" opacity="0">4</text>
<path d="M73200 78240
L73200 78580
" />
<path d="M73070 78040
L72950 78410
L73270 78410
" />
</g>
<g style="fill:#840000; fill-opacity:0.0; 
stroke:#840000; stroke-width:100; stroke-opacity:1; 
stroke-linecap:round; stroke-linejoin:round;">
</g>
<g style="fill:#840000; fill-opacity:0.0; 
stroke:#840000; stroke-width:60; stroke-opacity:1; 
stroke-linecap:round; stroke-linejoin:round;">
<text x="92520" y="78600"
textLength="550" font-size="680" lengthAdjust="spacingAndGlyphs"
text-anchor="start" opacity="0">5</text>
<path d="M92910 78070
L92670 78070
L92640 78310
L92670 78280
L92720 78260
L92840 78260
L92890 78280
L92910 78310
L92930 78360
L92930 78480
L92910 78530
L92890 78550
L92840 78580
L92720 78580
L92670 78550
L92640 78530
" />
</g>
<g style="fill:#840000; fill-opacity:0.0; 
stroke:#840000; stroke-width:100; stroke-opacity:1; 
stroke-linecap:round; stroke-linejoin:round;">
</g>
<g style="fill:#840000; fill-opacity:0.0; 
stroke:#840000; stroke-width:60; stroke-opacity:1; 
stroke-linecap:round; stroke-linejoin:round;">
<text x="112200" y="78600"
textLength="550" font-size="680" lengthAdjust="spacingAndGlyphs"
text-anchor="start" opacity="0">6</text>
<path d="M112570 78070
L112470 78070
L112420 78090
L112400 78110
L112350 78190
L112320 78280
L112320 78480
L112350 78530
L112370 78550
L112420 78580
L112520 78580
L112570 78550
L112590 78530
L112610 78480
L112610 78360
L112590 78310
L112570 78280
L112520 78260
L112420 78260
L112370 78280
L112350 78310
L112320 78360
" />
</g>
<g style="fill:#840000; fill-opacity:0.0; 
stroke:#840000; stroke-width:100; stroke-opacity:1; 
stroke-linecap:round; stroke-linejoin:round;">
</g>
<g style="fill:#840000; fill-opacity:0.0; 
stroke:#840000; stroke-width:60; stroke-opacity:1; 
stroke-linecap:round; stroke-linejoin:round;">
<path d="M3940 23620
L4720 23620
" />
</g>
<g style="fill:#840000; fill-opacity:0.0; 
stroke:#840000; stroke-width:100; stroke-opacity:1; 
stroke-linecap:round; stroke-linejoin:round;">
</g>
<g style="fill:#840000; fill-opacity:0.0; 
stroke:#840000; stroke-width:60; stroke-opacity:1; 
stroke-linecap:round; stroke-linejoin:round;">
<path d="M3940 43310
L4720 43310
" />
</g>
<g style="fill:#840000; fill-opacity:0.0; 
stroke:#840000; stroke-width:100; stroke-opacity:1; 
stroke-linecap:round; stroke-linejoin:round;">
</g>
<g style="fill:#840000; fill-opacity:0.0; 
stroke:#840000; stroke-width:60; stroke-opacity:1; 
stroke-linecap:round; stroke-linejoin:round;">
<path d="M3940 62990
L4720 62990
" />
</g>
<g style="fill:#840000; fill-opacity:0.0; 
stroke:#840000; stroke-width:100; stroke-opacity:1; 
stroke-linecap:round; stroke-linejoin:round;">
</g>
<g style="fill:#840000; fill-opacity:0.0; 
stroke:#840000; stroke-width:60; stroke-opacity:1; 
stroke-linecap:round; stroke-linejoin:round;">
<text x="4330" y="14030"
textLength="500" font-size="680" lengthAdjust="spacingAndGlyphs"
text-anchor="middle" opacity="0">A</text>
<path d="M4200 13860
L4450 13860
" />
<path d="M4160 14010
L4330 13500
L4500 14010
" />
</g>
<g style="fill:#840000; fill-opacity:0.0; 
stroke:#840000; stroke-width:100; stroke-opacity:1; 
stroke-linecap:round; stroke-linejoin:round;">
</g>
<g style="fill:#840000; fill-opacity:0.0; 
stroke:#840000; stroke-width:60; stroke-opacity:1; 
stroke-linecap:round; stroke-linejoin:round;">
<text x="4330" y="33710"
textLength="570" font-size="680" lengthAdjust="spacingAndGlyphs"
text-anchor="middle" opacity="0">B</text>
<path d="M4360 33420
L4430 33440
L4460 33470
L4480 33520
L4480 33590
L4460 33640
L4430 33660
L4390 33690
L4190 33690
L4190 33180
L4360 33180
L4410 33200
L4430 33220
L4460 33270
L4460 33320
L4430 33370
L4410 33390
L4360 33420
L4190 33420
" />
</g>
<g style="fill:#840000; fill-opacity:0.0; 
stroke:#840000; stroke-width:100; stroke-opacity:1; 
stroke-linecap:round; stroke-linejoin:round;">
</g>
<g style="fill:#840000; fill-opacity:0.0; 
stroke:#840000; stroke-width:60; stroke-opacity:1; 
stroke-linecap:round; stroke-linejoin:round;">
<text x="4330" y="53400"
textLength="570" font-size="680" lengthAdjust="spacingAndGlyphs"
text-anchor="middle" opacity="0">C</text>
<path d="M4480 53330
L4460 53350
L4390 53380
L4340 53380
L4260 53350
L4220 53300
L4190 53250
L4170 53160
L4170 53080
L4190 52990
L4220 52940
L4260 52890
L4340 52870
L4390 52870
L4460 52890
L4480 52910
" />
</g>
<g style="fill:#840000; fill-opacity:0.0; 
stroke:#840000; stroke-width:100; stroke-opacity:1; 
stroke-linecap:round; stroke-linejoin:round;">
</g>
<g style="fill:#840000; fill-opacity:0.0; 
stroke:#840000; stroke-width:60; stroke-opacity:1; 
stroke-linecap:round; stroke-linejoin:round;">
<text x="4330" y="73080"
textLength="570" font-size="680" lengthAdjust="spacingAndGlyphs"
text-anchor="middle" opacity="0">D</text>
<path d="M4190 73060
L4190 72550
L4310 72550
L4390 72570
L4430 72620
L4460 72670
L4480 72760
L4480 72840
L4460 72930
L4430 72980
L4390 73030
L4310 73060
L4190 73060
" />
</g>
<g style="fill:#840000; fill-opacity:0.0; 
stroke:#840000; stroke-width:100; stroke-opacity:1; 
stroke-linecap:round; stroke-linejoin:round;">
</g>
<g style="fill:#840000; fill-opacity:0.0; 
stroke:#840000; stroke-width:60; stroke-opacity:1; 
stroke-linecap:round; stroke-linejoin:round;">
<path d="M112990 23620
L112210 23620
" />
</g>
<g style="fill:#840000; fill-opacity:0.0; 
stroke:#840000; stroke-width:100; stroke-opacity:1; 
stroke-linecap:round; stroke-linejoin:round;">
</g>
<g style="fill:#840000; fill-opacity:0.0; 
stroke:#840000; stroke-width:60; stroke-opacity:1; 
stroke-linecap:round; stroke-linejoin:round;">
<path d="M112990 43310
L112210 43310
" />
</g>
<g style="fill:#840000; fill-opacity:0.0; 
stroke:#840000; stroke-width:100; stroke-opacity:1; 
stroke-linecap:round; stroke-linejoin:round;">
</g>
<g style="fill:#840000; fill-opacity:0.0; 
stroke:#840000; stroke-width:60; stroke-opacity:1; 
stroke-linecap:round; stroke-linejoin:round;">
<path d="M112990 62990
L112210 62990
" />
</g>
<g style="fill:#840000; fill-opacity:0.0; 
stroke:#840000; stroke-width:100; stroke-opacity:1; 
stroke-linecap:round; stroke-linejoin:round;">
</g>
<g style="fill:#840000; fill-opacity:0.0; 
stroke:#840000; stroke-width:60; stroke-opacity:1; 
stroke-linecap:round; stroke-linejoin:round;">
<text x="112600" y="14030"
textLength="500" font-size="680" lengthAdjust="spacingAndGlyphs"
text-anchor="middle" opacity="0">A</text>
<path d="M112470 13860
L112720 13860
" />
<path d="M112430 14010
L112600 13500
L112770 14010
" />
</g>
<g style="fill:#840000; fill-opacity:0.0; 
stroke:#840000; stroke-width:100; stroke-opacity:1; 
stroke-linecap:round; stroke-linejoin:round;">
</g>
<g style="fill:#840000; fill-opacity:0.0; 
stroke:#840000; stroke-width:60; stroke-opacity:1; 
stroke-linecap:round; stroke-linejoin:round;">
<text x="112600" y="33710"
textLength="570" font-size="680" lengthAdjust="spacingAndGlyphs"
text-anchor="middle" opacity="0">B</text>
<path d="M112630 33420
L112700 33440
L112730 33470
L112750 33520
L112750 33590
L112730 33640
L112700 33660
L112660 33690
L112460 33690
L112460 33180
L112630 33180
L112680 33200
L112700 33220
L112730 33270
L112730 33320
L112700 33370
L112680 33390
L112630 33420
L112460 33420
" />
</g>
<g style="fill:#840000; fill-opacity:0.0; 
stroke:#840000; stroke-width:100; stroke-opacity:1; 
stroke-linecap:round; stroke-linejoin:round;">
</g>
<g style="fill:#840000; fill-opacity:0.0; 
stroke:#840000; stroke-width:60; stroke-opacity:1; 
stroke-linecap:round; stroke-linejoin:round;">
<text x="112600" y="53400"
textLength="570" font-size="680" lengthAdjust="spacingAndGlyphs"
text-anchor="middle" opacity="0">C</text>
<path d="M112750 53330
L112730 53350
L112660 53380
L112610 53380
L112530 53350
L112490 53300
L112460 53250
L112440 53160
L112440 53080
L112460 52990
L112490 52940
L112530 52890
L112610 52870
L112660 52870
L112730 52890
L112750 52910
" />
</g>
<g style="fill:#840000; fill-opacity:0.0; 
stroke:#840000; stroke-width:100; stroke-opacity:1; 
stroke-linecap:round; stroke-linejoin:round;">
</g>
<g style="fill:#840000; fill-opacity:0.0; 
stroke:#840000; stroke-width:60; stroke-opacity:1; 
stroke-linecap:round; stroke-linejoin:round;">
<text x="112600" y="73080"
textLength="570" font-size="680" lengthAdjust="spacingAndGlyphs"
text-anchor="middle" opacity="0">D</text>
<path d="M112460 73060
L112460 72550
L112580 72550
L112660 72570
L112700 72620
L112730 72670
L112750 72760
L112750 72840
L112730 72930
L112700 72980
L112660 73030
L112580 73060
L112460 73060
" />
</g>
<g style="fill:#840000; fill-opacity:0.0; 
stroke:#840000; stroke-width:100; stroke-opacity:1; 
stroke-linecap:round; stroke-linejoin:round;">
</g>
<g style="fill:#840000; fill-opacity:0.0; 
stroke:#840000; stroke-width:60; stroke-opacity:1; 
stroke-linecap:round; stroke-linejoin:round;">
<text x="78740" y="76320"
textLength="8710" font-size="780" lengthAdjust="spacingAndGlyphs"
text-anchor="start" opacity="0">Date: 2021-06-05</text>
<path d="M78910 76290
L78910 75700
L79050 75700
L79130 75730
L79190 75790
L79210 75840
L79240 75950
L79240 76040
L79210 76150
L79190 76210
L79130 76260
L79050 76290
L78910 76290
" />
<path d="M79750 76290
L79750 75980
L79720 75930
L79660 75900
L79550 75900
L79500 75930
" />
<path d="M79750 76260
L79690 76290
L79550 76290
L79500 76260
L79470 76210
L79470 76150
L79500 76100
L79550 76070
L79690 76070
L79750 76040
" />
<path d="M79950 75900
L80170 75900
" />
<path d="M80030 75700
L80030 76210
L80060 76260
L80110 76290
L80170 76290
" />
<path d="M80590 76260
L80540 76290
L80420 76290
L80370 76260
L80340 76210
L80340 75980
L80370 75930
L80420 75900
L80540 75900
L80590 75930
L80620 75980
L80620 76040
L80340 76100
" />
<path d="M80870 76240
L80900 76260
L80870 76290
L80840 76260
L80870 76240
L80870 76290
" />
<path d="M80870 75930
L80900 75950
L80870 75980
L80840 75950
L80870 75930
L80870 75980
" />
<path d="M81570 75760
L81600 75730
L81660 75700
L81800 75700
L81860 75730
L81880 75760
L81910 75810
L81910 75870
L81880 75950
L81550 76290
L81910 76290
" />
<path d="M82280 75700
L82330 75700
L82390 75730
L82420 75760
L82450 75810
L82470 75930
L82470 76070
L82450 76180
L82420 76240
L82390 76260
L82330 76290
L82280 76290
L82220 76260
L82190 76240
L82160 76180
L82140 76070
L82140 75930
L82160 75810
L82190 75760
L82220 75730
L82280 75700
" />
<path d="M82700 75760
L82730 75730
L82780 75700
L82920 75700
L82980 75730
L83010 75760
L83040 75810
L83040 75870
L83010 75950
L82670 76290
L83040 76290
" />
<path d="M83600 76290
L83260 76290
" />
<path d="M83430 76290
L83430 75700
L83370 75790
L83320 75840
L83260 75870
" />
<path d="M83850 76070
L84300 76070
" />
<path d="M84690 75700
L84750 75700
L84810 75730
L84830 75760
L84860 75810
L84890 75930
L84890 76070
L84860 76180
L84830 76240
L84810 76260
L84750 76290
L84690 76290
L84640 76260
L84610 76240
L84580 76180
L84550 76070
L84550 75930
L84580 75810
L84610 75760
L84640 75730
L84690 75700
" />
<path d="M85400 75700
L85280 75700
L85230 75730
L85200 75760
L85140 75840
L85110 75950
L85110 76180
L85140 76240
L85170 76260
L85230 76290
L85340 76290
L85400 76260
L85420 76240
L85450 76180
L85450 76040
L85420 75980
L85400 75950
L85340 75930
L85230 75930
L85170 75950
L85140 75980
L85110 76040
" />
<path d="M85700 76070
L86150 76070
" />
<path d="M86550 75700
L86600 75700
L86660 75730
L86690 75760
L86720 75810
L86740 75930
L86740 76070
L86720 76180
L86690 76240
L86660 76260
L86600 76290
L86550 76290
L86490 76260
L86460 76240
L86440 76180
L86410 76070
L86410 75930
L86440 75810
L86460 75760
L86490 75730
L86550 75700
" />
<path d="M87280 75700
L87000 75700
L86970 75980
L87000 75950
L87050 75930
L87190 75930
L87250 75950
L87280 75980
L87310 76040
L87310 76180
L87280 76240
L87250 76260
L87190 76290
L87050 76290
L87000 76260
L86970 76240
" />
</g>
<g style="fill:#840000; fill-opacity:0.0; 
stroke:#840000; stroke-width:100; stroke-opacity:1; 
stroke-linecap:round; stroke-linejoin:round;">
</g>
<g style="fill:#840000; fill-opacity:0.0; 
stroke:#840000; stroke-width:60; stroke-opacity:1; 
stroke-linecap:round; stroke-linejoin:round;">
<path d="M69690 76580
L112210 76580
" />
</g>
<g style="fill:#840000; fill-opacity:0.0; 
stroke:#840000; stroke-width:100; stroke-opacity:1; 
stroke-linecap:round; stroke-linejoin:round;">
</g>
<g style="fill:#840000; fill-opacity:0.0; 
stroke:#840000; stroke-width:60; stroke-opacity:1; 
stroke-linecap:round; stroke-linejoin:round;">
<text x="70080" y="77420"
textLength="16950" font-size="780" lengthAdjust="spacingAndGlyphs"
text-anchor="start" opacity="0">KiCad E.D.A.  kicad (5.1.8-0-10_14)</text>
<path d="M70250 77390
L70250 76800
" />
<path d="M70580 77390
L70330 77050
" />
<path d="M70580 76800
L70250 77140
" />
<path d="M70840 77390
L70840 77000
" />
<path d="M70840 76800
L70810 76830
L70840 76860
L70860 76830
L70840 76800
L70840 76860
" />
<path d="M71450 77340
L71430 77360
L71340 77390
L71290 77390
L71200 77360
L71140 77310
L71120 77250
L71090 77140
L71090 77050
L71120 76940
L71140 76890
L71200 76830
L71290 76800
L71340 76800
L71430 76830
L71450 76860
" />
<path d="M71960 77390
L71960 77080
L71930 77030
L71880 77000
L71760 77000
L71710 77030
" />
<path d="M71960 77360
L71900 77390
L71760 77390
L71710 77360
L71680 77310
L71680 77250
L71710 77200
L71760 77170
L71900 77170
L71960 77140
" />
<path d="M72490 77390
L72490 76800
" />
<path d="M72490 77360
L72440 77390
L72320 77390
L72270 77360
L72240 77340
L72210 77280
L72210 77110
L72240 77050
L72270 77030
L72320 77000
L72440 77000
L72490 77030
" />
<path d="M73220 77080
L73420 77080
" />
<path d="M73500 77390
L73220 77390
L73220 76800
L73500 76800
" />
<path d="M73760 77340
L73790 77360
L73760 77390
L73730 77360
L73760 77340
L73760 77390
" />
<path d="M74040 77390
L74040 76800
L74180 76800
L74260 76830
L74320 76890
L74350 76940
L74380 77050
L74380 77140
L74350 77250
L74320 77310
L74260 77360
L74180 77390
L74040 77390
" />
<path d="M74630 77340
L74660 77360
L74630 77390
L74600 77360
L74630 77340
L74630 77390
" />
<path d="M74880 77220
L75160 77220
" />
<path d="M74830 77390
L75020 76800
L75220 77390
" />
<path d="M75420 77340
L75440 77360
L75420 77390
L75390 77360
L75420 77340
L75420 77390
" />
<path d="M76600 77390
L76600 76800
" />
<path d="M76650 77170
L76820 77390
" />
<path d="M76820 77000
L76600 77220
" />
<path d="M77070 77390
L77070 77000
" />
<path d="M77070 76800
L77040 76830
L77070 76860
L77100 76830
L77070 76800
L77070 76860
" />
<path d="M77610 77360
L77550 77390
L77440 77390
L77380 77360
L77350 77340
L77330 77280
L77330 77110
L77350 77050
L77380 77030
L77440 77000
L77550 77000
L77610 77030
" />
<path d="M78110 77390
L78110 77080
L78080 77030
L78030 77000
L77920 77000
L77860 77030
" />
<path d="M78110 77360
L78060 77390
L77920 77390
L77860 77360
L77830 77310
L77830 77250
L77860 77200
L77920 77170
L78060 77170
L78110 77140
" />
<path d="M78650 77390
L78650 76800
" />
<path d="M78650 77360
L78590 77390
L78480 77390
L78420 77360
L78390 77340
L78370 77280
L78370 77110
L78390 77050
L78420 77030
L78480 77000
L78590 77000
L78650 77030
" />
<path d="M79550 77620
L79520 77590
L79460 77500
L79430 77450
L79400 77360
L79380 77220
L79380 77110
L79400 76970
L79430 76890
L79460 76830
L79520 76750
L79550 76720
" />
<path d="M80050 76800
L79770 76800
L79740 77080
L79770 77050
L79830 77030
L79970 77030
L80020 77050
L80050 77080
L80080 77140
L80080 77280
L80050 77340
L80020 77360
L79970 77390
L79830 77390
L79770 77360
L79740 77340
" />
<path d="M80330 77340
L80360 77360
L80330 77390
L80300 77360
L80330 77340
L80330 77390
" />
<path d="M80920 77390
L80580 77390
" />
<path d="M80750 77390
L80750 76800
L80700 76890
L80640 76940
L80580 76970
" />
<path d="M81170 77340
L81200 77360
L81170 77390
L81150 77360
L81170 77340
L81170 77390
" />
<path d="M81540 77050
L81480 77030
L81460 77000
L81430 76940
L81430 76910
L81460 76860
L81480 76830
L81540 76800
L81650 76800
L81710 76830
L81740 76860
L81760 76910
L81760 76940
L81740 77000
L81710 77030
L81650 77050
L81540 77050
L81480 77080
L81460 77110
L81430 77170
L81430 77280
L81460 77340
L81480 77360
L81540 77390
L81650 77390
L81710 77360
L81740 77340
L81760 77280
L81760 77170
L81740 77110
L81710 77080
L81650 77050
" />
<path d="M82020 77170
L82470 77170
" />
<path d="M82860 76800
L82920 76800
L82970 76830
L83000 76860
L83030 76910
L83060 77030
L83060 77170
L83030 77280
L83000 77340
L82970 77360
L82920 77390
L82860 77390
L82800 77360
L82780 77340
L82750 77280
L82720 77170
L82720 77030
L82750 76910
L82780 76860
L82800 76830
L82860 76800
" />
<path d="M83310 77170
L83760 77170
" />
<path d="M84350 77390
L84010 77390
" />
<path d="M84180 77390
L84180 76800
L84120 76890
L84070 76940
L84010 76970
" />
<path d="M84710 76800
L84770 76800
L84830 76830
L84860 76860
L84880 76910
L84910 77030
L84910 77170
L84880 77280
L84860 77340
L84830 77360
L84770 77390
L84710 77390
L84660 77360
L84630 77340
L84600 77280
L84570 77170
L84570 77030
L84600 76910
L84630 76860
L84660 76830
L84710 76800
" />
<path d="M85020 77450
L85470 77450
" />
<path d="M85920 77390
L85590 77390
" />
<path d="M85750 77390
L85750 76800
L85700 76890
L85640 76940
L85590 76970
" />
<path d="M86430 77000
L86430 77390
" />
<path d="M86290 76770
L86150 77200
L86510 77200
" />
<path d="M86680 77620
L86710 77590
L86770 77500
L86790 77450
L86820 77360
L86850 77220
L86850 77110
L86820 76970
L86790 76890
L86770 76830
L86710 76750
L86680 76720
" />
</g>
<g style="fill:#840000; fill-opacity:0.0; 
stroke:#840000; stroke-width:100; stroke-opacity:1; 
stroke-linecap:round; stroke-linejoin:round;">
</g>
<g style="fill:#840000; fill-opacity:0.0; 
stroke:#840000; stroke-width:60; stroke-opacity:1; 
stroke-linecap:round; stroke-linejoin:round;">
<path d="M69690 75400
L112210 75400
" />
</g>
<g style="fill:#840000; fill-opacity:0.0; 
stroke:#840000; stroke-width:100; stroke-opacity:1; 
stroke-linecap:round; stroke-linejoin:round;">
</g>
<g style="fill:#840000; fill-opacity:0.0; 
stroke:#840000; stroke-width:120; stroke-opacity:1; 
stroke-linecap:round; stroke-linejoin:round;">
<text x="103540" y="76320"
textLength="2840" font-size="780" lengthAdjust="spacingAndGlyphs"
text-anchor="start" opacity="0">Rev: A</text>
<path d="M104090 76290
L103890 76010
" />
<path d="M103750 76290
L103750 75700
L103980 75700
L104030 75730
L104060 75760
L104090 75810
L104090 75900
L104060 75950
L104030 75980
L103980 76010
L103750 76010
" />
<path d="M104570 76260
L104510 76290
L104400 76290
L104340 76260
L104320 76210
L104320 75980
L104340 75930
L104400 75900
L104510 75900
L104570 75930
L104600 75980
L104600 76040
L104320 76100
" />
<path d="M104790 75900
L104930 76290
L105070 75900
" />
<path d="M105300 76240
L105330 76260
L105300 76290
L105270 76260
L105300 76240
L105300 76290
" />
<path d="M105300 75930
L105330 75950
L105300 75980
L105270 75950
L105300 75930
L105300 75980
" />
<path d="M106000 76120
L106280 76120
" />
<path d="M105940 76290
L106140 75700
L106340 76290
" />
</g>
<g style="fill:#840000; fill-opacity:0.0; 
stroke:#840000; stroke-width:100; stroke-opacity:1; 
stroke-linecap:round; stroke-linejoin:round;">
</g>
<g style="fill:#840000; fill-opacity:0.0; 
stroke:#840000; stroke-width:60; stroke-opacity:1; 
stroke-linecap:round; stroke-linejoin:round;">
<text x="70080" y="76320"
textLength="3780" font-size="780" lengthAdjust="spacingAndGlyphs"
text-anchor="start" opacity="0">Size: A4</text>
<path d="M70220 76260
L70300 76290
L70440 76290
L70500 76260
L70530 76240
L70550 76180
L70550 76120
L70530 76070
L70500 76040
L70440 76010
L70330 75980
L70270 75950
L70250 75930
L70220 75870
L70220 75810
L70250 75760
L70270 75730
L70330 75700
L70470 75700
L70550 75730
" />
<path d="M70810 76290
L70810 75900
" />
<path d="M70810 75700
L70780 75730
L70810 75760
L70840 75730
L70810 75700
L70810 75760
" />
<path d="M71030 75900
L71340 75900
L71030 76290
L71340 76290
" />
<path d="M71790 76260
L71730 76290
L71620 76290
L71570 76260
L71540 76210
L71540 75980
L71570 75930
L71620 75900
L71730 75900
L71790 75930
L71820 75980
L71820 76040
L71540 76100
" />
<path d="M72070 76240
L72100 76260
L72070 76290
L72040 76260
L72070 76240
L72070 76290
" />
<path d="M72070 75930
L72100 75950
L72070 75980
L72040 75950
L72070 75930
L72070 75980
" />
<path d="M72770 76120
L73060 76120
" />
<path d="M72720 76290
L72910 75700
L73110 76290
" />
<path d="M73560 75900
L73560 76290
" />
<path d="M73420 75670
L73280 76100
L73650 76100
" />
</g>
<g style="fill:#840000; fill-opacity:0.0; 
stroke:#840000; stroke-width:100; stroke-opacity:1; 
stroke-linecap:round; stroke-linejoin:round;">
</g>
<g style="fill:#840000; fill-opacity:0.0; 
stroke:#840000; stroke-width:60; stroke-opacity:1; 
stroke-linecap:round; stroke-linejoin:round;">
<text x="103540" y="77420"
textLength="4470" font-size="780" lengthAdjust="spacingAndGlyphs"
text-anchor="start" opacity="0">Id: 44/46</text>
<path d="M103710 77390
L103710 76800
" />
<path d="M104240 77390
L104240 76800
" />
<path d="M104240 77360
L104180 77390
L104070 77390
L104010 77360
L103990 77340
L103960 77280
L103960 77110
L103990 77050
L104010 77030
L104070 77000
L104180 77000
L104240 77030
" />
<path d="M104520 77340
L104550 77360
L104520 77390
L104490 77360
L104520 77340
L104520 77390
" />
<path d="M104520 77030
L104550 77050
L104520 77080
L104490 77050
L104520 77030
L104520 77080
" />
<path d="M105500 77000
L105500 77390
" />
<path d="M105360 76770
L105220 77200
L105590 77200
" />
<path d="M106070 77000
L106070 77390
" />
<path d="M105930 76770
L105780 77200
L106150 77200
" />
<path d="M106800 76770
L106290 77530
" />
<path d="M107250 77000
L107250 77390
" />
<path d="M107110 76770
L106960 77200
L107330 77200
" />
<path d="M107810 76800
L107700 76800
L107640 76830
L107610 76860
L107550 76940
L107530 77050
L107530 77280
L107550 77340
L107580 77360
L107640 77390
L107750 77390
L107810 77360
L107840 77340
L107860 77280
L107860 77140
L107840 77080
L107810 77050
L107750 77030
L107640 77030
L107580 77050
L107550 77080
L107530 77140
" />
</g>
<g style="fill:#840000; fill-opacity:0.0; 
stroke:#840000; stroke-width:100; stroke-opacity:1; 
stroke-linecap:round; stroke-linejoin:round;">
</g>
<g style="fill:#840000; fill-opacity:0.0; 
stroke:#840000; stroke-width:60; stroke-opacity:1; 
stroke-linecap:round; stroke-linejoin:round;">
<path d="M69690 73820
L112210 73820
" />
</g>
<g style="fill:#840000; fill-opacity:0.0; 
stroke:#840000; stroke-width:100; stroke-opacity:1; 
stroke-linecap:round; stroke-linejoin:round;">
</g>
<g style="fill:#840000; fill-opacity:0.0; 
stroke:#840000; stroke-width:160; stroke-opacity:1; 
stroke-linecap:round; stroke-linejoin:round;">
<text x="70080" y="74920"
textLength="21430" font-size="1050" lengthAdjust="spacingAndGlyphs"
text-anchor="start" opacity="0">Title: Combined RGB LED and SPST</text>
<path d="M70360 74090
L70810 74090
" />
<path d="M70480 74880
L70580 74090
" />
<path d="M70970 74880
L71040 74360
" />
<path d="M71070 74090
L71030 74130
L71060 74170
L71110 74130
L71070 74090
L71060 74170
" />
<path d="M71300 74360
L71600 74360
" />
<path d="M71450 74090
L71360 74770
L71390 74840
L71460 74880
L71540 74880
" />
<path d="M71910 74880
L71840 74840
L71820 74770
L71900 74090
" />
<path d="M72520 74840
L72440 74880
L72290 74880
L72220 74840
L72190 74770
L72230 74470
L72280 74390
L72360 74360
L72510 74360
L72580 74390
L72610 74470
L72600 74540
L72210 74620
" />
<path d="M72900 74810
L72930 74840
L72890 74880
L72860 74840
L72900 74810
L72890 74880
" />
<path d="M72950 74390
L72990 74430
L72940 74470
L72910 74430
L72950 74390
L72940 74470
" />
<path d="M74330 74810
L74290 74840
L74170 74880
L74100 74880
L73990 74840
L73920 74770
L73890 74690
L73880 74540
L73890 74430
L73950 74280
L73990 74210
L74080 74130
L74190 74090
L74270 74090
L74380 74130
L74410 74170
" />
<path d="M74770 74880
L74700 74840
L74670 74810
L74640 74730
L74670 74510
L74720 74430
L74760 74390
L74840 74360
L74950 74360
L75020 74390
L75060 74430
L75080 74510
L75060 74730
L75010 74810
L74970 74840
L74890 74880
L74770 74880
" />
<path d="M75380 74880
L75440 74360
" />
<path d="M75430 74430
L75470 74390
L75550 74360
L75670 74360
L75740 74390
L75770 74470
L75710 74880
" />
<path d="M75770 74470
L75810 74390
L75890 74360
L76010 74360
L76080 74390
L76100 74470
L76050 74880
" />
<path d="M76430 74880
L76530 74090
" />
<path d="M76490 74390
L76570 74360
L76720 74360
L76790 74390
L76820 74430
L76850 74510
L76820 74730
L76780 74810
L76730 74840
L76650 74880
L76500 74880
L76430 74840
" />
<path d="M77140 74880
L77210 74360
" />
<path d="M77240 74090
L77200 74130
L77230 74170
L77270 74130
L77240 74090
L77230 74170
" />
<path d="M77590 74360
L77520 74880
" />
<path d="M77580 74430
L77620 74390
L77700 74360
L77810 74360
L77880 74390
L77910 74470
L77860 74880
" />
<path d="M78540 74840
L78460 74880
L78310 74880
L78240 74840
L78210 74770
L78250 74470
L78300 74390
L78380 74360
L78530 74360
L78600 74390
L78620 74470
L78620 74540
L78230 74620
" />
<path d="M79250 74880
L79350 74090
" />
<path d="M79250 74840
L79170 74880
L79020 74880
L78950 74840
L78920 74810
L78890 74730
L78920 74510
L78970 74430
L79010 74390
L79090 74360
L79240 74360
L79310 74390
" />
<path d="M80680 74880
L80460 74510
" />
<path d="M80230 74880
L80330 74090
L80630 74090
L80700 74130
L80730 74170
L80760 74240
L80750 74360
L80700 74430
L80660 74470
L80580 74510
L80280 74510
" />
<path d="M81530 74130
L81460 74090
L81340 74090
L81220 74130
L81140 74210
L81090 74280
L81040 74430
L81020 74540
L81040 74690
L81070 74770
L81140 74840
L81240 74880
L81320 74880
L81440 74840
L81480 74810
L81510 74540
L81360 74540
" />
<path d="M82120 74470
L82230 74510
L82260 74540
L82290 74620
L82280 74730
L82230 74810
L82190 74840
L82110 74880
L81810 74880
L81910 74090
L82170 74090
L82240 74130
L82270 74170
L82300 74240
L82290 74320
L82250 74390
L82200 74430
L82120 74470
L81860 74470
" />
<path d="M83580 74880
L83200 74880
L83300 74090
" />
<path d="M83890 74470
L84150 74470
" />
<path d="M84220 74880
L83840 74880
L83940 74090
L84310 74090
" />
<path d="M84550 74880
L84650 74090
L84840 74090
L84950 74130
L85020 74210
L85040 74280
L85060 74430
L85050 74540
L84990 74690
L84940 74770
L84860 74840
L84740 74880
L84550 74880
" />
<path d="M86280 74880
L86340 74470
L86310 74390
L86240 74360
L86090 74360
L86010 74390
" />
<path d="M86290 74840
L86210 74880
L86020 74880
L85950 74840
L85920 74770
L85930 74690
L85980 74620
L86060 74580
L86250 74580
L86330 74540
" />
<path d="M86730 74360
L86660 74880
" />
<path d="M86720 74430
L86760 74390
L86840 74360
L86950 74360
L87020 74390
L87050 74470
L87000 74880
" />
<path d="M87710 74880
L87810 74090
" />
<path d="M87720 74840
L87640 74880
L87490 74880
L87420 74840
L87390 74810
L87360 74730
L87390 74510
L87430 74430
L87470 74390
L87550 74360
L87700 74360
L87780 74390
" />
<path d="M88660 74840
L88770 74880
L88960 74880
L89040 74840
L89080 74810
L89120 74730
L89130 74660
L89110 74580
L89070 74540
L89000 74510
L88860 74470
L88790 74430
L88750 74390
L88730 74320
L88730 74240
L88780 74170
L88820 74130
L88900 74090
L89090 74090
L89200 74130
" />
<path d="M89440 74880
L89540 74090
L89840 74090
L89910 74130
L89950 74170
L89980 74240
L89960 74360
L89910 74430
L89870 74470
L89790 74510
L89490 74510
" />
<path d="M90200 74840
L90310 74880
L90500 74880
L90580 74840
L90620 74810
L90670 74730
L90680 74660
L90650 74580
L90620 74540
L90550 74510
L90400 74470
L90330 74430
L90300 74390
L90270 74320
L90280 74240
L90320 74170
L90370 74130
L90450 74090
L90630 74090
L90740 74130
" />
<path d="M90970 74090
L91420 74090
" />
<path d="M91100 74880
L91200 74090
" />
</g>
<g style="fill:#840000; fill-opacity:0.0; 
stroke:#840000; stroke-width:100; stroke-opacity:1; 
stroke-linecap:round; stroke-linejoin:round;">
</g>
<g style="fill:#840000; fill-opacity:0.0; 
stroke:#840000; stroke-width:60; stroke-opacity:1; 
stroke-linecap:round; stroke-linejoin:round;">
<text x="70080" y="73400"
textLength="9840" font-size="780" lengthAdjust="spacingAndGlyphs"
text-anchor="start" opacity="0">File: LED_PCB_SW.sch</text>
<path d="M70440 73060
L70250 73060
" />
<path d="M70250 73370
L70250 72780
L70530 72780
" />
<path d="M70750 73370
L70750 72980
" />
<path d="M70750 72780
L70720 72810
L70750 72840
L70780 72810
L70750 72780
L70750 72840
" />
<path d="M71120 73370
L71060 73340
L71030 73290
L71030 72780
" />
<path d="M71570 73340
L71510 73370
L71400 73370
L71340 73340
L71310 73290
L71310 73060
L71340 73010
L71400 72980
L71510 72980
L71570 73010
L71590 73060
L71590 73120
L71310 73180
" />
<path d="M71850 73320
L71880 73340
L71850 73370
L71820 73340
L71850 73320
L71850 73370
" />
<path d="M71850 73010
L71880 73030
L71850 73060
L71820 73030
L71850 73010
L71850 73060
" />
<path d="M72860 73370
L72580 73370
L72580 72780
" />
<path d="M73060 73060
L73250 73060
" />
<path d="M73340 73370
L73060 73370
L73060 72780
L73340 72780
" />
<path d="M73590 73370
L73590 72780
L73730 72780
L73810 72810
L73870 72870
L73900 72920
L73930 73030
L73930 73120
L73900 73230
L73870 73290
L73810 73340
L73730 73370
L73590 73370
" />
<path d="M74040 73430
L74490 73430
" />
<path d="M74630 73370
L74630 72780
L74850 72780
L74910 72810
L74940 72840
L74970 72890
L74970 72980
L74940 73030
L74910 73060
L74850 73090
L74630 73090
" />
<path d="M75560 73320
L75530 73340
L75440 73370
L75390 73370
L75300 73340
L75250 73290
L75220 73230
L75190 73120
L75190 73030
L75220 72920
L75250 72870
L75300 72810
L75390 72780
L75440 72780
L75530 72810
L75560 72840
" />
<path d="M76010 73060
L76090 73090
L76120 73120
L76150 73180
L76150 73260
L76120 73320
L76090 73340
L76030 73370
L75810 73370
L75810 72780
L76010 72780
L76060 72810
L76090 72840
L76120 72890
L76120 72950
L76090 73010
L76060 73030
L76010 73060
L75810 73060
" />
<path d="M76260 73430
L76710 73430
" />
<path d="M76820 73340
L76900 73370
L77040 73370
L77100 73340
L77130 73320
L77160 73260
L77160 73200
L77130 73150
L77100 73120
L77040 73090
L76930 73060
L76880 73030
L76850 73010
L76820 72950
L76820 72890
L76850 72840
L76880 72810
L76930 72780
L77070 72780
L77160 72810
" />
<path d="M77350 72780
L77490 73370
L77610 72950
L77720 73370
L77860 72780
" />
<path d="M78080 73320
L78110 73340
L78080 73370
L78060 73340
L78080 73320
L78080 73370
" />
<path d="M78340 73340
L78390 73370
L78510 73370
L78560 73340
L78590 73290
L78590 73260
L78560 73200
L78510 73180
L78420 73180
L78370 73150
L78340 73090
L78340 73060
L78370 73010
L78420 72980
L78510 72980
L78560 73010
" />
<path d="M79100 73340
L79040 73370
L78930 73370
L78870 73340
L78840 73320
L78810 73260
L78810 73090
L78840 73030
L78870 73010
L78930 72980
L79040 72980
L79100 73010
" />
<path d="M79350 73370
L79350 72780
" />
<path d="M79600 73370
L79600 73060
L79570 73010
L79520 72980
L79430 72980
L79380 73010
L79350 73030
" />
</g>
<g style="fill:#840000; fill-opacity:0.0; 
stroke:#840000; stroke-width:100; stroke-opacity:1; 
stroke-linecap:round; stroke-linejoin:round;">
</g>
<g style="fill:#840000; fill-opacity:0.0; 
stroke:#840000; stroke-width:60; stroke-opacity:1; 
stroke-linecap:round; stroke-linejoin:round;">
<path d="M69690 71460
L112210 71460
" />
</g>
<g style="fill:#840000; fill-opacity:0.0; 
stroke:#840000; stroke-width:100; stroke-opacity:1; 
stroke-linecap:round; stroke-linejoin:round;">
</g>
<g style="fill:#840000; fill-opacity:0.0; 
stroke:#840000; stroke-width:60; stroke-opacity:1; 
stroke-linecap:round; stroke-linejoin:round;">
<text x="70080" y="72340"
textLength="27760" font-size="780" lengthAdjust="spacingAndGlyphs"
text-anchor="start" opacity="0">Sheet: /Input Keyscan and RGB LED Driver/LED_PCB_SW_31/</text>
<path d="M70220 72280
L70300 72310
L70440 72310
L70500 72280
L70530 72260
L70550 72200
L70550 72140
L70530 72090
L70500 72060
L70440 72030
L70330 72000
L70270 71970
L70250 71950
L70220 71890
L70220 71830
L70250 71780
L70270 71750
L70330 71720
L70470 71720
L70550 71750
" />
<path d="M70810 72310
L70810 71720
" />
<path d="M71060 72310
L71060 72000
L71030 71950
L70980 71920
L70890 71920
L70840 71950
L70810 71970
" />
<path d="M71570 72280
L71510 72310
L71400 72310
L71340 72280
L71310 72230
L71310 72000
L71340 71950
L71400 71920
L71510 71920
L71570 71950
L71590 72000
L71590 72060
L71310 72120
" />
<path d="M72070 72280
L72020 72310
L71900 72310
L71850 72280
L71820 72230
L71820 72000
L71850 71950
L71900 71920
L72020 71920
L72070 71950
L72100 72000
L72100 72060
L71820 72120
" />
<path d="M72270 71920
L72490 71920
" />
<path d="M72350 71720
L72350 72230
L72380 72280
L72440 72310
L72490 72310
" />
<path d="M72690 72260
L72720 72280
L72690 72310
L72660 72280
L72690 72260
L72690 72310
" />
<path d="M72690 71950
L72720 71970
L72690 72000
L72660 71970
L72690 71950
L72690 72000
" />
<path d="M73840 71690
L73340 72450
" />
<path d="M74040 72310
L74040 71720
" />
<path d="M74320 71920
L74320 72310
" />
<path d="M74320 71970
L74350 71950
L74400 71920
L74490 71920
L74540 71950
L74570 72000
L74570 72310
" />
<path d="M74850 71920
L74850 72510
" />
<path d="M74850 71950
L74910 71920
L75020 71920
L75080 71950
L75110 71970
L75130 72030
L75130 72200
L75110 72260
L75080 72280
L75020 72310
L74910 72310
L74850 72280
" />
<path d="M75640 71920
L75640 72310
" />
<path d="M75390 71920
L75390 72230
L75420 72280
L75470 72310
L75560 72310
L75610 72280
L75640 72260
" />
<path d="M75840 71920
L76060 71920
" />
<path d="M75920 71720
L75920 72230
L75950 72280
L76010 72310
L76060 72310
" />
<path d="M76710 72310
L76710 71720
" />
<path d="M77040 72310
L76790 71970
" />
<path d="M77040 71720
L76710 72060
" />
<path d="M77520 72280
L77470 72310
L77350 72310
L77300 72280
L77270 72230
L77270 72000
L77300 71950
L77350 71920
L77470 71920
L77520 71950
L77550 72000
L77550 72060
L77270 72120
" />
<path d="M77750 71920
L77890 72310
" />
<path d="M78030 71920
L77890 72310
L77830 72450
L77800 72480
L77750 72510
" />
<path d="M78220 72280
L78280 72310
L78390 72310
L78450 72280
L78480 72230
L78480 72200
L78450 72140
L78390 72120
L78310 72120
L78250 72090
L78220 72030
L78220 72000
L78250 71950
L78310 71920
L78390 71920
L78450 71950
" />
<path d="M78980 72280
L78930 72310
L78810 72310
L78760 72280
L78730 72260
L78700 72200
L78700 72030
L78730 71970
L78760 71950
L78810 71920
L78930 71920
L78980 71950
" />
<path d="M79490 72310
L79490 72000
L79460 71950
L79400 71920
L79290 71920
L79240 71950
" />
<path d="M79490 72280
L79430 72310
L79290 72310
L79240 72280
L79210 72230
L79210 72170
L79240 72120
L79290 72090
L79430 72090
L79490 72060
" />
<path d="M79770 71920
L79770 72310
" />
<path d="M79770 71970
L79800 71950
L79850 71920
L79940 71920
L79990 71950
L80020 72000
L80020 72310
" />
<path d="M81010 72310
L81010 72000
L80980 71950
L80920 71920
L80810 71920
L80750 71950
" />
<path d="M81010 72280
L80950 72310
L80810 72310
L80750 72280
L80730 72230
L80730 72170
L80750 72120
L80810 72090
L80950 72090
L81010 72060
" />
<path d="M81290 71920
L81290 72310
" />
<path d="M81290 71970
L81320 71950
L81370 71920
L81460 71920
L81510 71950
L81540 72000
L81540 72310
" />
<path d="M82070 72310
L82070 71720
" />
<path d="M82070 72280
L82020 72310
L81910 72310
L81850 72280
L81820 72260
L81790 72200
L81790 72030
L81820 71970
L81850 71950
L81910 71920
L82020 71920
L82070 71950
" />
<path d="M83140 72310
L82940 72030
" />
<path d="M82800 72310
L82800 71720
L83030 71720
L83090 71750
L83110 71780
L83140 71830
L83140 71920
L83110 71970
L83090 72000
L83030 72030
L82800 72030
" />
<path d="M83700 71750
L83650 71720
L83560 71720
L83480 71750
L83420 71810
L83390 71860
L83370 71970
L83370 72060
L83390 72170
L83420 72230
L83480 72280
L83560 72310
L83620 72310
L83700 72280
L83730 72260
L83730 72060
L83620 72060
" />
<path d="M84180 72000
L84270 72030
L84290 72060
L84320 72120
L84320 72200
L84290 72260
L84270 72280
L84210 72310
L83980 72310
L83980 71720
L84180 71720
L84240 71750
L84270 71780
L84290 71830
L84290 71890
L84270 71950
L84240 71970
L84180 72000
L83980 72000
" />
<path d="M85300 72310
L85020 72310
L85020 71720
" />
<path d="M85500 72000
L85700 72000
" />
<path d="M85780 72310
L85500 72310
L85500 71720
L85780 71720
" />
<path d="M86040 72310
L86040 71720
L86180 71720
L86260 71750
L86320 71810
L86340 71860
L86370 71970
L86370 72060
L86340 72170
L86320 72230
L86260 72280
L86180 72310
L86040 72310
" />
<path d="M87070 72310
L87070 71720
L87220 71720
L87300 71750
L87360 71810
L87380 71860
L87410 71970
L87410 72060
L87380 72170
L87360 72230
L87300 72280
L87220 72310
L87070 72310
" />
<path d="M87660 72310
L87660 71920
" />
<path d="M87660 72030
L87690 71970
L87720 71950
L87780 71920
L87830 71920
" />
<path d="M88030 72310
L88030 71920
" />
<path d="M88030 71720
L88000 71750
L88030 71780
L88060 71750
L88030 71720
L88030 71780
" />
<path d="M88250 71920
L88400 72310
L88540 71920
" />
<path d="M88990 72280
L88930 72310
L88820 72310
L88760 72280
L88730 72230
L88730 72000
L88760 71950
L88820 71920
L88930 71920
L88990 71950
L89010 72000
L89010 72060
L88730 72120
" />
<path d="M89270 72310
L89270 71920
" />
<path d="M89270 72030
L89290 71970
L89320 71950
L89380 71920
L89430 71920
" />
<path d="M90050 71690
L89550 72450
" />
<path d="M90530 72310
L90250 72310
L90250 71720
" />
<path d="M90730 72000
L90920 72000
" />
<path d="M91010 72310
L90730 72310
L90730 71720
L91010 71720
" />
<path d="M91260 72310
L91260 71720
L91400 71720
L91490 71750
L91540 71810
L91570 71860
L91600 71970
L91600 72060
L91570 72170
L91540 72230
L91490 72280
L91400 72310
L91260 72310
" />
<path d="M91710 72370
L92160 72370
" />
<path d="M92300 72310
L92300 71720
L92530 71720
L92580 71750
L92610 71780
L92640 71830
L92640 71920
L92610 71970
L92580 72000
L92530 72030
L92300 72030
" />
<path d="M93230 72260
L93200 72280
L93120 72310
L93060 72310
L92970 72280
L92920 72230
L92890 72170
L92860 72060
L92860 71970
L92890 71860
L92920 71810
L92970 71750
L93060 71720
L93120 71720
L93200 71750
L93230 71780
" />
<path d="M93680 72000
L93760 72030
L93790 72060
L93820 72120
L93820 72200
L93790 72260
L93760 72280
L93710 72310
L93480 72310
L93480 71720
L93680 71720
L93730 71750
L93760 71780
L93790 71830
L93790 71890
L93760 71950
L93730 71970
L93680 72000
L93480 72000
" />
<path d="M93930 72370
L94380 72370
" />
<path d="M94490 72280
L94580 72310
L94720 72310
L94770 72280
L94800 72260
L94830 72200
L94830 72140
L94800 72090
L94770 72060
L94720 72030
L94600 72000
L94550 71970
L94520 71950
L94490 71890
L94490 71830
L94520 71780
L94550 71750
L94600 71720
L94740 71720
L94830 71750
" />
<path d="M95030 71720
L95170 72310
L95280 71890
L95390 72310
L95530 71720
" />
<path d="M95620 72370
L96070 72370
" />
<path d="M96150 71720
L96510 71720
L96320 71950
L96400 71950
L96460 71970
L96490 72000
L96510 72060
L96510 72200
L96490 72260
L96460 72280
L96400 72310
L96230 72310
L96180 72280
L96150 72260
" />
<path d="M97080 72310
L96740 72310
" />
<path d="M96910 72310
L96910 71720
L96850 71810
L96800 71860
L96740 71890
" />
<path d="M97750 71690
L97250 72450
" />
</g>
<g style="fill:#840000; fill-opacity:0.0; 
stroke:#840000; stroke-width:100; stroke-opacity:1; 
stroke-linecap:round; stroke-linejoin:round;">
</g>
<g style="fill:#840000; fill-opacity:0.0; 
stroke:#840000; stroke-width:120; stroke-opacity:1; 
stroke-linecap:round; stroke-linejoin:round;">
<text x="70080" y="71160"
textLength="9190" font-size="780" lengthAdjust="spacingAndGlyphs"
text-anchor="start" opacity="0">Created by C Sutton</text>
<path d="M70630 71080
L70600 71100
L70520 71130
L70460 71130
L70380 71100
L70320 71050
L70290 70990
L70270 70880
L70270 70790
L70290 70680
L70320 70630
L70380 70570
L70460 70540
L70520 70540
L70600 70570
L70630 70600
" />
<path d="M70880 71130
L70880 70740
" />
<path d="M70880 70850
L70910 70790
L70940 70770
L71000 70740
L71050 70740
" />
<path d="M71470 71100
L71420 71130
L71300 71130
L71250 71100
L71220 71050
L71220 70820
L71250 70770
L71300 70740
L71420 70740
L71470 70770
L71500 70820
L71500 70880
L71220 70940
" />
<path d="M72010 71130
L72010 70820
L71980 70770
L71920 70740
L71810 70740
L71750 70770
" />
<path d="M72010 71100
L71950 71130
L71810 71130
L71750 71100
L71730 71050
L71730 70990
L71750 70940
L71810 70910
L71950 70910
L72010 70880
" />
<path d="M72200 70740
L72430 70740
" />
<path d="M72290 70540
L72290 71050
L72320 71100
L72370 71130
L72430 71130
" />
<path d="M72850 71100
L72790 71130
L72680 71130
L72630 71100
L72600 71050
L72600 70820
L72630 70770
L72680 70740
L72790 70740
L72850 70770
L72880 70820
L72880 70880
L72600 70940
" />
<path d="M73380 71130
L73380 70540
" />
<path d="M73380 71100
L73330 71130
L73220 71130
L73160 71100
L73130 71080
L73100 71020
L73100 70850
L73130 70790
L73160 70770
L73220 70740
L73330 70740
L73380 70770
" />
<path d="M74110 71130
L74110 70540
" />
<path d="M74110 70770
L74170 70740
L74280 70740
L74340 70770
L74370 70790
L74400 70850
L74400 71020
L74370 71080
L74340 71100
L74280 71130
L74170 71130
L74110 71100
" />
<path d="M74590 70740
L74730 71130
" />
<path d="M74870 70740
L74730 71130
L74680 71270
L74650 71300
L74590 71330
" />
<path d="M75880 71080
L75860 71100
L75770 71130
L75720 71130
L75630 71100
L75580 71050
L75550 70990
L75520 70880
L75520 70790
L75550 70680
L75580 70630
L75630 70570
L75720 70540
L75770 70540
L75860 70570
L75880 70600
" />
<path d="M76560 71100
L76640 71130
L76780 71130
L76840 71100
L76870 71080
L76900 71020
L76900 70960
L76870 70910
L76840 70880
L76780 70850
L76670 70820
L76610 70790
L76590 70770
L76560 70710
L76560 70650
L76590 70600
L76610 70570
L76670 70540
L76810 70540
L76900 70570
" />
<path d="M77400 70740
L77400 71130
" />
<path d="M77150 70740
L77150 71050
L77180 71100
L77230 71130
L77320 71130
L77370 71100
L77400 71080
" />
<path d="M77600 70740
L77820 70740
" />
<path d="M77680 70540
L77680 71050
L77710 71100
L77770 71130
L77820 71130
" />
<path d="M77940 70740
L78160 70740
" />
<path d="M78020 70540
L78020 71050
L78050 71100
L78100 71130
L78160 71130
" />
<path d="M78440 71130
L78380 71100
L78360 71080
L78330 71020
L78330 70850
L78360 70790
L78380 70770
L78440 70740
L78530 70740
L78580 70770
L78610 70790
L78640 70850
L78640 71020
L78610 71080
L78580 71100
L78530 71130
L78440 71130
" />
<path d="M78890 70740
L78890 71130
" />
<path d="M78890 70790
L78920 70770
L78970 70740
L79060 70740
L79120 70770
L79140 70820
L79140 71130
" />
</g>
<g style="fill:#840000; fill-opacity:0.0; 
stroke:#840000; stroke-width:100; stroke-opacity:1; 
stroke-linecap:round; stroke-linejoin:round;">
</g>
<g style="fill:#840000; fill-opacity:0.0; 
stroke:#840000; stroke-width:60; stroke-opacity:1; 
stroke-linecap:round; stroke-linejoin:round;">
<path d="M77560 75400
L77560 76580
" />
</g>
<g style="fill:#840000; fill-opacity:0.0; 
stroke:#840000; stroke-width:100; stroke-opacity:1; 
stroke-linecap:round; stroke-linejoin:round;">
</g>
<g style="fill:#840000; fill-opacity:0.0; 
stroke:#840000; stroke-width:60; stroke-opacity:1; 
stroke-linecap:round; stroke-linejoin:round;">
<path d="M102760 75400
L102760 77960
" />
</g>
<g style="fill:#840000; fill-opacity:0.0; 
stroke:#840000; stroke-width:0; stroke-opacity:1; 
stroke-linecap:round; stroke-linejoin:round;">
<g >
</g>
<g style="fill:#FFFFC2; fill-opacity:0.0; 
stroke:#FFFFC2; stroke-width:0; stroke-opacity:1; 
stroke-linecap:round; stroke-linejoin:round;">
</g>
<g style="fill:#FFFFC2; fill-opacity:0.6; 
stroke:#FFFFC2; stroke-width:0; stroke-opacity:1; 
stroke-linecap:round; stroke-linejoin:round;">
<rect x="59750" y="33500" width="5000" height="10000" rx="0" />
</g>
<g style="fill:#840000; fill-opacity:0.6; 
stroke:#840000; stroke-width:0; stroke-opacity:1; 
stroke-linecap:round; stroke-linejoin:round;">
</g>
<g style="fill:#840000; fill-opacity:0.0; 
stroke:#840000; stroke-width:60; stroke-opacity:1; 
stroke-linecap:round; stroke-linejoin:round;">
<rect x="59750" y="33500" width="5000" height="10000" rx="0" />
<circle cx="63050" cy="42500" r="200" /> 
<circle cx="63050" cy="42500" r="200" /> 
<circle cx="61450" cy="42500" r="200" /> 
<circle cx="61450" cy="42500" r="200" /> 
<text x="63000" y="35770"
textLength="660" font-size="660" lengthAdjust="spacingAndGlyphs"
text-anchor="middle" opacity="0">B</text>
<path d="M63030 35480
L63100 35500
L63130 35530
L63150 35570
L63150 35650
L63130 35690
L63100 35720
L63050 35740
L62860 35740
L62860 35240
L63030 35240
L63080 35270
L63100 35290
L63130 35340
L63130 35380
L63100 35430
L63080 35460
L63030 35480
L62860 35480
" />
<text x="63000" y="38270"
textLength="560" font-size="660" lengthAdjust="spacingAndGlyphs"
text-anchor="middle" opacity="0">G</text>
<path d="M63130 37770
L63080 37740
L63010 37740
L62940 37770
L62890 37810
L62860 37860
L62840 37960
L62840 38030
L62860 38120
L62890 38170
L62940 38220
L63010 38240
L63050 38240
L63130 38220
L63150 38190
L63150 38030
L63050 38030
" />
<text x="63000" y="40770"
textLength="560" font-size="660" lengthAdjust="spacingAndGlyphs"
text-anchor="middle" opacity="0">R</text>
<path d="M63150 40740
L62980 40500
" />
<path d="M62860 40740
L62860 40240
L63050 40240
L63100 40270
L63130 40290
L63150 40340
L63150 40410
L63130 40460
L63100 40480
L63050 40500
L62860 40500
" />
<rect x="59750" y="33500" width="5000" height="10000" rx="0" />
<line x1="63250" y1="42500" x2="63750" y2="42500" />
<line x1="60750" y1="42500" x2="61250" y2="42500" />
<line x1="60750" y1="42500" x2="60750" y2="42500" />
<line x1="61750" y1="39500" x2="61750" y2="40500" />
<line x1="61750" y1="39500" x2="61750" y2="39500" />
<line x1="61750" y1="37000" x2="61750" y2="38000" />
<line x1="61750" y1="37000" x2="61750" y2="37000" />
<path style="fill:#840000; fill-opacity:0.0; 
stroke:#840000; stroke-width:60; stroke-opacity:1; 
stroke-linecap:round; stroke-linejoin:round;fill:none"
d="M 62850,42400
61650,41800
" /> 
<path style="fill:#840000; fill-opacity:0.0; 
stroke:#840000; stroke-width:60; stroke-opacity:1; 
stroke-linecap:round; stroke-linejoin:round;fill:none"
d="M 62850,42400
61650,41800
" /> 
<path style="fill:#840000; fill-opacity:0.0; 
stroke:#840000; stroke-width:60; stroke-opacity:1; 
stroke-linecap:round; stroke-linejoin:round;fill:none"
d="M 62750,40000
63250,40000
" /> 
<path style="fill:#840000; fill-opacity:0.0; 
stroke:#840000; stroke-width:60; stroke-opacity:1; 
stroke-linecap:round; stroke-linejoin:round;fill:none"
d="M 62750,40000
61750,40000
" /> 
</g>
<g style="fill:#840000; fill-opacity:0.0; 
stroke:#840000; stroke-width:100; stroke-opacity:1; 
stroke-linecap:round; stroke-linejoin:round;">
<path style="fill:#840000; fill-opacity:0.0; 
stroke:#840000; stroke-width:100; stroke-opacity:1; 
stroke-linecap:round; stroke-linejoin:round;fill:none"
d="M 62750,39500
62750,40500
" /> 
</g>
<g style="fill:#840000; fill-opacity:0.0; 
stroke:#840000; stroke-width:60; stroke-opacity:1; 
stroke-linecap:round; stroke-linejoin:round;">
<path style="fill:#840000; fill-opacity:0.0; 
stroke:#840000; stroke-width:60; stroke-opacity:1; 
stroke-linecap:round; stroke-linejoin:round;fill:none"
d="M 62750,37500
63250,37500
" /> 
</g>
<g style="fill:#840000; fill-opacity:0.0; 
stroke:#840000; stroke-width:100; stroke-opacity:1; 
stroke-linecap:round; stroke-linejoin:round;">
<path style="fill:#840000; fill-opacity:0.0; 
stroke:#840000; stroke-width:100; stroke-opacity:1; 
stroke-linecap:round; stroke-linejoin:round;fill:none"
d="M 62750,37000
62750,38000
" /> 
</g>
<g style="fill:#840000; fill-opacity:0.0; 
stroke:#840000; stroke-width:60; stroke-opacity:1; 
stroke-linecap:round; stroke-linejoin:round;">
<path style="fill:#840000; fill-opacity:0.0; 
stroke:#840000; stroke-width:60; stroke-opacity:1; 
stroke-linecap:round; stroke-linejoin:round;fill:none"
d="M 62750,35000
63250,35000
" /> 
<path style="fill:#840000; fill-opacity:0.0; 
stroke:#840000; stroke-width:60; stroke-opacity:1; 
stroke-linecap:round; stroke-linejoin:round;fill:none"
d="M 62750,35000
61750,35000
" /> 
</g>
<g style="fill:#840000; fill-opacity:0.0; 
stroke:#840000; stroke-width:100; stroke-opacity:1; 
stroke-linecap:round; stroke-linejoin:round;">
<path style="fill:#840000; fill-opacity:0.0; 
stroke:#840000; stroke-width:100; stroke-opacity:1; 
stroke-linecap:round; stroke-linejoin:round;fill:none"
d="M 62750,34500
62750,35500
" /> 
</g>
<g style="fill:#840000; fill-opacity:0.0; 
stroke:#840000; stroke-width:60; stroke-opacity:1; 
stroke-linecap:round; stroke-linejoin:round;">
<path style="fill:#840000; fill-opacity:0.0; 
stroke:#840000; stroke-width:60; stroke-opacity:1; 
stroke-linecap:round; stroke-linejoin:round;fill:none"
d="M 61750,40000
61250,40000
" /> 
<path style="fill:#840000; fill-opacity:0.0; 
stroke:#840000; stroke-width:60; stroke-opacity:1; 
stroke-linecap:round; stroke-linejoin:round;fill:none"
d="M 61750,37500
62750,37500
" /> 
<path style="fill:#840000; fill-opacity:0.0; 
stroke:#840000; stroke-width:60; stroke-opacity:1; 
stroke-linecap:round; stroke-linejoin:round;fill:none"
d="M 61750,37500
61250,37500
" /> 
<path style="fill:#840000; fill-opacity:0.0; 
stroke:#840000; stroke-width:60; stroke-opacity:1; 
stroke-linecap:round; stroke-linejoin:round;fill:none"
d="M 61750,35000
61250,35000
" /> 
<path style="fill:#840000; fill-opacity:0.0; 
stroke:#840000; stroke-width:60; stroke-opacity:1; 
stroke-linecap:round; stroke-linejoin:round;fill:none"
d="M 62750,39500
62750,40500
62750,40500
" /> 
<path style="fill:#840000; fill-opacity:0.0; 
stroke:#840000; stroke-width:60; stroke-opacity:1; 
stroke-linecap:round; stroke-linejoin:round;fill:none"
d="M 62750,37000
62750,38000
62750,38000
" /> 
</g>
<g style="fill:#840000; fill-opacity:0.0; 
stroke:#840000; stroke-width:100; stroke-opacity:1; 
stroke-linecap:round; stroke-linejoin:round;">
<path style="fill:#840000; fill-opacity:0.0; 
stroke:#840000; stroke-width:100; stroke-opacity:1; 
stroke-linecap:round; stroke-linejoin:round;fill:none"
d="M 61750,39500
61750,40500
62750,40000
Z" /> 
<path style="fill:#840000; fill-opacity:0.0; 
stroke:#840000; stroke-width:100; stroke-opacity:1; 
stroke-linecap:round; stroke-linejoin:round;fill:none"
d="M 61750,37000
61750,38000
62750,37500
Z" /> 
<path style="fill:#840000; fill-opacity:0.0; 
stroke:#840000; stroke-width:100; stroke-opacity:1; 
stroke-linecap:round; stroke-linejoin:round;fill:none"
d="M 61750,34500
61750,35500
62750,35000
Z" /> 
</g>
<g style="fill:#840000; fill-opacity:0.0; 
stroke:#840000; stroke-width:60; stroke-opacity:1; 
stroke-linecap:round; stroke-linejoin:round;">
<path style="fill:#840000; fill-opacity:0.0; 
stroke:#840000; stroke-width:60; stroke-opacity:1; 
stroke-linecap:round; stroke-linejoin:round;fill:none"
d="M 62650,39500
62050,38900
62350,38900
62050,38900
62050,39200
" /> 
<path style="fill:#840000; fill-opacity:0.0; 
stroke:#840000; stroke-width:60; stroke-opacity:1; 
stroke-linecap:round; stroke-linejoin:round;fill:none"
d="M 62650,37000
62050,36400
62350,36400
62050,36400
62050,36700
" /> 
<path style="fill:#840000; fill-opacity:0.0; 
stroke:#840000; stroke-width:60; stroke-opacity:1; 
stroke-linecap:round; stroke-linejoin:round;fill:none"
d="M 62650,34500
62050,33900
62350,33900
62050,33900
62050,34200
" /> 
<path style="fill:#840000; fill-opacity:0.0; 
stroke:#840000; stroke-width:60; stroke-opacity:1; 
stroke-linecap:round; stroke-linejoin:round;fill:none"
d="M 62250,39500
61650,38900
61950,38900
61650,38900
61650,39200
" /> 
<path style="fill:#840000; fill-opacity:0.0; 
stroke:#840000; stroke-width:60; stroke-opacity:1; 
stroke-linecap:round; stroke-linejoin:round;fill:none"
d="M 62250,37000
61650,36400
61950,36400
61650,36400
61650,36700
" /> 
<path style="fill:#840000; fill-opacity:0.0; 
stroke:#840000; stroke-width:60; stroke-opacity:1; 
stroke-linecap:round; stroke-linejoin:round;fill:none"
d="M 62250,34500
61650,33900
61950,33900
61650,33900
61650,34200
" /> 
<path d="M64750 35000
L65750 35000
" />
</g>
<g style="fill:#008484; fill-opacity:0.0; 
stroke:#008484; stroke-width:60; stroke-opacity:1; 
stroke-linecap:round; stroke-linejoin:round;">
<text x="64350" y="35250"
textLength="1060" font-size="660" lengthAdjust="spacingAndGlyphs"
text-anchor="end" opacity="0">BK</text>
<path d="M63600 34960
L63670 34980
L63700 35010
L63720 35050
L63720 35130
L63700 35170
L63670 35200
L63620 35220
L63430 35220
L63430 34720
L63600 34720
L63650 34750
L63670 34770
L63700 34820
L63700 34860
L63670 34910
L63650 34940
L63600 34960
L63430 34960
" />
<path d="M63930 35220
L63930 34720
" />
<path d="M64220 35220
L64010 34940
" />
<path d="M64220 34720
L63930 35010
" />
</g>
<g style="fill:#840000; fill-opacity:0.0; 
stroke:#840000; stroke-width:60; stroke-opacity:1; 
stroke-linecap:round; stroke-linejoin:round;">
<text x="65250" y="34900"
textLength="540" font-size="660" lengthAdjust="spacingAndGlyphs"
text-anchor="middle" opacity="0">1</text>
<path d="M65390 34870
L65100 34870
" />
<path d="M65250 34870
L65250 34370
L65200 34440
L65150 34490
L65100 34510
" />
<path d="M64750 37500
L65750 37500
" />
</g>
<g style="fill:#008484; fill-opacity:0.0; 
stroke:#008484; stroke-width:60; stroke-opacity:1; 
stroke-linecap:round; stroke-linejoin:round;">
<text x="64350" y="37750"
textLength="1060" font-size="660" lengthAdjust="spacingAndGlyphs"
text-anchor="end" opacity="0">GK</text>
<path d="M63700 37250
L63650 37220
L63580 37220
L63510 37250
L63460 37290
L63430 37340
L63410 37440
L63410 37510
L63430 37600
L63460 37650
L63510 37700
L63580 37720
L63620 37720
L63700 37700
L63720 37670
L63720 37510
L63620 37510
" />
<path d="M63930 37720
L63930 37220
" />
<path d="M64220 37720
L64010 37440
" />
<path d="M64220 37220
L63930 37510
" />
</g>
<g style="fill:#840000; fill-opacity:0.0; 
stroke:#840000; stroke-width:60; stroke-opacity:1; 
stroke-linecap:round; stroke-linejoin:round;">
<text x="65250" y="37400"
textLength="540" font-size="660" lengthAdjust="spacingAndGlyphs"
text-anchor="middle" opacity="0">2</text>
<path d="M65100 36920
L65130 36900
L65170 36870
L65290 36870
L65340 36900
L65360 36920
L65390 36970
L65390 37010
L65360 37090
L65080 37370
L65390 37370
" />
<path d="M64750 40000
L65750 40000
" />
</g>
<g style="fill:#008484; fill-opacity:0.0; 
stroke:#008484; stroke-width:60; stroke-opacity:1; 
stroke-linecap:round; stroke-linejoin:round;">
<text x="64350" y="40250"
textLength="1060" font-size="660" lengthAdjust="spacingAndGlyphs"
text-anchor="end" opacity="0">RK</text>
<path d="M63720 40220
L63550 39980
" />
<path d="M63430 40220
L63430 39720
L63620 39720
L63670 39750
L63700 39770
L63720 39820
L63720 39890
L63700 39940
L63670 39960
L63620 39980
L63430 39980
" />
<path d="M63930 40220
L63930 39720
" />
<path d="M64220 40220
L64010 39940
" />
<path d="M64220 39720
L63930 40010
" />
</g>
<g style="fill:#840000; fill-opacity:0.0; 
stroke:#840000; stroke-width:60; stroke-opacity:1; 
stroke-linecap:round; stroke-linejoin:round;">
<text x="65250" y="39900"
textLength="540" font-size="660" lengthAdjust="spacingAndGlyphs"
text-anchor="middle" opacity="0">3</text>
<path d="M65080 39370
L65390 39370
L65220 39560
L65290 39560
L65340 39590
L65360 39610
L65390 39660
L65390 39780
L65360 39820
L65340 39850
L65290 39870
L65150 39870
L65100 39850
L65080 39820
" />
<path d="M59750 40000
L58750 40000
" />
</g>
<g style="fill:#008484; fill-opacity:0.0; 
stroke:#008484; stroke-width:60; stroke-opacity:1; 
stroke-linecap:round; stroke-linejoin:round;">
<text x="60150" y="40250"
textLength="990" font-size="660" lengthAdjust="spacingAndGlyphs"
text-anchor="start" opacity="0">RA</text>
<path d="M60580 40220
L60410 39980
" />
<path d="M60290 40220
L60290 39720
L60480 39720
L60530 39750
L60560 39770
L60580 39820
L60580 39890
L60560 39940
L60530 39960
L60480 39980
L60290 39980
" />
<path d="M60770 40080
L61010 40080
" />
<path d="M60720 40220
L60890 39720
L61060 40220
" />
</g>
<g style="fill:#840000; fill-opacity:0.0; 
stroke:#840000; stroke-width:60; stroke-opacity:1; 
stroke-linecap:round; stroke-linejoin:round;">
<text x="59250" y="39900"
textLength="540" font-size="660" lengthAdjust="spacingAndGlyphs"
text-anchor="middle" opacity="0">4</text>
<path d="M59340 39540
L59340 39870
" />
<path d="M59220 39350
L59100 39700
L59410 39700
" />
<path d="M59750 37500
L58750 37500
" />
</g>
<g style="fill:#008484; fill-opacity:0.0; 
stroke:#008484; stroke-width:60; stroke-opacity:1; 
stroke-linecap:round; stroke-linejoin:round;">
<text x="60150" y="37750"
textLength="990" font-size="660" lengthAdjust="spacingAndGlyphs"
text-anchor="start" opacity="0">GA</text>
<path d="M60560 37250
L60510 37220
L60440 37220
L60370 37250
L60320 37290
L60290 37340
L60270 37440
L60270 37510
L60290 37600
L60320 37650
L60370 37700
L60440 37720
L60480 37720
L60560 37700
L60580 37670
L60580 37510
L60480 37510
" />
<path d="M60770 37580
L61010 37580
" />
<path d="M60720 37720
L60890 37220
L61060 37720
" />
</g>
<g style="fill:#840000; fill-opacity:0.0; 
stroke:#840000; stroke-width:60; stroke-opacity:1; 
stroke-linecap:round; stroke-linejoin:round;">
<text x="59250" y="37400"
textLength="540" font-size="660" lengthAdjust="spacingAndGlyphs"
text-anchor="middle" opacity="0">5</text>
<path d="M59360 36870
L59130 36870
L59100 37110
L59130 37090
L59170 37060
L59290 37060
L59340 37090
L59360 37110
L59390 37160
L59390 37280
L59360 37320
L59340 37350
L59290 37370
L59170 37370
L59130 37350
L59100 37320
" />
<path d="M59750 35000
L58750 35000
" />
</g>
<g style="fill:#008484; fill-opacity:0.0; 
stroke:#008484; stroke-width:60; stroke-opacity:1; 
stroke-linecap:round; stroke-linejoin:round;">
<text x="60150" y="35250"
textLength="990" font-size="660" lengthAdjust="spacingAndGlyphs"
text-anchor="start" opacity="0">BA</text>
<path d="M60460 34960
L60530 34980
L60560 35010
L60580 35050
L60580 35130
L60560 35170
L60530 35200
L60480 35220
L60290 35220
L60290 34720
L60460 34720
L60510 34750
L60530 34770
L60560 34820
L60560 34860
L60530 34910
L60510 34940
L60460 34960
L60290 34960
" />
<path d="M60770 35080
L61010 35080
" />
<path d="M60720 35220
L60890 34720
L61060 35220
" />
</g>
<g style="fill:#840000; fill-opacity:0.0; 
stroke:#840000; stroke-width:60; stroke-opacity:1; 
stroke-linecap:round; stroke-linejoin:round;">
<text x="59250" y="34900"
textLength="540" font-size="660" lengthAdjust="spacingAndGlyphs"
text-anchor="middle" opacity="0">6</text>
<path d="M59340 34370
L59250 34370
L59200 34400
L59170 34420
L59130 34490
L59100 34590
L59100 34780
L59130 34820
L59150 34850
L59200 34870
L59290 34870
L59340 34850
L59360 34820
L59390 34780
L59390 34660
L59360 34610
L59340 34590
L59290 34560
L59200 34560
L59150 34590
L59130 34610
L59100 34660
" />
<path d="M59750 42500
L58750 42500
" />
</g>
<g style="fill:#008484; fill-opacity:0.0; 
stroke:#008484; stroke-width:60; stroke-opacity:1; 
stroke-linecap:round; stroke-linejoin:round;">
<text x="60150" y="42750"
textLength="490" font-size="660" lengthAdjust="spacingAndGlyphs"
text-anchor="start" opacity="0">A</text>
<path d="M60270 42580
L60510 42580
" />
<path d="M60220 42720
L60390 42220
L60560 42720
" />
</g>
<g style="fill:#840000; fill-opacity:0.0; 
stroke:#840000; stroke-width:60; stroke-opacity:1; 
stroke-linecap:round; stroke-linejoin:round;">
<text x="59250" y="42400"
textLength="540" font-size="660" lengthAdjust="spacingAndGlyphs"
text-anchor="middle" opacity="0">7</text>
<path d="M59080 41870
L59410 41870
L59200 42370
" />
<path d="M64750 42500
L65750 42500
" />
</g>
<g style="fill:#008484; fill-opacity:0.0; 
stroke:#008484; stroke-width:60; stroke-opacity:1; 
stroke-linecap:round; stroke-linejoin:round;">
<text x="64350" y="42750"
textLength="560" font-size="660" lengthAdjust="spacingAndGlyphs"
text-anchor="end" opacity="0">B</text>
<path d="M64100 42460
L64170 42480
L64200 42510
L64220 42550
L64220 42630
L64200 42670
L64170 42700
L64120 42720
L63930 42720
L63930 42220
L64100 42220
L64150 42250
L64170 42270
L64200 42320
L64200 42360
L64170 42410
L64150 42440
L64100 42460
L63930 42460
" />
</g>
<g style="fill:#840000; fill-opacity:0.0; 
stroke:#840000; stroke-width:60; stroke-opacity:1; 
stroke-linecap:round; stroke-linejoin:round;">
<text x="65250" y="42400"
textLength="540" font-size="660" lengthAdjust="spacingAndGlyphs"
text-anchor="middle" opacity="0">8</text>
<path d="M65200 42090
L65150 42060
L65130 42040
L65100 41990
L65100 41970
L65130 41920
L65150 41900
L65200 41870
L65290 41870
L65340 41900
L65360 41920
L65390 41970
L65390 41990
L65360 42040
L65340 42060
L65290 42090
L65200 42090
L65150 42110
L65130 42130
L65100 42180
L65100 42280
L65130 42320
L65150 42350
L65200 42370
L65290 42370
L65340 42350
L65360 42320
L65390 42280
L65390 42180
L65360 42130
L65340 42110
L65290 42090
" />
</g>
<g style="fill:#008484; fill-opacity:0.0; 
stroke:#008484; stroke-width:60; stroke-opacity:1; 
stroke-linecap:round; stroke-linejoin:round;">
<text x="62250" y="32120"
textLength="1540" font-size="660" lengthAdjust="spacingAndGlyphs"
text-anchor="middle" opacity="0">U31</text>
<path d="M61630 31590
L61630 32000
L61650 32040
L61670 32070
L61720 32090
L61820 32090
L61860 32070
L61890 32040
L61910 32000
L61910 31590
" />
<path d="M62100 31590
L62410 31590
L62250 31780
L62320 31780
L62360 31810
L62390 31830
L62410 31880
L62410 32000
L62390 32040
L62360 32070
L62320 32090
L62170 32090
L62130 32070
L62100 32040
" />
<path d="M62890 32090
L62600 32090
" />
<path d="M62750 32090
L62750 31590
L62700 31660
L62650 31710
L62600 31730
" />
<text x="62240" y="33030"
textLength="15630" font-size="660" lengthAdjust="spacingAndGlyphs"
text-anchor="middle" opacity="0">PCB-SPST_RGB-LED-Counter-Clockwise</text>
<path d="M54570 33000
L54570 32500
L54760 32500
L54810 32530
L54830 32550
L54850 32600
L54850 32670
L54830 32720
L54810 32740
L54760 32760
L54570 32760
" />
<path d="M55350 32950
L55330 32980
L55260 33000
L55210 33000
L55140 32980
L55090 32930
L55070 32880
L55040 32790
L55040 32720
L55070 32620
L55090 32570
L55140 32530
L55210 32500
L55260 32500
L55330 32530
L55350 32550
" />
<path d="M55740 32740
L55810 32760
L55830 32790
L55850 32830
L55850 32910
L55830 32950
L55810 32980
L55760 33000
L55570 33000
L55570 32500
L55740 32500
L55780 32530
L55810 32550
L55830 32600
L55830 32640
L55810 32690
L55780 32720
L55740 32740
L55570 32740
" />
<path d="M56070 32810
L56450 32810
" />
<path d="M56660 32980
L56740 33000
L56850 33000
L56900 32980
L56930 32950
L56950 32910
L56950 32860
L56930 32810
L56900 32790
L56850 32760
L56760 32740
L56710 32720
L56690 32690
L56660 32640
L56660 32600
L56690 32550
L56710 32530
L56760 32500
L56880 32500
L56950 32530
" />
<path d="M57160 33000
L57160 32500
L57350 32500
L57400 32530
L57430 32550
L57450 32600
L57450 32670
L57430 32720
L57400 32740
L57350 32760
L57160 32760
" />
<path d="M57640 32980
L57710 33000
L57830 33000
L57880 32980
L57900 32950
L57930 32910
L57930 32860
L57900 32810
L57880 32790
L57830 32760
L57740 32740
L57690 32720
L57660 32690
L57640 32640
L57640 32600
L57660 32550
L57690 32530
L57740 32500
L57850 32500
L57930 32530
" />
<path d="M58070 32500
L58350 32500
" />
<path d="M58210 33000
L58210 32500
" />
<path d="M58400 33050
L58780 33050
" />
<path d="M59190 33000
L59020 32760
" />
<path d="M58900 33000
L58900 32500
L59090 32500
L59140 32530
L59160 32550
L59190 32600
L59190 32670
L59160 32720
L59140 32740
L59090 32760
L58900 32760
" />
<path d="M59660 32530
L59620 32500
L59540 32500
L59470 32530
L59430 32570
L59400 32620
L59380 32720
L59380 32790
L59400 32880
L59430 32930
L59470 32980
L59540 33000
L59590 33000
L59660 32980
L59690 32950
L59690 32790
L59590 32790
" />
<path d="M60070 32740
L60140 32760
L60160 32790
L60190 32830
L60190 32910
L60160 32950
L60140 32980
L60090 33000
L59900 33000
L59900 32500
L60070 32500
L60120 32530
L60140 32550
L60160 32600
L60160 32640
L60140 32690
L60120 32720
L60070 32740
L59900 32740
" />
<path d="M60400 32810
L60780 32810
" />
<path d="M61260 33000
L61020 33000
L61020 32500
" />
<path d="M61430 32740
L61590 32740
" />
<path d="M61660 33000
L61430 33000
L61430 32500
L61660 32500
" />
<path d="M61880 33000
L61880 32500
L62000 32500
L62070 32530
L62120 32570
L62140 32620
L62160 32720
L62160 32790
L62140 32880
L62120 32930
L62070 32980
L62000 33000
L61880 33000
" />
<path d="M62380 32810
L62760 32810
" />
<path d="M63280 32950
L63260 32980
L63190 33000
L63140 33000
L63070 32980
L63020 32930
L63000 32880
L62970 32790
L62970 32720
L63000 32620
L63020 32570
L63070 32530
L63140 32500
L63190 32500
L63260 32530
L63280 32550
" />
<path d="M63570 33000
L63520 32980
L63500 32950
L63470 32910
L63470 32760
L63500 32720
L63520 32690
L63570 32670
L63640 32670
L63690 32690
L63710 32720
L63740 32760
L63740 32910
L63710 32950
L63690 32980
L63640 33000
L63570 33000
" />
<path d="M64160 32670
L64160 33000
" />
<path d="M63950 32670
L63950 32930
L63970 32980
L64020 33000
L64090 33000
L64140 32980
L64160 32950
" />
<path d="M64400 32670
L64400 33000
" />
<path d="M64400 32720
L64430 32690
L64470 32670
L64540 32670
L64590 32690
L64620 32740
L64620 33000
" />
<path d="M64780 32670
L64970 32670
" />
<path d="M64850 32500
L64850 32930
L64880 32980
L64930 33000
L64970 33000
" />
<path d="M65330 32980
L65280 33000
L65190 33000
L65140 32980
L65120 32930
L65120 32740
L65140 32690
L65190 32670
L65280 32670
L65330 32690
L65350 32740
L65350 32790
L65120 32830
" />
<path d="M65570 33000
L65570 32670
" />
<path d="M65570 32760
L65590 32720
L65620 32690
L65660 32670
L65710 32670
" />
<path d="M65880 32810
L66260 32810
" />
<path d="M66780 32950
L66760 32980
L66690 33000
L66640 33000
L66570 32980
L66520 32930
L66500 32880
L66470 32790
L66470 32720
L66500 32620
L66520 32570
L66570 32530
L66640 32500
L66690 32500
L66760 32530
L66780 32550
" />
<path d="M67070 33000
L67020 32980
L67000 32930
L67000 32500
" />
<path d="M67330 33000
L67280 32980
L67260 32950
L67240 32910
L67240 32760
L67260 32720
L67280 32690
L67330 32670
L67400 32670
L67450 32690
L67470 32720
L67500 32760
L67500 32910
L67470 32950
L67450 32980
L67400 33000
L67330 33000
" />
<path d="M67930 32980
L67880 33000
L67780 33000
L67740 32980
L67710 32950
L67690 32910
L67690 32760
L67710 32720
L67740 32690
L67780 32670
L67880 32670
L67930 32690
" />
<path d="M68140 33000
L68140 32500
" />
<path d="M68190 32810
L68330 33000
" />
<path d="M68330 32670
L68140 32860
" />
<path d="M68500 32670
L68590 33000
L68690 32760
L68780 33000
L68880 32670
" />
<path d="M69070 33000
L69070 32670
" />
<path d="M69070 32500
L69040 32530
L69070 32550
L69090 32530
L69070 32500
L69070 32550
" />
<path d="M69280 32980
L69330 33000
L69430 33000
L69470 32980
L69500 32930
L69500 32910
L69470 32860
L69430 32830
L69350 32830
L69310 32810
L69280 32760
L69280 32740
L69310 32690
L69350 32670
L69430 32670
L69470 32690
" />
<path d="M69900 32980
L69850 33000
L69760 33000
L69710 32980
L69690 32930
L69690 32740
L69710 32690
L69760 32670
L69850 32670
L69900 32690
L69930 32740
L69930 32790
L69690 32830
" />
</g>
</g>
<g style="fill:#008484; fill-opacity:0.0; 
stroke:#008484; stroke-width:60; stroke-opacity:1; 
stroke-linecap:round; stroke-linejoin:round;">
</g>
<g style="fill:#008400; fill-opacity:0.0; 
stroke:#008400; stroke-width:60; stroke-opacity:1; 
stroke-linecap:round; stroke-linejoin:round;">
<path d="M65750 40000
L73000 40000
" />
<path d="M58750 40000
L49500 40000
" />
<path d="M49500 42500
L58750 42500
" />
<path d="M65750 37500
L73000 37500
" />
<path d="M65750 35000
L73000 35000
" />
<path d="M58750 37500
L49500 37500
" />
<path d="M58750 35000
L49500 35000
" />
<path d="M65750 42500
L73000 42500
" />
</g>
<g style="fill:#848400; fill-opacity:0.0; 
stroke:#848400; stroke-width:60; stroke-opacity:1; 
stroke-linecap:round; stroke-linejoin:round;">
<text x="73600" y="40250"
textLength="2800" font-size="660" lengthAdjust="spacingAndGlyphs"
text-anchor="start" opacity="0">LED_RK</text>
<path d="M73980 40220
L73740 40220
L73740 39720
" />
<path d="M74150 39960
L74320 39960
" />
<path d="M74390 40220
L74150 40220
L74150 39720
L74390 39720
" />
<path d="M74600 40220
L74600 39720
L74720 39720
L74790 39750
L74840 39790
L74860 39840
L74890 39940
L74890 40010
L74860 40100
L74840 40150
L74790 40200
L74720 40220
L74600 40220
" />
<path d="M74980 40270
L75360 40270
" />
<path d="M75770 40220
L75600 39980
" />
<path d="M75480 40220
L75480 39720
L75670 39720
L75720 39750
L75740 39770
L75770 39820
L75770 39890
L75740 39940
L75720 39960
L75670 39980
L75480 39980
" />
<path d="M75980 40220
L75980 39720
" />
<path d="M76270 40220
L76050 39940
" />
<path d="M76270 39720
L75980 40010
" />
</g>
<g style="fill:#848400; fill-opacity:0.0; 
stroke:#848400; stroke-width:100; stroke-opacity:1; 
stroke-linecap:round; stroke-linejoin:round;">
<path style="fill:#848400; fill-opacity:0.0; 
stroke:#848400; stroke-width:100; stroke-opacity:1; 
stroke-linecap:round; stroke-linejoin:round;fill:none"
d="M 73500,40000
73250,39750
73000,39750
73000,40250
73250,40250
Z" /> 
</g>
<g style="fill:#848400; fill-opacity:0.0; 
stroke:#848400; stroke-width:60; stroke-opacity:1; 
stroke-linecap:round; stroke-linejoin:round;">
<text x="48900" y="40250"
textLength="2730" font-size="660" lengthAdjust="spacingAndGlyphs"
text-anchor="end" opacity="0">LED_RA</text>
<path d="M46560 40220
L46320 40220
L46320 39720
" />
<path d="M46720 39960
L46890 39960
" />
<path d="M46960 40220
L46720 40220
L46720 39720
L46960 39720
" />
<path d="M47170 40220
L47170 39720
L47290 39720
L47370 39750
L47410 39790
L47440 39840
L47460 39940
L47460 40010
L47440 40100
L47410 40150
L47370 40200
L47290 40220
L47170 40220
" />
<path d="M47560 40270
L47940 40270
" />
<path d="M48340 40220
L48170 39980
" />
<path d="M48060 40220
L48060 39720
L48250 39720
L48290 39750
L48320 39770
L48340 39820
L48340 39890
L48320 39940
L48290 39960
L48250 39980
L48060 39980
" />
<path d="M48530 40080
L48770 40080
" />
<path d="M48480 40220
L48650 39720
L48820 40220
" />
</g>
<g style="fill:#848400; fill-opacity:0.0; 
stroke:#848400; stroke-width:100; stroke-opacity:1; 
stroke-linecap:round; stroke-linejoin:round;">
<path style="fill:#848400; fill-opacity:0.0; 
stroke:#848400; stroke-width:100; stroke-opacity:1; 
stroke-linecap:round; stroke-linejoin:round;fill:none"
d="M 49500,40000
49250,39750
49000,39750
49000,40250
49250,40250
Z" /> 
</g>
<g style="fill:#848400; fill-opacity:0.0; 
stroke:#848400; stroke-width:60; stroke-opacity:1; 
stroke-linecap:round; stroke-linejoin:round;">
<text x="73600" y="37750"
textLength="2800" font-size="660" lengthAdjust="spacingAndGlyphs"
text-anchor="start" opacity="0">LED_GK</text>
<path d="M73980 37720
L73740 37720
L73740 37220
" />
<path d="M74150 37460
L74320 37460
" />
<path d="M74390 37720
L74150 37720
L74150 37220
L74390 37220
" />
<path d="M74600 37720
L74600 37220
L74720 37220
L74790 37250
L74840 37290
L74860 37340
L74890 37440
L74890 37510
L74860 37600
L74840 37650
L74790 37700
L74720 37720
L74600 37720
" />
<path d="M74980 37770
L75360 37770
" />
<path d="M75740 37250
L75700 37220
L75630 37220
L75550 37250
L75510 37290
L75480 37340
L75460 37440
L75460 37510
L75480 37600
L75510 37650
L75550 37700
L75630 37720
L75670 37720
L75740 37700
L75770 37670
L75770 37510
L75670 37510
" />
<path d="M75980 37720
L75980 37220
" />
<path d="M76270 37720
L76050 37440
" />
<path d="M76270 37220
L75980 37510
" />
</g>
<g style="fill:#848400; fill-opacity:0.0; 
stroke:#848400; stroke-width:100; stroke-opacity:1; 
stroke-linecap:round; stroke-linejoin:round;">
<path style="fill:#848400; fill-opacity:0.0; 
stroke:#848400; stroke-width:100; stroke-opacity:1; 
stroke-linecap:round; stroke-linejoin:round;fill:none"
d="M 73500,37500
73250,37250
73000,37250
73000,37750
73250,37750
Z" /> 
</g>
<g style="fill:#848400; fill-opacity:0.0; 
stroke:#848400; stroke-width:60; stroke-opacity:1; 
stroke-linecap:round; stroke-linejoin:round;">
<text x="73600" y="35250"
textLength="2800" font-size="660" lengthAdjust="spacingAndGlyphs"
text-anchor="start" opacity="0">LED_BK</text>
<path d="M73980 35220
L73740 35220
L73740 34720
" />
<path d="M74150 34960
L74320 34960
" />
<path d="M74390 35220
L74150 35220
L74150 34720
L74390 34720
" />
<path d="M74600 35220
L74600 34720
L74720 34720
L74790 34750
L74840 34790
L74860 34840
L74890 34940
L74890 35010
L74860 35100
L74840 35150
L74790 35200
L74720 35220
L74600 35220
" />
<path d="M74980 35270
L75360 35270
" />
<path d="M75650 34960
L75720 34980
L75740 35010
L75770 35050
L75770 35130
L75740 35170
L75720 35200
L75670 35220
L75480 35220
L75480 34720
L75650 34720
L75700 34750
L75720 34770
L75740 34820
L75740 34860
L75720 34910
L75700 34940
L75650 34960
L75480 34960
" />
<path d="M75980 35220
L75980 34720
" />
<path d="M76270 35220
L76050 34940
" />
<path d="M76270 34720
L75980 35010
" />
</g>
<g style="fill:#848400; fill-opacity:0.0; 
stroke:#848400; stroke-width:100; stroke-opacity:1; 
stroke-linecap:round; stroke-linejoin:round;">
<path style="fill:#848400; fill-opacity:0.0; 
stroke:#848400; stroke-width:100; stroke-opacity:1; 
stroke-linecap:round; stroke-linejoin:round;fill:none"
d="M 73500,35000
73250,34750
73000,34750
73000,35250
73250,35250
Z" /> 
</g>
<g style="fill:#848400; fill-opacity:0.0; 
stroke:#848400; stroke-width:60; stroke-opacity:1; 
stroke-linecap:round; stroke-linejoin:round;">
<text x="48900" y="37750"
textLength="2730" font-size="660" lengthAdjust="spacingAndGlyphs"
text-anchor="end" opacity="0">LED_GA</text>
<path d="M46560 37720
L46320 37720
L46320 37220
" />
<path d="M46720 37460
L46890 37460
" />
<path d="M46960 37720
L46720 37720
L46720 37220
L46960 37220
" />
<path d="M47170 37720
L47170 37220
L47290 37220
L47370 37250
L47410 37290
L47440 37340
L47460 37440
L47460 37510
L47440 37600
L47410 37650
L47370 37700
L47290 37720
L47170 37720
" />
<path d="M47560 37770
L47940 37770
" />
<path d="M48320 37250
L48270 37220
L48200 37220
L48130 37250
L48080 37290
L48060 37340
L48030 37440
L48030 37510
L48060 37600
L48080 37650
L48130 37700
L48200 37720
L48250 37720
L48320 37700
L48340 37670
L48340 37510
L48250 37510
" />
<path d="M48530 37580
L48770 37580
" />
<path d="M48480 37720
L48650 37220
L48820 37720
" />
</g>
<g style="fill:#848400; fill-opacity:0.0; 
stroke:#848400; stroke-width:100; stroke-opacity:1; 
stroke-linecap:round; stroke-linejoin:round;">
<path style="fill:#848400; fill-opacity:0.0; 
stroke:#848400; stroke-width:100; stroke-opacity:1; 
stroke-linecap:round; stroke-linejoin:round;fill:none"
d="M 49500,37500
49250,37250
49000,37250
49000,37750
49250,37750
Z" /> 
</g>
<g style="fill:#848400; fill-opacity:0.0; 
stroke:#848400; stroke-width:60; stroke-opacity:1; 
stroke-linecap:round; stroke-linejoin:round;">
<text x="48900" y="35250"
textLength="2730" font-size="660" lengthAdjust="spacingAndGlyphs"
text-anchor="end" opacity="0">LED_BA</text>
<path d="M46560 35220
L46320 35220
L46320 34720
" />
<path d="M46720 34960
L46890 34960
" />
<path d="M46960 35220
L46720 35220
L46720 34720
L46960 34720
" />
<path d="M47170 35220
L47170 34720
L47290 34720
L47370 34750
L47410 34790
L47440 34840
L47460 34940
L47460 35010
L47440 35100
L47410 35150
L47370 35200
L47290 35220
L47170 35220
" />
<path d="M47560 35270
L47940 35270
" />
<path d="M48220 34960
L48290 34980
L48320 35010
L48340 35050
L48340 35130
L48320 35170
L48290 35200
L48250 35220
L48060 35220
L48060 34720
L48220 34720
L48270 34750
L48290 34770
L48320 34820
L48320 34860
L48290 34910
L48270 34940
L48220 34960
L48060 34960
" />
<path d="M48530 35080
L48770 35080
" />
<path d="M48480 35220
L48650 34720
L48820 35220
" />
</g>
<g style="fill:#848400; fill-opacity:0.0; 
stroke:#848400; stroke-width:100; stroke-opacity:1; 
stroke-linecap:round; stroke-linejoin:round;">
<path style="fill:#848400; fill-opacity:0.0; 
stroke:#848400; stroke-width:100; stroke-opacity:1; 
stroke-linecap:round; stroke-linejoin:round;fill:none"
d="M 49500,35000
49250,34750
49000,34750
49000,35250
49250,35250
Z" /> 
</g>
<g style="fill:#848400; fill-opacity:0.0; 
stroke:#848400; stroke-width:60; stroke-opacity:1; 
stroke-linecap:round; stroke-linejoin:round;">
<text x="73600" y="42750"
textLength="1990" font-size="660" lengthAdjust="spacingAndGlyphs"
text-anchor="start" opacity="0">SW_B</text>
<path d="M73720 42700
L73790 42720
L73910 42720
L73960 42700
L73980 42670
L74010 42630
L74010 42580
L73980 42530
L73960 42510
L73910 42480
L73820 42460
L73770 42440
L73740 42410
L73720 42360
L73720 42320
L73740 42270
L73770 42250
L73820 42220
L73930 42220
L74010 42250
" />
<path d="M74170 42220
L74290 42720
L74390 42360
L74480 42720
L74600 42220
" />
<path d="M74670 42770
L75050 42770
" />
<path d="M75340 42460
L75410 42480
L75430 42510
L75460 42550
L75460 42630
L75430 42670
L75410 42700
L75360 42720
L75170 42720
L75170 42220
L75340 42220
L75390 42250
L75410 42270
L75430 42320
L75430 42360
L75410 42410
L75390 42440
L75340 42460
L75170 42460
" />
</g>
<g style="fill:#848400; fill-opacity:0.0; 
stroke:#848400; stroke-width:100; stroke-opacity:1; 
stroke-linecap:round; stroke-linejoin:round;">
<path style="fill:#848400; fill-opacity:0.0; 
stroke:#848400; stroke-width:100; stroke-opacity:1; 
stroke-linecap:round; stroke-linejoin:round;fill:none"
d="M 73500,42500
73250,42250
73000,42250
73000,42750
73250,42750
Z" /> 
</g>
<g style="fill:#848400; fill-opacity:0.0; 
stroke:#848400; stroke-width:60; stroke-opacity:1; 
stroke-linecap:round; stroke-linejoin:round;">
<text x="48900" y="42750"
textLength="1920" font-size="660" lengthAdjust="spacingAndGlyphs"
text-anchor="end" opacity="0">SW_A</text>
<path d="M47100 42700
L47170 42720
L47290 42720
L47340 42700
L47370 42670
L47390 42630
L47390 42580
L47370 42530
L47340 42510
L47290 42480
L47200 42460
L47150 42440
L47130 42410
L47100 42360
L47100 42320
L47130 42270
L47150 42250
L47200 42220
L47320 42220
L47390 42250
" />
<path d="M47560 42220
L47670 42720
L47770 42360
L47870 42720
L47980 42220
" />
<path d="M48060 42770
L48440 42770
" />
<path d="M48530 42580
L48770 42580
" />
<path d="M48480 42720
L48650 42220
L48820 42720
" />
</g>
<g style="fill:#848400; fill-opacity:0.0; 
stroke:#848400; stroke-width:100; stroke-opacity:1; 
stroke-linecap:round; stroke-linejoin:round;">
<path style="fill:#848400; fill-opacity:0.0; 
stroke:#848400; stroke-width:100; stroke-opacity:1; 
stroke-linecap:round; stroke-linejoin:round;fill:none"
d="M 49500,42500
49250,42250
49000,42250
49000,42750
49250,42750
Z" /> 
</g> 
</svg>
