<?xml version="1.0" standalone="no"?>
 <!DOCTYPE svg PUBLIC "-//W3C//DTD SVG 1.1//EN" 
 "http://www.w3.org/Graphics/SVG/1.1/DTD/svg11.dtd"> 
<svg
  xmlns:svg="http://www.w3.org/2000/svg"
  xmlns="http://www.w3.org/2000/svg"
  xmlns:xlink="http://www.w3.org/1999/xlink"
  version="1.1"
  width="29.700220cm" height="21.000720cm" viewBox="0 0 116930 82680">
<title>SVG Picture created as MIDI-MIDI Interface.svg date 2021/06/10 01:03:57 </title>
  <desc>Picture generated by Eeschema-SVG </desc>
<g style="fill:#000000; fill-opacity:1;stroke:#000000; stroke-opacity:1;
stroke-linecap:round; stroke-linejoin:round;"
 transform="translate(0 0) scale(1 1)">
</g>
<g style="fill:#000000; fill-opacity:0.0; 
stroke:#000000; stroke-width:-10; stroke-opacity:1; 
stroke-linecap:round; stroke-linejoin:round;">
</g>
<g style="fill:#840000; fill-opacity:0.0; 
stroke:#840000; stroke-width:-10; stroke-opacity:1; 
stroke-linecap:round; stroke-linejoin:round;">
</g>
<g style="fill:#840000; fill-opacity:0.0; 
stroke:#840000; stroke-width:100; stroke-opacity:1; 
stroke-linecap:round; stroke-linejoin:round;">
</g>
<g style="fill:#840000; fill-opacity:0.0; 
stroke:#840000; stroke-width:60; stroke-opacity:1; 
stroke-linecap:round; stroke-linejoin:round;">
<rect x="69690" y="65360" width="42520" height="12600" rx="0" />
</g>
<g style="fill:#840000; fill-opacity:0.0; 
stroke:#840000; stroke-width:100; stroke-opacity:1; 
stroke-linecap:round; stroke-linejoin:round;">
</g>
<g style="fill:#840000; fill-opacity:0.0; 
stroke:#840000; stroke-width:60; stroke-opacity:1; 
stroke-linecap:round; stroke-linejoin:round;">
<rect x="3940" y="3940" width="109050" height="74800" rx="0" />
</g>
<g style="fill:#840000; fill-opacity:0.0; 
stroke:#840000; stroke-width:100; stroke-opacity:1; 
stroke-linecap:round; stroke-linejoin:round;">
</g>
<g style="fill:#840000; fill-opacity:0.0; 
stroke:#840000; stroke-width:60; stroke-opacity:1; 
stroke-linecap:round; stroke-linejoin:round;">
<rect x="4720" y="4720" width="107490" height="73240" rx="0" />
</g>
<g style="fill:#840000; fill-opacity:0.0; 
stroke:#840000; stroke-width:100; stroke-opacity:1; 
stroke-linecap:round; stroke-linejoin:round;">
</g>
<g style="fill:#840000; fill-opacity:0.0; 
stroke:#840000; stroke-width:60; stroke-opacity:1; 
stroke-linecap:round; stroke-linejoin:round;">
<path d="M23620 4720
L23620 3940
" />
</g>
<g style="fill:#840000; fill-opacity:0.0; 
stroke:#840000; stroke-width:100; stroke-opacity:1; 
stroke-linecap:round; stroke-linejoin:round;">
</g>
<g style="fill:#840000; fill-opacity:0.0; 
stroke:#840000; stroke-width:60; stroke-opacity:1; 
stroke-linecap:round; stroke-linejoin:round;">
<path d="M43310 4720
L43310 3940
" />
</g>
<g style="fill:#840000; fill-opacity:0.0; 
stroke:#840000; stroke-width:100; stroke-opacity:1; 
stroke-linecap:round; stroke-linejoin:round;">
</g>
<g style="fill:#840000; fill-opacity:0.0; 
stroke:#840000; stroke-width:60; stroke-opacity:1; 
stroke-linecap:round; stroke-linejoin:round;">
<path d="M62990 4720
L62990 3940
" />
</g>
<g style="fill:#840000; fill-opacity:0.0; 
stroke:#840000; stroke-width:100; stroke-opacity:1; 
stroke-linecap:round; stroke-linejoin:round;">
</g>
<g style="fill:#840000; fill-opacity:0.0; 
stroke:#840000; stroke-width:60; stroke-opacity:1; 
stroke-linecap:round; stroke-linejoin:round;">
<path d="M82680 4720
L82680 3940
" />
</g>
<g style="fill:#840000; fill-opacity:0.0; 
stroke:#840000; stroke-width:100; stroke-opacity:1; 
stroke-linecap:round; stroke-linejoin:round;">
</g>
<g style="fill:#840000; fill-opacity:0.0; 
stroke:#840000; stroke-width:60; stroke-opacity:1; 
stroke-linecap:round; stroke-linejoin:round;">
<path d="M102360 4720
L102360 3940
" />
</g>
<g style="fill:#840000; fill-opacity:0.0; 
stroke:#840000; stroke-width:100; stroke-opacity:1; 
stroke-linecap:round; stroke-linejoin:round;">
</g>
<g style="fill:#840000; fill-opacity:0.0; 
stroke:#840000; stroke-width:60; stroke-opacity:1; 
stroke-linecap:round; stroke-linejoin:round;">
<text x="13780" y="4580"
textLength="550" font-size="680" lengthAdjust="spacingAndGlyphs"
text-anchor="start" opacity="0">1</text>
<path d="M14190 4560
L13900 4560
" />
<path d="M14050 4560
L14050 4050
L14000 4120
L13950 4170
L13900 4190
" />
</g>
<g style="fill:#840000; fill-opacity:0.0; 
stroke:#840000; stroke-width:100; stroke-opacity:1; 
stroke-linecap:round; stroke-linejoin:round;">
</g>
<g style="fill:#840000; fill-opacity:0.0; 
stroke:#840000; stroke-width:60; stroke-opacity:1; 
stroke-linecap:round; stroke-linejoin:round;">
<text x="33460" y="4580"
textLength="550" font-size="680" lengthAdjust="spacingAndGlyphs"
text-anchor="start" opacity="0">2</text>
<path d="M33580 4090
L33610 4070
L33660 4050
L33780 4050
L33830 4070
L33850 4090
L33870 4140
L33870 4190
L33850 4260
L33560 4560
L33870 4560
" />
</g>
<g style="fill:#840000; fill-opacity:0.0; 
stroke:#840000; stroke-width:100; stroke-opacity:1; 
stroke-linecap:round; stroke-linejoin:round;">
</g>
<g style="fill:#840000; fill-opacity:0.0; 
stroke:#840000; stroke-width:60; stroke-opacity:1; 
stroke-linecap:round; stroke-linejoin:round;">
<text x="53150" y="4580"
textLength="550" font-size="680" lengthAdjust="spacingAndGlyphs"
text-anchor="start" opacity="0">3</text>
<path d="M53250 4050
L53560 4050
L53390 4240
L53470 4240
L53520 4260
L53540 4290
L53560 4340
L53560 4460
L53540 4510
L53520 4530
L53470 4560
L53320 4560
L53270 4530
L53250 4510
" />
</g>
<g style="fill:#840000; fill-opacity:0.0; 
stroke:#840000; stroke-width:100; stroke-opacity:1; 
stroke-linecap:round; stroke-linejoin:round;">
</g>
<g style="fill:#840000; fill-opacity:0.0; 
stroke:#840000; stroke-width:60; stroke-opacity:1; 
stroke-linecap:round; stroke-linejoin:round;">
<text x="72830" y="4580"
textLength="550" font-size="680" lengthAdjust="spacingAndGlyphs"
text-anchor="start" opacity="0">4</text>
<path d="M73200 4220
L73200 4560
" />
<path d="M73070 4020
L72950 4390
L73270 4390
" />
</g>
<g style="fill:#840000; fill-opacity:0.0; 
stroke:#840000; stroke-width:100; stroke-opacity:1; 
stroke-linecap:round; stroke-linejoin:round;">
</g>
<g style="fill:#840000; fill-opacity:0.0; 
stroke:#840000; stroke-width:60; stroke-opacity:1; 
stroke-linecap:round; stroke-linejoin:round;">
<text x="92520" y="4580"
textLength="550" font-size="680" lengthAdjust="spacingAndGlyphs"
text-anchor="start" opacity="0">5</text>
<path d="M92910 4050
L92670 4050
L92640 4290
L92670 4260
L92720 4240
L92840 4240
L92890 4260
L92910 4290
L92930 4340
L92930 4460
L92910 4510
L92890 4530
L92840 4560
L92720 4560
L92670 4530
L92640 4510
" />
</g>
<g style="fill:#840000; fill-opacity:0.0; 
stroke:#840000; stroke-width:100; stroke-opacity:1; 
stroke-linecap:round; stroke-linejoin:round;">
</g>
<g style="fill:#840000; fill-opacity:0.0; 
stroke:#840000; stroke-width:60; stroke-opacity:1; 
stroke-linecap:round; stroke-linejoin:round;">
<text x="112200" y="4580"
textLength="550" font-size="680" lengthAdjust="spacingAndGlyphs"
text-anchor="start" opacity="0">6</text>
<path d="M112570 4050
L112470 4050
L112420 4070
L112400 4090
L112350 4170
L112320 4260
L112320 4460
L112350 4510
L112370 4530
L112420 4560
L112520 4560
L112570 4530
L112590 4510
L112610 4460
L112610 4340
L112590 4290
L112570 4260
L112520 4240
L112420 4240
L112370 4260
L112350 4290
L112320 4340
" />
</g>
<g style="fill:#840000; fill-opacity:0.0; 
stroke:#840000; stroke-width:100; stroke-opacity:1; 
stroke-linecap:round; stroke-linejoin:round;">
</g>
<g style="fill:#840000; fill-opacity:0.0; 
stroke:#840000; stroke-width:60; stroke-opacity:1; 
stroke-linecap:round; stroke-linejoin:round;">
<path d="M23620 77960
L23620 78740
" />
</g>
<g style="fill:#840000; fill-opacity:0.0; 
stroke:#840000; stroke-width:100; stroke-opacity:1; 
stroke-linecap:round; stroke-linejoin:round;">
</g>
<g style="fill:#840000; fill-opacity:0.0; 
stroke:#840000; stroke-width:60; stroke-opacity:1; 
stroke-linecap:round; stroke-linejoin:round;">
<path d="M43310 77960
L43310 78740
" />
</g>
<g style="fill:#840000; fill-opacity:0.0; 
stroke:#840000; stroke-width:100; stroke-opacity:1; 
stroke-linecap:round; stroke-linejoin:round;">
</g>
<g style="fill:#840000; fill-opacity:0.0; 
stroke:#840000; stroke-width:60; stroke-opacity:1; 
stroke-linecap:round; stroke-linejoin:round;">
<path d="M62990 77960
L62990 78740
" />
</g>
<g style="fill:#840000; fill-opacity:0.0; 
stroke:#840000; stroke-width:100; stroke-opacity:1; 
stroke-linecap:round; stroke-linejoin:round;">
</g>
<g style="fill:#840000; fill-opacity:0.0; 
stroke:#840000; stroke-width:60; stroke-opacity:1; 
stroke-linecap:round; stroke-linejoin:round;">
<path d="M82680 77960
L82680 78740
" />
</g>
<g style="fill:#840000; fill-opacity:0.0; 
stroke:#840000; stroke-width:100; stroke-opacity:1; 
stroke-linecap:round; stroke-linejoin:round;">
</g>
<g style="fill:#840000; fill-opacity:0.0; 
stroke:#840000; stroke-width:60; stroke-opacity:1; 
stroke-linecap:round; stroke-linejoin:round;">
<path d="M102360 77960
L102360 78740
" />
</g>
<g style="fill:#840000; fill-opacity:0.0; 
stroke:#840000; stroke-width:100; stroke-opacity:1; 
stroke-linecap:round; stroke-linejoin:round;">
</g>
<g style="fill:#840000; fill-opacity:0.0; 
stroke:#840000; stroke-width:60; stroke-opacity:1; 
stroke-linecap:round; stroke-linejoin:round;">
<text x="13780" y="78600"
textLength="550" font-size="680" lengthAdjust="spacingAndGlyphs"
text-anchor="start" opacity="0">1</text>
<path d="M14190 78580
L13900 78580
" />
<path d="M14050 78580
L14050 78070
L14000 78140
L13950 78190
L13900 78210
" />
</g>
<g style="fill:#840000; fill-opacity:0.0; 
stroke:#840000; stroke-width:100; stroke-opacity:1; 
stroke-linecap:round; stroke-linejoin:round;">
</g>
<g style="fill:#840000; fill-opacity:0.0; 
stroke:#840000; stroke-width:60; stroke-opacity:1; 
stroke-linecap:round; stroke-linejoin:round;">
<text x="33460" y="78600"
textLength="550" font-size="680" lengthAdjust="spacingAndGlyphs"
text-anchor="start" opacity="0">2</text>
<path d="M33580 78110
L33610 78090
L33660 78070
L33780 78070
L33830 78090
L33850 78110
L33870 78160
L33870 78210
L33850 78280
L33560 78580
L33870 78580
" />
</g>
<g style="fill:#840000; fill-opacity:0.0; 
stroke:#840000; stroke-width:100; stroke-opacity:1; 
stroke-linecap:round; stroke-linejoin:round;">
</g>
<g style="fill:#840000; fill-opacity:0.0; 
stroke:#840000; stroke-width:60; stroke-opacity:1; 
stroke-linecap:round; stroke-linejoin:round;">
<text x="53150" y="78600"
textLength="550" font-size="680" lengthAdjust="spacingAndGlyphs"
text-anchor="start" opacity="0">3</text>
<path d="M53250 78070
L53560 78070
L53390 78260
L53470 78260
L53520 78280
L53540 78310
L53560 78360
L53560 78480
L53540 78530
L53520 78550
L53470 78580
L53320 78580
L53270 78550
L53250 78530
" />
</g>
<g style="fill:#840000; fill-opacity:0.0; 
stroke:#840000; stroke-width:100; stroke-opacity:1; 
stroke-linecap:round; stroke-linejoin:round;">
</g>
<g style="fill:#840000; fill-opacity:0.0; 
stroke:#840000; stroke-width:60; stroke-opacity:1; 
stroke-linecap:round; stroke-linejoin:round;">
<text x="72830" y="78600"
textLength="550" font-size="680" lengthAdjust="spacingAndGlyphs"
text-anchor="start" opacity="0">4</text>
<path d="M73200 78240
L73200 78580
" />
<path d="M73070 78040
L72950 78410
L73270 78410
" />
</g>
<g style="fill:#840000; fill-opacity:0.0; 
stroke:#840000; stroke-width:100; stroke-opacity:1; 
stroke-linecap:round; stroke-linejoin:round;">
</g>
<g style="fill:#840000; fill-opacity:0.0; 
stroke:#840000; stroke-width:60; stroke-opacity:1; 
stroke-linecap:round; stroke-linejoin:round;">
<text x="92520" y="78600"
textLength="550" font-size="680" lengthAdjust="spacingAndGlyphs"
text-anchor="start" opacity="0">5</text>
<path d="M92910 78070
L92670 78070
L92640 78310
L92670 78280
L92720 78260
L92840 78260
L92890 78280
L92910 78310
L92930 78360
L92930 78480
L92910 78530
L92890 78550
L92840 78580
L92720 78580
L92670 78550
L92640 78530
" />
</g>
<g style="fill:#840000; fill-opacity:0.0; 
stroke:#840000; stroke-width:100; stroke-opacity:1; 
stroke-linecap:round; stroke-linejoin:round;">
</g>
<g style="fill:#840000; fill-opacity:0.0; 
stroke:#840000; stroke-width:60; stroke-opacity:1; 
stroke-linecap:round; stroke-linejoin:round;">
<text x="112200" y="78600"
textLength="550" font-size="680" lengthAdjust="spacingAndGlyphs"
text-anchor="start" opacity="0">6</text>
<path d="M112570 78070
L112470 78070
L112420 78090
L112400 78110
L112350 78190
L112320 78280
L112320 78480
L112350 78530
L112370 78550
L112420 78580
L112520 78580
L112570 78550
L112590 78530
L112610 78480
L112610 78360
L112590 78310
L112570 78280
L112520 78260
L112420 78260
L112370 78280
L112350 78310
L112320 78360
" />
</g>
<g style="fill:#840000; fill-opacity:0.0; 
stroke:#840000; stroke-width:100; stroke-opacity:1; 
stroke-linecap:round; stroke-linejoin:round;">
</g>
<g style="fill:#840000; fill-opacity:0.0; 
stroke:#840000; stroke-width:60; stroke-opacity:1; 
stroke-linecap:round; stroke-linejoin:round;">
<path d="M3940 23620
L4720 23620
" />
</g>
<g style="fill:#840000; fill-opacity:0.0; 
stroke:#840000; stroke-width:100; stroke-opacity:1; 
stroke-linecap:round; stroke-linejoin:round;">
</g>
<g style="fill:#840000; fill-opacity:0.0; 
stroke:#840000; stroke-width:60; stroke-opacity:1; 
stroke-linecap:round; stroke-linejoin:round;">
<path d="M3940 43310
L4720 43310
" />
</g>
<g style="fill:#840000; fill-opacity:0.0; 
stroke:#840000; stroke-width:100; stroke-opacity:1; 
stroke-linecap:round; stroke-linejoin:round;">
</g>
<g style="fill:#840000; fill-opacity:0.0; 
stroke:#840000; stroke-width:60; stroke-opacity:1; 
stroke-linecap:round; stroke-linejoin:round;">
<path d="M3940 62990
L4720 62990
" />
</g>
<g style="fill:#840000; fill-opacity:0.0; 
stroke:#840000; stroke-width:100; stroke-opacity:1; 
stroke-linecap:round; stroke-linejoin:round;">
</g>
<g style="fill:#840000; fill-opacity:0.0; 
stroke:#840000; stroke-width:60; stroke-opacity:1; 
stroke-linecap:round; stroke-linejoin:round;">
<text x="4330" y="14030"
textLength="500" font-size="680" lengthAdjust="spacingAndGlyphs"
text-anchor="middle" opacity="0">A</text>
<path d="M4200 13860
L4450 13860
" />
<path d="M4160 14010
L4330 13500
L4500 14010
" />
</g>
<g style="fill:#840000; fill-opacity:0.0; 
stroke:#840000; stroke-width:100; stroke-opacity:1; 
stroke-linecap:round; stroke-linejoin:round;">
</g>
<g style="fill:#840000; fill-opacity:0.0; 
stroke:#840000; stroke-width:60; stroke-opacity:1; 
stroke-linecap:round; stroke-linejoin:round;">
<text x="4330" y="33710"
textLength="570" font-size="680" lengthAdjust="spacingAndGlyphs"
text-anchor="middle" opacity="0">B</text>
<path d="M4360 33420
L4430 33440
L4460 33470
L4480 33520
L4480 33590
L4460 33640
L4430 33660
L4390 33690
L4190 33690
L4190 33180
L4360 33180
L4410 33200
L4430 33220
L4460 33270
L4460 33320
L4430 33370
L4410 33390
L4360 33420
L4190 33420
" />
</g>
<g style="fill:#840000; fill-opacity:0.0; 
stroke:#840000; stroke-width:100; stroke-opacity:1; 
stroke-linecap:round; stroke-linejoin:round;">
</g>
<g style="fill:#840000; fill-opacity:0.0; 
stroke:#840000; stroke-width:60; stroke-opacity:1; 
stroke-linecap:round; stroke-linejoin:round;">
<text x="4330" y="53400"
textLength="570" font-size="680" lengthAdjust="spacingAndGlyphs"
text-anchor="middle" opacity="0">C</text>
<path d="M4480 53330
L4460 53350
L4390 53380
L4340 53380
L4260 53350
L4220 53300
L4190 53250
L4170 53160
L4170 53080
L4190 52990
L4220 52940
L4260 52890
L4340 52870
L4390 52870
L4460 52890
L4480 52910
" />
</g>
<g style="fill:#840000; fill-opacity:0.0; 
stroke:#840000; stroke-width:100; stroke-opacity:1; 
stroke-linecap:round; stroke-linejoin:round;">
</g>
<g style="fill:#840000; fill-opacity:0.0; 
stroke:#840000; stroke-width:60; stroke-opacity:1; 
stroke-linecap:round; stroke-linejoin:round;">
<text x="4330" y="73080"
textLength="570" font-size="680" lengthAdjust="spacingAndGlyphs"
text-anchor="middle" opacity="0">D</text>
<path d="M4190 73060
L4190 72550
L4310 72550
L4390 72570
L4430 72620
L4460 72670
L4480 72760
L4480 72840
L4460 72930
L4430 72980
L4390 73030
L4310 73060
L4190 73060
" />
</g>
<g style="fill:#840000; fill-opacity:0.0; 
stroke:#840000; stroke-width:100; stroke-opacity:1; 
stroke-linecap:round; stroke-linejoin:round;">
</g>
<g style="fill:#840000; fill-opacity:0.0; 
stroke:#840000; stroke-width:60; stroke-opacity:1; 
stroke-linecap:round; stroke-linejoin:round;">
<path d="M112990 23620
L112210 23620
" />
</g>
<g style="fill:#840000; fill-opacity:0.0; 
stroke:#840000; stroke-width:100; stroke-opacity:1; 
stroke-linecap:round; stroke-linejoin:round;">
</g>
<g style="fill:#840000; fill-opacity:0.0; 
stroke:#840000; stroke-width:60; stroke-opacity:1; 
stroke-linecap:round; stroke-linejoin:round;">
<path d="M112990 43310
L112210 43310
" />
</g>
<g style="fill:#840000; fill-opacity:0.0; 
stroke:#840000; stroke-width:100; stroke-opacity:1; 
stroke-linecap:round; stroke-linejoin:round;">
</g>
<g style="fill:#840000; fill-opacity:0.0; 
stroke:#840000; stroke-width:60; stroke-opacity:1; 
stroke-linecap:round; stroke-linejoin:round;">
<path d="M112990 62990
L112210 62990
" />
</g>
<g style="fill:#840000; fill-opacity:0.0; 
stroke:#840000; stroke-width:100; stroke-opacity:1; 
stroke-linecap:round; stroke-linejoin:round;">
</g>
<g style="fill:#840000; fill-opacity:0.0; 
stroke:#840000; stroke-width:60; stroke-opacity:1; 
stroke-linecap:round; stroke-linejoin:round;">
<text x="112600" y="14030"
textLength="500" font-size="680" lengthAdjust="spacingAndGlyphs"
text-anchor="middle" opacity="0">A</text>
<path d="M112470 13860
L112720 13860
" />
<path d="M112430 14010
L112600 13500
L112770 14010
" />
</g>
<g style="fill:#840000; fill-opacity:0.0; 
stroke:#840000; stroke-width:100; stroke-opacity:1; 
stroke-linecap:round; stroke-linejoin:round;">
</g>
<g style="fill:#840000; fill-opacity:0.0; 
stroke:#840000; stroke-width:60; stroke-opacity:1; 
stroke-linecap:round; stroke-linejoin:round;">
<text x="112600" y="33710"
textLength="570" font-size="680" lengthAdjust="spacingAndGlyphs"
text-anchor="middle" opacity="0">B</text>
<path d="M112630 33420
L112700 33440
L112730 33470
L112750 33520
L112750 33590
L112730 33640
L112700 33660
L112660 33690
L112460 33690
L112460 33180
L112630 33180
L112680 33200
L112700 33220
L112730 33270
L112730 33320
L112700 33370
L112680 33390
L112630 33420
L112460 33420
" />
</g>
<g style="fill:#840000; fill-opacity:0.0; 
stroke:#840000; stroke-width:100; stroke-opacity:1; 
stroke-linecap:round; stroke-linejoin:round;">
</g>
<g style="fill:#840000; fill-opacity:0.0; 
stroke:#840000; stroke-width:60; stroke-opacity:1; 
stroke-linecap:round; stroke-linejoin:round;">
<text x="112600" y="53400"
textLength="570" font-size="680" lengthAdjust="spacingAndGlyphs"
text-anchor="middle" opacity="0">C</text>
<path d="M112750 53330
L112730 53350
L112660 53380
L112610 53380
L112530 53350
L112490 53300
L112460 53250
L112440 53160
L112440 53080
L112460 52990
L112490 52940
L112530 52890
L112610 52870
L112660 52870
L112730 52890
L112750 52910
" />
</g>
<g style="fill:#840000; fill-opacity:0.0; 
stroke:#840000; stroke-width:100; stroke-opacity:1; 
stroke-linecap:round; stroke-linejoin:round;">
</g>
<g style="fill:#840000; fill-opacity:0.0; 
stroke:#840000; stroke-width:60; stroke-opacity:1; 
stroke-linecap:round; stroke-linejoin:round;">
<text x="112600" y="73080"
textLength="570" font-size="680" lengthAdjust="spacingAndGlyphs"
text-anchor="middle" opacity="0">D</text>
<path d="M112460 73060
L112460 72550
L112580 72550
L112660 72570
L112700 72620
L112730 72670
L112750 72760
L112750 72840
L112730 72930
L112700 72980
L112660 73030
L112580 73060
L112460 73060
" />
</g>
<g style="fill:#840000; fill-opacity:0.0; 
stroke:#840000; stroke-width:100; stroke-opacity:1; 
stroke-linecap:round; stroke-linejoin:round;">
</g>
<g style="fill:#840000; fill-opacity:0.0; 
stroke:#840000; stroke-width:60; stroke-opacity:1; 
stroke-linecap:round; stroke-linejoin:round;">
<text x="78740" y="76320"
textLength="8710" font-size="780" lengthAdjust="spacingAndGlyphs"
text-anchor="start" opacity="0">Date: 2021-06-05</text>
<path d="M78910 76290
L78910 75700
L79050 75700
L79130 75730
L79190 75790
L79210 75840
L79240 75950
L79240 76040
L79210 76150
L79190 76210
L79130 76260
L79050 76290
L78910 76290
" />
<path d="M79750 76290
L79750 75980
L79720 75930
L79660 75900
L79550 75900
L79500 75930
" />
<path d="M79750 76260
L79690 76290
L79550 76290
L79500 76260
L79470 76210
L79470 76150
L79500 76100
L79550 76070
L79690 76070
L79750 76040
" />
<path d="M79950 75900
L80170 75900
" />
<path d="M80030 75700
L80030 76210
L80060 76260
L80110 76290
L80170 76290
" />
<path d="M80590 76260
L80540 76290
L80420 76290
L80370 76260
L80340 76210
L80340 75980
L80370 75930
L80420 75900
L80540 75900
L80590 75930
L80620 75980
L80620 76040
L80340 76100
" />
<path d="M80870 76240
L80900 76260
L80870 76290
L80840 76260
L80870 76240
L80870 76290
" />
<path d="M80870 75930
L80900 75950
L80870 75980
L80840 75950
L80870 75930
L80870 75980
" />
<path d="M81570 75760
L81600 75730
L81660 75700
L81800 75700
L81860 75730
L81880 75760
L81910 75810
L81910 75870
L81880 75950
L81550 76290
L81910 76290
" />
<path d="M82280 75700
L82330 75700
L82390 75730
L82420 75760
L82450 75810
L82470 75930
L82470 76070
L82450 76180
L82420 76240
L82390 76260
L82330 76290
L82280 76290
L82220 76260
L82190 76240
L82160 76180
L82140 76070
L82140 75930
L82160 75810
L82190 75760
L82220 75730
L82280 75700
" />
<path d="M82700 75760
L82730 75730
L82780 75700
L82920 75700
L82980 75730
L83010 75760
L83040 75810
L83040 75870
L83010 75950
L82670 76290
L83040 76290
" />
<path d="M83600 76290
L83260 76290
" />
<path d="M83430 76290
L83430 75700
L83370 75790
L83320 75840
L83260 75870
" />
<path d="M83850 76070
L84300 76070
" />
<path d="M84690 75700
L84750 75700
L84810 75730
L84830 75760
L84860 75810
L84890 75930
L84890 76070
L84860 76180
L84830 76240
L84810 76260
L84750 76290
L84690 76290
L84640 76260
L84610 76240
L84580 76180
L84550 76070
L84550 75930
L84580 75810
L84610 75760
L84640 75730
L84690 75700
" />
<path d="M85400 75700
L85280 75700
L85230 75730
L85200 75760
L85140 75840
L85110 75950
L85110 76180
L85140 76240
L85170 76260
L85230 76290
L85340 76290
L85400 76260
L85420 76240
L85450 76180
L85450 76040
L85420 75980
L85400 75950
L85340 75930
L85230 75930
L85170 75950
L85140 75980
L85110 76040
" />
<path d="M85700 76070
L86150 76070
" />
<path d="M86550 75700
L86600 75700
L86660 75730
L86690 75760
L86720 75810
L86740 75930
L86740 76070
L86720 76180
L86690 76240
L86660 76260
L86600 76290
L86550 76290
L86490 76260
L86460 76240
L86440 76180
L86410 76070
L86410 75930
L86440 75810
L86460 75760
L86490 75730
L86550 75700
" />
<path d="M87280 75700
L87000 75700
L86970 75980
L87000 75950
L87050 75930
L87190 75930
L87250 75950
L87280 75980
L87310 76040
L87310 76180
L87280 76240
L87250 76260
L87190 76290
L87050 76290
L87000 76260
L86970 76240
" />
</g>
<g style="fill:#840000; fill-opacity:0.0; 
stroke:#840000; stroke-width:100; stroke-opacity:1; 
stroke-linecap:round; stroke-linejoin:round;">
</g>
<g style="fill:#840000; fill-opacity:0.0; 
stroke:#840000; stroke-width:60; stroke-opacity:1; 
stroke-linecap:round; stroke-linejoin:round;">
<path d="M69690 76580
L112210 76580
" />
</g>
<g style="fill:#840000; fill-opacity:0.0; 
stroke:#840000; stroke-width:100; stroke-opacity:1; 
stroke-linecap:round; stroke-linejoin:round;">
</g>
<g style="fill:#840000; fill-opacity:0.0; 
stroke:#840000; stroke-width:60; stroke-opacity:1; 
stroke-linecap:round; stroke-linejoin:round;">
<text x="70080" y="77420"
textLength="16950" font-size="780" lengthAdjust="spacingAndGlyphs"
text-anchor="start" opacity="0">KiCad E.D.A.  kicad (5.1.8-0-10_14)</text>
<path d="M70250 77390
L70250 76800
" />
<path d="M70580 77390
L70330 77050
" />
<path d="M70580 76800
L70250 77140
" />
<path d="M70840 77390
L70840 77000
" />
<path d="M70840 76800
L70810 76830
L70840 76860
L70860 76830
L70840 76800
L70840 76860
" />
<path d="M71450 77340
L71430 77360
L71340 77390
L71290 77390
L71200 77360
L71140 77310
L71120 77250
L71090 77140
L71090 77050
L71120 76940
L71140 76890
L71200 76830
L71290 76800
L71340 76800
L71430 76830
L71450 76860
" />
<path d="M71960 77390
L71960 77080
L71930 77030
L71880 77000
L71760 77000
L71710 77030
" />
<path d="M71960 77360
L71900 77390
L71760 77390
L71710 77360
L71680 77310
L71680 77250
L71710 77200
L71760 77170
L71900 77170
L71960 77140
" />
<path d="M72490 77390
L72490 76800
" />
<path d="M72490 77360
L72440 77390
L72320 77390
L72270 77360
L72240 77340
L72210 77280
L72210 77110
L72240 77050
L72270 77030
L72320 77000
L72440 77000
L72490 77030
" />
<path d="M73220 77080
L73420 77080
" />
<path d="M73500 77390
L73220 77390
L73220 76800
L73500 76800
" />
<path d="M73760 77340
L73790 77360
L73760 77390
L73730 77360
L73760 77340
L73760 77390
" />
<path d="M74040 77390
L74040 76800
L74180 76800
L74260 76830
L74320 76890
L74350 76940
L74380 77050
L74380 77140
L74350 77250
L74320 77310
L74260 77360
L74180 77390
L74040 77390
" />
<path d="M74630 77340
L74660 77360
L74630 77390
L74600 77360
L74630 77340
L74630 77390
" />
<path d="M74880 77220
L75160 77220
" />
<path d="M74830 77390
L75020 76800
L75220 77390
" />
<path d="M75420 77340
L75440 77360
L75420 77390
L75390 77360
L75420 77340
L75420 77390
" />
<path d="M76600 77390
L76600 76800
" />
<path d="M76650 77170
L76820 77390
" />
<path d="M76820 77000
L76600 77220
" />
<path d="M77070 77390
L77070 77000
" />
<path d="M77070 76800
L77040 76830
L77070 76860
L77100 76830
L77070 76800
L77070 76860
" />
<path d="M77610 77360
L77550 77390
L77440 77390
L77380 77360
L77350 77340
L77330 77280
L77330 77110
L77350 77050
L77380 77030
L77440 77000
L77550 77000
L77610 77030
" />
<path d="M78110 77390
L78110 77080
L78080 77030
L78030 77000
L77920 77000
L77860 77030
" />
<path d="M78110 77360
L78060 77390
L77920 77390
L77860 77360
L77830 77310
L77830 77250
L77860 77200
L77920 77170
L78060 77170
L78110 77140
" />
<path d="M78650 77390
L78650 76800
" />
<path d="M78650 77360
L78590 77390
L78480 77390
L78420 77360
L78390 77340
L78370 77280
L78370 77110
L78390 77050
L78420 77030
L78480 77000
L78590 77000
L78650 77030
" />
<path d="M79550 77620
L79520 77590
L79460 77500
L79430 77450
L79400 77360
L79380 77220
L79380 77110
L79400 76970
L79430 76890
L79460 76830
L79520 76750
L79550 76720
" />
<path d="M80050 76800
L79770 76800
L79740 77080
L79770 77050
L79830 77030
L79970 77030
L80020 77050
L80050 77080
L80080 77140
L80080 77280
L80050 77340
L80020 77360
L79970 77390
L79830 77390
L79770 77360
L79740 77340
" />
<path d="M80330 77340
L80360 77360
L80330 77390
L80300 77360
L80330 77340
L80330 77390
" />
<path d="M80920 77390
L80580 77390
" />
<path d="M80750 77390
L80750 76800
L80700 76890
L80640 76940
L80580 76970
" />
<path d="M81170 77340
L81200 77360
L81170 77390
L81150 77360
L81170 77340
L81170 77390
" />
<path d="M81540 77050
L81480 77030
L81460 77000
L81430 76940
L81430 76910
L81460 76860
L81480 76830
L81540 76800
L81650 76800
L81710 76830
L81740 76860
L81760 76910
L81760 76940
L81740 77000
L81710 77030
L81650 77050
L81540 77050
L81480 77080
L81460 77110
L81430 77170
L81430 77280
L81460 77340
L81480 77360
L81540 77390
L81650 77390
L81710 77360
L81740 77340
L81760 77280
L81760 77170
L81740 77110
L81710 77080
L81650 77050
" />
<path d="M82020 77170
L82470 77170
" />
<path d="M82860 76800
L82920 76800
L82970 76830
L83000 76860
L83030 76910
L83060 77030
L83060 77170
L83030 77280
L83000 77340
L82970 77360
L82920 77390
L82860 77390
L82800 77360
L82780 77340
L82750 77280
L82720 77170
L82720 77030
L82750 76910
L82780 76860
L82800 76830
L82860 76800
" />
<path d="M83310 77170
L83760 77170
" />
<path d="M84350 77390
L84010 77390
" />
<path d="M84180 77390
L84180 76800
L84120 76890
L84070 76940
L84010 76970
" />
<path d="M84710 76800
L84770 76800
L84830 76830
L84860 76860
L84880 76910
L84910 77030
L84910 77170
L84880 77280
L84860 77340
L84830 77360
L84770 77390
L84710 77390
L84660 77360
L84630 77340
L84600 77280
L84570 77170
L84570 77030
L84600 76910
L84630 76860
L84660 76830
L84710 76800
" />
<path d="M85020 77450
L85470 77450
" />
<path d="M85920 77390
L85590 77390
" />
<path d="M85750 77390
L85750 76800
L85700 76890
L85640 76940
L85590 76970
" />
<path d="M86430 77000
L86430 77390
" />
<path d="M86290 76770
L86150 77200
L86510 77200
" />
<path d="M86680 77620
L86710 77590
L86770 77500
L86790 77450
L86820 77360
L86850 77220
L86850 77110
L86820 76970
L86790 76890
L86770 76830
L86710 76750
L86680 76720
" />
</g>
<g style="fill:#840000; fill-opacity:0.0; 
stroke:#840000; stroke-width:100; stroke-opacity:1; 
stroke-linecap:round; stroke-linejoin:round;">
</g>
<g style="fill:#840000; fill-opacity:0.0; 
stroke:#840000; stroke-width:60; stroke-opacity:1; 
stroke-linecap:round; stroke-linejoin:round;">
<path d="M69690 75400
L112210 75400
" />
</g>
<g style="fill:#840000; fill-opacity:0.0; 
stroke:#840000; stroke-width:100; stroke-opacity:1; 
stroke-linecap:round; stroke-linejoin:round;">
</g>
<g style="fill:#840000; fill-opacity:0.0; 
stroke:#840000; stroke-width:120; stroke-opacity:1; 
stroke-linecap:round; stroke-linejoin:round;">
<text x="103540" y="76320"
textLength="2840" font-size="780" lengthAdjust="spacingAndGlyphs"
text-anchor="start" opacity="0">Rev: A</text>
<path d="M104090 76290
L103890 76010
" />
<path d="M103750 76290
L103750 75700
L103980 75700
L104030 75730
L104060 75760
L104090 75810
L104090 75900
L104060 75950
L104030 75980
L103980 76010
L103750 76010
" />
<path d="M104570 76260
L104510 76290
L104400 76290
L104340 76260
L104320 76210
L104320 75980
L104340 75930
L104400 75900
L104510 75900
L104570 75930
L104600 75980
L104600 76040
L104320 76100
" />
<path d="M104790 75900
L104930 76290
L105070 75900
" />
<path d="M105300 76240
L105330 76260
L105300 76290
L105270 76260
L105300 76240
L105300 76290
" />
<path d="M105300 75930
L105330 75950
L105300 75980
L105270 75950
L105300 75930
L105300 75980
" />
<path d="M106000 76120
L106280 76120
" />
<path d="M105940 76290
L106140 75700
L106340 76290
" />
</g>
<g style="fill:#840000; fill-opacity:0.0; 
stroke:#840000; stroke-width:100; stroke-opacity:1; 
stroke-linecap:round; stroke-linejoin:round;">
</g>
<g style="fill:#840000; fill-opacity:0.0; 
stroke:#840000; stroke-width:60; stroke-opacity:1; 
stroke-linecap:round; stroke-linejoin:round;">
<text x="70080" y="76320"
textLength="3780" font-size="780" lengthAdjust="spacingAndGlyphs"
text-anchor="start" opacity="0">Size: A4</text>
<path d="M70220 76260
L70300 76290
L70440 76290
L70500 76260
L70530 76240
L70550 76180
L70550 76120
L70530 76070
L70500 76040
L70440 76010
L70330 75980
L70270 75950
L70250 75930
L70220 75870
L70220 75810
L70250 75760
L70270 75730
L70330 75700
L70470 75700
L70550 75730
" />
<path d="M70810 76290
L70810 75900
" />
<path d="M70810 75700
L70780 75730
L70810 75760
L70840 75730
L70810 75700
L70810 75760
" />
<path d="M71030 75900
L71340 75900
L71030 76290
L71340 76290
" />
<path d="M71790 76260
L71730 76290
L71620 76290
L71570 76260
L71540 76210
L71540 75980
L71570 75930
L71620 75900
L71730 75900
L71790 75930
L71820 75980
L71820 76040
L71540 76100
" />
<path d="M72070 76240
L72100 76260
L72070 76290
L72040 76260
L72070 76240
L72070 76290
" />
<path d="M72070 75930
L72100 75950
L72070 75980
L72040 75950
L72070 75930
L72070 75980
" />
<path d="M72770 76120
L73060 76120
" />
<path d="M72720 76290
L72910 75700
L73110 76290
" />
<path d="M73560 75900
L73560 76290
" />
<path d="M73420 75670
L73280 76100
L73650 76100
" />
</g>
<g style="fill:#840000; fill-opacity:0.0; 
stroke:#840000; stroke-width:100; stroke-opacity:1; 
stroke-linecap:round; stroke-linejoin:round;">
</g>
<g style="fill:#840000; fill-opacity:0.0; 
stroke:#840000; stroke-width:60; stroke-opacity:1; 
stroke-linecap:round; stroke-linejoin:round;">
<text x="103540" y="77420"
textLength="3910" font-size="780" lengthAdjust="spacingAndGlyphs"
text-anchor="start" opacity="0">Id: 2/46</text>
<path d="M103710 77390
L103710 76800
" />
<path d="M104240 77390
L104240 76800
" />
<path d="M104240 77360
L104180 77390
L104070 77390
L104010 77360
L103990 77340
L103960 77280
L103960 77110
L103990 77050
L104010 77030
L104070 77000
L104180 77000
L104240 77030
" />
<path d="M104520 77340
L104550 77360
L104520 77390
L104490 77360
L104520 77340
L104520 77390
" />
<path d="M104520 77030
L104550 77050
L104520 77080
L104490 77050
L104520 77030
L104520 77080
" />
<path d="M105220 76860
L105250 76830
L105310 76800
L105450 76800
L105500 76830
L105530 76860
L105560 76910
L105560 76970
L105530 77050
L105190 77390
L105560 77390
" />
<path d="M106230 76770
L105730 77530
" />
<path d="M106680 77000
L106680 77390
" />
<path d="M106540 76770
L106400 77200
L106770 77200
" />
<path d="M107250 76800
L107130 76800
L107080 76830
L107050 76860
L106990 76940
L106960 77050
L106960 77280
L106990 77340
L107020 77360
L107080 77390
L107190 77390
L107250 77360
L107270 77340
L107300 77280
L107300 77140
L107270 77080
L107250 77050
L107190 77030
L107080 77030
L107020 77050
L106990 77080
L106960 77140
" />
</g>
<g style="fill:#840000; fill-opacity:0.0; 
stroke:#840000; stroke-width:100; stroke-opacity:1; 
stroke-linecap:round; stroke-linejoin:round;">
</g>
<g style="fill:#840000; fill-opacity:0.0; 
stroke:#840000; stroke-width:60; stroke-opacity:1; 
stroke-linecap:round; stroke-linejoin:round;">
<path d="M69690 73820
L112210 73820
" />
</g>
<g style="fill:#840000; fill-opacity:0.0; 
stroke:#840000; stroke-width:100; stroke-opacity:1; 
stroke-linecap:round; stroke-linejoin:round;">
</g>
<g style="fill:#840000; fill-opacity:0.0; 
stroke:#840000; stroke-width:160; stroke-opacity:1; 
stroke-linecap:round; stroke-linejoin:round;">
<text x="70080" y="74920"
textLength="11990" font-size="1050" lengthAdjust="spacingAndGlyphs"
text-anchor="start" opacity="0">Title: MIDI Interface</text>
<path d="M70360 74090
L70810 74090
" />
<path d="M70480 74880
L70580 74090
" />
<path d="M70970 74880
L71040 74360
" />
<path d="M71070 74090
L71030 74130
L71060 74170
L71110 74130
L71070 74090
L71060 74170
" />
<path d="M71300 74360
L71600 74360
" />
<path d="M71450 74090
L71360 74770
L71390 74840
L71460 74880
L71540 74880
" />
<path d="M71910 74880
L71840 74840
L71820 74770
L71900 74090
" />
<path d="M72520 74840
L72440 74880
L72290 74880
L72220 74840
L72190 74770
L72230 74470
L72280 74390
L72360 74360
L72510 74360
L72580 74390
L72610 74470
L72600 74540
L72210 74620
" />
<path d="M72900 74810
L72930 74840
L72890 74880
L72860 74840
L72900 74810
L72890 74880
" />
<path d="M72950 74390
L72990 74430
L72940 74470
L72910 74430
L72950 74390
L72940 74470
" />
<path d="M73870 74880
L73970 74090
L74160 74660
L74500 74090
L74400 74880
" />
<path d="M74770 74880
L74870 74090
" />
<path d="M75150 74880
L75250 74090
L75440 74090
L75540 74130
L75610 74210
L75640 74280
L75660 74430
L75640 74540
L75590 74690
L75540 74770
L75460 74840
L75340 74880
L75150 74880
" />
<path d="M75940 74880
L76040 74090
" />
<path d="M76920 74880
L77020 74090
" />
<path d="M77360 74360
L77290 74880
" />
<path d="M77350 74430
L77390 74390
L77470 74360
L77590 74360
L77660 74390
L77680 74470
L77630 74880
" />
<path d="M77960 74360
L78260 74360
" />
<path d="M78110 74090
L78020 74770
L78050 74840
L78120 74880
L78200 74880
" />
<path d="M78770 74840
L78690 74880
L78540 74880
L78460 74840
L78440 74770
L78470 74470
L78520 74390
L78600 74360
L78750 74360
L78820 74390
L78850 74470
L78840 74540
L78460 74620
" />
<path d="M79140 74880
L79200 74360
" />
<path d="M79180 74510
L79230 74430
L79270 74390
L79350 74360
L79430 74360
" />
<path d="M79580 74360
L79880 74360
" />
<path d="M79630 74880
L79710 74210
L79760 74130
L79840 74090
L79910 74090
" />
<path d="M80420 74880
L80470 74470
L80440 74390
L80370 74360
L80220 74360
L80140 74390
" />
<path d="M80420 74840
L80340 74880
L80150 74880
L80080 74840
L80050 74770
L80060 74690
L80110 74620
L80190 74580
L80380 74580
L80460 74540
" />
<path d="M81140 74840
L81060 74880
L80910 74880
L80830 74840
L80800 74810
L80770 74730
L80800 74510
L80850 74430
L80890 74390
L80970 74360
L81120 74360
L81190 74390
" />
<path d="M81780 74840
L81700 74880
L81540 74880
L81470 74840
L81450 74770
L81480 74470
L81530 74390
L81610 74360
L81760 74360
L81830 74390
L81860 74470
L81850 74540
L81460 74620
" />
</g>
<g style="fill:#840000; fill-opacity:0.0; 
stroke:#840000; stroke-width:100; stroke-opacity:1; 
stroke-linecap:round; stroke-linejoin:round;">
</g>
<g style="fill:#840000; fill-opacity:0.0; 
stroke:#840000; stroke-width:60; stroke-opacity:1; 
stroke-linecap:round; stroke-linejoin:round;">
<text x="70080" y="73400"
textLength="6160" font-size="780" lengthAdjust="spacingAndGlyphs"
text-anchor="start" opacity="0">File: MIDI.sch</text>
<path d="M70440 73060
L70250 73060
" />
<path d="M70250 73370
L70250 72780
L70530 72780
" />
<path d="M70750 73370
L70750 72980
" />
<path d="M70750 72780
L70720 72810
L70750 72840
L70780 72810
L70750 72780
L70750 72840
" />
<path d="M71120 73370
L71060 73340
L71030 73290
L71030 72780
" />
<path d="M71570 73340
L71510 73370
L71400 73370
L71340 73340
L71310 73290
L71310 73060
L71340 73010
L71400 72980
L71510 72980
L71570 73010
L71590 73060
L71590 73120
L71310 73180
" />
<path d="M71850 73320
L71880 73340
L71850 73370
L71820 73340
L71850 73320
L71850 73370
" />
<path d="M71850 73010
L71880 73030
L71850 73060
L71820 73030
L71850 73010
L71850 73060
" />
<path d="M72580 73370
L72580 72780
L72770 73200
L72970 72780
L72970 73370
" />
<path d="M73250 73370
L73250 72780
" />
<path d="M73530 73370
L73530 72780
L73670 72780
L73760 72810
L73810 72870
L73840 72920
L73870 73030
L73870 73120
L73840 73230
L73810 73290
L73760 73340
L73670 73370
L73530 73370
" />
<path d="M74120 73370
L74120 72780
" />
<path d="M74400 73320
L74430 73340
L74400 73370
L74380 73340
L74400 73320
L74400 73370
" />
<path d="M74660 73340
L74710 73370
L74830 73370
L74880 73340
L74910 73290
L74910 73260
L74880 73200
L74830 73180
L74740 73180
L74680 73150
L74660 73090
L74660 73060
L74680 73010
L74740 72980
L74830 72980
L74880 73010
" />
<path d="M75420 73340
L75360 73370
L75250 73370
L75190 73340
L75160 73320
L75130 73260
L75130 73090
L75160 73030
L75190 73010
L75250 72980
L75360 72980
L75420 73010
" />
<path d="M75670 73370
L75670 72780
" />
<path d="M75920 73370
L75920 73060
L75890 73010
L75840 72980
L75750 72980
L75700 73010
L75670 73030
" />
</g>
<g style="fill:#840000; fill-opacity:0.0; 
stroke:#840000; stroke-width:100; stroke-opacity:1; 
stroke-linecap:round; stroke-linejoin:round;">
</g>
<g style="fill:#840000; fill-opacity:0.0; 
stroke:#840000; stroke-width:60; stroke-opacity:1; 
stroke-linecap:round; stroke-linejoin:round;">
<path d="M69690 71460
L112210 71460
" />
</g>
<g style="fill:#840000; fill-opacity:0.0; 
stroke:#840000; stroke-width:100; stroke-opacity:1; 
stroke-linecap:round; stroke-linejoin:round;">
</g>
<g style="fill:#840000; fill-opacity:0.0; 
stroke:#840000; stroke-width:60; stroke-opacity:1; 
stroke-linecap:round; stroke-linejoin:round;">
<text x="70080" y="72340"
textLength="10650" font-size="780" lengthAdjust="spacingAndGlyphs"
text-anchor="start" opacity="0">Sheet: /MIDI Interface/</text>
<path d="M70220 72280
L70300 72310
L70440 72310
L70500 72280
L70530 72260
L70550 72200
L70550 72140
L70530 72090
L70500 72060
L70440 72030
L70330 72000
L70270 71970
L70250 71950
L70220 71890
L70220 71830
L70250 71780
L70270 71750
L70330 71720
L70470 71720
L70550 71750
" />
<path d="M70810 72310
L70810 71720
" />
<path d="M71060 72310
L71060 72000
L71030 71950
L70980 71920
L70890 71920
L70840 71950
L70810 71970
" />
<path d="M71570 72280
L71510 72310
L71400 72310
L71340 72280
L71310 72230
L71310 72000
L71340 71950
L71400 71920
L71510 71920
L71570 71950
L71590 72000
L71590 72060
L71310 72120
" />
<path d="M72070 72280
L72020 72310
L71900 72310
L71850 72280
L71820 72230
L71820 72000
L71850 71950
L71900 71920
L72020 71920
L72070 71950
L72100 72000
L72100 72060
L71820 72120
" />
<path d="M72270 71920
L72490 71920
" />
<path d="M72350 71720
L72350 72230
L72380 72280
L72440 72310
L72490 72310
" />
<path d="M72690 72260
L72720 72280
L72690 72310
L72660 72280
L72690 72260
L72690 72310
" />
<path d="M72690 71950
L72720 71970
L72690 72000
L72660 71970
L72690 71950
L72690 72000
" />
<path d="M73840 71690
L73340 72450
" />
<path d="M74040 72310
L74040 71720
L74240 72140
L74430 71720
L74430 72310
" />
<path d="M74710 72310
L74710 71720
" />
<path d="M74990 72310
L74990 71720
L75130 71720
L75220 71750
L75270 71810
L75300 71860
L75330 71970
L75330 72060
L75300 72170
L75270 72230
L75220 72280
L75130 72310
L74990 72310
" />
<path d="M75580 72310
L75580 71720
" />
<path d="M76310 72310
L76310 71720
" />
<path d="M76600 71920
L76600 72310
" />
<path d="M76600 71970
L76620 71950
L76680 71920
L76760 71920
L76820 71950
L76850 72000
L76850 72310
" />
<path d="M77040 71920
L77270 71920
" />
<path d="M77130 71720
L77130 72230
L77160 72280
L77210 72310
L77270 72310
" />
<path d="M77690 72280
L77630 72310
L77520 72310
L77470 72280
L77440 72230
L77440 72000
L77470 71950
L77520 71920
L77630 71920
L77690 71950
L77720 72000
L77720 72060
L77440 72120
" />
<path d="M77970 72310
L77970 71920
" />
<path d="M77970 72030
L78000 71970
L78030 71950
L78080 71920
L78140 71920
" />
<path d="M78250 71920
L78480 71920
" />
<path d="M78340 72310
L78340 71810
L78370 71750
L78420 71720
L78480 71720
" />
<path d="M78930 72310
L78930 72000
L78900 71950
L78840 71920
L78730 71920
L78670 71950
" />
<path d="M78930 72280
L78870 72310
L78730 72310
L78670 72280
L78650 72230
L78650 72170
L78670 72120
L78730 72090
L78870 72090
L78930 72060
" />
<path d="M79460 72280
L79400 72310
L79290 72310
L79240 72280
L79210 72260
L79180 72200
L79180 72030
L79210 71970
L79240 71950
L79290 71920
L79400 71920
L79460 71950
" />
<path d="M79940 72280
L79880 72310
L79770 72310
L79710 72280
L79690 72230
L79690 72000
L79710 71950
L79770 71920
L79880 71920
L79940 71950
L79970 72000
L79970 72060
L79690 72120
" />
<path d="M80640 71690
L80140 72450
" />
</g>
<g style="fill:#840000; fill-opacity:0.0; 
stroke:#840000; stroke-width:100; stroke-opacity:1; 
stroke-linecap:round; stroke-linejoin:round;">
</g>
<g style="fill:#840000; fill-opacity:0.0; 
stroke:#840000; stroke-width:120; stroke-opacity:1; 
stroke-linecap:round; stroke-linejoin:round;">
<text x="70080" y="71160"
textLength="9190" font-size="780" lengthAdjust="spacingAndGlyphs"
text-anchor="start" opacity="0">Created by C Sutton</text>
<path d="M70630 71080
L70600 71100
L70520 71130
L70460 71130
L70380 71100
L70320 71050
L70290 70990
L70270 70880
L70270 70790
L70290 70680
L70320 70630
L70380 70570
L70460 70540
L70520 70540
L70600 70570
L70630 70600
" />
<path d="M70880 71130
L70880 70740
" />
<path d="M70880 70850
L70910 70790
L70940 70770
L71000 70740
L71050 70740
" />
<path d="M71470 71100
L71420 71130
L71300 71130
L71250 71100
L71220 71050
L71220 70820
L71250 70770
L71300 70740
L71420 70740
L71470 70770
L71500 70820
L71500 70880
L71220 70940
" />
<path d="M72010 71130
L72010 70820
L71980 70770
L71920 70740
L71810 70740
L71750 70770
" />
<path d="M72010 71100
L71950 71130
L71810 71130
L71750 71100
L71730 71050
L71730 70990
L71750 70940
L71810 70910
L71950 70910
L72010 70880
" />
<path d="M72200 70740
L72430 70740
" />
<path d="M72290 70540
L72290 71050
L72320 71100
L72370 71130
L72430 71130
" />
<path d="M72850 71100
L72790 71130
L72680 71130
L72630 71100
L72600 71050
L72600 70820
L72630 70770
L72680 70740
L72790 70740
L72850 70770
L72880 70820
L72880 70880
L72600 70940
" />
<path d="M73380 71130
L73380 70540
" />
<path d="M73380 71100
L73330 71130
L73220 71130
L73160 71100
L73130 71080
L73100 71020
L73100 70850
L73130 70790
L73160 70770
L73220 70740
L73330 70740
L73380 70770
" />
<path d="M74110 71130
L74110 70540
" />
<path d="M74110 70770
L74170 70740
L74280 70740
L74340 70770
L74370 70790
L74400 70850
L74400 71020
L74370 71080
L74340 71100
L74280 71130
L74170 71130
L74110 71100
" />
<path d="M74590 70740
L74730 71130
" />
<path d="M74870 70740
L74730 71130
L74680 71270
L74650 71300
L74590 71330
" />
<path d="M75880 71080
L75860 71100
L75770 71130
L75720 71130
L75630 71100
L75580 71050
L75550 70990
L75520 70880
L75520 70790
L75550 70680
L75580 70630
L75630 70570
L75720 70540
L75770 70540
L75860 70570
L75880 70600
" />
<path d="M76560 71100
L76640 71130
L76780 71130
L76840 71100
L76870 71080
L76900 71020
L76900 70960
L76870 70910
L76840 70880
L76780 70850
L76670 70820
L76610 70790
L76590 70770
L76560 70710
L76560 70650
L76590 70600
L76610 70570
L76670 70540
L76810 70540
L76900 70570
" />
<path d="M77400 70740
L77400 71130
" />
<path d="M77150 70740
L77150 71050
L77180 71100
L77230 71130
L77320 71130
L77370 71100
L77400 71080
" />
<path d="M77600 70740
L77820 70740
" />
<path d="M77680 70540
L77680 71050
L77710 71100
L77770 71130
L77820 71130
" />
<path d="M77940 70740
L78160 70740
" />
<path d="M78020 70540
L78020 71050
L78050 71100
L78100 71130
L78160 71130
" />
<path d="M78440 71130
L78380 71100
L78360 71080
L78330 71020
L78330 70850
L78360 70790
L78380 70770
L78440 70740
L78530 70740
L78580 70770
L78610 70790
L78640 70850
L78640 71020
L78610 71080
L78580 71100
L78530 71130
L78440 71130
" />
<path d="M78890 70740
L78890 71130
" />
<path d="M78890 70790
L78920 70770
L78970 70740
L79060 70740
L79120 70770
L79140 70820
L79140 71130
" />
</g>
<g style="fill:#840000; fill-opacity:0.0; 
stroke:#840000; stroke-width:100; stroke-opacity:1; 
stroke-linecap:round; stroke-linejoin:round;">
</g>
<g style="fill:#840000; fill-opacity:0.0; 
stroke:#840000; stroke-width:60; stroke-opacity:1; 
stroke-linecap:round; stroke-linejoin:round;">
<path d="M77560 75400
L77560 76580
" />
</g>
<g style="fill:#840000; fill-opacity:0.0; 
stroke:#840000; stroke-width:100; stroke-opacity:1; 
stroke-linecap:round; stroke-linejoin:round;">
</g>
<g style="fill:#840000; fill-opacity:0.0; 
stroke:#840000; stroke-width:60; stroke-opacity:1; 
stroke-linecap:round; stroke-linejoin:round;">
<path d="M102760 75400
L102760 77960
" />
</g>
<g style="fill:#840000; fill-opacity:0.0; 
stroke:#840000; stroke-width:0; stroke-opacity:1; 
stroke-linecap:round; stroke-linejoin:round;">
<g >
</g>
<g style="fill:#840000; fill-opacity:0.0; 
stroke:#840000; stroke-width:100; stroke-opacity:1; 
stroke-linecap:round; stroke-linejoin:round;">
<path d="M31004.2 19051 A2010 2010 0.0 0 0 33000.5 20750" />
<path d="M33003.5 20750 A2000 2000 0.0 0 0 33003.5 16750" />
<path d="M33000.5 16750 A2010 2010 0.0 0 0 31004.2 18449" />
</g>
<g style="fill:#840000; fill-opacity:0.0; 
stroke:#840000; stroke-width:60; stroke-opacity:1; 
stroke-linecap:round; stroke-linejoin:round;">
<circle cx="32400" cy="17650" r="200" /> 
<circle cx="33600" cy="17650" r="200" /> 
<circle cx="34300" cy="18750" r="200" /> 
<circle cx="32400" cy="19850" r="200" /> 
<circle cx="33600" cy="19850" r="200" /> 
<path style="fill:#840000; fill-opacity:0.0; 
stroke:#840000; stroke-width:60; stroke-opacity:1; 
stroke-linecap:round; stroke-linejoin:round;fill:none"
d="M 35000,18750
34500,18750
" /> 
<path style="fill:#840000; fill-opacity:0.0; 
stroke:#840000; stroke-width:60; stroke-opacity:1; 
stroke-linecap:round; stroke-linejoin:round;fill:none"
d="M 32000,16750
32000,17050
32250,17500
" /> 
<path style="fill:#840000; fill-opacity:0.0; 
stroke:#840000; stroke-width:60; stroke-opacity:1; 
stroke-linecap:round; stroke-linejoin:round;fill:none"
d="M 34000,16750
34000,17050
33750,17500
" /> 
<path style="fill:#840000; fill-opacity:0.0; 
stroke:#840000; stroke-width:60; stroke-opacity:1; 
stroke-linecap:round; stroke-linejoin:round;fill:none"
d="M 32000,20750
32000,20450
32250,20000
" /> 
<path style="fill:#840000; fill-opacity:0.0; 
stroke:#840000; stroke-width:60; stroke-opacity:1; 
stroke-linecap:round; stroke-linejoin:round;fill:none"
d="M 34000,20750
34000,20450
33750,20000
" /> 
</g>
<g style="fill:#840000; fill-opacity:0.0; 
stroke:#840000; stroke-width:100; stroke-opacity:1; 
stroke-linecap:round; stroke-linejoin:round;">
<path style="fill:#840000; fill-opacity:0.0; 
stroke:#840000; stroke-width:100; stroke-opacity:1; 
stroke-linecap:round; stroke-linejoin:round;fill:none"
d="M 31050,18450
31350,18450
31350,19050
31050,19050
" /> 
</g>
<g style="fill:#840000; fill-opacity:0.0; 
stroke:#840000; stroke-width:60; stroke-opacity:1; 
stroke-linecap:round; stroke-linejoin:round;">
<path d="M32000 16750
L32000 15750
" />
<g transform="rotate(-90 31900 16250)">
<text x="31900" y="16250"
textLength="630" font-size="660" lengthAdjust="spacingAndGlyphs"
text-anchor="middle" opacity="0">1</text>
</g>
<path d="M31870 16100
L31870 16390
" />
<path d="M31870 16250
L31370 16250
L31440 16290
L31490 16340
L31510 16390
" />
<path d="M35000 18750
L36000 18750
" />
<text x="35500" y="18650"
textLength="540" font-size="660" lengthAdjust="spacingAndGlyphs"
text-anchor="middle" opacity="0">2</text>
<path d="M35350 18170
L35380 18150
L35420 18120
L35540 18120
L35590 18150
L35610 18170
L35640 18220
L35640 18260
L35610 18340
L35330 18620
L35640 18620
" />
<path d="M32000 20750
L32000 21750
" />
<g transform="rotate(-90 31900 21250)">
<text x="31900" y="21250"
textLength="540" font-size="660" lengthAdjust="spacingAndGlyphs"
text-anchor="middle" opacity="0">3</text>
</g>
<path d="M31370 21410
L31370 21100
L31560 21270
L31560 21200
L31590 21150
L31610 21130
L31660 21100
L31780 21100
L31820 21130
L31850 21150
L31870 21200
L31870 21340
L31850 21390
L31820 21410
" />
<path d="M34000 16750
L34000 15750
" />
<g transform="rotate(-90 33900 16250)">
<text x="33900" y="16250"
textLength="540" font-size="660" lengthAdjust="spacingAndGlyphs"
text-anchor="middle" opacity="0">4</text>
</g>
<path d="M33540 16150
L33870 16150
" />
<path d="M33350 16270
L33700 16390
L33700 16080
" />
<path d="M34000 20750
L34000 21750
" />
<g transform="rotate(-90 33900 21250)">
<text x="33900" y="21250"
textLength="540" font-size="660" lengthAdjust="spacingAndGlyphs"
text-anchor="middle" opacity="0">5</text>
</g>
<path d="M33370 21130
L33370 21360
L33610 21390
L33590 21360
L33560 21320
L33560 21200
L33590 21150
L33610 21130
L33660 21100
L33780 21100
L33820 21130
L33850 21150
L33870 21200
L33870 21320
L33850 21360
L33820 21390
" />
</g>
<g style="fill:#008484; fill-opacity:0.0; 
stroke:#008484; stroke-width:60; stroke-opacity:1; 
stroke-linecap:round; stroke-linejoin:round;">
<text x="30240" y="18560"
textLength="920" font-size="660" lengthAdjust="spacingAndGlyphs"
text-anchor="middle" opacity="0">J1</text>
<path d="M30070 18030
L30070 18390
L30040 18460
L30000 18510
L29930 18530
L29880 18530
" />
<path d="M30570 18530
L30280 18530
" />
<path d="M30430 18530
L30430 18030
L30380 18100
L30330 18150
L30280 18170
" />
<text x="29320" y="19470"
textLength="2750" font-size="660" lengthAdjust="spacingAndGlyphs"
text-anchor="middle" opacity="0">MIDI IN</text>
<path d="M28090 19440
L28090 18940
L28260 19300
L28420 18940
L28420 19440
" />
<path d="M28660 19440
L28660 18940
" />
<path d="M28900 19440
L28900 18940
L29020 18940
L29090 18970
L29140 19010
L29160 19060
L29180 19160
L29180 19230
L29160 19320
L29140 19370
L29090 19420
L29020 19440
L28900 19440
" />
<path d="M29400 19440
L29400 18940
" />
<path d="M30020 19440
L30020 18940
" />
<path d="M30260 19440
L30260 18940
L30540 19440
L30540 18940
" />
</g>
</g>
<g style="fill:#008484; fill-opacity:0.0; 
stroke:#008484; stroke-width:0; stroke-opacity:1; 
stroke-linecap:round; stroke-linejoin:round;">
<g >
</g>
<g style="fill:#840000; fill-opacity:0.0; 
stroke:#840000; stroke-width:0; stroke-opacity:1; 
stroke-linecap:round; stroke-linejoin:round;">
</g>
<g style="fill:#840000; fill-opacity:0.0; 
stroke:#840000; stroke-width:100; stroke-opacity:1; 
stroke-linecap:round; stroke-linejoin:round;">
<rect x="40250" y="14600" width="2000" height="800" rx="0" />
</g>
<g style="fill:#840000; fill-opacity:0.0; 
stroke:#840000; stroke-width:60; stroke-opacity:1; 
stroke-linecap:round; stroke-linejoin:round;">
<path d="M42250 15000
L42750 15000
" />
<path d="M40250 15000
L39750 15000
" />
</g>
<g style="fill:#008484; fill-opacity:0.0; 
stroke:#008484; stroke-width:60; stroke-opacity:1; 
stroke-linecap:round; stroke-linejoin:round;">
<text x="41250" y="13200"
textLength="1040" font-size="660" lengthAdjust="spacingAndGlyphs"
text-anchor="middle" opacity="0">R1</text>
<path d="M41160 13170
L41000 12930
" />
<path d="M40880 13170
L40880 12670
L41070 12670
L41110 12700
L41140 12720
L41160 12770
L41160 12840
L41140 12890
L41110 12910
L41070 12930
L40880 12930
" />
<path d="M41640 13170
L41350 13170
" />
<path d="M41500 13170
L41500 12670
L41450 12740
L41400 12790
L41350 12810
" />
<text x="41250" y="14110"
textLength="1990" font-size="660" lengthAdjust="spacingAndGlyphs"
text-anchor="middle" opacity="0">220R</text>
<path d="M40380 13630
L40400 13610
L40450 13580
L40570 13580
L40610 13610
L40640 13630
L40660 13680
L40660 13720
L40640 13800
L40350 14080
L40660 14080
" />
<path d="M40850 13630
L40880 13610
L40920 13580
L41040 13580
L41090 13610
L41110 13630
L41140 13680
L41140 13720
L41110 13800
L40830 14080
L41140 14080
" />
<path d="M41450 13580
L41500 13580
L41540 13610
L41570 13630
L41590 13680
L41610 13770
L41610 13890
L41590 13990
L41570 14030
L41540 14060
L41500 14080
L41450 14080
L41400 14060
L41380 14030
L41350 13990
L41330 13890
L41330 13770
L41350 13680
L41380 13630
L41400 13610
L41450 13580
" />
<path d="M42110 14080
L41950 13840
" />
<path d="M41830 14080
L41830 13580
L42020 13580
L42070 13610
L42090 13630
L42110 13680
L42110 13750
L42090 13800
L42070 13820
L42020 13840
L41830 13840
" />
</g>
</g>
<g style="fill:#008484; fill-opacity:0.0; 
stroke:#008484; stroke-width:0; stroke-opacity:1; 
stroke-linecap:round; stroke-linejoin:round;">
<g >
</g>
<g style="fill:#840000; fill-opacity:0.0; 
stroke:#840000; stroke-width:0; stroke-opacity:1; 
stroke-linecap:round; stroke-linejoin:round;">
</g>
<g style="fill:#840000; fill-opacity:0.0; 
stroke:#840000; stroke-width:60; stroke-opacity:1; 
stroke-linecap:round; stroke-linejoin:round;">
<circle cx="40750" cy="49450" r="300" /> 
<path d="M40750 49750
L40750 50750
" />
</g>
<g style="fill:#008484; fill-opacity:0.0; 
stroke:#008484; stroke-width:60; stroke-opacity:1; 
stroke-linecap:round; stroke-linejoin:round;">
<text x="42270" y="50300"
textLength="1890" font-size="660" lengthAdjust="spacingAndGlyphs"
text-anchor="middle" opacity="0">TP50</text>
<path d="M41400 49770
L41680 49770
" />
<path d="M41540 50270
L41540 49770
" />
<path d="M41850 50270
L41850 49770
L42040 49770
L42090 49800
L42110 49820
L42130 49870
L42130 49940
L42110 49990
L42090 50010
L42040 50030
L41850 50030
" />
<path d="M42590 49770
L42350 49770
L42320 50010
L42350 49990
L42400 49960
L42520 49960
L42560 49990
L42590 50010
L42610 50060
L42610 50180
L42590 50220
L42560 50250
L42520 50270
L42400 50270
L42350 50250
L42320 50220
" />
<path d="M42920 49770
L42970 49770
L43020 49800
L43040 49820
L43060 49870
L43090 49960
L43090 50080
L43060 50180
L43040 50220
L43020 50250
L42970 50270
L42920 50270
L42870 50250
L42850 50220
L42820 50180
L42800 50080
L42800 49960
L42820 49870
L42850 49820
L42870 49800
L42920 49770
" />
</g>
</g>
<g style="fill:#008484; fill-opacity:0.0; 
stroke:#008484; stroke-width:0; stroke-opacity:1; 
stroke-linecap:round; stroke-linejoin:round;">
<g >
</g>
<g style="fill:#840000; fill-opacity:0.0; 
stroke:#840000; stroke-width:0; stroke-opacity:1; 
stroke-linecap:round; stroke-linejoin:round;">
</g>
<g style="fill:#840000; fill-opacity:0.0; 
stroke:#840000; stroke-width:60; stroke-opacity:1; 
stroke-linecap:round; stroke-linejoin:round;">
<path style="fill:#840000; fill-opacity:0.0; 
stroke:#840000; stroke-width:60; stroke-opacity:1; 
stroke-linecap:round; stroke-linejoin:round;fill:none"
d="M 50500,54500
50500,55000
51000,55000
50500,55500
50000,55000
50500,55000
" /> 
</g>
<g style="fill:#008484; fill-opacity:0.0; 
stroke:#008484; stroke-width:60; stroke-opacity:1; 
stroke-linecap:round; stroke-linejoin:round;">
<text x="50550" y="56500"
textLength="2060" font-size="660" lengthAdjust="spacingAndGlyphs"
text-anchor="middle" opacity="0">GNDS</text>
<path d="M49930 56000
L49880 55970
L49810 55970
L49740 56000
L49690 56040
L49660 56090
L49640 56190
L49640 56260
L49660 56350
L49690 56400
L49740 56450
L49810 56470
L49850 56470
L49930 56450
L49950 56420
L49950 56260
L49850 56260
" />
<path d="M50160 56470
L50160 55970
L50450 56470
L50450 55970
" />
<path d="M50690 56470
L50690 55970
L50810 55970
L50880 56000
L50930 56040
L50950 56090
L50970 56190
L50970 56260
L50950 56350
L50930 56400
L50880 56450
L50810 56470
L50690 56470
" />
<path d="M51160 56450
L51240 56470
L51350 56470
L51400 56450
L51430 56420
L51450 56380
L51450 56330
L51430 56280
L51400 56260
L51350 56230
L51260 56210
L51210 56190
L51190 56160
L51160 56110
L51160 56070
L51190 56020
L51210 56000
L51260 55970
L51380 55970
L51450 56000
" />
</g>
</g>
<g style="fill:#008484; fill-opacity:0.0; 
stroke:#008484; stroke-width:0; stroke-opacity:1; 
stroke-linecap:round; stroke-linejoin:round;">
<g >
</g>
<g style="fill:#840000; fill-opacity:0.0; 
stroke:#840000; stroke-width:0; stroke-opacity:1; 
stroke-linecap:round; stroke-linejoin:round;">
</g>
<g style="fill:#840000; fill-opacity:0.0; 
stroke:#840000; stroke-width:60; stroke-opacity:1; 
stroke-linecap:round; stroke-linejoin:round;">
<path style="fill:#840000; fill-opacity:0.0; 
stroke:#840000; stroke-width:60; stroke-opacity:1; 
stroke-linecap:round; stroke-linejoin:round;fill:none"
d="M 50200,48500
50500,48000
" /> 
<path style="fill:#840000; fill-opacity:0.0; 
stroke:#840000; stroke-width:60; stroke-opacity:1; 
stroke-linecap:round; stroke-linejoin:round;fill:none"
d="M 50500,49000
50500,48000
" /> 
<path style="fill:#840000; fill-opacity:0.0; 
stroke:#840000; stroke-width:60; stroke-opacity:1; 
stroke-linecap:round; stroke-linejoin:round;fill:none"
d="M 50500,48000
50800,48500
" /> 
</g>
<g style="fill:#008484; fill-opacity:0.0; 
stroke:#008484; stroke-width:60; stroke-opacity:1; 
stroke-linecap:round; stroke-linejoin:round;">
<text x="50650" y="47540"
textLength="2300" font-size="660" lengthAdjust="spacingAndGlyphs"
text-anchor="middle" opacity="0">+3.3V</text>
<path d="M49650 47320
L50030 47320
" />
<path d="M49840 47510
L49840 47130
" />
<path d="M50220 47010
L50530 47010
L50360 47200
L50430 47200
L50480 47230
L50500 47250
L50530 47300
L50530 47420
L50500 47460
L50480 47490
L50430 47510
L50290 47510
L50240 47490
L50220 47460
" />
<path d="M50740 47460
L50760 47490
L50740 47510
L50720 47490
L50740 47460
L50740 47510
" />
<path d="M50930 47010
L51240 47010
L51070 47200
L51150 47200
L51190 47230
L51220 47250
L51240 47300
L51240 47420
L51220 47460
L51190 47490
L51150 47510
L51000 47510
L50950 47490
L50930 47460
" />
<path d="M51380 47010
L51550 47510
L51720 47010
" />
</g>
</g>
<g style="fill:#008484; fill-opacity:0.0; 
stroke:#008484; stroke-width:0; stroke-opacity:1; 
stroke-linecap:round; stroke-linejoin:round;">
<g >
</g>
<g style="fill:#840000; fill-opacity:0.0; 
stroke:#840000; stroke-width:0; stroke-opacity:1; 
stroke-linecap:round; stroke-linejoin:round;">
</g>
<g style="fill:#840000; fill-opacity:0.0; 
stroke:#840000; stroke-width:100; stroke-opacity:1; 
stroke-linecap:round; stroke-linejoin:round;">
<path style="fill:#840000; fill-opacity:0.0; 
stroke:#840000; stroke-width:100; stroke-opacity:1; 
stroke-linecap:round; stroke-linejoin:round;fill:none"
d="M 49000,51000
49000,53000
51500,52000
Z" /> 
</g>
<g style="fill:#840000; fill-opacity:0.0; 
stroke:#840000; stroke-width:60; stroke-opacity:1; 
stroke-linecap:round; stroke-linejoin:round;">
<path d="M49000 52000
L47500 52000
" />
<text x="48250" y="51900"
textLength="440" font-size="530" lengthAdjust="spacingAndGlyphs"
text-anchor="middle" opacity="0">2</text>
<path d="M48130 51510
L48150 51500
L48190 51480
L48280 51480
L48320 51500
L48340 51510
L48360 51550
L48360 51590
L48340 51650
L48110 51880
L48360 51880
" />
<path d="M51500 52000
L53000 52000
" />
<text x="52250" y="51900"
textLength="440" font-size="530" lengthAdjust="spacingAndGlyphs"
text-anchor="middle" opacity="0">4</text>
<path d="M52320 51610
L52320 51880
" />
<path d="M52230 51460
L52130 51740
L52380 51740
" />
</g>
<g style="fill:#008484; fill-opacity:0.0; 
stroke:#008484; stroke-width:60; stroke-opacity:1; 
stroke-linecap:round; stroke-linejoin:round;">
<text x="45500" y="49520"
textLength="1540" font-size="660" lengthAdjust="spacingAndGlyphs"
text-anchor="middle" opacity="0">U42</text>
<path d="M44880 48990
L44880 49400
L44900 49440
L44920 49470
L44970 49490
L45070 49490
L45110 49470
L45140 49440
L45160 49400
L45160 48990
" />
<path d="M45610 49160
L45610 49490
" />
<path d="M45500 48970
L45380 49320
L45690 49320
" />
<path d="M45850 49040
L45880 49020
L45920 48990
L46040 48990
L46090 49020
L46110 49040
L46140 49090
L46140 49130
L46110 49210
L45830 49490
L46140 49490
" />
<text x="47000" y="50520"
textLength="4270" font-size="660" lengthAdjust="spacingAndGlyphs"
text-anchor="middle" opacity="0">74LVC1G34</text>
<path d="M44960 49990
L45290 49990
L45080 50490
" />
<path d="M45700 50160
L45700 50490
" />
<path d="M45580 49970
L45460 50320
L45770 50320
" />
<path d="M46200 50490
L45960 50490
L45960 49990
" />
<path d="M46290 49990
L46460 50490
L46630 49990
" />
<path d="M47080 50440
L47050 50470
L46980 50490
L46940 50490
L46860 50470
L46820 50420
L46790 50370
L46770 50280
L46770 50210
L46790 50110
L46820 50060
L46860 50020
L46940 49990
L46980 49990
L47050 50020
L47080 50040
" />
<path d="M47550 50490
L47270 50490
" />
<path d="M47410 50490
L47410 49990
L47360 50060
L47320 50110
L47270 50130
" />
<path d="M48030 50020
L47980 49990
L47910 49990
L47840 50020
L47790 50060
L47770 50110
L47750 50210
L47750 50280
L47770 50370
L47790 50420
L47840 50470
L47910 50490
L47960 50490
L48030 50470
L48050 50440
L48050 50280
L47960 50280
" />
<path d="M48220 49990
L48530 49990
L48360 50180
L48440 50180
L48480 50210
L48510 50230
L48530 50280
L48530 50400
L48510 50440
L48480 50470
L48440 50490
L48290 50490
L48250 50470
L48220 50440
" />
<path d="M48960 50160
L48960 50490
" />
<path d="M48840 49970
L48720 50320
L49030 50320
" />
</g>
</g>
<g style="fill:#008484; fill-opacity:0.0; 
stroke:#008484; stroke-width:0; stroke-opacity:1; 
stroke-linecap:round; stroke-linejoin:round;">
<g >
</g>
<g style="fill:#840000; fill-opacity:0.0; 
stroke:#840000; stroke-width:0; stroke-opacity:1; 
stroke-linecap:round; stroke-linejoin:round;">
</g>
<g style="fill:#840000; fill-opacity:0.0; 
stroke:#840000; stroke-width:100; stroke-opacity:1; 
stroke-linecap:round; stroke-linejoin:round;">
<rect x="58000" y="51600" width="2000" height="800" rx="0" />
</g>
<g style="fill:#840000; fill-opacity:0.0; 
stroke:#840000; stroke-width:60; stroke-opacity:1; 
stroke-linecap:round; stroke-linejoin:round;">
<path d="M58000 52000
L57500 52000
" />
<path d="M60000 52000
L60500 52000
" />
</g>
<g style="fill:#008484; fill-opacity:0.0; 
stroke:#008484; stroke-width:60; stroke-opacity:1; 
stroke-linecap:round; stroke-linejoin:round;">
<text x="59000" y="50200"
textLength="1040" font-size="660" lengthAdjust="spacingAndGlyphs"
text-anchor="middle" opacity="0">R2</text>
<path d="M58910 50170
L58750 49930
" />
<path d="M58630 50170
L58630 49670
L58820 49670
L58860 49700
L58890 49720
L58910 49770
L58910 49840
L58890 49890
L58860 49910
L58820 49930
L58630 49930
" />
<path d="M59100 49720
L59130 49700
L59170 49670
L59290 49670
L59340 49700
L59360 49720
L59390 49770
L59390 49810
L59360 49890
L59080 50170
L59390 50170
" />
<text x="58990" y="51110"
textLength="1990" font-size="660" lengthAdjust="spacingAndGlyphs"
text-anchor="middle" opacity="0">220R</text>
<path d="M58120 50630
L58140 50610
L58190 50580
L58310 50580
L58350 50610
L58380 50630
L58400 50680
L58400 50720
L58380 50800
L58090 51080
L58400 51080
" />
<path d="M58590 50630
L58620 50610
L58660 50580
L58780 50580
L58830 50610
L58850 50630
L58880 50680
L58880 50720
L58850 50800
L58570 51080
L58880 51080
" />
<path d="M59190 50580
L59240 50580
L59280 50610
L59310 50630
L59330 50680
L59350 50770
L59350 50890
L59330 50990
L59310 51030
L59280 51060
L59240 51080
L59190 51080
L59140 51060
L59120 51030
L59090 50990
L59070 50890
L59070 50770
L59090 50680
L59120 50630
L59140 50610
L59190 50580
" />
<path d="M59850 51080
L59690 50840
" />
<path d="M59570 51080
L59570 50580
L59760 50580
L59810 50610
L59830 50630
L59850 50680
L59850 50750
L59830 50800
L59810 50820
L59760 50840
L59570 50840
" />
</g>
</g>
<g style="fill:#008484; fill-opacity:0.0; 
stroke:#008484; stroke-width:0; stroke-opacity:1; 
stroke-linecap:round; stroke-linejoin:round;">
<g >
</g>
<g style="fill:#840000; fill-opacity:0.0; 
stroke:#840000; stroke-width:0; stroke-opacity:1; 
stroke-linecap:round; stroke-linejoin:round;">
</g>
<g style="fill:#840000; fill-opacity:0.0; 
stroke:#840000; stroke-width:100; stroke-opacity:1; 
stroke-linecap:round; stroke-linejoin:round;">
<rect x="70100" y="40500" width="800" height="2000" rx="0" />
</g>
<g style="fill:#840000; fill-opacity:0.0; 
stroke:#840000; stroke-width:60; stroke-opacity:1; 
stroke-linecap:round; stroke-linejoin:round;">
<path d="M70500 42500
L70500 43000
" />
<path d="M70500 40500
L70500 40000
" />
</g>
<g style="fill:#008484; fill-opacity:0.0; 
stroke:#008484; stroke-width:60; stroke-opacity:1; 
stroke-linecap:round; stroke-linejoin:round;">
<text x="69280" y="41260"
textLength="1040" font-size="660" lengthAdjust="spacingAndGlyphs"
text-anchor="middle" opacity="0">R3</text>
<path d="M69190 41230
L69030 40990
" />
<path d="M68910 41230
L68910 40730
L69100 40730
L69140 40760
L69170 40780
L69190 40830
L69190 40900
L69170 40950
L69140 40970
L69100 40990
L68910 40990
" />
<path d="M69360 40730
L69670 40730
L69500 40920
L69570 40920
L69620 40950
L69640 40970
L69670 41020
L69670 41140
L69640 41180
L69620 41210
L69570 41230
L69430 41230
L69380 41210
L69360 41180
" />
<text x="68800" y="42170"
textLength="1990" font-size="660" lengthAdjust="spacingAndGlyphs"
text-anchor="middle" opacity="0">220R</text>
<path d="M67930 41690
L67950 41670
L68000 41640
L68120 41640
L68160 41670
L68190 41690
L68210 41740
L68210 41780
L68190 41860
L67900 42140
L68210 42140
" />
<path d="M68400 41690
L68430 41670
L68470 41640
L68590 41640
L68640 41670
L68660 41690
L68690 41740
L68690 41780
L68660 41860
L68380 42140
L68690 42140
" />
<path d="M69000 41640
L69050 41640
L69090 41670
L69120 41690
L69140 41740
L69160 41830
L69160 41950
L69140 42050
L69120 42090
L69090 42120
L69050 42140
L69000 42140
L68950 42120
L68930 42090
L68900 42050
L68880 41950
L68880 41830
L68900 41740
L68930 41690
L68950 41670
L69000 41640
" />
<path d="M69660 42140
L69500 41900
" />
<path d="M69380 42140
L69380 41640
L69570 41640
L69620 41670
L69640 41690
L69660 41740
L69660 41810
L69640 41860
L69620 41880
L69570 41900
L69380 41900
" />
</g>
</g>
<g style="fill:#008484; fill-opacity:0.0; 
stroke:#008484; stroke-width:0; stroke-opacity:1; 
stroke-linecap:round; stroke-linejoin:round;">
<g >
</g>
<g style="fill:#840000; fill-opacity:0.0; 
stroke:#840000; stroke-width:0; stroke-opacity:1; 
stroke-linecap:round; stroke-linejoin:round;">
</g>
<g style="fill:#FFFFC2; fill-opacity:0.0; 
stroke:#FFFFC2; stroke-width:0; stroke-opacity:1; 
stroke-linecap:round; stroke-linejoin:round;">
</g>
<g style="fill:#FFFFC2; fill-opacity:0.6; 
stroke:#FFFFC2; stroke-width:0; stroke-opacity:1; 
stroke-linecap:round; stroke-linejoin:round;">
<rect x="55000" y="16000" width="4000" height="5000" rx="0" />
</g>
<g style="fill:#840000; fill-opacity:0.6; 
stroke:#840000; stroke-width:0; stroke-opacity:1; 
stroke-linecap:round; stroke-linejoin:round;">
</g>
<g style="fill:#840000; fill-opacity:0.0; 
stroke:#840000; stroke-width:100; stroke-opacity:1; 
stroke-linecap:round; stroke-linejoin:round;">
<rect x="55000" y="16000" width="4000" height="5000" rx="0" />
</g>
<g style="fill:#840000; fill-opacity:0.0; 
stroke:#840000; stroke-width:60; stroke-opacity:1; 
stroke-linecap:round; stroke-linejoin:round;">
<circle cx="58000" cy="17500" r="50" /> 
</g>
<g style="fill:#840000; fill-opacity:0.0; 
stroke:#840000; stroke-width:100; stroke-opacity:1; 
stroke-linecap:round; stroke-linejoin:round;">
<rect x="55000" y="16000" width="4000" height="5000" rx="0" />
<path style="fill:#840000; fill-opacity:0.0; 
stroke:#840000; stroke-width:100; stroke-opacity:1; 
stroke-linecap:round; stroke-linejoin:round;fill:none"
d="M 55500,18750
56000,18750
" /> 
<path style="fill:#840000; fill-opacity:0.0; 
stroke:#840000; stroke-width:100; stroke-opacity:1; 
stroke-linecap:round; stroke-linejoin:round;fill:none"
d="M 57750,16750
58250,16750
" /> 
</g>
<g style="fill:#840000; fill-opacity:0.0; 
stroke:#840000; stroke-width:140; stroke-opacity:1; 
stroke-linecap:round; stroke-linejoin:round;">
<path style="fill:#840000; fill-opacity:0.0; 
stroke:#840000; stroke-width:140; stroke-opacity:1; 
stroke-linecap:round; stroke-linejoin:round;fill:none"
d="M 58250,19600
58250,20400
" /> 
</g>
<g style="fill:#840000; fill-opacity:0.0; 
stroke:#840000; stroke-width:60; stroke-opacity:1; 
stroke-linecap:round; stroke-linejoin:round;">
<path style="fill:#840000; fill-opacity:0.0; 
stroke:#840000; stroke-width:60; stroke-opacity:1; 
stroke-linecap:round; stroke-linejoin:round;fill:none"
d="M 58300,20050
58750,20500
" /> 
<path style="fill:#840000; fill-opacity:0.0; 
stroke:#840000; stroke-width:60; stroke-opacity:1; 
stroke-linecap:round; stroke-linejoin:round;fill:none"
d="M 58300,19950
58750,19500
" /> 
<path style="fill:#840000; fill-opacity:0.0; 
stroke:#840000; stroke-width:60; stroke-opacity:1; 
stroke-linecap:round; stroke-linejoin:round;fill:none"
d="M 59000,20500
58750,20500
" /> 
<path style="fill:#840000; fill-opacity:0.0; 
stroke:#840000; stroke-width:60; stroke-opacity:1; 
stroke-linecap:round; stroke-linejoin:round;fill:none"
d="M 59000,19500
58750,19500
" /> 
<path style="fill:#840000; fill-opacity:0.0; 
stroke:#840000; stroke-width:60; stroke-opacity:1; 
stroke-linecap:round; stroke-linejoin:round;fill:none"
d="M 59000,17500
58000,17500
" /> 
<path style="fill:#840000; fill-opacity:0.0; 
stroke:#840000; stroke-width:60; stroke-opacity:1; 
stroke-linecap:round; stroke-linejoin:round;fill:none"
d="M 55000,17500
55750,17500
55750,19500
55000,19500
" /> 
</g>
<g style="fill:#840000; fill-opacity:0.0; 
stroke:#840000; stroke-width:100; stroke-opacity:1; 
stroke-linecap:round; stroke-linejoin:round;">
<path style="fill:#840000; fill-opacity:0.0; 
stroke:#840000; stroke-width:100; stroke-opacity:1; 
stroke-linecap:round; stroke-linejoin:round;fill:none"
d="M 55750,18750
55500,18250
56000,18250
Z" /> 
<path style="fill:#840000; fill-opacity:0.0; 
stroke:#840000; stroke-width:100; stroke-opacity:1; 
stroke-linecap:round; stroke-linejoin:round;fill:none"
d="M 58000,16750
57750,17250
58250,17250
Z" /> 
</g>
<g style="fill:#840000; fill-opacity:0.0; 
stroke:#840000; stroke-width:60; stroke-opacity:1; 
stroke-linecap:round; stroke-linejoin:round;">
<path style="fill:#840000; fill-opacity:0.0; 
stroke:#840000; stroke-width:60; stroke-opacity:1; 
stroke-linecap:round; stroke-linejoin:round;fill:none"
d="M 58700,20450
58600,20250
58500,20350
Z" /> 
<path style="fill:#840000; fill-opacity:0.0; 
stroke:#840000; stroke-width:60; stroke-opacity:1; 
stroke-linecap:round; stroke-linejoin:round;fill:none"
d="M 59000,16500
58000,16500
58000,20000
58250,20000
" /> 
<path style="fill:#840000; fill-opacity:0.0; 
stroke:#840000; stroke-width:60; stroke-opacity:1; 
stroke-linecap:round; stroke-linejoin:round;fill:none"
d="M 56800,18400
57300,18400
57150,18450
57150,18350
57300,18400
" /> 
<path style="fill:#840000; fill-opacity:0.0; 
stroke:#840000; stroke-width:60; stroke-opacity:1; 
stroke-linecap:round; stroke-linejoin:round;fill:none"
d="M 56800,18000
57300,18000
57150,18050
57150,17950
57300,18000
" /> 
<path d="M55000 17500
L54000 17500
" />
<text x="54500" y="17400"
textLength="540" font-size="660" lengthAdjust="spacingAndGlyphs"
text-anchor="middle" opacity="0">2</text>
<path d="M54350 16920
L54380 16900
L54420 16870
L54540 16870
L54590 16900
L54610 16920
L54640 16970
L54640 17010
L54610 17090
L54330 17370
L54640 17370
" />
<path d="M55000 19500
L54000 19500
" />
<text x="54500" y="19400"
textLength="540" font-size="660" lengthAdjust="spacingAndGlyphs"
text-anchor="middle" opacity="0">3</text>
<path d="M54330 18870
L54640 18870
L54470 19060
L54540 19060
L54590 19090
L54610 19110
L54640 19160
L54640 19280
L54610 19320
L54590 19350
L54540 19370
L54400 19370
L54350 19350
L54330 19320
" />
<path d="M59000 20500
L60000 20500
" />
<text x="59500" y="20400"
textLength="540" font-size="660" lengthAdjust="spacingAndGlyphs"
text-anchor="middle" opacity="0">5</text>
<path d="M59610 19870
L59380 19870
L59350 20110
L59380 20090
L59420 20060
L59540 20060
L59590 20090
L59610 20110
L59640 20160
L59640 20280
L59610 20320
L59590 20350
L59540 20370
L59420 20370
L59380 20350
L59350 20320
" />
<path d="M59000 19500
L60000 19500
" />
<text x="59500" y="19400"
textLength="540" font-size="660" lengthAdjust="spacingAndGlyphs"
text-anchor="middle" opacity="0">6</text>
<path d="M59590 18870
L59500 18870
L59450 18900
L59420 18920
L59380 18990
L59350 19090
L59350 19280
L59380 19320
L59400 19350
L59450 19370
L59540 19370
L59590 19350
L59610 19320
L59640 19280
L59640 19160
L59610 19110
L59590 19090
L59540 19060
L59450 19060
L59400 19090
L59380 19110
L59350 19160
" />
<path d="M59000 17500
L60000 17500
" />
<text x="59500" y="17400"
textLength="540" font-size="660" lengthAdjust="spacingAndGlyphs"
text-anchor="middle" opacity="0">7</text>
<path d="M59330 16870
L59660 16870
L59450 17370
" />
<path d="M59000 16500
L60000 16500
" />
<text x="59500" y="16400"
textLength="540" font-size="660" lengthAdjust="spacingAndGlyphs"
text-anchor="middle" opacity="0">8</text>
<path d="M59450 16090
L59400 16060
L59380 16040
L59350 15990
L59350 15970
L59380 15920
L59400 15900
L59450 15870
L59540 15870
L59590 15900
L59610 15920
L59640 15970
L59640 15990
L59610 16040
L59590 16060
L59540 16090
L59450 16090
L59400 16110
L59380 16130
L59350 16180
L59350 16280
L59380 16320
L59400 16350
L59450 16370
L59540 16370
L59590 16350
L59610 16320
L59640 16280
L59640 16180
L59610 16130
L59590 16110
L59540 16090
" />
</g>
<g style="fill:#008484; fill-opacity:0.0; 
stroke:#008484; stroke-width:60; stroke-opacity:1; 
stroke-linecap:round; stroke-linejoin:round;">
<text x="57000" y="14520"
textLength="1540" font-size="660" lengthAdjust="spacingAndGlyphs"
text-anchor="middle" opacity="0">U43</text>
<path d="M56380 13990
L56380 14400
L56400 14440
L56420 14470
L56470 14490
L56570 14490
L56610 14470
L56640 14440
L56660 14400
L56660 13990
" />
<path d="M57110 14160
L57110 14490
" />
<path d="M57000 13970
L56880 14320
L57190 14320
" />
<path d="M57330 13990
L57640 13990
L57470 14180
L57540 14180
L57590 14210
L57610 14230
L57640 14280
L57640 14400
L57610 14440
L57590 14470
L57540 14490
L57400 14490
L57350 14470
L57330 14440
" />
<text x="57000" y="15430"
textLength="2960" font-size="660" lengthAdjust="spacingAndGlyphs"
text-anchor="middle" opacity="0">6N135S</text>
<path d="M55880 14900
L55780 14900
L55730 14930
L55710 14950
L55660 15020
L55640 15120
L55640 15310
L55660 15350
L55690 15380
L55730 15400
L55830 15400
L55880 15380
L55900 15350
L55920 15310
L55920 15190
L55900 15140
L55880 15120
L55830 15090
L55730 15090
L55690 15120
L55660 15140
L55640 15190
" />
<path d="M56140 15400
L56140 14900
L56420 15400
L56420 14900
" />
<path d="M56920 15400
L56640 15400
" />
<path d="M56780 15400
L56780 14900
L56730 14970
L56690 15020
L56640 15040
" />
<path d="M57090 14900
L57400 14900
L57230 15090
L57300 15090
L57350 15120
L57380 15140
L57400 15190
L57400 15310
L57380 15350
L57350 15380
L57300 15400
L57160 15400
L57110 15380
L57090 15350
" />
<path d="M57850 14900
L57610 14900
L57590 15140
L57610 15120
L57660 15090
L57780 15090
L57830 15120
L57850 15140
L57880 15190
L57880 15310
L57850 15350
L57830 15380
L57780 15400
L57660 15400
L57610 15380
L57590 15350
" />
<path d="M58070 15380
L58140 15400
L58260 15400
L58300 15380
L58330 15350
L58350 15310
L58350 15260
L58330 15210
L58300 15190
L58260 15160
L58160 15140
L58110 15120
L58090 15090
L58070 15040
L58070 15000
L58090 14950
L58110 14930
L58160 14900
L58280 14900
L58350 14930
" />
</g>
</g>
<g style="fill:#008484; fill-opacity:0.0; 
stroke:#008484; stroke-width:0; stroke-opacity:1; 
stroke-linecap:round; stroke-linejoin:round;">
<g >
</g>
<g style="fill:#840000; fill-opacity:0.0; 
stroke:#840000; stroke-width:0; stroke-opacity:1; 
stroke-linecap:round; stroke-linejoin:round;">
</g>
<g style="fill:#840000; fill-opacity:0.0; 
stroke:#840000; stroke-width:100; stroke-opacity:1; 
stroke-linecap:round; stroke-linejoin:round;">
<path d="M71499.5 49250 A2010 2010 0.0 0 0 73495.8 47551" />
<path d="M71496.5 45250 A2000 2000 0.0 0 0 71496.5 49250" />
<path d="M73495.8 46949 A2010 2010 0.0 0 0 71499.5 45250" />
</g>
<g style="fill:#840000; fill-opacity:0.0; 
stroke:#840000; stroke-width:60; stroke-opacity:1; 
stroke-linecap:round; stroke-linejoin:round;">
<circle cx="72100" cy="46150" r="200" /> 
<circle cx="70900" cy="46150" r="200" /> 
<circle cx="70200" cy="47250" r="200" /> 
<circle cx="72100" cy="48350" r="200" /> 
<circle cx="70900" cy="48350" r="200" /> 
<path style="fill:#840000; fill-opacity:0.0; 
stroke:#840000; stroke-width:60; stroke-opacity:1; 
stroke-linecap:round; stroke-linejoin:round;fill:none"
d="M 69500,47250
70000,47250
" /> 
<path style="fill:#840000; fill-opacity:0.0; 
stroke:#840000; stroke-width:60; stroke-opacity:1; 
stroke-linecap:round; stroke-linejoin:round;fill:none"
d="M 72500,45250
72500,45550
72250,46000
" /> 
<path style="fill:#840000; fill-opacity:0.0; 
stroke:#840000; stroke-width:60; stroke-opacity:1; 
stroke-linecap:round; stroke-linejoin:round;fill:none"
d="M 70500,45250
70500,45550
70750,46000
" /> 
<path style="fill:#840000; fill-opacity:0.0; 
stroke:#840000; stroke-width:60; stroke-opacity:1; 
stroke-linecap:round; stroke-linejoin:round;fill:none"
d="M 72500,49250
72500,48950
72250,48500
" /> 
<path style="fill:#840000; fill-opacity:0.0; 
stroke:#840000; stroke-width:60; stroke-opacity:1; 
stroke-linecap:round; stroke-linejoin:round;fill:none"
d="M 70500,49250
70500,48950
70750,48500
" /> 
</g>
<g style="fill:#840000; fill-opacity:0.0; 
stroke:#840000; stroke-width:100; stroke-opacity:1; 
stroke-linecap:round; stroke-linejoin:round;">
<path style="fill:#840000; fill-opacity:0.0; 
stroke:#840000; stroke-width:100; stroke-opacity:1; 
stroke-linecap:round; stroke-linejoin:round;fill:none"
d="M 73450,46950
73150,46950
73150,47550
73450,47550
" /> 
</g>
<g style="fill:#840000; fill-opacity:0.0; 
stroke:#840000; stroke-width:60; stroke-opacity:1; 
stroke-linecap:round; stroke-linejoin:round;">
<path d="M72500 45250
L72500 44250
" />
<g transform="rotate(-90 72400 44750)">
<text x="72400" y="44750"
textLength="540" font-size="660" lengthAdjust="spacingAndGlyphs"
text-anchor="middle" opacity="0">1</text>
</g>
<path d="M72370 44600
L72370 44890
" />
<path d="M72370 44750
L71870 44750
L71940 44790
L71990 44840
L72010 44890
" />
<path d="M69500 47250
L68500 47250
" />
<text x="69000" y="47150"
textLength="540" font-size="660" lengthAdjust="spacingAndGlyphs"
text-anchor="middle" opacity="0">2</text>
<path d="M68850 46670
L68880 46650
L68920 46620
L69040 46620
L69090 46650
L69110 46670
L69140 46720
L69140 46760
L69110 46840
L68830 47120
L69140 47120
" />
<path d="M72500 49250
L72500 50250
" />
<g transform="rotate(-90 72400 49750)">
<text x="72400" y="49750"
textLength="540" font-size="660" lengthAdjust="spacingAndGlyphs"
text-anchor="middle" opacity="0">3</text>
</g>
<path d="M71870 49910
L71870 49600
L72060 49770
L72060 49700
L72090 49650
L72110 49630
L72160 49600
L72280 49600
L72320 49630
L72350 49650
L72370 49700
L72370 49840
L72350 49890
L72320 49910
" />
<path d="M70500 45250
L70500 44250
" />
<g transform="rotate(-90 70400 44750)">
<text x="70400" y="44750"
textLength="540" font-size="660" lengthAdjust="spacingAndGlyphs"
text-anchor="middle" opacity="0">4</text>
</g>
<path d="M70040 44650
L70370 44650
" />
<path d="M69850 44770
L70200 44890
L70200 44580
" />
<path d="M70500 49250
L70500 50250
" />
<g transform="rotate(-90 70400 49750)">
<text x="70400" y="49750"
textLength="540" font-size="660" lengthAdjust="spacingAndGlyphs"
text-anchor="middle" opacity="0">5</text>
</g>
<path d="M69870 49630
L69870 49860
L70110 49890
L70090 49860
L70060 49820
L70060 49700
L70090 49650
L70110 49630
L70160 49600
L70280 49600
L70320 49630
L70350 49650
L70370 49700
L70370 49820
L70350 49860
L70320 49890
" />
</g>
<g style="fill:#008484; fill-opacity:0.0; 
stroke:#008484; stroke-width:60; stroke-opacity:1; 
stroke-linecap:round; stroke-linejoin:round;">
<text x="74260" y="47060"
textLength="920" font-size="660" lengthAdjust="spacingAndGlyphs"
text-anchor="middle" opacity="0">J2</text>
<path d="M74090 46530
L74090 46890
L74060 46960
L74020 47010
L73950 47030
L73900 47030
" />
<path d="M74300 46580
L74330 46560
L74370 46530
L74490 46530
L74540 46560
L74560 46580
L74590 46630
L74590 46670
L74560 46750
L74280 47030
L74590 47030
" />
<text x="75510" y="47970"
textLength="3420" font-size="660" lengthAdjust="spacingAndGlyphs"
text-anchor="middle" opacity="0">MIDI OUT</text>
<path d="M73950 47940
L73950 47440
L74110 47800
L74280 47440
L74280 47940
" />
<path d="M74520 47940
L74520 47440
" />
<path d="M74760 47940
L74760 47440
L74870 47440
L74950 47470
L74990 47510
L75020 47560
L75040 47660
L75040 47730
L75020 47820
L74990 47870
L74950 47920
L74870 47940
L74760 47940
" />
<path d="M75260 47940
L75260 47440
" />
<path d="M75970 47440
L76060 47440
L76110 47470
L76160 47510
L76180 47610
L76180 47770
L76160 47870
L76110 47920
L76060 47940
L75970 47940
L75920 47920
L75870 47870
L75850 47770
L75850 47610
L75870 47510
L75920 47470
L75970 47440
" />
<path d="M76400 47440
L76400 47850
L76420 47890
L76450 47920
L76490 47940
L76590 47940
L76640 47920
L76660 47890
L76680 47850
L76680 47440
" />
<path d="M76850 47440
L77140 47440
" />
<path d="M76990 47940
L76990 47440
" />
</g>
</g>
<g style="fill:#008484; fill-opacity:0.0; 
stroke:#008484; stroke-width:0; stroke-opacity:1; 
stroke-linecap:round; stroke-linejoin:round;">
<g >
</g>
<g style="fill:#840000; fill-opacity:0.0; 
stroke:#840000; stroke-width:0; stroke-opacity:1; 
stroke-linecap:round; stroke-linejoin:round;">
</g>
<g style="fill:#840000; fill-opacity:0.0; 
stroke:#840000; stroke-width:60; stroke-opacity:1; 
stroke-linecap:round; stroke-linejoin:round;">
<circle cx="72000" cy="16950" r="300" /> 
<path d="M72000 17250
L72000 18250
" />
</g>
<g style="fill:#008484; fill-opacity:0.0; 
stroke:#008484; stroke-width:60; stroke-opacity:1; 
stroke-linecap:round; stroke-linejoin:round;">
<text x="73290" y="17800"
textLength="1420" font-size="660" lengthAdjust="spacingAndGlyphs"
text-anchor="middle" opacity="0">TP2</text>
<path d="M72650 17270
L72940 17270
" />
<path d="M72800 17770
L72800 17270
" />
<path d="M73110 17770
L73110 17270
L73300 17270
L73340 17300
L73370 17320
L73390 17370
L73390 17440
L73370 17490
L73340 17510
L73300 17530
L73110 17530
" />
<path d="M73580 17320
L73610 17300
L73650 17270
L73770 17270
L73820 17300
L73840 17320
L73870 17370
L73870 17410
L73840 17490
L73560 17770
L73870 17770
" />
</g>
</g>
<g style="fill:#008484; fill-opacity:0.0; 
stroke:#008484; stroke-width:0; stroke-opacity:1; 
stroke-linecap:round; stroke-linejoin:round;">
<g >
</g>
<g style="fill:#840000; fill-opacity:0.0; 
stroke:#840000; stroke-width:0; stroke-opacity:1; 
stroke-linecap:round; stroke-linejoin:round;">
</g>
<g style="fill:#840000; fill-opacity:0.0; 
stroke:#840000; stroke-width:100; stroke-opacity:1; 
stroke-linecap:round; stroke-linejoin:round;">
<path style="fill:#840000; fill-opacity:0.0; 
stroke:#840000; stroke-width:100; stroke-opacity:1; 
stroke-linecap:round; stroke-linejoin:round;fill:none"
d="M 46500,18250
45500,18250
" /> 
</g>
<g style="fill:#840000; fill-opacity:0.0; 
stroke:#840000; stroke-width:60; stroke-opacity:1; 
stroke-linecap:round; stroke-linejoin:round;">
<path style="fill:#840000; fill-opacity:0.0; 
stroke:#840000; stroke-width:60; stroke-opacity:1; 
stroke-linecap:round; stroke-linejoin:round;fill:none"
d="M 46000,19250
46000,18250
" /> 
</g>
<g style="fill:#840000; fill-opacity:0.0; 
stroke:#840000; stroke-width:100; stroke-opacity:1; 
stroke-linecap:round; stroke-linejoin:round;">
<path style="fill:#840000; fill-opacity:0.0; 
stroke:#840000; stroke-width:100; stroke-opacity:1; 
stroke-linecap:round; stroke-linejoin:round;fill:none"
d="M 46500,19250
45500,19250
46000,18250
Z" /> 
</g>
<g style="fill:#840000; fill-opacity:0.0; 
stroke:#840000; stroke-width:60; stroke-opacity:1; 
stroke-linecap:round; stroke-linejoin:round;">
<path d="M46000 18250
L46000 17250
" />
<path d="M46000 19250
L46000 20250
" />
</g>
<g style="fill:#008484; fill-opacity:0.0; 
stroke:#008484; stroke-width:60; stroke-opacity:1; 
stroke-linecap:round; stroke-linejoin:round;">
<text x="47320" y="18560"
textLength="1040" font-size="660" lengthAdjust="spacingAndGlyphs"
text-anchor="middle" opacity="0">D2</text>
<path d="M46950 18530
L46950 18030
L47070 18030
L47140 18060
L47180 18100
L47210 18150
L47230 18250
L47230 18320
L47210 18410
L47180 18460
L47140 18510
L47070 18530
L46950 18530
" />
<path d="M47420 18080
L47450 18060
L47490 18030
L47610 18030
L47660 18060
L47680 18080
L47710 18130
L47710 18170
L47680 18250
L47400 18530
L47710 18530
" />
<text x="48280" y="19470"
textLength="2960" font-size="660" lengthAdjust="spacingAndGlyphs"
text-anchor="middle" opacity="0">1N4148</text>
<path d="M47200 19440
L46920 19440
" />
<path d="M47060 19440
L47060 18940
L47010 19010
L46970 19060
L46920 19080
" />
<path d="M47420 19440
L47420 18940
L47700 19440
L47700 18940
" />
<path d="M48160 19110
L48160 19440
" />
<path d="M48040 18920
L47920 19270
L48230 19270
" />
<path d="M48680 19440
L48390 19440
" />
<path d="M48540 19440
L48540 18940
L48490 19010
L48440 19060
L48390 19080
" />
<path d="M49110 19110
L49110 19440
" />
<path d="M48990 18920
L48870 19270
L49180 19270
" />
<path d="M49440 19160
L49390 19130
L49370 19110
L49350 19060
L49350 19040
L49370 18990
L49390 18970
L49440 18940
L49540 18940
L49580 18970
L49610 18990
L49630 19040
L49630 19060
L49610 19110
L49580 19130
L49540 19160
L49440 19160
L49390 19180
L49370 19200
L49350 19250
L49350 19350
L49370 19390
L49390 19420
L49440 19440
L49540 19440
L49580 19420
L49610 19390
L49630 19350
L49630 19250
L49610 19200
L49580 19180
L49540 19160
" />
</g>
</g>
<g style="fill:#008484; fill-opacity:0.0; 
stroke:#008484; stroke-width:0; stroke-opacity:1; 
stroke-linecap:round; stroke-linejoin:round;">
<g >
</g>
<g style="fill:#840000; fill-opacity:0.0; 
stroke:#840000; stroke-width:0; stroke-opacity:1; 
stroke-linecap:round; stroke-linejoin:round;">
</g>
<g style="fill:#840000; fill-opacity:0.0; 
stroke:#840000; stroke-width:60; stroke-opacity:1; 
stroke-linecap:round; stroke-linejoin:round;">
<path style="fill:#840000; fill-opacity:0.0; 
stroke:#840000; stroke-width:60; stroke-opacity:1; 
stroke-linecap:round; stroke-linejoin:round;fill:none"
d="M 68250,22750
68250,23250
68750,23250
68250,23750
67750,23250
68250,23250
" /> 
</g>
<g style="fill:#008484; fill-opacity:0.0; 
stroke:#008484; stroke-width:60; stroke-opacity:1; 
stroke-linecap:round; stroke-linejoin:round;">
<text x="68300" y="24750"
textLength="2060" font-size="660" lengthAdjust="spacingAndGlyphs"
text-anchor="middle" opacity="0">GNDS</text>
<path d="M67680 24250
L67630 24220
L67560 24220
L67490 24250
L67440 24290
L67410 24340
L67390 24440
L67390 24510
L67410 24600
L67440 24650
L67490 24700
L67560 24720
L67600 24720
L67680 24700
L67700 24670
L67700 24510
L67600 24510
" />
<path d="M67910 24720
L67910 24220
L68200 24720
L68200 24220
" />
<path d="M68440 24720
L68440 24220
L68560 24220
L68630 24250
L68680 24290
L68700 24340
L68720 24440
L68720 24510
L68700 24600
L68680 24650
L68630 24700
L68560 24720
L68440 24720
" />
<path d="M68910 24700
L68990 24720
L69100 24720
L69150 24700
L69180 24670
L69200 24630
L69200 24580
L69180 24530
L69150 24510
L69100 24480
L69010 24460
L68960 24440
L68940 24410
L68910 24360
L68910 24320
L68940 24270
L68960 24250
L69010 24220
L69130 24220
L69200 24250
" />
</g>
</g>
<g style="fill:#008484; fill-opacity:0.0; 
stroke:#008484; stroke-width:0; stroke-opacity:1; 
stroke-linecap:round; stroke-linejoin:round;">
<g >
</g>
<g style="fill:#840000; fill-opacity:0.0; 
stroke:#840000; stroke-width:0; stroke-opacity:1; 
stroke-linecap:round; stroke-linejoin:round;">
</g>
<g style="fill:#840000; fill-opacity:0.0; 
stroke:#840000; stroke-width:100; stroke-opacity:1; 
stroke-linecap:round; stroke-linejoin:round;">
<rect x="64850" y="17000" width="800" height="2000" rx="0" />
</g>
<g style="fill:#840000; fill-opacity:0.0; 
stroke:#840000; stroke-width:60; stroke-opacity:1; 
stroke-linecap:round; stroke-linejoin:round;">
<path d="M65250 19000
L65250 19500
" />
<path d="M65250 17000
L65250 16500
" />
</g>
<g style="fill:#008484; fill-opacity:0.0; 
stroke:#008484; stroke-width:60; stroke-opacity:1; 
stroke-linecap:round; stroke-linejoin:round;">
<text x="66470" y="17760"
textLength="1040" font-size="660" lengthAdjust="spacingAndGlyphs"
text-anchor="middle" opacity="0">R4</text>
<path d="M66380 17730
L66220 17490
" />
<path d="M66100 17730
L66100 17230
L66290 17230
L66330 17260
L66360 17280
L66380 17330
L66380 17400
L66360 17450
L66330 17470
L66290 17490
L66100 17490
" />
<path d="M66810 17400
L66810 17730
" />
<path d="M66690 17210
L66570 17560
L66880 17560
" />
<text x="66700" y="18670"
textLength="1510" font-size="660" lengthAdjust="spacingAndGlyphs"
text-anchor="middle" opacity="0">4K7</text>
<path d="M66300 18310
L66300 18640
" />
<path d="M66180 18120
L66060 18470
L66370 18470
" />
<path d="M66560 18640
L66560 18140
" />
<path d="M66850 18640
L66640 18360
" />
<path d="M66850 18140
L66560 18430
" />
<path d="M67020 18140
L67350 18140
L67140 18640
" />
</g>
</g>
<g style="fill:#008484; fill-opacity:0.0; 
stroke:#008484; stroke-width:60; stroke-opacity:1; 
stroke-linecap:round; stroke-linejoin:round;">
</g>
<g style="fill:#008400; fill-opacity:0.0; 
stroke:#008400; stroke-width:60; stroke-opacity:1; 
stroke-linecap:round; stroke-linejoin:round;">
<path d="M50250 22500
L50250 19500
" />
<path d="M50250 19500
L54000 19500
" />
<path d="M34000 15000
L39750 15000
" />
<path d="M46000 22500
L50250 22500
" />
<path d="M60000 16500
L65250 16500
" />
<path d="M60000 19500
L65250 19500
" />
<path d="M65250 16500
L65250 11250
" />
<path d="M40750 52000
L38750 52000
" />
<path d="M40750 50750
L40750 52000
" />
<path d="M68250 22750
L68250 20500
" />
<path d="M68250 20500
L60000 20500
" />
<path d="M34000 15750
L34000 15000
" />
<path d="M50500 54500
L50500 53000
" />
<path d="M46000 17250
L46000 15000
" />
<path d="M46000 15000
L42750 15000
" />
<path d="M50250 15000
L46000 15000
" />
<path d="M65250 19500
L72000 19500
" />
<path d="M50500 51000
L50500 49000
" />
<path d="M60500 52000
L70500 52000
" />
<path d="M50250 17500
L50250 15000
" />
<path d="M72000 18250
L72000 19500
" />
<path d="M70500 37500
L70500 40000
" />
<path d="M54000 17500
L50250 17500
" />
<path d="M69500 37500
L70500 37500
" />
<path d="M63750 11250
L65250 11250
" />
<path d="M53000 52000
L57500 52000
" />
<path d="M46000 22500
L46000 20250
" />
<path d="M70500 43000
L70500 44250
" />
<path d="M34000 22500
L46000 22500
" />
<path d="M72000 19500
L77000 19500
" />
<path d="M70500 50250
L70500 52000
" />
<path d="M34000 21750
L34000 22500
" />
<path d="M47500 52000
L40750 52000
" />
</g>
<g style="fill:#848400; fill-opacity:0.0; 
stroke:#848400; stroke-width:60; stroke-opacity:1; 
stroke-linecap:round; stroke-linejoin:round;">
<text x="38150" y="52250"
textLength="2850" font-size="660" lengthAdjust="spacingAndGlyphs"
text-anchor="end" opacity="0">MIDI_TX</text>
<path d="M35450 52220
L35450 51720
L35620 52080
L35780 51720
L35780 52220
" />
<path d="M36020 52220
L36020 51720
" />
<path d="M36260 52220
L36260 51720
L36380 51720
L36450 51750
L36500 51790
L36520 51840
L36540 51940
L36540 52010
L36520 52100
L36500 52150
L36450 52200
L36380 52220
L36260 52220
" />
<path d="M36760 52220
L36760 51720
" />
<path d="M36880 52270
L37260 52270
" />
<path d="M37310 51720
L37590 51720
" />
<path d="M37450 52220
L37450 51720
" />
<path d="M37710 51720
L38040 52220
" />
<path d="M38040 51720
L37710 52220
" />
</g>
<g style="fill:#848400; fill-opacity:0.0; 
stroke:#848400; stroke-width:100; stroke-opacity:1; 
stroke-linecap:round; stroke-linejoin:round;">
<path style="fill:#848400; fill-opacity:0.0; 
stroke:#848400; stroke-width:100; stroke-opacity:1; 
stroke-linecap:round; stroke-linejoin:round;fill:none"
d="M 38750,52000
38500,51750
38250,51750
38250,52250
38500,52250
Z" /> 
</g>
<g style="fill:#848400; fill-opacity:0.0; 
stroke:#848400; stroke-width:60; stroke-opacity:1; 
stroke-linecap:round; stroke-linejoin:round;">
<text x="77600" y="19750"
textLength="2960" font-size="660" lengthAdjust="spacingAndGlyphs"
text-anchor="start" opacity="0">MIDI_RX</text>
<path d="M77740 19720
L77740 19220
L77910 19580
L78080 19220
L78080 19720
" />
<path d="M78320 19720
L78320 19220
" />
<path d="M78550 19720
L78550 19220
L78670 19220
L78740 19250
L78790 19290
L78820 19340
L78840 19440
L78840 19510
L78820 19600
L78790 19650
L78740 19700
L78670 19720
L78550 19720
" />
<path d="M79050 19720
L79050 19220
" />
<path d="M79170 19770
L79550 19770
" />
<path d="M79960 19720
L79790 19480
" />
<path d="M79670 19720
L79670 19220
L79860 19220
L79910 19250
L79930 19270
L79960 19320
L79960 19390
L79930 19440
L79910 19460
L79860 19480
L79670 19480
" />
<path d="M80130 19220
L80460 19720
" />
<path d="M80460 19220
L80130 19720
" />
</g>
<g style="fill:#848400; fill-opacity:0.0; 
stroke:#848400; stroke-width:100; stroke-opacity:1; 
stroke-linecap:round; stroke-linejoin:round;">
<path style="fill:#848400; fill-opacity:0.0; 
stroke:#848400; stroke-width:100; stroke-opacity:1; 
stroke-linecap:round; stroke-linejoin:round;fill:none"
d="M 77500,19500
77250,19250
77000,19250
77000,19750
77250,19750
Z" /> 
</g>
<g style="fill:#848400; fill-opacity:0.0; 
stroke:#848400; stroke-width:60; stroke-opacity:1; 
stroke-linecap:round; stroke-linejoin:round;">
<text x="63150" y="11500"
textLength="3180" font-size="660" lengthAdjust="spacingAndGlyphs"
text-anchor="end" opacity="0">MIDI_VIN</text>
<path d="M60120 11470
L60120 10970
L60280 11330
L60450 10970
L60450 11470
" />
<path d="M60690 11470
L60690 10970
" />
<path d="M60920 11470
L60920 10970
L61040 10970
L61120 11000
L61160 11040
L61190 11090
L61210 11190
L61210 11260
L61190 11350
L61160 11400
L61120 11450
L61040 11470
L60920 11470
" />
<path d="M61420 11470
L61420 10970
" />
<path d="M61540 11520
L61920 11520
" />
<path d="M61970 10970
L62140 11470
L62310 10970
" />
<path d="M62470 11470
L62470 10970
" />
<path d="M62710 11470
L62710 10970
L63000 11470
L63000 10970
" />
</g>
<g style="fill:#848400; fill-opacity:0.0; 
stroke:#848400; stroke-width:100; stroke-opacity:1; 
stroke-linecap:round; stroke-linejoin:round;">
<path style="fill:#848400; fill-opacity:0.0; 
stroke:#848400; stroke-width:100; stroke-opacity:1; 
stroke-linecap:round; stroke-linejoin:round;fill:none"
d="M 63750,11250
63500,11000
63250,11000
63250,11500
63500,11500
Z" /> 
</g>
<g style="fill:#848400; fill-opacity:0.0; 
stroke:#848400; stroke-width:60; stroke-opacity:1; 
stroke-linecap:round; stroke-linejoin:round;">
<text x="68900" y="37750"
textLength="3180" font-size="660" lengthAdjust="spacingAndGlyphs"
text-anchor="end" opacity="0">MIDI_VIN</text>
<path d="M65870 37720
L65870 37220
L66030 37580
L66200 37220
L66200 37720
" />
<path d="M66440 37720
L66440 37220
" />
<path d="M66670 37720
L66670 37220
L66790 37220
L66870 37250
L66910 37290
L66940 37340
L66960 37440
L66960 37510
L66940 37600
L66910 37650
L66870 37700
L66790 37720
L66670 37720
" />
<path d="M67170 37720
L67170 37220
" />
<path d="M67290 37770
L67670 37770
" />
<path d="M67720 37220
L67890 37720
L68060 37220
" />
<path d="M68220 37720
L68220 37220
" />
<path d="M68460 37720
L68460 37220
L68750 37720
L68750 37220
" />
</g>
<g style="fill:#848400; fill-opacity:0.0; 
stroke:#848400; stroke-width:100; stroke-opacity:1; 
stroke-linecap:round; stroke-linejoin:round;">
<path style="fill:#848400; fill-opacity:0.0; 
stroke:#848400; stroke-width:100; stroke-opacity:1; 
stroke-linecap:round; stroke-linejoin:round;fill:none"
d="M 69500,37500
69250,37250
69000,37250
69000,37750
69250,37750
Z" /> 
</g>
<g style="fill:#848400; fill-opacity:0.0; 
stroke:#848400; stroke-width:0; stroke-opacity:1; 
stroke-linecap:round; stroke-linejoin:round;">
</g>
<g style="fill:#008400; fill-opacity:0.0; 
stroke:#008400; stroke-width:0; stroke-opacity:1; 
stroke-linecap:round; stroke-linejoin:round;">
</g>
<g style="fill:#008400; fill-opacity:1.0; 
stroke:#008400; stroke-width:100; stroke-opacity:1; 
stroke-linecap:round; stroke-linejoin:round;">
<circle cx="72000" cy="19500" r="200" /> 
</g>
<g style="fill:#008400; fill-opacity:1.0; 
stroke:#008400; stroke-width:0; stroke-opacity:1; 
stroke-linecap:round; stroke-linejoin:round;">
</g>
<g style="fill:#008400; fill-opacity:1.0; 
stroke:#008400; stroke-width:100; stroke-opacity:1; 
stroke-linecap:round; stroke-linejoin:round;">
<circle cx="65250" cy="19500" r="200" /> 
</g>
<g style="fill:#008400; fill-opacity:1.0; 
stroke:#008400; stroke-width:0; stroke-opacity:1; 
stroke-linecap:round; stroke-linejoin:round;">
</g>
<g style="fill:#008400; fill-opacity:1.0; 
stroke:#008400; stroke-width:100; stroke-opacity:1; 
stroke-linecap:round; stroke-linejoin:round;">
<circle cx="46000" cy="15000" r="200" /> 
</g>
<g style="fill:#008400; fill-opacity:1.0; 
stroke:#008400; stroke-width:0; stroke-opacity:1; 
stroke-linecap:round; stroke-linejoin:round;">
</g>
<g style="fill:#008400; fill-opacity:1.0; 
stroke:#008400; stroke-width:100; stroke-opacity:1; 
stroke-linecap:round; stroke-linejoin:round;">
<circle cx="40750" cy="52000" r="200" /> 
</g>
<g style="fill:#008400; fill-opacity:1.0; 
stroke:#008400; stroke-width:0; stroke-opacity:1; 
stroke-linecap:round; stroke-linejoin:round;">
</g>
<g style="fill:#008400; fill-opacity:1.0; 
stroke:#008400; stroke-width:100; stroke-opacity:1; 
stroke-linecap:round; stroke-linejoin:round;">
<circle cx="65250" cy="16500" r="200" /> 
</g>
<g style="fill:#008400; fill-opacity:1.0; 
stroke:#008400; stroke-width:0; stroke-opacity:1; 
stroke-linecap:round; stroke-linejoin:round;">
</g>
<g style="fill:#008400; fill-opacity:1.0; 
stroke:#008400; stroke-width:100; stroke-opacity:1; 
stroke-linecap:round; stroke-linejoin:round;">
<circle cx="46000" cy="22500" r="200" /> 
</g>
<g style="fill:#008400; fill-opacity:1.0; 
stroke:#008400; stroke-width:60; stroke-opacity:1; 
stroke-linecap:round; stroke-linejoin:round;">
</g>
<g style="fill:#000084; fill-opacity:1.0; 
stroke:#000084; stroke-width:60; stroke-opacity:1; 
stroke-linecap:round; stroke-linejoin:round;">
</g>
<g style="fill:#000084; fill-opacity:0.0; 
stroke:#000084; stroke-width:60; stroke-opacity:1; 
stroke-linecap:round; stroke-linejoin:round;">
<path d="M72260 44010
L72740 44490
" />
<path d="M72740 44010
L72260 44490
" />
<path d="M68260 47010
L68740 47490
" />
<path d="M68740 47010
L68260 47490
" />
<path d="M35760 18510
L36240 18990
" />
<path d="M36240 18510
L35760 18990
" />
<path d="M31760 21510
L32240 21990
" />
<path d="M32240 21510
L31760 21990
" />
<path d="M31760 15510
L32240 15990
" />
<path d="M32240 15510
L31760 15990
" />
<path d="M59760 17260
L60240 17740
" />
<path d="M60240 17260
L59760 17740
" />
<path d="M72260 50010
L72740 50490
" />
<path d="M72740 50010
L72260 50490
" />
</g> 
</svg>
