<?xml version="1.0" standalone="no"?>
 <!DOCTYPE svg PUBLIC "-//W3C//DTD SVG 1.1//EN" 
 "http://www.w3.org/Graphics/SVG/1.1/DTD/svg11.dtd"> 
<svg
  xmlns:svg="http://www.w3.org/2000/svg"
  xmlns="http://www.w3.org/2000/svg"
  xmlns:xlink="http://www.w3.org/1999/xlink"
  version="1.1"
  width="29.700220cm" height="21.000720cm" viewBox="0 0 116930 82680">
<title>SVG Picture created as OLED_Display-OLED_Display.svg date 2021/06/05 18:48:45 </title>
  <desc>Picture generated by Eeschema-SVG </desc>
<g style="fill:#000000; fill-opacity:1;stroke:#000000; stroke-opacity:1;
stroke-linecap:round; stroke-linejoin:round;"
 transform="translate(0 0) scale(1 1)">
</g>
<g style="fill:#000000; fill-opacity:0.0; 
stroke:#000000; stroke-width:-10; stroke-opacity:1; 
stroke-linecap:round; stroke-linejoin:round;">
</g>
<g style="fill:#840000; fill-opacity:0.0; 
stroke:#840000; stroke-width:-10; stroke-opacity:1; 
stroke-linecap:round; stroke-linejoin:round;">
</g>
<g style="fill:#840000; fill-opacity:0.0; 
stroke:#840000; stroke-width:100; stroke-opacity:1; 
stroke-linecap:round; stroke-linejoin:round;">
</g>
<g style="fill:#840000; fill-opacity:0.0; 
stroke:#840000; stroke-width:60; stroke-opacity:1; 
stroke-linecap:round; stroke-linejoin:round;">
<rect x="69690" y="65360" width="42520" height="12600" rx="0" />
</g>
<g style="fill:#840000; fill-opacity:0.0; 
stroke:#840000; stroke-width:100; stroke-opacity:1; 
stroke-linecap:round; stroke-linejoin:round;">
</g>
<g style="fill:#840000; fill-opacity:0.0; 
stroke:#840000; stroke-width:60; stroke-opacity:1; 
stroke-linecap:round; stroke-linejoin:round;">
<rect x="3940" y="3940" width="109050" height="74800" rx="0" />
</g>
<g style="fill:#840000; fill-opacity:0.0; 
stroke:#840000; stroke-width:100; stroke-opacity:1; 
stroke-linecap:round; stroke-linejoin:round;">
</g>
<g style="fill:#840000; fill-opacity:0.0; 
stroke:#840000; stroke-width:60; stroke-opacity:1; 
stroke-linecap:round; stroke-linejoin:round;">
<rect x="4720" y="4720" width="107490" height="73240" rx="0" />
</g>
<g style="fill:#840000; fill-opacity:0.0; 
stroke:#840000; stroke-width:100; stroke-opacity:1; 
stroke-linecap:round; stroke-linejoin:round;">
</g>
<g style="fill:#840000; fill-opacity:0.0; 
stroke:#840000; stroke-width:60; stroke-opacity:1; 
stroke-linecap:round; stroke-linejoin:round;">
<path d="M23620 4720
L23620 3940
" />
</g>
<g style="fill:#840000; fill-opacity:0.0; 
stroke:#840000; stroke-width:100; stroke-opacity:1; 
stroke-linecap:round; stroke-linejoin:round;">
</g>
<g style="fill:#840000; fill-opacity:0.0; 
stroke:#840000; stroke-width:60; stroke-opacity:1; 
stroke-linecap:round; stroke-linejoin:round;">
<path d="M43310 4720
L43310 3940
" />
</g>
<g style="fill:#840000; fill-opacity:0.0; 
stroke:#840000; stroke-width:100; stroke-opacity:1; 
stroke-linecap:round; stroke-linejoin:round;">
</g>
<g style="fill:#840000; fill-opacity:0.0; 
stroke:#840000; stroke-width:60; stroke-opacity:1; 
stroke-linecap:round; stroke-linejoin:round;">
<path d="M62990 4720
L62990 3940
" />
</g>
<g style="fill:#840000; fill-opacity:0.0; 
stroke:#840000; stroke-width:100; stroke-opacity:1; 
stroke-linecap:round; stroke-linejoin:round;">
</g>
<g style="fill:#840000; fill-opacity:0.0; 
stroke:#840000; stroke-width:60; stroke-opacity:1; 
stroke-linecap:round; stroke-linejoin:round;">
<path d="M82680 4720
L82680 3940
" />
</g>
<g style="fill:#840000; fill-opacity:0.0; 
stroke:#840000; stroke-width:100; stroke-opacity:1; 
stroke-linecap:round; stroke-linejoin:round;">
</g>
<g style="fill:#840000; fill-opacity:0.0; 
stroke:#840000; stroke-width:60; stroke-opacity:1; 
stroke-linecap:round; stroke-linejoin:round;">
<path d="M102360 4720
L102360 3940
" />
</g>
<g style="fill:#840000; fill-opacity:0.0; 
stroke:#840000; stroke-width:100; stroke-opacity:1; 
stroke-linecap:round; stroke-linejoin:round;">
</g>
<g style="fill:#840000; fill-opacity:0.0; 
stroke:#840000; stroke-width:60; stroke-opacity:1; 
stroke-linecap:round; stroke-linejoin:round;">
<text x="13780" y="4580"
textLength="550" font-size="680" lengthAdjust="spacingAndGlyphs"
text-anchor="start" opacity="0">1</text>
<path d="M14190 4560
L13900 4560
" />
<path d="M14050 4560
L14050 4050
L14000 4120
L13950 4170
L13900 4190
" />
</g>
<g style="fill:#840000; fill-opacity:0.0; 
stroke:#840000; stroke-width:100; stroke-opacity:1; 
stroke-linecap:round; stroke-linejoin:round;">
</g>
<g style="fill:#840000; fill-opacity:0.0; 
stroke:#840000; stroke-width:60; stroke-opacity:1; 
stroke-linecap:round; stroke-linejoin:round;">
<text x="33460" y="4580"
textLength="550" font-size="680" lengthAdjust="spacingAndGlyphs"
text-anchor="start" opacity="0">2</text>
<path d="M33580 4090
L33610 4070
L33660 4050
L33780 4050
L33830 4070
L33850 4090
L33870 4140
L33870 4190
L33850 4260
L33560 4560
L33870 4560
" />
</g>
<g style="fill:#840000; fill-opacity:0.0; 
stroke:#840000; stroke-width:100; stroke-opacity:1; 
stroke-linecap:round; stroke-linejoin:round;">
</g>
<g style="fill:#840000; fill-opacity:0.0; 
stroke:#840000; stroke-width:60; stroke-opacity:1; 
stroke-linecap:round; stroke-linejoin:round;">
<text x="53150" y="4580"
textLength="550" font-size="680" lengthAdjust="spacingAndGlyphs"
text-anchor="start" opacity="0">3</text>
<path d="M53250 4050
L53560 4050
L53390 4240
L53470 4240
L53520 4260
L53540 4290
L53560 4340
L53560 4460
L53540 4510
L53520 4530
L53470 4560
L53320 4560
L53270 4530
L53250 4510
" />
</g>
<g style="fill:#840000; fill-opacity:0.0; 
stroke:#840000; stroke-width:100; stroke-opacity:1; 
stroke-linecap:round; stroke-linejoin:round;">
</g>
<g style="fill:#840000; fill-opacity:0.0; 
stroke:#840000; stroke-width:60; stroke-opacity:1; 
stroke-linecap:round; stroke-linejoin:round;">
<text x="72830" y="4580"
textLength="550" font-size="680" lengthAdjust="spacingAndGlyphs"
text-anchor="start" opacity="0">4</text>
<path d="M73200 4220
L73200 4560
" />
<path d="M73070 4020
L72950 4390
L73270 4390
" />
</g>
<g style="fill:#840000; fill-opacity:0.0; 
stroke:#840000; stroke-width:100; stroke-opacity:1; 
stroke-linecap:round; stroke-linejoin:round;">
</g>
<g style="fill:#840000; fill-opacity:0.0; 
stroke:#840000; stroke-width:60; stroke-opacity:1; 
stroke-linecap:round; stroke-linejoin:round;">
<text x="92520" y="4580"
textLength="550" font-size="680" lengthAdjust="spacingAndGlyphs"
text-anchor="start" opacity="0">5</text>
<path d="M92910 4050
L92670 4050
L92640 4290
L92670 4260
L92720 4240
L92840 4240
L92890 4260
L92910 4290
L92930 4340
L92930 4460
L92910 4510
L92890 4530
L92840 4560
L92720 4560
L92670 4530
L92640 4510
" />
</g>
<g style="fill:#840000; fill-opacity:0.0; 
stroke:#840000; stroke-width:100; stroke-opacity:1; 
stroke-linecap:round; stroke-linejoin:round;">
</g>
<g style="fill:#840000; fill-opacity:0.0; 
stroke:#840000; stroke-width:60; stroke-opacity:1; 
stroke-linecap:round; stroke-linejoin:round;">
<text x="112200" y="4580"
textLength="550" font-size="680" lengthAdjust="spacingAndGlyphs"
text-anchor="start" opacity="0">6</text>
<path d="M112570 4050
L112470 4050
L112420 4070
L112400 4090
L112350 4170
L112320 4260
L112320 4460
L112350 4510
L112370 4530
L112420 4560
L112520 4560
L112570 4530
L112590 4510
L112610 4460
L112610 4340
L112590 4290
L112570 4260
L112520 4240
L112420 4240
L112370 4260
L112350 4290
L112320 4340
" />
</g>
<g style="fill:#840000; fill-opacity:0.0; 
stroke:#840000; stroke-width:100; stroke-opacity:1; 
stroke-linecap:round; stroke-linejoin:round;">
</g>
<g style="fill:#840000; fill-opacity:0.0; 
stroke:#840000; stroke-width:60; stroke-opacity:1; 
stroke-linecap:round; stroke-linejoin:round;">
<path d="M23620 77960
L23620 78740
" />
</g>
<g style="fill:#840000; fill-opacity:0.0; 
stroke:#840000; stroke-width:100; stroke-opacity:1; 
stroke-linecap:round; stroke-linejoin:round;">
</g>
<g style="fill:#840000; fill-opacity:0.0; 
stroke:#840000; stroke-width:60; stroke-opacity:1; 
stroke-linecap:round; stroke-linejoin:round;">
<path d="M43310 77960
L43310 78740
" />
</g>
<g style="fill:#840000; fill-opacity:0.0; 
stroke:#840000; stroke-width:100; stroke-opacity:1; 
stroke-linecap:round; stroke-linejoin:round;">
</g>
<g style="fill:#840000; fill-opacity:0.0; 
stroke:#840000; stroke-width:60; stroke-opacity:1; 
stroke-linecap:round; stroke-linejoin:round;">
<path d="M62990 77960
L62990 78740
" />
</g>
<g style="fill:#840000; fill-opacity:0.0; 
stroke:#840000; stroke-width:100; stroke-opacity:1; 
stroke-linecap:round; stroke-linejoin:round;">
</g>
<g style="fill:#840000; fill-opacity:0.0; 
stroke:#840000; stroke-width:60; stroke-opacity:1; 
stroke-linecap:round; stroke-linejoin:round;">
<path d="M82680 77960
L82680 78740
" />
</g>
<g style="fill:#840000; fill-opacity:0.0; 
stroke:#840000; stroke-width:100; stroke-opacity:1; 
stroke-linecap:round; stroke-linejoin:round;">
</g>
<g style="fill:#840000; fill-opacity:0.0; 
stroke:#840000; stroke-width:60; stroke-opacity:1; 
stroke-linecap:round; stroke-linejoin:round;">
<path d="M102360 77960
L102360 78740
" />
</g>
<g style="fill:#840000; fill-opacity:0.0; 
stroke:#840000; stroke-width:100; stroke-opacity:1; 
stroke-linecap:round; stroke-linejoin:round;">
</g>
<g style="fill:#840000; fill-opacity:0.0; 
stroke:#840000; stroke-width:60; stroke-opacity:1; 
stroke-linecap:round; stroke-linejoin:round;">
<text x="13780" y="78600"
textLength="550" font-size="680" lengthAdjust="spacingAndGlyphs"
text-anchor="start" opacity="0">1</text>
<path d="M14190 78580
L13900 78580
" />
<path d="M14050 78580
L14050 78070
L14000 78140
L13950 78190
L13900 78210
" />
</g>
<g style="fill:#840000; fill-opacity:0.0; 
stroke:#840000; stroke-width:100; stroke-opacity:1; 
stroke-linecap:round; stroke-linejoin:round;">
</g>
<g style="fill:#840000; fill-opacity:0.0; 
stroke:#840000; stroke-width:60; stroke-opacity:1; 
stroke-linecap:round; stroke-linejoin:round;">
<text x="33460" y="78600"
textLength="550" font-size="680" lengthAdjust="spacingAndGlyphs"
text-anchor="start" opacity="0">2</text>
<path d="M33580 78110
L33610 78090
L33660 78070
L33780 78070
L33830 78090
L33850 78110
L33870 78160
L33870 78210
L33850 78280
L33560 78580
L33870 78580
" />
</g>
<g style="fill:#840000; fill-opacity:0.0; 
stroke:#840000; stroke-width:100; stroke-opacity:1; 
stroke-linecap:round; stroke-linejoin:round;">
</g>
<g style="fill:#840000; fill-opacity:0.0; 
stroke:#840000; stroke-width:60; stroke-opacity:1; 
stroke-linecap:round; stroke-linejoin:round;">
<text x="53150" y="78600"
textLength="550" font-size="680" lengthAdjust="spacingAndGlyphs"
text-anchor="start" opacity="0">3</text>
<path d="M53250 78070
L53560 78070
L53390 78260
L53470 78260
L53520 78280
L53540 78310
L53560 78360
L53560 78480
L53540 78530
L53520 78550
L53470 78580
L53320 78580
L53270 78550
L53250 78530
" />
</g>
<g style="fill:#840000; fill-opacity:0.0; 
stroke:#840000; stroke-width:100; stroke-opacity:1; 
stroke-linecap:round; stroke-linejoin:round;">
</g>
<g style="fill:#840000; fill-opacity:0.0; 
stroke:#840000; stroke-width:60; stroke-opacity:1; 
stroke-linecap:round; stroke-linejoin:round;">
<text x="72830" y="78600"
textLength="550" font-size="680" lengthAdjust="spacingAndGlyphs"
text-anchor="start" opacity="0">4</text>
<path d="M73200 78240
L73200 78580
" />
<path d="M73070 78040
L72950 78410
L73270 78410
" />
</g>
<g style="fill:#840000; fill-opacity:0.0; 
stroke:#840000; stroke-width:100; stroke-opacity:1; 
stroke-linecap:round; stroke-linejoin:round;">
</g>
<g style="fill:#840000; fill-opacity:0.0; 
stroke:#840000; stroke-width:60; stroke-opacity:1; 
stroke-linecap:round; stroke-linejoin:round;">
<text x="92520" y="78600"
textLength="550" font-size="680" lengthAdjust="spacingAndGlyphs"
text-anchor="start" opacity="0">5</text>
<path d="M92910 78070
L92670 78070
L92640 78310
L92670 78280
L92720 78260
L92840 78260
L92890 78280
L92910 78310
L92930 78360
L92930 78480
L92910 78530
L92890 78550
L92840 78580
L92720 78580
L92670 78550
L92640 78530
" />
</g>
<g style="fill:#840000; fill-opacity:0.0; 
stroke:#840000; stroke-width:100; stroke-opacity:1; 
stroke-linecap:round; stroke-linejoin:round;">
</g>
<g style="fill:#840000; fill-opacity:0.0; 
stroke:#840000; stroke-width:60; stroke-opacity:1; 
stroke-linecap:round; stroke-linejoin:round;">
<text x="112200" y="78600"
textLength="550" font-size="680" lengthAdjust="spacingAndGlyphs"
text-anchor="start" opacity="0">6</text>
<path d="M112570 78070
L112470 78070
L112420 78090
L112400 78110
L112350 78190
L112320 78280
L112320 78480
L112350 78530
L112370 78550
L112420 78580
L112520 78580
L112570 78550
L112590 78530
L112610 78480
L112610 78360
L112590 78310
L112570 78280
L112520 78260
L112420 78260
L112370 78280
L112350 78310
L112320 78360
" />
</g>
<g style="fill:#840000; fill-opacity:0.0; 
stroke:#840000; stroke-width:100; stroke-opacity:1; 
stroke-linecap:round; stroke-linejoin:round;">
</g>
<g style="fill:#840000; fill-opacity:0.0; 
stroke:#840000; stroke-width:60; stroke-opacity:1; 
stroke-linecap:round; stroke-linejoin:round;">
<path d="M3940 23620
L4720 23620
" />
</g>
<g style="fill:#840000; fill-opacity:0.0; 
stroke:#840000; stroke-width:100; stroke-opacity:1; 
stroke-linecap:round; stroke-linejoin:round;">
</g>
<g style="fill:#840000; fill-opacity:0.0; 
stroke:#840000; stroke-width:60; stroke-opacity:1; 
stroke-linecap:round; stroke-linejoin:round;">
<path d="M3940 43310
L4720 43310
" />
</g>
<g style="fill:#840000; fill-opacity:0.0; 
stroke:#840000; stroke-width:100; stroke-opacity:1; 
stroke-linecap:round; stroke-linejoin:round;">
</g>
<g style="fill:#840000; fill-opacity:0.0; 
stroke:#840000; stroke-width:60; stroke-opacity:1; 
stroke-linecap:round; stroke-linejoin:round;">
<path d="M3940 62990
L4720 62990
" />
</g>
<g style="fill:#840000; fill-opacity:0.0; 
stroke:#840000; stroke-width:100; stroke-opacity:1; 
stroke-linecap:round; stroke-linejoin:round;">
</g>
<g style="fill:#840000; fill-opacity:0.0; 
stroke:#840000; stroke-width:60; stroke-opacity:1; 
stroke-linecap:round; stroke-linejoin:round;">
<text x="4330" y="14030"
textLength="500" font-size="680" lengthAdjust="spacingAndGlyphs"
text-anchor="middle" opacity="0">A</text>
<path d="M4200 13860
L4450 13860
" />
<path d="M4160 14010
L4330 13500
L4500 14010
" />
</g>
<g style="fill:#840000; fill-opacity:0.0; 
stroke:#840000; stroke-width:100; stroke-opacity:1; 
stroke-linecap:round; stroke-linejoin:round;">
</g>
<g style="fill:#840000; fill-opacity:0.0; 
stroke:#840000; stroke-width:60; stroke-opacity:1; 
stroke-linecap:round; stroke-linejoin:round;">
<text x="4330" y="33710"
textLength="570" font-size="680" lengthAdjust="spacingAndGlyphs"
text-anchor="middle" opacity="0">B</text>
<path d="M4360 33420
L4430 33440
L4460 33470
L4480 33520
L4480 33590
L4460 33640
L4430 33660
L4390 33690
L4190 33690
L4190 33180
L4360 33180
L4410 33200
L4430 33220
L4460 33270
L4460 33320
L4430 33370
L4410 33390
L4360 33420
L4190 33420
" />
</g>
<g style="fill:#840000; fill-opacity:0.0; 
stroke:#840000; stroke-width:100; stroke-opacity:1; 
stroke-linecap:round; stroke-linejoin:round;">
</g>
<g style="fill:#840000; fill-opacity:0.0; 
stroke:#840000; stroke-width:60; stroke-opacity:1; 
stroke-linecap:round; stroke-linejoin:round;">
<text x="4330" y="53400"
textLength="570" font-size="680" lengthAdjust="spacingAndGlyphs"
text-anchor="middle" opacity="0">C</text>
<path d="M4480 53330
L4460 53350
L4390 53380
L4340 53380
L4260 53350
L4220 53300
L4190 53250
L4170 53160
L4170 53080
L4190 52990
L4220 52940
L4260 52890
L4340 52870
L4390 52870
L4460 52890
L4480 52910
" />
</g>
<g style="fill:#840000; fill-opacity:0.0; 
stroke:#840000; stroke-width:100; stroke-opacity:1; 
stroke-linecap:round; stroke-linejoin:round;">
</g>
<g style="fill:#840000; fill-opacity:0.0; 
stroke:#840000; stroke-width:60; stroke-opacity:1; 
stroke-linecap:round; stroke-linejoin:round;">
<text x="4330" y="73080"
textLength="570" font-size="680" lengthAdjust="spacingAndGlyphs"
text-anchor="middle" opacity="0">D</text>
<path d="M4190 73060
L4190 72550
L4310 72550
L4390 72570
L4430 72620
L4460 72670
L4480 72760
L4480 72840
L4460 72930
L4430 72980
L4390 73030
L4310 73060
L4190 73060
" />
</g>
<g style="fill:#840000; fill-opacity:0.0; 
stroke:#840000; stroke-width:100; stroke-opacity:1; 
stroke-linecap:round; stroke-linejoin:round;">
</g>
<g style="fill:#840000; fill-opacity:0.0; 
stroke:#840000; stroke-width:60; stroke-opacity:1; 
stroke-linecap:round; stroke-linejoin:round;">
<path d="M112990 23620
L112210 23620
" />
</g>
<g style="fill:#840000; fill-opacity:0.0; 
stroke:#840000; stroke-width:100; stroke-opacity:1; 
stroke-linecap:round; stroke-linejoin:round;">
</g>
<g style="fill:#840000; fill-opacity:0.0; 
stroke:#840000; stroke-width:60; stroke-opacity:1; 
stroke-linecap:round; stroke-linejoin:round;">
<path d="M112990 43310
L112210 43310
" />
</g>
<g style="fill:#840000; fill-opacity:0.0; 
stroke:#840000; stroke-width:100; stroke-opacity:1; 
stroke-linecap:round; stroke-linejoin:round;">
</g>
<g style="fill:#840000; fill-opacity:0.0; 
stroke:#840000; stroke-width:60; stroke-opacity:1; 
stroke-linecap:round; stroke-linejoin:round;">
<path d="M112990 62990
L112210 62990
" />
</g>
<g style="fill:#840000; fill-opacity:0.0; 
stroke:#840000; stroke-width:100; stroke-opacity:1; 
stroke-linecap:round; stroke-linejoin:round;">
</g>
<g style="fill:#840000; fill-opacity:0.0; 
stroke:#840000; stroke-width:60; stroke-opacity:1; 
stroke-linecap:round; stroke-linejoin:round;">
<text x="112600" y="14030"
textLength="500" font-size="680" lengthAdjust="spacingAndGlyphs"
text-anchor="middle" opacity="0">A</text>
<path d="M112470 13860
L112720 13860
" />
<path d="M112430 14010
L112600 13500
L112770 14010
" />
</g>
<g style="fill:#840000; fill-opacity:0.0; 
stroke:#840000; stroke-width:100; stroke-opacity:1; 
stroke-linecap:round; stroke-linejoin:round;">
</g>
<g style="fill:#840000; fill-opacity:0.0; 
stroke:#840000; stroke-width:60; stroke-opacity:1; 
stroke-linecap:round; stroke-linejoin:round;">
<text x="112600" y="33710"
textLength="570" font-size="680" lengthAdjust="spacingAndGlyphs"
text-anchor="middle" opacity="0">B</text>
<path d="M112630 33420
L112700 33440
L112730 33470
L112750 33520
L112750 33590
L112730 33640
L112700 33660
L112660 33690
L112460 33690
L112460 33180
L112630 33180
L112680 33200
L112700 33220
L112730 33270
L112730 33320
L112700 33370
L112680 33390
L112630 33420
L112460 33420
" />
</g>
<g style="fill:#840000; fill-opacity:0.0; 
stroke:#840000; stroke-width:100; stroke-opacity:1; 
stroke-linecap:round; stroke-linejoin:round;">
</g>
<g style="fill:#840000; fill-opacity:0.0; 
stroke:#840000; stroke-width:60; stroke-opacity:1; 
stroke-linecap:round; stroke-linejoin:round;">
<text x="112600" y="53400"
textLength="570" font-size="680" lengthAdjust="spacingAndGlyphs"
text-anchor="middle" opacity="0">C</text>
<path d="M112750 53330
L112730 53350
L112660 53380
L112610 53380
L112530 53350
L112490 53300
L112460 53250
L112440 53160
L112440 53080
L112460 52990
L112490 52940
L112530 52890
L112610 52870
L112660 52870
L112730 52890
L112750 52910
" />
</g>
<g style="fill:#840000; fill-opacity:0.0; 
stroke:#840000; stroke-width:100; stroke-opacity:1; 
stroke-linecap:round; stroke-linejoin:round;">
</g>
<g style="fill:#840000; fill-opacity:0.0; 
stroke:#840000; stroke-width:60; stroke-opacity:1; 
stroke-linecap:round; stroke-linejoin:round;">
<text x="112600" y="73080"
textLength="570" font-size="680" lengthAdjust="spacingAndGlyphs"
text-anchor="middle" opacity="0">D</text>
<path d="M112460 73060
L112460 72550
L112580 72550
L112660 72570
L112700 72620
L112730 72670
L112750 72760
L112750 72840
L112730 72930
L112700 72980
L112660 73030
L112580 73060
L112460 73060
" />
</g>
<g style="fill:#840000; fill-opacity:0.0; 
stroke:#840000; stroke-width:100; stroke-opacity:1; 
stroke-linecap:round; stroke-linejoin:round;">
</g>
<g style="fill:#840000; fill-opacity:0.0; 
stroke:#840000; stroke-width:60; stroke-opacity:1; 
stroke-linecap:round; stroke-linejoin:round;">
<text x="78740" y="76320"
textLength="8710" font-size="780" lengthAdjust="spacingAndGlyphs"
text-anchor="start" opacity="0">Date: 2021-06-05</text>
<path d="M78910 76290
L78910 75700
L79050 75700
L79130 75730
L79190 75790
L79210 75840
L79240 75950
L79240 76040
L79210 76150
L79190 76210
L79130 76260
L79050 76290
L78910 76290
" />
<path d="M79750 76290
L79750 75980
L79720 75930
L79660 75900
L79550 75900
L79500 75930
" />
<path d="M79750 76260
L79690 76290
L79550 76290
L79500 76260
L79470 76210
L79470 76150
L79500 76100
L79550 76070
L79690 76070
L79750 76040
" />
<path d="M79950 75900
L80170 75900
" />
<path d="M80030 75700
L80030 76210
L80060 76260
L80110 76290
L80170 76290
" />
<path d="M80590 76260
L80540 76290
L80420 76290
L80370 76260
L80340 76210
L80340 75980
L80370 75930
L80420 75900
L80540 75900
L80590 75930
L80620 75980
L80620 76040
L80340 76100
" />
<path d="M80870 76240
L80900 76260
L80870 76290
L80840 76260
L80870 76240
L80870 76290
" />
<path d="M80870 75930
L80900 75950
L80870 75980
L80840 75950
L80870 75930
L80870 75980
" />
<path d="M81570 75760
L81600 75730
L81660 75700
L81800 75700
L81860 75730
L81880 75760
L81910 75810
L81910 75870
L81880 75950
L81550 76290
L81910 76290
" />
<path d="M82280 75700
L82330 75700
L82390 75730
L82420 75760
L82450 75810
L82470 75930
L82470 76070
L82450 76180
L82420 76240
L82390 76260
L82330 76290
L82280 76290
L82220 76260
L82190 76240
L82160 76180
L82140 76070
L82140 75930
L82160 75810
L82190 75760
L82220 75730
L82280 75700
" />
<path d="M82700 75760
L82730 75730
L82780 75700
L82920 75700
L82980 75730
L83010 75760
L83040 75810
L83040 75870
L83010 75950
L82670 76290
L83040 76290
" />
<path d="M83600 76290
L83260 76290
" />
<path d="M83430 76290
L83430 75700
L83370 75790
L83320 75840
L83260 75870
" />
<path d="M83850 76070
L84300 76070
" />
<path d="M84690 75700
L84750 75700
L84810 75730
L84830 75760
L84860 75810
L84890 75930
L84890 76070
L84860 76180
L84830 76240
L84810 76260
L84750 76290
L84690 76290
L84640 76260
L84610 76240
L84580 76180
L84550 76070
L84550 75930
L84580 75810
L84610 75760
L84640 75730
L84690 75700
" />
<path d="M85400 75700
L85280 75700
L85230 75730
L85200 75760
L85140 75840
L85110 75950
L85110 76180
L85140 76240
L85170 76260
L85230 76290
L85340 76290
L85400 76260
L85420 76240
L85450 76180
L85450 76040
L85420 75980
L85400 75950
L85340 75930
L85230 75930
L85170 75950
L85140 75980
L85110 76040
" />
<path d="M85700 76070
L86150 76070
" />
<path d="M86550 75700
L86600 75700
L86660 75730
L86690 75760
L86720 75810
L86740 75930
L86740 76070
L86720 76180
L86690 76240
L86660 76260
L86600 76290
L86550 76290
L86490 76260
L86460 76240
L86440 76180
L86410 76070
L86410 75930
L86440 75810
L86460 75760
L86490 75730
L86550 75700
" />
<path d="M87280 75700
L87000 75700
L86970 75980
L87000 75950
L87050 75930
L87190 75930
L87250 75950
L87280 75980
L87310 76040
L87310 76180
L87280 76240
L87250 76260
L87190 76290
L87050 76290
L87000 76260
L86970 76240
" />
</g>
<g style="fill:#840000; fill-opacity:0.0; 
stroke:#840000; stroke-width:100; stroke-opacity:1; 
stroke-linecap:round; stroke-linejoin:round;">
</g>
<g style="fill:#840000; fill-opacity:0.0; 
stroke:#840000; stroke-width:60; stroke-opacity:1; 
stroke-linecap:round; stroke-linejoin:round;">
<path d="M69690 76580
L112210 76580
" />
</g>
<g style="fill:#840000; fill-opacity:0.0; 
stroke:#840000; stroke-width:100; stroke-opacity:1; 
stroke-linecap:round; stroke-linejoin:round;">
</g>
<g style="fill:#840000; fill-opacity:0.0; 
stroke:#840000; stroke-width:60; stroke-opacity:1; 
stroke-linecap:round; stroke-linejoin:round;">
<text x="70080" y="77420"
textLength="16950" font-size="780" lengthAdjust="spacingAndGlyphs"
text-anchor="start" opacity="0">KiCad E.D.A.  kicad (5.1.8-0-10_14)</text>
<path d="M70250 77390
L70250 76800
" />
<path d="M70580 77390
L70330 77050
" />
<path d="M70580 76800
L70250 77140
" />
<path d="M70840 77390
L70840 77000
" />
<path d="M70840 76800
L70810 76830
L70840 76860
L70860 76830
L70840 76800
L70840 76860
" />
<path d="M71450 77340
L71430 77360
L71340 77390
L71290 77390
L71200 77360
L71140 77310
L71120 77250
L71090 77140
L71090 77050
L71120 76940
L71140 76890
L71200 76830
L71290 76800
L71340 76800
L71430 76830
L71450 76860
" />
<path d="M71960 77390
L71960 77080
L71930 77030
L71880 77000
L71760 77000
L71710 77030
" />
<path d="M71960 77360
L71900 77390
L71760 77390
L71710 77360
L71680 77310
L71680 77250
L71710 77200
L71760 77170
L71900 77170
L71960 77140
" />
<path d="M72490 77390
L72490 76800
" />
<path d="M72490 77360
L72440 77390
L72320 77390
L72270 77360
L72240 77340
L72210 77280
L72210 77110
L72240 77050
L72270 77030
L72320 77000
L72440 77000
L72490 77030
" />
<path d="M73220 77080
L73420 77080
" />
<path d="M73500 77390
L73220 77390
L73220 76800
L73500 76800
" />
<path d="M73760 77340
L73790 77360
L73760 77390
L73730 77360
L73760 77340
L73760 77390
" />
<path d="M74040 77390
L74040 76800
L74180 76800
L74260 76830
L74320 76890
L74350 76940
L74380 77050
L74380 77140
L74350 77250
L74320 77310
L74260 77360
L74180 77390
L74040 77390
" />
<path d="M74630 77340
L74660 77360
L74630 77390
L74600 77360
L74630 77340
L74630 77390
" />
<path d="M74880 77220
L75160 77220
" />
<path d="M74830 77390
L75020 76800
L75220 77390
" />
<path d="M75420 77340
L75440 77360
L75420 77390
L75390 77360
L75420 77340
L75420 77390
" />
<path d="M76600 77390
L76600 76800
" />
<path d="M76650 77170
L76820 77390
" />
<path d="M76820 77000
L76600 77220
" />
<path d="M77070 77390
L77070 77000
" />
<path d="M77070 76800
L77040 76830
L77070 76860
L77100 76830
L77070 76800
L77070 76860
" />
<path d="M77610 77360
L77550 77390
L77440 77390
L77380 77360
L77350 77340
L77330 77280
L77330 77110
L77350 77050
L77380 77030
L77440 77000
L77550 77000
L77610 77030
" />
<path d="M78110 77390
L78110 77080
L78080 77030
L78030 77000
L77920 77000
L77860 77030
" />
<path d="M78110 77360
L78060 77390
L77920 77390
L77860 77360
L77830 77310
L77830 77250
L77860 77200
L77920 77170
L78060 77170
L78110 77140
" />
<path d="M78650 77390
L78650 76800
" />
<path d="M78650 77360
L78590 77390
L78480 77390
L78420 77360
L78390 77340
L78370 77280
L78370 77110
L78390 77050
L78420 77030
L78480 77000
L78590 77000
L78650 77030
" />
<path d="M79550 77620
L79520 77590
L79460 77500
L79430 77450
L79400 77360
L79380 77220
L79380 77110
L79400 76970
L79430 76890
L79460 76830
L79520 76750
L79550 76720
" />
<path d="M80050 76800
L79770 76800
L79740 77080
L79770 77050
L79830 77030
L79970 77030
L80020 77050
L80050 77080
L80080 77140
L80080 77280
L80050 77340
L80020 77360
L79970 77390
L79830 77390
L79770 77360
L79740 77340
" />
<path d="M80330 77340
L80360 77360
L80330 77390
L80300 77360
L80330 77340
L80330 77390
" />
<path d="M80920 77390
L80580 77390
" />
<path d="M80750 77390
L80750 76800
L80700 76890
L80640 76940
L80580 76970
" />
<path d="M81170 77340
L81200 77360
L81170 77390
L81150 77360
L81170 77340
L81170 77390
" />
<path d="M81540 77050
L81480 77030
L81460 77000
L81430 76940
L81430 76910
L81460 76860
L81480 76830
L81540 76800
L81650 76800
L81710 76830
L81740 76860
L81760 76910
L81760 76940
L81740 77000
L81710 77030
L81650 77050
L81540 77050
L81480 77080
L81460 77110
L81430 77170
L81430 77280
L81460 77340
L81480 77360
L81540 77390
L81650 77390
L81710 77360
L81740 77340
L81760 77280
L81760 77170
L81740 77110
L81710 77080
L81650 77050
" />
<path d="M82020 77170
L82470 77170
" />
<path d="M82860 76800
L82920 76800
L82970 76830
L83000 76860
L83030 76910
L83060 77030
L83060 77170
L83030 77280
L83000 77340
L82970 77360
L82920 77390
L82860 77390
L82800 77360
L82780 77340
L82750 77280
L82720 77170
L82720 77030
L82750 76910
L82780 76860
L82800 76830
L82860 76800
" />
<path d="M83310 77170
L83760 77170
" />
<path d="M84350 77390
L84010 77390
" />
<path d="M84180 77390
L84180 76800
L84120 76890
L84070 76940
L84010 76970
" />
<path d="M84710 76800
L84770 76800
L84830 76830
L84860 76860
L84880 76910
L84910 77030
L84910 77170
L84880 77280
L84860 77340
L84830 77360
L84770 77390
L84710 77390
L84660 77360
L84630 77340
L84600 77280
L84570 77170
L84570 77030
L84600 76910
L84630 76860
L84660 76830
L84710 76800
" />
<path d="M85020 77450
L85470 77450
" />
<path d="M85920 77390
L85590 77390
" />
<path d="M85750 77390
L85750 76800
L85700 76890
L85640 76940
L85590 76970
" />
<path d="M86430 77000
L86430 77390
" />
<path d="M86290 76770
L86150 77200
L86510 77200
" />
<path d="M86680 77620
L86710 77590
L86770 77500
L86790 77450
L86820 77360
L86850 77220
L86850 77110
L86820 76970
L86790 76890
L86770 76830
L86710 76750
L86680 76720
" />
</g>
<g style="fill:#840000; fill-opacity:0.0; 
stroke:#840000; stroke-width:100; stroke-opacity:1; 
stroke-linecap:round; stroke-linejoin:round;">
</g>
<g style="fill:#840000; fill-opacity:0.0; 
stroke:#840000; stroke-width:60; stroke-opacity:1; 
stroke-linecap:round; stroke-linejoin:round;">
<path d="M69690 75400
L112210 75400
" />
</g>
<g style="fill:#840000; fill-opacity:0.0; 
stroke:#840000; stroke-width:100; stroke-opacity:1; 
stroke-linecap:round; stroke-linejoin:round;">
</g>
<g style="fill:#840000; fill-opacity:0.0; 
stroke:#840000; stroke-width:120; stroke-opacity:1; 
stroke-linecap:round; stroke-linejoin:round;">
<text x="103540" y="76320"
textLength="2840" font-size="780" lengthAdjust="spacingAndGlyphs"
text-anchor="start" opacity="0">Rev: A</text>
<path d="M104090 76290
L103890 76010
" />
<path d="M103750 76290
L103750 75700
L103980 75700
L104030 75730
L104060 75760
L104090 75810
L104090 75900
L104060 75950
L104030 75980
L103980 76010
L103750 76010
" />
<path d="M104570 76260
L104510 76290
L104400 76290
L104340 76260
L104320 76210
L104320 75980
L104340 75930
L104400 75900
L104510 75900
L104570 75930
L104600 75980
L104600 76040
L104320 76100
" />
<path d="M104790 75900
L104930 76290
L105070 75900
" />
<path d="M105300 76240
L105330 76260
L105300 76290
L105270 76260
L105300 76240
L105300 76290
" />
<path d="M105300 75930
L105330 75950
L105300 75980
L105270 75950
L105300 75930
L105300 75980
" />
<path d="M106000 76120
L106280 76120
" />
<path d="M105940 76290
L106140 75700
L106340 76290
" />
</g>
<g style="fill:#840000; fill-opacity:0.0; 
stroke:#840000; stroke-width:100; stroke-opacity:1; 
stroke-linecap:round; stroke-linejoin:round;">
</g>
<g style="fill:#840000; fill-opacity:0.0; 
stroke:#840000; stroke-width:60; stroke-opacity:1; 
stroke-linecap:round; stroke-linejoin:round;">
<text x="70080" y="76320"
textLength="3780" font-size="780" lengthAdjust="spacingAndGlyphs"
text-anchor="start" opacity="0">Size: A4</text>
<path d="M70220 76260
L70300 76290
L70440 76290
L70500 76260
L70530 76240
L70550 76180
L70550 76120
L70530 76070
L70500 76040
L70440 76010
L70330 75980
L70270 75950
L70250 75930
L70220 75870
L70220 75810
L70250 75760
L70270 75730
L70330 75700
L70470 75700
L70550 75730
" />
<path d="M70810 76290
L70810 75900
" />
<path d="M70810 75700
L70780 75730
L70810 75760
L70840 75730
L70810 75700
L70810 75760
" />
<path d="M71030 75900
L71340 75900
L71030 76290
L71340 76290
" />
<path d="M71790 76260
L71730 76290
L71620 76290
L71570 76260
L71540 76210
L71540 75980
L71570 75930
L71620 75900
L71730 75900
L71790 75930
L71820 75980
L71820 76040
L71540 76100
" />
<path d="M72070 76240
L72100 76260
L72070 76290
L72040 76260
L72070 76240
L72070 76290
" />
<path d="M72070 75930
L72100 75950
L72070 75980
L72040 75950
L72070 75930
L72070 75980
" />
<path d="M72770 76120
L73060 76120
" />
<path d="M72720 76290
L72910 75700
L73110 76290
" />
<path d="M73560 75900
L73560 76290
" />
<path d="M73420 75670
L73280 76100
L73650 76100
" />
</g>
<g style="fill:#840000; fill-opacity:0.0; 
stroke:#840000; stroke-width:100; stroke-opacity:1; 
stroke-linecap:round; stroke-linejoin:round;">
</g>
<g style="fill:#840000; fill-opacity:0.0; 
stroke:#840000; stroke-width:60; stroke-opacity:1; 
stroke-linecap:round; stroke-linejoin:round;">
<text x="103540" y="77420"
textLength="4470" font-size="780" lengthAdjust="spacingAndGlyphs"
text-anchor="start" opacity="0">Id: 13/46</text>
<path d="M103710 77390
L103710 76800
" />
<path d="M104240 77390
L104240 76800
" />
<path d="M104240 77360
L104180 77390
L104070 77390
L104010 77360
L103990 77340
L103960 77280
L103960 77110
L103990 77050
L104010 77030
L104070 77000
L104180 77000
L104240 77030
" />
<path d="M104520 77340
L104550 77360
L104520 77390
L104490 77360
L104520 77340
L104520 77390
" />
<path d="M104520 77030
L104550 77050
L104520 77080
L104490 77050
L104520 77030
L104520 77080
" />
<path d="M105560 77390
L105220 77390
" />
<path d="M105390 77390
L105390 76800
L105340 76890
L105280 76940
L105220 76970
" />
<path d="M105760 76800
L106120 76800
L105930 77030
L106010 77030
L106070 77050
L106090 77080
L106120 77140
L106120 77280
L106090 77340
L106070 77360
L106010 77390
L105840 77390
L105780 77360
L105760 77340
" />
<path d="M106800 76770
L106290 77530
" />
<path d="M107250 77000
L107250 77390
" />
<path d="M107110 76770
L106960 77200
L107330 77200
" />
<path d="M107810 76800
L107700 76800
L107640 76830
L107610 76860
L107550 76940
L107530 77050
L107530 77280
L107550 77340
L107580 77360
L107640 77390
L107750 77390
L107810 77360
L107840 77340
L107860 77280
L107860 77140
L107840 77080
L107810 77050
L107750 77030
L107640 77030
L107580 77050
L107550 77080
L107530 77140
" />
</g>
<g style="fill:#840000; fill-opacity:0.0; 
stroke:#840000; stroke-width:100; stroke-opacity:1; 
stroke-linecap:round; stroke-linejoin:round;">
</g>
<g style="fill:#840000; fill-opacity:0.0; 
stroke:#840000; stroke-width:60; stroke-opacity:1; 
stroke-linecap:round; stroke-linejoin:round;">
<path d="M69690 73820
L112210 73820
" />
</g>
<g style="fill:#840000; fill-opacity:0.0; 
stroke:#840000; stroke-width:100; stroke-opacity:1; 
stroke-linecap:round; stroke-linejoin:round;">
</g>
<g style="fill:#840000; fill-opacity:0.0; 
stroke:#840000; stroke-width:160; stroke-opacity:1; 
stroke-linecap:round; stroke-linejoin:round;">
<text x="70080" y="74920"
textLength="26020" font-size="1050" lengthAdjust="spacingAndGlyphs"
text-anchor="start" opacity="0">Title: 2.42" SSD1309 OLED DIsplay Module</text>
<path d="M70360 74090
L70810 74090
" />
<path d="M70480 74880
L70580 74090
" />
<path d="M70970 74880
L71040 74360
" />
<path d="M71070 74090
L71030 74130
L71060 74170
L71110 74130
L71070 74090
L71060 74170
" />
<path d="M71300 74360
L71600 74360
" />
<path d="M71450 74090
L71360 74770
L71390 74840
L71460 74880
L71540 74880
" />
<path d="M71910 74880
L71840 74840
L71820 74770
L71900 74090
" />
<path d="M72520 74840
L72440 74880
L72290 74880
L72220 74840
L72190 74770
L72230 74470
L72280 74390
L72360 74360
L72510 74360
L72580 74390
L72610 74470
L72600 74540
L72210 74620
" />
<path d="M72900 74810
L72930 74840
L72890 74880
L72860 74840
L72900 74810
L72890 74880
" />
<path d="M72950 74390
L72990 74430
L72940 74470
L72910 74430
L72950 74390
L72940 74470
" />
<path d="M73920 74170
L73960 74130
L74040 74090
L74230 74090
L74300 74130
L74340 74170
L74360 74240
L74350 74320
L74300 74430
L73800 74880
L74280 74880
" />
<path d="M74630 74810
L74670 74840
L74620 74880
L74590 74840
L74630 74810
L74620 74880
" />
<path d="M75400 74360
L75340 74880
" />
<path d="M75250 74050
L74990 74620
L75480 74620
" />
<path d="M75800 74170
L75850 74130
L75930 74090
L76110 74090
L76180 74130
L76220 74170
L76250 74240
L76240 74320
L76180 74430
L75680 74880
L76170 74880
" />
<path d="M76560 74090
L76550 74240
" />
<path d="M76870 74090
L76850 74240
" />
<path d="M77670 74840
L77780 74880
L77970 74880
L78050 74840
L78090 74810
L78140 74730
L78150 74660
L78120 74580
L78090 74540
L78020 74510
L77870 74470
L77800 74430
L77770 74390
L77740 74320
L77750 74240
L77800 74170
L77840 74130
L77920 74090
L78110 74090
L78220 74130
" />
<path d="M78430 74840
L78540 74880
L78720 74880
L78800 74840
L78850 74810
L78890 74730
L78900 74660
L78870 74580
L78840 74540
L78770 74510
L78620 74470
L78550 74430
L78520 74390
L78490 74320
L78500 74240
L78550 74170
L78590 74130
L78670 74090
L78860 74090
L78970 74130
" />
<path d="M79210 74880
L79310 74090
L79500 74090
L79610 74130
L79670 74210
L79700 74280
L79720 74430
L79710 74540
L79650 74690
L79600 74770
L79520 74840
L79400 74880
L79210 74880
" />
<path d="M80420 74880
L79960 74880
" />
<path d="M80190 74880
L80290 74090
L80200 74210
L80120 74280
L80040 74320
" />
<path d="M80780 74090
L81270 74090
L80970 74390
L81080 74390
L81150 74430
L81180 74470
L81210 74540
L81190 74730
L81140 74810
L81100 74840
L81020 74880
L80790 74880
L80720 74840
L80690 74810
" />
<path d="M81760 74090
L81830 74090
L81900 74130
L81930 74170
L81960 74240
L81980 74390
L81960 74580
L81900 74730
L81860 74810
L81810 74840
L81730 74880
L81660 74880
L81590 74840
L81550 74810
L81530 74730
L81510 74580
L81530 74390
L81590 74240
L81630 74170
L81680 74130
L81760 74090
" />
<path d="M82300 74880
L82450 74880
L82530 74840
L82570 74810
L82660 74690
L82720 74540
L82750 74240
L82720 74170
L82690 74130
L82620 74090
L82470 74090
L82390 74130
L82350 74170
L82300 74240
L82280 74430
L82310 74510
L82340 74540
L82410 74580
L82560 74580
L82640 74540
L82680 74510
L82730 74430
" />
<path d="M83860 74090
L84010 74090
L84080 74130
L84150 74210
L84170 74360
L84140 74620
L84080 74770
L83990 74840
L83910 74880
L83760 74880
L83690 74840
L83630 74770
L83610 74620
L83640 74360
L83700 74210
L83780 74130
L83860 74090
" />
<path d="M84820 74880
L84440 74880
L84540 74090
" />
<path d="M85130 74470
L85400 74470
" />
<path d="M85460 74880
L85080 74880
L85180 74090
L85560 74090
" />
<path d="M85800 74880
L85890 74090
L86080 74090
L86190 74130
L86260 74210
L86280 74280
L86300 74430
L86290 74540
L86230 74690
L86190 74770
L86100 74840
L85980 74880
L85800 74880
" />
<path d="M87190 74880
L87290 74090
L87470 74090
L87580 74130
L87650 74210
L87680 74280
L87700 74430
L87680 74540
L87620 74690
L87580 74770
L87490 74840
L87380 74880
L87190 74880
" />
<path d="M87980 74880
L88080 74090
" />
<path d="M88320 74840
L88390 74880
L88540 74880
L88620 74840
L88670 74770
L88670 74730
L88650 74660
L88570 74620
L88460 74620
L88390 74580
L88360 74510
L88370 74470
L88410 74390
L88490 74360
L88610 74360
L88680 74390
" />
<path d="M89060 74360
L88960 75150
" />
<path d="M89050 74390
L89130 74360
L89280 74360
L89360 74390
L89390 74430
L89420 74510
L89390 74730
L89340 74810
L89300 74840
L89220 74880
L89070 74880
L89000 74840
" />
<path d="M89820 74880
L89750 74840
L89720 74770
L89810 74090
" />
<path d="M90460 74880
L90510 74470
L90480 74390
L90410 74360
L90260 74360
L90180 74390
" />
<path d="M90470 74840
L90390 74880
L90200 74880
L90130 74840
L90100 74770
L90110 74690
L90150 74620
L90230 74580
L90420 74580
L90500 74540
" />
<path d="M90830 74360
L90950 74880
" />
<path d="M91200 74360
L90950 74880
L90850 75070
L90810 75110
L90730 75150
" />
<path d="M92040 74880
L92140 74090
L92330 74660
L92670 74090
L92570 74880
" />
<path d="M93060 74880
L92990 74840
L92950 74810
L92920 74730
L92950 74510
L93000 74430
L93040 74390
L93120 74360
L93230 74360
L93310 74390
L93340 74430
L93370 74510
L93340 74730
L93290 74810
L93250 74840
L93170 74880
L93060 74880
" />
<path d="M94000 74880
L94100 74090
" />
<path d="M94000 74840
L93920 74880
L93770 74880
L93700 74840
L93670 74810
L93640 74730
L93670 74510
L93710 74430
L93760 74390
L93840 74360
L93990 74360
L94060 74390
" />
<path d="M94780 74360
L94710 74880
" />
<path d="M94440 74360
L94390 74770
L94420 74840
L94490 74880
L94600 74880
L94680 74840
L94720 74810
" />
<path d="M95200 74880
L95130 74840
L95100 74770
L95190 74090
" />
<path d="M95810 74840
L95730 74880
L95580 74880
L95510 74840
L95480 74770
L95520 74470
L95560 74390
L95640 74360
L95790 74360
L95860 74390
L95890 74470
L95880 74540
L95500 74620
" />
</g>
<g style="fill:#840000; fill-opacity:0.0; 
stroke:#840000; stroke-width:100; stroke-opacity:1; 
stroke-linecap:round; stroke-linejoin:round;">
</g>
<g style="fill:#840000; fill-opacity:0.0; 
stroke:#840000; stroke-width:60; stroke-opacity:1; 
stroke-linecap:round; stroke-linejoin:round;">
<text x="70080" y="73400"
textLength="10180" font-size="780" lengthAdjust="spacingAndGlyphs"
text-anchor="start" opacity="0">File: OLED_Display.sch</text>
<path d="M70440 73060
L70250 73060
" />
<path d="M70250 73370
L70250 72780
L70530 72780
" />
<path d="M70750 73370
L70750 72980
" />
<path d="M70750 72780
L70720 72810
L70750 72840
L70780 72810
L70750 72780
L70750 72840
" />
<path d="M71120 73370
L71060 73340
L71030 73290
L71030 72780
" />
<path d="M71570 73340
L71510 73370
L71400 73370
L71340 73340
L71310 73290
L71310 73060
L71340 73010
L71400 72980
L71510 72980
L71570 73010
L71590 73060
L71590 73120
L71310 73180
" />
<path d="M71850 73320
L71880 73340
L71850 73370
L71820 73340
L71850 73320
L71850 73370
" />
<path d="M71850 73010
L71880 73030
L71850 73060
L71820 73030
L71850 73010
L71850 73060
" />
<path d="M72690 72780
L72800 72780
L72860 72810
L72910 72870
L72940 72980
L72940 73180
L72910 73290
L72860 73340
L72800 73370
L72690 73370
L72630 73340
L72580 73290
L72550 73180
L72550 72980
L72580 72870
L72630 72810
L72690 72780
" />
<path d="M73480 73370
L73200 73370
L73200 72780
" />
<path d="M73670 73060
L73870 73060
" />
<path d="M73950 73370
L73670 73370
L73670 72780
L73950 72780
" />
<path d="M74210 73370
L74210 72780
L74350 72780
L74430 72810
L74490 72870
L74520 72920
L74540 73030
L74540 73120
L74520 73230
L74490 73290
L74430 73340
L74350 73370
L74210 73370
" />
<path d="M74660 73430
L75110 73430
" />
<path d="M75250 73370
L75250 72780
L75390 72780
L75470 72810
L75530 72870
L75560 72920
L75580 73030
L75580 73120
L75560 73230
L75530 73290
L75470 73340
L75390 73370
L75250 73370
" />
<path d="M75840 73370
L75840 72980
" />
<path d="M75840 72780
L75810 72810
L75840 72840
L75860 72810
L75840 72780
L75840 72840
" />
<path d="M76090 73340
L76150 73370
L76260 73370
L76310 73340
L76340 73290
L76340 73260
L76310 73200
L76260 73180
L76170 73180
L76120 73150
L76090 73090
L76090 73060
L76120 73010
L76170 72980
L76260 72980
L76310 73010
" />
<path d="M76600 72980
L76600 73570
" />
<path d="M76600 73010
L76650 72980
L76760 72980
L76820 73010
L76850 73030
L76880 73090
L76880 73260
L76850 73320
L76820 73340
L76760 73370
L76650 73370
L76600 73340
" />
<path d="M77210 73370
L77160 73340
L77130 73290
L77130 72780
" />
<path d="M77690 73370
L77690 73060
L77660 73010
L77610 72980
L77490 72980
L77440 73010
" />
<path d="M77690 73340
L77630 73370
L77490 73370
L77440 73340
L77410 73290
L77410 73230
L77440 73180
L77490 73150
L77630 73150
L77690 73120
" />
<path d="M77920 72980
L78060 73370
" />
<path d="M78200 72980
L78060 73370
L78000 73510
L77970 73540
L77920 73570
" />
<path d="M78420 73320
L78450 73340
L78420 73370
L78390 73340
L78420 73320
L78420 73370
" />
<path d="M78670 73340
L78730 73370
L78840 73370
L78900 73340
L78930 73290
L78930 73260
L78900 73200
L78840 73180
L78760 73180
L78700 73150
L78670 73090
L78670 73060
L78700 73010
L78760 72980
L78840 72980
L78900 73010
" />
<path d="M79430 73340
L79380 73370
L79260 73370
L79210 73340
L79180 73320
L79150 73260
L79150 73090
L79180 73030
L79210 73010
L79260 72980
L79380 72980
L79430 73010
" />
<path d="M79690 73370
L79690 72780
" />
<path d="M79940 73370
L79940 73060
L79910 73010
L79850 72980
L79770 72980
L79710 73010
L79690 73030
" />
</g>
<g style="fill:#840000; fill-opacity:0.0; 
stroke:#840000; stroke-width:100; stroke-opacity:1; 
stroke-linecap:round; stroke-linejoin:round;">
</g>
<g style="fill:#840000; fill-opacity:0.0; 
stroke:#840000; stroke-width:60; stroke-opacity:1; 
stroke-linecap:round; stroke-linejoin:round;">
<path d="M69690 71460
L112210 71460
" />
</g>
<g style="fill:#840000; fill-opacity:0.0; 
stroke:#840000; stroke-width:100; stroke-opacity:1; 
stroke-linecap:round; stroke-linejoin:round;">
</g>
<g style="fill:#840000; fill-opacity:0.0; 
stroke:#840000; stroke-width:60; stroke-opacity:1; 
stroke-linecap:round; stroke-linejoin:round;">
<text x="70080" y="72340"
textLength="10310" font-size="780" lengthAdjust="spacingAndGlyphs"
text-anchor="start" opacity="0">Sheet: /OLED_Display/</text>
<path d="M70220 72280
L70300 72310
L70440 72310
L70500 72280
L70530 72260
L70550 72200
L70550 72140
L70530 72090
L70500 72060
L70440 72030
L70330 72000
L70270 71970
L70250 71950
L70220 71890
L70220 71830
L70250 71780
L70270 71750
L70330 71720
L70470 71720
L70550 71750
" />
<path d="M70810 72310
L70810 71720
" />
<path d="M71060 72310
L71060 72000
L71030 71950
L70980 71920
L70890 71920
L70840 71950
L70810 71970
" />
<path d="M71570 72280
L71510 72310
L71400 72310
L71340 72280
L71310 72230
L71310 72000
L71340 71950
L71400 71920
L71510 71920
L71570 71950
L71590 72000
L71590 72060
L71310 72120
" />
<path d="M72070 72280
L72020 72310
L71900 72310
L71850 72280
L71820 72230
L71820 72000
L71850 71950
L71900 71920
L72020 71920
L72070 71950
L72100 72000
L72100 72060
L71820 72120
" />
<path d="M72270 71920
L72490 71920
" />
<path d="M72350 71720
L72350 72230
L72380 72280
L72440 72310
L72490 72310
" />
<path d="M72690 72260
L72720 72280
L72690 72310
L72660 72280
L72690 72260
L72690 72310
" />
<path d="M72690 71950
L72720 71970
L72690 72000
L72660 71970
L72690 71950
L72690 72000
" />
<path d="M73840 71690
L73340 72450
" />
<path d="M74150 71720
L74260 71720
L74320 71750
L74380 71810
L74400 71920
L74400 72120
L74380 72230
L74320 72280
L74260 72310
L74150 72310
L74090 72280
L74040 72230
L74010 72120
L74010 71920
L74040 71810
L74090 71750
L74150 71720
" />
<path d="M74940 72310
L74660 72310
L74660 71720
" />
<path d="M75130 72000
L75330 72000
" />
<path d="M75420 72310
L75130 72310
L75130 71720
L75420 71720
" />
<path d="M75670 72310
L75670 71720
L75810 71720
L75890 71750
L75950 71810
L75980 71860
L76010 71970
L76010 72060
L75980 72170
L75950 72230
L75890 72280
L75810 72310
L75670 72310
" />
<path d="M76120 72370
L76570 72370
" />
<path d="M76710 72310
L76710 71720
L76850 71720
L76930 71750
L76990 71810
L77020 71860
L77040 71970
L77040 72060
L77020 72170
L76990 72230
L76930 72280
L76850 72310
L76710 72310
" />
<path d="M77300 72310
L77300 71920
" />
<path d="M77300 71720
L77270 71750
L77300 71780
L77330 71750
L77300 71720
L77300 71780
" />
<path d="M77550 72280
L77610 72310
L77720 72310
L77780 72280
L77800 72230
L77800 72200
L77780 72140
L77720 72120
L77630 72120
L77580 72090
L77550 72030
L77550 72000
L77580 71950
L77630 71920
L77720 71920
L77780 71950
" />
<path d="M78060 71920
L78060 72510
" />
<path d="M78060 71950
L78110 71920
L78220 71920
L78280 71950
L78310 71970
L78340 72030
L78340 72200
L78310 72260
L78280 72280
L78220 72310
L78110 72310
L78060 72280
" />
<path d="M78670 72310
L78620 72280
L78590 72230
L78590 71720
" />
<path d="M79150 72310
L79150 72000
L79120 71950
L79070 71920
L78960 71920
L78900 71950
" />
<path d="M79150 72280
L79100 72310
L78960 72310
L78900 72280
L78870 72230
L78870 72170
L78900 72120
L78960 72090
L79100 72090
L79150 72060
" />
<path d="M79380 71920
L79520 72310
" />
<path d="M79660 71920
L79520 72310
L79460 72450
L79430 72480
L79380 72510
" />
<path d="M80300 71690
L79800 72450
" />
</g>
<g style="fill:#840000; fill-opacity:0.0; 
stroke:#840000; stroke-width:100; stroke-opacity:1; 
stroke-linecap:round; stroke-linejoin:round;">
</g>
<g style="fill:#840000; fill-opacity:0.0; 
stroke:#840000; stroke-width:120; stroke-opacity:1; 
stroke-linecap:round; stroke-linejoin:round;">
<text x="70080" y="71160"
textLength="9190" font-size="780" lengthAdjust="spacingAndGlyphs"
text-anchor="start" opacity="0">Created by C Sutton</text>
<path d="M70630 71080
L70600 71100
L70520 71130
L70460 71130
L70380 71100
L70320 71050
L70290 70990
L70270 70880
L70270 70790
L70290 70680
L70320 70630
L70380 70570
L70460 70540
L70520 70540
L70600 70570
L70630 70600
" />
<path d="M70880 71130
L70880 70740
" />
<path d="M70880 70850
L70910 70790
L70940 70770
L71000 70740
L71050 70740
" />
<path d="M71470 71100
L71420 71130
L71300 71130
L71250 71100
L71220 71050
L71220 70820
L71250 70770
L71300 70740
L71420 70740
L71470 70770
L71500 70820
L71500 70880
L71220 70940
" />
<path d="M72010 71130
L72010 70820
L71980 70770
L71920 70740
L71810 70740
L71750 70770
" />
<path d="M72010 71100
L71950 71130
L71810 71130
L71750 71100
L71730 71050
L71730 70990
L71750 70940
L71810 70910
L71950 70910
L72010 70880
" />
<path d="M72200 70740
L72430 70740
" />
<path d="M72290 70540
L72290 71050
L72320 71100
L72370 71130
L72430 71130
" />
<path d="M72850 71100
L72790 71130
L72680 71130
L72630 71100
L72600 71050
L72600 70820
L72630 70770
L72680 70740
L72790 70740
L72850 70770
L72880 70820
L72880 70880
L72600 70940
" />
<path d="M73380 71130
L73380 70540
" />
<path d="M73380 71100
L73330 71130
L73220 71130
L73160 71100
L73130 71080
L73100 71020
L73100 70850
L73130 70790
L73160 70770
L73220 70740
L73330 70740
L73380 70770
" />
<path d="M74110 71130
L74110 70540
" />
<path d="M74110 70770
L74170 70740
L74280 70740
L74340 70770
L74370 70790
L74400 70850
L74400 71020
L74370 71080
L74340 71100
L74280 71130
L74170 71130
L74110 71100
" />
<path d="M74590 70740
L74730 71130
" />
<path d="M74870 70740
L74730 71130
L74680 71270
L74650 71300
L74590 71330
" />
<path d="M75880 71080
L75860 71100
L75770 71130
L75720 71130
L75630 71100
L75580 71050
L75550 70990
L75520 70880
L75520 70790
L75550 70680
L75580 70630
L75630 70570
L75720 70540
L75770 70540
L75860 70570
L75880 70600
" />
<path d="M76560 71100
L76640 71130
L76780 71130
L76840 71100
L76870 71080
L76900 71020
L76900 70960
L76870 70910
L76840 70880
L76780 70850
L76670 70820
L76610 70790
L76590 70770
L76560 70710
L76560 70650
L76590 70600
L76610 70570
L76670 70540
L76810 70540
L76900 70570
" />
<path d="M77400 70740
L77400 71130
" />
<path d="M77150 70740
L77150 71050
L77180 71100
L77230 71130
L77320 71130
L77370 71100
L77400 71080
" />
<path d="M77600 70740
L77820 70740
" />
<path d="M77680 70540
L77680 71050
L77710 71100
L77770 71130
L77820 71130
" />
<path d="M77940 70740
L78160 70740
" />
<path d="M78020 70540
L78020 71050
L78050 71100
L78100 71130
L78160 71130
" />
<path d="M78440 71130
L78380 71100
L78360 71080
L78330 71020
L78330 70850
L78360 70790
L78380 70770
L78440 70740
L78530 70740
L78580 70770
L78610 70790
L78640 70850
L78640 71020
L78610 71080
L78580 71100
L78530 71130
L78440 71130
" />
<path d="M78890 70740
L78890 71130
" />
<path d="M78890 70790
L78920 70770
L78970 70740
L79060 70740
L79120 70770
L79140 70820
L79140 71130
" />
</g>
<g style="fill:#840000; fill-opacity:0.0; 
stroke:#840000; stroke-width:100; stroke-opacity:1; 
stroke-linecap:round; stroke-linejoin:round;">
</g>
<g style="fill:#840000; fill-opacity:0.0; 
stroke:#840000; stroke-width:60; stroke-opacity:1; 
stroke-linecap:round; stroke-linejoin:round;">
<path d="M77560 75400
L77560 76580
" />
</g>
<g style="fill:#840000; fill-opacity:0.0; 
stroke:#840000; stroke-width:100; stroke-opacity:1; 
stroke-linecap:round; stroke-linejoin:round;">
</g>
<g style="fill:#840000; fill-opacity:0.0; 
stroke:#840000; stroke-width:60; stroke-opacity:1; 
stroke-linecap:round; stroke-linejoin:round;">
<path d="M102760 75400
L102760 77960
" />
</g>
<g style="fill:#840000; fill-opacity:0.0; 
stroke:#840000; stroke-width:0; stroke-opacity:1; 
stroke-linecap:round; stroke-linejoin:round;">
<g >
</g>
<g style="fill:#FFFFC2; fill-opacity:0.0; 
stroke:#FFFFC2; stroke-width:0; stroke-opacity:1; 
stroke-linecap:round; stroke-linejoin:round;">
</g>
<g style="fill:#FFFFC2; fill-opacity:0.6; 
stroke:#FFFFC2; stroke-width:0; stroke-opacity:1; 
stroke-linecap:round; stroke-linejoin:round;">
<rect x="61500" y="31500" width="1000" height="7000" rx="0" />
</g>
<g style="fill:#840000; fill-opacity:0.6; 
stroke:#840000; stroke-width:0; stroke-opacity:1; 
stroke-linecap:round; stroke-linejoin:round;">
</g>
<g style="fill:#840000; fill-opacity:0.0; 
stroke:#840000; stroke-width:100; stroke-opacity:1; 
stroke-linecap:round; stroke-linejoin:round;">
<rect x="61500" y="31500" width="1000" height="7000" rx="0" />
</g>
<g style="fill:#840000; fill-opacity:0.0; 
stroke:#840000; stroke-width:60; stroke-opacity:1; 
stroke-linecap:round; stroke-linejoin:round;">
<rect x="61500" y="32950" width="500" height="100" rx="0" />
<rect x="61500" y="31950" width="500" height="100" rx="0" />
<rect x="61500" y="33950" width="500" height="100" rx="0" />
<rect x="61500" y="35950" width="500" height="100" rx="0" />
<rect x="61500" y="36950" width="500" height="100" rx="0" />
<rect x="61500" y="37950" width="500" height="100" rx="0" />
</g>
<g style="fill:#840000; fill-opacity:0.0; 
stroke:#840000; stroke-width:100; stroke-opacity:1; 
stroke-linecap:round; stroke-linejoin:round;">
<rect x="61500" y="31500" width="1000" height="7000" rx="0" />
</g>
<g style="fill:#840000; fill-opacity:0.0; 
stroke:#840000; stroke-width:60; stroke-opacity:1; 
stroke-linecap:round; stroke-linejoin:round;">
<rect x="61500" y="34950" width="500" height="100" rx="0" />
<path d="M61500 38000
L60000 38000
" />
<text x="60750" y="37900"
textLength="630" font-size="660" lengthAdjust="spacingAndGlyphs"
text-anchor="middle" opacity="0">1</text>
<path d="M60890 37870
L60600 37870
" />
<path d="M60750 37870
L60750 37370
L60700 37440
L60650 37490
L60600 37510
" />
<path d="M61500 37000
L60000 37000
" />
<text x="60750" y="36900"
textLength="540" font-size="660" lengthAdjust="spacingAndGlyphs"
text-anchor="middle" opacity="0">2</text>
<path d="M60600 36420
L60630 36400
L60670 36370
L60790 36370
L60840 36400
L60860 36420
L60890 36470
L60890 36510
L60860 36590
L60580 36870
L60890 36870
" />
<path d="M61500 36000
L60000 36000
" />
<text x="60750" y="35900"
textLength="540" font-size="660" lengthAdjust="spacingAndGlyphs"
text-anchor="middle" opacity="0">3</text>
<path d="M60580 35370
L60890 35370
L60720 35560
L60790 35560
L60840 35590
L60860 35610
L60890 35660
L60890 35780
L60860 35820
L60840 35850
L60790 35870
L60650 35870
L60600 35850
L60580 35820
" />
<path d="M61500 35000
L60000 35000
" />
<text x="60750" y="34900"
textLength="540" font-size="660" lengthAdjust="spacingAndGlyphs"
text-anchor="middle" opacity="0">4</text>
<path d="M60840 34540
L60840 34870
" />
<path d="M60720 34350
L60600 34700
L60910 34700
" />
<path d="M61500 34000
L60000 34000
" />
<text x="60750" y="33900"
textLength="540" font-size="660" lengthAdjust="spacingAndGlyphs"
text-anchor="middle" opacity="0">5</text>
<path d="M60860 33370
L60630 33370
L60600 33610
L60630 33590
L60670 33560
L60790 33560
L60840 33590
L60860 33610
L60890 33660
L60890 33780
L60860 33820
L60840 33850
L60790 33870
L60670 33870
L60630 33850
L60600 33820
" />
<path d="M61500 33000
L60000 33000
" />
<text x="60750" y="32900"
textLength="540" font-size="660" lengthAdjust="spacingAndGlyphs"
text-anchor="middle" opacity="0">6</text>
<path d="M60840 32370
L60750 32370
L60700 32400
L60670 32420
L60630 32490
L60600 32590
L60600 32780
L60630 32820
L60650 32850
L60700 32870
L60790 32870
L60840 32850
L60860 32820
L60890 32780
L60890 32660
L60860 32610
L60840 32590
L60790 32560
L60700 32560
L60650 32590
L60630 32610
L60600 32660
" />
<path d="M61500 32000
L60000 32000
" />
<text x="60750" y="31900"
textLength="540" font-size="660" lengthAdjust="spacingAndGlyphs"
text-anchor="middle" opacity="0">7</text>
<path d="M60580 31370
L60910 31370
L60700 31870
" />
</g>
<g style="fill:#008484; fill-opacity:0.0; 
stroke:#008484; stroke-width:60; stroke-opacity:1; 
stroke-linecap:round; stroke-linejoin:round;">
<text x="61180" y="29970"
textLength="920" font-size="660" lengthAdjust="spacingAndGlyphs"
text-anchor="middle" opacity="0">J8</text>
<path d="M61010 29440
L61010 29800
L60980 29870
L60940 29920
L60870 29940
L60820 29940
" />
<path d="M61320 29660
L61270 29630
L61250 29610
L61220 29560
L61220 29540
L61250 29490
L61270 29470
L61320 29440
L61410 29440
L61460 29470
L61480 29490
L61510 29540
L61510 29560
L61480 29610
L61460 29630
L61410 29660
L61320 29660
L61270 29680
L61250 29700
L61220 29750
L61220 29850
L61250 29890
L61270 29920
L61320 29940
L61410 29940
L61460 29920
L61480 29890
L61510 29850
L61510 29750
L61480 29700
L61460 29680
L61410 29660
" />
<text x="61180" y="30880"
textLength="4610" font-size="660" lengthAdjust="spacingAndGlyphs"
text-anchor="middle" opacity="0">Conn_01x07</text>
<path d="M59310 30800
L59280 30830
L59210 30850
L59160 30850
L59090 30830
L59040 30780
L59020 30730
L59000 30640
L59000 30570
L59020 30470
L59040 30420
L59090 30380
L59160 30350
L59210 30350
L59280 30380
L59310 30400
" />
<path d="M59590 30850
L59540 30830
L59520 30800
L59500 30760
L59500 30610
L59520 30570
L59540 30540
L59590 30520
L59660 30520
L59710 30540
L59730 30570
L59760 30610
L59760 30760
L59730 30800
L59710 30830
L59660 30850
L59590 30850
" />
<path d="M59970 30520
L59970 30850
" />
<path d="M59970 30570
L60000 30540
L60040 30520
L60120 30520
L60160 30540
L60190 30590
L60190 30850
" />
<path d="M60430 30520
L60430 30850
" />
<path d="M60430 30570
L60450 30540
L60500 30520
L60570 30520
L60620 30540
L60640 30590
L60640 30850
" />
<path d="M60760 30900
L61140 30900
" />
<path d="M61350 30350
L61400 30350
L61450 30380
L61470 30400
L61500 30450
L61520 30540
L61520 30660
L61500 30760
L61470 30800
L61450 30830
L61400 30850
L61350 30850
L61310 30830
L61280 30800
L61260 30760
L61230 30660
L61230 30540
L61260 30450
L61280 30400
L61310 30380
L61350 30350
" />
<path d="M62000 30850
L61710 30850
" />
<path d="M61850 30850
L61850 30350
L61810 30420
L61760 30470
L61710 30490
" />
<path d="M62160 30850
L62430 30520
" />
<path d="M62160 30520
L62430 30850
" />
<path d="M62710 30350
L62760 30350
L62810 30380
L62830 30400
L62850 30450
L62880 30540
L62880 30660
L62850 30760
L62830 30800
L62810 30830
L62760 30850
L62710 30850
L62660 30830
L62640 30800
L62620 30760
L62590 30660
L62590 30540
L62620 30450
L62640 30400
L62660 30380
L62710 30350
" />
<path d="M63040 30350
L63380 30350
L63160 30850
" />
</g>
</g>
<g style="fill:#008484; fill-opacity:0.0; 
stroke:#008484; stroke-width:0; stroke-opacity:1; 
stroke-linecap:round; stroke-linejoin:round;">
<g >
</g>
<g style="fill:#840000; fill-opacity:0.0; 
stroke:#840000; stroke-width:0; stroke-opacity:1; 
stroke-linecap:round; stroke-linejoin:round;">
</g>
<g style="fill:#840000; fill-opacity:0.0; 
stroke:#840000; stroke-width:60; stroke-opacity:1; 
stroke-linecap:round; stroke-linejoin:round;">
<circle cx="50250" cy="27700" r="300" /> 
<path d="M50250 28000
L50250 29000
" />
</g>
<g style="fill:#008484; fill-opacity:0.0; 
stroke:#008484; stroke-width:60; stroke-opacity:1; 
stroke-linecap:round; stroke-linejoin:round;">
<text x="50440" y="26770"
textLength="1890" font-size="660" lengthAdjust="spacingAndGlyphs"
text-anchor="middle" opacity="0">TP52</text>
<path d="M49570 26240
L49850 26240
" />
<path d="M49710 26740
L49710 26240
" />
<path d="M50020 26740
L50020 26240
L50210 26240
L50260 26270
L50280 26290
L50300 26340
L50300 26410
L50280 26460
L50260 26480
L50210 26500
L50020 26500
" />
<path d="M50760 26240
L50520 26240
L50490 26480
L50520 26460
L50570 26430
L50690 26430
L50730 26460
L50760 26480
L50780 26530
L50780 26650
L50760 26690
L50730 26720
L50690 26740
L50570 26740
L50520 26720
L50490 26690
" />
<path d="M50970 26290
L50990 26270
L51040 26240
L51160 26240
L51210 26270
L51230 26290
L51260 26340
L51260 26380
L51230 26460
L50950 26740
L51260 26740
" />
</g>
</g>
<g style="fill:#008484; fill-opacity:0.0; 
stroke:#008484; stroke-width:0; stroke-opacity:1; 
stroke-linecap:round; stroke-linejoin:round;">
<g >
</g>
<g style="fill:#840000; fill-opacity:0.0; 
stroke:#840000; stroke-width:0; stroke-opacity:1; 
stroke-linecap:round; stroke-linejoin:round;">
</g>
<g style="fill:#840000; fill-opacity:0.0; 
stroke:#840000; stroke-width:60; stroke-opacity:1; 
stroke-linecap:round; stroke-linejoin:round;">
<circle cx="54000" cy="28950" r="300" /> 
<path d="M54000 29250
L54000 30250
" />
</g>
<g style="fill:#008484; fill-opacity:0.0; 
stroke:#008484; stroke-width:60; stroke-opacity:1; 
stroke-linecap:round; stroke-linejoin:round;">
<text x="54190" y="28020"
textLength="1890" font-size="660" lengthAdjust="spacingAndGlyphs"
text-anchor="middle" opacity="0">TP55</text>
<path d="M53320 27490
L53600 27490
" />
<path d="M53460 27990
L53460 27490
" />
<path d="M53770 27990
L53770 27490
L53960 27490
L54010 27520
L54030 27540
L54050 27590
L54050 27660
L54030 27710
L54010 27730
L53960 27750
L53770 27750
" />
<path d="M54510 27490
L54270 27490
L54240 27730
L54270 27710
L54320 27680
L54440 27680
L54480 27710
L54510 27730
L54530 27780
L54530 27900
L54510 27940
L54480 27970
L54440 27990
L54320 27990
L54270 27970
L54240 27940
" />
<path d="M54980 27490
L54740 27490
L54720 27730
L54740 27710
L54790 27680
L54910 27680
L54960 27710
L54980 27730
L55010 27780
L55010 27900
L54980 27940
L54960 27970
L54910 27990
L54790 27990
L54740 27970
L54720 27940
" />
</g>
</g>
<g style="fill:#008484; fill-opacity:0.0; 
stroke:#008484; stroke-width:0; stroke-opacity:1; 
stroke-linecap:round; stroke-linejoin:round;">
<g >
</g>
<g style="fill:#840000; fill-opacity:0.0; 
stroke:#840000; stroke-width:0; stroke-opacity:1; 
stroke-linecap:round; stroke-linejoin:round;">
</g>
<g style="fill:#840000; fill-opacity:0.0; 
stroke:#840000; stroke-width:60; stroke-opacity:1; 
stroke-linecap:round; stroke-linejoin:round;">
<circle cx="52750" cy="27700" r="300" /> 
<path d="M52750 28000
L52750 29000
" />
</g>
<g style="fill:#008484; fill-opacity:0.0; 
stroke:#008484; stroke-width:60; stroke-opacity:1; 
stroke-linecap:round; stroke-linejoin:round;">
<text x="52940" y="26770"
textLength="1890" font-size="660" lengthAdjust="spacingAndGlyphs"
text-anchor="middle" opacity="0">TP54</text>
<path d="M52070 26240
L52350 26240
" />
<path d="M52210 26740
L52210 26240
" />
<path d="M52520 26740
L52520 26240
L52710 26240
L52760 26270
L52780 26290
L52800 26340
L52800 26410
L52780 26460
L52760 26480
L52710 26500
L52520 26500
" />
<path d="M53260 26240
L53020 26240
L52990 26480
L53020 26460
L53070 26430
L53190 26430
L53230 26460
L53260 26480
L53280 26530
L53280 26650
L53260 26690
L53230 26720
L53190 26740
L53070 26740
L53020 26720
L52990 26690
" />
<path d="M53710 26410
L53710 26740
" />
<path d="M53590 26220
L53470 26570
L53780 26570
" />
</g>
</g>
<g style="fill:#008484; fill-opacity:0.0; 
stroke:#008484; stroke-width:0; stroke-opacity:1; 
stroke-linecap:round; stroke-linejoin:round;">
<g >
</g>
<g style="fill:#840000; fill-opacity:0.0; 
stroke:#840000; stroke-width:0; stroke-opacity:1; 
stroke-linecap:round; stroke-linejoin:round;">
</g>
<g style="fill:#840000; fill-opacity:0.0; 
stroke:#840000; stroke-width:60; stroke-opacity:1; 
stroke-linecap:round; stroke-linejoin:round;">
<circle cx="51500" cy="28950" r="300" /> 
<path d="M51500 29250
L51500 30250
" />
</g>
<g style="fill:#008484; fill-opacity:0.0; 
stroke:#008484; stroke-width:60; stroke-opacity:1; 
stroke-linecap:round; stroke-linejoin:round;">
<text x="51690" y="28020"
textLength="1890" font-size="660" lengthAdjust="spacingAndGlyphs"
text-anchor="middle" opacity="0">TP53</text>
<path d="M50820 27490
L51100 27490
" />
<path d="M50960 27990
L50960 27490
" />
<path d="M51270 27990
L51270 27490
L51460 27490
L51510 27520
L51530 27540
L51550 27590
L51550 27660
L51530 27710
L51510 27730
L51460 27750
L51270 27750
" />
<path d="M52010 27490
L51770 27490
L51740 27730
L51770 27710
L51820 27680
L51940 27680
L51980 27710
L52010 27730
L52030 27780
L52030 27900
L52010 27940
L51980 27970
L51940 27990
L51820 27990
L51770 27970
L51740 27940
" />
<path d="M52200 27490
L52510 27490
L52340 27680
L52410 27680
L52460 27710
L52480 27730
L52510 27780
L52510 27900
L52480 27940
L52460 27970
L52410 27990
L52270 27990
L52220 27970
L52200 27940
" />
</g>
</g>
<g style="fill:#008484; fill-opacity:0.0; 
stroke:#008484; stroke-width:0; stroke-opacity:1; 
stroke-linecap:round; stroke-linejoin:round;">
<g >
</g>
<g style="fill:#840000; fill-opacity:0.0; 
stroke:#840000; stroke-width:0; stroke-opacity:1; 
stroke-linecap:round; stroke-linejoin:round;">
</g>
<g style="fill:#840000; fill-opacity:0.0; 
stroke:#840000; stroke-width:60; stroke-opacity:1; 
stroke-linecap:round; stroke-linejoin:round;">
<path style="fill:#840000; fill-opacity:0.0; 
stroke:#840000; stroke-width:60; stroke-opacity:1; 
stroke-linecap:round; stroke-linejoin:round;fill:none"
d="M 44000,40750
44000,41250
44500,41250
44000,41750
43500,41250
44000,41250
" /> 
</g>
<g style="fill:#008484; fill-opacity:0.0; 
stroke:#008484; stroke-width:60; stroke-opacity:1; 
stroke-linecap:round; stroke-linejoin:round;">
<text x="44050" y="42750"
textLength="2060" font-size="660" lengthAdjust="spacingAndGlyphs"
text-anchor="middle" opacity="0">GNDS</text>
<path d="M43430 42250
L43380 42220
L43310 42220
L43240 42250
L43190 42290
L43160 42340
L43140 42440
L43140 42510
L43160 42600
L43190 42650
L43240 42700
L43310 42720
L43350 42720
L43430 42700
L43450 42670
L43450 42510
L43350 42510
" />
<path d="M43660 42720
L43660 42220
L43950 42720
L43950 42220
" />
<path d="M44190 42720
L44190 42220
L44310 42220
L44380 42250
L44430 42290
L44450 42340
L44470 42440
L44470 42510
L44450 42600
L44430 42650
L44380 42700
L44310 42720
L44190 42720
" />
<path d="M44660 42700
L44740 42720
L44850 42720
L44900 42700
L44930 42670
L44950 42630
L44950 42580
L44930 42530
L44900 42510
L44850 42480
L44760 42460
L44710 42440
L44690 42410
L44660 42360
L44660 42320
L44690 42270
L44710 42250
L44760 42220
L44880 42220
L44950 42250
" />
</g>
</g>
<g style="fill:#008484; fill-opacity:0.0; 
stroke:#008484; stroke-width:60; stroke-opacity:1; 
stroke-linecap:round; stroke-linejoin:round;">
</g>
<g style="fill:#008400; fill-opacity:0.0; 
stroke:#008400; stroke-width:60; stroke-opacity:1; 
stroke-linecap:round; stroke-linejoin:round;">
<path d="M60000 37000
L34500 37000
" />
<path d="M60000 38000
L44000 38000
" />
<path d="M44000 38000
L44000 40750
" />
<path d="M60000 36000
L54000 36000
" />
<path d="M54000 36000
L34500 36000
" />
<path d="M51500 34000
L51500 30250
" />
<path d="M60000 35000
L52750 35000
" />
<path d="M52750 35000
L52750 29000
" />
<path d="M60000 34000
L51500 34000
" />
<path d="M54000 36000
L54000 30250
" />
<path d="M60000 33000
L50250 33000
" />
<path d="M50250 33000
L50250 29000
" />
<path d="M60000 32000
L34250 32000
" />
<path d="M50250 33000
L34500 33000
" />
<path d="M51500 34000
L34500 34000
" />
<path d="M52750 35000
L34500 35000
" />
</g>
<g style="fill:#848400; fill-opacity:0.0; 
stroke:#848400; stroke-width:60; stroke-opacity:1; 
stroke-linecap:round; stroke-linejoin:round;">
<text x="33900" y="37250"
textLength="4560" font-size="660" lengthAdjust="spacingAndGlyphs"
text-anchor="end" opacity="0">+3.3V_OLED</text>
<path d="M29480 37030
L29870 37030
" />
<path d="M29670 37220
L29670 36840
" />
<path d="M30060 36720
L30370 36720
L30200 36910
L30270 36910
L30320 36940
L30340 36960
L30370 37010
L30370 37130
L30340 37170
L30320 37200
L30270 37220
L30130 37220
L30080 37200
L30060 37170
" />
<path d="M30580 37170
L30600 37200
L30580 37220
L30560 37200
L30580 37170
L30580 37220
" />
<path d="M30770 36720
L31080 36720
L30910 36910
L30980 36910
L31030 36940
L31060 36960
L31080 37010
L31080 37130
L31060 37170
L31030 37200
L30980 37220
L30840 37220
L30790 37200
L30770 37170
" />
<path d="M31220 36720
L31390 37220
L31560 36720
" />
<path d="M31600 37270
L31980 37270
" />
<path d="M32200 36720
L32290 36720
L32340 36750
L32390 36790
L32410 36890
L32410 37050
L32390 37150
L32340 37200
L32290 37220
L32200 37220
L32150 37200
L32100 37150
L32080 37050
L32080 36890
L32100 36790
L32150 36750
L32200 36720
" />
<path d="M32870 37220
L32630 37220
L32630 36720
" />
<path d="M33030 36960
L33200 36960
" />
<path d="M33270 37220
L33030 37220
L33030 36720
L33270 36720
" />
<path d="M33480 37220
L33480 36720
L33600 36720
L33670 36750
L33720 36790
L33750 36840
L33770 36940
L33770 37010
L33750 37100
L33720 37150
L33670 37200
L33600 37220
L33480 37220
" />
</g>
<g style="fill:#848400; fill-opacity:0.0; 
stroke:#848400; stroke-width:100; stroke-opacity:1; 
stroke-linecap:round; stroke-linejoin:round;">
<path style="fill:#848400; fill-opacity:0.0; 
stroke:#848400; stroke-width:100; stroke-opacity:1; 
stroke-linecap:round; stroke-linejoin:round;fill:none"
d="M 34500,37000
34250,36750
34000,36750
34000,37250
34250,37250
Z" /> 
</g>
<g style="fill:#848400; fill-opacity:0.0; 
stroke:#848400; stroke-width:60; stroke-opacity:1; 
stroke-linecap:round; stroke-linejoin:round;">
<text x="33900" y="36250"
textLength="1460" font-size="660" lengthAdjust="spacingAndGlyphs"
text-anchor="end" opacity="0">CLK</text>
<path d="M32870 36170
L32840 36200
L32770 36220
L32720 36220
L32650 36200
L32600 36150
L32580 36100
L32560 36010
L32560 35940
L32580 35840
L32600 35790
L32650 35750
L32720 35720
L32770 35720
L32840 35750
L32870 35770
" />
<path d="M33320 36220
L33080 36220
L33080 35720
" />
<path d="M33480 36220
L33480 35720
" />
<path d="M33770 36220
L33560 35940
" />
<path d="M33770 35720
L33480 36010
" />
</g>
<g style="fill:#848400; fill-opacity:0.0; 
stroke:#848400; stroke-width:100; stroke-opacity:1; 
stroke-linecap:round; stroke-linejoin:round;">
<path style="fill:#848400; fill-opacity:0.0; 
stroke:#848400; stroke-width:100; stroke-opacity:1; 
stroke-linecap:round; stroke-linejoin:round;fill:none"
d="M 34500,36000
34250,35750
34000,35750
34000,36250
34250,36250
Z" /> 
</g>
<g style="fill:#848400; fill-opacity:0.0; 
stroke:#848400; stroke-width:60; stroke-opacity:1; 
stroke-linecap:round; stroke-linejoin:round;">
<text x="33900" y="35250"
textLength="1800" font-size="660" lengthAdjust="spacingAndGlyphs"
text-anchor="end" opacity="0">DATA</text>
<path d="M32250 35220
L32250 34720
L32370 34720
L32440 34750
L32480 34790
L32510 34840
L32530 34940
L32530 35010
L32510 35100
L32480 35150
L32440 35200
L32370 35220
L32250 35220
" />
<path d="M32720 35080
L32960 35080
" />
<path d="M32670 35220
L32840 34720
L33010 35220
" />
<path d="M33100 34720
L33390 34720
" />
<path d="M33250 35220
L33250 34720
" />
<path d="M33530 35080
L33770 35080
" />
<path d="M33480 35220
L33650 34720
L33820 35220
" />
</g>
<g style="fill:#848400; fill-opacity:0.0; 
stroke:#848400; stroke-width:100; stroke-opacity:1; 
stroke-linecap:round; stroke-linejoin:round;">
<path style="fill:#848400; fill-opacity:0.0; 
stroke:#848400; stroke-width:100; stroke-opacity:1; 
stroke-linecap:round; stroke-linejoin:round;fill:none"
d="M 34500,35000
34250,34750
34000,34750
34000,35250
34250,35250
Z" /> 
</g>
<g style="fill:#848400; fill-opacity:0.0; 
stroke:#848400; stroke-width:60; stroke-opacity:1; 
stroke-linecap:round; stroke-linejoin:round;">
<text x="33900" y="34250"
textLength="2320" font-size="660" lengthAdjust="spacingAndGlyphs"
text-anchor="end" opacity="0">RESET</text>
<path d="M32010 34220
L31840 33980
" />
<path d="M31720 34220
L31720 33720
L31910 33720
L31960 33750
L31980 33770
L32010 33820
L32010 33890
L31980 33940
L31960 33960
L31910 33980
L31720 33980
" />
<path d="M32220 33960
L32390 33960
" />
<path d="M32460 34220
L32220 34220
L32220 33720
L32460 33720
" />
<path d="M32650 34200
L32720 34220
L32840 34220
L32890 34200
L32910 34170
L32940 34130
L32940 34080
L32910 34030
L32890 34010
L32840 33980
L32750 33960
L32700 33940
L32670 33910
L32650 33860
L32650 33820
L32670 33770
L32700 33750
L32750 33720
L32870 33720
L32940 33750
" />
<path d="M33150 33960
L33320 33960
" />
<path d="M33390 34220
L33150 34220
L33150 33720
L33390 33720
" />
<path d="M33530 33720
L33820 33720
" />
<path d="M33670 34220
L33670 33720
" />
</g>
<g style="fill:#848400; fill-opacity:0.0; 
stroke:#848400; stroke-width:100; stroke-opacity:1; 
stroke-linecap:round; stroke-linejoin:round;">
<path style="fill:#848400; fill-opacity:0.0; 
stroke:#848400; stroke-width:100; stroke-opacity:1; 
stroke-linecap:round; stroke-linejoin:round;fill:none"
d="M 34500,34000
34250,33750
34000,33750
34000,34250
34250,34250
Z" /> 
</g>
<g style="fill:#848400; fill-opacity:0.0; 
stroke:#848400; stroke-width:60; stroke-opacity:1; 
stroke-linecap:round; stroke-linejoin:round;">
<text x="33900" y="33250"
textLength="5800" font-size="660" lengthAdjust="spacingAndGlyphs"
text-anchor="end" opacity="0">DATA_COMMAND</text>
<path d="M28250 33220
L28250 32720
L28370 32720
L28440 32750
L28480 32790
L28510 32840
L28530 32940
L28530 33010
L28510 33100
L28480 33150
L28440 33200
L28370 33220
L28250 33220
" />
<path d="M28720 33080
L28960 33080
" />
<path d="M28670 33220
L28840 32720
L29010 33220
" />
<path d="M29100 32720
L29390 32720
" />
<path d="M29250 33220
L29250 32720
" />
<path d="M29530 33080
L29770 33080
" />
<path d="M29480 33220
L29650 32720
L29820 33220
" />
<path d="M29870 33270
L30250 33270
" />
<path d="M30650 33170
L30630 33200
L30560 33220
L30510 33220
L30440 33200
L30390 33150
L30370 33100
L30340 33010
L30340 32940
L30370 32840
L30390 32790
L30440 32750
L30510 32720
L30560 32720
L30630 32750
L30650 32770
" />
<path d="M30960 32720
L31060 32720
L31100 32750
L31150 32790
L31170 32890
L31170 33050
L31150 33150
L31100 33200
L31060 33220
L30960 33220
L30910 33200
L30870 33150
L30840 33050
L30840 32890
L30870 32790
L30910 32750
L30960 32720
" />
<path d="M31390 33220
L31390 32720
L31560 33080
L31720 32720
L31720 33220
" />
<path d="M31960 33220
L31960 32720
L32130 33080
L32290 32720
L32290 33220
" />
<path d="M32510 33080
L32750 33080
" />
<path d="M32460 33220
L32630 32720
L32790 33220
" />
<path d="M32960 33220
L32960 32720
L33250 33220
L33250 32720
" />
<path d="M33480 33220
L33480 32720
L33600 32720
L33670 32750
L33720 32790
L33750 32840
L33770 32940
L33770 33010
L33750 33100
L33720 33150
L33670 33200
L33600 33220
L33480 33220
" />
</g>
<g style="fill:#848400; fill-opacity:0.0; 
stroke:#848400; stroke-width:100; stroke-opacity:1; 
stroke-linecap:round; stroke-linejoin:round;">
<path style="fill:#848400; fill-opacity:0.0; 
stroke:#848400; stroke-width:100; stroke-opacity:1; 
stroke-linecap:round; stroke-linejoin:round;fill:none"
d="M 34500,33000
34250,32750
34000,32750
34000,33250
34250,33250
Z" /> 
</g>
<g style="fill:#848400; fill-opacity:0.0; 
stroke:#848400; stroke-width:60; stroke-opacity:1; 
stroke-linecap:round; stroke-linejoin:round;">
</g>
<g style="fill:#000000; fill-opacity:0.0; 
stroke:#000000; stroke-width:60; stroke-opacity:1; 
stroke-linecap:round; stroke-linejoin:round;">
<text x="34500" y="31900"
textLength="5390" font-size="660" lengthAdjust="spacingAndGlyphs"
text-anchor="start" opacity="0">CABLE_SELECT</text>
<path d="M34930 31820
L34910 31850
L34830 31870
L34790 31870
L34720 31850
L34670 31800
L34640 31750
L34620 31660
L34620 31590
L34640 31490
L34670 31440
L34720 31400
L34790 31370
L34830 31370
L34910 31400
L34930 31420
" />
<path d="M35120 31730
L35360 31730
" />
<path d="M35070 31870
L35240 31370
L35410 31870
" />
<path d="M35740 31610
L35810 31630
L35830 31660
L35860 31700
L35860 31780
L35830 31820
L35810 31850
L35760 31870
L35570 31870
L35570 31370
L35740 31370
L35790 31400
L35810 31420
L35830 31470
L35830 31510
L35810 31560
L35790 31590
L35740 31610
L35570 31610
" />
<path d="M36310 31870
L36070 31870
L36070 31370
" />
<path d="M36480 31610
L36640 31610
" />
<path d="M36720 31870
L36480 31870
L36480 31370
L36720 31370
" />
<path d="M36810 31920
L37190 31920
" />
<path d="M37290 31850
L37360 31870
L37480 31870
L37530 31850
L37550 31820
L37570 31780
L37570 31730
L37550 31680
L37530 31660
L37480 31630
L37380 31610
L37330 31590
L37310 31560
L37290 31510
L37290 31470
L37310 31420
L37330 31400
L37380 31370
L37500 31370
L37570 31400
" />
<path d="M37790 31610
L37950 31610
" />
<path d="M38030 31870
L37790 31870
L37790 31370
L38030 31370
" />
<path d="M38480 31870
L38240 31870
L38240 31370
" />
<path d="M38640 31610
L38810 31610
" />
<path d="M38880 31870
L38640 31870
L38640 31370
L38880 31370
" />
<path d="M39380 31820
L39360 31850
L39290 31870
L39240 31870
L39170 31850
L39120 31800
L39100 31750
L39070 31660
L39070 31590
L39100 31490
L39120 31440
L39170 31400
L39240 31370
L39290 31370
L39360 31400
L39380 31420
" />
<path d="M39530 31370
L39810 31370
" />
<path d="M39670 31870
L39670 31370
" />
</g>
<g style="fill:#0000C2; fill-opacity:0.0; 
stroke:#0000C2; stroke-width:60; stroke-opacity:1; 
stroke-linecap:round; stroke-linejoin:round;">
<text x="37000" y="28780"
textLength="7940" font-size="660" lengthAdjust="spacingAndGlyphs"
text-anchor="start" opacity="0">CS Pin pulled down </text>
<path d="M37430 28700
L37410 28730
L37330 28750
L37290 28750
L37220 28730
L37170 28680
L37140 28630
L37120 28540
L37120 28470
L37140 28370
L37170 28320
L37220 28280
L37290 28250
L37330 28250
L37410 28280
L37430 28300
" />
<path d="M37620 28730
L37690 28750
L37810 28750
L37860 28730
L37880 28700
L37910 28660
L37910 28610
L37880 28560
L37860 28540
L37810 28510
L37720 28490
L37670 28470
L37640 28440
L37620 28390
L37620 28350
L37640 28300
L37670 28280
L37720 28250
L37830 28250
L37910 28280
" />
<path d="M38500 28750
L38500 28250
L38690 28250
L38740 28280
L38760 28300
L38790 28350
L38790 28420
L38760 28470
L38740 28490
L38690 28510
L38500 28510
" />
<path d="M39000 28750
L39000 28420
" />
<path d="M39000 28250
L38980 28280
L39000 28300
L39030 28280
L39000 28250
L39000 28300
" />
<path d="M39240 28420
L39240 28750
" />
<path d="M39240 28470
L39260 28440
L39310 28420
L39380 28420
L39430 28440
L39450 28490
L39450 28750
" />
<path d="M40070 28420
L40070 28920
" />
<path d="M40070 28440
L40120 28420
L40220 28420
L40260 28440
L40290 28470
L40310 28510
L40310 28660
L40290 28700
L40260 28730
L40220 28750
L40120 28750
L40070 28730
" />
<path d="M40740 28420
L40740 28750
" />
<path d="M40530 28420
L40530 28680
L40550 28730
L40600 28750
L40670 28750
L40720 28730
L40740 28700
" />
<path d="M41050 28750
L41000 28730
L40980 28680
L40980 28250
" />
<path d="M41310 28750
L41260 28730
L41240 28680
L41240 28250
" />
<path d="M41690 28730
L41640 28750
L41550 28750
L41500 28730
L41480 28680
L41480 28490
L41500 28440
L41550 28420
L41640 28420
L41690 28440
L41720 28490
L41720 28540
L41480 28580
" />
<path d="M42140 28750
L42140 28250
" />
<path d="M42140 28730
L42100 28750
L42000 28750
L41950 28730
L41930 28700
L41910 28660
L41910 28510
L41930 28470
L41950 28440
L42000 28420
L42100 28420
L42140 28440
" />
<path d="M42980 28750
L42980 28250
" />
<path d="M42980 28730
L42930 28750
L42830 28750
L42790 28730
L42760 28700
L42740 28660
L42740 28510
L42760 28470
L42790 28440
L42830 28420
L42930 28420
L42980 28440
" />
<path d="M43290 28750
L43240 28730
L43220 28700
L43190 28660
L43190 28510
L43220 28470
L43240 28440
L43290 28420
L43360 28420
L43410 28440
L43430 28470
L43450 28510
L43450 28660
L43430 28700
L43410 28730
L43360 28750
L43290 28750
" />
<path d="M43620 28420
L43720 28750
L43810 28510
L43910 28750
L44000 28420
" />
<path d="M44190 28420
L44190 28750
" />
<path d="M44190 28470
L44220 28440
L44260 28420
L44330 28420
L44380 28440
L44410 28490
L44410 28750
" />
<text x="37000" y="29590"
textLength="7130" font-size="660" lengthAdjust="spacingAndGlyphs"
text-anchor="start" opacity="0">on daughterboard </text>
<path d="M37220 29560
L37170 29540
L37140 29510
L37120 29470
L37120 29320
L37140 29280
L37170 29250
L37220 29230
L37290 29230
L37330 29250
L37360 29280
L37380 29320
L37380 29470
L37360 29510
L37330 29540
L37290 29560
L37220 29560
" />
<path d="M37600 29230
L37600 29560
" />
<path d="M37600 29280
L37620 29250
L37670 29230
L37740 29230
L37790 29250
L37810 29300
L37810 29560
" />
<path d="M38640 29560
L38640 29060
" />
<path d="M38640 29540
L38600 29560
L38500 29560
L38450 29540
L38430 29510
L38410 29470
L38410 29320
L38430 29280
L38450 29250
L38500 29230
L38600 29230
L38640 29250
" />
<path d="M39100 29560
L39100 29300
L39070 29250
L39030 29230
L38930 29230
L38880 29250
" />
<path d="M39100 29540
L39050 29560
L38930 29560
L38880 29540
L38860 29490
L38860 29440
L38880 29390
L38930 29370
L39050 29370
L39100 29350
" />
<path d="M39550 29230
L39550 29560
" />
<path d="M39330 29230
L39330 29490
L39360 29540
L39410 29560
L39480 29560
L39530 29540
L39550 29510
" />
<path d="M40000 29230
L40000 29630
L39980 29680
L39950 29700
L39910 29730
L39830 29730
L39790 29700
" />
<path d="M40000 29540
L39950 29560
L39860 29560
L39810 29540
L39790 29510
L39760 29470
L39760 29320
L39790 29280
L39810 29250
L39860 29230
L39950 29230
L40000 29250
" />
<path d="M40240 29560
L40240 29060
" />
<path d="M40450 29560
L40450 29300
L40430 29250
L40380 29230
L40310 29230
L40260 29250
L40240 29280
" />
<path d="M40620 29230
L40810 29230
" />
<path d="M40690 29060
L40690 29490
L40720 29540
L40760 29560
L40810 29560
" />
<path d="M41170 29540
L41120 29560
L41030 29560
L40980 29540
L40950 29490
L40950 29300
L40980 29250
L41030 29230
L41120 29230
L41170 29250
L41190 29300
L41190 29350
L40950 29390
" />
<path d="M41410 29560
L41410 29230
" />
<path d="M41410 29320
L41430 29280
L41450 29250
L41500 29230
L41550 29230
" />
<path d="M41720 29560
L41720 29060
" />
<path d="M41720 29250
L41760 29230
L41860 29230
L41910 29250
L41930 29280
L41950 29320
L41950 29470
L41930 29510
L41910 29540
L41860 29560
L41760 29560
L41720 29540
" />
<path d="M42240 29560
L42190 29540
L42170 29510
L42140 29470
L42140 29320
L42170 29280
L42190 29250
L42240 29230
L42310 29230
L42360 29250
L42380 29280
L42410 29320
L42410 29470
L42380 29510
L42360 29540
L42310 29560
L42240 29560
" />
<path d="M42830 29560
L42830 29300
L42810 29250
L42760 29230
L42670 29230
L42620 29250
" />
<path d="M42830 29540
L42790 29560
L42670 29560
L42620 29540
L42600 29490
L42600 29440
L42620 29390
L42670 29370
L42790 29370
L42830 29350
" />
<path d="M43070 29560
L43070 29230
" />
<path d="M43070 29320
L43100 29280
L43120 29250
L43170 29230
L43220 29230
" />
<path d="M43600 29560
L43600 29060
" />
<path d="M43600 29540
L43550 29560
L43450 29560
L43410 29540
L43380 29510
L43360 29470
L43360 29320
L43380 29280
L43410 29250
L43450 29230
L43550 29230
L43600 29250
" />
<text x="37000" y="30400"
textLength="6700" font-size="660" lengthAdjust="spacingAndGlyphs"
text-anchor="start" opacity="0">(always selected)</text>
<path d="M37290 30560
L37260 30540
L37220 30470
L37190 30420
L37170 30350
L37140 30230
L37140 30130
L37170 30010
L37190 29940
L37220 29900
L37260 29820
L37290 29800
" />
<path d="M37690 30370
L37690 30110
L37670 30060
L37620 30040
L37530 30040
L37480 30060
" />
<path d="M37690 30350
L37640 30370
L37530 30370
L37480 30350
L37450 30300
L37450 30250
L37480 30200
L37530 30180
L37640 30180
L37690 30160
" />
<path d="M38000 30370
L37950 30350
L37930 30300
L37930 29870
" />
<path d="M38140 30040
L38240 30370
L38330 30130
L38430 30370
L38530 30040
" />
<path d="M38930 30370
L38930 30110
L38910 30060
L38860 30040
L38760 30040
L38720 30060
" />
<path d="M38930 30350
L38880 30370
L38760 30370
L38720 30350
L38690 30300
L38690 30250
L38720 30200
L38760 30180
L38880 30180
L38930 30160
" />
<path d="M39120 30040
L39240 30370
" />
<path d="M39360 30040
L39240 30370
L39190 30490
L39170 30510
L39120 30540
" />
<path d="M39530 30350
L39570 30370
L39670 30370
L39720 30350
L39740 30300
L39740 30280
L39720 30230
L39670 30200
L39600 30200
L39550 30180
L39530 30130
L39530 30110
L39550 30060
L39600 30040
L39670 30040
L39720 30060
" />
<path d="M40310 30350
L40360 30370
L40450 30370
L40500 30350
L40530 30300
L40530 30280
L40500 30230
L40450 30200
L40380 30200
L40330 30180
L40310 30130
L40310 30110
L40330 30060
L40380 30040
L40450 30040
L40500 30060
" />
<path d="M40930 30350
L40880 30370
L40790 30370
L40740 30350
L40720 30300
L40720 30110
L40740 30060
L40790 30040
L40880 30040
L40930 30060
L40950 30110
L40950 30160
L40720 30200
" />
<path d="M41240 30370
L41190 30350
L41170 30300
L41170 29870
" />
<path d="M41620 30350
L41570 30370
L41480 30370
L41430 30350
L41410 30300
L41410 30110
L41430 30060
L41480 30040
L41570 30040
L41620 30060
L41640 30110
L41640 30160
L41410 30200
" />
<path d="M42070 30350
L42030 30370
L41930 30370
L41880 30350
L41860 30320
L41830 30280
L41830 30130
L41860 30090
L41880 30060
L41930 30040
L42030 30040
L42070 30060
" />
<path d="M42220 30040
L42410 30040
" />
<path d="M42290 29870
L42290 30300
L42310 30350
L42360 30370
L42410 30370
" />
<path d="M42760 30350
L42720 30370
L42620 30370
L42570 30350
L42550 30300
L42550 30110
L42570 30060
L42620 30040
L42720 30040
L42760 30060
L42790 30110
L42790 30160
L42550 30200
" />
<path d="M43220 30370
L43220 29870
" />
<path d="M43220 30350
L43170 30370
L43070 30370
L43030 30350
L43000 30320
L42980 30280
L42980 30130
L43000 30090
L43030 30060
L43070 30040
L43170 30040
L43220 30060
" />
<path d="M43410 30560
L43430 30540
L43480 30470
L43500 30420
L43530 30350
L43550 30230
L43550 30130
L43530 30010
L43500 29940
L43480 29900
L43430 29820
L43410 29800
" />
</g>
<g style="fill:#0000C2; fill-opacity:0.0; 
stroke:#0000C2; stroke-width:0; stroke-opacity:1; 
stroke-linecap:round; stroke-linejoin:round;">
</g>
<g style="fill:#008400; fill-opacity:0.0; 
stroke:#008400; stroke-width:0; stroke-opacity:1; 
stroke-linecap:round; stroke-linejoin:round;">
</g>
<g style="fill:#008400; fill-opacity:1.0; 
stroke:#008400; stroke-width:100; stroke-opacity:1; 
stroke-linecap:round; stroke-linejoin:round;">
<circle cx="50250" cy="33000" r="200" /> 
</g>
<g style="fill:#008400; fill-opacity:1.0; 
stroke:#008400; stroke-width:0; stroke-opacity:1; 
stroke-linecap:round; stroke-linejoin:round;">
</g>
<g style="fill:#008400; fill-opacity:1.0; 
stroke:#008400; stroke-width:100; stroke-opacity:1; 
stroke-linecap:round; stroke-linejoin:round;">
<circle cx="51500" cy="34000" r="200" /> 
</g>
<g style="fill:#008400; fill-opacity:1.0; 
stroke:#008400; stroke-width:0; stroke-opacity:1; 
stroke-linecap:round; stroke-linejoin:round;">
</g>
<g style="fill:#008400; fill-opacity:1.0; 
stroke:#008400; stroke-width:100; stroke-opacity:1; 
stroke-linecap:round; stroke-linejoin:round;">
<circle cx="52750" cy="35000" r="200" /> 
</g>
<g style="fill:#008400; fill-opacity:1.0; 
stroke:#008400; stroke-width:0; stroke-opacity:1; 
stroke-linecap:round; stroke-linejoin:round;">
</g>
<g style="fill:#008400; fill-opacity:1.0; 
stroke:#008400; stroke-width:100; stroke-opacity:1; 
stroke-linecap:round; stroke-linejoin:round;">
<circle cx="54000" cy="36000" r="200" /> 
</g>
<g style="fill:#008400; fill-opacity:1.0; 
stroke:#008400; stroke-width:60; stroke-opacity:1; 
stroke-linecap:round; stroke-linejoin:round;">
</g>
<g style="fill:#000084; fill-opacity:1.0; 
stroke:#000084; stroke-width:60; stroke-opacity:1; 
stroke-linecap:round; stroke-linejoin:round;">
</g>
<g style="fill:#000084; fill-opacity:0.0; 
stroke:#000084; stroke-width:60; stroke-opacity:1; 
stroke-linecap:round; stroke-linejoin:round;">
<path d="M34010 31760
L34490 32240
" />
<path d="M34490 31760
L34010 32240
" />
</g> 
</svg>
