<?xml version="1.0" standalone="no"?>
 <!DOCTYPE svg PUBLIC "-//W3C//DTD SVG 1.1//EN" 
 "http://www.w3.org/Graphics/SVG/1.1/DTD/svg11.dtd"> 
<svg
  xmlns:svg="http://www.w3.org/2000/svg"
  xmlns="http://www.w3.org/2000/svg"
  xmlns:xlink="http://www.w3.org/1999/xlink"
  version="1.1"
  width="29.700220cm" height="21.000720cm" viewBox="0 0 116930 82680">
<title>SVG Picture created as PMOSReversePolarityProtection-PSU-PMOSReversePolarityProtection.svg date 2021/06/05 18:48:45 </title>
  <desc>Picture generated by Eeschema-SVG </desc>
<g style="fill:#000000; fill-opacity:1;stroke:#000000; stroke-opacity:1;
stroke-linecap:round; stroke-linejoin:round;"
 transform="translate(0 0) scale(1 1)">
</g>
<g style="fill:#000000; fill-opacity:0.0; 
stroke:#000000; stroke-width:-10; stroke-opacity:1; 
stroke-linecap:round; stroke-linejoin:round;">
</g>
<g style="fill:#840000; fill-opacity:0.0; 
stroke:#840000; stroke-width:-10; stroke-opacity:1; 
stroke-linecap:round; stroke-linejoin:round;">
</g>
<g style="fill:#840000; fill-opacity:0.0; 
stroke:#840000; stroke-width:100; stroke-opacity:1; 
stroke-linecap:round; stroke-linejoin:round;">
</g>
<g style="fill:#840000; fill-opacity:0.0; 
stroke:#840000; stroke-width:60; stroke-opacity:1; 
stroke-linecap:round; stroke-linejoin:round;">
<rect x="69690" y="65360" width="42520" height="12600" rx="0" />
</g>
<g style="fill:#840000; fill-opacity:0.0; 
stroke:#840000; stroke-width:100; stroke-opacity:1; 
stroke-linecap:round; stroke-linejoin:round;">
</g>
<g style="fill:#840000; fill-opacity:0.0; 
stroke:#840000; stroke-width:60; stroke-opacity:1; 
stroke-linecap:round; stroke-linejoin:round;">
<rect x="3940" y="3940" width="109050" height="74800" rx="0" />
</g>
<g style="fill:#840000; fill-opacity:0.0; 
stroke:#840000; stroke-width:100; stroke-opacity:1; 
stroke-linecap:round; stroke-linejoin:round;">
</g>
<g style="fill:#840000; fill-opacity:0.0; 
stroke:#840000; stroke-width:60; stroke-opacity:1; 
stroke-linecap:round; stroke-linejoin:round;">
<rect x="4720" y="4720" width="107490" height="73240" rx="0" />
</g>
<g style="fill:#840000; fill-opacity:0.0; 
stroke:#840000; stroke-width:100; stroke-opacity:1; 
stroke-linecap:round; stroke-linejoin:round;">
</g>
<g style="fill:#840000; fill-opacity:0.0; 
stroke:#840000; stroke-width:60; stroke-opacity:1; 
stroke-linecap:round; stroke-linejoin:round;">
<path d="M23620 4720
L23620 3940
" />
</g>
<g style="fill:#840000; fill-opacity:0.0; 
stroke:#840000; stroke-width:100; stroke-opacity:1; 
stroke-linecap:round; stroke-linejoin:round;">
</g>
<g style="fill:#840000; fill-opacity:0.0; 
stroke:#840000; stroke-width:60; stroke-opacity:1; 
stroke-linecap:round; stroke-linejoin:round;">
<path d="M43310 4720
L43310 3940
" />
</g>
<g style="fill:#840000; fill-opacity:0.0; 
stroke:#840000; stroke-width:100; stroke-opacity:1; 
stroke-linecap:round; stroke-linejoin:round;">
</g>
<g style="fill:#840000; fill-opacity:0.0; 
stroke:#840000; stroke-width:60; stroke-opacity:1; 
stroke-linecap:round; stroke-linejoin:round;">
<path d="M62990 4720
L62990 3940
" />
</g>
<g style="fill:#840000; fill-opacity:0.0; 
stroke:#840000; stroke-width:100; stroke-opacity:1; 
stroke-linecap:round; stroke-linejoin:round;">
</g>
<g style="fill:#840000; fill-opacity:0.0; 
stroke:#840000; stroke-width:60; stroke-opacity:1; 
stroke-linecap:round; stroke-linejoin:round;">
<path d="M82680 4720
L82680 3940
" />
</g>
<g style="fill:#840000; fill-opacity:0.0; 
stroke:#840000; stroke-width:100; stroke-opacity:1; 
stroke-linecap:round; stroke-linejoin:round;">
</g>
<g style="fill:#840000; fill-opacity:0.0; 
stroke:#840000; stroke-width:60; stroke-opacity:1; 
stroke-linecap:round; stroke-linejoin:round;">
<path d="M102360 4720
L102360 3940
" />
</g>
<g style="fill:#840000; fill-opacity:0.0; 
stroke:#840000; stroke-width:100; stroke-opacity:1; 
stroke-linecap:round; stroke-linejoin:round;">
</g>
<g style="fill:#840000; fill-opacity:0.0; 
stroke:#840000; stroke-width:60; stroke-opacity:1; 
stroke-linecap:round; stroke-linejoin:round;">
<text x="13780" y="4580"
textLength="550" font-size="680" lengthAdjust="spacingAndGlyphs"
text-anchor="start" opacity="0">1</text>
<path d="M14190 4560
L13900 4560
" />
<path d="M14050 4560
L14050 4050
L14000 4120
L13950 4170
L13900 4190
" />
</g>
<g style="fill:#840000; fill-opacity:0.0; 
stroke:#840000; stroke-width:100; stroke-opacity:1; 
stroke-linecap:round; stroke-linejoin:round;">
</g>
<g style="fill:#840000; fill-opacity:0.0; 
stroke:#840000; stroke-width:60; stroke-opacity:1; 
stroke-linecap:round; stroke-linejoin:round;">
<text x="33460" y="4580"
textLength="550" font-size="680" lengthAdjust="spacingAndGlyphs"
text-anchor="start" opacity="0">2</text>
<path d="M33580 4090
L33610 4070
L33660 4050
L33780 4050
L33830 4070
L33850 4090
L33870 4140
L33870 4190
L33850 4260
L33560 4560
L33870 4560
" />
</g>
<g style="fill:#840000; fill-opacity:0.0; 
stroke:#840000; stroke-width:100; stroke-opacity:1; 
stroke-linecap:round; stroke-linejoin:round;">
</g>
<g style="fill:#840000; fill-opacity:0.0; 
stroke:#840000; stroke-width:60; stroke-opacity:1; 
stroke-linecap:round; stroke-linejoin:round;">
<text x="53150" y="4580"
textLength="550" font-size="680" lengthAdjust="spacingAndGlyphs"
text-anchor="start" opacity="0">3</text>
<path d="M53250 4050
L53560 4050
L53390 4240
L53470 4240
L53520 4260
L53540 4290
L53560 4340
L53560 4460
L53540 4510
L53520 4530
L53470 4560
L53320 4560
L53270 4530
L53250 4510
" />
</g>
<g style="fill:#840000; fill-opacity:0.0; 
stroke:#840000; stroke-width:100; stroke-opacity:1; 
stroke-linecap:round; stroke-linejoin:round;">
</g>
<g style="fill:#840000; fill-opacity:0.0; 
stroke:#840000; stroke-width:60; stroke-opacity:1; 
stroke-linecap:round; stroke-linejoin:round;">
<text x="72830" y="4580"
textLength="550" font-size="680" lengthAdjust="spacingAndGlyphs"
text-anchor="start" opacity="0">4</text>
<path d="M73200 4220
L73200 4560
" />
<path d="M73070 4020
L72950 4390
L73270 4390
" />
</g>
<g style="fill:#840000; fill-opacity:0.0; 
stroke:#840000; stroke-width:100; stroke-opacity:1; 
stroke-linecap:round; stroke-linejoin:round;">
</g>
<g style="fill:#840000; fill-opacity:0.0; 
stroke:#840000; stroke-width:60; stroke-opacity:1; 
stroke-linecap:round; stroke-linejoin:round;">
<text x="92520" y="4580"
textLength="550" font-size="680" lengthAdjust="spacingAndGlyphs"
text-anchor="start" opacity="0">5</text>
<path d="M92910 4050
L92670 4050
L92640 4290
L92670 4260
L92720 4240
L92840 4240
L92890 4260
L92910 4290
L92930 4340
L92930 4460
L92910 4510
L92890 4530
L92840 4560
L92720 4560
L92670 4530
L92640 4510
" />
</g>
<g style="fill:#840000; fill-opacity:0.0; 
stroke:#840000; stroke-width:100; stroke-opacity:1; 
stroke-linecap:round; stroke-linejoin:round;">
</g>
<g style="fill:#840000; fill-opacity:0.0; 
stroke:#840000; stroke-width:60; stroke-opacity:1; 
stroke-linecap:round; stroke-linejoin:round;">
<text x="112200" y="4580"
textLength="550" font-size="680" lengthAdjust="spacingAndGlyphs"
text-anchor="start" opacity="0">6</text>
<path d="M112570 4050
L112470 4050
L112420 4070
L112400 4090
L112350 4170
L112320 4260
L112320 4460
L112350 4510
L112370 4530
L112420 4560
L112520 4560
L112570 4530
L112590 4510
L112610 4460
L112610 4340
L112590 4290
L112570 4260
L112520 4240
L112420 4240
L112370 4260
L112350 4290
L112320 4340
" />
</g>
<g style="fill:#840000; fill-opacity:0.0; 
stroke:#840000; stroke-width:100; stroke-opacity:1; 
stroke-linecap:round; stroke-linejoin:round;">
</g>
<g style="fill:#840000; fill-opacity:0.0; 
stroke:#840000; stroke-width:60; stroke-opacity:1; 
stroke-linecap:round; stroke-linejoin:round;">
<path d="M23620 77960
L23620 78740
" />
</g>
<g style="fill:#840000; fill-opacity:0.0; 
stroke:#840000; stroke-width:100; stroke-opacity:1; 
stroke-linecap:round; stroke-linejoin:round;">
</g>
<g style="fill:#840000; fill-opacity:0.0; 
stroke:#840000; stroke-width:60; stroke-opacity:1; 
stroke-linecap:round; stroke-linejoin:round;">
<path d="M43310 77960
L43310 78740
" />
</g>
<g style="fill:#840000; fill-opacity:0.0; 
stroke:#840000; stroke-width:100; stroke-opacity:1; 
stroke-linecap:round; stroke-linejoin:round;">
</g>
<g style="fill:#840000; fill-opacity:0.0; 
stroke:#840000; stroke-width:60; stroke-opacity:1; 
stroke-linecap:round; stroke-linejoin:round;">
<path d="M62990 77960
L62990 78740
" />
</g>
<g style="fill:#840000; fill-opacity:0.0; 
stroke:#840000; stroke-width:100; stroke-opacity:1; 
stroke-linecap:round; stroke-linejoin:round;">
</g>
<g style="fill:#840000; fill-opacity:0.0; 
stroke:#840000; stroke-width:60; stroke-opacity:1; 
stroke-linecap:round; stroke-linejoin:round;">
<path d="M82680 77960
L82680 78740
" />
</g>
<g style="fill:#840000; fill-opacity:0.0; 
stroke:#840000; stroke-width:100; stroke-opacity:1; 
stroke-linecap:round; stroke-linejoin:round;">
</g>
<g style="fill:#840000; fill-opacity:0.0; 
stroke:#840000; stroke-width:60; stroke-opacity:1; 
stroke-linecap:round; stroke-linejoin:round;">
<path d="M102360 77960
L102360 78740
" />
</g>
<g style="fill:#840000; fill-opacity:0.0; 
stroke:#840000; stroke-width:100; stroke-opacity:1; 
stroke-linecap:round; stroke-linejoin:round;">
</g>
<g style="fill:#840000; fill-opacity:0.0; 
stroke:#840000; stroke-width:60; stroke-opacity:1; 
stroke-linecap:round; stroke-linejoin:round;">
<text x="13780" y="78600"
textLength="550" font-size="680" lengthAdjust="spacingAndGlyphs"
text-anchor="start" opacity="0">1</text>
<path d="M14190 78580
L13900 78580
" />
<path d="M14050 78580
L14050 78070
L14000 78140
L13950 78190
L13900 78210
" />
</g>
<g style="fill:#840000; fill-opacity:0.0; 
stroke:#840000; stroke-width:100; stroke-opacity:1; 
stroke-linecap:round; stroke-linejoin:round;">
</g>
<g style="fill:#840000; fill-opacity:0.0; 
stroke:#840000; stroke-width:60; stroke-opacity:1; 
stroke-linecap:round; stroke-linejoin:round;">
<text x="33460" y="78600"
textLength="550" font-size="680" lengthAdjust="spacingAndGlyphs"
text-anchor="start" opacity="0">2</text>
<path d="M33580 78110
L33610 78090
L33660 78070
L33780 78070
L33830 78090
L33850 78110
L33870 78160
L33870 78210
L33850 78280
L33560 78580
L33870 78580
" />
</g>
<g style="fill:#840000; fill-opacity:0.0; 
stroke:#840000; stroke-width:100; stroke-opacity:1; 
stroke-linecap:round; stroke-linejoin:round;">
</g>
<g style="fill:#840000; fill-opacity:0.0; 
stroke:#840000; stroke-width:60; stroke-opacity:1; 
stroke-linecap:round; stroke-linejoin:round;">
<text x="53150" y="78600"
textLength="550" font-size="680" lengthAdjust="spacingAndGlyphs"
text-anchor="start" opacity="0">3</text>
<path d="M53250 78070
L53560 78070
L53390 78260
L53470 78260
L53520 78280
L53540 78310
L53560 78360
L53560 78480
L53540 78530
L53520 78550
L53470 78580
L53320 78580
L53270 78550
L53250 78530
" />
</g>
<g style="fill:#840000; fill-opacity:0.0; 
stroke:#840000; stroke-width:100; stroke-opacity:1; 
stroke-linecap:round; stroke-linejoin:round;">
</g>
<g style="fill:#840000; fill-opacity:0.0; 
stroke:#840000; stroke-width:60; stroke-opacity:1; 
stroke-linecap:round; stroke-linejoin:round;">
<text x="72830" y="78600"
textLength="550" font-size="680" lengthAdjust="spacingAndGlyphs"
text-anchor="start" opacity="0">4</text>
<path d="M73200 78240
L73200 78580
" />
<path d="M73070 78040
L72950 78410
L73270 78410
" />
</g>
<g style="fill:#840000; fill-opacity:0.0; 
stroke:#840000; stroke-width:100; stroke-opacity:1; 
stroke-linecap:round; stroke-linejoin:round;">
</g>
<g style="fill:#840000; fill-opacity:0.0; 
stroke:#840000; stroke-width:60; stroke-opacity:1; 
stroke-linecap:round; stroke-linejoin:round;">
<text x="92520" y="78600"
textLength="550" font-size="680" lengthAdjust="spacingAndGlyphs"
text-anchor="start" opacity="0">5</text>
<path d="M92910 78070
L92670 78070
L92640 78310
L92670 78280
L92720 78260
L92840 78260
L92890 78280
L92910 78310
L92930 78360
L92930 78480
L92910 78530
L92890 78550
L92840 78580
L92720 78580
L92670 78550
L92640 78530
" />
</g>
<g style="fill:#840000; fill-opacity:0.0; 
stroke:#840000; stroke-width:100; stroke-opacity:1; 
stroke-linecap:round; stroke-linejoin:round;">
</g>
<g style="fill:#840000; fill-opacity:0.0; 
stroke:#840000; stroke-width:60; stroke-opacity:1; 
stroke-linecap:round; stroke-linejoin:round;">
<text x="112200" y="78600"
textLength="550" font-size="680" lengthAdjust="spacingAndGlyphs"
text-anchor="start" opacity="0">6</text>
<path d="M112570 78070
L112470 78070
L112420 78090
L112400 78110
L112350 78190
L112320 78280
L112320 78480
L112350 78530
L112370 78550
L112420 78580
L112520 78580
L112570 78550
L112590 78530
L112610 78480
L112610 78360
L112590 78310
L112570 78280
L112520 78260
L112420 78260
L112370 78280
L112350 78310
L112320 78360
" />
</g>
<g style="fill:#840000; fill-opacity:0.0; 
stroke:#840000; stroke-width:100; stroke-opacity:1; 
stroke-linecap:round; stroke-linejoin:round;">
</g>
<g style="fill:#840000; fill-opacity:0.0; 
stroke:#840000; stroke-width:60; stroke-opacity:1; 
stroke-linecap:round; stroke-linejoin:round;">
<path d="M3940 23620
L4720 23620
" />
</g>
<g style="fill:#840000; fill-opacity:0.0; 
stroke:#840000; stroke-width:100; stroke-opacity:1; 
stroke-linecap:round; stroke-linejoin:round;">
</g>
<g style="fill:#840000; fill-opacity:0.0; 
stroke:#840000; stroke-width:60; stroke-opacity:1; 
stroke-linecap:round; stroke-linejoin:round;">
<path d="M3940 43310
L4720 43310
" />
</g>
<g style="fill:#840000; fill-opacity:0.0; 
stroke:#840000; stroke-width:100; stroke-opacity:1; 
stroke-linecap:round; stroke-linejoin:round;">
</g>
<g style="fill:#840000; fill-opacity:0.0; 
stroke:#840000; stroke-width:60; stroke-opacity:1; 
stroke-linecap:round; stroke-linejoin:round;">
<path d="M3940 62990
L4720 62990
" />
</g>
<g style="fill:#840000; fill-opacity:0.0; 
stroke:#840000; stroke-width:100; stroke-opacity:1; 
stroke-linecap:round; stroke-linejoin:round;">
</g>
<g style="fill:#840000; fill-opacity:0.0; 
stroke:#840000; stroke-width:60; stroke-opacity:1; 
stroke-linecap:round; stroke-linejoin:round;">
<text x="4330" y="14030"
textLength="500" font-size="680" lengthAdjust="spacingAndGlyphs"
text-anchor="middle" opacity="0">A</text>
<path d="M4200 13860
L4450 13860
" />
<path d="M4160 14010
L4330 13500
L4500 14010
" />
</g>
<g style="fill:#840000; fill-opacity:0.0; 
stroke:#840000; stroke-width:100; stroke-opacity:1; 
stroke-linecap:round; stroke-linejoin:round;">
</g>
<g style="fill:#840000; fill-opacity:0.0; 
stroke:#840000; stroke-width:60; stroke-opacity:1; 
stroke-linecap:round; stroke-linejoin:round;">
<text x="4330" y="33710"
textLength="570" font-size="680" lengthAdjust="spacingAndGlyphs"
text-anchor="middle" opacity="0">B</text>
<path d="M4360 33420
L4430 33440
L4460 33470
L4480 33520
L4480 33590
L4460 33640
L4430 33660
L4390 33690
L4190 33690
L4190 33180
L4360 33180
L4410 33200
L4430 33220
L4460 33270
L4460 33320
L4430 33370
L4410 33390
L4360 33420
L4190 33420
" />
</g>
<g style="fill:#840000; fill-opacity:0.0; 
stroke:#840000; stroke-width:100; stroke-opacity:1; 
stroke-linecap:round; stroke-linejoin:round;">
</g>
<g style="fill:#840000; fill-opacity:0.0; 
stroke:#840000; stroke-width:60; stroke-opacity:1; 
stroke-linecap:round; stroke-linejoin:round;">
<text x="4330" y="53400"
textLength="570" font-size="680" lengthAdjust="spacingAndGlyphs"
text-anchor="middle" opacity="0">C</text>
<path d="M4480 53330
L4460 53350
L4390 53380
L4340 53380
L4260 53350
L4220 53300
L4190 53250
L4170 53160
L4170 53080
L4190 52990
L4220 52940
L4260 52890
L4340 52870
L4390 52870
L4460 52890
L4480 52910
" />
</g>
<g style="fill:#840000; fill-opacity:0.0; 
stroke:#840000; stroke-width:100; stroke-opacity:1; 
stroke-linecap:round; stroke-linejoin:round;">
</g>
<g style="fill:#840000; fill-opacity:0.0; 
stroke:#840000; stroke-width:60; stroke-opacity:1; 
stroke-linecap:round; stroke-linejoin:round;">
<text x="4330" y="73080"
textLength="570" font-size="680" lengthAdjust="spacingAndGlyphs"
text-anchor="middle" opacity="0">D</text>
<path d="M4190 73060
L4190 72550
L4310 72550
L4390 72570
L4430 72620
L4460 72670
L4480 72760
L4480 72840
L4460 72930
L4430 72980
L4390 73030
L4310 73060
L4190 73060
" />
</g>
<g style="fill:#840000; fill-opacity:0.0; 
stroke:#840000; stroke-width:100; stroke-opacity:1; 
stroke-linecap:round; stroke-linejoin:round;">
</g>
<g style="fill:#840000; fill-opacity:0.0; 
stroke:#840000; stroke-width:60; stroke-opacity:1; 
stroke-linecap:round; stroke-linejoin:round;">
<path d="M112990 23620
L112210 23620
" />
</g>
<g style="fill:#840000; fill-opacity:0.0; 
stroke:#840000; stroke-width:100; stroke-opacity:1; 
stroke-linecap:round; stroke-linejoin:round;">
</g>
<g style="fill:#840000; fill-opacity:0.0; 
stroke:#840000; stroke-width:60; stroke-opacity:1; 
stroke-linecap:round; stroke-linejoin:round;">
<path d="M112990 43310
L112210 43310
" />
</g>
<g style="fill:#840000; fill-opacity:0.0; 
stroke:#840000; stroke-width:100; stroke-opacity:1; 
stroke-linecap:round; stroke-linejoin:round;">
</g>
<g style="fill:#840000; fill-opacity:0.0; 
stroke:#840000; stroke-width:60; stroke-opacity:1; 
stroke-linecap:round; stroke-linejoin:round;">
<path d="M112990 62990
L112210 62990
" />
</g>
<g style="fill:#840000; fill-opacity:0.0; 
stroke:#840000; stroke-width:100; stroke-opacity:1; 
stroke-linecap:round; stroke-linejoin:round;">
</g>
<g style="fill:#840000; fill-opacity:0.0; 
stroke:#840000; stroke-width:60; stroke-opacity:1; 
stroke-linecap:round; stroke-linejoin:round;">
<text x="112600" y="14030"
textLength="500" font-size="680" lengthAdjust="spacingAndGlyphs"
text-anchor="middle" opacity="0">A</text>
<path d="M112470 13860
L112720 13860
" />
<path d="M112430 14010
L112600 13500
L112770 14010
" />
</g>
<g style="fill:#840000; fill-opacity:0.0; 
stroke:#840000; stroke-width:100; stroke-opacity:1; 
stroke-linecap:round; stroke-linejoin:round;">
</g>
<g style="fill:#840000; fill-opacity:0.0; 
stroke:#840000; stroke-width:60; stroke-opacity:1; 
stroke-linecap:round; stroke-linejoin:round;">
<text x="112600" y="33710"
textLength="570" font-size="680" lengthAdjust="spacingAndGlyphs"
text-anchor="middle" opacity="0">B</text>
<path d="M112630 33420
L112700 33440
L112730 33470
L112750 33520
L112750 33590
L112730 33640
L112700 33660
L112660 33690
L112460 33690
L112460 33180
L112630 33180
L112680 33200
L112700 33220
L112730 33270
L112730 33320
L112700 33370
L112680 33390
L112630 33420
L112460 33420
" />
</g>
<g style="fill:#840000; fill-opacity:0.0; 
stroke:#840000; stroke-width:100; stroke-opacity:1; 
stroke-linecap:round; stroke-linejoin:round;">
</g>
<g style="fill:#840000; fill-opacity:0.0; 
stroke:#840000; stroke-width:60; stroke-opacity:1; 
stroke-linecap:round; stroke-linejoin:round;">
<text x="112600" y="53400"
textLength="570" font-size="680" lengthAdjust="spacingAndGlyphs"
text-anchor="middle" opacity="0">C</text>
<path d="M112750 53330
L112730 53350
L112660 53380
L112610 53380
L112530 53350
L112490 53300
L112460 53250
L112440 53160
L112440 53080
L112460 52990
L112490 52940
L112530 52890
L112610 52870
L112660 52870
L112730 52890
L112750 52910
" />
</g>
<g style="fill:#840000; fill-opacity:0.0; 
stroke:#840000; stroke-width:100; stroke-opacity:1; 
stroke-linecap:round; stroke-linejoin:round;">
</g>
<g style="fill:#840000; fill-opacity:0.0; 
stroke:#840000; stroke-width:60; stroke-opacity:1; 
stroke-linecap:round; stroke-linejoin:round;">
<text x="112600" y="73080"
textLength="570" font-size="680" lengthAdjust="spacingAndGlyphs"
text-anchor="middle" opacity="0">D</text>
<path d="M112460 73060
L112460 72550
L112580 72550
L112660 72570
L112700 72620
L112730 72670
L112750 72760
L112750 72840
L112730 72930
L112700 72980
L112660 73030
L112580 73060
L112460 73060
" />
</g>
<g style="fill:#840000; fill-opacity:0.0; 
stroke:#840000; stroke-width:100; stroke-opacity:1; 
stroke-linecap:round; stroke-linejoin:round;">
</g>
<g style="fill:#840000; fill-opacity:0.0; 
stroke:#840000; stroke-width:60; stroke-opacity:1; 
stroke-linecap:round; stroke-linejoin:round;">
<text x="78740" y="76320"
textLength="8710" font-size="780" lengthAdjust="spacingAndGlyphs"
text-anchor="start" opacity="0">Date: 2021-06-05</text>
<path d="M78910 76290
L78910 75700
L79050 75700
L79130 75730
L79190 75790
L79210 75840
L79240 75950
L79240 76040
L79210 76150
L79190 76210
L79130 76260
L79050 76290
L78910 76290
" />
<path d="M79750 76290
L79750 75980
L79720 75930
L79660 75900
L79550 75900
L79500 75930
" />
<path d="M79750 76260
L79690 76290
L79550 76290
L79500 76260
L79470 76210
L79470 76150
L79500 76100
L79550 76070
L79690 76070
L79750 76040
" />
<path d="M79950 75900
L80170 75900
" />
<path d="M80030 75700
L80030 76210
L80060 76260
L80110 76290
L80170 76290
" />
<path d="M80590 76260
L80540 76290
L80420 76290
L80370 76260
L80340 76210
L80340 75980
L80370 75930
L80420 75900
L80540 75900
L80590 75930
L80620 75980
L80620 76040
L80340 76100
" />
<path d="M80870 76240
L80900 76260
L80870 76290
L80840 76260
L80870 76240
L80870 76290
" />
<path d="M80870 75930
L80900 75950
L80870 75980
L80840 75950
L80870 75930
L80870 75980
" />
<path d="M81570 75760
L81600 75730
L81660 75700
L81800 75700
L81860 75730
L81880 75760
L81910 75810
L81910 75870
L81880 75950
L81550 76290
L81910 76290
" />
<path d="M82280 75700
L82330 75700
L82390 75730
L82420 75760
L82450 75810
L82470 75930
L82470 76070
L82450 76180
L82420 76240
L82390 76260
L82330 76290
L82280 76290
L82220 76260
L82190 76240
L82160 76180
L82140 76070
L82140 75930
L82160 75810
L82190 75760
L82220 75730
L82280 75700
" />
<path d="M82700 75760
L82730 75730
L82780 75700
L82920 75700
L82980 75730
L83010 75760
L83040 75810
L83040 75870
L83010 75950
L82670 76290
L83040 76290
" />
<path d="M83600 76290
L83260 76290
" />
<path d="M83430 76290
L83430 75700
L83370 75790
L83320 75840
L83260 75870
" />
<path d="M83850 76070
L84300 76070
" />
<path d="M84690 75700
L84750 75700
L84810 75730
L84830 75760
L84860 75810
L84890 75930
L84890 76070
L84860 76180
L84830 76240
L84810 76260
L84750 76290
L84690 76290
L84640 76260
L84610 76240
L84580 76180
L84550 76070
L84550 75930
L84580 75810
L84610 75760
L84640 75730
L84690 75700
" />
<path d="M85400 75700
L85280 75700
L85230 75730
L85200 75760
L85140 75840
L85110 75950
L85110 76180
L85140 76240
L85170 76260
L85230 76290
L85340 76290
L85400 76260
L85420 76240
L85450 76180
L85450 76040
L85420 75980
L85400 75950
L85340 75930
L85230 75930
L85170 75950
L85140 75980
L85110 76040
" />
<path d="M85700 76070
L86150 76070
" />
<path d="M86550 75700
L86600 75700
L86660 75730
L86690 75760
L86720 75810
L86740 75930
L86740 76070
L86720 76180
L86690 76240
L86660 76260
L86600 76290
L86550 76290
L86490 76260
L86460 76240
L86440 76180
L86410 76070
L86410 75930
L86440 75810
L86460 75760
L86490 75730
L86550 75700
" />
<path d="M87280 75700
L87000 75700
L86970 75980
L87000 75950
L87050 75930
L87190 75930
L87250 75950
L87280 75980
L87310 76040
L87310 76180
L87280 76240
L87250 76260
L87190 76290
L87050 76290
L87000 76260
L86970 76240
" />
</g>
<g style="fill:#840000; fill-opacity:0.0; 
stroke:#840000; stroke-width:100; stroke-opacity:1; 
stroke-linecap:round; stroke-linejoin:round;">
</g>
<g style="fill:#840000; fill-opacity:0.0; 
stroke:#840000; stroke-width:60; stroke-opacity:1; 
stroke-linecap:round; stroke-linejoin:round;">
<path d="M69690 76580
L112210 76580
" />
</g>
<g style="fill:#840000; fill-opacity:0.0; 
stroke:#840000; stroke-width:100; stroke-opacity:1; 
stroke-linecap:round; stroke-linejoin:round;">
</g>
<g style="fill:#840000; fill-opacity:0.0; 
stroke:#840000; stroke-width:60; stroke-opacity:1; 
stroke-linecap:round; stroke-linejoin:round;">
<text x="70080" y="77420"
textLength="16950" font-size="780" lengthAdjust="spacingAndGlyphs"
text-anchor="start" opacity="0">KiCad E.D.A.  kicad (5.1.8-0-10_14)</text>
<path d="M70250 77390
L70250 76800
" />
<path d="M70580 77390
L70330 77050
" />
<path d="M70580 76800
L70250 77140
" />
<path d="M70840 77390
L70840 77000
" />
<path d="M70840 76800
L70810 76830
L70840 76860
L70860 76830
L70840 76800
L70840 76860
" />
<path d="M71450 77340
L71430 77360
L71340 77390
L71290 77390
L71200 77360
L71140 77310
L71120 77250
L71090 77140
L71090 77050
L71120 76940
L71140 76890
L71200 76830
L71290 76800
L71340 76800
L71430 76830
L71450 76860
" />
<path d="M71960 77390
L71960 77080
L71930 77030
L71880 77000
L71760 77000
L71710 77030
" />
<path d="M71960 77360
L71900 77390
L71760 77390
L71710 77360
L71680 77310
L71680 77250
L71710 77200
L71760 77170
L71900 77170
L71960 77140
" />
<path d="M72490 77390
L72490 76800
" />
<path d="M72490 77360
L72440 77390
L72320 77390
L72270 77360
L72240 77340
L72210 77280
L72210 77110
L72240 77050
L72270 77030
L72320 77000
L72440 77000
L72490 77030
" />
<path d="M73220 77080
L73420 77080
" />
<path d="M73500 77390
L73220 77390
L73220 76800
L73500 76800
" />
<path d="M73760 77340
L73790 77360
L73760 77390
L73730 77360
L73760 77340
L73760 77390
" />
<path d="M74040 77390
L74040 76800
L74180 76800
L74260 76830
L74320 76890
L74350 76940
L74380 77050
L74380 77140
L74350 77250
L74320 77310
L74260 77360
L74180 77390
L74040 77390
" />
<path d="M74630 77340
L74660 77360
L74630 77390
L74600 77360
L74630 77340
L74630 77390
" />
<path d="M74880 77220
L75160 77220
" />
<path d="M74830 77390
L75020 76800
L75220 77390
" />
<path d="M75420 77340
L75440 77360
L75420 77390
L75390 77360
L75420 77340
L75420 77390
" />
<path d="M76600 77390
L76600 76800
" />
<path d="M76650 77170
L76820 77390
" />
<path d="M76820 77000
L76600 77220
" />
<path d="M77070 77390
L77070 77000
" />
<path d="M77070 76800
L77040 76830
L77070 76860
L77100 76830
L77070 76800
L77070 76860
" />
<path d="M77610 77360
L77550 77390
L77440 77390
L77380 77360
L77350 77340
L77330 77280
L77330 77110
L77350 77050
L77380 77030
L77440 77000
L77550 77000
L77610 77030
" />
<path d="M78110 77390
L78110 77080
L78080 77030
L78030 77000
L77920 77000
L77860 77030
" />
<path d="M78110 77360
L78060 77390
L77920 77390
L77860 77360
L77830 77310
L77830 77250
L77860 77200
L77920 77170
L78060 77170
L78110 77140
" />
<path d="M78650 77390
L78650 76800
" />
<path d="M78650 77360
L78590 77390
L78480 77390
L78420 77360
L78390 77340
L78370 77280
L78370 77110
L78390 77050
L78420 77030
L78480 77000
L78590 77000
L78650 77030
" />
<path d="M79550 77620
L79520 77590
L79460 77500
L79430 77450
L79400 77360
L79380 77220
L79380 77110
L79400 76970
L79430 76890
L79460 76830
L79520 76750
L79550 76720
" />
<path d="M80050 76800
L79770 76800
L79740 77080
L79770 77050
L79830 77030
L79970 77030
L80020 77050
L80050 77080
L80080 77140
L80080 77280
L80050 77340
L80020 77360
L79970 77390
L79830 77390
L79770 77360
L79740 77340
" />
<path d="M80330 77340
L80360 77360
L80330 77390
L80300 77360
L80330 77340
L80330 77390
" />
<path d="M80920 77390
L80580 77390
" />
<path d="M80750 77390
L80750 76800
L80700 76890
L80640 76940
L80580 76970
" />
<path d="M81170 77340
L81200 77360
L81170 77390
L81150 77360
L81170 77340
L81170 77390
" />
<path d="M81540 77050
L81480 77030
L81460 77000
L81430 76940
L81430 76910
L81460 76860
L81480 76830
L81540 76800
L81650 76800
L81710 76830
L81740 76860
L81760 76910
L81760 76940
L81740 77000
L81710 77030
L81650 77050
L81540 77050
L81480 77080
L81460 77110
L81430 77170
L81430 77280
L81460 77340
L81480 77360
L81540 77390
L81650 77390
L81710 77360
L81740 77340
L81760 77280
L81760 77170
L81740 77110
L81710 77080
L81650 77050
" />
<path d="M82020 77170
L82470 77170
" />
<path d="M82860 76800
L82920 76800
L82970 76830
L83000 76860
L83030 76910
L83060 77030
L83060 77170
L83030 77280
L83000 77340
L82970 77360
L82920 77390
L82860 77390
L82800 77360
L82780 77340
L82750 77280
L82720 77170
L82720 77030
L82750 76910
L82780 76860
L82800 76830
L82860 76800
" />
<path d="M83310 77170
L83760 77170
" />
<path d="M84350 77390
L84010 77390
" />
<path d="M84180 77390
L84180 76800
L84120 76890
L84070 76940
L84010 76970
" />
<path d="M84710 76800
L84770 76800
L84830 76830
L84860 76860
L84880 76910
L84910 77030
L84910 77170
L84880 77280
L84860 77340
L84830 77360
L84770 77390
L84710 77390
L84660 77360
L84630 77340
L84600 77280
L84570 77170
L84570 77030
L84600 76910
L84630 76860
L84660 76830
L84710 76800
" />
<path d="M85020 77450
L85470 77450
" />
<path d="M85920 77390
L85590 77390
" />
<path d="M85750 77390
L85750 76800
L85700 76890
L85640 76940
L85590 76970
" />
<path d="M86430 77000
L86430 77390
" />
<path d="M86290 76770
L86150 77200
L86510 77200
" />
<path d="M86680 77620
L86710 77590
L86770 77500
L86790 77450
L86820 77360
L86850 77220
L86850 77110
L86820 76970
L86790 76890
L86770 76830
L86710 76750
L86680 76720
" />
</g>
<g style="fill:#840000; fill-opacity:0.0; 
stroke:#840000; stroke-width:100; stroke-opacity:1; 
stroke-linecap:round; stroke-linejoin:round;">
</g>
<g style="fill:#840000; fill-opacity:0.0; 
stroke:#840000; stroke-width:60; stroke-opacity:1; 
stroke-linecap:round; stroke-linejoin:round;">
<path d="M69690 75400
L112210 75400
" />
</g>
<g style="fill:#840000; fill-opacity:0.0; 
stroke:#840000; stroke-width:100; stroke-opacity:1; 
stroke-linecap:round; stroke-linejoin:round;">
</g>
<g style="fill:#840000; fill-opacity:0.0; 
stroke:#840000; stroke-width:120; stroke-opacity:1; 
stroke-linecap:round; stroke-linejoin:round;">
<text x="103540" y="76320"
textLength="2840" font-size="780" lengthAdjust="spacingAndGlyphs"
text-anchor="start" opacity="0">Rev: A</text>
<path d="M104090 76290
L103890 76010
" />
<path d="M103750 76290
L103750 75700
L103980 75700
L104030 75730
L104060 75760
L104090 75810
L104090 75900
L104060 75950
L104030 75980
L103980 76010
L103750 76010
" />
<path d="M104570 76260
L104510 76290
L104400 76290
L104340 76260
L104320 76210
L104320 75980
L104340 75930
L104400 75900
L104510 75900
L104570 75930
L104600 75980
L104600 76040
L104320 76100
" />
<path d="M104790 75900
L104930 76290
L105070 75900
" />
<path d="M105300 76240
L105330 76260
L105300 76290
L105270 76260
L105300 76240
L105300 76290
" />
<path d="M105300 75930
L105330 75950
L105300 75980
L105270 75950
L105300 75930
L105300 75980
" />
<path d="M106000 76120
L106280 76120
" />
<path d="M105940 76290
L106140 75700
L106340 76290
" />
</g>
<g style="fill:#840000; fill-opacity:0.0; 
stroke:#840000; stroke-width:100; stroke-opacity:1; 
stroke-linecap:round; stroke-linejoin:round;">
</g>
<g style="fill:#840000; fill-opacity:0.0; 
stroke:#840000; stroke-width:60; stroke-opacity:1; 
stroke-linecap:round; stroke-linejoin:round;">
<text x="70080" y="76320"
textLength="3780" font-size="780" lengthAdjust="spacingAndGlyphs"
text-anchor="start" opacity="0">Size: A4</text>
<path d="M70220 76260
L70300 76290
L70440 76290
L70500 76260
L70530 76240
L70550 76180
L70550 76120
L70530 76070
L70500 76040
L70440 76010
L70330 75980
L70270 75950
L70250 75930
L70220 75870
L70220 75810
L70250 75760
L70270 75730
L70330 75700
L70470 75700
L70550 75730
" />
<path d="M70810 76290
L70810 75900
" />
<path d="M70810 75700
L70780 75730
L70810 75760
L70840 75730
L70810 75700
L70810 75760
" />
<path d="M71030 75900
L71340 75900
L71030 76290
L71340 76290
" />
<path d="M71790 76260
L71730 76290
L71620 76290
L71570 76260
L71540 76210
L71540 75980
L71570 75930
L71620 75900
L71730 75900
L71790 75930
L71820 75980
L71820 76040
L71540 76100
" />
<path d="M72070 76240
L72100 76260
L72070 76290
L72040 76260
L72070 76240
L72070 76290
" />
<path d="M72070 75930
L72100 75950
L72070 75980
L72040 75950
L72070 75930
L72070 75980
" />
<path d="M72770 76120
L73060 76120
" />
<path d="M72720 76290
L72910 75700
L73110 76290
" />
<path d="M73560 75900
L73560 76290
" />
<path d="M73420 75670
L73280 76100
L73650 76100
" />
</g>
<g style="fill:#840000; fill-opacity:0.0; 
stroke:#840000; stroke-width:100; stroke-opacity:1; 
stroke-linecap:round; stroke-linejoin:round;">
</g>
<g style="fill:#840000; fill-opacity:0.0; 
stroke:#840000; stroke-width:60; stroke-opacity:1; 
stroke-linecap:round; stroke-linejoin:round;">
<text x="103540" y="77420"
textLength="3910" font-size="780" lengthAdjust="spacingAndGlyphs"
text-anchor="start" opacity="0">Id: 8/46</text>
<path d="M103710 77390
L103710 76800
" />
<path d="M104240 77390
L104240 76800
" />
<path d="M104240 77360
L104180 77390
L104070 77390
L104010 77360
L103990 77340
L103960 77280
L103960 77110
L103990 77050
L104010 77030
L104070 77000
L104180 77000
L104240 77030
" />
<path d="M104520 77340
L104550 77360
L104520 77390
L104490 77360
L104520 77340
L104520 77390
" />
<path d="M104520 77030
L104550 77050
L104520 77080
L104490 77050
L104520 77030
L104520 77080
" />
<path d="M105340 77050
L105280 77030
L105250 77000
L105220 76940
L105220 76910
L105250 76860
L105280 76830
L105340 76800
L105450 76800
L105500 76830
L105530 76860
L105560 76910
L105560 76940
L105530 77000
L105500 77030
L105450 77050
L105340 77050
L105280 77080
L105250 77110
L105220 77170
L105220 77280
L105250 77340
L105280 77360
L105340 77390
L105450 77390
L105500 77360
L105530 77340
L105560 77280
L105560 77170
L105530 77110
L105500 77080
L105450 77050
" />
<path d="M106230 76770
L105730 77530
" />
<path d="M106680 77000
L106680 77390
" />
<path d="M106540 76770
L106400 77200
L106770 77200
" />
<path d="M107250 76800
L107130 76800
L107080 76830
L107050 76860
L106990 76940
L106960 77050
L106960 77280
L106990 77340
L107020 77360
L107080 77390
L107190 77390
L107250 77360
L107270 77340
L107300 77280
L107300 77140
L107270 77080
L107250 77050
L107190 77030
L107080 77030
L107020 77050
L106990 77080
L106960 77140
" />
</g>
<g style="fill:#840000; fill-opacity:0.0; 
stroke:#840000; stroke-width:100; stroke-opacity:1; 
stroke-linecap:round; stroke-linejoin:round;">
</g>
<g style="fill:#840000; fill-opacity:0.0; 
stroke:#840000; stroke-width:60; stroke-opacity:1; 
stroke-linecap:round; stroke-linejoin:round;">
<path d="M69690 73820
L112210 73820
" />
</g>
<g style="fill:#840000; fill-opacity:0.0; 
stroke:#840000; stroke-width:100; stroke-opacity:1; 
stroke-linecap:round; stroke-linejoin:round;">
</g>
<g style="fill:#840000; fill-opacity:0.0; 
stroke:#840000; stroke-width:160; stroke-opacity:1; 
stroke-linecap:round; stroke-linejoin:round;">
<text x="70080" y="74920"
textLength="19480" font-size="1050" lengthAdjust="spacingAndGlyphs"
text-anchor="start" opacity="0">Title: PSU - Polarity Protection</text>
<path d="M70360 74090
L70810 74090
" />
<path d="M70480 74880
L70580 74090
" />
<path d="M70970 74880
L71040 74360
" />
<path d="M71070 74090
L71030 74130
L71060 74170
L71110 74130
L71070 74090
L71060 74170
" />
<path d="M71300 74360
L71600 74360
" />
<path d="M71450 74090
L71360 74770
L71390 74840
L71460 74880
L71540 74880
" />
<path d="M71910 74880
L71840 74840
L71820 74770
L71900 74090
" />
<path d="M72520 74840
L72440 74880
L72290 74880
L72220 74840
L72190 74770
L72230 74470
L72280 74390
L72360 74360
L72510 74360
L72580 74390
L72610 74470
L72600 74540
L72210 74620
" />
<path d="M72900 74810
L72930 74840
L72890 74880
L72860 74840
L72900 74810
L72890 74880
" />
<path d="M72950 74390
L72990 74430
L72940 74470
L72910 74430
L72950 74390
L72940 74470
" />
<path d="M73870 74880
L73970 74090
L74270 74090
L74340 74130
L74370 74170
L74400 74240
L74390 74360
L74340 74430
L74300 74470
L74220 74510
L73920 74510
" />
<path d="M74630 74840
L74740 74880
L74920 74880
L75000 74840
L75050 74810
L75090 74730
L75100 74660
L75070 74580
L75040 74540
L74970 74510
L74820 74470
L74750 74430
L74720 74390
L74690 74320
L74700 74240
L74750 74170
L74790 74130
L74870 74090
L75060 74090
L75170 74130
" />
<path d="M75510 74090
L75430 74730
L75460 74810
L75490 74840
L75560 74880
L75710 74880
L75790 74840
L75840 74810
L75880 74730
L75960 74090
" />
<path d="M76880 74580
L77480 74580
" />
<path d="M78420 74880
L78520 74090
L78820 74090
L78890 74130
L78930 74170
L78950 74240
L78940 74360
L78890 74430
L78850 74470
L78770 74510
L78470 74510
" />
<path d="M79330 74880
L79250 74840
L79220 74810
L79190 74730
L79220 74510
L79270 74430
L79310 74390
L79390 74360
L79500 74360
L79570 74390
L79610 74430
L79640 74510
L79610 74730
L79560 74810
L79520 74840
L79440 74880
L79330 74880
" />
<path d="M80040 74880
L79970 74840
L79940 74770
L80030 74090
" />
<path d="M80680 74880
L80730 74470
L80700 74390
L80630 74360
L80480 74360
L80400 74390
" />
<path d="M80680 74840
L80600 74880
L80420 74880
L80350 74840
L80320 74770
L80330 74690
L80370 74620
L80450 74580
L80640 74580
L80720 74540
" />
<path d="M81060 74880
L81120 74360
" />
<path d="M81100 74510
L81150 74430
L81190 74390
L81270 74360
L81350 74360
" />
<path d="M81540 74880
L81610 74360
" />
<path d="M81640 74090
L81600 74130
L81630 74170
L81680 74130
L81640 74090
L81630 74170
" />
<path d="M81870 74360
L82170 74360
" />
<path d="M82020 74090
L81930 74770
L81960 74840
L82030 74880
L82110 74880
" />
<path d="M82360 74360
L82490 74880
" />
<path d="M82740 74360
L82490 74880
L82390 75070
L82340 75110
L82260 75150
" />
<path d="M83580 74880
L83670 74090
L83980 74090
L84050 74130
L84080 74170
L84110 74240
L84090 74360
L84050 74430
L84000 74470
L83920 74510
L83620 74510
" />
<path d="M84370 74880
L84430 74360
" />
<path d="M84410 74510
L84460 74430
L84500 74390
L84580 74360
L84660 74360
" />
<path d="M84970 74880
L84900 74840
L84860 74810
L84840 74730
L84860 74510
L84910 74430
L84950 74390
L85030 74360
L85150 74360
L85220 74390
L85250 74430
L85280 74510
L85250 74730
L85200 74810
L85160 74840
L85080 74880
L84970 74880
" />
<path d="M85520 74360
L85820 74360
" />
<path d="M85670 74090
L85580 74770
L85610 74840
L85680 74880
L85760 74880
" />
<path d="M86330 74840
L86250 74880
L86100 74880
L86030 74840
L86000 74770
L86040 74470
L86080 74390
L86160 74360
L86310 74360
L86380 74390
L86410 74470
L86400 74540
L86020 74620
" />
<path d="M87040 74840
L86960 74880
L86810 74880
L86740 74840
L86710 74810
L86680 74730
L86710 74510
L86750 74430
L86800 74390
L86880 74360
L87030 74360
L87100 74390
" />
<path d="M87330 74360
L87630 74360
" />
<path d="M87470 74090
L87390 74770
L87420 74840
L87490 74880
L87560 74880
" />
<path d="M87830 74880
L87890 74360
" />
<path d="M87930 74090
L87880 74130
L87920 74170
L87960 74130
L87930 74090
L87920 74170
" />
<path d="M88320 74880
L88250 74840
L88210 74810
L88180 74730
L88210 74510
L88260 74430
L88300 74390
L88380 74360
L88490 74360
L88570 74390
L88600 74430
L88630 74510
L88600 74730
L88550 74810
L88510 74840
L88430 74880
L88320 74880
" />
<path d="M88980 74360
L88920 74880
" />
<path d="M88970 74430
L89020 74390
L89100 74360
L89210 74360
L89280 74390
L89310 74470
L89260 74880
" />
</g>
<g style="fill:#840000; fill-opacity:0.0; 
stroke:#840000; stroke-width:100; stroke-opacity:1; 
stroke-linecap:round; stroke-linejoin:round;">
</g>
<g style="fill:#840000; fill-opacity:0.0; 
stroke:#840000; stroke-width:60; stroke-opacity:1; 
stroke-linecap:round; stroke-linejoin:round;">
<text x="70080" y="73400"
textLength="18100" font-size="780" lengthAdjust="spacingAndGlyphs"
text-anchor="start" opacity="0">File: PMOSReversePolarityProtection.sch</text>
<path d="M70440 73060
L70250 73060
" />
<path d="M70250 73370
L70250 72780
L70530 72780
" />
<path d="M70750 73370
L70750 72980
" />
<path d="M70750 72780
L70720 72810
L70750 72840
L70780 72810
L70750 72780
L70750 72840
" />
<path d="M71120 73370
L71060 73340
L71030 73290
L71030 72780
" />
<path d="M71570 73340
L71510 73370
L71400 73370
L71340 73340
L71310 73290
L71310 73060
L71340 73010
L71400 72980
L71510 72980
L71570 73010
L71590 73060
L71590 73120
L71310 73180
" />
<path d="M71850 73320
L71880 73340
L71850 73370
L71820 73340
L71850 73320
L71850 73370
" />
<path d="M71850 73010
L71880 73030
L71850 73060
L71820 73030
L71850 73010
L71850 73060
" />
<path d="M72580 73370
L72580 72780
L72800 72780
L72860 72810
L72890 72840
L72910 72890
L72910 72980
L72890 73030
L72860 73060
L72800 73090
L72580 73090
" />
<path d="M73170 73370
L73170 72780
L73360 73200
L73560 72780
L73560 73370
" />
<path d="M73950 72780
L74070 72780
L74120 72810
L74180 72870
L74210 72980
L74210 73180
L74180 73290
L74120 73340
L74070 73370
L73950 73370
L73900 73340
L73840 73290
L73810 73180
L73810 72980
L73840 72870
L73900 72810
L73950 72780
" />
<path d="M74430 73340
L74520 73370
L74660 73370
L74710 73340
L74740 73320
L74770 73260
L74770 73200
L74740 73150
L74710 73120
L74660 73090
L74540 73060
L74490 73030
L74460 73010
L74430 72950
L74430 72890
L74460 72840
L74490 72810
L74540 72780
L74680 72780
L74770 72810
" />
<path d="M75360 73370
L75160 73090
" />
<path d="M75020 73370
L75020 72780
L75250 72780
L75300 72810
L75330 72840
L75360 72890
L75360 72980
L75330 73030
L75300 73060
L75250 73090
L75020 73090
" />
<path d="M75840 73340
L75780 73370
L75670 73370
L75610 73340
L75580 73290
L75580 73060
L75610 73010
L75670 72980
L75780 72980
L75840 73010
L75860 73060
L75860 73120
L75580 73180
" />
<path d="M76060 72980
L76200 73370
L76340 72980
" />
<path d="M76790 73340
L76740 73370
L76620 73370
L76570 73340
L76540 73290
L76540 73060
L76570 73010
L76620 72980
L76740 72980
L76790 73010
L76820 73060
L76820 73120
L76540 73180
" />
<path d="M77070 73370
L77070 72980
" />
<path d="M77070 73090
L77100 73030
L77130 73010
L77190 72980
L77240 72980
" />
<path d="M77410 73340
L77470 73370
L77580 73370
L77630 73340
L77660 73290
L77660 73260
L77630 73200
L77580 73180
L77490 73180
L77440 73150
L77410 73090
L77410 73060
L77440 73010
L77490 72980
L77580 72980
L77630 73010
" />
<path d="M78140 73340
L78080 73370
L77970 73370
L77920 73340
L77890 73290
L77890 73060
L77920 73010
L77970 72980
L78080 72980
L78140 73010
L78170 73060
L78170 73120
L77890 73180
" />
<path d="M78420 73370
L78420 72780
L78650 72780
L78700 72810
L78730 72840
L78760 72890
L78760 72980
L78730 73030
L78700 73060
L78650 73090
L78420 73090
" />
<path d="M79100 73370
L79040 73340
L79010 73320
L78980 73260
L78980 73090
L79010 73030
L79040 73010
L79100 72980
L79180 72980
L79240 73010
L79260 73030
L79290 73090
L79290 73260
L79260 73320
L79240 73340
L79180 73370
L79100 73370
" />
<path d="M79630 73370
L79570 73340
L79550 73290
L79550 72780
" />
<path d="M80110 73370
L80110 73060
L80080 73010
L80020 72980
L79910 72980
L79850 73010
" />
<path d="M80110 73340
L80050 73370
L79910 73370
L79850 73340
L79830 73290
L79830 73230
L79850 73180
L79910 73150
L80050 73150
L80110 73120
" />
<path d="M80390 73370
L80390 72980
" />
<path d="M80390 73090
L80420 73030
L80440 73010
L80500 72980
L80560 72980
" />
<path d="M80750 73370
L80750 72980
" />
<path d="M80750 72780
L80730 72810
L80750 72840
L80780 72810
L80750 72780
L80750 72840
" />
<path d="M80950 72980
L81170 72980
" />
<path d="M81030 72780
L81030 73290
L81060 73340
L81120 73370
L81170 73370
" />
<path d="M81320 72980
L81460 73370
" />
<path d="M81600 72980
L81460 73370
L81400 73510
L81370 73540
L81320 73570
" />
<path d="M81820 73370
L81820 72780
L82050 72780
L82100 72810
L82130 72840
L82160 72890
L82160 72980
L82130 73030
L82100 73060
L82050 73090
L81820 73090
" />
<path d="M82410 73370
L82410 72980
" />
<path d="M82410 73090
L82440 73030
L82470 73010
L82520 72980
L82580 72980
" />
<path d="M82860 73370
L82800 73340
L82780 73320
L82750 73260
L82750 73090
L82780 73030
L82800 73010
L82860 72980
L82940 72980
L83000 73010
L83030 73030
L83060 73090
L83060 73260
L83030 73320
L83000 73340
L82940 73370
L82860 73370
" />
<path d="M83230 72980
L83450 72980
" />
<path d="M83310 72780
L83310 73290
L83340 73340
L83390 73370
L83450 73370
" />
<path d="M83870 73340
L83820 73370
L83700 73370
L83650 73340
L83620 73290
L83620 73060
L83650 73010
L83700 72980
L83820 72980
L83870 73010
L83900 73060
L83900 73120
L83620 73180
" />
<path d="M84410 73340
L84350 73370
L84240 73370
L84180 73340
L84150 73320
L84120 73260
L84120 73090
L84150 73030
L84180 73010
L84240 72980
L84350 72980
L84410 73010
" />
<path d="M84570 72980
L84800 72980
" />
<path d="M84660 72780
L84660 73290
L84690 73340
L84740 73370
L84800 73370
" />
<path d="M85000 73370
L85000 72980
" />
<path d="M85000 72780
L84970 72810
L85000 72840
L85020 72810
L85000 72780
L85000 72840
" />
<path d="M85360 73370
L85300 73340
L85280 73320
L85250 73260
L85250 73090
L85280 73030
L85300 73010
L85360 72980
L85450 72980
L85500 73010
L85530 73030
L85560 73090
L85560 73260
L85530 73320
L85500 73340
L85450 73370
L85360 73370
" />
<path d="M85810 72980
L85810 73370
" />
<path d="M85810 73030
L85840 73010
L85890 72980
L85980 72980
L86040 73010
L86060 73060
L86060 73370
" />
<path d="M86340 73320
L86370 73340
L86340 73370
L86320 73340
L86340 73320
L86340 73370
" />
<path d="M86600 73340
L86650 73370
L86770 73370
L86820 73340
L86850 73290
L86850 73260
L86820 73200
L86770 73180
L86680 73180
L86630 73150
L86600 73090
L86600 73060
L86630 73010
L86680 72980
L86770 72980
L86820 73010
" />
<path d="M87360 73340
L87300 73370
L87190 73370
L87130 73340
L87100 73320
L87070 73260
L87070 73090
L87100 73030
L87130 73010
L87190 72980
L87300 72980
L87360 73010
" />
<path d="M87610 73370
L87610 72780
" />
<path d="M87860 73370
L87860 73060
L87830 73010
L87780 72980
L87690 72980
L87640 73010
L87610 73030
" />
</g>
<g style="fill:#840000; fill-opacity:0.0; 
stroke:#840000; stroke-width:100; stroke-opacity:1; 
stroke-linecap:round; stroke-linejoin:round;">
</g>
<g style="fill:#840000; fill-opacity:0.0; 
stroke:#840000; stroke-width:60; stroke-opacity:1; 
stroke-linecap:round; stroke-linejoin:round;">
<path d="M69690 71460
L112210 71460
" />
</g>
<g style="fill:#840000; fill-opacity:0.0; 
stroke:#840000; stroke-width:100; stroke-opacity:1; 
stroke-linecap:round; stroke-linejoin:round;">
</g>
<g style="fill:#840000; fill-opacity:0.0; 
stroke:#840000; stroke-width:60; stroke-opacity:1; 
stroke-linecap:round; stroke-linejoin:round;">
<text x="70080" y="72340"
textLength="20630" font-size="780" lengthAdjust="spacingAndGlyphs"
text-anchor="start" opacity="0">Sheet: /PSU/PMOSReversePolarityProtection/</text>
<path d="M70220 72280
L70300 72310
L70440 72310
L70500 72280
L70530 72260
L70550 72200
L70550 72140
L70530 72090
L70500 72060
L70440 72030
L70330 72000
L70270 71970
L70250 71950
L70220 71890
L70220 71830
L70250 71780
L70270 71750
L70330 71720
L70470 71720
L70550 71750
" />
<path d="M70810 72310
L70810 71720
" />
<path d="M71060 72310
L71060 72000
L71030 71950
L70980 71920
L70890 71920
L70840 71950
L70810 71970
" />
<path d="M71570 72280
L71510 72310
L71400 72310
L71340 72280
L71310 72230
L71310 72000
L71340 71950
L71400 71920
L71510 71920
L71570 71950
L71590 72000
L71590 72060
L71310 72120
" />
<path d="M72070 72280
L72020 72310
L71900 72310
L71850 72280
L71820 72230
L71820 72000
L71850 71950
L71900 71920
L72020 71920
L72070 71950
L72100 72000
L72100 72060
L71820 72120
" />
<path d="M72270 71920
L72490 71920
" />
<path d="M72350 71720
L72350 72230
L72380 72280
L72440 72310
L72490 72310
" />
<path d="M72690 72260
L72720 72280
L72690 72310
L72660 72280
L72690 72260
L72690 72310
" />
<path d="M72690 71950
L72720 71970
L72690 72000
L72660 71970
L72690 71950
L72690 72000
" />
<path d="M73840 71690
L73340 72450
" />
<path d="M74040 72310
L74040 71720
L74260 71720
L74320 71750
L74350 71780
L74380 71830
L74380 71920
L74350 71970
L74320 72000
L74260 72030
L74040 72030
" />
<path d="M74600 72280
L74680 72310
L74830 72310
L74880 72280
L74910 72260
L74940 72200
L74940 72140
L74910 72090
L74880 72060
L74830 72030
L74710 72000
L74660 71970
L74630 71950
L74600 71890
L74600 71830
L74630 71780
L74660 71750
L74710 71720
L74850 71720
L74940 71750
" />
<path d="M75190 71720
L75190 72200
L75220 72260
L75250 72280
L75300 72310
L75420 72310
L75470 72280
L75500 72260
L75530 72200
L75530 71720
" />
<path d="M76230 71690
L75720 72450
" />
<path d="M76430 72310
L76430 71720
L76650 71720
L76710 71750
L76740 71780
L76760 71830
L76760 71920
L76740 71970
L76710 72000
L76650 72030
L76430 72030
" />
<path d="M77020 72310
L77020 71720
L77210 72140
L77410 71720
L77410 72310
" />
<path d="M77800 71720
L77920 71720
L77970 71750
L78030 71810
L78060 71920
L78060 72120
L78030 72230
L77970 72280
L77920 72310
L77800 72310
L77750 72280
L77690 72230
L77660 72120
L77660 71920
L77690 71810
L77750 71750
L77800 71720
" />
<path d="M78280 72280
L78370 72310
L78510 72310
L78560 72280
L78590 72260
L78620 72200
L78620 72140
L78590 72090
L78560 72060
L78510 72030
L78390 72000
L78340 71970
L78310 71950
L78280 71890
L78280 71830
L78310 71780
L78340 71750
L78390 71720
L78530 71720
L78620 71750
" />
<path d="M79210 72310
L79010 72030
" />
<path d="M78870 72310
L78870 71720
L79100 71720
L79150 71750
L79180 71780
L79210 71830
L79210 71920
L79180 71970
L79150 72000
L79100 72030
L78870 72030
" />
<path d="M79690 72280
L79630 72310
L79520 72310
L79460 72280
L79430 72230
L79430 72000
L79460 71950
L79520 71920
L79630 71920
L79690 71950
L79710 72000
L79710 72060
L79430 72120
" />
<path d="M79910 71920
L80050 72310
L80190 71920
" />
<path d="M80640 72280
L80580 72310
L80470 72310
L80420 72280
L80390 72230
L80390 72000
L80420 71950
L80470 71920
L80580 71920
L80640 71950
L80670 72000
L80670 72060
L80390 72120
" />
<path d="M80920 72310
L80920 71920
" />
<path d="M80920 72030
L80950 71970
L80980 71950
L81030 71920
L81090 71920
" />
<path d="M81260 72280
L81320 72310
L81430 72310
L81480 72280
L81510 72230
L81510 72200
L81480 72140
L81430 72120
L81340 72120
L81290 72090
L81260 72030
L81260 72000
L81290 71950
L81340 71920
L81430 71920
L81480 71950
" />
<path d="M81990 72280
L81930 72310
L81820 72310
L81760 72280
L81740 72230
L81740 72000
L81760 71950
L81820 71920
L81930 71920
L81990 71950
L82020 72000
L82020 72060
L81740 72120
" />
<path d="M82270 72310
L82270 71720
L82500 71720
L82550 71750
L82580 71780
L82610 71830
L82610 71920
L82580 71970
L82550 72000
L82500 72030
L82270 72030
" />
<path d="M82940 72310
L82890 72280
L82860 72260
L82830 72200
L82830 72030
L82860 71970
L82890 71950
L82940 71920
L83030 71920
L83090 71950
L83110 71970
L83140 72030
L83140 72200
L83110 72260
L83090 72280
L83030 72310
L82940 72310
" />
<path d="M83480 72310
L83420 72280
L83390 72230
L83390 71720
" />
<path d="M83960 72310
L83960 72000
L83930 71950
L83870 71920
L83760 71920
L83700 71950
" />
<path d="M83960 72280
L83900 72310
L83760 72310
L83700 72280
L83680 72230
L83680 72170
L83700 72120
L83760 72090
L83900 72090
L83960 72060
" />
<path d="M84240 72310
L84240 71920
" />
<path d="M84240 72030
L84270 71970
L84290 71950
L84350 71920
L84410 71920
" />
<path d="M84600 72310
L84600 71920
" />
<path d="M84600 71720
L84570 71750
L84600 71780
L84630 71750
L84600 71720
L84600 71780
" />
<path d="M84800 71920
L85020 71920
" />
<path d="M84880 71720
L84880 72230
L84910 72280
L84970 72310
L85020 72310
" />
<path d="M85160 71920
L85300 72310
" />
<path d="M85450 71920
L85300 72310
L85250 72450
L85220 72480
L85160 72510
" />
<path d="M85670 72310
L85670 71720
L85890 71720
L85950 71750
L85980 71780
L86010 71830
L86010 71920
L85980 71970
L85950 72000
L85890 72030
L85670 72030
" />
<path d="M86260 72310
L86260 71920
" />
<path d="M86260 72030
L86290 71970
L86320 71950
L86370 71920
L86430 71920
" />
<path d="M86710 72310
L86650 72280
L86630 72260
L86600 72200
L86600 72030
L86630 71970
L86650 71950
L86710 71920
L86790 71920
L86850 71950
L86880 71970
L86910 72030
L86910 72200
L86880 72260
L86850 72280
L86790 72310
L86710 72310
" />
<path d="M87070 71920
L87300 71920
" />
<path d="M87160 71720
L87160 72230
L87190 72280
L87240 72310
L87300 72310
" />
<path d="M87720 72280
L87660 72310
L87550 72310
L87500 72280
L87470 72230
L87470 72000
L87500 71950
L87550 71920
L87660 71920
L87720 71950
L87750 72000
L87750 72060
L87470 72120
" />
<path d="M88250 72280
L88200 72310
L88090 72310
L88030 72280
L88000 72260
L87970 72200
L87970 72030
L88000 71970
L88030 71950
L88090 71920
L88200 71920
L88250 71950
" />
<path d="M88420 71920
L88650 71920
" />
<path d="M88510 71720
L88510 72230
L88540 72280
L88590 72310
L88650 72310
" />
<path d="M88840 72310
L88840 71920
" />
<path d="M88840 71720
L88820 71750
L88840 71780
L88870 71750
L88840 71720
L88840 71780
" />
<path d="M89210 72310
L89150 72280
L89130 72260
L89100 72200
L89100 72030
L89130 71970
L89150 71950
L89210 71920
L89290 71920
L89350 71950
L89380 71970
L89410 72030
L89410 72200
L89380 72260
L89350 72280
L89290 72310
L89210 72310
" />
<path d="M89660 71920
L89660 72310
" />
<path d="M89660 71970
L89690 71950
L89740 71920
L89830 71920
L89880 71950
L89910 72000
L89910 72310
" />
<path d="M90610 71690
L90110 72450
" />
</g>
<g style="fill:#840000; fill-opacity:0.0; 
stroke:#840000; stroke-width:100; stroke-opacity:1; 
stroke-linecap:round; stroke-linejoin:round;">
</g>
<g style="fill:#840000; fill-opacity:0.0; 
stroke:#840000; stroke-width:120; stroke-opacity:1; 
stroke-linecap:round; stroke-linejoin:round;">
<text x="70080" y="71160"
textLength="9190" font-size="780" lengthAdjust="spacingAndGlyphs"
text-anchor="start" opacity="0">Created by C Sutton</text>
<path d="M70630 71080
L70600 71100
L70520 71130
L70460 71130
L70380 71100
L70320 71050
L70290 70990
L70270 70880
L70270 70790
L70290 70680
L70320 70630
L70380 70570
L70460 70540
L70520 70540
L70600 70570
L70630 70600
" />
<path d="M70880 71130
L70880 70740
" />
<path d="M70880 70850
L70910 70790
L70940 70770
L71000 70740
L71050 70740
" />
<path d="M71470 71100
L71420 71130
L71300 71130
L71250 71100
L71220 71050
L71220 70820
L71250 70770
L71300 70740
L71420 70740
L71470 70770
L71500 70820
L71500 70880
L71220 70940
" />
<path d="M72010 71130
L72010 70820
L71980 70770
L71920 70740
L71810 70740
L71750 70770
" />
<path d="M72010 71100
L71950 71130
L71810 71130
L71750 71100
L71730 71050
L71730 70990
L71750 70940
L71810 70910
L71950 70910
L72010 70880
" />
<path d="M72200 70740
L72430 70740
" />
<path d="M72290 70540
L72290 71050
L72320 71100
L72370 71130
L72430 71130
" />
<path d="M72850 71100
L72790 71130
L72680 71130
L72630 71100
L72600 71050
L72600 70820
L72630 70770
L72680 70740
L72790 70740
L72850 70770
L72880 70820
L72880 70880
L72600 70940
" />
<path d="M73380 71130
L73380 70540
" />
<path d="M73380 71100
L73330 71130
L73220 71130
L73160 71100
L73130 71080
L73100 71020
L73100 70850
L73130 70790
L73160 70770
L73220 70740
L73330 70740
L73380 70770
" />
<path d="M74110 71130
L74110 70540
" />
<path d="M74110 70770
L74170 70740
L74280 70740
L74340 70770
L74370 70790
L74400 70850
L74400 71020
L74370 71080
L74340 71100
L74280 71130
L74170 71130
L74110 71100
" />
<path d="M74590 70740
L74730 71130
" />
<path d="M74870 70740
L74730 71130
L74680 71270
L74650 71300
L74590 71330
" />
<path d="M75880 71080
L75860 71100
L75770 71130
L75720 71130
L75630 71100
L75580 71050
L75550 70990
L75520 70880
L75520 70790
L75550 70680
L75580 70630
L75630 70570
L75720 70540
L75770 70540
L75860 70570
L75880 70600
" />
<path d="M76560 71100
L76640 71130
L76780 71130
L76840 71100
L76870 71080
L76900 71020
L76900 70960
L76870 70910
L76840 70880
L76780 70850
L76670 70820
L76610 70790
L76590 70770
L76560 70710
L76560 70650
L76590 70600
L76610 70570
L76670 70540
L76810 70540
L76900 70570
" />
<path d="M77400 70740
L77400 71130
" />
<path d="M77150 70740
L77150 71050
L77180 71100
L77230 71130
L77320 71130
L77370 71100
L77400 71080
" />
<path d="M77600 70740
L77820 70740
" />
<path d="M77680 70540
L77680 71050
L77710 71100
L77770 71130
L77820 71130
" />
<path d="M77940 70740
L78160 70740
" />
<path d="M78020 70540
L78020 71050
L78050 71100
L78100 71130
L78160 71130
" />
<path d="M78440 71130
L78380 71100
L78360 71080
L78330 71020
L78330 70850
L78360 70790
L78380 70770
L78440 70740
L78530 70740
L78580 70770
L78610 70790
L78640 70850
L78640 71020
L78610 71080
L78580 71100
L78530 71130
L78440 71130
" />
<path d="M78890 70740
L78890 71130
" />
<path d="M78890 70790
L78920 70770
L78970 70740
L79060 70740
L79120 70770
L79140 70820
L79140 71130
" />
</g>
<g style="fill:#840000; fill-opacity:0.0; 
stroke:#840000; stroke-width:100; stroke-opacity:1; 
stroke-linecap:round; stroke-linejoin:round;">
</g>
<g style="fill:#840000; fill-opacity:0.0; 
stroke:#840000; stroke-width:60; stroke-opacity:1; 
stroke-linecap:round; stroke-linejoin:round;">
<path d="M77560 75400
L77560 76580
" />
</g>
<g style="fill:#840000; fill-opacity:0.0; 
stroke:#840000; stroke-width:100; stroke-opacity:1; 
stroke-linecap:round; stroke-linejoin:round;">
</g>
<g style="fill:#840000; fill-opacity:0.0; 
stroke:#840000; stroke-width:60; stroke-opacity:1; 
stroke-linecap:round; stroke-linejoin:round;">
<path d="M102760 75400
L102760 77960
" />
</g>
<g style="fill:#840000; fill-opacity:0.0; 
stroke:#840000; stroke-width:0; stroke-opacity:1; 
stroke-linecap:round; stroke-linejoin:round;">
<g >
</g>
<g style="fill:#840000; fill-opacity:0.0; 
stroke:#840000; stroke-width:60; stroke-opacity:1; 
stroke-linecap:round; stroke-linejoin:round;">
<path style="fill:#840000; fill-opacity:0.0; 
stroke:#840000; stroke-width:60; stroke-opacity:1; 
stroke-linecap:round; stroke-linejoin:round;fill:none"
d="M 65500,28250
65500,27750
65100,27500
65500,27250
65900,27500
65500,27750
" /> 
<path d="M65500 28250
L65500 28250
" />
</g>
</g>
<g style="fill:#840000; fill-opacity:0.0; 
stroke:#840000; stroke-width:0; stroke-opacity:1; 
stroke-linecap:round; stroke-linejoin:round;">
<g >
</g>
<g style="fill:#840000; fill-opacity:0.0; 
stroke:#840000; stroke-width:60; stroke-opacity:1; 
stroke-linecap:round; stroke-linejoin:round;">
<path style="fill:#840000; fill-opacity:0.0; 
stroke:#840000; stroke-width:60; stroke-opacity:1; 
stroke-linecap:round; stroke-linejoin:round;fill:none"
d="M 61000,30750
61000,29750
" /> 
</g>
<g style="fill:#840000; fill-opacity:0.0; 
stroke:#840000; stroke-width:100; stroke-opacity:1; 
stroke-linecap:round; stroke-linejoin:round;">
<path style="fill:#840000; fill-opacity:0.0; 
stroke:#840000; stroke-width:100; stroke-opacity:1; 
stroke-linecap:round; stroke-linejoin:round;fill:none"
d="M 60500,29750
61500,29750
61500,29950
" /> 
<path style="fill:#840000; fill-opacity:0.0; 
stroke:#840000; stroke-width:100; stroke-opacity:1; 
stroke-linecap:round; stroke-linejoin:round;fill:none"
d="M 60500,30750
61500,30750
61000,29750
Z" /> 
</g>
<g style="fill:#840000; fill-opacity:0.0; 
stroke:#840000; stroke-width:60; stroke-opacity:1; 
stroke-linecap:round; stroke-linejoin:round;">
<path d="M61000 29750
L61000 28750
" />
<path d="M61000 30750
L61000 31750
" />
</g>
<g style="fill:#008484; fill-opacity:0.0; 
stroke:#008484; stroke-width:60; stroke-opacity:1; 
stroke-linecap:round; stroke-linejoin:round;">
<text x="62310" y="30060"
textLength="1130" font-size="660" lengthAdjust="spacingAndGlyphs"
text-anchor="middle" opacity="0">D1</text>
<path d="M61940 30030
L61940 29530
L62060 29530
L62130 29560
L62170 29600
L62200 29650
L62220 29750
L62220 29820
L62200 29910
L62170 29960
L62130 30010
L62060 30030
L61940 30030
" />
<path d="M62700 30030
L62410 30030
" />
<path d="M62560 30030
L62560 29530
L62510 29600
L62460 29650
L62410 29670
" />
<text x="63910" y="30970"
textLength="4250" font-size="660" lengthAdjust="spacingAndGlyphs"
text-anchor="middle" opacity="0">BZT52C5V1</text>
<path d="M62100 30680
L62170 30700
L62190 30730
L62210 30770
L62210 30850
L62190 30890
L62170 30920
L62120 30940
L61930 30940
L61930 30440
L62100 30440
L62140 30470
L62170 30490
L62190 30540
L62190 30580
L62170 30630
L62140 30660
L62100 30680
L61930 30680
" />
<path d="M62380 30440
L62710 30440
L62380 30940
L62710 30940
" />
<path d="M62830 30440
L63120 30440
" />
<path d="M62980 30940
L62980 30440
" />
<path d="M63520 30440
L63290 30440
L63260 30680
L63290 30660
L63330 30630
L63450 30630
L63500 30660
L63520 30680
L63550 30730
L63550 30850
L63520 30890
L63500 30920
L63450 30940
L63330 30940
L63290 30920
L63260 30890
" />
<path d="M63740 30490
L63760 30470
L63810 30440
L63930 30440
L63980 30470
L64000 30490
L64020 30540
L64020 30580
L64000 30660
L63710 30940
L64020 30940
" />
<path d="M64520 30890
L64500 30920
L64430 30940
L64380 30940
L64310 30920
L64260 30870
L64240 30820
L64210 30730
L64210 30660
L64240 30560
L64260 30510
L64310 30470
L64380 30440
L64430 30440
L64500 30470
L64520 30490
" />
<path d="M64980 30440
L64740 30440
L64710 30680
L64740 30660
L64790 30630
L64910 30630
L64950 30660
L64980 30680
L65000 30730
L65000 30850
L64980 30890
L64950 30920
L64910 30940
L64790 30940
L64740 30920
L64710 30890
" />
<path d="M65140 30440
L65310 30940
L65480 30440
" />
<path d="M65910 30940
L65620 30940
" />
<path d="M65760 30940
L65760 30440
L65710 30510
L65670 30560
L65620 30580
" />
</g>
<g style="fill:#840084; fill-opacity:0.0; 
stroke:#840084; stroke-width:60; stroke-opacity:1; 
stroke-linecap:round; stroke-linejoin:round;">
<text x="63250" y="31770"
textLength="3130" font-size="660" lengthAdjust="spacingAndGlyphs"
text-anchor="middle" opacity="0">Vz=5.1V</text>
<path d="M61760 31240
L61920 31740
L62090 31240
" />
<path d="M62210 31410
L62470 31410
L62210 31740
L62470 31740
" />
<path d="M62660 31480
L63040 31480
" />
<path d="M63040 31620
L62660 31620
" />
<path d="M63520 31240
L63280 31240
L63260 31480
L63280 31460
L63330 31430
L63450 31430
L63500 31460
L63520 31480
L63540 31530
L63540 31650
L63520 31690
L63500 31720
L63450 31740
L63330 31740
L63280 31720
L63260 31690
" />
<path d="M63760 31690
L63780 31720
L63760 31740
L63730 31720
L63760 31690
L63760 31740
" />
<path d="M64260 31740
L63970 31740
" />
<path d="M64110 31740
L64110 31240
L64070 31310
L64020 31360
L63970 31380
" />
<path d="M64400 31240
L64570 31740
L64730 31240
" />
</g>
</g>
<g style="fill:#840084; fill-opacity:0.0; 
stroke:#840084; stroke-width:0; stroke-opacity:1; 
stroke-linecap:round; stroke-linejoin:round;">
<g >
</g>
<g style="fill:#840000; fill-opacity:0.0; 
stroke:#840000; stroke-width:0; stroke-opacity:1; 
stroke-linecap:round; stroke-linejoin:round;">
</g>
<g style="fill:#840000; fill-opacity:0.0; 
stroke:#840000; stroke-width:100; stroke-opacity:1; 
stroke-linecap:round; stroke-linejoin:round;">
<rect x="56600" y="33000" width="800" height="2000" rx="0" />
</g>
<g style="fill:#840000; fill-opacity:0.0; 
stroke:#840000; stroke-width:60; stroke-opacity:1; 
stroke-linecap:round; stroke-linejoin:round;">
<path d="M57000 35000
L57000 35500
" />
<path d="M57000 33000
L57000 32500
" />
</g>
<g style="fill:#008484; fill-opacity:0.0; 
stroke:#008484; stroke-width:60; stroke-opacity:1; 
stroke-linecap:round; stroke-linejoin:round;">
<text x="58750" y="33720"
textLength="1040" font-size="660" lengthAdjust="spacingAndGlyphs"
text-anchor="middle" opacity="0">R5</text>
<path d="M58660 33690
L58500 33450
" />
<path d="M58380 33690
L58380 33190
L58570 33190
L58610 33220
L58640 33240
L58660 33290
L58660 33360
L58640 33410
L58610 33430
L58570 33450
L58380 33450
" />
<path d="M59110 33190
L58880 33190
L58850 33430
L58880 33410
L58920 33380
L59040 33380
L59090 33410
L59110 33430
L59140 33480
L59140 33600
L59110 33640
L59090 33670
L59040 33690
L58920 33690
L58880 33670
L58850 33640
" />
<text x="58740" y="34720"
textLength="1990" font-size="660" lengthAdjust="spacingAndGlyphs"
text-anchor="middle" opacity="0">100K</text>
<path d="M58150 34690
L57870 34690
" />
<path d="M58010 34690
L58010 34190
L57960 34260
L57910 34310
L57870 34330
" />
<path d="M58460 34190
L58510 34190
L58560 34220
L58580 34240
L58600 34290
L58630 34380
L58630 34500
L58600 34600
L58580 34640
L58560 34670
L58510 34690
L58460 34690
L58410 34670
L58390 34640
L58370 34600
L58340 34500
L58340 34380
L58370 34290
L58390 34240
L58410 34220
L58460 34190
" />
<path d="M58940 34190
L58990 34190
L59030 34220
L59060 34240
L59080 34290
L59100 34380
L59100 34500
L59080 34600
L59060 34640
L59030 34670
L58990 34690
L58940 34690
L58890 34670
L58870 34640
L58840 34600
L58820 34500
L58820 34380
L58840 34290
L58870 34240
L58890 34220
L58940 34190
" />
<path d="M59320 34690
L59320 34190
" />
<path d="M59600 34690
L59390 34410
" />
<path d="M59600 34190
L59320 34480
" />
</g>
</g>
<g style="fill:#008484; fill-opacity:0.0; 
stroke:#008484; stroke-width:0; stroke-opacity:1; 
stroke-linecap:round; stroke-linejoin:round;">
<g >
</g>
<g style="fill:#840000; fill-opacity:0.0; 
stroke:#840000; stroke-width:0; stroke-opacity:1; 
stroke-linecap:round; stroke-linejoin:round;">
</g>
<g style="fill:#840000; fill-opacity:0.0; 
stroke:#840000; stroke-width:60; stroke-opacity:1; 
stroke-linecap:round; stroke-linejoin:round;">
<path style="fill:#840000; fill-opacity:0.0; 
stroke:#840000; stroke-width:60; stroke-opacity:1; 
stroke-linecap:round; stroke-linejoin:round;fill:none"
d="M 57000,36500
57000,37000
57500,37000
57000,37500
56500,37000
57000,37000
" /> 
</g>
<g style="fill:#008484; fill-opacity:0.0; 
stroke:#008484; stroke-width:60; stroke-opacity:1; 
stroke-linecap:round; stroke-linejoin:round;">
<text x="57050" y="38500"
textLength="2060" font-size="660" lengthAdjust="spacingAndGlyphs"
text-anchor="middle" opacity="0">GNDS</text>
<path d="M56430 38000
L56380 37970
L56310 37970
L56240 38000
L56190 38040
L56160 38090
L56140 38190
L56140 38260
L56160 38350
L56190 38400
L56240 38450
L56310 38470
L56350 38470
L56430 38450
L56450 38420
L56450 38260
L56350 38260
" />
<path d="M56660 38470
L56660 37970
L56950 38470
L56950 37970
" />
<path d="M57190 38470
L57190 37970
L57310 37970
L57380 38000
L57430 38040
L57450 38090
L57470 38190
L57470 38260
L57450 38350
L57430 38400
L57380 38450
L57310 38470
L57190 38470
" />
<path d="M57660 38450
L57740 38470
L57850 38470
L57900 38450
L57930 38420
L57950 38380
L57950 38330
L57930 38280
L57900 38260
L57850 38230
L57760 38210
L57710 38190
L57690 38160
L57660 38110
L57660 38070
L57690 38020
L57710 38000
L57760 37970
L57880 37970
L57950 38000
" />
</g>
</g>
<g style="fill:#008484; fill-opacity:0.0; 
stroke:#008484; stroke-width:0; stroke-opacity:1; 
stroke-linecap:round; stroke-linejoin:round;">
<g >
</g>
<g style="fill:#840000; fill-opacity:0.0; 
stroke:#840000; stroke-width:0; stroke-opacity:1; 
stroke-linecap:round; stroke-linejoin:round;">
</g>
<g style="fill:#840000; fill-opacity:0.0; 
stroke:#840000; stroke-width:60; stroke-opacity:1; 
stroke-linecap:round; stroke-linejoin:round;">
<circle cx="48750" cy="25700" r="300" /> 
<path d="M48750 26000
L48750 27000
" />
</g>
<g style="fill:#008484; fill-opacity:0.0; 
stroke:#008484; stroke-width:60; stroke-opacity:1; 
stroke-linecap:round; stroke-linejoin:round;">
<text x="50030" y="26100"
textLength="1420" font-size="660" lengthAdjust="spacingAndGlyphs"
text-anchor="middle" opacity="0">TP3</text>
<path d="M49390 25570
L49680 25570
" />
<path d="M49540 26070
L49540 25570
" />
<path d="M49850 26070
L49850 25570
L50040 25570
L50080 25600
L50110 25620
L50130 25670
L50130 25740
L50110 25790
L50080 25810
L50040 25830
L49850 25830
" />
<path d="M50300 25570
L50610 25570
L50440 25760
L50510 25760
L50560 25790
L50580 25810
L50610 25860
L50610 25980
L50580 26020
L50560 26050
L50510 26070
L50370 26070
L50320 26050
L50300 26020
" />
<text x="51060" y="26990"
textLength="3490" font-size="660" lengthAdjust="spacingAndGlyphs"
text-anchor="middle" opacity="0">TestPoint</text>
<path d="M49390 26460
L49670 26460
" />
<path d="M49530 26960
L49530 26460
" />
<path d="M50030 26940
L49980 26960
L49890 26960
L49840 26940
L49820 26890
L49820 26700
L49840 26650
L49890 26630
L49980 26630
L50030 26650
L50060 26700
L50060 26750
L49820 26790
" />
<path d="M50250 26940
L50290 26960
L50390 26960
L50440 26940
L50460 26890
L50460 26870
L50440 26820
L50390 26790
L50320 26790
L50270 26770
L50250 26720
L50250 26700
L50270 26650
L50320 26630
L50390 26630
L50440 26650
" />
<path d="M50600 26630
L50790 26630
" />
<path d="M50670 26460
L50670 26890
L50700 26940
L50750 26960
L50790 26960
" />
<path d="M50960 26960
L50960 26460
L51150 26460
L51200 26490
L51220 26510
L51250 26560
L51250 26630
L51220 26680
L51200 26700
L51150 26720
L50960 26720
" />
<path d="M51530 26960
L51480 26940
L51460 26910
L51440 26870
L51440 26720
L51460 26680
L51480 26650
L51530 26630
L51600 26630
L51650 26650
L51670 26680
L51700 26720
L51700 26870
L51670 26910
L51650 26940
L51600 26960
L51530 26960
" />
<path d="M51910 26960
L51910 26630
" />
<path d="M51910 26460
L51890 26490
L51910 26510
L51940 26490
L51910 26460
L51910 26510
" />
<path d="M52150 26630
L52150 26960
" />
<path d="M52150 26680
L52170 26650
L52220 26630
L52290 26630
L52340 26650
L52360 26700
L52360 26960
" />
<path d="M52530 26630
L52720 26630
" />
<path d="M52600 26460
L52600 26890
L52630 26940
L52670 26960
L52720 26960
" />
</g>
</g>
<g style="fill:#008484; fill-opacity:0.0; 
stroke:#008484; stroke-width:0; stroke-opacity:1; 
stroke-linecap:round; stroke-linejoin:round;">
<g >
</g>
<g style="fill:#840000; fill-opacity:0.0; 
stroke:#840000; stroke-width:0; stroke-opacity:1; 
stroke-linecap:round; stroke-linejoin:round;">
</g>
<g style="fill:#840000; fill-opacity:0.0; 
stroke:#840000; stroke-width:100; stroke-opacity:1; 
stroke-linecap:round; stroke-linejoin:round;">
<circle cx="57000" cy="28600" r="1100" /> 
</g>
<g style="fill:#840000; fill-opacity:1.0; 
stroke:#840000; stroke-width:60; stroke-opacity:1; 
stroke-linecap:round; stroke-linejoin:round;">
<circle cx="57700" cy="28250" r="100" /> 
<circle cx="56300" cy="28250" r="100" /> 
</g>
<g style="fill:#840000; fill-opacity:0.0; 
stroke:#840000; stroke-width:60; stroke-opacity:1; 
stroke-linecap:round; stroke-linejoin:round;">
<path style="fill:#840000; fill-opacity:0.0; 
stroke:#840000; stroke-width:60; stroke-opacity:1; 
stroke-linecap:round; stroke-linejoin:round;fill:none"
d="M 57000,29150
57000,30250
" /> 
</g>
<g style="fill:#840000; fill-opacity:0.0; 
stroke:#840000; stroke-width:100; stroke-opacity:1; 
stroke-linecap:round; stroke-linejoin:round;">
<path style="fill:#840000; fill-opacity:0.0; 
stroke:#840000; stroke-width:100; stroke-opacity:1; 
stroke-linecap:round; stroke-linejoin:round;fill:none"
d="M 56250,29150
57750,29150
" /> 
<path style="fill:#840000; fill-opacity:0.0; 
stroke:#840000; stroke-width:100; stroke-opacity:1; 
stroke-linecap:round; stroke-linejoin:round;fill:none"
d="M 57500,28950
57900,28950
" /> 
<path style="fill:#840000; fill-opacity:0.0; 
stroke:#840000; stroke-width:100; stroke-opacity:1; 
stroke-linecap:round; stroke-linejoin:round;fill:none"
d="M 56800,28950
57200,28950
" /> 
<path style="fill:#840000; fill-opacity:0.0; 
stroke:#840000; stroke-width:100; stroke-opacity:1; 
stroke-linecap:round; stroke-linejoin:round;fill:none"
d="M 56100,28950
56500,28950
" /> 
</g>
<g style="fill:#840000; fill-opacity:0.0; 
stroke:#840000; stroke-width:60; stroke-opacity:1; 
stroke-linecap:round; stroke-linejoin:round;">
<path style="fill:#840000; fill-opacity:0.0; 
stroke:#840000; stroke-width:60; stroke-opacity:1; 
stroke-linecap:round; stroke-linejoin:round;fill:none"
d="M 56000,28250
56300,28250
" /> 
<path style="fill:#840000; fill-opacity:0.0; 
stroke:#840000; stroke-width:60; stroke-opacity:1; 
stroke-linecap:round; stroke-linejoin:round;fill:none"
d="M 58000,28250
57000,28250
57000,28950
" /> 
<path style="fill:#840000; fill-opacity:0.0; 
stroke:#840000; stroke-width:60; stroke-opacity:1; 
stroke-linecap:round; stroke-linejoin:round;fill:none"
d="M 56300,28950
56300,27950
57700,27950
57700,28950
" /> 
</g>
<g style="fill:#840000; fill-opacity:1.0; 
stroke:#840000; stroke-width:60; stroke-opacity:1; 
stroke-linecap:round; stroke-linejoin:round;">
<path style="fill:#840000; fill-opacity:1.0; 
stroke:#840000; stroke-width:60; stroke-opacity:1; 
stroke-linecap:round; stroke-linejoin:round;fill-rule:evenodd;"
d="M 57000,28350
56850,28750
57150,28750
Z" /> 
</g>
<g style="fill:#840000; fill-opacity:0.0; 
stroke:#840000; stroke-width:60; stroke-opacity:1; 
stroke-linecap:round; stroke-linejoin:round;">
<path style="fill:#840000; fill-opacity:0.0; 
stroke:#840000; stroke-width:60; stroke-opacity:1; 
stroke-linecap:round; stroke-linejoin:round;fill:none"
d="M 57200,28150
57150,28100
57150,27800
57100,27750
" /> 
<path style="fill:#840000; fill-opacity:0.0; 
stroke:#840000; stroke-width:60; stroke-opacity:1; 
stroke-linecap:round; stroke-linejoin:round;fill:none"
d="M 57150,27950
56900,28100
56900,27800
Z" /> 
<path d="M57000 30250
L57000 31250
" />
<g transform="rotate(-90 56900 30750)">
<text x="56900" y="30750"
textLength="540" font-size="660" lengthAdjust="spacingAndGlyphs"
text-anchor="middle" opacity="0">1</text>
</g>
<path d="M56870 30600
L56870 30890
" />
<path d="M56870 30750
L56370 30750
L56440 30790
L56490 30840
L56510 30890
" />
<path d="M58000 28250
L59000 28250
" />
<text x="58500" y="28150"
textLength="540" font-size="660" lengthAdjust="spacingAndGlyphs"
text-anchor="middle" opacity="0">2</text>
<path d="M58350 27670
L58380 27650
L58420 27620
L58540 27620
L58590 27650
L58610 27670
L58640 27720
L58640 27760
L58610 27840
L58330 28120
L58640 28120
" />
<path d="M56000 28250
L55000 28250
" />
<text x="55500" y="28150"
textLength="540" font-size="660" lengthAdjust="spacingAndGlyphs"
text-anchor="middle" opacity="0">3</text>
<path d="M55330 27620
L55640 27620
L55470 27810
L55540 27810
L55590 27840
L55610 27860
L55640 27910
L55640 28030
L55610 28070
L55590 28100
L55540 28120
L55400 28120
L55350 28100
L55330 28070
" />
</g>
<g style="fill:#008484; fill-opacity:0.0; 
stroke:#008484; stroke-width:60; stroke-opacity:1; 
stroke-linecap:round; stroke-linejoin:round;">
<text x="57250" y="24720"
textLength="1060" font-size="660" lengthAdjust="spacingAndGlyphs"
text-anchor="middle" opacity="0">Q1</text>
<path d="M57200 24740
L57150 24720
L57100 24670
L57030 24600
L56980 24570
L56940 24570
" />
<path d="M56960 24690
L56910 24670
L56860 24620
L56840 24520
L56840 24360
L56860 24260
L56910 24220
L56960 24190
L57050 24190
L57100 24220
L57150 24260
L57170 24360
L57170 24520
L57150 24620
L57100 24670
L57050 24690
L56960 24690
" />
<path d="M57650 24690
L57360 24690
" />
<path d="M57510 24690
L57510 24190
L57460 24260
L57410 24310
L57360 24330
" />
<text x="57240" y="25720"
textLength="3390" font-size="660" lengthAdjust="spacingAndGlyphs"
text-anchor="middle" opacity="0">HX2301A</text>
<path d="M55690 25690
L55690 25190
" />
<path d="M55690 25430
L55970 25430
" />
<path d="M55970 25690
L55970 25190
" />
<path d="M56160 25190
L56500 25690
" />
<path d="M56500 25190
L56160 25690
" />
<path d="M56660 25240
L56690 25220
L56740 25190
L56850 25190
L56900 25220
L56930 25240
L56950 25290
L56950 25330
L56930 25410
L56640 25690
L56950 25690
" />
<path d="M57120 25190
L57430 25190
L57260 25380
L57330 25380
L57380 25410
L57400 25430
L57430 25480
L57430 25600
L57400 25640
L57380 25670
L57330 25690
L57190 25690
L57140 25670
L57120 25640
" />
<path d="M57740 25190
L57780 25190
L57830 25220
L57850 25240
L57880 25290
L57900 25380
L57900 25500
L57880 25600
L57850 25640
L57830 25670
L57780 25690
L57740 25690
L57690 25670
L57660 25640
L57640 25600
L57620 25500
L57620 25380
L57640 25290
L57660 25240
L57690 25220
L57740 25190
" />
<path d="M58380 25690
L58090 25690
" />
<path d="M58240 25690
L58240 25190
L58190 25260
L58140 25310
L58090 25330
" />
<path d="M58570 25550
L58810 25550
" />
<path d="M58520 25690
L58690 25190
L58850 25690
" />
</g>
<g style="fill:#840084; fill-opacity:0.0; 
stroke:#840084; stroke-width:60; stroke-opacity:1; 
stroke-linecap:round; stroke-linejoin:round;">
<text x="57240" y="26720"
textLength="5230" font-size="660" lengthAdjust="spacingAndGlyphs"
text-anchor="middle" opacity="0">VGS=+/-12V</text>
<path d="M54700 26190
L54870 26690
L55030 26190
" />
<path d="M55460 26220
L55410 26190
L55340 26190
L55270 26220
L55220 26260
L55200 26310
L55180 26410
L55180 26480
L55200 26570
L55220 26620
L55270 26670
L55340 26690
L55390 26690
L55460 26670
L55490 26640
L55490 26480
L55390 26480
" />
<path d="M55680 26670
L55750 26690
L55870 26690
L55910 26670
L55940 26640
L55960 26600
L55960 26550
L55940 26500
L55910 26480
L55870 26450
L55770 26430
L55720 26410
L55700 26380
L55680 26330
L55680 26290
L55700 26240
L55720 26220
L55770 26190
L55890 26190
L55960 26220
" />
<path d="M56180 26430
L56560 26430
" />
<path d="M56560 26570
L56180 26570
" />
<path d="M56790 26500
L57180 26500
" />
<path d="M56990 26690
L56990 26310
" />
<path d="M57770 26170
L57340 26810
" />
<path d="M57940 26500
L58320 26500
" />
<path d="M58820 26690
L58530 26690
" />
<path d="M58680 26690
L58680 26190
L58630 26260
L58580 26310
L58530 26330
" />
<path d="M59010 26240
L59030 26220
L59080 26190
L59200 26190
L59250 26220
L59270 26240
L59290 26290
L59290 26330
L59270 26410
L58990 26690
L59290 26690
" />
<path d="M59440 26190
L59600 26690
L59770 26190
" />
</g>
</g>
<g style="fill:#840084; fill-opacity:0.0; 
stroke:#840084; stroke-width:60; stroke-opacity:1; 
stroke-linecap:round; stroke-linejoin:round;">
</g>
<g style="fill:#008400; fill-opacity:0.0; 
stroke:#008400; stroke-width:60; stroke-opacity:1; 
stroke-linecap:round; stroke-linejoin:round;">
<path d="M65500 28250
L72000 28250
" />
<path d="M59000 28250
L61000 28250
" />
<path d="M61000 28250
L65500 28250
" />
<path d="M61000 28750
L61000 28250
" />
<path d="M57000 32000
L57000 31250
" />
<path d="M61000 32000
L57000 32000
" />
<path d="M61000 31750
L61000 32000
" />
<path d="M57000 32500
L57000 32000
" />
<path d="M55000 28250
L48750 28250
" />
<path d="M48750 27000
L48750 28250
" />
<path d="M48750 28250
L46000 28250
" />
<path d="M57000 35500
L57000 36500
" />
</g>
<g style="fill:#848400; fill-opacity:0.0; 
stroke:#848400; stroke-width:60; stroke-opacity:1; 
stroke-linecap:round; stroke-linejoin:round;">
<text x="45400" y="28500"
textLength="1250" font-size="660" lengthAdjust="spacingAndGlyphs"
text-anchor="end" opacity="0">VIN</text>
<path d="M44220 27970
L44390 28470
L44560 27970
" />
<path d="M44720 28470
L44720 27970
" />
<path d="M44960 28470
L44960 27970
L45250 28470
L45250 27970
" />
</g>
<g style="fill:#848400; fill-opacity:0.0; 
stroke:#848400; stroke-width:100; stroke-opacity:1; 
stroke-linecap:round; stroke-linejoin:round;">
<path style="fill:#848400; fill-opacity:0.0; 
stroke:#848400; stroke-width:100; stroke-opacity:1; 
stroke-linecap:round; stroke-linejoin:round;fill:none"
d="M 46000,28250
45750,28000
45500,28000
45500,28500
45750,28500
Z" /> 
</g>
<g style="fill:#848400; fill-opacity:0.0; 
stroke:#848400; stroke-width:60; stroke-opacity:1; 
stroke-linecap:round; stroke-linejoin:round;">
<text x="72600" y="28500"
textLength="3060" font-size="660" lengthAdjust="spacingAndGlyphs"
text-anchor="start" opacity="0">VIN_POL</text>
<path d="M72670 27970
L72840 28470
L73010 27970
" />
<path d="M73170 28470
L73170 27970
" />
<path d="M73410 28470
L73410 27970
L73700 28470
L73700 27970
" />
<path d="M73820 28520
L74200 28520
" />
<path d="M74320 28470
L74320 27970
L74510 27970
L74550 28000
L74580 28020
L74600 28070
L74600 28140
L74580 28190
L74550 28210
L74510 28230
L74320 28230
" />
<path d="M74910 27970
L75010 27970
L75050 28000
L75100 28040
L75130 28140
L75130 28300
L75100 28400
L75050 28450
L75010 28470
L74910 28470
L74860 28450
L74820 28400
L74790 28300
L74790 28140
L74820 28040
L74860 28000
L74910 27970
" />
<path d="M75580 28470
L75340 28470
L75340 27970
" />
</g>
<g style="fill:#848400; fill-opacity:0.0; 
stroke:#848400; stroke-width:100; stroke-opacity:1; 
stroke-linecap:round; stroke-linejoin:round;">
<path style="fill:#848400; fill-opacity:0.0; 
stroke:#848400; stroke-width:100; stroke-opacity:1; 
stroke-linecap:round; stroke-linejoin:round;fill:none"
d="M 72500,28250
72250,28000
72000,28000
72000,28500
72250,28500
Z" /> 
</g>
<g style="fill:#848400; fill-opacity:0.0; 
stroke:#848400; stroke-width:0; stroke-opacity:1; 
stroke-linecap:round; stroke-linejoin:round;">
</g>
<g style="fill:#008400; fill-opacity:0.0; 
stroke:#008400; stroke-width:0; stroke-opacity:1; 
stroke-linecap:round; stroke-linejoin:round;">
</g>
<g style="fill:#008400; fill-opacity:1.0; 
stroke:#008400; stroke-width:100; stroke-opacity:1; 
stroke-linecap:round; stroke-linejoin:round;">
<circle cx="65500" cy="28250" r="200" /> 
</g>
<g style="fill:#008400; fill-opacity:1.0; 
stroke:#008400; stroke-width:0; stroke-opacity:1; 
stroke-linecap:round; stroke-linejoin:round;">
</g>
<g style="fill:#008400; fill-opacity:1.0; 
stroke:#008400; stroke-width:100; stroke-opacity:1; 
stroke-linecap:round; stroke-linejoin:round;">
<circle cx="61000" cy="28250" r="200" /> 
</g>
<g style="fill:#008400; fill-opacity:1.0; 
stroke:#008400; stroke-width:0; stroke-opacity:1; 
stroke-linecap:round; stroke-linejoin:round;">
</g>
<g style="fill:#008400; fill-opacity:1.0; 
stroke:#008400; stroke-width:100; stroke-opacity:1; 
stroke-linecap:round; stroke-linejoin:round;">
<circle cx="57000" cy="32000" r="200" /> 
</g>
<g style="fill:#008400; fill-opacity:1.0; 
stroke:#008400; stroke-width:0; stroke-opacity:1; 
stroke-linecap:round; stroke-linejoin:round;">
</g>
<g style="fill:#008400; fill-opacity:1.0; 
stroke:#008400; stroke-width:100; stroke-opacity:1; 
stroke-linecap:round; stroke-linejoin:round;">
<circle cx="48750" cy="28250" r="200" /> 
</g> 
</svg>
