<?xml version="1.0" standalone="no"?>
 <!DOCTYPE svg PUBLIC "-//W3C//DTD SVG 1.1//EN" 
 "http://www.w3.org/Graphics/SVG/1.1/DTD/svg11.dtd"> 
<svg
  xmlns:svg="http://www.w3.org/2000/svg"
  xmlns="http://www.w3.org/2000/svg"
  xmlns:xlink="http://www.w3.org/1999/xlink"
  version="1.1"
  width="29.700220cm" height="21.000720cm" viewBox="0 0 116930 82680">
<title>SVG Picture created as SE8233X2_LDO-PSU-SE8233X2_LDO.svg date 2021/06/10 01:03:57 </title>
  <desc>Picture generated by Eeschema-SVG </desc>
<g style="fill:#000000; fill-opacity:1;stroke:#000000; stroke-opacity:1;
stroke-linecap:round; stroke-linejoin:round;"
 transform="translate(0 0) scale(1 1)">
</g>
<g style="fill:#000000; fill-opacity:0.0; 
stroke:#000000; stroke-width:-10; stroke-opacity:1; 
stroke-linecap:round; stroke-linejoin:round;">
</g>
<g style="fill:#840000; fill-opacity:0.0; 
stroke:#840000; stroke-width:-10; stroke-opacity:1; 
stroke-linecap:round; stroke-linejoin:round;">
</g>
<g style="fill:#840000; fill-opacity:0.0; 
stroke:#840000; stroke-width:100; stroke-opacity:1; 
stroke-linecap:round; stroke-linejoin:round;">
</g>
<g style="fill:#840000; fill-opacity:0.0; 
stroke:#840000; stroke-width:60; stroke-opacity:1; 
stroke-linecap:round; stroke-linejoin:round;">
<rect x="69690" y="65360" width="42520" height="12600" rx="0" />
</g>
<g style="fill:#840000; fill-opacity:0.0; 
stroke:#840000; stroke-width:100; stroke-opacity:1; 
stroke-linecap:round; stroke-linejoin:round;">
</g>
<g style="fill:#840000; fill-opacity:0.0; 
stroke:#840000; stroke-width:60; stroke-opacity:1; 
stroke-linecap:round; stroke-linejoin:round;">
<rect x="3940" y="3940" width="109050" height="74800" rx="0" />
</g>
<g style="fill:#840000; fill-opacity:0.0; 
stroke:#840000; stroke-width:100; stroke-opacity:1; 
stroke-linecap:round; stroke-linejoin:round;">
</g>
<g style="fill:#840000; fill-opacity:0.0; 
stroke:#840000; stroke-width:60; stroke-opacity:1; 
stroke-linecap:round; stroke-linejoin:round;">
<rect x="4720" y="4720" width="107490" height="73240" rx="0" />
</g>
<g style="fill:#840000; fill-opacity:0.0; 
stroke:#840000; stroke-width:100; stroke-opacity:1; 
stroke-linecap:round; stroke-linejoin:round;">
</g>
<g style="fill:#840000; fill-opacity:0.0; 
stroke:#840000; stroke-width:60; stroke-opacity:1; 
stroke-linecap:round; stroke-linejoin:round;">
<path d="M23620 4720
L23620 3940
" />
</g>
<g style="fill:#840000; fill-opacity:0.0; 
stroke:#840000; stroke-width:100; stroke-opacity:1; 
stroke-linecap:round; stroke-linejoin:round;">
</g>
<g style="fill:#840000; fill-opacity:0.0; 
stroke:#840000; stroke-width:60; stroke-opacity:1; 
stroke-linecap:round; stroke-linejoin:round;">
<path d="M43310 4720
L43310 3940
" />
</g>
<g style="fill:#840000; fill-opacity:0.0; 
stroke:#840000; stroke-width:100; stroke-opacity:1; 
stroke-linecap:round; stroke-linejoin:round;">
</g>
<g style="fill:#840000; fill-opacity:0.0; 
stroke:#840000; stroke-width:60; stroke-opacity:1; 
stroke-linecap:round; stroke-linejoin:round;">
<path d="M62990 4720
L62990 3940
" />
</g>
<g style="fill:#840000; fill-opacity:0.0; 
stroke:#840000; stroke-width:100; stroke-opacity:1; 
stroke-linecap:round; stroke-linejoin:round;">
</g>
<g style="fill:#840000; fill-opacity:0.0; 
stroke:#840000; stroke-width:60; stroke-opacity:1; 
stroke-linecap:round; stroke-linejoin:round;">
<path d="M82680 4720
L82680 3940
" />
</g>
<g style="fill:#840000; fill-opacity:0.0; 
stroke:#840000; stroke-width:100; stroke-opacity:1; 
stroke-linecap:round; stroke-linejoin:round;">
</g>
<g style="fill:#840000; fill-opacity:0.0; 
stroke:#840000; stroke-width:60; stroke-opacity:1; 
stroke-linecap:round; stroke-linejoin:round;">
<path d="M102360 4720
L102360 3940
" />
</g>
<g style="fill:#840000; fill-opacity:0.0; 
stroke:#840000; stroke-width:100; stroke-opacity:1; 
stroke-linecap:round; stroke-linejoin:round;">
</g>
<g style="fill:#840000; fill-opacity:0.0; 
stroke:#840000; stroke-width:60; stroke-opacity:1; 
stroke-linecap:round; stroke-linejoin:round;">
<text x="13780" y="4580"
textLength="550" font-size="680" lengthAdjust="spacingAndGlyphs"
text-anchor="start" opacity="0">1</text>
<path d="M14190 4560
L13900 4560
" />
<path d="M14050 4560
L14050 4050
L14000 4120
L13950 4170
L13900 4190
" />
</g>
<g style="fill:#840000; fill-opacity:0.0; 
stroke:#840000; stroke-width:100; stroke-opacity:1; 
stroke-linecap:round; stroke-linejoin:round;">
</g>
<g style="fill:#840000; fill-opacity:0.0; 
stroke:#840000; stroke-width:60; stroke-opacity:1; 
stroke-linecap:round; stroke-linejoin:round;">
<text x="33460" y="4580"
textLength="550" font-size="680" lengthAdjust="spacingAndGlyphs"
text-anchor="start" opacity="0">2</text>
<path d="M33580 4090
L33610 4070
L33660 4050
L33780 4050
L33830 4070
L33850 4090
L33870 4140
L33870 4190
L33850 4260
L33560 4560
L33870 4560
" />
</g>
<g style="fill:#840000; fill-opacity:0.0; 
stroke:#840000; stroke-width:100; stroke-opacity:1; 
stroke-linecap:round; stroke-linejoin:round;">
</g>
<g style="fill:#840000; fill-opacity:0.0; 
stroke:#840000; stroke-width:60; stroke-opacity:1; 
stroke-linecap:round; stroke-linejoin:round;">
<text x="53150" y="4580"
textLength="550" font-size="680" lengthAdjust="spacingAndGlyphs"
text-anchor="start" opacity="0">3</text>
<path d="M53250 4050
L53560 4050
L53390 4240
L53470 4240
L53520 4260
L53540 4290
L53560 4340
L53560 4460
L53540 4510
L53520 4530
L53470 4560
L53320 4560
L53270 4530
L53250 4510
" />
</g>
<g style="fill:#840000; fill-opacity:0.0; 
stroke:#840000; stroke-width:100; stroke-opacity:1; 
stroke-linecap:round; stroke-linejoin:round;">
</g>
<g style="fill:#840000; fill-opacity:0.0; 
stroke:#840000; stroke-width:60; stroke-opacity:1; 
stroke-linecap:round; stroke-linejoin:round;">
<text x="72830" y="4580"
textLength="550" font-size="680" lengthAdjust="spacingAndGlyphs"
text-anchor="start" opacity="0">4</text>
<path d="M73200 4220
L73200 4560
" />
<path d="M73070 4020
L72950 4390
L73270 4390
" />
</g>
<g style="fill:#840000; fill-opacity:0.0; 
stroke:#840000; stroke-width:100; stroke-opacity:1; 
stroke-linecap:round; stroke-linejoin:round;">
</g>
<g style="fill:#840000; fill-opacity:0.0; 
stroke:#840000; stroke-width:60; stroke-opacity:1; 
stroke-linecap:round; stroke-linejoin:round;">
<text x="92520" y="4580"
textLength="550" font-size="680" lengthAdjust="spacingAndGlyphs"
text-anchor="start" opacity="0">5</text>
<path d="M92910 4050
L92670 4050
L92640 4290
L92670 4260
L92720 4240
L92840 4240
L92890 4260
L92910 4290
L92930 4340
L92930 4460
L92910 4510
L92890 4530
L92840 4560
L92720 4560
L92670 4530
L92640 4510
" />
</g>
<g style="fill:#840000; fill-opacity:0.0; 
stroke:#840000; stroke-width:100; stroke-opacity:1; 
stroke-linecap:round; stroke-linejoin:round;">
</g>
<g style="fill:#840000; fill-opacity:0.0; 
stroke:#840000; stroke-width:60; stroke-opacity:1; 
stroke-linecap:round; stroke-linejoin:round;">
<text x="112200" y="4580"
textLength="550" font-size="680" lengthAdjust="spacingAndGlyphs"
text-anchor="start" opacity="0">6</text>
<path d="M112570 4050
L112470 4050
L112420 4070
L112400 4090
L112350 4170
L112320 4260
L112320 4460
L112350 4510
L112370 4530
L112420 4560
L112520 4560
L112570 4530
L112590 4510
L112610 4460
L112610 4340
L112590 4290
L112570 4260
L112520 4240
L112420 4240
L112370 4260
L112350 4290
L112320 4340
" />
</g>
<g style="fill:#840000; fill-opacity:0.0; 
stroke:#840000; stroke-width:100; stroke-opacity:1; 
stroke-linecap:round; stroke-linejoin:round;">
</g>
<g style="fill:#840000; fill-opacity:0.0; 
stroke:#840000; stroke-width:60; stroke-opacity:1; 
stroke-linecap:round; stroke-linejoin:round;">
<path d="M23620 77960
L23620 78740
" />
</g>
<g style="fill:#840000; fill-opacity:0.0; 
stroke:#840000; stroke-width:100; stroke-opacity:1; 
stroke-linecap:round; stroke-linejoin:round;">
</g>
<g style="fill:#840000; fill-opacity:0.0; 
stroke:#840000; stroke-width:60; stroke-opacity:1; 
stroke-linecap:round; stroke-linejoin:round;">
<path d="M43310 77960
L43310 78740
" />
</g>
<g style="fill:#840000; fill-opacity:0.0; 
stroke:#840000; stroke-width:100; stroke-opacity:1; 
stroke-linecap:round; stroke-linejoin:round;">
</g>
<g style="fill:#840000; fill-opacity:0.0; 
stroke:#840000; stroke-width:60; stroke-opacity:1; 
stroke-linecap:round; stroke-linejoin:round;">
<path d="M62990 77960
L62990 78740
" />
</g>
<g style="fill:#840000; fill-opacity:0.0; 
stroke:#840000; stroke-width:100; stroke-opacity:1; 
stroke-linecap:round; stroke-linejoin:round;">
</g>
<g style="fill:#840000; fill-opacity:0.0; 
stroke:#840000; stroke-width:60; stroke-opacity:1; 
stroke-linecap:round; stroke-linejoin:round;">
<path d="M82680 77960
L82680 78740
" />
</g>
<g style="fill:#840000; fill-opacity:0.0; 
stroke:#840000; stroke-width:100; stroke-opacity:1; 
stroke-linecap:round; stroke-linejoin:round;">
</g>
<g style="fill:#840000; fill-opacity:0.0; 
stroke:#840000; stroke-width:60; stroke-opacity:1; 
stroke-linecap:round; stroke-linejoin:round;">
<path d="M102360 77960
L102360 78740
" />
</g>
<g style="fill:#840000; fill-opacity:0.0; 
stroke:#840000; stroke-width:100; stroke-opacity:1; 
stroke-linecap:round; stroke-linejoin:round;">
</g>
<g style="fill:#840000; fill-opacity:0.0; 
stroke:#840000; stroke-width:60; stroke-opacity:1; 
stroke-linecap:round; stroke-linejoin:round;">
<text x="13780" y="78600"
textLength="550" font-size="680" lengthAdjust="spacingAndGlyphs"
text-anchor="start" opacity="0">1</text>
<path d="M14190 78580
L13900 78580
" />
<path d="M14050 78580
L14050 78070
L14000 78140
L13950 78190
L13900 78210
" />
</g>
<g style="fill:#840000; fill-opacity:0.0; 
stroke:#840000; stroke-width:100; stroke-opacity:1; 
stroke-linecap:round; stroke-linejoin:round;">
</g>
<g style="fill:#840000; fill-opacity:0.0; 
stroke:#840000; stroke-width:60; stroke-opacity:1; 
stroke-linecap:round; stroke-linejoin:round;">
<text x="33460" y="78600"
textLength="550" font-size="680" lengthAdjust="spacingAndGlyphs"
text-anchor="start" opacity="0">2</text>
<path d="M33580 78110
L33610 78090
L33660 78070
L33780 78070
L33830 78090
L33850 78110
L33870 78160
L33870 78210
L33850 78280
L33560 78580
L33870 78580
" />
</g>
<g style="fill:#840000; fill-opacity:0.0; 
stroke:#840000; stroke-width:100; stroke-opacity:1; 
stroke-linecap:round; stroke-linejoin:round;">
</g>
<g style="fill:#840000; fill-opacity:0.0; 
stroke:#840000; stroke-width:60; stroke-opacity:1; 
stroke-linecap:round; stroke-linejoin:round;">
<text x="53150" y="78600"
textLength="550" font-size="680" lengthAdjust="spacingAndGlyphs"
text-anchor="start" opacity="0">3</text>
<path d="M53250 78070
L53560 78070
L53390 78260
L53470 78260
L53520 78280
L53540 78310
L53560 78360
L53560 78480
L53540 78530
L53520 78550
L53470 78580
L53320 78580
L53270 78550
L53250 78530
" />
</g>
<g style="fill:#840000; fill-opacity:0.0; 
stroke:#840000; stroke-width:100; stroke-opacity:1; 
stroke-linecap:round; stroke-linejoin:round;">
</g>
<g style="fill:#840000; fill-opacity:0.0; 
stroke:#840000; stroke-width:60; stroke-opacity:1; 
stroke-linecap:round; stroke-linejoin:round;">
<text x="72830" y="78600"
textLength="550" font-size="680" lengthAdjust="spacingAndGlyphs"
text-anchor="start" opacity="0">4</text>
<path d="M73200 78240
L73200 78580
" />
<path d="M73070 78040
L72950 78410
L73270 78410
" />
</g>
<g style="fill:#840000; fill-opacity:0.0; 
stroke:#840000; stroke-width:100; stroke-opacity:1; 
stroke-linecap:round; stroke-linejoin:round;">
</g>
<g style="fill:#840000; fill-opacity:0.0; 
stroke:#840000; stroke-width:60; stroke-opacity:1; 
stroke-linecap:round; stroke-linejoin:round;">
<text x="92520" y="78600"
textLength="550" font-size="680" lengthAdjust="spacingAndGlyphs"
text-anchor="start" opacity="0">5</text>
<path d="M92910 78070
L92670 78070
L92640 78310
L92670 78280
L92720 78260
L92840 78260
L92890 78280
L92910 78310
L92930 78360
L92930 78480
L92910 78530
L92890 78550
L92840 78580
L92720 78580
L92670 78550
L92640 78530
" />
</g>
<g style="fill:#840000; fill-opacity:0.0; 
stroke:#840000; stroke-width:100; stroke-opacity:1; 
stroke-linecap:round; stroke-linejoin:round;">
</g>
<g style="fill:#840000; fill-opacity:0.0; 
stroke:#840000; stroke-width:60; stroke-opacity:1; 
stroke-linecap:round; stroke-linejoin:round;">
<text x="112200" y="78600"
textLength="550" font-size="680" lengthAdjust="spacingAndGlyphs"
text-anchor="start" opacity="0">6</text>
<path d="M112570 78070
L112470 78070
L112420 78090
L112400 78110
L112350 78190
L112320 78280
L112320 78480
L112350 78530
L112370 78550
L112420 78580
L112520 78580
L112570 78550
L112590 78530
L112610 78480
L112610 78360
L112590 78310
L112570 78280
L112520 78260
L112420 78260
L112370 78280
L112350 78310
L112320 78360
" />
</g>
<g style="fill:#840000; fill-opacity:0.0; 
stroke:#840000; stroke-width:100; stroke-opacity:1; 
stroke-linecap:round; stroke-linejoin:round;">
</g>
<g style="fill:#840000; fill-opacity:0.0; 
stroke:#840000; stroke-width:60; stroke-opacity:1; 
stroke-linecap:round; stroke-linejoin:round;">
<path d="M3940 23620
L4720 23620
" />
</g>
<g style="fill:#840000; fill-opacity:0.0; 
stroke:#840000; stroke-width:100; stroke-opacity:1; 
stroke-linecap:round; stroke-linejoin:round;">
</g>
<g style="fill:#840000; fill-opacity:0.0; 
stroke:#840000; stroke-width:60; stroke-opacity:1; 
stroke-linecap:round; stroke-linejoin:round;">
<path d="M3940 43310
L4720 43310
" />
</g>
<g style="fill:#840000; fill-opacity:0.0; 
stroke:#840000; stroke-width:100; stroke-opacity:1; 
stroke-linecap:round; stroke-linejoin:round;">
</g>
<g style="fill:#840000; fill-opacity:0.0; 
stroke:#840000; stroke-width:60; stroke-opacity:1; 
stroke-linecap:round; stroke-linejoin:round;">
<path d="M3940 62990
L4720 62990
" />
</g>
<g style="fill:#840000; fill-opacity:0.0; 
stroke:#840000; stroke-width:100; stroke-opacity:1; 
stroke-linecap:round; stroke-linejoin:round;">
</g>
<g style="fill:#840000; fill-opacity:0.0; 
stroke:#840000; stroke-width:60; stroke-opacity:1; 
stroke-linecap:round; stroke-linejoin:round;">
<text x="4330" y="14030"
textLength="500" font-size="680" lengthAdjust="spacingAndGlyphs"
text-anchor="middle" opacity="0">A</text>
<path d="M4200 13860
L4450 13860
" />
<path d="M4160 14010
L4330 13500
L4500 14010
" />
</g>
<g style="fill:#840000; fill-opacity:0.0; 
stroke:#840000; stroke-width:100; stroke-opacity:1; 
stroke-linecap:round; stroke-linejoin:round;">
</g>
<g style="fill:#840000; fill-opacity:0.0; 
stroke:#840000; stroke-width:60; stroke-opacity:1; 
stroke-linecap:round; stroke-linejoin:round;">
<text x="4330" y="33710"
textLength="570" font-size="680" lengthAdjust="spacingAndGlyphs"
text-anchor="middle" opacity="0">B</text>
<path d="M4360 33420
L4430 33440
L4460 33470
L4480 33520
L4480 33590
L4460 33640
L4430 33660
L4390 33690
L4190 33690
L4190 33180
L4360 33180
L4410 33200
L4430 33220
L4460 33270
L4460 33320
L4430 33370
L4410 33390
L4360 33420
L4190 33420
" />
</g>
<g style="fill:#840000; fill-opacity:0.0; 
stroke:#840000; stroke-width:100; stroke-opacity:1; 
stroke-linecap:round; stroke-linejoin:round;">
</g>
<g style="fill:#840000; fill-opacity:0.0; 
stroke:#840000; stroke-width:60; stroke-opacity:1; 
stroke-linecap:round; stroke-linejoin:round;">
<text x="4330" y="53400"
textLength="570" font-size="680" lengthAdjust="spacingAndGlyphs"
text-anchor="middle" opacity="0">C</text>
<path d="M4480 53330
L4460 53350
L4390 53380
L4340 53380
L4260 53350
L4220 53300
L4190 53250
L4170 53160
L4170 53080
L4190 52990
L4220 52940
L4260 52890
L4340 52870
L4390 52870
L4460 52890
L4480 52910
" />
</g>
<g style="fill:#840000; fill-opacity:0.0; 
stroke:#840000; stroke-width:100; stroke-opacity:1; 
stroke-linecap:round; stroke-linejoin:round;">
</g>
<g style="fill:#840000; fill-opacity:0.0; 
stroke:#840000; stroke-width:60; stroke-opacity:1; 
stroke-linecap:round; stroke-linejoin:round;">
<text x="4330" y="73080"
textLength="570" font-size="680" lengthAdjust="spacingAndGlyphs"
text-anchor="middle" opacity="0">D</text>
<path d="M4190 73060
L4190 72550
L4310 72550
L4390 72570
L4430 72620
L4460 72670
L4480 72760
L4480 72840
L4460 72930
L4430 72980
L4390 73030
L4310 73060
L4190 73060
" />
</g>
<g style="fill:#840000; fill-opacity:0.0; 
stroke:#840000; stroke-width:100; stroke-opacity:1; 
stroke-linecap:round; stroke-linejoin:round;">
</g>
<g style="fill:#840000; fill-opacity:0.0; 
stroke:#840000; stroke-width:60; stroke-opacity:1; 
stroke-linecap:round; stroke-linejoin:round;">
<path d="M112990 23620
L112210 23620
" />
</g>
<g style="fill:#840000; fill-opacity:0.0; 
stroke:#840000; stroke-width:100; stroke-opacity:1; 
stroke-linecap:round; stroke-linejoin:round;">
</g>
<g style="fill:#840000; fill-opacity:0.0; 
stroke:#840000; stroke-width:60; stroke-opacity:1; 
stroke-linecap:round; stroke-linejoin:round;">
<path d="M112990 43310
L112210 43310
" />
</g>
<g style="fill:#840000; fill-opacity:0.0; 
stroke:#840000; stroke-width:100; stroke-opacity:1; 
stroke-linecap:round; stroke-linejoin:round;">
</g>
<g style="fill:#840000; fill-opacity:0.0; 
stroke:#840000; stroke-width:60; stroke-opacity:1; 
stroke-linecap:round; stroke-linejoin:round;">
<path d="M112990 62990
L112210 62990
" />
</g>
<g style="fill:#840000; fill-opacity:0.0; 
stroke:#840000; stroke-width:100; stroke-opacity:1; 
stroke-linecap:round; stroke-linejoin:round;">
</g>
<g style="fill:#840000; fill-opacity:0.0; 
stroke:#840000; stroke-width:60; stroke-opacity:1; 
stroke-linecap:round; stroke-linejoin:round;">
<text x="112600" y="14030"
textLength="500" font-size="680" lengthAdjust="spacingAndGlyphs"
text-anchor="middle" opacity="0">A</text>
<path d="M112470 13860
L112720 13860
" />
<path d="M112430 14010
L112600 13500
L112770 14010
" />
</g>
<g style="fill:#840000; fill-opacity:0.0; 
stroke:#840000; stroke-width:100; stroke-opacity:1; 
stroke-linecap:round; stroke-linejoin:round;">
</g>
<g style="fill:#840000; fill-opacity:0.0; 
stroke:#840000; stroke-width:60; stroke-opacity:1; 
stroke-linecap:round; stroke-linejoin:round;">
<text x="112600" y="33710"
textLength="570" font-size="680" lengthAdjust="spacingAndGlyphs"
text-anchor="middle" opacity="0">B</text>
<path d="M112630 33420
L112700 33440
L112730 33470
L112750 33520
L112750 33590
L112730 33640
L112700 33660
L112660 33690
L112460 33690
L112460 33180
L112630 33180
L112680 33200
L112700 33220
L112730 33270
L112730 33320
L112700 33370
L112680 33390
L112630 33420
L112460 33420
" />
</g>
<g style="fill:#840000; fill-opacity:0.0; 
stroke:#840000; stroke-width:100; stroke-opacity:1; 
stroke-linecap:round; stroke-linejoin:round;">
</g>
<g style="fill:#840000; fill-opacity:0.0; 
stroke:#840000; stroke-width:60; stroke-opacity:1; 
stroke-linecap:round; stroke-linejoin:round;">
<text x="112600" y="53400"
textLength="570" font-size="680" lengthAdjust="spacingAndGlyphs"
text-anchor="middle" opacity="0">C</text>
<path d="M112750 53330
L112730 53350
L112660 53380
L112610 53380
L112530 53350
L112490 53300
L112460 53250
L112440 53160
L112440 53080
L112460 52990
L112490 52940
L112530 52890
L112610 52870
L112660 52870
L112730 52890
L112750 52910
" />
</g>
<g style="fill:#840000; fill-opacity:0.0; 
stroke:#840000; stroke-width:100; stroke-opacity:1; 
stroke-linecap:round; stroke-linejoin:round;">
</g>
<g style="fill:#840000; fill-opacity:0.0; 
stroke:#840000; stroke-width:60; stroke-opacity:1; 
stroke-linecap:round; stroke-linejoin:round;">
<text x="112600" y="73080"
textLength="570" font-size="680" lengthAdjust="spacingAndGlyphs"
text-anchor="middle" opacity="0">D</text>
<path d="M112460 73060
L112460 72550
L112580 72550
L112660 72570
L112700 72620
L112730 72670
L112750 72760
L112750 72840
L112730 72930
L112700 72980
L112660 73030
L112580 73060
L112460 73060
" />
</g>
<g style="fill:#840000; fill-opacity:0.0; 
stroke:#840000; stroke-width:100; stroke-opacity:1; 
stroke-linecap:round; stroke-linejoin:round;">
</g>
<g style="fill:#840000; fill-opacity:0.0; 
stroke:#840000; stroke-width:60; stroke-opacity:1; 
stroke-linecap:round; stroke-linejoin:round;">
<text x="78740" y="76320"
textLength="8710" font-size="780" lengthAdjust="spacingAndGlyphs"
text-anchor="start" opacity="0">Date: 2021-06-05</text>
<path d="M78910 76290
L78910 75700
L79050 75700
L79130 75730
L79190 75790
L79210 75840
L79240 75950
L79240 76040
L79210 76150
L79190 76210
L79130 76260
L79050 76290
L78910 76290
" />
<path d="M79750 76290
L79750 75980
L79720 75930
L79660 75900
L79550 75900
L79500 75930
" />
<path d="M79750 76260
L79690 76290
L79550 76290
L79500 76260
L79470 76210
L79470 76150
L79500 76100
L79550 76070
L79690 76070
L79750 76040
" />
<path d="M79950 75900
L80170 75900
" />
<path d="M80030 75700
L80030 76210
L80060 76260
L80110 76290
L80170 76290
" />
<path d="M80590 76260
L80540 76290
L80420 76290
L80370 76260
L80340 76210
L80340 75980
L80370 75930
L80420 75900
L80540 75900
L80590 75930
L80620 75980
L80620 76040
L80340 76100
" />
<path d="M80870 76240
L80900 76260
L80870 76290
L80840 76260
L80870 76240
L80870 76290
" />
<path d="M80870 75930
L80900 75950
L80870 75980
L80840 75950
L80870 75930
L80870 75980
" />
<path d="M81570 75760
L81600 75730
L81660 75700
L81800 75700
L81860 75730
L81880 75760
L81910 75810
L81910 75870
L81880 75950
L81550 76290
L81910 76290
" />
<path d="M82280 75700
L82330 75700
L82390 75730
L82420 75760
L82450 75810
L82470 75930
L82470 76070
L82450 76180
L82420 76240
L82390 76260
L82330 76290
L82280 76290
L82220 76260
L82190 76240
L82160 76180
L82140 76070
L82140 75930
L82160 75810
L82190 75760
L82220 75730
L82280 75700
" />
<path d="M82700 75760
L82730 75730
L82780 75700
L82920 75700
L82980 75730
L83010 75760
L83040 75810
L83040 75870
L83010 75950
L82670 76290
L83040 76290
" />
<path d="M83600 76290
L83260 76290
" />
<path d="M83430 76290
L83430 75700
L83370 75790
L83320 75840
L83260 75870
" />
<path d="M83850 76070
L84300 76070
" />
<path d="M84690 75700
L84750 75700
L84810 75730
L84830 75760
L84860 75810
L84890 75930
L84890 76070
L84860 76180
L84830 76240
L84810 76260
L84750 76290
L84690 76290
L84640 76260
L84610 76240
L84580 76180
L84550 76070
L84550 75930
L84580 75810
L84610 75760
L84640 75730
L84690 75700
" />
<path d="M85400 75700
L85280 75700
L85230 75730
L85200 75760
L85140 75840
L85110 75950
L85110 76180
L85140 76240
L85170 76260
L85230 76290
L85340 76290
L85400 76260
L85420 76240
L85450 76180
L85450 76040
L85420 75980
L85400 75950
L85340 75930
L85230 75930
L85170 75950
L85140 75980
L85110 76040
" />
<path d="M85700 76070
L86150 76070
" />
<path d="M86550 75700
L86600 75700
L86660 75730
L86690 75760
L86720 75810
L86740 75930
L86740 76070
L86720 76180
L86690 76240
L86660 76260
L86600 76290
L86550 76290
L86490 76260
L86460 76240
L86440 76180
L86410 76070
L86410 75930
L86440 75810
L86460 75760
L86490 75730
L86550 75700
" />
<path d="M87280 75700
L87000 75700
L86970 75980
L87000 75950
L87050 75930
L87190 75930
L87250 75950
L87280 75980
L87310 76040
L87310 76180
L87280 76240
L87250 76260
L87190 76290
L87050 76290
L87000 76260
L86970 76240
" />
</g>
<g style="fill:#840000; fill-opacity:0.0; 
stroke:#840000; stroke-width:100; stroke-opacity:1; 
stroke-linecap:round; stroke-linejoin:round;">
</g>
<g style="fill:#840000; fill-opacity:0.0; 
stroke:#840000; stroke-width:60; stroke-opacity:1; 
stroke-linecap:round; stroke-linejoin:round;">
<path d="M69690 76580
L112210 76580
" />
</g>
<g style="fill:#840000; fill-opacity:0.0; 
stroke:#840000; stroke-width:100; stroke-opacity:1; 
stroke-linecap:round; stroke-linejoin:round;">
</g>
<g style="fill:#840000; fill-opacity:0.0; 
stroke:#840000; stroke-width:60; stroke-opacity:1; 
stroke-linecap:round; stroke-linejoin:round;">
<text x="70080" y="77420"
textLength="16950" font-size="780" lengthAdjust="spacingAndGlyphs"
text-anchor="start" opacity="0">KiCad E.D.A.  kicad (5.1.8-0-10_14)</text>
<path d="M70250 77390
L70250 76800
" />
<path d="M70580 77390
L70330 77050
" />
<path d="M70580 76800
L70250 77140
" />
<path d="M70840 77390
L70840 77000
" />
<path d="M70840 76800
L70810 76830
L70840 76860
L70860 76830
L70840 76800
L70840 76860
" />
<path d="M71450 77340
L71430 77360
L71340 77390
L71290 77390
L71200 77360
L71140 77310
L71120 77250
L71090 77140
L71090 77050
L71120 76940
L71140 76890
L71200 76830
L71290 76800
L71340 76800
L71430 76830
L71450 76860
" />
<path d="M71960 77390
L71960 77080
L71930 77030
L71880 77000
L71760 77000
L71710 77030
" />
<path d="M71960 77360
L71900 77390
L71760 77390
L71710 77360
L71680 77310
L71680 77250
L71710 77200
L71760 77170
L71900 77170
L71960 77140
" />
<path d="M72490 77390
L72490 76800
" />
<path d="M72490 77360
L72440 77390
L72320 77390
L72270 77360
L72240 77340
L72210 77280
L72210 77110
L72240 77050
L72270 77030
L72320 77000
L72440 77000
L72490 77030
" />
<path d="M73220 77080
L73420 77080
" />
<path d="M73500 77390
L73220 77390
L73220 76800
L73500 76800
" />
<path d="M73760 77340
L73790 77360
L73760 77390
L73730 77360
L73760 77340
L73760 77390
" />
<path d="M74040 77390
L74040 76800
L74180 76800
L74260 76830
L74320 76890
L74350 76940
L74380 77050
L74380 77140
L74350 77250
L74320 77310
L74260 77360
L74180 77390
L74040 77390
" />
<path d="M74630 77340
L74660 77360
L74630 77390
L74600 77360
L74630 77340
L74630 77390
" />
<path d="M74880 77220
L75160 77220
" />
<path d="M74830 77390
L75020 76800
L75220 77390
" />
<path d="M75420 77340
L75440 77360
L75420 77390
L75390 77360
L75420 77340
L75420 77390
" />
<path d="M76600 77390
L76600 76800
" />
<path d="M76650 77170
L76820 77390
" />
<path d="M76820 77000
L76600 77220
" />
<path d="M77070 77390
L77070 77000
" />
<path d="M77070 76800
L77040 76830
L77070 76860
L77100 76830
L77070 76800
L77070 76860
" />
<path d="M77610 77360
L77550 77390
L77440 77390
L77380 77360
L77350 77340
L77330 77280
L77330 77110
L77350 77050
L77380 77030
L77440 77000
L77550 77000
L77610 77030
" />
<path d="M78110 77390
L78110 77080
L78080 77030
L78030 77000
L77920 77000
L77860 77030
" />
<path d="M78110 77360
L78060 77390
L77920 77390
L77860 77360
L77830 77310
L77830 77250
L77860 77200
L77920 77170
L78060 77170
L78110 77140
" />
<path d="M78650 77390
L78650 76800
" />
<path d="M78650 77360
L78590 77390
L78480 77390
L78420 77360
L78390 77340
L78370 77280
L78370 77110
L78390 77050
L78420 77030
L78480 77000
L78590 77000
L78650 77030
" />
<path d="M79550 77620
L79520 77590
L79460 77500
L79430 77450
L79400 77360
L79380 77220
L79380 77110
L79400 76970
L79430 76890
L79460 76830
L79520 76750
L79550 76720
" />
<path d="M80050 76800
L79770 76800
L79740 77080
L79770 77050
L79830 77030
L79970 77030
L80020 77050
L80050 77080
L80080 77140
L80080 77280
L80050 77340
L80020 77360
L79970 77390
L79830 77390
L79770 77360
L79740 77340
" />
<path d="M80330 77340
L80360 77360
L80330 77390
L80300 77360
L80330 77340
L80330 77390
" />
<path d="M80920 77390
L80580 77390
" />
<path d="M80750 77390
L80750 76800
L80700 76890
L80640 76940
L80580 76970
" />
<path d="M81170 77340
L81200 77360
L81170 77390
L81150 77360
L81170 77340
L81170 77390
" />
<path d="M81540 77050
L81480 77030
L81460 77000
L81430 76940
L81430 76910
L81460 76860
L81480 76830
L81540 76800
L81650 76800
L81710 76830
L81740 76860
L81760 76910
L81760 76940
L81740 77000
L81710 77030
L81650 77050
L81540 77050
L81480 77080
L81460 77110
L81430 77170
L81430 77280
L81460 77340
L81480 77360
L81540 77390
L81650 77390
L81710 77360
L81740 77340
L81760 77280
L81760 77170
L81740 77110
L81710 77080
L81650 77050
" />
<path d="M82020 77170
L82470 77170
" />
<path d="M82860 76800
L82920 76800
L82970 76830
L83000 76860
L83030 76910
L83060 77030
L83060 77170
L83030 77280
L83000 77340
L82970 77360
L82920 77390
L82860 77390
L82800 77360
L82780 77340
L82750 77280
L82720 77170
L82720 77030
L82750 76910
L82780 76860
L82800 76830
L82860 76800
" />
<path d="M83310 77170
L83760 77170
" />
<path d="M84350 77390
L84010 77390
" />
<path d="M84180 77390
L84180 76800
L84120 76890
L84070 76940
L84010 76970
" />
<path d="M84710 76800
L84770 76800
L84830 76830
L84860 76860
L84880 76910
L84910 77030
L84910 77170
L84880 77280
L84860 77340
L84830 77360
L84770 77390
L84710 77390
L84660 77360
L84630 77340
L84600 77280
L84570 77170
L84570 77030
L84600 76910
L84630 76860
L84660 76830
L84710 76800
" />
<path d="M85020 77450
L85470 77450
" />
<path d="M85920 77390
L85590 77390
" />
<path d="M85750 77390
L85750 76800
L85700 76890
L85640 76940
L85590 76970
" />
<path d="M86430 77000
L86430 77390
" />
<path d="M86290 76770
L86150 77200
L86510 77200
" />
<path d="M86680 77620
L86710 77590
L86770 77500
L86790 77450
L86820 77360
L86850 77220
L86850 77110
L86820 76970
L86790 76890
L86770 76830
L86710 76750
L86680 76720
" />
</g>
<g style="fill:#840000; fill-opacity:0.0; 
stroke:#840000; stroke-width:100; stroke-opacity:1; 
stroke-linecap:round; stroke-linejoin:round;">
</g>
<g style="fill:#840000; fill-opacity:0.0; 
stroke:#840000; stroke-width:60; stroke-opacity:1; 
stroke-linecap:round; stroke-linejoin:round;">
<path d="M69690 75400
L112210 75400
" />
</g>
<g style="fill:#840000; fill-opacity:0.0; 
stroke:#840000; stroke-width:100; stroke-opacity:1; 
stroke-linecap:round; stroke-linejoin:round;">
</g>
<g style="fill:#840000; fill-opacity:0.0; 
stroke:#840000; stroke-width:120; stroke-opacity:1; 
stroke-linecap:round; stroke-linejoin:round;">
<text x="103540" y="76320"
textLength="2840" font-size="780" lengthAdjust="spacingAndGlyphs"
text-anchor="start" opacity="0">Rev: A</text>
<path d="M104090 76290
L103890 76010
" />
<path d="M103750 76290
L103750 75700
L103980 75700
L104030 75730
L104060 75760
L104090 75810
L104090 75900
L104060 75950
L104030 75980
L103980 76010
L103750 76010
" />
<path d="M104570 76260
L104510 76290
L104400 76290
L104340 76260
L104320 76210
L104320 75980
L104340 75930
L104400 75900
L104510 75900
L104570 75930
L104600 75980
L104600 76040
L104320 76100
" />
<path d="M104790 75900
L104930 76290
L105070 75900
" />
<path d="M105300 76240
L105330 76260
L105300 76290
L105270 76260
L105300 76240
L105300 76290
" />
<path d="M105300 75930
L105330 75950
L105300 75980
L105270 75950
L105300 75930
L105300 75980
" />
<path d="M106000 76120
L106280 76120
" />
<path d="M105940 76290
L106140 75700
L106340 76290
" />
</g>
<g style="fill:#840000; fill-opacity:0.0; 
stroke:#840000; stroke-width:100; stroke-opacity:1; 
stroke-linecap:round; stroke-linejoin:round;">
</g>
<g style="fill:#840000; fill-opacity:0.0; 
stroke:#840000; stroke-width:60; stroke-opacity:1; 
stroke-linecap:round; stroke-linejoin:round;">
<text x="70080" y="76320"
textLength="3780" font-size="780" lengthAdjust="spacingAndGlyphs"
text-anchor="start" opacity="0">Size: A4</text>
<path d="M70220 76260
L70300 76290
L70440 76290
L70500 76260
L70530 76240
L70550 76180
L70550 76120
L70530 76070
L70500 76040
L70440 76010
L70330 75980
L70270 75950
L70250 75930
L70220 75870
L70220 75810
L70250 75760
L70270 75730
L70330 75700
L70470 75700
L70550 75730
" />
<path d="M70810 76290
L70810 75900
" />
<path d="M70810 75700
L70780 75730
L70810 75760
L70840 75730
L70810 75700
L70810 75760
" />
<path d="M71030 75900
L71340 75900
L71030 76290
L71340 76290
" />
<path d="M71790 76260
L71730 76290
L71620 76290
L71570 76260
L71540 76210
L71540 75980
L71570 75930
L71620 75900
L71730 75900
L71790 75930
L71820 75980
L71820 76040
L71540 76100
" />
<path d="M72070 76240
L72100 76260
L72070 76290
L72040 76260
L72070 76240
L72070 76290
" />
<path d="M72070 75930
L72100 75950
L72070 75980
L72040 75950
L72070 75930
L72070 75980
" />
<path d="M72770 76120
L73060 76120
" />
<path d="M72720 76290
L72910 75700
L73110 76290
" />
<path d="M73560 75900
L73560 76290
" />
<path d="M73420 75670
L73280 76100
L73650 76100
" />
</g>
<g style="fill:#840000; fill-opacity:0.0; 
stroke:#840000; stroke-width:100; stroke-opacity:1; 
stroke-linecap:round; stroke-linejoin:round;">
</g>
<g style="fill:#840000; fill-opacity:0.0; 
stroke:#840000; stroke-width:60; stroke-opacity:1; 
stroke-linecap:round; stroke-linejoin:round;">
<text x="103540" y="77420"
textLength="4470" font-size="780" lengthAdjust="spacingAndGlyphs"
text-anchor="start" opacity="0">Id: 10/46</text>
<path d="M103710 77390
L103710 76800
" />
<path d="M104240 77390
L104240 76800
" />
<path d="M104240 77360
L104180 77390
L104070 77390
L104010 77360
L103990 77340
L103960 77280
L103960 77110
L103990 77050
L104010 77030
L104070 77000
L104180 77000
L104240 77030
" />
<path d="M104520 77340
L104550 77360
L104520 77390
L104490 77360
L104520 77340
L104520 77390
" />
<path d="M104520 77030
L104550 77050
L104520 77080
L104490 77050
L104520 77030
L104520 77080
" />
<path d="M105560 77390
L105220 77390
" />
<path d="M105390 77390
L105390 76800
L105340 76890
L105280 76940
L105220 76970
" />
<path d="M105930 76800
L105980 76800
L106040 76830
L106070 76860
L106090 76910
L106120 77030
L106120 77170
L106090 77280
L106070 77340
L106040 77360
L105980 77390
L105930 77390
L105870 77360
L105840 77340
L105810 77280
L105780 77170
L105780 77030
L105810 76910
L105840 76860
L105870 76830
L105930 76800
" />
<path d="M106800 76770
L106290 77530
" />
<path d="M107250 77000
L107250 77390
" />
<path d="M107110 76770
L106960 77200
L107330 77200
" />
<path d="M107810 76800
L107700 76800
L107640 76830
L107610 76860
L107550 76940
L107530 77050
L107530 77280
L107550 77340
L107580 77360
L107640 77390
L107750 77390
L107810 77360
L107840 77340
L107860 77280
L107860 77140
L107840 77080
L107810 77050
L107750 77030
L107640 77030
L107580 77050
L107550 77080
L107530 77140
" />
</g>
<g style="fill:#840000; fill-opacity:0.0; 
stroke:#840000; stroke-width:100; stroke-opacity:1; 
stroke-linecap:round; stroke-linejoin:round;">
</g>
<g style="fill:#840000; fill-opacity:0.0; 
stroke:#840000; stroke-width:60; stroke-opacity:1; 
stroke-linecap:round; stroke-linejoin:round;">
<path d="M69690 73820
L112210 73820
" />
</g>
<g style="fill:#840000; fill-opacity:0.0; 
stroke:#840000; stroke-width:100; stroke-opacity:1; 
stroke-linecap:round; stroke-linejoin:round;">
</g>
<g style="fill:#840000; fill-opacity:0.0; 
stroke:#840000; stroke-width:160; stroke-opacity:1; 
stroke-linecap:round; stroke-linejoin:round;">
<text x="70080" y="74920"
textLength="19890" font-size="1050" lengthAdjust="spacingAndGlyphs"
text-anchor="start" opacity="0">Title: PSU - LDO 3.3V @ 100mA</text>
<path d="M70360 74090
L70810 74090
" />
<path d="M70480 74880
L70580 74090
" />
<path d="M70970 74880
L71040 74360
" />
<path d="M71070 74090
L71030 74130
L71060 74170
L71110 74130
L71070 74090
L71060 74170
" />
<path d="M71300 74360
L71600 74360
" />
<path d="M71450 74090
L71360 74770
L71390 74840
L71460 74880
L71540 74880
" />
<path d="M71910 74880
L71840 74840
L71820 74770
L71900 74090
" />
<path d="M72520 74840
L72440 74880
L72290 74880
L72220 74840
L72190 74770
L72230 74470
L72280 74390
L72360 74360
L72510 74360
L72580 74390
L72610 74470
L72600 74540
L72210 74620
" />
<path d="M72900 74810
L72930 74840
L72890 74880
L72860 74840
L72900 74810
L72890 74880
" />
<path d="M72950 74390
L72990 74430
L72940 74470
L72910 74430
L72950 74390
L72940 74470
" />
<path d="M73870 74880
L73970 74090
L74270 74090
L74340 74130
L74370 74170
L74400 74240
L74390 74360
L74340 74430
L74300 74470
L74220 74510
L73920 74510
" />
<path d="M74630 74840
L74740 74880
L74920 74880
L75000 74840
L75050 74810
L75090 74730
L75100 74660
L75070 74580
L75040 74540
L74970 74510
L74820 74470
L74750 74430
L74720 74390
L74690 74320
L74700 74240
L74750 74170
L74790 74130
L74870 74090
L75060 74090
L75170 74130
" />
<path d="M75510 74090
L75430 74730
L75460 74810
L75490 74840
L75560 74880
L75710 74880
L75790 74840
L75840 74810
L75880 74730
L75960 74090
" />
<path d="M76880 74580
L77480 74580
" />
<path d="M78800 74880
L78420 74880
L78520 74090
" />
<path d="M79060 74880
L79160 74090
L79350 74090
L79460 74130
L79520 74210
L79550 74280
L79570 74430
L79560 74540
L79500 74690
L79450 74770
L79370 74840
L79250 74880
L79060 74880
" />
<path d="M80100 74090
L80250 74090
L80320 74130
L80390 74210
L80410 74360
L80370 74620
L80320 74770
L80230 74840
L80150 74880
L80000 74880
L79930 74840
L79870 74770
L79850 74620
L79880 74360
L79940 74210
L80020 74130
L80100 74090
" />
<path d="M81300 74090
L81790 74090
L81490 74390
L81610 74390
L81680 74430
L81710 74470
L81740 74540
L81710 74730
L81670 74810
L81620 74840
L81540 74880
L81320 74880
L81250 74840
L81220 74810
" />
<path d="M82040 74810
L82080 74840
L82030 74880
L82000 74840
L82040 74810
L82030 74880
" />
<path d="M82430 74090
L82920 74090
L82620 74390
L82730 74390
L82800 74430
L82840 74470
L82870 74540
L82840 74730
L82800 74810
L82750 74840
L82670 74880
L82450 74880
L82380 74840
L82340 74810
" />
<path d="M83150 74090
L83310 74880
L83670 74090
" />
<path d="M84980 74510
L84940 74470
L84870 74430
L84800 74430
L84720 74470
L84680 74510
L84630 74580
L84620 74660
L84650 74730
L84680 74770
L84750 74810
L84830 74810
L84910 74770
L84950 74730
" />
<path d="M84990 74430
L84950 74730
L84980 74770
L85020 74770
L85100 74730
L85150 74660
L85170 74470
L85110 74360
L85010 74280
L84860 74240
L84700 74280
L84580 74360
L84490 74470
L84440 74620
L84460 74770
L84520 74880
L84620 74960
L84770 75000
L84920 74960
L85040 74880
" />
<path d="M86470 74880
L86020 74880
" />
<path d="M86250 74880
L86350 74090
L86260 74210
L86170 74280
L86090 74320
" />
<path d="M87060 74090
L87140 74090
L87210 74130
L87240 74170
L87270 74240
L87290 74390
L87260 74580
L87210 74730
L87160 74810
L87120 74840
L87040 74880
L86960 74880
L86890 74840
L86860 74810
L86830 74730
L86810 74580
L86830 74390
L86890 74240
L86940 74170
L86980 74130
L87060 74090
" />
<path d="M87810 74090
L87890 74090
L87960 74130
L87990 74170
L88020 74240
L88040 74390
L88020 74580
L87960 74730
L87910 74810
L87870 74840
L87790 74880
L87710 74880
L87640 74840
L87610 74810
L87580 74730
L87560 74580
L87590 74390
L87640 74240
L87690 74170
L87730 74130
L87810 74090
" />
<path d="M88320 74880
L88380 74360
" />
<path d="M88370 74430
L88410 74390
L88490 74360
L88610 74360
L88680 74390
L88710 74470
L88650 74880
" />
<path d="M88710 74470
L88750 74390
L88830 74360
L88950 74360
L89020 74390
L89040 74470
L88990 74880
" />
<path d="M89360 74660
L89740 74660
" />
<path d="M89260 74880
L89620 74090
L89780 74880
" />
</g>
<g style="fill:#840000; fill-opacity:0.0; 
stroke:#840000; stroke-width:100; stroke-opacity:1; 
stroke-linecap:round; stroke-linejoin:round;">
</g>
<g style="fill:#840000; fill-opacity:0.0; 
stroke:#840000; stroke-width:60; stroke-opacity:1; 
stroke-linecap:round; stroke-linejoin:round;">
<text x="70080" y="73400"
textLength="10940" font-size="780" lengthAdjust="spacingAndGlyphs"
text-anchor="start" opacity="0">File: SE8233X2_LDO.sch</text>
<path d="M70440 73060
L70250 73060
" />
<path d="M70250 73370
L70250 72780
L70530 72780
" />
<path d="M70750 73370
L70750 72980
" />
<path d="M70750 72780
L70720 72810
L70750 72840
L70780 72810
L70750 72780
L70750 72840
" />
<path d="M71120 73370
L71060 73340
L71030 73290
L71030 72780
" />
<path d="M71570 73340
L71510 73370
L71400 73370
L71340 73340
L71310 73290
L71310 73060
L71340 73010
L71400 72980
L71510 72980
L71570 73010
L71590 73060
L71590 73120
L71310 73180
" />
<path d="M71850 73320
L71880 73340
L71850 73370
L71820 73340
L71850 73320
L71850 73370
" />
<path d="M71850 73010
L71880 73030
L71850 73060
L71820 73030
L71850 73010
L71850 73060
" />
<path d="M72550 73340
L72630 73370
L72770 73370
L72830 73340
L72860 73320
L72890 73260
L72890 73200
L72860 73150
L72830 73120
L72770 73090
L72660 73060
L72610 73030
L72580 73010
L72550 72950
L72550 72890
L72580 72840
L72610 72810
L72660 72780
L72800 72780
L72890 72810
" />
<path d="M73140 73060
L73340 73060
" />
<path d="M73420 73370
L73140 73370
L73140 72780
L73420 72780
" />
<path d="M73760 73030
L73700 73010
L73670 72980
L73650 72920
L73650 72890
L73670 72840
L73700 72810
L73760 72780
L73870 72780
L73930 72810
L73950 72840
L73980 72890
L73980 72920
L73950 72980
L73930 73010
L73870 73030
L73760 73030
L73700 73060
L73670 73090
L73650 73150
L73650 73260
L73670 73320
L73700 73340
L73760 73370
L73870 73370
L73930 73340
L73950 73320
L73980 73260
L73980 73150
L73950 73090
L73930 73060
L73870 73030
" />
<path d="M74210 72840
L74240 72810
L74290 72780
L74430 72780
L74490 72810
L74520 72840
L74540 72890
L74540 72950
L74520 73030
L74180 73370
L74540 73370
" />
<path d="M74740 72780
L75110 72780
L74910 73010
L74990 73010
L75050 73030
L75080 73060
L75110 73120
L75110 73260
L75080 73320
L75050 73340
L74990 73370
L74830 73370
L74770 73340
L74740 73320
" />
<path d="M75300 72780
L75670 72780
L75470 73010
L75560 73010
L75610 73030
L75640 73060
L75670 73120
L75670 73260
L75640 73320
L75610 73340
L75560 73370
L75390 73370
L75330 73340
L75300 73320
" />
<path d="M75860 72780
L76260 73370
" />
<path d="M76260 72780
L75860 73370
" />
<path d="M76450 72840
L76480 72810
L76540 72780
L76680 72780
L76740 72810
L76760 72840
L76790 72890
L76790 72950
L76760 73030
L76430 73370
L76790 73370
" />
<path d="M76900 73430
L77350 73430
" />
<path d="M77780 73370
L77490 73370
L77490 72780
" />
<path d="M77970 73370
L77970 72780
L78110 72780
L78200 72810
L78250 72870
L78280 72920
L78310 73030
L78310 73120
L78280 73230
L78250 73290
L78200 73340
L78110 73370
L77970 73370
" />
<path d="M78670 72780
L78790 72780
L78840 72810
L78900 72870
L78930 72980
L78930 73180
L78900 73290
L78840 73340
L78790 73370
L78670 73370
L78620 73340
L78560 73290
L78530 73180
L78530 72980
L78560 72870
L78620 72810
L78670 72780
" />
<path d="M79180 73320
L79210 73340
L79180 73370
L79150 73340
L79180 73320
L79180 73370
" />
<path d="M79430 73340
L79490 73370
L79600 73370
L79660 73340
L79690 73290
L79690 73260
L79660 73200
L79600 73180
L79520 73180
L79460 73150
L79430 73090
L79430 73060
L79460 73010
L79520 72980
L79600 72980
L79660 73010
" />
<path d="M80190 73340
L80140 73370
L80020 73370
L79970 73340
L79940 73320
L79910 73260
L79910 73090
L79940 73030
L79970 73010
L80020 72980
L80140 72980
L80190 73010
" />
<path d="M80440 73370
L80440 72780
" />
<path d="M80700 73370
L80700 73060
L80670 73010
L80610 72980
L80530 72980
L80470 73010
L80440 73030
" />
</g>
<g style="fill:#840000; fill-opacity:0.0; 
stroke:#840000; stroke-width:100; stroke-opacity:1; 
stroke-linecap:round; stroke-linejoin:round;">
</g>
<g style="fill:#840000; fill-opacity:0.0; 
stroke:#840000; stroke-width:60; stroke-opacity:1; 
stroke-linecap:round; stroke-linejoin:round;">
<path d="M69690 71460
L112210 71460
" />
</g>
<g style="fill:#840000; fill-opacity:0.0; 
stroke:#840000; stroke-width:100; stroke-opacity:1; 
stroke-linecap:round; stroke-linejoin:round;">
</g>
<g style="fill:#840000; fill-opacity:0.0; 
stroke:#840000; stroke-width:60; stroke-opacity:1; 
stroke-linecap:round; stroke-linejoin:round;">
<text x="70080" y="72340"
textLength="13460" font-size="780" lengthAdjust="spacingAndGlyphs"
text-anchor="start" opacity="0">Sheet: /PSU/SE8233X2_LDO/</text>
<path d="M70220 72280
L70300 72310
L70440 72310
L70500 72280
L70530 72260
L70550 72200
L70550 72140
L70530 72090
L70500 72060
L70440 72030
L70330 72000
L70270 71970
L70250 71950
L70220 71890
L70220 71830
L70250 71780
L70270 71750
L70330 71720
L70470 71720
L70550 71750
" />
<path d="M70810 72310
L70810 71720
" />
<path d="M71060 72310
L71060 72000
L71030 71950
L70980 71920
L70890 71920
L70840 71950
L70810 71970
" />
<path d="M71570 72280
L71510 72310
L71400 72310
L71340 72280
L71310 72230
L71310 72000
L71340 71950
L71400 71920
L71510 71920
L71570 71950
L71590 72000
L71590 72060
L71310 72120
" />
<path d="M72070 72280
L72020 72310
L71900 72310
L71850 72280
L71820 72230
L71820 72000
L71850 71950
L71900 71920
L72020 71920
L72070 71950
L72100 72000
L72100 72060
L71820 72120
" />
<path d="M72270 71920
L72490 71920
" />
<path d="M72350 71720
L72350 72230
L72380 72280
L72440 72310
L72490 72310
" />
<path d="M72690 72260
L72720 72280
L72690 72310
L72660 72280
L72690 72260
L72690 72310
" />
<path d="M72690 71950
L72720 71970
L72690 72000
L72660 71970
L72690 71950
L72690 72000
" />
<path d="M73840 71690
L73340 72450
" />
<path d="M74040 72310
L74040 71720
L74260 71720
L74320 71750
L74350 71780
L74380 71830
L74380 71920
L74350 71970
L74320 72000
L74260 72030
L74040 72030
" />
<path d="M74600 72280
L74680 72310
L74830 72310
L74880 72280
L74910 72260
L74940 72200
L74940 72140
L74910 72090
L74880 72060
L74830 72030
L74710 72000
L74660 71970
L74630 71950
L74600 71890
L74600 71830
L74630 71780
L74660 71750
L74710 71720
L74850 71720
L74940 71750
" />
<path d="M75190 71720
L75190 72200
L75220 72260
L75250 72280
L75300 72310
L75420 72310
L75470 72280
L75500 72260
L75530 72200
L75530 71720
" />
<path d="M76230 71690
L75720 72450
" />
<path d="M76400 72280
L76480 72310
L76620 72310
L76680 72280
L76710 72260
L76740 72200
L76740 72140
L76710 72090
L76680 72060
L76620 72030
L76510 72000
L76450 71970
L76430 71950
L76400 71890
L76400 71830
L76430 71780
L76450 71750
L76510 71720
L76650 71720
L76740 71750
" />
<path d="M76990 72000
L77190 72000
" />
<path d="M77270 72310
L76990 72310
L76990 71720
L77270 71720
" />
<path d="M77610 71970
L77550 71950
L77520 71920
L77490 71860
L77490 71830
L77520 71780
L77550 71750
L77610 71720
L77720 71720
L77780 71750
L77800 71780
L77830 71830
L77830 71860
L77800 71920
L77780 71950
L77720 71970
L77610 71970
L77550 72000
L77520 72030
L77490 72090
L77490 72200
L77520 72260
L77550 72280
L77610 72310
L77720 72310
L77780 72280
L77800 72260
L77830 72200
L77830 72090
L77800 72030
L77780 72000
L77720 71970
" />
<path d="M78060 71780
L78080 71750
L78140 71720
L78280 71720
L78340 71750
L78370 71780
L78390 71830
L78390 71890
L78370 71970
L78030 72310
L78390 72310
" />
<path d="M78590 71720
L78960 71720
L78760 71950
L78840 71950
L78900 71970
L78930 72000
L78960 72060
L78960 72200
L78930 72260
L78900 72280
L78840 72310
L78670 72310
L78620 72280
L78590 72260
" />
<path d="M79150 71720
L79520 71720
L79320 71950
L79400 71950
L79460 71970
L79490 72000
L79520 72060
L79520 72200
L79490 72260
L79460 72280
L79400 72310
L79240 72310
L79180 72280
L79150 72260
" />
<path d="M79710 71720
L80110 72310
" />
<path d="M80110 71720
L79710 72310
" />
<path d="M80300 71780
L80330 71750
L80390 71720
L80530 71720
L80580 71750
L80610 71780
L80640 71830
L80640 71890
L80610 71970
L80280 72310
L80640 72310
" />
<path d="M80750 72370
L81200 72370
" />
<path d="M81620 72310
L81340 72310
L81340 71720
" />
<path d="M81820 72310
L81820 71720
L81960 71720
L82050 71750
L82100 71810
L82130 71860
L82160 71970
L82160 72060
L82130 72170
L82100 72230
L82050 72280
L81960 72310
L81820 72310
" />
<path d="M82520 71720
L82640 71720
L82690 71750
L82750 71810
L82780 71920
L82780 72120
L82750 72230
L82690 72280
L82640 72310
L82520 72310
L82470 72280
L82410 72230
L82380 72120
L82380 71920
L82410 71810
L82470 71750
L82520 71720
" />
<path d="M83450 71690
L82940 72450
" />
</g>
<g style="fill:#840000; fill-opacity:0.0; 
stroke:#840000; stroke-width:100; stroke-opacity:1; 
stroke-linecap:round; stroke-linejoin:round;">
</g>
<g style="fill:#840000; fill-opacity:0.0; 
stroke:#840000; stroke-width:120; stroke-opacity:1; 
stroke-linecap:round; stroke-linejoin:round;">
<text x="70080" y="71160"
textLength="9190" font-size="780" lengthAdjust="spacingAndGlyphs"
text-anchor="start" opacity="0">Created by C Sutton</text>
<path d="M70630 71080
L70600 71100
L70520 71130
L70460 71130
L70380 71100
L70320 71050
L70290 70990
L70270 70880
L70270 70790
L70290 70680
L70320 70630
L70380 70570
L70460 70540
L70520 70540
L70600 70570
L70630 70600
" />
<path d="M70880 71130
L70880 70740
" />
<path d="M70880 70850
L70910 70790
L70940 70770
L71000 70740
L71050 70740
" />
<path d="M71470 71100
L71420 71130
L71300 71130
L71250 71100
L71220 71050
L71220 70820
L71250 70770
L71300 70740
L71420 70740
L71470 70770
L71500 70820
L71500 70880
L71220 70940
" />
<path d="M72010 71130
L72010 70820
L71980 70770
L71920 70740
L71810 70740
L71750 70770
" />
<path d="M72010 71100
L71950 71130
L71810 71130
L71750 71100
L71730 71050
L71730 70990
L71750 70940
L71810 70910
L71950 70910
L72010 70880
" />
<path d="M72200 70740
L72430 70740
" />
<path d="M72290 70540
L72290 71050
L72320 71100
L72370 71130
L72430 71130
" />
<path d="M72850 71100
L72790 71130
L72680 71130
L72630 71100
L72600 71050
L72600 70820
L72630 70770
L72680 70740
L72790 70740
L72850 70770
L72880 70820
L72880 70880
L72600 70940
" />
<path d="M73380 71130
L73380 70540
" />
<path d="M73380 71100
L73330 71130
L73220 71130
L73160 71100
L73130 71080
L73100 71020
L73100 70850
L73130 70790
L73160 70770
L73220 70740
L73330 70740
L73380 70770
" />
<path d="M74110 71130
L74110 70540
" />
<path d="M74110 70770
L74170 70740
L74280 70740
L74340 70770
L74370 70790
L74400 70850
L74400 71020
L74370 71080
L74340 71100
L74280 71130
L74170 71130
L74110 71100
" />
<path d="M74590 70740
L74730 71130
" />
<path d="M74870 70740
L74730 71130
L74680 71270
L74650 71300
L74590 71330
" />
<path d="M75880 71080
L75860 71100
L75770 71130
L75720 71130
L75630 71100
L75580 71050
L75550 70990
L75520 70880
L75520 70790
L75550 70680
L75580 70630
L75630 70570
L75720 70540
L75770 70540
L75860 70570
L75880 70600
" />
<path d="M76560 71100
L76640 71130
L76780 71130
L76840 71100
L76870 71080
L76900 71020
L76900 70960
L76870 70910
L76840 70880
L76780 70850
L76670 70820
L76610 70790
L76590 70770
L76560 70710
L76560 70650
L76590 70600
L76610 70570
L76670 70540
L76810 70540
L76900 70570
" />
<path d="M77400 70740
L77400 71130
" />
<path d="M77150 70740
L77150 71050
L77180 71100
L77230 71130
L77320 71130
L77370 71100
L77400 71080
" />
<path d="M77600 70740
L77820 70740
" />
<path d="M77680 70540
L77680 71050
L77710 71100
L77770 71130
L77820 71130
" />
<path d="M77940 70740
L78160 70740
" />
<path d="M78020 70540
L78020 71050
L78050 71100
L78100 71130
L78160 71130
" />
<path d="M78440 71130
L78380 71100
L78360 71080
L78330 71020
L78330 70850
L78360 70790
L78380 70770
L78440 70740
L78530 70740
L78580 70770
L78610 70790
L78640 70850
L78640 71020
L78610 71080
L78580 71100
L78530 71130
L78440 71130
" />
<path d="M78890 70740
L78890 71130
" />
<path d="M78890 70790
L78920 70770
L78970 70740
L79060 70740
L79120 70770
L79140 70820
L79140 71130
" />
</g>
<g style="fill:#840000; fill-opacity:0.0; 
stroke:#840000; stroke-width:100; stroke-opacity:1; 
stroke-linecap:round; stroke-linejoin:round;">
</g>
<g style="fill:#840000; fill-opacity:0.0; 
stroke:#840000; stroke-width:60; stroke-opacity:1; 
stroke-linecap:round; stroke-linejoin:round;">
<path d="M77560 75400
L77560 76580
" />
</g>
<g style="fill:#840000; fill-opacity:0.0; 
stroke:#840000; stroke-width:100; stroke-opacity:1; 
stroke-linecap:round; stroke-linejoin:round;">
</g>
<g style="fill:#840000; fill-opacity:0.0; 
stroke:#840000; stroke-width:60; stroke-opacity:1; 
stroke-linecap:round; stroke-linejoin:round;">
<path d="M102760 75400
L102760 77960
" />
</g>
<g style="fill:#840000; fill-opacity:0.0; 
stroke:#840000; stroke-width:0; stroke-opacity:1; 
stroke-linecap:round; stroke-linejoin:round;">
<g >
</g>
<g style="fill:#FFFFC2; fill-opacity:0.0; 
stroke:#FFFFC2; stroke-width:0; stroke-opacity:1; 
stroke-linecap:round; stroke-linejoin:round;">
</g>
<g style="fill:#FFFFC2; fill-opacity:0.6; 
stroke:#FFFFC2; stroke-width:0; stroke-opacity:1; 
stroke-linecap:round; stroke-linejoin:round;">
<rect x="49500" y="33500" width="4000" height="2750" rx="0" />
</g>
<g style="fill:#840000; fill-opacity:0.6; 
stroke:#840000; stroke-width:0; stroke-opacity:1; 
stroke-linecap:round; stroke-linejoin:round;">
</g>
<g style="fill:#840000; fill-opacity:0.0; 
stroke:#840000; stroke-width:100; stroke-opacity:1; 
stroke-linecap:round; stroke-linejoin:round;">
<rect x="49500" y="33500" width="4000" height="2750" rx="0" />
<rect x="49500" y="33500" width="4000" height="2750" rx="0" />
</g>
<g style="fill:#840000; fill-opacity:0.0; 
stroke:#840000; stroke-width:60; stroke-opacity:1; 
stroke-linecap:round; stroke-linejoin:round;">
<path d="M51500 36250
L51500 37250
" />
</g>
<g style="fill:#008484; fill-opacity:0.0; 
stroke:#008484; stroke-width:60; stroke-opacity:1; 
stroke-linecap:round; stroke-linejoin:round;">
<g transform="rotate(-90 51500 36150)">
<text x="51500" y="36400"
textLength="1680" font-size="660" lengthAdjust="spacingAndGlyphs"
text-anchor="start" opacity="0">GND</text>
</g>
<path d="M51250 35730
L51220 35780
L51220 35850
L51250 35920
L51290 35970
L51340 36000
L51440 36020
L51510 36020
L51600 36000
L51650 35970
L51700 35920
L51720 35850
L51720 35810
L51700 35730
L51670 35710
L51510 35710
L51510 35810
" />
<path d="M51720 35500
L51220 35500
L51720 35210
L51220 35210
" />
<path d="M51720 34970
L51220 34970
L51220 34850
L51250 34780
L51290 34730
L51340 34710
L51440 34690
L51510 34690
L51600 34710
L51650 34730
L51700 34780
L51720 34850
L51720 34970
" />
</g>
<g style="fill:#840000; fill-opacity:0.0; 
stroke:#840000; stroke-width:60; stroke-opacity:1; 
stroke-linecap:round; stroke-linejoin:round;">
<g transform="rotate(-90 51400 36750)">
<text x="51400" y="36750"
textLength="540" font-size="660" lengthAdjust="spacingAndGlyphs"
text-anchor="middle" opacity="0">1</text>
</g>
<path d="M51370 36600
L51370 36890
" />
<path d="M51370 36750
L50870 36750
L50940 36790
L50990 36840
L51010 36890
" />
<path d="M53500 34250
L54500 34250
" />
</g>
<g style="fill:#008484; fill-opacity:0.0; 
stroke:#008484; stroke-width:60; stroke-opacity:1; 
stroke-linecap:round; stroke-linejoin:round;">
<text x="53400" y="34500"
textLength="1010" font-size="660" lengthAdjust="spacingAndGlyphs"
text-anchor="end" opacity="0">VO</text>
<path d="M52460 33970
L52630 34470
L52790 33970
" />
<path d="M53060 33970
L53150 33970
L53200 34000
L53250 34040
L53270 34140
L53270 34300
L53250 34400
L53200 34450
L53150 34470
L53060 34470
L53010 34450
L52960 34400
L52940 34300
L52940 34140
L52960 34040
L53010 34000
L53060 33970
" />
</g>
<g style="fill:#840000; fill-opacity:0.0; 
stroke:#840000; stroke-width:60; stroke-opacity:1; 
stroke-linecap:round; stroke-linejoin:round;">
<text x="54000" y="34150"
textLength="540" font-size="660" lengthAdjust="spacingAndGlyphs"
text-anchor="middle" opacity="0">2</text>
<path d="M53850 33670
L53880 33650
L53920 33620
L54040 33620
L54090 33650
L54110 33670
L54140 33720
L54140 33760
L54110 33840
L53830 34120
L54140 34120
" />
<path d="M49500 34250
L48500 34250
" />
</g>
<g style="fill:#008484; fill-opacity:0.0; 
stroke:#008484; stroke-width:60; stroke-opacity:1; 
stroke-linecap:round; stroke-linejoin:round;">
<text x="49600" y="34500"
textLength="730" font-size="660" lengthAdjust="spacingAndGlyphs"
text-anchor="start" opacity="0">VI</text>
<path d="M49670 33970
L49840 34470
L50010 33970
" />
<path d="M50170 34470
L50170 33970
" />
</g>
<g style="fill:#840000; fill-opacity:0.0; 
stroke:#840000; stroke-width:60; stroke-opacity:1; 
stroke-linecap:round; stroke-linejoin:round;">
<text x="49000" y="34150"
textLength="540" font-size="660" lengthAdjust="spacingAndGlyphs"
text-anchor="middle" opacity="0">3</text>
<path d="M48830 33620
L49140 33620
L48970 33810
L49040 33810
L49090 33840
L49110 33860
L49140 33910
L49140 34030
L49110 34070
L49090 34100
L49040 34120
L48900 34120
L48850 34100
L48830 34070
" />
</g>
<g style="fill:#008484; fill-opacity:0.0; 
stroke:#008484; stroke-width:60; stroke-opacity:1; 
stroke-linecap:round; stroke-linejoin:round;">
<text x="51500" y="32100"
textLength="1540" font-size="660" lengthAdjust="spacingAndGlyphs"
text-anchor="middle" opacity="0">U40</text>
<path d="M50880 31570
L50880 31980
L50900 32020
L50920 32050
L50970 32070
L51070 32070
L51110 32050
L51140 32020
L51160 31980
L51160 31570
" />
<path d="M51610 31740
L51610 32070
" />
<path d="M51500 31550
L51380 31900
L51690 31900
" />
<path d="M51970 31570
L52020 31570
L52070 31600
L52090 31620
L52110 31670
L52140 31760
L52140 31880
L52110 31980
L52090 32020
L52070 32050
L52020 32070
L51970 32070
L51920 32050
L51900 32020
L51880 31980
L51850 31880
L51850 31760
L51880 31670
L51900 31620
L51920 31600
L51970 31570
" />
<text x="51500" y="33010"
textLength="3850" font-size="660" lengthAdjust="spacingAndGlyphs"
text-anchor="middle" opacity="0">SE8233X2</text>
<path d="M49700 32960
L49770 32980
L49890 32980
L49940 32960
L49960 32930
L49980 32890
L49980 32840
L49960 32790
L49940 32770
L49890 32740
L49790 32720
L49750 32700
L49720 32670
L49700 32620
L49700 32580
L49720 32530
L49750 32510
L49790 32480
L49910 32480
L49980 32510
" />
<path d="M50200 32720
L50360 32720
" />
<path d="M50440 32980
L50200 32980
L50200 32480
L50440 32480
" />
<path d="M50720 32700
L50670 32670
L50650 32650
L50630 32600
L50630 32580
L50650 32530
L50670 32510
L50720 32480
L50820 32480
L50860 32510
L50890 32530
L50910 32580
L50910 32600
L50890 32650
L50860 32670
L50820 32700
L50720 32700
L50670 32720
L50650 32740
L50630 32790
L50630 32890
L50650 32930
L50670 32960
L50720 32980
L50820 32980
L50860 32960
L50890 32930
L50910 32890
L50910 32790
L50890 32740
L50860 32720
L50820 32700
" />
<path d="M51100 32530
L51130 32510
L51170 32480
L51290 32480
L51340 32510
L51360 32530
L51390 32580
L51390 32620
L51360 32700
L51080 32980
L51390 32980
" />
<path d="M51550 32480
L51860 32480
L51700 32670
L51770 32670
L51820 32700
L51840 32720
L51860 32770
L51860 32890
L51840 32930
L51820 32960
L51770 32980
L51630 32980
L51580 32960
L51550 32930
" />
<path d="M52030 32480
L52340 32480
L52170 32670
L52250 32670
L52290 32700
L52320 32720
L52340 32770
L52340 32890
L52320 32930
L52290 32960
L52250 32980
L52100 32980
L52050 32960
L52030 32930
" />
<path d="M52510 32480
L52840 32980
" />
<path d="M52840 32480
L52510 32980
" />
<path d="M53010 32530
L53030 32510
L53080 32480
L53200 32480
L53250 32510
L53270 32530
L53290 32580
L53290 32620
L53270 32700
L52980 32980
L53290 32980
" />
</g>
</g>
<g style="fill:#008484; fill-opacity:0.0; 
stroke:#008484; stroke-width:0; stroke-opacity:1; 
stroke-linecap:round; stroke-linejoin:round;">
<g >
</g>
<g style="fill:#840000; fill-opacity:0.0; 
stroke:#840000; stroke-width:0; stroke-opacity:1; 
stroke-linecap:round; stroke-linejoin:round;">
</g>
<g style="fill:#840000; fill-opacity:0.0; 
stroke:#840000; stroke-width:100; stroke-opacity:1; 
stroke-linecap:round; stroke-linejoin:round;">
<rect x="70850" y="41250" width="800" height="2000" rx="0" />
</g>
<g style="fill:#840000; fill-opacity:0.0; 
stroke:#840000; stroke-width:60; stroke-opacity:1; 
stroke-linecap:round; stroke-linejoin:round;">
<path d="M71250 41250
L71250 40750
" />
<path d="M71250 43250
L71250 43750
" />
</g>
<g style="fill:#008484; fill-opacity:0.0; 
stroke:#008484; stroke-width:60; stroke-opacity:1; 
stroke-linecap:round; stroke-linejoin:round;">
<text x="72470" y="42060"
textLength="1040" font-size="660" lengthAdjust="spacingAndGlyphs"
text-anchor="middle" opacity="0">R9</text>
<path d="M72380 42030
L72220 41790
" />
<path d="M72100 42030
L72100 41530
L72290 41530
L72330 41560
L72360 41580
L72380 41630
L72380 41700
L72360 41750
L72330 41770
L72290 41790
L72100 41790
" />
<path d="M72620 42030
L72720 42030
L72760 42010
L72790 41980
L72830 41910
L72860 41820
L72860 41630
L72830 41580
L72810 41560
L72760 41530
L72670 41530
L72620 41560
L72600 41580
L72570 41630
L72570 41750
L72600 41790
L72620 41820
L72670 41840
L72760 41840
L72810 41820
L72830 41790
L72860 41750
" />
<text x="72700" y="42970"
textLength="1510" font-size="660" lengthAdjust="spacingAndGlyphs"
text-anchor="middle" opacity="0">2K2</text>
<path d="M72060 42490
L72090 42470
L72140 42440
L72250 42440
L72300 42470
L72330 42490
L72350 42540
L72350 42580
L72330 42660
L72040 42940
L72350 42940
" />
<path d="M72560 42940
L72560 42440
" />
<path d="M72850 42940
L72640 42660
" />
<path d="M72850 42440
L72560 42730
" />
<path d="M73040 42490
L73060 42470
L73110 42440
L73230 42440
L73280 42470
L73300 42490
L73330 42540
L73330 42580
L73300 42660
L73020 42940
L73330 42940
" />
</g>
</g>
<g style="fill:#008484; fill-opacity:0.0; 
stroke:#008484; stroke-width:0; stroke-opacity:1; 
stroke-linecap:round; stroke-linejoin:round;">
<g >
</g>
<g style="fill:#840000; fill-opacity:0.0; 
stroke:#840000; stroke-width:0; stroke-opacity:1; 
stroke-linecap:round; stroke-linejoin:round;">
</g>
<g style="fill:#840000; fill-opacity:0.0; 
stroke:#840000; stroke-width:60; stroke-opacity:1; 
stroke-linecap:round; stroke-linejoin:round;">
<path style="fill:#840000; fill-opacity:0.0; 
stroke:#840000; stroke-width:60; stroke-opacity:1; 
stroke-linecap:round; stroke-linejoin:round;fill:none"
d="M 51500,48000
51500,48500
52000,48500
51500,49000
51000,48500
51500,48500
" /> 
</g>
<g style="fill:#008484; fill-opacity:0.0; 
stroke:#008484; stroke-width:60; stroke-opacity:1; 
stroke-linecap:round; stroke-linejoin:round;">
<text x="51550" y="50000"
textLength="2060" font-size="660" lengthAdjust="spacingAndGlyphs"
text-anchor="middle" opacity="0">GNDS</text>
<path d="M50930 49500
L50880 49470
L50810 49470
L50740 49500
L50690 49540
L50660 49590
L50640 49690
L50640 49760
L50660 49850
L50690 49900
L50740 49950
L50810 49970
L50850 49970
L50930 49950
L50950 49920
L50950 49760
L50850 49760
" />
<path d="M51160 49970
L51160 49470
L51450 49970
L51450 49470
" />
<path d="M51690 49970
L51690 49470
L51810 49470
L51880 49500
L51930 49540
L51950 49590
L51970 49690
L51970 49760
L51950 49850
L51930 49900
L51880 49950
L51810 49970
L51690 49970
" />
<path d="M52160 49950
L52240 49970
L52350 49970
L52400 49950
L52430 49920
L52450 49880
L52450 49830
L52430 49780
L52400 49760
L52350 49730
L52260 49710
L52210 49690
L52190 49660
L52160 49610
L52160 49570
L52190 49520
L52210 49500
L52260 49470
L52380 49470
L52450 49500
" />
</g>
</g>
<g style="fill:#008484; fill-opacity:0.0; 
stroke:#008484; stroke-width:0; stroke-opacity:1; 
stroke-linecap:round; stroke-linejoin:round;">
<g >
</g>
<g style="fill:#840000; fill-opacity:0.0; 
stroke:#840000; stroke-width:0; stroke-opacity:1; 
stroke-linecap:round; stroke-linejoin:round;">
</g>
<g style="fill:#840000; fill-opacity:0.0; 
stroke:#840000; stroke-width:100; stroke-opacity:1; 
stroke-linecap:round; stroke-linejoin:round;">
<path style="fill:#840000; fill-opacity:0.0; 
stroke:#840000; stroke-width:100; stroke-opacity:1; 
stroke-linecap:round; stroke-linejoin:round;fill:none"
d="M 71750,38000
70750,38000
" /> 
</g>
<g style="fill:#840000; fill-opacity:0.0; 
stroke:#840000; stroke-width:60; stroke-opacity:1; 
stroke-linecap:round; stroke-linejoin:round;">
<path style="fill:#840000; fill-opacity:0.0; 
stroke:#840000; stroke-width:60; stroke-opacity:1; 
stroke-linecap:round; stroke-linejoin:round;fill:none"
d="M 71250,38000
71250,37000
" /> 
</g>
<g style="fill:#840000; fill-opacity:0.0; 
stroke:#840000; stroke-width:100; stroke-opacity:1; 
stroke-linecap:round; stroke-linejoin:round;">
<path style="fill:#840000; fill-opacity:0.0; 
stroke:#840000; stroke-width:100; stroke-opacity:1; 
stroke-linecap:round; stroke-linejoin:round;fill:none"
d="M 71750,37000
70750,37000
71250,38000
Z" /> 
</g>
<g style="fill:#840000; fill-opacity:0.0; 
stroke:#840000; stroke-width:60; stroke-opacity:1; 
stroke-linecap:round; stroke-linejoin:round;">
<path style="fill:#840000; fill-opacity:0.0; 
stroke:#840000; stroke-width:60; stroke-opacity:1; 
stroke-linecap:round; stroke-linejoin:round;fill:none"
d="M 71550,38700
72150,39300
72150,39000
72150,39300
71850,39300
" /> 
<path style="fill:#840000; fill-opacity:0.0; 
stroke:#840000; stroke-width:60; stroke-opacity:1; 
stroke-linecap:round; stroke-linejoin:round;fill:none"
d="M 71550,38200
72150,38800
72150,38500
72150,38800
71850,38800
" /> 
<path d="M71250 38000
L71250 39000
" />
<path d="M71250 37000
L71250 36000
" />
</g>
<g style="fill:#008484; fill-opacity:0.0; 
stroke:#008484; stroke-width:60; stroke-opacity:1; 
stroke-linecap:round; stroke-linejoin:round;">
<text x="72950" y="37330"
textLength="1040" font-size="660" lengthAdjust="spacingAndGlyphs"
text-anchor="middle" opacity="0">D4</text>
<path d="M72580 37300
L72580 36800
L72700 36800
L72770 36830
L72810 36870
L72840 36920
L72860 37020
L72860 37090
L72840 37180
L72810 37230
L72770 37280
L72700 37300
L72580 37300
" />
<path d="M73290 36970
L73290 37300
" />
<path d="M73170 36780
L73050 37130
L73360 37130
" />
<text x="73180" y="38240"
textLength="1510" font-size="660" lengthAdjust="spacingAndGlyphs"
text-anchor="middle" opacity="0">RED</text>
<path d="M72850 38210
L72690 37970
" />
<path d="M72570 38210
L72570 37710
L72760 37710
L72810 37740
L72830 37760
L72850 37810
L72850 37880
L72830 37930
L72810 37950
L72760 37970
L72570 37970
" />
<path d="M73070 37950
L73230 37950
" />
<path d="M73310 38210
L73070 38210
L73070 37710
L73310 37710
" />
<path d="M73520 38210
L73520 37710
L73640 37710
L73710 37740
L73760 37780
L73780 37830
L73810 37930
L73810 38000
L73780 38090
L73760 38140
L73710 38190
L73640 38210
L73520 38210
" />
</g>
</g>
<g style="fill:#008484; fill-opacity:0.0; 
stroke:#008484; stroke-width:0; stroke-opacity:1; 
stroke-linecap:round; stroke-linejoin:round;">
<g >
</g>
<g style="fill:#840000; fill-opacity:0.0; 
stroke:#840000; stroke-width:0; stroke-opacity:1; 
stroke-linecap:round; stroke-linejoin:round;">
</g>
<g style="fill:#840000; fill-opacity:0.0; 
stroke:#840000; stroke-width:60; stroke-opacity:1; 
stroke-linecap:round; stroke-linejoin:round;">
<circle cx="71250" cy="31700" r="300" /> 
<path d="M71250 32000
L71250 33000
" />
</g>
<g style="fill:#008484; fill-opacity:0.0; 
stroke:#008484; stroke-width:60; stroke-opacity:1; 
stroke-linecap:round; stroke-linejoin:round;">
<text x="72540" y="32550"
textLength="1420" font-size="660" lengthAdjust="spacingAndGlyphs"
text-anchor="middle" opacity="0">TP8</text>
<path d="M71900 32020
L72190 32020
" />
<path d="M72050 32520
L72050 32020
" />
<path d="M72360 32520
L72360 32020
L72550 32020
L72590 32050
L72620 32070
L72640 32120
L72640 32190
L72620 32240
L72590 32260
L72550 32280
L72360 32280
" />
<path d="M72930 32240
L72880 32210
L72860 32190
L72830 32140
L72830 32120
L72860 32070
L72880 32050
L72930 32020
L73020 32020
L73070 32050
L73090 32070
L73120 32120
L73120 32140
L73090 32190
L73070 32210
L73020 32240
L72930 32240
L72880 32260
L72860 32280
L72830 32330
L72830 32430
L72860 32470
L72880 32500
L72930 32520
L73020 32520
L73070 32500
L73090 32470
L73120 32430
L73120 32330
L73090 32280
L73070 32260
L73020 32240
" />
</g>
</g>
<g style="fill:#008484; fill-opacity:0.0; 
stroke:#008484; stroke-width:0; stroke-opacity:1; 
stroke-linecap:round; stroke-linejoin:round;">
<g >
</g>
<g style="fill:#840000; fill-opacity:0.0; 
stroke:#840000; stroke-width:0; stroke-opacity:1; 
stroke-linecap:round; stroke-linejoin:round;">
</g>
<g style="fill:#840000; fill-opacity:0.0; 
stroke:#840000; stroke-width:200; stroke-opacity:1; 
stroke-linecap:round; stroke-linejoin:round;">
<path style="fill:#840000; fill-opacity:0.0; 
stroke:#840000; stroke-width:200; stroke-opacity:1; 
stroke-linecap:round; stroke-linejoin:round;fill:none"
d="M 61950,37550
63550,37550
" /> 
<path style="fill:#840000; fill-opacity:0.0; 
stroke:#840000; stroke-width:200; stroke-opacity:1; 
stroke-linecap:round; stroke-linejoin:round;fill:none"
d="M 61950,36950
63550,36950
" /> 
</g>
<g style="fill:#840000; fill-opacity:0.0; 
stroke:#840000; stroke-width:60; stroke-opacity:1; 
stroke-linecap:round; stroke-linejoin:round;">
<path d="M62750 36850
L62750 35750
" />
<path d="M62750 37650
L62750 38750
" />
</g>
<g style="fill:#008484; fill-opacity:0.0; 
stroke:#008484; stroke-width:60; stroke-opacity:1; 
stroke-linecap:round; stroke-linejoin:round;">
<text x="64420" y="37060"
textLength="1040" font-size="660" lengthAdjust="spacingAndGlyphs"
text-anchor="middle" opacity="0">C7</text>
<path d="M64330 36980
L64310 37010
L64240 37030
L64190 37030
L64120 37010
L64070 36960
L64050 36910
L64020 36820
L64020 36750
L64050 36650
L64070 36600
L64120 36560
L64190 36530
L64240 36530
L64310 36560
L64330 36580
" />
<path d="M64500 36530
L64830 36530
L64620 37030
" />
<text x="64840" y="37970"
textLength="1890" font-size="660" lengthAdjust="spacingAndGlyphs"
text-anchor="middle" opacity="0">10uF</text>
<path d="M64300 37940
L64010 37940
" />
<path d="M64160 37940
L64160 37440
L64110 37510
L64060 37560
L64010 37580
" />
<path d="M64610 37440
L64660 37440
L64700 37470
L64730 37490
L64750 37540
L64780 37630
L64780 37750
L64750 37850
L64730 37890
L64700 37920
L64660 37940
L64610 37940
L64560 37920
L64540 37890
L64510 37850
L64490 37750
L64490 37630
L64510 37540
L64540 37490
L64560 37470
L64610 37440
" />
<path d="M65200 37610
L65200 37940
" />
<path d="M64990 37610
L64990 37870
L65010 37920
L65060 37940
L65130 37940
L65180 37920
L65200 37890
" />
<path d="M65610 37680
L65440 37680
" />
<path d="M65440 37940
L65440 37440
L65680 37440
" />
</g>
</g>
<g style="fill:#008484; fill-opacity:0.0; 
stroke:#008484; stroke-width:0; stroke-opacity:1; 
stroke-linecap:round; stroke-linejoin:round;">
<g >
</g>
<g style="fill:#840000; fill-opacity:0.0; 
stroke:#840000; stroke-width:0; stroke-opacity:1; 
stroke-linecap:round; stroke-linejoin:round;">
</g>
<g style="fill:#840000; fill-opacity:0.0; 
stroke:#840000; stroke-width:200; stroke-opacity:1; 
stroke-linecap:round; stroke-linejoin:round;">
<path style="fill:#840000; fill-opacity:0.0; 
stroke:#840000; stroke-width:200; stroke-opacity:1; 
stroke-linecap:round; stroke-linejoin:round;fill:none"
d="M 39450,37550
41050,37550
" /> 
<path style="fill:#840000; fill-opacity:0.0; 
stroke:#840000; stroke-width:200; stroke-opacity:1; 
stroke-linecap:round; stroke-linejoin:round;fill:none"
d="M 39450,36950
41050,36950
" /> 
</g>
<g style="fill:#840000; fill-opacity:0.0; 
stroke:#840000; stroke-width:60; stroke-opacity:1; 
stroke-linecap:round; stroke-linejoin:round;">
<path d="M40250 36850
L40250 35750
" />
<path d="M40250 37650
L40250 38750
" />
</g>
<g style="fill:#008484; fill-opacity:0.0; 
stroke:#008484; stroke-width:60; stroke-opacity:1; 
stroke-linecap:round; stroke-linejoin:round;">
<text x="41920" y="37060"
textLength="1040" font-size="660" lengthAdjust="spacingAndGlyphs"
text-anchor="middle" opacity="0">C6</text>
<path d="M41830 36980
L41810 37010
L41740 37030
L41690 37030
L41620 37010
L41570 36960
L41550 36910
L41520 36820
L41520 36750
L41550 36650
L41570 36600
L41620 36560
L41690 36530
L41740 36530
L41810 36560
L41830 36580
" />
<path d="M42260 36530
L42170 36530
L42120 36560
L42090 36580
L42050 36650
L42020 36750
L42020 36940
L42050 36980
L42070 37010
L42120 37030
L42210 37030
L42260 37010
L42280 36980
L42310 36940
L42310 36820
L42280 36770
L42260 36750
L42210 36720
L42120 36720
L42070 36750
L42050 36770
L42020 36820
" />
<text x="42110" y="37970"
textLength="1420" font-size="660" lengthAdjust="spacingAndGlyphs"
text-anchor="middle" opacity="0">1uF</text>
<path d="M41810 37940
L41520 37940
" />
<path d="M41660 37940
L41660 37440
L41620 37510
L41570 37560
L41520 37580
" />
<path d="M42240 37610
L42240 37940
" />
<path d="M42020 37610
L42020 37870
L42050 37920
L42090 37940
L42160 37940
L42210 37920
L42240 37890
" />
<path d="M42640 37680
L42470 37680
" />
<path d="M42470 37940
L42470 37440
L42710 37440
" />
</g>
</g>
<g style="fill:#008484; fill-opacity:0.0; 
stroke:#008484; stroke-width:60; stroke-opacity:1; 
stroke-linecap:round; stroke-linejoin:round;">
</g>
<g style="fill:#008400; fill-opacity:0.0; 
stroke:#008400; stroke-width:60; stroke-opacity:1; 
stroke-linecap:round; stroke-linejoin:round;">
<path d="M40250 35750
L40250 34250
" />
<path d="M40250 34250
L32500 34250
" />
<path d="M40250 38750
L40250 40250
" />
<path d="M40250 40250
L51500 40250
" />
<path d="M51500 40250
L51500 45000
" />
<path d="M54500 34250
L62750 34250
" />
<path d="M62750 38750
L62750 40250
" />
<path d="M62750 35750
L62750 34250
" />
<path d="M62750 34250
L71250 34250
" />
<path d="M48500 34250
L40250 34250
" />
<path d="M51500 37250
L51500 40250
" />
<path d="M71250 40750
L71250 39000
" />
<path d="M71250 36000
L71250 34250
" />
<path d="M71250 34250
L85250 34250
" />
<path d="M71250 43750
L71250 45000
" />
<path d="M71250 45000
L51500 45000
" />
<path d="M51500 45000
L51500 48000
" />
<path d="M71250 34250
L71250 33000
" />
<path d="M62750 40250
L51500 40250
" />
</g>
<g style="fill:#848400; fill-opacity:0.0; 
stroke:#848400; stroke-width:60; stroke-opacity:1; 
stroke-linecap:round; stroke-linejoin:round;">
<text x="85850" y="34500"
textLength="3730" font-size="660" lengthAdjust="spacingAndGlyphs"
text-anchor="start" opacity="0">LDO_VOUT</text>
<path d="M86230 34470
L85990 34470
L85990 33970
" />
<path d="M86400 34470
L86400 33970
L86520 33970
L86590 34000
L86640 34040
L86660 34090
L86680 34190
L86680 34260
L86660 34350
L86640 34400
L86590 34450
L86520 34470
L86400 34470
" />
<path d="M86990 33970
L87090 33970
L87140 34000
L87180 34040
L87210 34140
L87210 34300
L87180 34400
L87140 34450
L87090 34470
L86990 34470
L86950 34450
L86900 34400
L86880 34300
L86880 34140
L86900 34040
L86950 34000
L86990 33970
" />
<path d="M87300 34520
L87680 34520
" />
<path d="M87730 33970
L87900 34470
L88070 33970
" />
<path d="M88330 33970
L88420 33970
L88470 34000
L88520 34040
L88540 34140
L88540 34300
L88520 34400
L88470 34450
L88420 34470
L88330 34470
L88280 34450
L88230 34400
L88210 34300
L88210 34140
L88230 34040
L88280 34000
L88330 33970
" />
<path d="M88760 33970
L88760 34380
L88780 34420
L88800 34450
L88850 34470
L88950 34470
L88990 34450
L89020 34420
L89040 34380
L89040 33970
" />
<path d="M89210 33970
L89490 33970
" />
<path d="M89350 34470
L89350 33970
" />
</g>
<g style="fill:#848400; fill-opacity:0.0; 
stroke:#848400; stroke-width:100; stroke-opacity:1; 
stroke-linecap:round; stroke-linejoin:round;">
<path style="fill:#848400; fill-opacity:0.0; 
stroke:#848400; stroke-width:100; stroke-opacity:1; 
stroke-linecap:round; stroke-linejoin:round;fill:none"
d="M 85750,34250
85500,34000
85250,34000
85250,34500
85500,34500
Z" /> 
</g>
<g style="fill:#848400; fill-opacity:0.0; 
stroke:#848400; stroke-width:60; stroke-opacity:1; 
stroke-linecap:round; stroke-linejoin:round;">
<text x="31900" y="34500"
textLength="3060" font-size="660" lengthAdjust="spacingAndGlyphs"
text-anchor="end" opacity="0">LDO_VIN</text>
<path d="M29220 34470
L28980 34470
L28980 33970
" />
<path d="M29390 34470
L29390 33970
L29510 33970
L29580 34000
L29630 34040
L29650 34090
L29670 34190
L29670 34260
L29650 34350
L29630 34400
L29580 34450
L29510 34470
L29390 34470
" />
<path d="M29980 33970
L30080 33970
L30130 34000
L30170 34040
L30200 34140
L30200 34300
L30170 34400
L30130 34450
L30080 34470
L29980 34470
L29940 34450
L29890 34400
L29870 34300
L29870 34140
L29890 34040
L29940 34000
L29980 33970
" />
<path d="M30290 34520
L30670 34520
" />
<path d="M30720 33970
L30890 34470
L31060 33970
" />
<path d="M31220 34470
L31220 33970
" />
<path d="M31460 34470
L31460 33970
L31750 34470
L31750 33970
" />
</g>
<g style="fill:#848400; fill-opacity:0.0; 
stroke:#848400; stroke-width:100; stroke-opacity:1; 
stroke-linecap:round; stroke-linejoin:round;">
<path style="fill:#848400; fill-opacity:0.0; 
stroke:#848400; stroke-width:100; stroke-opacity:1; 
stroke-linecap:round; stroke-linejoin:round;fill:none"
d="M 32500,34250
32250,34000
32000,34000
32000,34500
32250,34500
Z" /> 
</g>
<g style="fill:#848400; fill-opacity:0.0; 
stroke:#848400; stroke-width:60; stroke-opacity:1; 
stroke-linecap:round; stroke-linejoin:round;">
</g>
<g style="fill:#0000C2; fill-opacity:0.0; 
stroke:#0000C2; stroke-width:60; stroke-opacity:1; 
stroke-linecap:round; stroke-linejoin:round;">
<text x="50250" y="30090"
textLength="2200" font-size="660" lengthAdjust="spacingAndGlyphs"
text-anchor="start" opacity="0">30VIN</text>
<path d="M50350 29560
L50660 29560
L50490 29750
L50560 29750
L50610 29780
L50630 29800
L50660 29850
L50660 29970
L50630 30010
L50610 30040
L50560 30060
L50420 30060
L50370 30040
L50350 30010
" />
<path d="M50970 29560
L51010 29560
L51060 29590
L51080 29610
L51110 29660
L51130 29750
L51130 29870
L51110 29970
L51080 30010
L51060 30040
L51010 30060
L50970 30060
L50920 30040
L50890 30010
L50870 29970
L50850 29870
L50850 29750
L50870 29660
L50890 29610
L50920 29590
L50970 29560
" />
<path d="M51280 29560
L51440 30060
L51610 29560
" />
<path d="M51780 30060
L51780 29560
" />
<path d="M52010 30060
L52010 29560
L52300 30060
L52300 29560
" />
<text x="50250" y="30900"
textLength="2580" font-size="660" lengthAdjust="spacingAndGlyphs"
text-anchor="start" opacity="0">100mA</text>
<path d="M50660 30870
L50370 30870
" />
<path d="M50510 30870
L50510 30370
L50470 30440
L50420 30490
L50370 30510
" />
<path d="M50970 30370
L51010 30370
L51060 30400
L51080 30420
L51110 30470
L51130 30560
L51130 30680
L51110 30780
L51080 30820
L51060 30850
L51010 30870
L50970 30870
L50920 30850
L50890 30820
L50870 30780
L50850 30680
L50850 30560
L50870 30470
L50890 30420
L50920 30400
L50970 30370
" />
<path d="M51440 30370
L51490 30370
L51540 30400
L51560 30420
L51580 30470
L51610 30560
L51610 30680
L51580 30780
L51560 30820
L51540 30850
L51490 30870
L51440 30870
L51390 30850
L51370 30820
L51350 30780
L51320 30680
L51320 30560
L51350 30470
L51370 30420
L51390 30400
L51440 30370
" />
<path d="M51820 30870
L51820 30540
" />
<path d="M51820 30590
L51850 30560
L51890 30540
L51970 30540
L52010 30560
L52040 30610
L52040 30870
" />
<path d="M52040 30610
L52060 30560
L52110 30540
L52180 30540
L52230 30560
L52250 30610
L52250 30870
" />
<path d="M52470 30730
L52700 30730
" />
<path d="M52420 30870
L52580 30370
L52750 30870
" />
</g>
<g style="fill:#0000C2; fill-opacity:0.0; 
stroke:#0000C2; stroke-width:0; stroke-opacity:1; 
stroke-linecap:round; stroke-linejoin:round;">
</g>
<g style="fill:#008400; fill-opacity:0.0; 
stroke:#008400; stroke-width:0; stroke-opacity:1; 
stroke-linecap:round; stroke-linejoin:round;">
</g>
<g style="fill:#008400; fill-opacity:1.0; 
stroke:#008400; stroke-width:100; stroke-opacity:1; 
stroke-linecap:round; stroke-linejoin:round;">
<circle cx="40250" cy="34250" r="200" /> 
</g>
<g style="fill:#008400; fill-opacity:1.0; 
stroke:#008400; stroke-width:0; stroke-opacity:1; 
stroke-linecap:round; stroke-linejoin:round;">
</g>
<g style="fill:#008400; fill-opacity:1.0; 
stroke:#008400; stroke-width:100; stroke-opacity:1; 
stroke-linecap:round; stroke-linejoin:round;">
<circle cx="51500" cy="40250" r="200" /> 
</g>
<g style="fill:#008400; fill-opacity:1.0; 
stroke:#008400; stroke-width:0; stroke-opacity:1; 
stroke-linecap:round; stroke-linejoin:round;">
</g>
<g style="fill:#008400; fill-opacity:1.0; 
stroke:#008400; stroke-width:100; stroke-opacity:1; 
stroke-linecap:round; stroke-linejoin:round;">
<circle cx="62750" cy="34250" r="200" /> 
</g>
<g style="fill:#008400; fill-opacity:1.0; 
stroke:#008400; stroke-width:0; stroke-opacity:1; 
stroke-linecap:round; stroke-linejoin:round;">
</g>
<g style="fill:#008400; fill-opacity:1.0; 
stroke:#008400; stroke-width:100; stroke-opacity:1; 
stroke-linecap:round; stroke-linejoin:round;">
<circle cx="71250" cy="34250" r="200" /> 
</g>
<g style="fill:#008400; fill-opacity:1.0; 
stroke:#008400; stroke-width:0; stroke-opacity:1; 
stroke-linecap:round; stroke-linejoin:round;">
</g>
<g style="fill:#008400; fill-opacity:1.0; 
stroke:#008400; stroke-width:100; stroke-opacity:1; 
stroke-linecap:round; stroke-linejoin:round;">
<circle cx="51500" cy="45000" r="200" /> 
</g> 
</svg>
